<?xml version="1.0" encoding="UTF-8"?>
<svg width="800px" height="187px" viewBox="0 0 800 187" version="1.1" xmlns="http://www.w3.org/2000/svg" xmlns:xlink="http://www.w3.org/1999/xlink">
    <title>breadcrumber01</title>
    <defs>
        <path d="M12.2458984,4.10292969 C12.2458984,4.23417969 12.2021484,4.36679687 12.1146484,4.47753906 L7.45390625,10.2716797 C7.34042969,10.4125 7.16953125,10.4945312 6.98769531,10.4945312 C6.80722656,10.4945312 6.63496094,10.4125 6.52285156,10.2716797 L1.88671875,4.50214844 C1.68027344,4.24511719 1.72128906,3.86914062 1.97832031,3.66269531 C2.23535156,3.45625 2.61132813,3.49726562 2.81777344,3.75429687 L6.9890625,8.94414062 L11.1835938,3.72832031 C11.3900391,3.47128906 11.7660156,3.43027344 12.0230469,3.63671875 C12.1693359,3.75566406 12.2458984,3.92792969 12.2458984,4.10292969 Z" id="path-1"></path>
        <path d="M12.2458984,4.10292969 C12.2458984,4.23417969 12.2021484,4.36679687 12.1146484,4.47753906 L7.45390625,10.2716797 C7.34042969,10.4125 7.16953125,10.4945312 6.98769531,10.4945312 C6.80722656,10.4945312 6.63496094,10.4125 6.52285156,10.2716797 L1.88671875,4.50214844 C1.68027344,4.24511719 1.72128906,3.86914062 1.97832031,3.66269531 C2.23535156,3.45625 2.61132813,3.49726562 2.81777344,3.75429687 L6.9890625,8.94414062 L11.1835938,3.72832031 C11.3900391,3.47128906 11.7660156,3.43027344 12.0230469,3.63671875 C12.1693359,3.75566406 12.2458984,3.92792969 12.2458984,4.10292969 Z" id="path-3"></path>
    </defs>
    <g id="XXXGuideline" stroke="none" stroke-width="1" fill="none" fill-rule="evenodd">
        <g id="Guideline_導航" transform="translate(-70.000000, -1576.000000)">
            <g id="🌑Steps-Copy-3" transform="translate(70.000000, 1485.000000)">
                <g id="breadcrumber01" transform="translate(0.000000, 91.000000)">
                    <rect id="bg" x="0" y="0" width="800" height="187" rx="8"></rect>
                    <rect id="bg" fill="#043458" x="47" y="20" width="730" height="103"></rect>
                    <g id="Group-2" transform="translate(365.000000, 20.000000)">
                        <path d="M0,0 L397,0 L397,16 C397,27.045695 388.045695,36 377,36 L20,36 C8.954305,36 1.3527075e-15,27.045695 0,16 L0,0 L0,0 Z" id="Rectangle" fill="#F5A700"></path>
                        <g id="Group" transform="translate(166.000000, 7.000000)">
                            <g transform="translate(0.000000, 1.000000)" fill="#FFFFFF" id="Icon/top-menu/user">
                                <path d="M13.2,11.6875 C12.175,11.6875 11.6821429,12.25 10,12.25 C8.31785714,12.25 7.82857143,11.6875 6.8,11.6875 C4.15,11.6875 2,13.8039063 2,16.4125 L2,17.3125 C2,18.2441406 2.76785714,19 3.71428571,19 L16.2857143,19 C17.2321429,19 18,18.2441406 18,17.3125 L18,16.4125 C18,13.8039063 15.85,11.6875 13.2,11.6875 Z M16.2857143,17.3125 L3.71428571,17.3125 L3.71428571,16.4125 C3.71428571,14.7390625 5.1,13.375 6.8,13.375 C7.32142857,13.375 8.16785714,13.9375 10,13.9375 C11.8464286,13.9375 12.675,13.375 13.2,13.375 C14.9,13.375 16.2857143,14.7390625 16.2857143,16.4125 L16.2857143,17.3125 Z M10,11.125 C12.8392857,11.125 15.1428571,8.85742188 15.1428571,6.0625 C15.1428571,3.26757812 12.8392857,1 10,1 C7.16071429,1 4.85714286,3.26757812 4.85714286,6.0625 C4.85714286,8.85742188 7.16071429,11.125 10,11.125 Z M10,2.6875 C11.8892857,2.6875 13.4285714,4.20273438 13.4285714,6.0625 C13.4285714,7.92226562 11.8892857,9.4375 10,9.4375 C8.11071429,9.4375 6.57142857,7.92226562 6.57142857,6.0625 C6.57142857,4.20273438 8.11071429,2.6875 10,2.6875 Z" id="Shape"></path>
                            </g>
                            <text id="管理者名稱" font-family="PingFangTC-Regular, PingFang TC" font-size="14" font-weight="normal" line-spacing="22" fill="#FFFFFF">
                                <tspan x="28" y="15">管理者名稱</tspan>
                            </text>
                            <g transform="translate(106.000000, 4.000000)" id="Icon/arrow/Down-14px">
                                <mask id="mask-2" fill="white">
                                    <use xlink:href="#path-1"></use>
                                </mask>
                                <use id="Mask" fill="#FFFFFF" xlink:href="#path-1"></use>
                            </g>
                        </g>
                        <rect id="Rectangle-Copy" fill="#FFFFFF" opacity="0.646693638" x="301" y="11" width="1" height="14"></rect>
                        <rect id="Rectangle-Copy-3" fill="#FFFFFF" opacity="0.646693638" x="150" y="11" width="1" height="14"></rect>
                        <g id="Group-4" transform="translate(317.000000, 7.000000)" fill="#FFFFFF">
                            <g id="Icon/top-menu/notification" transform="translate(0.000000, 1.000000)">
                                <path d="M18.3055389,13.4443555 C17.5885858,12.6739648 16.2470819,11.5150391 16.2470819,7.71875 C16.2470819,4.83535156 14.2253631,2.52714844 11.4993084,1.96085938 L11.4993084,1.1875 C11.4993084,0.531777344 10.9679022,0 10.3125506,0 C9.65719905,0 9.1257928,0.531777344 9.1257928,1.1875 L9.1257928,1.96085938 C6.39973812,2.52714844 4.37801937,4.83535156 4.37801937,7.71875 C4.37801937,11.5150391 3.03651546,12.6739648 2.31956233,13.4443555 C2.09690608,13.6837109 1.99819515,13.9698242 2.00002496,14.25 C2.00413265,14.8585937 2.4817303,15.4375 3.19126155,15.4375 L17.4338397,15.4375 C18.1433709,15.4375 18.6213397,14.8585937 18.6250763,14.25 C18.6269061,13.9698242 18.5281951,13.6833398 18.3055389,13.4443555 L18.3055389,13.4443555 Z M4.50604671,13.65625 C5.29350765,12.6183008 6.15444515,10.8979102 6.15852718,7.74027344 C6.15852718,7.73285156 6.15630062,7.72617188 6.15630062,7.71875 C6.15630062,5.42316406 8.01696468,3.5625 10.3125506,3.5625 C12.6081366,3.5625 14.4688006,5.42316406 14.4688006,7.71875 C14.4688006,7.72617187 14.4665741,7.73285156 14.4665741,7.74027344 C14.4706561,10.8982813 15.3315936,12.6186719 16.1190545,13.65625 L4.50604671,13.65625 Z M10.3125506,19 C11.6232537,19 12.6864373,17.9368164 12.6864373,16.625 L7.9386639,16.625 C7.9386639,17.9368164 9.00184749,19 10.3125506,19 Z" id="Shape"></path>
                            </g>
                            <text id="通知" font-family="PingFangTC-Regular, PingFang TC" font-size="14" font-weight="normal" line-spacing="22">
                                <tspan x="28" y="15">通知</tspan>
                            </text>
                        </g>
                        <g id="Group-4-Copy" transform="translate(15.000000, 7.000000)">
                            <text id="買賣小幫手" font-family="PingFangTC-Regular, PingFang TC" font-size="14" font-weight="normal" line-spacing="22" fill="#FFFFFF">
                                <tspan x="28" y="15">買賣小幫手</tspan>
                            </text>
                            <g id="Icon/arrow/Down-14px" transform="translate(106.000000, 4.000000)">
                                <mask id="mask-4" fill="white">
                                    <use xlink:href="#path-3"></use>
                                </mask>
                                <use id="Mask" fill="#FFFFFF" xlink:href="#path-3"></use>
                            </g>
                            <g id="Icon/top-menu/user" transform="translate(0.000000, 1.000000)" fill="#FFFFFF">
                                <path d="M13.25,18 C13.6642136,18 14,18.3357864 14,18.75 C14,19.1642136 13.6642136,19.5 13.25,19.5 L6.75,19.5 C6.33578644,19.5 6,19.1642136 6,18.75 C6,18.3357864 6.33578644,18 6.75,18 L13.25,18 Z M10,0.5 C14.1421356,0.5 17.5,3.85786438 17.5,8 C17.5,10.333911 16.424031,12.4815594 14.6537742,13.8823144 L14.6537742,13.8823144 L14.5,13.999 L14.5,14.5 C14.5,15.8254834 13.4684641,16.9100387 12.1643757,16.9946823 L12.1643757,16.9946823 L12,17 L8,17 C6.61928813,17 5.5,15.8807119 5.5,14.4999546 L5.5,14.4999546 L5.5,13.999 L5.347199,13.8830853 C3.6472132,12.5383901 2.58722154,10.5050009 2.50514218,8.27919235 L2.50514218,8.27919235 L2.5,8 C2.5,3.85786438 5.85786438,0.5 10,0.5 Z M10,2 C6.6862915,2 4,4.6862915 4,8 C4,10.2208633 5.20661355,12.159907 7.00003939,13.1973296 L7.00003939,13.1973296 L7,14.5 C7,15.0522847 7.44771525,15.5 8,15.5 L8,15.5 L12,15.5 C12.5522847,15.5 13,15.0522847 13,14.5 L13,14.5 L13.000963,13.1967496 C14.793836,12.1591844 16,10.2204495 16,8 C16,4.6862915 13.3137085,2 10,2 Z M10.4145795,4.40597503 C10.7283772,4.61412586 10.8347621,5.01770583 10.679486,5.34870069 L10.6249991,5.44555358 L9.427,7.25 L12.0198131,7.25 C12.5853822,7.25 12.9348001,7.84470918 12.6937328,8.32996673 L12.6415216,8.41949797 L10.6217085,11.4129211 C10.3900262,11.7562813 9.92386215,11.846814 9.58050203,11.6151317 C9.26835646,11.4045114 9.16515915,11.0001045 9.32304209,10.6703451 L9.37829151,10.5739252 L10.608,8.75 L8.03056173,8.75 C7.46751662,8.75 7.11776079,8.16000357 7.35425816,7.67496553 L7.40556263,7.58542054 L9.3750009,4.61639466 C9.60396682,4.27121719 10.069402,4.17700911 10.4145795,4.40597503 Z" id="Combined-Shape"></path>
                            </g>
                        </g>
                    </g>
                    <g id="Breadcrumber/_Resources/Default/Non-current-page" transform="translate(97.000000, 30.000000)" fill="#FFFFFF">
                        <g id="Group" transform="translate(0.000000, 24.000000)" fill-opacity="0.65" font-family="PingFangTC-Regular, PingFang TC" font-size="14" font-weight="normal">
                            <g id="Breadcrumber/_Resources/Default/Non-current-page">
                                <text id="選單">
                                    <tspan x="0" y="17">模組名稱</tspan>
                                </text>
                                <text id="/">
                                    <tspan x="66" y="17">/</tspan>
                                </text>
                            </g>
                            <g transform="translate(83.000000, 0.000000)" id="Breadcrumber/_Resources/Default/Non-current-page-Copy-2">
                                <text id="選單">
                                    <tspan x="0" y="17">模組功能名稱</tspan>
                                </text>
                            </g>
                        </g>
                        <g id="Group" font-family="PingFangTC-Semibold, PingFang TC" font-size="18" font-weight="500">
                            <g id="Breadcrumber/_Resources/Default/Non-current-page">
                                <text id="當前選單">
                                    <tspan x="0" y="19">標題</tspan>
                                </text>
                            </g>
                        </g>
                    </g>
                    <g id="size-width:-Button/Primary/Basic/Medium" transform="translate(47.000000, 124.000000)">
                        <g id="Group" transform="translate(0.000000, 13.500000)" fill="#FF5500" fill-rule="nonzero">
                            <g id="line">
                                <path id="Line" d="M50,9 L49,9 L49,5 L1,5 L1,9 L0,9 L0,0 L1,0 L1,4 L49,4 L49,0 L50,0 L50,9 Z"></path>
                            </g>
                        </g>
                        <g id="Number" transform="translate(3.500000, 20.500000)">
                            <path d="M21.5,0 L24.5,3 L41,3 C42.1045695,3 43,3.8954305 43,5 L43,23 C43,24.1045695 42.1045695,25 41,25 L2,25 C0.8954305,25 1.3527075e-16,24.1045695 0,23 L0,5 C-1.3527075e-16,3.8954305 0.8954305,3 2,3 L18.5,3 L21.5,0 Z" id="Bg" fill="#FF5500"></path>
                            <text id="数据" font-family="Menlo-Regular, Menlo" font-size="12" font-weight="normal" fill="#FFFFFF">
                                <tspan x="7.05078125" y="18">50px</tspan>
                            </text>
                        </g>
                    </g>
                    <g id="Number" transform="translate(20.000000, 28.000000)">
                        <path d="M44,0 C45.1045695,-2.02906125e-16 46,0.8954305 46,2 L46,20 C46,21.1045695 45.1045695,22 44,22 L5,22 C3.8954305,22 3,21.1045695 3,20 L3,14 L0,11 L3,8 L3,2 C3,0.8954305 3.8954305,2.02906125e-16 5,0 L44,0 Z" id="Bg" fill="#FF5500" transform="translate(23.000000, 11.000000) scale(-1, 1) translate(-23.000000, -11.000000) "></path>
                        <text id="数据" font-family="Menlo-Regular, Menlo" font-size="12" font-weight="normal" fill="#FFFFFF">
                            <tspan x="8" y="15">18px</tspan>
                        </text>
                    </g>
                    <g id="Number" transform="translate(20.000000, 57.000000)">
                        <path d="M44,0 C45.1045695,-2.02906125e-16 46,0.8954305 46,2 L46,20 C46,21.1045695 45.1045695,22 44,22 L5,22 C3.8954305,22 3,21.1045695 3,20 L3,14 L0,11 L3,8 L3,2 C3,0.8954305 3.8954305,2.02906125e-16 5,0 L44,0 Z" id="Bg" fill="#FF5500" transform="translate(23.000000, 11.000000) scale(-1, 1) translate(-23.000000, -11.000000) "></path>
                        <text id="数据" font-family="Menlo-Regular, Menlo" font-size="12" font-weight="normal" fill="#FFFFFF">
                            <tspan x="8" y="15">13px</tspan>
                        </text>
                    </g>
                </g>
            </g>
        </g>
    </g>
</svg>