<?xml version="1.0" encoding="UTF-8"?>
<svg width="285px" height="454px" viewBox="0 0 285 454" version="1.1" xmlns="http://www.w3.org/2000/svg" xmlns:xlink="http://www.w3.org/1999/xlink">
    <title>upload/type01</title>
    <defs>
        <path d="M1.34667969,8.75410156 L1.43167787,8.76172706 C1.65228829,8.80180122 1.81972656,8.99503038 1.81972656,9.22714844 L1.81972656,9.22714844 L1.81972656,11.9 C1.81972656,12.0558594 1.946875,12.1816406 2.10136719,12.1816406 L2.10136719,12.1816406 L11.8972656,12.1816406 C12.053125,12.1816406 12.1789063,12.0544922 12.1789063,11.9 L12.1789063,11.9 L12.1789063,9.22851562 C12.1789063,8.96738281 12.3908203,8.75546875 12.6519531,8.75546875 L12.6519531,8.75546875 L12.7369513,8.76309237 C12.9575617,8.80315152 13.125,8.99624566 13.125,9.22714844 L13.125,9.22714844 L13.125,12.2746094 C13.125,12.7421875 12.7449219,13.1236328 12.2759766,13.1236328 L12.2759766,13.1236328 L1.72402344,13.1236328 C1.25644531,13.1236328 0.875,12.7435547 0.875,12.2746094 L0.875,12.2746094 L0.875,9.22714844 C0.875,8.96738281 1.08554688,8.75410156 1.34667969,8.75410156 L1.34667969,8.75410156 Z M7.01367188,0.875 C7.13535156,0.875 7.25566406,0.921484375 7.34863281,1.01308594 L9.47871094,3.14453125 C9.66328125,3.32910156 9.66328125,3.62851562 9.47871094,3.81308594 C9.41206055,3.87973633 9.32849121,3.92408447 9.23780823,3.9420929 L9.14511719,3.95117188 L9.14511719,3.95117188 C9.01933594,3.95117188 8.90039062,3.90195312 8.81152344,3.81308594 L7.48671875,2.48828125 L7.48671875,10.3878906 C7.48671875,10.6200087 7.31928048,10.8132378 7.09867005,10.853312 L7.01367188,10.8609375 L7.01367188,10.8609375 C6.75253906,10.8609375 6.540625,10.6490234 6.540625,10.3878906 L6.540625,2.48828125 L5.21582031,3.81308594 C5.14660645,3.8822998 5.06124268,3.92555847 4.97191353,3.94286194 L4.88171387,3.95151367 C4.76088867,3.95151367 4.64023438,3.90537109 4.54863281,3.81308594 C4.3640625,3.62851562 4.3640625,3.32910156 4.54726562,3.14453125 L6.67871094,1.01308594 C6.7703125,0.921484375 6.89199219,0.875 7.01367188,0.875 Z" id="path-1"></path>
        <path d="M1.34667969,8.75410156 L1.43167787,8.76172706 C1.65228829,8.80180122 1.81972656,8.99503038 1.81972656,9.22714844 L1.81972656,9.22714844 L1.81972656,11.9 C1.81972656,12.0558594 1.946875,12.1816406 2.10136719,12.1816406 L2.10136719,12.1816406 L11.8972656,12.1816406 C12.053125,12.1816406 12.1789063,12.0544922 12.1789063,11.9 L12.1789063,11.9 L12.1789063,9.22851562 C12.1789063,8.96738281 12.3908203,8.75546875 12.6519531,8.75546875 L12.6519531,8.75546875 L12.7369513,8.76309237 C12.9575617,8.80315152 13.125,8.99624566 13.125,9.22714844 L13.125,9.22714844 L13.125,12.2746094 C13.125,12.7421875 12.7449219,13.1236328 12.2759766,13.1236328 L12.2759766,13.1236328 L1.72402344,13.1236328 C1.25644531,13.1236328 0.875,12.7435547 0.875,12.2746094 L0.875,12.2746094 L0.875,9.22714844 C0.875,8.96738281 1.08554688,8.75410156 1.34667969,8.75410156 L1.34667969,8.75410156 Z M7.01367188,0.875 C7.13535156,0.875 7.25566406,0.921484375 7.34863281,1.01308594 L9.47871094,3.14453125 C9.66328125,3.32910156 9.66328125,3.62851562 9.47871094,3.81308594 C9.41206055,3.87973633 9.32849121,3.92408447 9.23780823,3.9420929 L9.14511719,3.95117188 L9.14511719,3.95117188 C9.01933594,3.95117188 8.90039062,3.90195312 8.81152344,3.81308594 L7.48671875,2.48828125 L7.48671875,10.3878906 C7.48671875,10.6200087 7.31928048,10.8132378 7.09867005,10.853312 L7.01367188,10.8609375 L7.01367188,10.8609375 C6.75253906,10.8609375 6.540625,10.6490234 6.540625,10.3878906 L6.540625,2.48828125 L5.21582031,3.81308594 C5.14660645,3.8822998 5.06124268,3.92555847 4.97191353,3.94286194 L4.88171387,3.95151367 C4.76088867,3.95151367 4.64023438,3.90537109 4.54863281,3.81308594 C4.3640625,3.62851562 4.3640625,3.32910156 4.54726562,3.14453125 L6.67871094,1.01308594 C6.7703125,0.921484375 6.89199219,0.875 7.01367188,0.875 Z" id="path-3"></path>
        <path d="M1.34667969,8.75410156 L1.43167787,8.76172706 C1.65228829,8.80180122 1.81972656,8.99503038 1.81972656,9.22714844 L1.81972656,9.22714844 L1.81972656,11.9 C1.81972656,12.0558594 1.946875,12.1816406 2.10136719,12.1816406 L2.10136719,12.1816406 L11.8972656,12.1816406 C12.053125,12.1816406 12.1789063,12.0544922 12.1789063,11.9 L12.1789063,11.9 L12.1789063,9.22851562 C12.1789063,8.96738281 12.3908203,8.75546875 12.6519531,8.75546875 L12.6519531,8.75546875 L12.7369513,8.76309237 C12.9575617,8.80315152 13.125,8.99624566 13.125,9.22714844 L13.125,9.22714844 L13.125,12.2746094 C13.125,12.7421875 12.7449219,13.1236328 12.2759766,13.1236328 L12.2759766,13.1236328 L1.72402344,13.1236328 C1.25644531,13.1236328 0.875,12.7435547 0.875,12.2746094 L0.875,12.2746094 L0.875,9.22714844 C0.875,8.96738281 1.08554688,8.75410156 1.34667969,8.75410156 L1.34667969,8.75410156 Z M7.01367188,0.875 C7.13535156,0.875 7.25566406,0.921484375 7.34863281,1.01308594 L9.47871094,3.14453125 C9.66328125,3.32910156 9.66328125,3.62851562 9.47871094,3.81308594 C9.41206055,3.87973633 9.32849121,3.92408447 9.23780823,3.9420929 L9.14511719,3.95117188 L9.14511719,3.95117188 C9.01933594,3.95117188 8.90039062,3.90195312 8.81152344,3.81308594 L7.48671875,2.48828125 L7.48671875,10.3878906 C7.48671875,10.6200087 7.31928048,10.8132378 7.09867005,10.853312 L7.01367188,10.8609375 L7.01367188,10.8609375 C6.75253906,10.8609375 6.540625,10.6490234 6.540625,10.3878906 L6.540625,2.48828125 L5.21582031,3.81308594 C5.14660645,3.8822998 5.06124268,3.92555847 4.97191353,3.94286194 L4.88171387,3.95151367 C4.76088867,3.95151367 4.64023438,3.90537109 4.54863281,3.81308594 C4.3640625,3.62851562 4.3640625,3.32910156 4.54726562,3.14453125 L6.67871094,1.01308594 C6.7703125,0.921484375 6.89199219,0.875 7.01367188,0.875 Z" id="path-5"></path>
        <path d="M12.0955078,3.66679688 C11.4515625,3.03105469 10.5957031,2.67832031 9.68242188,2.67695312 L9.67285156,2.67695312 C9.23398438,2.67695312 8.80605469,2.75898438 8.39863281,2.9203125 C7.97617188,3.08847656 7.59609375,3.3359375 7.27070313,3.65722656 L4.08652344,6.80449219 C3.71875,7.16816406 3.51777344,7.65351562 3.51914063,8.17167969 C3.52050781,8.68847656 3.72421875,9.17382812 4.09335938,9.53886719 C4.4625,9.90390625 4.95195313,10.1048828 5.47421875,10.10625 L5.47832031,10.10625 C5.99921875,10.10625 6.48730469,9.90664062 6.85371094,9.54570313 L9.64824219,6.78398438 C9.74121094,6.69238281 9.79179688,6.57070313 9.79179688,6.4421875 C9.79179688,6.31230469 9.74121094,6.190625 9.64824219,6.10039063 C9.55664063,6.00878906 9.43359375,5.95957031 9.30371094,5.95957031 C9.17382813,5.95957031 9.05078125,6.01015625 8.95917969,6.10039063 L6.16464844,8.86210938 C5.9828125,9.04257813 5.73808594,9.14101563 5.47695313,9.14101563 L5.47558594,9.14101563 C5.21171875,9.13964844 4.96425781,9.03847656 4.78105469,8.85664063 C4.59648438,8.6734375 4.49394531,8.43007813 4.49394531,8.1703125 C4.49257813,7.91191406 4.59238281,7.66992188 4.77558594,7.48945313 L7.95976563,4.34082031 C8.41367188,3.89101563 9.0234375,3.64355469 9.67421875,3.64355469 L9.68105469,3.64355469 C10.3345703,3.64492188 10.9484375,3.89648438 11.4091797,4.35039063 C11.8685547,4.80566406 12.1228516,5.41132813 12.1242188,6.05664063 C12.1255859,6.70195313 11.8753906,7.30625 11.4201172,7.75605469 L8.04179688,11.0988281 C7.36640625,11.7632813 6.4640625,12.1296875 5.5015625,12.1296875 L5.49199219,12.1296875 C4.52539063,12.1269531 3.61757813,11.7550781 2.93671875,11.0824219 C2.25585938,10.4097656 1.87988281,9.51289062 1.87851563,8.55722656 C1.87578125,7.6015625 2.24765625,6.70742187 2.92304688,6.04023437 L7.284375,1.728125 C7.37734375,1.63652344 7.42792969,1.51484375 7.42792969,1.38632812 C7.42792969,1.25644531 7.37734375,1.13476562 7.284375,1.04453125 C7.19140625,0.952929688 7.06835938,0.90234375 6.93847656,0.90234375 C6.80859375,0.90234375 6.68554688,0.952929688 6.59394531,1.04316406 L2.23261719,5.35664063 C1.79785156,5.7859375 1.46152344,6.29042969 1.23183594,6.85371094 C1.01171875,7.39785156 0.900976563,7.97207031 0.902331245,8.55996094 C0.903710938,9.14921875 1.0171875,9.7234375 1.24140625,10.2662109 C1.47246094,10.8294922 1.81015625,11.3339844 2.24765625,11.7660156 C2.68242188,12.1966797 3.19375,12.5316406 3.76386719,12.7613281 C4.31074219,12.9814453 4.89179688,13.0935547 5.48925781,13.0962891 L5.5015625,13.0962891 C6.09492188,13.0962891 6.67050781,12.9869141 7.21464844,12.7695312 C7.78339844,12.5439453 8.29335938,12.2117188 8.728125,11.7810547 L12.1064453,8.43964844 C12.4304688,8.11835938 12.6820313,7.74375 12.8515625,7.32402344 C13.015625,6.91796875 13.0990234,6.49140625 13.0976728,6.05253906 C13.0935547,5.15019531 12.7380859,4.30253906 12.0955078,3.66679688 Z" id="path-7"></path>
        <path d="M12.0955078,3.66679688 C11.4515625,3.03105469 10.5957031,2.67832031 9.68242188,2.67695312 L9.67285156,2.67695312 C9.23398438,2.67695312 8.80605469,2.75898438 8.39863281,2.9203125 C7.97617188,3.08847656 7.59609375,3.3359375 7.27070313,3.65722656 L4.08652344,6.80449219 C3.71875,7.16816406 3.51777344,7.65351562 3.51914063,8.17167969 C3.52050781,8.68847656 3.72421875,9.17382812 4.09335938,9.53886719 C4.4625,9.90390625 4.95195313,10.1048828 5.47421875,10.10625 L5.47832031,10.10625 C5.99921875,10.10625 6.48730469,9.90664062 6.85371094,9.54570313 L9.64824219,6.78398438 C9.74121094,6.69238281 9.79179688,6.57070313 9.79179688,6.4421875 C9.79179688,6.31230469 9.74121094,6.190625 9.64824219,6.10039063 C9.55664063,6.00878906 9.43359375,5.95957031 9.30371094,5.95957031 C9.17382813,5.95957031 9.05078125,6.01015625 8.95917969,6.10039063 L6.16464844,8.86210938 C5.9828125,9.04257813 5.73808594,9.14101563 5.47695313,9.14101563 L5.47558594,9.14101563 C5.21171875,9.13964844 4.96425781,9.03847656 4.78105469,8.85664063 C4.59648438,8.6734375 4.49394531,8.43007813 4.49394531,8.1703125 C4.49257813,7.91191406 4.59238281,7.66992188 4.77558594,7.48945313 L7.95976563,4.34082031 C8.41367188,3.89101563 9.0234375,3.64355469 9.67421875,3.64355469 L9.68105469,3.64355469 C10.3345703,3.64492188 10.9484375,3.89648438 11.4091797,4.35039063 C11.8685547,4.80566406 12.1228516,5.41132813 12.1242188,6.05664063 C12.1255859,6.70195313 11.8753906,7.30625 11.4201172,7.75605469 L8.04179688,11.0988281 C7.36640625,11.7632813 6.4640625,12.1296875 5.5015625,12.1296875 L5.49199219,12.1296875 C4.52539063,12.1269531 3.61757813,11.7550781 2.93671875,11.0824219 C2.25585938,10.4097656 1.87988281,9.51289062 1.87851563,8.55722656 C1.87578125,7.6015625 2.24765625,6.70742187 2.92304688,6.04023437 L7.284375,1.728125 C7.37734375,1.63652344 7.42792969,1.51484375 7.42792969,1.38632812 C7.42792969,1.25644531 7.37734375,1.13476562 7.284375,1.04453125 C7.19140625,0.952929688 7.06835938,0.90234375 6.93847656,0.90234375 C6.80859375,0.90234375 6.68554688,0.952929688 6.59394531,1.04316406 L2.23261719,5.35664063 C1.79785156,5.7859375 1.46152344,6.29042969 1.23183594,6.85371094 C1.01171875,7.39785156 0.900976563,7.97207031 0.902331245,8.55996094 C0.903710938,9.14921875 1.0171875,9.7234375 1.24140625,10.2662109 C1.47246094,10.8294922 1.81015625,11.3339844 2.24765625,11.7660156 C2.68242188,12.1966797 3.19375,12.5316406 3.76386719,12.7613281 C4.31074219,12.9814453 4.89179688,13.0935547 5.48925781,13.0962891 L5.5015625,13.0962891 C6.09492188,13.0962891 6.67050781,12.9869141 7.21464844,12.7695312 C7.78339844,12.5439453 8.29335938,12.2117188 8.728125,11.7810547 L12.1064453,8.43964844 C12.4304688,8.11835938 12.6820313,7.74375 12.8515625,7.32402344 C13.015625,6.91796875 13.0990234,6.49140625 13.0976728,6.05253906 C13.0935547,5.15019531 12.7380859,4.30253906 12.0955078,3.66679688 Z" id="path-9"></path>
    </defs>
    <g id="upload/type01" stroke="none" stroke-width="1" fill="none" fill-rule="evenodd">
        <g id="Group-6" transform="translate(5.000000, 5.000000)">
            <g id="Group">
                <g transform="translate(0.000000, 30.000000)">
                    <g id="Button/Secondary/Icon/Medium">
                        <path d="M102.006181,0.5 C102.971246,0.5 103.844907,0.891543106 104.477139,1.52542699 C105.109294,2.15923426 105.5,3.03522175 105.5,4.0042577 L105.5,4.0042577 L105.5,27.9957423 C105.5,28.9627387 105.107719,29.8382139 104.475289,30.4722964 C103.842262,31.1069784 102.968471,31.5 102.006181,31.5 L102.006181,31.5 L3.99381902,31.5 C3.0290242,31.5 2.15557829,31.1087496 1.52334019,30.4761342 C0.891042718,29.8434593 0.5,28.9693883 0.5,28.0037973 L0.5,28.0037973 L0.5,3.99620271 C0.5,3.03154402 0.892198292,2.15823093 1.52435495,1.52569698 C2.15747361,0.892200438 3.03141463,0.5 3.99381902,0.5 L3.99381902,0.5 Z" id="Rectangle-77-Copy-4" stroke="#CCCCCC" fill="#FFFFFF"></path>
                        <g id="Group" transform="translate(16.000000, 5.000000)">
                            <text id="Text" font-family="PingFangTC-Semibold, PingFang TC" font-size="14" font-weight="500" line-spacing="22" fill="#545454">
                                <tspan x="18" y="15">選擇檔案</tspan>
                            </text>
                            <g transform="translate(0.000000, 4.000000)" id="Icon/number/Plus-14px">
                                <mask id="mask-2" fill="white">
                                    <use xlink:href="#path-1"></use>
                                </mask>
                                <use id="Combined-Shape" stroke="#979797" stroke-width="0.2" fill="#7F7F7F" xlink:href="#path-1"></use>
                            </g>
                        </g>
                    </g>
                    <text id="上限數量：1-/-檔案大小：2MB-/" font-family="PingFangTC-Regular, PingFang TC" font-size="12" font-weight="normal" line-spacing="20" fill="#7F7F7F">
                        <tspan x="2" y="48">上限數量：1 /  檔案大小：2MB  /  檔案格式： .xls</tspan>
                        <tspan x="2" y="68">支持擴展名：.rar .zip .doc .docx .pdf .jpg...</tspan>
                    </text>
                    <text id="↳-Description-Copy-2" font-family="PingFangTC-Regular, PingFang TC" font-size="14" font-weight="normal" line-spacing="22" fill="#004477">
                        <tspan x="117" y="20">下載範例格式</tspan>
                    </text>
                </g>
                <text id="預設" font-family="PingFangTC-Medium, PingFang TC" font-size="16" font-weight="400" fill="#4C4C4C">
                    <tspan x="0" y="17">預設</tspan>
                </text>
            </g>
            <g id="Group-3" transform="translate(0.000000, 132.000000)">
                <g id="Group-4" transform="translate(0.000000, 30.000000)">
                    <g id="Upload/Click/with-text">
                        <g id="Button/Secondary/Icon/Medium">
                            <path d="M102.006181,0.5 C102.971246,0.5 103.844907,0.891543106 104.477139,1.52542699 C105.109294,2.15923426 105.5,3.03522175 105.5,4.0042577 L105.5,4.0042577 L105.5,27.9957423 C105.5,28.9627387 105.107719,29.8382139 104.475289,30.4722964 C103.842262,31.1069784 102.968471,31.5 102.006181,31.5 L102.006181,31.5 L3.99381902,31.5 C3.0290242,31.5 2.15557829,31.1087496 1.52334019,30.4761342 C0.891042718,29.8434593 0.5,28.9693883 0.5,28.0037973 L0.5,28.0037973 L0.5,3.99620271 C0.5,3.03154402 0.892198292,2.15823093 1.52435495,1.52569698 C2.15747361,0.892200438 3.03141463,0.5 3.99381902,0.5 L3.99381902,0.5 Z" id="Rectangle-77-Copy-4" stroke="#CCCCCC" fill="#FFFFFF"></path>
                            <g id="Group" transform="translate(16.000000, 5.000000)">
                                <text id="Text" font-family="PingFangTC-Semibold, PingFang TC" font-size="14" font-weight="500" line-spacing="22" fill="#545454">
                                    <tspan x="18" y="15">選擇檔案</tspan>
                                </text>
                                <g transform="translate(0.000000, 4.000000)" id="Icon/number/Plus-14px">
                                    <mask id="mask-4" fill="white">
                                        <use xlink:href="#path-3"></use>
                                    </mask>
                                    <use id="Combined-Shape" stroke="#979797" stroke-width="0.2" fill="#7F7F7F" xlink:href="#path-3"></use>
                                </g>
                            </g>
                        </g>
                        <text id="上限數量：1-/-檔案大小：2MB-/" font-family="PingFangTC-Regular, PingFang TC" font-size="12" font-weight="normal" line-spacing="20" fill="#7F7F7F">
                            <tspan x="2" y="51">上限數量：1 /  檔案大小：2MB  /  檔案格式： .xls</tspan>
                            <tspan x="2" y="71">支持擴展名：.rar .zip .doc .docx .pdf .jpg...</tspan>
                        </text>
                        <text id="↳-Description-Copy-2" font-family="PingFangTC-Regular, PingFang TC" font-size="14" font-weight="normal" line-spacing="22" fill="#004477">
                            <tspan x="117" y="20">下載範例格式</tspan>
                        </text>
                    </g>
                    <g id="Others/error" transform="translate(0.000000, 33.000000)">
                        <g id="Group" transform="translate(0.000000, 5.000000)">
                            <rect id="Rectangle" fill="#F5222D" x="0" y="0" width="106" height="22" rx="4"></rect>
                            <text id="此欄位必填" font-family="PingFangTC-Regular, PingFang TC" font-size="12" font-weight="normal" fill="#FFFFFF">
                                <tspan x="5" y="15">至少上傳一個檔案</tspan>
                            </text>
                        </g>
                        <polygon id="Triangle-1" fill="#F5222D" points="15 0 10 5 20 5"></polygon>
                    </g>
                </g>
                <text id="錯誤" font-family="PingFangTC-Medium, PingFang TC" font-size="16" font-weight="400" fill="#4C4C4C">
                    <tspan x="0" y="17">錯誤</tspan>
                </text>
            </g>
            <g id="Group-5" transform="translate(0.000000, 267.000000)">
                <g id="Group-3">
                    <g id="Group-2" transform="translate(0.000000, 30.000000)">
                        <g id="Upload/Click/with-text">
                            <g id="Button/Secondary/Icon/Medium">
                                <path d="M102.006181,0.5 C102.971246,0.5 103.844907,0.891543106 104.477139,1.52542699 C105.109294,2.15923426 105.5,3.03522175 105.5,4.0042577 L105.5,4.0042577 L105.5,27.9957423 C105.5,28.9627387 105.107719,29.8382139 104.475289,30.4722964 C103.842262,31.1069784 102.968471,31.5 102.006181,31.5 L102.006181,31.5 L3.99381902,31.5 C3.0290242,31.5 2.15557829,31.1087496 1.52334019,30.4761342 C0.891042718,29.8434593 0.5,28.9693883 0.5,28.0037973 L0.5,28.0037973 L0.5,3.99620271 C0.5,3.03154402 0.892198292,2.15823093 1.52435495,1.52569698 C2.15747361,0.892200438 3.03141463,0.5 3.99381902,0.5 L3.99381902,0.5 Z" id="Rectangle-77-Copy-4" stroke="#CCCCCC" fill="#FFFFFF"></path>
                                <g id="Group" transform="translate(16.000000, 5.000000)">
                                    <text id="Text" font-family="PingFangTC-Semibold, PingFang TC" font-size="14" font-weight="500" line-spacing="22" fill="#545454">
                                        <tspan x="18" y="15">選擇檔案</tspan>
                                    </text>
                                    <g transform="translate(0.000000, 4.000000)" id="Icon/number/Plus-14px">
                                        <mask id="mask-6" fill="white">
                                            <use xlink:href="#path-5"></use>
                                        </mask>
                                        <use id="Combined-Shape" stroke="#979797" stroke-width="0.2" fill="#7F7F7F" xlink:href="#path-5"></use>
                                    </g>
                                </g>
                            </g>
                            <text id="上限數量：1-/-檔案大小：2MB-/" font-family="PingFangTC-Regular, PingFang TC" font-size="12" font-weight="normal" line-spacing="20" fill="#7F7F7F">
                                <tspan x="2" y="123">上限數量：1 /  檔案大小：2MB  /  檔案格式： .xls</tspan>
                                <tspan x="2" y="143">支持擴展名：.rar .zip .doc .docx .pdf .jpg...</tspan>
                            </text>
                            <text id="↳-Description-Copy-2" font-family="PingFangTC-Regular, PingFang TC" font-size="14" font-weight="normal" line-spacing="22" fill="#004477">
                                <tspan x="117" y="20">下載範例格式</tspan>
                            </text>
                        </g>
                        <g id="Group" transform="translate(0.000000, 43.000000)">
                            <path d="M0,12 L0,0 L275,0 L275,24 L0,24 L0,12 Z" id="Bg" fill="#F2F2F2"></path>
                            <g transform="translate(256.000000, 5.000000)" fill="#7F7F7F" id="Icon/forAll/close/stroke-14px">
                                <path d="M1.76725021,13.842981 C1.73411411,13.8152032 1.70038631,13.7790921 1.66725021,13.742981 C1.70393659,13.7790921 1.73411411,13.8152032 1.76725021,13.842981 Z M1.62305465,13.7575317 C1.58883243,13.7253639 1.55505465,13.6931961 1.52305465,13.6575317 C1.55461019,13.6931961 1.58883243,13.7253639 1.62305465,13.7575317 Z M13.2352295,2.16308594 C13.1338556,2.05688477 12.9864557,1.99768066 12.8434254,1.99768066 L10.0935142,1.99768066 L10.0935142,1.10015869 C10.0935142,0.493164062 9.62276667,0 9.04336271,0 L4.34928755,0 C3.76988359,0 3.29913608,0.493164062 3.29913608,1.10015869 L3.29913608,1.99768066 L0.535242258,1.99768067 C0.24189897,1.99768067 0.00186434659,2.24731447 0.00186434659,2.55645753 C0.00186434659,2.86560059 0.240151153,3.11523439 0.535242258,3.11523439 L1.00598977,3.11523439 L1.00598977,12.8396607 C1.00598977,13.4466553 1.47673729,13.9398193 2.05614125,13.9398193 L11.4862393,13.9398193 C12.0656433,13.9398193 12.5363908,13.4466553 12.5363908,12.8396607 L12.5363908,3.11523437 L12.8431341,3.11523437 C13.1364774,3.11523437 13.3913697,2.86560058 13.3913697,2.55645752 C13.3916598,2.40814209 13.3366033,2.26928711 13.2352295,2.16308594 Z M4.34753974,1.10351562 L9.03870185,1.10351562 L9.03870185,2.00714111 L4.34753974,2.00714111 L4.34753974,1.10351562 Z M11.4847828,12.8381348 L2.05614125,12.8381348 L2.05614125,3.11523438 L3.41478382,3.11523438 L11.4844915,3.11523438 L11.4844915,12.8381348 L11.4847828,12.8381348 Z M6.68933383,4.98779297 C6.39278619,4.98779297 6.15304288,5.23895264 6.15304288,5.54962158 L6.15304288,10.7623291 C6.15304288,11.072998 6.3927862,11.3241577 6.68933383,11.3241577 C6.98588145,11.3241577 7.22562479,11.072998 7.22562479,10.7623291 L7.22562479,5.54962158 C7.22562479,5.23925781 6.98588146,4.98779297 6.68933383,4.98779297 Z M3.78444879,4.98779297 C3.48790116,4.98779297 3.24815785,5.23895264 3.24815785,5.54962158 L3.24815785,10.7623291 C3.24815785,11.072998 3.48790117,11.3241577 3.78444879,11.3241577 C4.08099642,11.3241577 4.32073975,11.072998 4.32073975,10.7623291 L4.32073975,5.54962158 C4.32073975,5.23925781 4.08070513,4.98779297 3.78444879,4.98779297 Z M9.56450584,4.98779297 C9.2679582,4.98779297 9.0282149,5.23895264 9.0282149,5.54962158 L9.0282149,10.7623291 C9.0282149,11.072998 9.26795822,11.3241577 9.56450584,11.3241577 C9.86105346,11.3241577 10.1007968,11.072998 10.1007968,10.7623291 L10.1007968,5.54962158 C10.1007968,5.23925781 9.86105346,4.98779297 9.56450584,4.98779297 Z" id="Shape"></path>
                            </g>
                            <g transform="translate(5.000000, 5.000000)">
                                <mask id="mask-8" fill="white">
                                    <use xlink:href="#path-7"></use>
                                </mask>
                                <use id="Mask" fill="#7F7F7F" xlink:href="#path-7"></use>
                            </g>
                            <text id="Text" font-family="PingFangTC-Regular, PingFang TC" font-size="14" font-weight="normal" line-spacing="22" fill="#545454">
                                <tspan x="27" y="16">檔名123.zip</tspan>
                            </text>
                        </g>
                        <g id="Group" transform="translate(0.000000, 78.000000)">
                            <path d="M0,12 L0,0 L275,0 L275,24 L0,24 L0,12 Z" id="Bg" fill="#FEF5F5"></path>
                            <g transform="translate(256.000000, 5.000000)" fill="#F5222D" id="Icon/forAll/close/stroke-14px">
                                <path d="M1.76725021,13.842981 C1.73411411,13.8152032 1.70038631,13.7790921 1.66725021,13.742981 C1.70393659,13.7790921 1.73411411,13.8152032 1.76725021,13.842981 Z M1.62305465,13.7575317 C1.58883243,13.7253639 1.55505465,13.6931961 1.52305465,13.6575317 C1.55461019,13.6931961 1.58883243,13.7253639 1.62305465,13.7575317 Z M13.2352295,2.16308594 C13.1338556,2.05688477 12.9864557,1.99768066 12.8434254,1.99768066 L10.0935142,1.99768066 L10.0935142,1.10015869 C10.0935142,0.493164062 9.62276667,0 9.04336271,0 L4.34928755,0 C3.76988359,0 3.29913608,0.493164062 3.29913608,1.10015869 L3.29913608,1.99768066 L0.535242258,1.99768067 C0.24189897,1.99768067 0.00186434659,2.24731447 0.00186434659,2.55645753 C0.00186434659,2.86560059 0.240151153,3.11523439 0.535242258,3.11523439 L1.00598977,3.11523439 L1.00598977,12.8396607 C1.00598977,13.4466553 1.47673729,13.9398193 2.05614125,13.9398193 L11.4862393,13.9398193 C12.0656433,13.9398193 12.5363908,13.4466553 12.5363908,12.8396607 L12.5363908,3.11523437 L12.8431341,3.11523437 C13.1364774,3.11523437 13.3913697,2.86560058 13.3913697,2.55645752 C13.3916598,2.40814209 13.3366033,2.26928711 13.2352295,2.16308594 Z M4.34753974,1.10351562 L9.03870185,1.10351562 L9.03870185,2.00714111 L4.34753974,2.00714111 L4.34753974,1.10351562 Z M11.4847828,12.8381348 L2.05614125,12.8381348 L2.05614125,3.11523438 L3.41478382,3.11523438 L11.4844915,3.11523438 L11.4844915,12.8381348 L11.4847828,12.8381348 Z M6.68933383,4.98779297 C6.39278619,4.98779297 6.15304288,5.23895264 6.15304288,5.54962158 L6.15304288,10.7623291 C6.15304288,11.072998 6.3927862,11.3241577 6.68933383,11.3241577 C6.98588145,11.3241577 7.22562479,11.072998 7.22562479,10.7623291 L7.22562479,5.54962158 C7.22562479,5.23925781 6.98588146,4.98779297 6.68933383,4.98779297 Z M3.78444879,4.98779297 C3.48790116,4.98779297 3.24815785,5.23895264 3.24815785,5.54962158 L3.24815785,10.7623291 C3.24815785,11.072998 3.48790117,11.3241577 3.78444879,11.3241577 C4.08099642,11.3241577 4.32073975,11.072998 4.32073975,10.7623291 L4.32073975,5.54962158 C4.32073975,5.23925781 4.08070513,4.98779297 3.78444879,4.98779297 Z M9.56450584,4.98779297 C9.2679582,4.98779297 9.0282149,5.23895264 9.0282149,5.54962158 L9.0282149,10.7623291 C9.0282149,11.072998 9.26795822,11.3241577 9.56450584,11.3241577 C9.86105346,11.3241577 10.1007968,11.072998 10.1007968,10.7623291 L10.1007968,5.54962158 C10.1007968,5.23925781 9.86105346,4.98779297 9.56450584,4.98779297 Z" id="Shape"></path>
                            </g>
                            <text id="Text" font-family="PingFangTC-Regular, PingFang TC" font-size="14" font-weight="normal" fill="#F5222D">
                                <tspan x="27" y="17">檔名123.zip</tspan>
                            </text>
                            <g transform="translate(5.000000, 5.000000)" id="Icon/other/Paperclip">
                                <mask id="mask-10" fill="white">
                                    <use xlink:href="#path-9"></use>
                                </mask>
                                <use id="Mask" fill="#F5222D" xlink:href="#path-9"></use>
                            </g>
                        </g>
                    </g>
                    <text id="已上傳" font-family="PingFangTC-Medium, PingFang TC" font-size="16" font-weight="400" fill="#4C4C4C">
                        <tspan x="0" y="17">已上傳</tspan>
                    </text>
                </g>
                <g id="Others/error-Copy" transform="translate(0.000000, 131.000000)">
                    <g id="Group" transform="translate(0.000000, 5.000000)">
                        <rect id="Rectangle" fill="#F5222D" x="0" y="0" width="142" height="22" rx="4"></rect>
                        <text id="此欄位必填" font-family="PingFangTC-Regular, PingFang TC" font-size="12" font-weight="normal" fill="#FFFFFF">
                            <tspan x="5" y="15">請刪除未符合之檔案格式</tspan>
                        </text>
                    </g>
                    <polygon id="Triangle-1" fill="#F5222D" points="15 0 10 5 20 5"></polygon>
                </g>
            </g>
        </g>
    </g>
</svg>