<?xml version="1.0" encoding="UTF-8"?>
<svg width="490px" height="473px" viewBox="0 0 490 473" version="1.1" xmlns="http://www.w3.org/2000/svg" xmlns:xlink="http://www.w3.org/1999/xlink">
    <title>dashboard</title>
    <defs>
        <linearGradient x1="50%" y1="50%" x2="50%" y2="100%" id="linearGradient-1">
            <stop stop-color="#F1F8FE" offset="0%"></stop>
            <stop stop-color="#F8FCFF" stop-opacity="0.471987317" offset="52.8012683%"></stop>
            <stop stop-color="#FFFFFF" stop-opacity="0" offset="100%"></stop>
        </linearGradient>
        <path d="M24,0 C37.254834,0 48,10.745166 48,24 C48,37.254834 37.254834,48 24,48 C10.745166,48 0,37.254834 0,24 C0,10.745166 10.745166,0 24,0 Z" id="path-2"></path>
        <path d="M24,0 C37.254834,0 48,10.745166 48,24 C48,37.254834 37.254834,48 24,48 C10.745166,48 0,37.254834 0,24 C0,10.745166 10.745166,0 24,0 Z" id="path-4"></path>
    </defs>
    <g id="dashboard" stroke="none" stroke-width="1" fill="none" fill-rule="evenodd">
        <g id="tag+line" transform="translate(408.000000, 45.000000)">
            <g id="tag" transform="translate(10.000000, 19.000000)" fill-rule="nonzero">
                <path d="M36.972973,0 C37.5401843,0 38,0.8954305 38,2 L38,20 C38,21.1045695 37.5401843,22 36.972973,22 L2.56756757,22 C2.0003562,22 1.54054054,21.1045695 1.54054054,20 L1.54054054,14 L0,11 L1.54054054,8 L1.54054054,2 C1.54054054,0.8954305 2.0003562,0 2.56756757,0 L36.972973,0 Z" id="Bg" fill="#50E3C2"></path>
                <g id="数据" transform="translate(7.000000, 3.000000)" fill="#FFFFFF" font-family="PingFangTC-Regular, PingFang TC" font-size="12" font-weight="normal">
                    <text id="總覽">
                        <tspan x="0" y="13">總覽</tspan>
                    </text>
                </g>
            </g>
            <g id="tag" transform="translate(10.000000, 92.000000)" fill-rule="nonzero">
                <path d="M52.9811321,0 C53.543837,0 54,0.582029825 54,1.3 L54,24.7 C54,25.4179702 53.543837,26 52.9811321,26 L2.54716981,26 C1.98446459,26 1.52830189,25.4179702 1.52830189,24.7 L1.52830189,14.3 L0,12.35 L1.52830189,10.4 L1.52830189,1.3 C1.52830189,0.582029825 1.98446459,0 2.54716981,0 L52.9811321,0 Z" id="Bg" fill="#50E3C2"></path>
                <g id="数据" transform="translate(10.000000, 5.000000)" fill="#FFFFFF" font-family="PingFangTC-Regular, PingFang TC" font-size="12" font-weight="normal">
                    <text id="指標卡">
                        <tspan x="0" y="13">指標卡</tspan>
                    </text>
                </g>
            </g>
            <g id="tag" transform="translate(10.000000, 234.000000)" fill-rule="nonzero">
                <path d="M61.9354839,0 C63.0756846,0 64,0.8954305 64,2 L64,20 C64,21.1045695 63.0756846,22 61.9354839,22 L5.16129032,22 C4.02108955,22 3.09677419,21.1045695 3.09677419,20 L3.09677419,14 L0,11 L3.09677419,8 L3.09677419,2 C3.09677419,0.8954305 4.02108955,0 5.16129032,0 L61.9354839,0 Z" id="Bg" fill="#50E3C2"></path>
                <g id="数据" transform="translate(10.000000, 2.000000)" fill="#FFFFFF" font-family="PingFangTC-Regular, PingFang TC" font-size="12" font-weight="normal">
                    <text id="趨勢排名">
                        <tspan x="0" y="13">趨勢排名</tspan>
                    </text>
                </g>
            </g>
            <g id="tag" transform="translate(10.000000, 371.000000)" fill-rule="nonzero">
                <path d="M60,0 C61.1045695,0 62,0.8954305 62,2 L62,20 C62,21.1045695 61.1045695,22 60,22 L5,22 C3.8954305,22 3,21.1045695 3,20 L3,14 L0,11 L3,8 L3,2 C3,0.8954305 3.8954305,0 5,0 L60,0 Z" id="Bg" fill="#50E3C2"></path>
                <g id="数据" transform="translate(9.000000, 2.000000)" fill="#FFFFFF" font-family="PingFangTC-Regular, PingFang TC" font-size="12" font-weight="normal">
                    <text id="細分類型">
                        <tspan x="0" y="13">細分類型</tspan>
                    </text>
                </g>
            </g>
            <rect id="Rectangle" fill-opacity="0.3" fill="#50E3C2" x="0" y="150" width="2" height="184"></rect>
            <rect id="Rectangle-Copy-3" fill-opacity="0.3" fill="#50E3C2" x="0" y="349" width="2" height="60"></rect>
            <rect id="Rectangle-Copy" fill-opacity="0.3" fill="#50E3C2" x="0" y="75" width="2" height="60"></rect>
            <rect id="Rectangle-Copy-2" fill-opacity="0.3" fill="#50E3C2" x="0" y="0" width="2" height="60"></rect>
        </g>
        <g id="page" transform="translate(0.000000, -0.500000)">
            <rect id="bg" fill="#F5F6F8" fill-rule="nonzero" x="0" y="0.5" width="400" height="472" rx="8"></rect>
            <g id="header" transform="translate(30.000000, 0.000000)" fill-rule="nonzero">
                <path d="M0,0.5 L362,0.5 C366.418278,0.5 370,4.081722 370,8.5 L370,30.5 L370,30.5 L0,30.5 L0,0.5 Z" id="Rectangle" fill="#043458"></path>
                <path d="M302.5,0 L350.5,0 C352.709139,0 354.5,1.790861 354.5,4 L354.5,11 L354.5,11 L298.5,11 L298.5,4 C298.5,1.790861 300.290861,0 302.5,0 Z" id="Rectangle-Copy-2" fill="#F5A700" transform="translate(326.500000, 5.500000) scale(-1, 1) rotate(-180.000000) translate(-326.500000, -5.500000) "></path>
                <text id="|||||||||||||||||||||" fill="#7F7F7F" font-family="PingFangTC-Regular, PingFang TC" font-size="14" font-weight="normal">
                    <tspan x="17" y="20.5">|||||||||||||||||||||</tspan>
                </text>
            </g>
            <path d="M8.5,1 L30.5,1 L30.5,1 L30.5,473 L8.5,473 C4.081722,473 0.5,467.170439 0.5,459.97931 L0.5,14.0206897 C0.5,6.82956132 4.081722,1 8.5,1 Z" id="sider" fill="#FFFFFF" fill-rule="nonzero"></path>
            <g id="card01" transform="translate(45.000000, 45.500000)" fill-rule="nonzero">
                <rect id="Rectangle-Copy-6" fill="#FFFFFF" x="0" y="0" width="340" height="60" rx="4"></rect>
                <rect id="Rectangle-Copy-6-Copy" fill="#F1F8FE" x="15.5" y="34.5" width="93" height="16"></rect>
                <rect id="Rectangle-Copy-6-Copy-2" fill="#F1F8FE" x="123" y="34" width="93" height="16"></rect>
                <rect id="Rectangle-Copy-6-Copy-3" fill="#F1F8FE" x="231" y="34" width="93" height="16"></rect>
                <rect id="Rectangle-Copy-6-Copy-6" fill="#F1F8FE" x="15" y="10" width="93" height="16"></rect>
                <rect id="Rectangle-Copy-6-Copy-5" fill="#F1F8FE" x="123" y="10" width="93" height="16"></rect>
                <rect id="Rectangle-Copy-6-Copy-4" fill="#F1F8FE" x="231" y="10" width="93" height="16"></rect>
            </g>
            <g id="card02" transform="translate(45.000000, 120.500000)" fill-rule="nonzero">
                <rect id="Rectangle-Copy-6-Copy-8" fill="#FFFFFF" x="0" y="0" width="340" height="60" rx="4"></rect>
                <g id="Group-6" transform="translate(15.000000, 9.000000)" font-family="PingFangTC-Regular, PingFang TC" font-size="14" font-weight="normal">
                    <g id="Group">
                        <text id="|||||||||||" fill="#F2F2F2">
                            <tspan x="0.97" y="15">|||||||||||</tspan>
                        </text>
                        <text id="||||||||||||||||||||" fill="#7F7F7F">
                            <tspan x="0" y="39">||||||||||||||||||||||||</tspan>
                        </text>
                    </g>
                    <g id="Group-Copy" transform="translate(81.000000, 0.000000)">
                        <text id="|||||||||||" fill="#F2F2F2">
                            <tspan x="0.97" y="15">|||||||||||</tspan>
                        </text>
                        <text id="||||||||||||||||||||" fill="#7F7F7F">
                            <tspan x="0" y="39">||||||||||||||||||||||||</tspan>
                        </text>
                    </g>
                    <g id="Group-Copy-2" transform="translate(162.000000, 0.000000)">
                        <text id="|||||||||||" fill="#F2F2F2">
                            <tspan x="0.97" y="15">|||||||||||</tspan>
                        </text>
                        <text id="||||||||||||||||||||" fill="#7F7F7F">
                            <tspan x="0" y="39">||||||||||||||||||||||||</tspan>
                        </text>
                    </g>
                    <g id="Group-Copy-3" transform="translate(243.000000, 0.000000)">
                        <text id="|||||||||||" fill="#F2F2F2">
                            <tspan x="0.97" y="15">|||||||||||</tspan>
                        </text>
                        <text id="||||||||||||||||||||" fill="#7F7F7F">
                            <tspan x="0" y="39">||||||||||||||||||||||||</tspan>
                        </text>
                    </g>
                </g>
            </g>
            <g id="card03" transform="translate(45.000000, 195.500000)">
                <rect id="Rectangle-Copy-6-Copy-9" fill="#FFFFFF" fill-rule="nonzero" x="0" y="0" width="340" height="115" rx="4"></rect>
                <g id="Group-3" transform="translate(236.000000, 14.000000)" fill="#ECEDF1" fill-rule="nonzero">
                    <rect id="Rectangle-Copy-7-Copy" x="0" y="48" width="89" height="16"></rect>
                    <rect id="Rectangle-Copy-7-Copy-4" x="0" y="72" width="89" height="16"></rect>
                    <rect id="Rectangle-Copy-7-Copy-2" x="0" y="24" width="89" height="16"></rect>
                    <rect id="Rectangle-Copy-7-Copy-3" x="0" y="0" width="89" height="16"></rect>
                </g>
                <polygon id="Path-4" fill="url(#linearGradient-1)" points="15 78.351355 84.8222336 29.4536871 153.590413 50.3471995 221 14 221 98.5634312 15 102"></polygon>
            </g>
            <g id="card04" transform="translate(45.000000, 325.500000)">
                <g id="Group-7">
                    <rect id="Rectangle" fill="#FFFFFF" x="0" y="0" width="160" height="57" rx="4"></rect>
                    <g id="Group-8" transform="translate(15.000000, 15.000000)" fill="#ECEDF1" fill-rule="nonzero">
                        <rect id="Rectangle-Copy-7-Copy-6" x="0" y="0" width="51" height="11"></rect>
                        <rect id="Rectangle-Copy-7-Copy-5" x="0" y="17" width="89" height="11"></rect>
                    </g>
                </g>
                <g id="Group-7-Copy" transform="translate(180.000000, 0.000000)">
                    <rect id="Rectangle" fill="#FFFFFF" x="0" y="0" width="160" height="57" rx="4"></rect>
                    <g id="Group-8" transform="translate(15.000000, 15.000000)" fill="#ECEDF1" fill-rule="nonzero">
                        <rect id="Rectangle-Copy-7-Copy-6" x="0" y="0" width="51" height="11"></rect>
                        <rect id="Rectangle-Copy-7-Copy-5" x="0" y="17" width="89" height="11"></rect>
                    </g>
                </g>
            </g>
            <g id="Group-2" transform="translate(45.000000, 397.500000)">
                <g id="Group-10">
                    <rect id="Rectangle" fill="#FFFFFF" x="0" y="0" width="160" height="60" rx="4"></rect>
                    <g id="Pie-chart-Copy" transform="translate(56.000000, 6.000000)">
                        <mask id="mask-3" fill="white">
                            <use xlink:href="#path-2"></use>
                        </mask>
                        <use id="Oval" fill="#CCCCCC" xlink:href="#path-2"></use>
                        <rect id="Rectangle" fill="#F2F2F2" mask="url(#mask-3)" x="24" y="24" width="25.8" height="24"></rect>
                        <polygon id="Rectangle" fill="#E5E5E5" mask="url(#mask-3)" points="2.23203125 34.5523438 24 24 -1.14023438 16.5136719 -3.8 25.9417969"></polygon>
                        <path d="M24,12 C17.372583,12 12,17.372583 12,24 C12,30.627417 17.372583,36 24,36 C30.627417,36 36,30.627417 36,24 C36,17.372583 30.627417,12 24,12 Z" id="Path" fill="#FFFFFF" mask="url(#mask-3)"></path>
                    </g>
                </g>
                <g id="Group-10-Copy" transform="translate(180.000000, 0.000000)">
                    <rect id="Rectangle" fill="#FFFFFF" x="0" y="0" width="160" height="60" rx="4"></rect>
                    <g id="Pie-chart-Copy" transform="translate(56.000000, 6.000000)">
                        <mask id="mask-5" fill="white">
                            <use xlink:href="#path-4"></use>
                        </mask>
                        <use id="Oval" fill="#CCCCCC" xlink:href="#path-4"></use>
                        <rect id="Rectangle" fill="#F2F2F2" mask="url(#mask-5)" x="24" y="24" width="25.8" height="24"></rect>
                        <polygon id="Rectangle" fill="#E5E5E5" mask="url(#mask-5)" points="2.23203125 34.5523438 24 24 -1.14023438 16.5136719 -3.8 25.9417969"></polygon>
                        <path d="M24,12 C17.372583,12 12,17.372583 12,24 C12,30.627417 17.372583,36 24,36 C30.627417,36 36,30.627417 36,24 C36,17.372583 30.627417,12 24,12 Z" id="Path" fill="#FFFFFF" mask="url(#mask-5)"></path>
                    </g>
                </g>
            </g>
            <rect id="Rectangle" stroke="#E5E5E5" fill-rule="nonzero" x="1" y="0.5" width="399" height="473" rx="8"></rect>
        </g>
    </g>
</svg>