<?xml version="1.0" encoding="UTF-8"?>
<svg width="580px" height="170px" viewBox="0 0 580 170" version="1.1" xmlns="http://www.w3.org/2000/svg" xmlns:xlink="http://www.w3.org/1999/xlink">
    <title>cascader02</title>
    <defs>
        <path d="M12.2458984,9.89707031 C12.2458984,9.76582031 12.2021484,9.63320312 12.1146484,9.52246094 L7.45390625,3.72832031 C7.34042969,3.5875 7.16953125,3.50546875 6.98769531,3.50546875 C6.80722656,3.50546875 6.63496094,3.5875 6.52285156,3.72832031 L1.88671875,9.49785156 C1.68027344,9.75488281 1.72128906,10.1308594 1.97832031,10.3373047 C2.23535156,10.54375 2.61132813,10.5027344 2.81777344,10.2457031 L6.9890625,5.05585937 L11.1835938,10.2716797 C11.3900391,10.5287109 11.7660156,10.5697266 12.0230469,10.3632812 C12.1693359,10.2443359 12.2458984,10.0720703 12.2458984,9.89707031 Z" id="path-1"></path>
        <rect id="path-3" x="0" y="32" width="240" height="96" rx="4"></rect>
        <filter x="-2.9%" y="-5.2%" width="105.8%" height="114.6%" filterUnits="objectBoundingBox" id="filter-4">
            <feOffset dx="0" dy="2" in="SourceAlpha" result="shadowOffsetOuter1"></feOffset>
            <feGaussianBlur stdDeviation="2" in="shadowOffsetOuter1" result="shadowBlurOuter1"></feGaussianBlur>
            <feColorMatrix values="0 0 0 0 0   0 0 0 0 0   0 0 0 0 0  0 0 0 0.1 0" type="matrix" in="shadowBlurOuter1"></feColorMatrix>
        </filter>
        <path d="M5.85394275,17.4867553 C6.04144275,17.4867553 6.23089588,17.4242553 6.389099,17.2992553 L14.6664428,10.6410521 C14.8676146,10.4789428 14.9848021,10.2348021 14.9848021,9.9750365 C14.9848021,9.717224 14.8676146,9.47113025 14.6664428,9.310974 L6.42425525,2.68792713 C6.05706775,2.39300525 5.51995838,2.451599 5.2250365,2.8187865 C4.93011463,3.185974 4.98870838,3.72308338 5.35589588,4.01800525 L12.7699584,9.97698963 L5.3187865,15.9691771 C4.951599,16.264099 4.89300525,16.8012084 5.18792713,17.1683959 C5.357849,17.3773803 5.60394275,17.4867553 5.85394275,17.4867553 Z" id="path-5"></path>
        <path d="M12.2458984,4.10292969 C12.2458984,4.23417969 12.2021484,4.36679687 12.1146484,4.47753906 L7.45390625,10.2716797 C7.34042969,10.4125 7.16953125,10.4945312 6.98769531,10.4945312 C6.80722656,10.4945312 6.63496094,10.4125 6.52285156,10.2716797 L1.88671875,4.50214844 C1.68027344,4.24511719 1.72128906,3.86914062 1.97832031,3.66269531 C2.23535156,3.45625 2.61132813,3.49726562 2.81777344,3.75429687 L6.9890625,8.94414062 L11.1835938,3.72832031 C11.3900391,3.47128906 11.7660156,3.43027344 12.0230469,3.63671875 C12.1693359,3.75566406 12.2458984,3.92792969 12.2458984,4.10292969 Z" id="path-7"></path>
        <path d="M7.76152344,6.99863281 L11.2451172,3.51777344 C11.4556641,3.30722656 11.4556641,2.96679688 11.2451172,2.75761719 C11.0345703,2.54707031 10.6941406,2.54707031 10.4849609,2.75761719 L7,6.23710938 L3.51503906,2.75625 C3.30449219,2.54570313 2.9640625,2.54570313 2.75488281,2.75625 C2.54433594,2.96679688 2.54433594,3.30722656 2.75488281,3.51640625 L6.23847656,6.99726563 L2.75488281,10.4794922 C2.54433594,10.6900391 2.54433594,11.0304688 2.75488281,11.2396484 C2.86015625,11.3449219 2.99824219,11.396875 3.13496094,11.396875 C3.27304688,11.396875 3.40976563,11.3449219 3.51503906,11.2396484 L7,7.75878906 L10.4849609,11.2410156 C10.5902344,11.3462891 10.7269531,11.3982422 10.8650391,11.3982422 C11.003125,11.3982422 11.1398438,11.3462891 11.2451172,11.2410156 C11.4556641,11.0304688 11.4556641,10.6900391 11.2451172,10.4808594 L7.76152344,6.99863281 Z" id="path-9"></path>
        <path d="M7.76152344,6.99863281 L11.2451172,3.51777344 C11.4556641,3.30722656 11.4556641,2.96679688 11.2451172,2.75761719 C11.0345703,2.54707031 10.6941406,2.54707031 10.4849609,2.75761719 L7,6.23710938 L3.51503906,2.75625 C3.30449219,2.54570313 2.9640625,2.54570313 2.75488281,2.75625 C2.54433594,2.96679688 2.54433594,3.30722656 2.75488281,3.51640625 L6.23847656,6.99726563 L2.75488281,10.4794922 C2.54433594,10.6900391 2.54433594,11.0304688 2.75488281,11.2396484 C2.86015625,11.3449219 2.99824219,11.396875 3.13496094,11.396875 C3.27304688,11.396875 3.40976563,11.3449219 3.51503906,11.2396484 L7,7.75878906 L10.4849609,11.2410156 C10.5902344,11.3462891 10.7269531,11.3982422 10.8650391,11.3982422 C11.003125,11.3982422 11.1398438,11.3462891 11.2451172,11.2410156 C11.4556641,11.0304688 11.4556641,10.6900391 11.2451172,10.4808594 L7.76152344,6.99863281 Z" id="path-11"></path>
        <path d="M7.76152344,6.99863281 L11.2451172,3.51777344 C11.4556641,3.30722656 11.4556641,2.96679688 11.2451172,2.75761719 C11.0345703,2.54707031 10.6941406,2.54707031 10.4849609,2.75761719 L7,6.23710938 L3.51503906,2.75625 C3.30449219,2.54570313 2.9640625,2.54570313 2.75488281,2.75625 C2.54433594,2.96679688 2.54433594,3.30722656 2.75488281,3.51640625 L6.23847656,6.99726563 L2.75488281,10.4794922 C2.54433594,10.6900391 2.54433594,11.0304688 2.75488281,11.2396484 C2.86015625,11.3449219 2.99824219,11.396875 3.13496094,11.396875 C3.27304688,11.396875 3.40976563,11.3449219 3.51503906,11.2396484 L7,7.75878906 L10.4849609,11.2410156 C10.5902344,11.3462891 10.7269531,11.3982422 10.8650391,11.3982422 C11.003125,11.3982422 11.1398438,11.3462891 11.2451172,11.2410156 C11.4556641,11.0304688 11.4556641,10.6900391 11.2451172,10.4808594 L7.76152344,6.99863281 Z" id="path-13"></path>
    </defs>
    <g id="XXXGuideline" stroke="none" stroke-width="1" fill="none" fill-rule="evenodd">
        <g id="Guideline_數據輸入-Copy" transform="translate(-102.000000, -1357.000000)">
            <g id="cascader02" transform="translate(102.000000, 1357.000000)">
                <rect id="bg" x="0" y="0" width="580" height="170"></rect>
                <g id="Select/Medium/Dropdown-Copy" transform="translate(25.000000, 20.000000)">
                    <g id="Select/Medium/Placeholder">
                        <path d="M236.009814,0.5 C236.973824,0.5 237.846509,0.89150591 238.478041,1.52526585 C239.109662,2.15911432 239.5,3.03516932 239.5,4.0042577 L239.5,4.0042577 L239.5,27.9957423 C239.5,28.9627779 239.108072,29.8383085 238.476179,30.4724294 C237.843837,31.1070012 236.971015,31.5 236.009814,31.5 L236.009814,31.5 L3.99018572,31.5 C3.02617647,31.5 2.15349138,31.1084941 1.52195863,30.4747341 C0.890337668,29.8408857 0.5,28.9648307 0.5,27.9957423 L0.5,27.9957423 L0.5,4.0042577 C0.5,3.03722209 0.891928301,2.16169152 1.52382079,1.52757057 C2.15616256,0.892998756 3.02898489,0.5 3.99018572,0.5 L3.99018572,0.5 Z" id="Rectangle-26-Copy-23" stroke="#004477" fill="#FFFFFF"></path>
                        <g id="Icon/arrow/Down-14px" transform="translate(216.000000, 9.000000)">
                            <mask id="mask-2" fill="white">
                                <use xlink:href="#path-1"></use>
                            </mask>
                            <use id="Mask" fill="#7F7F7F" xlink:href="#path-1"></use>
                        </g>
                        <text id="Text" font-family="PingFangTC-Regular, PingFang TC" font-size="14" font-weight="normal" line-spacing="22" fill="#7F7F7F">
                            <tspan x="10" y="20">請選擇分類</tspan>
                        </text>
                    </g>
                    <g id="Rectangle">
                        <use fill="black" fill-opacity="1" filter="url(#filter-4)" xlink:href="#path-3"></use>
                        <use fill="#FFFFFF" fill-rule="evenodd" xlink:href="#path-3"></use>
                    </g>
                    <g id="Select/Resource/dropdown/default" transform="translate(0.000000, 32.000000)">
                        <rect id="Rectangle" fill="#FFFFFF" x="0" y="0" width="120" height="32"></rect>
                        <text id="商品分類B" font-family="PingFangTC-Regular, PingFang TC" font-size="14" font-weight="normal" line-spacing="22" fill="#545454">
                            <tspan x="10" y="20">選項一</tspan>
                        </text>
                    </g>
                    <g id="Select/Resource/dropdown/default-Copy" transform="translate(0.000000, 64.000000)">
                        <rect id="Rectangle" fill="#FFFFFF" x="0" y="0" width="120" height="32"></rect>
                        <text id="商品分類B" font-family="PingFangTC-Regular, PingFang TC" font-size="14" font-weight="normal" line-spacing="22" fill="#545454">
                            <tspan x="10" y="20">選項二</tspan>
                        </text>
                    </g>
                    <g id="Select/Resource/dropdown/default-Copy" transform="translate(0.000000, 96.000000)">
                        <rect id="Rectangle" fill="#F2F2F2" x="0" y="0" width="120" height="32"></rect>
                        <text id="商品分類B" font-family="PingFangTC-Semibold, PingFang TC" font-size="14" font-weight="500" line-spacing="22" fill="#545454">
                            <tspan x="10" y="20">選項三</tspan>
                        </text>
                        <g id="Icon/forAll/check/stroke-10px" transform="translate(96.000000, 6.000000)">
                            <mask id="mask-6" fill="white">
                                <use xlink:href="#path-5"></use>
                            </mask>
                            <use id="Mask" fill="#7F7F7F" xlink:href="#path-5"></use>
                        </g>
                    </g>
                    <g id="Select/Resource/dropdown/default" transform="translate(120.000000, 32.000000)">
                        <rect id="Rectangle" fill="#FFFFFF" x="0" y="0" width="120" height="32"></rect>
                        <text id="商品分類B" font-family="PingFangTC-Regular, PingFang TC" font-size="14" font-weight="normal" line-spacing="22" fill="#545454">
                            <tspan x="10" y="20">選項三-1</tspan>
                        </text>
                    </g>
                    <g id="Select/Resource/dropdown/default-Copy" transform="translate(120.000000, 64.000000)">
                        <rect id="Rectangle" fill="#F1F8FE" x="0" y="0" width="120" height="32"></rect>
                        <text id="商品分類B" font-family="PingFangTC-Regular, PingFang TC" font-size="14" font-weight="normal" line-spacing="22" fill="#545454">
                            <tspan x="10" y="20">選項三-2</tspan>
                        </text>
                    </g>
                    <g id="Select/Resource/dropdown/default-Copy" transform="translate(120.000000, 96.000000)">
                        <rect id="Rectangle" fill="#FFFFFF" x="0" y="0" width="120" height="32"></rect>
                        <text id="商品分類B" font-family="PingFangTC-Regular, PingFang TC" font-size="14" font-weight="normal" line-spacing="22" fill="#545454">
                            <tspan x="10" y="20">選項三-3</tspan>
                        </text>
                    </g>
                    <rect id="Rectangle" fill="#E5E5E5" x="119" y="32" width="1" height="96"></rect>
                </g>
                <g id="Group-3" transform="translate(305.000000, 20.000000)">
                    <g id="Select/Medium/Placeholder">
                        <path d="M245.997267,0.5 C246.964922,0.5 247.840978,0.891634465 248.474924,1.5258214 C249.108389,2.15952782 249.5,3.03534985 249.5,4.0042577 L249.5,4.0042577 L249.5,27.9957423 C249.5,28.9626965 249.106925,29.8380867 248.473166,30.472087 C247.838514,31.1069807 246.962382,31.5 245.997267,31.5 L245.997267,31.5 L4.00273284,31.5 C3.03507815,31.5 2.15902169,31.1083655 1.52507626,30.4741786 C0.891611162,29.8404722 0.5,28.9646502 0.5,27.9957423 L0.5,27.9957423 L0.5,4.0042577 C0.5,3.03730347 0.893074767,2.16191333 1.52683369,1.52791297 C2.16148555,0.893019341 3.03761753,0.5 4.00273284,0.5 L4.00273284,0.5 L245.997267,0.5 Z" id="Rectangle-26-Copy-23" stroke="#CCCCCC" fill="#FFFFFF"></path>
                        <g id="Group" transform="translate(226.000000, 9.000000)">
                            <mask id="mask-8" fill="white">
                                <use xlink:href="#path-7"></use>
                            </mask>
                            <use id="Mask" fill="#7F7F7F" xlink:href="#path-7"></use>
                        </g>
                        <text id="Text" font-family="PingFangTC-Semibold, PingFang TC" font-size="14" font-weight="500" line-spacing="22"></text>
                    </g>
                    <g id="Tag/Default/Closable/medium" transform="translate(80.000000, 4.000000)">
                        <path d="M65.9978179,0.5 C66.9653332,0.5 67.8413321,0.890436295 68.4752924,1.52247534 C69.1083912,2.15365541 69.5,3.02578999 69.5,3.99005301 L69.5,3.99005301 L69.5,20.009947 C69.5,20.9725228 69.1067704,21.8438593 68.4736342,22.4750768 C67.8386412,23.1081453 66.9622206,23.5 65.9978179,23.5 L65.9978179,23.5 L4.00218213,23.5 C3.03584726,23.5 2.16099532,23.107495 1.52734125,22.4748472 C0.892863475,21.841377 0.5,20.9669882 0.5,20.0041738 L0.5,20.0041738 L0.5,3.99582624 C0.5,3.03157557 0.893288574,2.15868937 1.52662173,1.52636201 C2.16154906,0.892443015 3.03786193,0.5 4.00218213,0.5 L4.00218213,0.5 Z" id="Bg" stroke="#CCCCCC" fill="#F2F2F2"></path>
                        <text id="Text" font-family="PingFangTC-Regular, PingFang TC" font-size="14" font-weight="normal" line-spacing="22" fill="#545454">
                            <tspan x="8" y="16">選項二</tspan>
                        </text>
                        <g id="Group" transform="translate(49.184211, 5.000000)">
                            <mask id="mask-10" fill="white">
                                <use xlink:href="#path-9"></use>
                            </mask>
                            <use id="Mask" fill="#7F7F7F" xlink:href="#path-9"></use>
                        </g>
                    </g>
                    <g id="Tag/Default/Closable/medium" transform="translate(5.000000, 4.000000)">
                        <path d="M65.9978179,0.5 C66.9653332,0.5 67.8413321,0.890436295 68.4752924,1.52247534 C69.1083912,2.15365541 69.5,3.02578999 69.5,3.99005301 L69.5,3.99005301 L69.5,20.009947 C69.5,20.9725228 69.1067704,21.8438593 68.4736342,22.4750768 C67.8386412,23.1081453 66.9622206,23.5 65.9978179,23.5 L65.9978179,23.5 L4.00218213,23.5 C3.03584726,23.5 2.16099532,23.107495 1.52734125,22.4748472 C0.892863475,21.841377 0.5,20.9669882 0.5,20.0041738 L0.5,20.0041738 L0.5,3.99582624 C0.5,3.03157557 0.893288574,2.15868937 1.52662173,1.52636201 C2.16154906,0.892443015 3.03786193,0.5 4.00218213,0.5 L4.00218213,0.5 Z" id="Bg" stroke="#CCCCCC" fill="#F2F2F2"></path>
                        <text id="Text" font-family="PingFangTC-Regular, PingFang TC" font-size="14" font-weight="normal" line-spacing="22" fill="#545454">
                            <tspan x="8" y="16">選項ㄧ</tspan>
                        </text>
                        <g id="Group" transform="translate(49.184211, 5.000000)">
                            <mask id="mask-12" fill="white">
                                <use xlink:href="#path-11"></use>
                            </mask>
                            <use id="Mask" fill="#7F7F7F" xlink:href="#path-11"></use>
                        </g>
                    </g>
                    <g id="Tag/Default/Closable/medium-Copy-7" transform="translate(155.000000, 4.000000)">
                        <path d="M65.9978179,0.5 C66.9653332,0.5 67.8413321,0.890436295 68.4752924,1.52247534 C69.1083912,2.15365541 69.5,3.02578999 69.5,3.99005301 L69.5,3.99005301 L69.5,20.009947 C69.5,20.9725228 69.1067704,21.8438593 68.4736342,22.4750768 C67.8386412,23.1081453 66.9622206,23.5 65.9978179,23.5 L65.9978179,23.5 L4.00218213,23.5 C3.03584726,23.5 2.16099532,23.107495 1.52734125,22.4748472 C0.892863475,21.841377 0.5,20.9669882 0.5,20.0041738 L0.5,20.0041738 L0.5,3.99582624 C0.5,3.03157557 0.893288574,2.15868937 1.52662173,1.52636201 C2.16154906,0.892443015 3.03786193,0.5 4.00218213,0.5 L4.00218213,0.5 Z" id="Bg" stroke="#CCCCCC" fill="#F2F2F2"></path>
                        <text id="Text" font-family="PingFangTC-Regular, PingFang TC" font-size="14" font-weight="normal" line-spacing="22" fill="#545454">
                            <tspan x="8" y="16">選項三</tspan>
                        </text>
                        <g id="Group" transform="translate(49.184211, 5.000000)">
                            <mask id="mask-14" fill="white">
                                <use xlink:href="#path-13"></use>
                            </mask>
                            <use id="Mask" fill="#7F7F7F" xlink:href="#path-13"></use>
                        </g>
                    </g>
                </g>
            </g>
        </g>
    </g>
</svg>