<?xml version="1.0" encoding="UTF-8"?>
<svg width="310px" height="176px" viewBox="0 0 310 176" version="1.1" xmlns="http://www.w3.org/2000/svg" xmlns:xlink="http://www.w3.org/1999/xlink">
    <title>modal/type02</title>
    <defs>
        <filter x="-5.8%" y="-10.5%" width="111.7%" height="121.1%" filterUnits="objectBoundingBox" id="filter-1">
            <feOffset dx="0" dy="3" in="SourceAlpha" result="shadowOffsetOuter1"></feOffset>
            <feGaussianBlur stdDeviation="3" in="shadowOffsetOuter1" result="shadowBlurOuter1"></feGaussianBlur>
            <feColorMatrix values="0 0 0 0 0   0 0 0 0 0   0 0 0 0 0  0 0 0 0.2 0" type="matrix" in="shadowBlurOuter1" result="shadowMatrixOuter1"></feColorMatrix>
            <feMerge>
                <feMergeNode in="shadowMatrixOuter1"></feMergeNode>
                <feMergeNode in="SourceGraphic"></feMergeNode>
            </feMerge>
        </filter>
        <polygon id="path-2" points="0 0 299.734477 0 299.734477 0.510620915 0 0.510620915"></polygon>
        <path d="M4.70128676,3.82996324 L7.57965686,0.800245098 C7.75377859,0.616983252 7.75377859,0.320720997 7.57965686,0.138633578 C7.40604575,-0.044628268 7.12469363,-0.044628268 6.95159314,0.138633578 L4.0722018,3.16712623 L1.19281046,0.13745915 C1.01868873,-0.0458026961 0.737336601,-0.0458026961 0.564746732,0.13745915 C0.390625,0.320720997 0.390625,0.616983252 0.564746732,0.79907067 L3.44311683,3.82878881 L0.564746732,6.85963031 C0.390625,7.04289216 0.390625,7.33920547 0.564746732,7.52129289 C0.651552288,7.61289828 0.765420752,7.6581393 0.878778595,7.6581393 C0.992647059,7.6581393 1.10549428,7.61289828 1.19281046,7.52129289 L4.0722018,4.49157475 L6.95159314,7.52246732 C7.03890931,7.61407271 7.15175654,7.65931373 7.265625,7.65931373 C7.38000408,7.65931373 7.49285131,7.61407271 7.57965686,7.52246732 C7.75377859,7.33920547 7.75377859,7.04289216 7.57965686,6.8608558 L4.70128676,3.82996324 Z" id="path-4"></path>
        <polygon id="path-6" points="0 0 295.64951 0 295.64951 0.510620915 0 0.510620915"></polygon>
    </defs>
    <g id="modal/type02" stroke="none" stroke-width="1" fill="none" fill-rule="evenodd">
        <rect fill="#FFFFFF" x="0" y="0" width="310" height="176"></rect>
        <g id="Default" filter="url(#filter-1)" transform="translate(5.000000, 5.000000)">
            <path d="M0,2.04248366 C0,0.914450572 0.914450572,0 2.04248366,0 L297.691993,0 C298.819955,0 299.734477,0.914450572 299.734477,2.04248366 L299.734477,163.398693 C299.734477,164.526654 298.819955,165.441176 297.691993,165.441176 L2.04248366,165.441176 C0.914450572,165.441176 0,164.526654 0,163.398693 L0,2.04248366 Z" id="Path" fill="#FFFFFF"></path>
            <polygon id="Path" fill="#FFFFFF" points="0 26.5522876 299.734477 26.5522876 299.734477 0 0 0"></polygon>
            <g id="Clipped" transform="translate(0.000000, 26.552288)">
                <mask id="mask-3" fill="white">
                    <use xlink:href="#path-2"></use>
                </mask>
                <g id="Path"></g>
                <path d="M4.76285678e-14,4.64073224e-14 L4.76285678e-14,-0.510620915 L-0.510620915,-0.510620915 L-0.510620915,4.64073224e-14 L4.76285678e-14,4.64073224e-14 Z M299.734477,4.64073224e-14 L300.245098,4.64073224e-14 L300.245098,-0.510620915 L299.734477,-0.510620915 L299.734477,4.64073224e-14 Z M299.734477,0.510620915 L299.734477,1.02124183 L300.245098,1.02124183 L300.245098,0.510620915 L299.734477,0.510620915 Z M4.76285678e-14,0.510620915 L-0.510620915,0.510620915 L-0.510620915,1.02124183 L4.76285678e-14,1.02124183 L4.76285678e-14,0.510620915 Z M5.68434189e-14,0.510620915 L299.734477,0.510620915 L299.734477,-0.510620915 L5.68434189e-14,-0.510620915 L5.68434189e-14,0.510620915 Z M299.223856,4.64073224e-14 L299.223856,0.510620915 L300.245098,0.510620915 L300.245098,4.64073224e-14 L299.223856,4.64073224e-14 Z M299.734477,4.65183447e-14 L5.68434189e-14,4.65183447e-14 L5.68434189e-14,1.02124183 L299.734477,1.02124183 L299.734477,4.65183447e-14 Z M0.510620915,0.510620915 L0.510620915,4.64073224e-14 L-0.510620915,4.64073224e-14 L-0.510620915,0.510620915 L0.510620915,0.510620915 Z" id="Shape" fill="#E5E5E5" fill-rule="nonzero" mask="url(#mask-3)"></path>
            </g>
            <path d="M17.1160131,12.1078431 L17.1160131,13.0147059 L20.1633987,13.0147059 L20.1633987,12.1078431 L17.1160131,12.1078431 Z M12.6879085,10.2124183 L12.6879085,11.0130719 L16.3643791,11.0130719 L16.3643791,10.2124183 L12.6879085,10.2124183 Z M12.6062092,13.4640523 L12.6062092,14.2892157 L16.3562092,14.2892157 L16.3562092,13.4640523 L12.6062092,13.4640523 Z M12.5816993,12.0343137 L12.5816993,12.8431373 L16.4297386,12.8431373 L16.4297386,12.0343137 L12.5816993,12.0343137 Z M18.4395425,12.5 L18.4395425,17.0343137 L19.3872549,17.0343137 L19.3872549,12.5 L18.4395425,12.5 Z M14.0522876,9.46895425 L14.0522876,10.5718954 L15.0081699,10.5718954 L15.0081699,9.46895425 L14.0522876,9.46895425 Z M14.0522876,12.7941176 L14.0522876,17.0669935 L15.0081699,17.0669935 L15.0081699,12.7941176 L14.0522876,12.7941176 Z M16.6748366,10.0490196 L16.6748366,12.9003268 C16.6748366,14.0196078 16.5849673,15.4166667 15.6372549,16.4215686 C15.8578431,16.5441176 16.2173203,16.879085 16.3398693,17.0915033 C17.4509804,15.9395425 17.6062092,14.1339869 17.6062092,12.9166667 L17.6062092,10.5147059 C17.753268,10.4901961 17.8104575,10.4493464 17.8186275,10.3676471 L16.6748366,10.0490196 Z M19.3464052,9.48529412 C18.7663399,9.79575163 17.8022876,10.0898693 16.9281046,10.2859477 C17.0424837,10.4738562 17.1813725,10.8169935 17.2303922,11.0294118 C18.1862745,10.8496732 19.2973856,10.5718954 20.130719,10.1960784 L19.3464052,9.48529412 Z M14.9346405,14.3218954 L14.4117647,14.746732 C14.7140523,15.0163399 15.3349673,15.629085 15.6045752,15.9558824 L16.1683007,15.253268 C15.9722222,15.0898693 15.1879085,14.4771242 14.9346405,14.3218954 Z M13.0964052,11.1356209 C13.2271242,11.4460784 13.3333333,11.8627451 13.3496732,12.1323529 L14.1503268,11.9199346 C14.1094771,11.6503268 13.995098,11.25 13.8480392,10.9558824 L13.0964052,11.1356209 Z M15.130719,10.9395425 C15.0571895,11.2254902 14.9183007,11.6421569 14.8039216,11.9199346 L15.5800654,12.0833333 C15.7026144,11.8300654 15.8415033,11.4787582 15.996732,11.1029412 L15.130719,10.9395425 Z M14.0604575,13.9460784 C13.7009804,14.6650327 13.0228758,15.4575163 12.377451,15.874183 C12.5816993,16.0294118 12.8676471,16.3562092 13.0228758,16.5686275 C13.6764706,16.0375817 14.3545752,15.0980392 14.754902,14.1993464 L14.0604575,13.9460784 Z M22.9738562,10.996732 L22.9738562,11.748366 L28.3169935,11.748366 L28.3169935,10.996732 L22.9738562,10.996732 Z M23.4477124,13.1944444 L23.4477124,13.8970588 L27.7696078,13.8970588 L27.7696078,13.1944444 L23.4477124,13.1944444 Z M23.0882353,14.2728758 L23.0882353,15.0490196 L28.1372549,15.0490196 L28.1372549,14.2728758 L23.0882353,14.2728758 Z M25.0408497,9.46895425 L25.0408497,15.7107843 L25.996732,15.7107843 L25.996732,9.46895425 L25.0408497,9.46895425 Z M23.5375817,9.92647059 L23.5375817,10.6699346 L26.7401961,10.6699346 L26.7401961,12.0915033 L23.496732,12.0915033 L23.496732,12.8349673 L27.7042484,12.8349673 L27.7042484,9.92647059 L23.5375817,9.92647059 Z M20.6862745,9.85294118 L20.6862745,10.7107843 L22.4101307,10.7107843 L22.4101307,9.85294118 L20.6862745,9.85294118 Z M22.0751634,9.85294118 L22.0751634,9.95915033 C21.7892157,10.6781046 21.2009804,12.0261438 20.7026144,13.0310458 L21.5931373,13.2598039 C22.0669935,12.2385621 22.6388889,10.9640523 23.0065359,10 L22.3447712,9.82026144 L22.1977124,9.85294118 L22.0751634,9.85294118 Z M21.5196078,12.1650327 L21.4869281,13.0228758 L22.7124183,13.0228758 L22.7124183,12.1650327 L21.5196078,12.1650327 Z M22.3202614,12.1650327 L22.3202614,12.3447712 C22.1650327,14.4199346 21.625817,15.7434641 20.6127451,16.4460784 C20.8251634,16.5686275 21.2009804,16.9199346 21.3480392,17.1078431 C22.4101307,16.3071895 23.0392157,14.7385621 23.2434641,12.2712418 L22.6715686,12.1486928 L22.5081699,12.1650327 L22.3202614,12.1650327 Z M21.5686275,13.4885621 L20.8006536,13.7581699 C21.6503268,16.3970588 23.2598039,16.879085 25.629085,16.879085 L28.0392157,16.879085 C28.0964052,16.5931373 28.2679739,16.1437908 28.4150327,15.9232026 C27.8186275,15.9477124 26.1519608,15.9477124 25.6535948,15.9477124 C23.7254902,15.9395425 22.2303922,15.6045752 21.5686275,13.4885621 Z M34.2401961,11.2254902 C33.3905229,13.8888889 31.6339869,15.4003268 28.8071895,16.1437908 C29.003268,16.380719 29.3137255,16.8545752 29.4281046,17.0996732 C32.3529412,16.1846405 34.2565359,14.4689542 35.2859477,11.5277778 L34.2401961,11.2254902 Z M31.0866013,11.2908497 L30.1062092,11.5849673 C31.127451,14.4117647 32.8104575,16.2826797 35.874183,17.0833333 C36.0294118,16.7973856 36.3480392,16.3316993 36.5849673,16.1029412 C33.6764706,15.4493464 31.9117647,13.7091503 31.0866013,11.2908497 Z M28.9542484,10.6944444 L28.9542484,11.6584967 L36.4379085,11.6584967 L36.4379085,10.6944444 L28.9542484,10.6944444 Z M32.1650327,9.40359477 L32.1650327,11.2826797 L33.1781046,11.2826797 L33.1781046,9.40359477 L32.1650327,9.40359477 Z M37.124183,11.0947712 L37.124183,12.001634 L39.6732026,12.001634 L39.6732026,11.0947712 L37.124183,11.0947712 Z M38.0718954,9.40359477 L38.0718954,17.0751634 L38.9542484,17.0751634 L38.9542484,9.40359477 L38.0718954,9.40359477 Z M38.0637255,11.7156863 C37.8839869,12.753268 37.4346405,14.0359477 36.9281046,14.746732 C37.0669935,14.9836601 37.2794118,15.3594771 37.369281,15.620915 C37.9330065,14.7875817 38.3823529,13.1944444 38.6029412,11.9035948 L38.0637255,11.7156863 Z M38.9052288,12.3529412 L38.5294118,12.7287582 C38.7336601,13.1127451 39.2156863,14.0686275 39.3872549,14.5424837 L39.869281,13.8562092 C39.7303922,13.627451 39.0767974,12.5735294 38.9052288,12.3529412 Z M40.6045752,15.0081699 L40.6045752,15.6781046 L43.7663399,15.6781046 L43.7663399,15.0081699 L40.6045752,15.0081699 Z M40.5310458,16.1029412 L40.5310458,16.8137255 L43.880719,16.8137255 L43.880719,16.1029412 L40.5310458,16.1029412 Z M41.6911765,9.40359477 L41.6911765,11.1111111 L42.622549,11.1111111 L42.622549,9.40359477 L41.6911765,9.40359477 Z M41.7320261,14.3055556 L41.7320261,16.4787582 L42.5653595,16.4787582 L42.5653595,14.3055556 L41.7320261,14.3055556 Z M39.7875817,10.6699346 L39.7875817,12.1160131 L40.6535948,12.1160131 L40.6535948,11.4215686 L43.6846405,11.4215686 L43.6846405,12.1160131 L44.5915033,12.1160131 L44.5915033,10.6699346 L39.7875817,10.6699346 Z M39.9673203,13.880719 L39.9673203,17.0751634 L40.8578431,17.0751634 L40.8578431,14.5915033 L43.4640523,14.5915033 L43.4640523,17.0669935 L44.4035948,17.0669935 L44.4035948,13.880719 L39.9673203,13.880719 Z M41.380719,12.4591503 L42.998366,12.4591503 L42.998366,12.9248366 L41.380719,12.9248366 L41.380719,12.4591503 Z M40.5392157,11.8055556 L40.5392157,13.5866013 L43.8970588,13.5866013 L43.8970588,11.8055556 L40.5392157,11.8055556 Z M40.0571895,9.74673203 C40.245098,10.0653595 40.4411765,10.498366 40.5147059,10.7761438 L41.3480392,10.4820261 C41.2663399,10.1960784 41.0457516,9.77941176 40.8415033,9.47712418 L40.0571895,9.74673203 Z M43.4395425,9.45261438 C43.3333333,9.77124183 43.1372549,10.2205882 42.9738562,10.5147059 L43.7173203,10.7598039 C43.8970588,10.5065359 44.1176471,10.1143791 44.3464052,9.72222222 L43.4395425,9.45261438 Z" id="Shape" fill="#545454" fill-rule="nonzero"></path>
            <path d="M287.585274,13.5317606 L290.463644,10.5020425 C290.637766,10.3187806 290.637766,10.0225184 290.463644,9.84043096 C290.290033,9.65716912 290.008681,9.65716912 289.83558,9.84043096 L286.956189,12.8689236 L284.076797,9.83925654 C283.902676,9.65599469 283.621324,9.65599469 283.448734,9.83925654 C283.274612,10.0225184 283.274612,10.3187806 283.448734,10.5008681 L286.327104,13.5305862 L283.448734,16.5614277 C283.274612,16.7446895 283.274612,17.0410029 283.448734,17.2230903 C283.535539,17.3146957 283.649408,17.3599367 283.762766,17.3599367 C283.876634,17.3599367 283.989481,17.3146957 284.076797,17.2230903 L286.956189,14.1933721 L289.83558,17.2242647 C289.922896,17.3158701 290.035743,17.3611111 290.149612,17.3611111 C290.263991,17.3611111 290.376838,17.3158701 290.463644,17.2242647 C290.637766,17.0410029 290.637766,16.7446895 290.463644,16.5626532 L287.585274,13.5317606 Z" id="Path" fill="#7F7F7F"></path>
            <g id="Clipped" transform="translate(282.883987, 9.701797)">
                <mask id="mask-5" fill="white">
                    <use xlink:href="#path-4"></use>
                </mask>
                <g id="Path"></g>
            </g>
            <path d="M14.0492239,39.7079248 L12.5837418,39.7079248 L12.5837418,40.2011846 L13.5202206,40.2011846 L13.5202206,41.7953431 L14.0492239,41.7953431 L14.0492239,39.7079248 Z M14.0492239,41.5093954 L13.5702614,41.5093954 C13.2199755,41.8167892 12.8125,42.1313317 12.4908088,42.3600899 L12.7696078,42.8962418 C13.1341912,42.5816993 13.4844771,42.2743056 13.813317,41.9669118 C14.277982,42.5316585 14.9285131,42.7818627 15.8649918,42.8247549 C16.6656454,42.846201 18.1740196,42.8319036 18.9675245,42.8033088 C18.9961193,42.6388889 19.0747549,42.3886846 19.1462418,42.2671569 C18.2883987,42.3243464 16.651348,42.3386438 15.8649918,42.3171977 C15.0214461,42.2814542 14.3923611,42.03125 14.0492239,41.5093954 Z M12.8911356,36.7984069 C13.3272059,37.0414624 13.8276144,37.4131944 14.0635212,37.6919935 L14.4352533,37.3274101 C14.1921977,37.0486111 13.6774918,36.6911765 13.2485703,36.469567 L12.8911356,36.7984069 Z M12.6123366,38.2567402 C13.0698529,38.4783497 13.5988562,38.842933 13.8490605,39.1145833 L14.2207925,38.7357026 C13.9562908,38.4569036 13.4129902,38.1137663 12.9697712,37.9064542 L12.6123366,38.2567402 Z M14.463848,37.5704657 L14.463848,37.9707925 L19.1033497,37.9707925 L19.1033497,37.5704657 L14.463848,37.5704657 Z M15.0214461,39.2790033 L15.0214461,39.6650327 L18.5957925,39.6650327 L18.5957925,39.2790033 L15.0214461,39.2790033 Z M15.0214461,38.4354575 L15.0214461,38.8214869 L18.5957925,38.8214869 L18.5957925,38.4354575 L15.0214461,38.4354575 Z M15.1215278,36.7126225 L15.1215278,37.098652 L18.5171569,37.098652 L18.5171569,36.7126225 L15.1215278,36.7126225 Z M15.4861111,40.5371732 L18.1168301,40.5371732 L18.1168301,41.380719 L15.4861111,41.380719 L15.4861111,40.5371732 Z M14.9928513,40.1439951 L14.9928513,41.7738971 L18.6243873,41.7738971 L18.6243873,40.1439951 L14.9928513,40.1439951 Z M19.818219,39.5292075 L19.818219,40.0153186 L26.1448121,40.0153186 L26.1448121,39.5292075 L19.818219,39.5292075 Z M22.9993873,40.8088235 L22.9993873,41.2806373 L25.6729984,41.2806373 L25.6729984,40.8088235 L22.9993873,40.8088235 Z M22.7634804,39.7436683 L22.7634804,42.4530229 L23.306781,42.4530229 L23.306781,39.7436683 L22.7634804,39.7436683 Z M21.3623366,40.9089052 L20.9191176,41.0733252 C21.4767157,42.5173611 22.4489379,42.8176062 24.121732,42.8176062 L26.0876225,42.8176062 C26.1162173,42.660335 26.2020016,42.4244281 26.2806373,42.3029003 C25.9089052,42.310049 24.4148284,42.310049 24.1431781,42.310049 C22.7420343,42.3029003 21.7984069,42.0812908 21.3623366,40.9089052 Z M21.0549428,40.2440768 C20.8690768,41.2949346 20.4115605,42.0955882 19.653799,42.588848 C19.7753268,42.6746324 19.9826389,42.8676471 20.0612745,42.9677288 C20.8476307,42.3958333 21.3623366,41.5093954 21.5910948,40.3227124 L21.0549428,40.2440768 Z M21.0906863,38.0494281 L24.8151552,38.0494281 L24.8151552,38.6356209 L21.0906863,38.6356209 L21.0906863,38.0494281 Z M21.0906863,37.0843546 L24.8151552,37.0843546 L24.8151552,37.6633987 L21.0906863,37.6633987 L21.0906863,37.0843546 Z M20.5688317,36.6768791 L20.5688317,39.0430964 L25.3584559,39.0430964 L25.3584559,36.6768791 L20.5688317,36.6768791 Z M26.8668301,39.3004493 L26.8668301,39.8866422 L33.407884,39.8866422 L33.407884,39.3004493 L26.8668301,39.3004493 Z M37.0465686,39.5506536 L37.0465686,40.0439134 L39.8131127,40.0439134 L39.8131127,39.5506536 L37.0465686,39.5506536 Z M34.780433,38.2352941 L34.780433,38.7428513 L36.689134,38.7428513 L36.689134,38.2352941 L34.780433,38.2352941 Z M34.780433,39.6078431 L34.780433,40.1154003 L36.7534722,40.1154003 L36.7534722,39.6078431 L34.780433,39.6078431 Z M37.7042484,36.6768791 L37.7042484,37.1558415 L39.3841912,37.1558415 L39.3841912,36.6768791 L37.7042484,36.6768791 Z M39.7058824,39.5506536 L39.7058824,39.6435866 C39.2555147,41.1877042 37.96875,42.124183 36.4961193,42.495915 C36.6033497,42.6174428 36.7320261,42.8319036 36.7892157,42.9677288 C38.3762255,42.5030637 39.713031,41.5022467 40.249183,39.6650327 L39.8988971,39.5292075 L39.8059641,39.5506536 L39.7058824,39.5506536 Z M37.8114788,40.0153186 L37.3468137,40.1439951 C37.8615196,41.5379902 38.8480392,42.5102124 40.2634804,42.9462827 C40.342116,42.8033088 40.4922386,42.588848 40.620915,42.4816176 C39.2555147,42.1170343 38.2761438,41.2377451 37.8114788,40.0153186 Z M34.5302288,36.9199346 L34.5302288,42.9462827 L35.0377859,42.9462827 L35.0377859,37.0843546 L34.5302288,36.9199346 Z M33.9368873,41.380719 L34.0298203,41.9097222 C34.8161765,41.7667484 35.9170752,41.566585 36.9607843,41.3735703 L36.9393382,40.8803105 C35.8384395,41.0733252 34.6875,41.2663399 33.9368873,41.380719 Z M37.4611928,36.6768791 L37.4611928,37.6919935 C37.4611928,38.1709559 37.3754085,38.6928105 36.7248775,39.0859886 C36.8321078,39.1574755 37.0251225,39.3504902 37.0966095,39.4505719 C37.8186275,39.0002042 37.9616013,38.2924837 37.9616013,37.7062908 L37.9616013,36.6768791 L37.4611928,36.6768791 Z M36.5175654,36.3837827 C36.0886438,36.6268382 35.316585,36.8913399 34.6374592,37.0629085 C34.7089461,37.1701389 34.7875817,37.3488562 34.8161765,37.4632353 C35.5453431,37.2988154 36.3888889,37.0557598 36.9750817,36.7626634 L36.5175654,36.3837827 Z M39.0839461,36.6768791 L39.0839461,38.4140114 C39.0839461,38.8143382 39.1268382,38.935866 39.2269199,39.0216503 C39.3270016,39.1145833 39.4914216,39.1503268 39.6343954,39.1503268 C39.713031,39.1503268 39.8988971,39.1503268 39.9989788,39.1503268 C40.1133578,39.1503268 40.2563317,39.1288807 40.3349673,39.0788399 C40.435049,39.0359477 40.5065359,38.9573121 40.5494281,38.842933 C40.5851716,38.7214052 40.6066176,38.4068627 40.620915,38.120915 C40.4850899,38.0780229 40.3063725,37.9993873 40.2134395,37.9064542 C40.2062908,38.1995507 40.1991422,38.4283088 40.1776961,38.5283905 C40.1633987,38.6141748 40.1348039,38.6713644 40.1062092,38.6856618 C40.0776144,38.7071078 40.0132761,38.7142565 39.9489379,38.7142565 C39.8917484,38.7142565 39.7916667,38.7142565 39.7487745,38.7142565 C39.691585,38.7142565 39.6558415,38.7071078 39.6343954,38.6856618 C39.598652,38.657067 39.5915033,38.5784314 39.5915033,38.4426062 L39.5915033,36.6768791 L39.0839461,36.6768791 Z M41.2785948,38.4497549 L41.2785948,38.8572304 L44.4740605,38.8572304 L44.4740605,38.4497549 L41.2785948,38.4497549 Z M41.1713644,41.7095588 L41.1713644,42.1313317 L44.5598448,42.1313317 L44.5598448,41.7095588 L41.1713644,41.7095588 Z M45.0388072,38.3568219 L45.0388072,38.8357843 L47.1262255,38.8357843 L47.1262255,38.3568219 L45.0388072,38.3568219 Z M42.6368464,38.0780229 L42.6368464,42.9534314 L43.1015114,42.9534314 L43.1015114,38.0780229 L42.6368464,38.0780229 Z M41.8933824,40.4370915 L43.8521242,40.4370915 L43.8521242,40.9160539 L41.8933824,40.9160539 L41.8933824,40.4370915 Z M41.8933824,39.6221405 L43.8521242,39.6221405 L43.8521242,40.0939542 L41.8933824,40.0939542 L41.8933824,39.6221405 Z M41.4501634,39.2647059 L41.4501634,41.2734886 L44.3024918,41.2734886 L44.3024918,39.2647059 L41.4501634,39.2647059 Z M44.7743056,38.3568219 L44.7743056,42.0526961 C44.7743056,42.7175245 44.9673203,42.8819444 45.6392974,42.8819444 C45.7822712,42.8819444 46.7616422,42.8819444 46.9260621,42.8819444 C47.533701,42.8819444 47.6838235,42.6031454 47.7553105,41.6452206 C47.6051879,41.6166258 47.3978758,41.5308415 47.276348,41.4379085 C47.2406046,42.2314134 47.1905637,42.3886846 46.8903186,42.3886846 C46.6830065,42.3886846 45.8466095,42.3886846 45.6893382,42.3886846 C45.346201,42.3886846 45.2818627,42.3314951 45.2818627,42.0526961 L45.2818627,38.3568219 L44.7743056,38.3568219 Z M46.8617239,38.3568219 L46.8617239,40.4799837 C46.8617239,40.5729167 46.8402778,40.5872141 46.7401961,40.5943627 C46.6329657,40.6015114 46.3112745,40.6015114 45.9180964,40.5872141 C45.996732,40.7301879 46.0825163,40.9446487 46.1039624,41.0947712 C46.5972222,41.0947712 46.9189134,41.0876225 47.1190768,41.0018382 C47.3263889,40.9089052 47.3764297,40.7587827 47.3764297,40.494281 L47.3764297,38.3568219 L46.8617239,38.3568219 Z M42.0149101,36.934232 L42.0149101,37.3917484 L44.3239379,37.3917484 L44.3239379,36.934232 L42.0149101,36.934232 Z M44.7743056,36.934232 L44.7743056,37.3917484 L47.6623775,37.3917484 L47.6623775,36.934232 L44.7743056,36.934232 Z M42.1507353,36.3480392 C41.9291258,36.9127859 41.5359477,37.4775327 41.0998775,37.8492647 C41.2285539,37.9136029 41.4501634,38.0637255 41.5430964,38.1495098 C41.9577206,37.7420343 42.3866422,37.1129493 42.6582925,36.4767157 L42.1507353,36.3480392 Z M44.9673203,36.3480392 C44.7385621,36.9199346 44.3096405,37.4632353 43.8378268,37.8135212 C43.9665033,37.8778595 44.1952614,38.0065359 44.3024918,38.0851716 C44.7600082,37.7062908 45.2175245,37.1058007 45.4748775,36.469567 L44.9673203,36.3480392 Z M42.4152369,37.2916667 C42.5653595,37.5275735 42.7226307,37.8492647 42.7726716,38.0565768 L43.2587827,37.9136029 C43.1872958,37.7134395 43.0228758,37.3988971 42.8727533,37.1701389 L42.4152369,37.2916667 Z M45.4248366,37.284518 C45.6535948,37.5418709 45.8966503,37.9064542 45.996732,38.1352124 L46.4828431,37.9779412 C46.3684641,37.7420343 46.1182598,37.3917484 45.8895016,37.1415441 L45.4248366,37.284518 Z M50.185866,36.748366 L50.185866,37.2273284 L52.7808415,37.2273284 L52.7808415,36.748366 L50.185866,36.748366 Z M50.8864379,38.2424428 L50.7363154,38.7214052 L52.2518382,38.7214052 L52.2518382,38.2424428 L50.8864379,38.2424428 Z M50.4718137,39.8651961 C50.8649918,40.1368464 51.3296569,40.5228758 51.5512663,40.7945261 L51.7871732,40.3298611 C51.5655637,40.0868056 51.09375,39.7150735 50.7005719,39.4577206 L50.4718137,39.8651961 Z M52.8237337,37.191585 L52.8237337,41.3163807 L53.3098448,41.3163807 L53.3098448,37.191585 L52.8237337,37.191585 Z M54.1247958,36.4910131 L54.1247958,42.2814542 C54.1247958,42.402982 54.0819036,42.4387255 53.9675245,42.4458742 C53.8459967,42.4458742 53.467116,42.4530229 53.0381944,42.4387255 C53.1096814,42.588848 53.188317,42.8247549 53.2169118,42.9605801 C53.7745098,42.9605801 54.1319444,42.9462827 54.3392565,42.8604984 C54.5465686,42.7747141 54.6323529,42.6245915 54.6323529,42.2814542 L54.6323529,36.4910131 L54.1247958,36.4910131 Z M50.8792892,36.9127859 C50.7506127,38.0136846 50.4360703,39.4291258 49.7354984,40.2655229 C49.8427288,40.3584559 49.9928513,40.5300245 50.0714869,40.6372549 C50.8435458,39.7293709 51.2081291,38.2209967 51.4011438,36.9842729 L50.8792892,36.9127859 Z M52.0445261,38.2424428 L52.0445261,38.3568219 C51.8086193,40.4442402 51.0794526,41.845384 50.0285948,42.567402 C50.1358252,42.6460376 50.3073938,42.846201 50.3788807,42.9748775 C51.4797794,42.1885212 52.2661356,40.6515523 52.5449346,38.3210784 L52.2375408,38.2209967 L52.1446078,38.2424428 L52.0445261,38.2424428 Z M49.6568627,36.4052288 C49.3137255,37.5061275 48.7489788,38.5998775 48.1198938,39.3147467 C48.2128268,39.4434232 48.3558007,39.7365196 48.4058415,39.8580474 C49.1135621,39.028799 49.7497958,37.7777778 50.1572712,36.5482026 L49.6568627,36.4052288 Z M49.0849673,38.1709559 L49.0849673,42.9534314 L49.5782271,42.9534314 L49.5782271,37.6991422 L49.5639297,37.6848448 L49.0849673,38.1709559 Z M60.3227124,37.8635621 C59.5220588,40.3155637 57.9707925,41.7167075 55.4187092,42.4458742 C55.5330882,42.5745507 55.7046569,42.8319036 55.7618464,42.9677288 C58.3639706,42.124183 59.9867239,40.6515523 60.8874592,38.027982 L60.3227124,37.8635621 Z M57.0772059,37.8993056 L56.5482026,38.0637255 C57.4274918,40.565768 59.0002042,42.2671569 61.6523693,42.9605801 C61.7381536,42.8033088 61.9097222,42.5602533 62.0383987,42.4315768 C59.4577206,41.8310866 57.8492647,40.1868873 57.0772059,37.8993056 Z M55.5044935,37.5919118 L55.5044935,38.120915 L61.9669118,38.120915 L61.9669118,37.5919118 L55.5044935,37.5919118 Z M58.4354575,36.376634 L58.4354575,37.9136029 L58.9859069,37.9136029 L58.9859069,36.376634 L58.4354575,36.376634 Z M63.9613971,38.4497549 L63.9613971,38.9430147 L67.3927696,38.9430147 L67.3927696,38.4497549 L63.9613971,38.4497549 Z M62.7961601,40.2440768 L62.7961601,40.751634 L68.9583333,40.751634 L68.9583333,40.2440768 L62.7961601,40.2440768 Z M65.591299,39.7079248 L65.591299,42.2814542 C65.591299,42.3815359 65.5555556,42.4101307 65.4268791,42.4172794 C65.2982026,42.4244281 64.8335376,42.4244281 64.3474265,42.4101307 C64.4403595,42.5602533 64.5475899,42.7890114 64.5833333,42.9462827 C65.1909722,42.9462827 65.5698529,42.939134 65.8200572,42.8533497 C66.0774101,42.7675654 66.1560458,42.6102941 66.1560458,42.2886029 L66.1560458,39.7079248 L65.591299,39.7079248 Z M67.2283497,38.4497549 L67.2283497,38.5569853 C66.9066585,38.9573121 66.2704248,39.4934641 65.7128268,39.7937092 C65.7986111,39.8651961 65.941585,40.0010212 66.0059232,40.1011029 C66.6636029,39.7651144 67.3713235,39.2075163 67.8431373,38.6856618 L67.4928513,38.4211601 L67.3713235,38.4497549 L67.2283497,38.4497549 Z M65.5770016,36.3694853 L65.5770016,37.5204248 L66.1417484,37.5204248 L66.1417484,36.3694853 L65.5770016,36.3694853 Z M62.8676471,37.1558415 L62.8676471,38.8357843 L63.3966503,38.8357843 L63.3966503,37.6633987 L68.314951,37.6633987 L68.314951,38.8357843 L68.8654003,38.8357843 L68.8654003,37.1558415 L62.8676471,37.1558415 Z" id="Shape" fill="#545454" fill-rule="nonzero"></path>
            <polygon id="Path" fill="#FFFFFF" points="0 165.441176 299.734477 165.441176 299.734477 138.888889 0 138.888889"></polygon>
            <g id="Clipped" transform="translate(0.000000, 138.378268)">
                <mask id="mask-7" fill="white">
                    <use xlink:href="#path-6"></use>
                </mask>
                <g id="Path"></g>
                <path d="M4.76285678e-14,5.68434189e-14 L4.76285678e-14,-0.510620915 L-0.510620915,-0.510620915 L-0.510620915,5.68434189e-14 L4.76285678e-14,5.68434189e-14 Z M295.64951,5.68434189e-14 L296.160131,5.68434189e-14 L296.160131,-0.510620915 L295.64951,-0.510620915 L295.64951,5.68434189e-14 Z M295.64951,0.510620915 L295.64951,1.02124183 L296.160131,1.02124183 L296.160131,0.510620915 L295.64951,0.510620915 Z M4.76285678e-14,0.510620915 L-0.510620915,0.510620915 L-0.510620915,1.02124183 L4.76285678e-14,1.02124183 L4.76285678e-14,0.510620915 Z M5.68434189e-14,0.510620915 L295.64951,0.510620915 L295.64951,-0.510620915 L5.68434189e-14,-0.510620915 L5.68434189e-14,0.510620915 Z M295.138889,5.68434189e-14 L295.138889,0.510620915 L296.160131,0.510620915 L296.160131,5.68434189e-14 L295.138889,5.68434189e-14 Z M295.64951,5.68434189e-14 L5.68434189e-14,5.68434189e-14 L5.68434189e-14,1.02124183 L295.64951,1.02124183 L295.64951,5.68434189e-14 Z M0.510620915,0.510620915 L0.510620915,5.68434189e-14 L-0.510620915,5.68434189e-14 L-0.510620915,0.510620915 L0.510620915,0.510620915 Z" id="Shape" fill="#E5E5E5" fill-rule="nonzero" mask="url(#mask-7)"></path>
            </g>
            <path d="M259.395425,152.165033 L259.395425,146.037582 C259.395425,144.90962 260.309947,143.995098 261.437908,143.995098 L290.03268,143.995098 C291.160641,143.995098 292.075163,144.90962 292.075163,146.037582 L292.075163,158.292484 C292.075163,159.420445 291.160641,160.334967 290.03268,160.334967 L261.437908,160.334967 C260.309947,160.334967 259.395425,159.420445 259.395425,158.292484 L259.395425,152.165033 Z" id="Path" fill="#004477"></path>
            <path d="M272.504085,152.123162 L272.504085,152.745098 L275.184845,152.745098 L275.184845,152.123162 L272.504085,152.123162 Z M272.504085,153.252655 L272.504085,153.88174 L275.184845,153.88174 L275.184845,153.252655 L272.504085,153.252655 Z M272.489788,154.382149 L272.489788,155.089869 L275.513685,155.089869 L275.513685,154.382149 L272.489788,154.382149 Z M271.43893,149.313725 L271.43893,150.621936 L272.168096,150.621936 L272.168096,150.035743 L274.72018,150.035743 L274.72018,150.621936 L275.477941,150.621936 L275.477941,149.313725 L271.43893,149.313725 Z M273.476307,151.522672 L273.476307,154.718137 L274.262663,154.718137 L274.262663,151.522672 L273.476307,151.522672 Z M272.768587,150.92933 L272.689951,150.92933 L271.967933,151.672794 L271.967933,155.368668 L272.768587,155.368668 L272.768587,151.644199 L275.342116,151.644199 L275.342116,150.92933 L272.768587,150.92933 Z M273.147467,148.641748 C272.847222,149.978554 272.210989,151.065155 271.231618,151.708538 C271.403186,151.851511 271.696283,152.1875 271.810662,152.35192 C272.86152,151.579861 273.576389,150.343137 273.962418,148.791871 L273.147467,148.641748 Z M273.912377,150.207312 C273.833742,150.521855 273.669322,150.957925 273.526348,151.251021 L274.16973,151.415441 C274.327002,151.15094 274.520016,150.76491 274.705882,150.371732 L273.912377,150.207312 Z M268.92259,149.07067 L268.92259,149.849877 L271.503268,149.849877 L271.503268,149.07067 L268.92259,149.07067 Z M269.730392,151.172386 L269.730392,151.91585 L270.666871,151.91585 L270.666871,153.767361 L269.730392,153.767361 L269.730392,154.503676 L271.388889,154.503676 L271.388889,151.172386 L269.730392,151.172386 Z M269.658905,149.485294 C269.515931,150.793505 269.237132,152.030229 268.679534,152.816585 C268.829657,153.0096 269.058415,153.44567 269.137051,153.645833 C269.866217,152.673611 270.252247,151.158088 270.466708,149.613971 L269.658905,149.485294 Z M269.394404,151.172386 L269.394404,155.054126 L270.087827,155.054126 L270.087827,151.172386 L269.394404,151.172386 Z M277.329453,150.807802 L277.329453,151.622753 L281.28268,151.622753 L281.28268,150.807802 L277.329453,150.807802 Z M279.302492,152.523489 L279.302492,153.324142 L281.71875,153.324142 L281.71875,152.523489 L279.302492,152.523489 Z M278.852124,151.279616 L278.852124,154.625204 L279.752859,154.732435 L279.752859,151.279616 L278.852124,151.279616 Z M277.143587,152.02308 C277.022059,153.252655 276.664624,154.246324 275.892565,154.818219 C276.092729,154.946895 276.457312,155.254289 276.600286,155.404412 C277.415237,154.70384 277.858456,153.567198 278.044322,152.116013 L277.143587,152.02308 Z M277.83701,152.916667 L277.136438,153.152574 C277.751225,154.954044 278.866422,155.290033 280.51777,155.290033 L282.31924,155.290033 C282.354984,155.03268 282.497958,154.618056 282.619485,154.417892 C282.140523,154.43219 280.946691,154.43219 280.56781,154.43219 C279.295343,154.43219 278.294526,154.232026 277.83701,152.916667 Z M278.837827,148.656046 L278.837827,149.964257 L279.752859,149.964257 L279.752859,148.656046 L278.837827,148.656046 Z M276.235703,149.378064 L276.235703,151.172386 L277.079248,151.172386 L277.079248,150.193015 L281.497141,150.193015 L281.497141,151.172386 L282.383578,151.172386 L282.383578,149.378064 L276.235703,149.378064 Z" id="Shape" fill="#FFFFFF" fill-rule="nonzero"></path>
            <path d="M219.311683,152.165033 L219.311683,146.037582 C219.311683,145.050551 220.111826,144.250408 221.098856,144.250408 L249.693627,144.250408 C250.680658,144.250408 251.480801,145.050551 251.480801,146.037582 L251.480801,158.292484 C251.480801,159.279514 250.680658,160.079657 249.693627,160.079657 L221.098856,160.079657 C220.111826,160.079657 219.311683,159.279514 219.311683,158.292484 L219.311683,152.165033 Z" id="Path" stroke="#CCCCCC" stroke-width="0.735294118" fill="#FFFFFF" fill-rule="nonzero"></path>
            <path d="M231.900531,149.699755 L231.900531,150.221609 L234.538399,150.221609 L234.538399,149.699755 L231.900531,149.699755 Z M228.583538,149.163603 L228.583538,149.664011 L232.079248,149.664011 L232.079248,149.163603 L228.583538,149.163603 Z M229.419935,150.614788 L229.419935,151.108047 L231.278595,151.108047 L231.278595,150.614788 L229.419935,150.614788 Z M229.419935,152.101716 L229.419935,152.587827 L231.278595,152.587827 L231.278595,152.101716 L229.419935,152.101716 Z M234.381127,149.699755 L234.381127,149.828431 C234.073734,152.337623 233.008578,154.017565 231.593137,154.753881 C231.714665,154.853962 231.864788,155.054126 231.950572,155.189951 C233.480392,154.303513 234.574142,152.62357 234.917279,149.778391 L234.574142,149.685458 L234.47406,149.699755 L234.381127,149.699755 Z M232.551062,150.250204 L232.036356,150.350286 C232.479575,152.594975 233.301675,154.339257 234.852941,155.218546 C234.938725,155.075572 235.110294,154.875408 235.231822,154.768178 C233.759191,154.010417 232.929943,152.316176 232.551062,150.250204 Z M229.141136,149.356618 L229.141136,153.996119 L229.655842,153.996119 L229.655842,149.356618 L229.141136,149.356618 Z M231.056985,149.356618 L231.056985,155.275735 L231.571691,155.275735 L231.571691,149.356618 L231.056985,149.356618 Z M228.440564,153.838848 L228.540645,154.375 C229.284109,154.260621 230.313521,154.096201 231.292892,153.93893 L231.264297,153.44567 C230.220588,153.602941 229.141136,153.753064 228.440564,153.838848 Z M238.448734,152.02308 L238.448734,152.494894 L241.508374,152.494894 L241.508374,152.02308 L238.448734,152.02308 Z M238.434436,153.266953 L238.434436,153.731618 L241.508374,153.731618 L241.508374,153.266953 L238.434436,153.266953 Z M241.558415,148.913399 C241.386846,149.335172 241.058007,149.914216 240.807802,150.278799 L241.25817,150.471814 C241.515523,150.114379 241.822917,149.592525 242.08027,149.120711 L241.558415,148.913399 Z M237.905433,149.156454 C238.205678,149.578227 238.513072,150.135825 238.627451,150.507557 L239.106413,150.27165 C238.984886,149.907067 238.663194,149.356618 238.355801,148.956291 L237.905433,149.156454 Z M238.105596,150.757761 L238.105596,155.290033 L238.6346,155.290033 L238.6346,151.25817 L241.536969,151.25817 L241.536969,150.757761 L238.105596,150.757761 Z M241.272467,150.757761 L241.272467,154.618056 C241.272467,154.710989 241.236724,154.746732 241.122345,154.753881 C241.015114,154.753881 240.636234,154.753881 240.221609,154.739583 C240.293096,154.889706 240.371732,155.111315 240.400327,155.254289 C240.943627,155.254289 241.301062,155.254289 241.515523,155.168505 C241.729984,155.075572 241.794322,154.918301 241.794322,154.618056 L241.794322,150.757761 L241.272467,150.757761 Z M239.706904,148.713235 L239.706904,151.072304 L240.243056,151.072304 L240.243056,148.713235 L239.706904,148.713235 Z M236.003881,149.163603 C236.4471,149.39951 236.983252,149.771242 237.233456,150.035743 L237.562296,149.621119 C237.297794,149.356618 236.761642,149.01348 236.318423,148.791871 L236.003881,149.163603 Z M235.667892,151.072304 C236.11826,151.308211 236.66156,151.672794 236.933211,151.930147 L237.254902,151.508374 C236.976103,151.251021 236.418505,150.907884 235.975286,150.693423 L235.667892,151.072304 Z M235.889502,154.875408 L236.354167,155.218546 C236.733047,154.53942 237.176266,153.638685 237.505106,152.873775 L237.104779,152.552083 C236.733047,153.374183 236.239788,154.31781 235.889502,154.875408 Z" id="Shape" fill="#7F7F7F" fill-rule="nonzero"></path>
        </g>
    </g>
</svg>