<?xml version="1.0" encoding="UTF-8"?>
<svg width="479px" height="292px" viewBox="0 0 479 292" version="1.1" xmlns="http://www.w3.org/2000/svg" xmlns:xlink="http://www.w3.org/1999/xlink">
    <title>步驟表單頁</title>
    <g id="Page-1" stroke="none" stroke-width="1" fill="none" fill-rule="evenodd">
        <g id="步驟表單頁">
            <g id="button05-copy">
                <g id="Rectangle" fill-rule="nonzero">
                    <g id="path-1-link" transform="translate(1.000000, 1.000000)" fill="#F5F6F8">
                        <rect id="path-1" x="0" y="0" width="400" height="290" rx="8"></rect>
                    </g>
                    <rect stroke="#E5E5E5" fill-opacity="0.3" fill="#FFFFFF" x="0.5" y="0.5" width="401" height="291" rx="8"></rect>
                </g>
                <g id="Group-8" transform="translate(31.000000, 261.000000)" fill-rule="nonzero">
                    <path d="M4,0 L370,0 L370,0 L370,22 C370,26.418278 366.418278,30 362,30 L4,30 C1.790861,30 0,28.209139 0,26 L0,4 C0,1.790861 1.790861,0 4,0 Z" id="Rectangle-Copy-6" fill="#FFFFFF"></path>
                    <g id="Button/Primary/Basic/Small" transform="translate(190.000000, 7.000000)" fill="#004477">
                        <rect id="Rectangle-40-Copy-13" x="0" y="0" width="40" height="16" rx="2"></rect>
                    </g>
                    <g id="Button/Primary/Basic/Small-Copy" transform="translate(140.000000, 7.000000)" fill="#FFFFFF" stroke="#CCCCCC">
                        <path d="M38.0027084,0.5 C38.4160889,0.5 38.7903336,0.66757253 39.0613105,0.938110935 C39.3322215,1.20858367 39.5,1.58205484 39.5,1.99406028 L39.5,1.99406028 L39.5,14.0059397 C39.5,14.418692 39.3329047,14.7923905 39.0620872,15.0627699 C38.7913248,15.3330942 38.4169982,15.5 38.0027084,15.5 L38.0027084,15.5 L1.99729162,15.5 C1.58305215,15.5 1.2078669,15.3336012 0.936692146,15.0623165 C0.666463893,14.7919787 0.5,14.4177602 0.5,14.0018986 L0.5,14.0018986 L0.5,1.99810135 C0.5,1.58411665 0.66717841,1.20925692 0.938270807,0.938054614 C1.20894168,0.667274009 1.5831181,0.5 1.99729162,0.5 L1.99729162,0.5 L38.0027084,0.5 Z" id="Bg"></path>
                    </g>
                </g>
                <path d="M31,1 L393,1 C397.418278,1 401,4.581722 401,9 L401,31 L401,31 L31,31 L31,1 Z" id="Rectangle" fill="#043458" fill-rule="nonzero"></path>
                <path d="M324,1 L372,1 C374.209139,1 376,2.790861 376,5 L376,12 L376,12 L320,12 L320,5 C320,2.790861 321.790861,1 324,1 Z" id="Rectangle-Copy-2" fill="#F5A700" fill-rule="nonzero" transform="translate(348.000000, 6.500000) scale(-1, 1) rotate(-180.000000) translate(-348.000000, -6.500000) "></path>
                <text id="|||||||||||||||||||||" fill="#7F7F7F" fill-rule="nonzero" font-family="PingFangTC-Regular, PingFang TC" font-size="14" font-weight="normal">
                    <tspan x="46.335" y="21">|||||||||||||||||||||</tspan>
                </text>
                <path d="M9,1 L31,1 L31,1 L31,291 L9,291 C4.581722,291 1,287.418278 1,283 L1,9 C1,4.581722 4.581722,1 9,1 Z" id="Rectangle" fill="#FFFFFF" fill-rule="nonzero"></path>
                <g id="Group-8" transform="translate(32.000000, 31.000000)">
                    <rect id="Rectangle-Copy-14" fill="#FFFFFF" fill-rule="nonzero" x="14" y="43" width="340" height="174" rx="4"></rect>
                    <g id="steps">
                        <rect id="Rectangle-Copy-6" fill="#FFFFFF" fill-rule="nonzero" x="0" y="0" width="369" height="30"></rect>
                        <g id="Group-7" transform="translate(102.000000, 7.000000)">
                            <circle id="Oval" stroke-opacity="0.15" stroke="#000000" stroke-width="0.656" cx="157.541" cy="8.541" r="7.541"></circle>
                            <g id="3" transform="translate(155.000000, 2.000000)" fill="#000000" fill-opacity="0.25" fill-rule="nonzero" font-family="PingFangSC-Regular, PingFang SC" font-size="9.18" font-weight="normal">
                                <text>
                                    <tspan x="0" y="10">3</tspan>
                                </text>
                            </g>
                            <polygon id="Path" fill-opacity="0.15" fill="#000000" fill-rule="nonzero" points="97 8 147 8 147 9 97 9"></polygon>
                            <circle id="Oval" fill="#043458" fill-rule="nonzero" cx="82.869" cy="7.869" r="7.869"></circle>
                            <g id="2" transform="translate(80.000000, 1.000000)" fill="#FFFFFF" fill-rule="nonzero" font-family="PingFangSC-Regular, PingFang SC" font-size="9.18" font-weight="normal">
                                <text>
                                    <tspan x="0" y="10">2</tspan>
                                </text>
                            </g>
                            <polygon id="Path" fill="#043458" fill-rule="nonzero" points="21 8 71 8 71 9 21 9"></polygon>
                            <path d="M7.54200466,0.00100270038 C5.54154079,-0.00148847669 3.62259729,0.793512681 2.21000466,2.2100027 C0.793147838,3.62243097 -0.00222164392,5.54139481 -4.64167126e-06,7.5420027 C-4.64167126e-06,9.6240027 0.845004661,11.5090027 2.21000466,12.8740027 C3.62259729,14.2904927 5.54154079,15.0854939 7.54200466,15.0830143 C9.54226607,15.0849628 11.4608209,14.2896137 12.8730047,12.8730027 C14.2893698,11.4610635 15.0846986,9.54291761 15.0830163,7.5430027 C15.0854972,5.54204834 14.2901074,3.62267549 12.8730047,2.2100027 C11.4610655,0.793637544 9.54291957,-0.0016912475 7.54300466,-2.69178443e-06 L7.54200466,0.00100270038 Z" id="Path" stroke="#043458" stroke-width="0.656"></path>
                            <path d="M10.7701607,5.60185493 C10.8428843,5.6670655 10.8866987,5.75851338 10.8919507,5.85605085 C10.8972027,5.95358832 10.8634615,6.04921228 10.7981607,6.12185493 L6.39816071,11.0078549 C6.34494962,11.0676183 6.27366399,11.1083529 6.19516071,11.1238549 L6.17516071,11.1258549 C6.05014038,11.1492026 5.92199999,11.1056046 5.83716071,11.0108549 L4.09916071,9.08185493 C4.00811116,8.9842338 3.9768857,8.84504891 4.01750652,8.71788817 C4.05812734,8.59072743 4.16425987,8.49542081 4.29504175,8.46866255 C4.42582363,8.44190428 4.56086021,8.48786717 4.64816071,8.58885493 L6.11616071,10.2188549 L10.2491607,5.62885493 C10.3856015,5.47758447 10.6188141,5.4654986 10.7701607,5.60185493 L10.7701607,5.60185493 Z" id="Path" fill="#043458" fill-rule="nonzero"></path>
                        </g>
                    </g>
                </g>
            </g>
            <g id="Group-7-Copy" transform="translate(413.000000, 38.000000)" fill-rule="nonzero">
                <path d="M48,0 C49.1045695,0 50,0.8954305 50,2 L50,20 C50,21.1045695 49.1045695,22 48,22 L5,22 C3.8954305,22 3,21.1045695 3,20 L3,14 L0,11 L3,8 L3,2 C3,0.8954305 3.8954305,0 5,0 L48,0 Z" id="Bg" fill="#50E3C2"></path>
                <g id="数据" transform="translate(7.000000, 3.000000)" fill="#FFFFFF" font-family="PingFangTC-Regular, PingFang TC" font-size="12" font-weight="normal">
                    <text id="步驟條">
                        <tspan x="0" y="13">步驟條</tspan>
                    </text>
                </g>
            </g>
            <g id="Group-7-Copy" transform="translate(413.000000, 159.000000)" fill-rule="nonzero">
                <path d="M62,0 C63.1045695,0 64,0.8954305 64,2 L64,20 C64,21.1045695 63.1045695,22 62,22 L5,22 C3.8954305,22 3,21.1045695 3,20 L3,14 L0,11 L3,8 L3,2 C3,0.8954305 3.8954305,0 5,0 L62,0 Z" id="Bg" fill="#50E3C2"></path>
                <g id="数据" transform="translate(7.000000, 3.000000)" fill="#FFFFFF" font-family="PingFangTC-Regular, PingFang TC" font-size="12" font-weight="normal">
                    <text id="表單內容">
                        <tspan x="0" y="13">表單內容</tspan>
                    </text>
                </g>
            </g>
            <g id="Group-7-Copy-3" transform="translate(411.000000, 264.000000)" fill-rule="nonzero">
                <path d="M66,0 C67.1045695,0 68,0.8954305 68,2 L68,20 C68,21.1045695 67.1045695,22 66,22 L5,22 C3.8954305,22 3,21.1045695 3,20 L3,14 L0,11 L3,8 L3,2 C3,0.8954305 3.8954305,0 5,0 L66,0 Z" id="Bg" fill="#50E3C2"></path>
                <g id="数据" transform="translate(10.000000, 3.000000)" fill="#FFFFFF" font-family="PingFangTC-Regular, PingFang TC" font-size="12" font-weight="normal">
                    <text id="表單操作">
                        <tspan x="0" y="13">表單操作</tspan>
                    </text>
                </g>
            </g>
        </g>
    </g>
</svg>