<?xml version="1.0" encoding="UTF-8"?>
<svg width="300px" height="200px" viewBox="0 0 300 200" version="1.1" xmlns="http://www.w3.org/2000/svg" xmlns:xlink="http://www.w3.org/1999/xlink">
    <title>empty/type02</title>
    <defs>
        <filter x="-6.5%" y="-9.2%" width="113.0%" height="119.5%" filterUnits="objectBoundingBox" id="filter-1">
            <feOffset dx="0" dy="3" in="SourceAlpha" result="shadowOffsetOuter1"></feOffset>
            <feGaussianBlur stdDeviation="3" in="shadowOffsetOuter1" result="shadowBlurOuter1"></feGaussianBlur>
            <feColorMatrix values="0 0 0 0 0   0 0 0 0 0   0 0 0 0 0  0 0 0 0.2 0" type="matrix" in="shadowBlurOuter1" result="shadowMatrixOuter1"></feColorMatrix>
            <feMerge>
                <feMergeNode in="shadowMatrixOuter1"></feMergeNode>
                <feMergeNode in="SourceGraphic"></feMergeNode>
            </feMerge>
        </filter>
        <path d="M4.36363636,0 L295.636364,0 C298.046333,-4.42704273e-16 300,1.95366655 300,4.36363636 L300,195.636364 C300,198.046333 298.046333,200 295.636364,200 L4.36363636,200 C1.95366655,200 -1.41480833e-15,198.046333 0,195.636364 C0,149.879495 0,104.122627 0,58.3657588 C0,40.3650513 0,22.3643438 0,4.36363636 C-2.95136182e-16,1.95366655 1.95366655,3.99541795e-15 4.36363636,0 Z" id="path-2"></path>
        <filter x="-1.2%" y="-1.2%" width="102.3%" height="103.5%" filterUnits="objectBoundingBox" id="filter-3">
            <feOffset dx="0" dy="1" in="SourceAlpha" result="shadowOffsetOuter1"></feOffset>
            <feGaussianBlur stdDeviation="1" in="shadowOffsetOuter1" result="shadowBlurOuter1"></feGaussianBlur>
            <feColorMatrix values="0 0 0 0 0   0 0 0 0 0   0 0 0 0 0  0 0 0 0.1 0" type="matrix" in="shadowBlurOuter1"></feColorMatrix>
        </filter>
        <path d="M4.36363636,0 L295.636364,0 C298.046333,-4.42704273e-16 300,1.95366655 300,4.36363636 L300,27.2727273 L300,27.2727273 L0,27.2727273 L0,4.36363636 C-2.95136182e-16,1.95366655 1.95366655,4.42704273e-16 4.36363636,0 Z" id="path-4"></path>
        <filter x="-1.2%" y="-9.2%" width="102.3%" height="125.7%" filterUnits="objectBoundingBox" id="filter-5">
            <feOffset dx="0" dy="1" in="SourceAlpha" result="shadowOffsetOuter1"></feOffset>
            <feGaussianBlur stdDeviation="1" in="shadowOffsetOuter1" result="shadowBlurOuter1"></feGaussianBlur>
            <feColorMatrix values="0 0 0 0 0   0 0 0 0 0   0 0 0 0 0  0 0 0 0.1 0" type="matrix" in="shadowBlurOuter1"></feColorMatrix>
        </filter>
        <path d="M6.43945312,3.54971591 L4.06427557,3.54971591 L4.06427557,1.23419744 C4.06427557,1.08579545 3.94421165,0.965731534 3.79580966,0.965731534 L3.79580966,0.965731534 C3.64740767,0.965731534 3.52734375,1.08579545 3.52734375,1.23419744 L3.52734375,3.54971591 L1.2043679,3.54971591 C1.05596591,3.54971591 0.935901989,3.66977983 0.935901989,3.81818182 L0.935901989,3.81818182 C0.935901989,3.96658381 1.05596591,4.08664773 1.2043679,4.08664773 L3.52734375,4.08664773 L3.52734375,6.40962358 C3.52734375,6.55802557 3.64740767,6.67808949 3.79580966,6.67808949 L3.79580966,6.67808949 C3.94421165,6.67808949 4.06427557,6.55802557 4.06427557,6.40962358 L4.06427557,4.08664773 L6.43945312,4.08664773 C6.58785511,4.08664773 6.70791903,3.96658381 6.70791903,3.81818182 L6.70791903,3.81818182 C6.70791903,3.66977983 6.58785511,3.54971591 6.43945312,3.54971591 Z" id="path-6"></path>
        <path d="M1.01010101,7.07070707 C1.5679798,7.07070707 2.02020202,7.52292929 2.02020202,8.08080808 C2.02020202,8.63868687 1.5679798,9.09090909 1.01010101,9.09090909 C0.452222222,9.09090909 0,8.63868687 0,8.08080808 C0,7.52292929 0.452222222,7.07070707 1.01010101,7.07070707 Z M1.01010101,0 C1.5679798,0 2.02020202,0.452222222 2.02020202,1.01010101 L2.02020202,5.05050505 C2.02020202,5.60838384 1.5679798,6.06060606 1.01010101,6.06060606 C0.452222222,6.06060606 0,5.60838384 0,5.05050505 L0,1.01010101 C0,0.452222222 0.452222222,0 1.01010101,0 Z" id="path-8"></path>
    </defs>
    <g id="empty/type02" stroke="none" stroke-width="1" fill="none" fill-rule="evenodd">
        <g id="card/bg/none/basic-copy" filter="url(#filter-1)">
            <g id="card/bg">
                <g id="Rectangle-Copy">
                    <use fill="black" fill-opacity="1" filter="url(#filter-3)" xlink:href="#path-2"></use>
                    <use fill="#FFFFFF" fill-rule="evenodd" xlink:href="#path-2"></use>
                </g>
                <g id="Title">
                    <g id="bg">
                        <use fill="black" fill-opacity="1" filter="url(#filter-5)" xlink:href="#path-4"></use>
                        <use fill="#FFFFFF" fill-rule="evenodd" xlink:href="#path-4"></use>
                    </g>
                    <g id="Group" transform="translate(13.636364, 7.636364)" fill="#2A58AE">
                        <g id="Group" transform="translate(-0.236364, 0.000000)">
                            <text id="區塊標題" font-family="PingFangTC-Semibold, PingFang TC" font-size="8.72727273" font-weight="500" line-spacing="12">
                                <tspan x="7.09090909" y="9">標題</tspan>
                            </text>
                            <rect id="Rectangle" x="0" y="1.63636364" width="2.72727273" height="8.72727273" rx="1.36363636"></rect>
                        </g>
                    </g>
                    <g id="Group" transform="translate(251.090909, 4.909091)">
                        <g id="Button/Primary/Basic/Medium" transform="translate(0.363636, 0.000000)">
                            <rect id="Bg" fill="#2A58AE" x="0" y="0" width="42.5454545" height="17.4545455" rx="2.18181818"></rect>
                            <g id="Group" transform="translate(8.727273, 3.272727)">
                                <g transform="translate(0.000000, 1.636364)" id="Icon/number/Plus-14px">
                                    <mask id="mask-7" fill="white">
                                        <use xlink:href="#path-6"></use>
                                    </mask>
                                    <use id="Mask" fill="#FFFFFF" xlink:href="#path-6"></use>
                                </g>
                                <text id="Text" font-family="PingFangTC-Semibold, PingFang TC" font-size="7.63636364" font-weight="500" fill="#FFFFFF">
                                    <tspan x="9.81818182" y="8">新增</tspan>
                                </text>
                            </g>
                        </g>
                    </g>
                </g>
            </g>
            <g id="必填" transform="translate(115.000000, 84.000000)">
                <ellipse id="Oval" fill="#FEF5F5" fill-rule="nonzero" cx="35" cy="30.4545455" rx="27.2727273" ry="5.55555556"></ellipse>
                <path d="M15.3030303,11.0506061 C15.3030303,10.9260606 15.3490909,10.8058586 15.4322222,10.7131313 L24.9145455,0.151515152 L44.9931313,0.151515152 L54.6969697,10.8584848 L54.6969697,27.4242424 L15.3030303,27.4242424 L15.3030303,11.0506061 Z" id="Path" stroke="#F89FA1" stroke-width="1.01010101" fill="#FFFFFF" fill-rule="nonzero"></path>
                <path d="M15.3030303,11.2626263 L24.0951515,11.2626263 C24.8292929,11.2626263 25.4578788,11.7889899 25.5867677,12.5117172 L26.0261616,14.9751515 C26.2410101,16.179798 27.2885859,17.0570707 28.5122222,17.0570707 L41.6469697,17.0570707 C42.8706061,17.0570707 43.9181818,16.179798 44.1330303,14.9751515 L44.5724242,12.5117172 C44.7013131,11.7889899 45.329899,11.2626263 46.0640404,11.2626263 L54.6969697,11.2626263 L54.6969697,27.9292929 C54.6969697,29.3239394 53.5663636,30.4545455 52.1717172,30.4545455 L17.8282828,30.4545455 C16.4336364,30.4545455 15.3030303,29.3239394 15.3030303,27.9292929 L15.3030303,11.2626263 Z" id="Path" stroke="#F89FA1" stroke-width="1.01010101" fill="#FEF5F5" fill-rule="nonzero"></path>
                <path d="M63.0554545,32.4436364 C63.7028283,33.579798 62.890202,35 61.5972727,35 L44.7662626,35 C43.4707071,35 42.6619192,33.5775758 43.3079798,32.4436364 L51.7236364,17.669899 C52.3713131,16.5332323 53.9935354,16.5352525 54.640101,17.669899 L63.0554545,32.4436364 Z" id="Path" fill="#F23F44"></path>
                <path d="M53.1818182,29.9494949 C53.739697,29.9494949 54.1919192,30.4017172 54.1919192,30.959596 C54.1919192,31.5174747 53.739697,31.969697 53.1818182,31.969697 C52.6239394,31.969697 52.1717172,31.5174747 52.1717172,30.959596 C52.1717172,30.4017172 52.6239394,29.9494949 53.1818182,29.9494949 Z M53.1818182,22.8787879 C53.739697,22.8787879 54.1919192,23.3310101 54.1919192,23.8888889 L54.1919192,27.9292929 C54.1919192,28.4871717 53.739697,28.9393939 53.1818182,28.9393939 C52.6239394,28.9393939 52.1717172,28.4871717 52.1717172,27.9292929 L52.1717172,23.8888889 C52.1717172,23.3310101 52.6239394,22.8787879 53.1818182,22.8787879 Z" id="Shape" fill="#FFFFFF"></path>
                <g id="Clipped" transform="translate(52.171717, 22.878788)">
                    <mask id="mask-9" fill="white">
                        <use xlink:href="#path-8"></use>
                    </mask>
                    <g id="Shape"></g>
                    <path d="M1.01010101,6.06060606 L1.01010101,7.07070707 L1.01010101,6.06060606 Z M1.01010101,8.08080808 L3.03030303,8.08080808 C3.03030303,6.96505051 2.12585859,6.06060606 1.01010101,6.06060606 L1.01010101,8.08080808 Z M1.01010101,8.08080808 L1.01010101,10.1010101 C2.12585859,10.1010101 3.03030303,9.19656566 3.03030303,8.08080808 L1.01010101,8.08080808 Z M1.01010101,8.08080808 L-1.01010101,8.08080808 C-1.01010101,9.19656566 -0.105656566,10.1010101 1.01010101,10.1010101 L1.01010101,8.08080808 Z M1.01010101,8.08080808 L1.01010101,6.06060606 C-0.105656566,6.06060606 -1.01010101,6.96505051 -1.01010101,8.08080808 L1.01010101,8.08080808 Z M1.01010101,1.01010101 L3.03030303,1.01010101 C3.03030303,-0.105656566 2.12585859,-1.01010101 1.01010101,-1.01010101 L1.01010101,1.01010101 Z M1.01010101,1.01010101 L1.01010101,5.05050505 L3.03030303,5.05050505 L3.03030303,1.01010101 L1.01010101,1.01010101 Z M1.01010101,5.05050505 L1.01010101,7.07070707 C2.12585859,7.07070707 3.03030303,6.16626263 3.03030303,5.05050505 L1.01010101,5.05050505 Z M1.01010101,5.05050505 L-1.01010101,5.05050505 C-1.01010101,6.16626263 -0.105656566,7.07070707 1.01010101,7.07070707 L1.01010101,5.05050505 Z M1.01010101,5.05050505 L1.01010101,1.01010101 L-1.01010101,1.01010101 L-1.01010101,5.05050505 L1.01010101,5.05050505 Z M1.01010101,1.01010101 L1.01010101,-1.01010101 C-0.105656566,-1.01010101 -1.01010101,-0.105656566 -1.01010101,1.01010101 L1.01010101,1.01010101 Z" id="Shape" fill="#FFFFFF" fill-rule="nonzero" mask="url(#mask-9)"></path>
                </g>
                <path d="M5.13333333,54.1555556 L5.13333333,48.7252525 L7.15555556,48.7252525 L7.15555556,47.7070707 L5.13333333,47.7070707 L5.13333333,43.379798 L4.08686869,43.379798 L4.08686869,54.3535354 L2.47474747,54.6222222 L2.47474747,46.2222222 L1.45656566,46.2222222 L1.45656566,54.8060606 C1.04646465,54.8767677 0.664646465,54.9333333 0.325252525,54.989899 L0.494949495,56.1070707 C2.27676768,55.7676768 4.83636364,55.3010101 7.24040404,54.8484848 L7.15555556,53.8020202 L5.13333333,54.1555556 Z M9.64444444,54.820202 C9.05050505,54.820202 8.95151515,54.6787879 8.95151515,53.9292929 L8.95151515,49.5737374 C10.3090909,48.9090909 11.7656566,48.0888889 12.840404,47.2828283 L11.9777778,46.4484848 C11.2565657,47.1131313 10.0969697,47.8767677 8.95151515,48.5131313 L8.95151515,43.379798 L7.86262626,43.379798 L7.86262626,53.9010101 C7.86262626,55.4282828 8.21616162,55.8383838 9.51717172,55.8383838 L11.6525253,55.8383838 C12.9111111,55.8383838 13.1939394,55.0464646 13.3212121,52.7838384 C13.0242424,52.6989899 12.6,52.5151515 12.3171717,52.3171717 C12.2464646,54.3111111 12.1616162,54.820202 11.5676768,54.820202 L9.64444444,54.820202 Z M17.2949495,47.3818182 L18.7373737,47.3818182 L18.7373737,46.420202 L17.2949495,46.420202 L17.2949495,43.3656566 L16.3474747,43.3656566 L16.3474747,46.420202 L14.5656566,46.420202 L14.5656566,47.3818182 L16.2484848,47.3818182 C15.8666667,49.2909091 15.0747475,51.5252525 14.2686869,52.6989899 C14.4383838,52.9252525 14.6787879,53.3212121 14.7919192,53.5757576 C15.3717172,52.6707071 15.9232323,51.2282828 16.3474747,49.7292929 L16.3474747,56.2626263 L17.2949495,56.2626263 L17.2949495,49.630303 C17.6909091,50.3373737 18.1575758,51.2424242 18.3555556,51.6949495 L18.8929293,50.9313131 C18.6666667,50.5494949 17.6626263,48.979798 17.2949495,48.4565657 L17.2949495,47.3818182 Z M21.6929293,44.6525253 L21.6929293,45.6 L19.8545455,45.6 L19.8545455,44.6525253 L21.6929293,44.6525253 Z M19.8545455,47.3111111 L19.8545455,46.3212121 L21.6929293,46.3212121 L21.6929293,47.3111111 L19.8545455,47.3111111 Z M22.5272727,48.1171717 L22.5272727,43.8464646 L18.9494949,43.8464646 L18.9494949,56.2909091 L19.8545455,56.2909091 L19.8545455,48.1171717 L22.5272727,48.1171717 Z M24.0828283,47.3111111 L24.0828283,46.3212121 L25.9636364,46.3212121 L25.9636364,47.3111111 L24.0828283,47.3111111 Z M25.9636364,44.6525253 L25.9636364,45.6 L24.0828283,45.6 L24.0828283,44.6525253 L25.9636364,44.6525253 Z M21.4242424,52.0060606 L22.5838384,52.0060606 L22.5838384,52.6424242 L21.4242424,52.6424242 L21.4242424,52.0060606 Z M21.4242424,50.8323232 L22.5838384,50.8323232 L22.5838384,51.440404 L21.4242424,51.440404 L21.4242424,50.8323232 Z M24.4505051,51.440404 L23.2484848,51.440404 L23.2484848,50.8323232 L24.4505051,50.8323232 L24.4505051,51.440404 Z M24.4505051,52.6424242 L23.2484848,52.6424242 L23.2484848,52.0060606 L24.4505051,52.0060606 L24.4505051,52.6424242 Z M26.8969697,43.8464646 L23.2484848,43.8464646 L23.2484848,48.1171717 L25.9636364,48.1171717 L25.9636364,55.2020202 C25.9636364,55.3717172 25.9070707,55.4141414 25.7515152,55.4282828 C25.6525253,55.4282828 25.4262626,55.4282828 25.1292929,55.4282828 C25.2707071,55.2585859 25.4545455,55.0606061 25.610101,54.9474747 C24.9313131,54.5939394 24.1676768,53.9010101 23.6727273,53.2363636 L25.1434343,53.2363636 L25.1434343,50.2383838 L23.2767677,50.2383838 L23.2767677,49.6868687 L25.4545455,49.6868687 L25.4545455,49.0505051 L23.2767677,49.0505051 L23.2767677,48.3575758 L22.5272727,48.3575758 L22.5272727,49.0505051 L20.4343434,49.0505051 L20.4343434,49.6868687 L22.5272727,49.6868687 L22.5272727,50.2383838 L20.7454545,50.2383838 L20.7454545,53.2363636 L22.2020202,53.2363636 C21.6505051,53.9575758 20.830303,54.6646465 20.0666667,55.0181818 C20.2505051,55.159596 20.5050505,55.4282828 20.6181818,55.6121212 C21.2686869,55.2444444 21.9757576,54.6080808 22.5131313,53.9292929 L22.5131313,55.9515152 L23.3050505,55.9515152 L23.3050505,53.8161616 C23.7434343,54.4242424 24.3373737,55.0181818 24.8747475,55.4141414 L24.6767677,55.4141414 C24.8040404,55.6545455 24.9313131,56.0646465 24.9737374,56.3050505 C25.7373737,56.3050505 26.1757576,56.2767677 26.5010101,56.1212121 C26.7979798,55.979798 26.8969697,55.6969697 26.8969697,55.2161616 L26.8969697,43.8464646 Z M32.5818182,46.1373737 L32.5818182,47.1272727 L41.1656566,47.1272727 L41.1656566,46.1373737 L37.3050505,46.1373737 L37.3050505,43.5353535 L36.2444444,43.5353535 L36.2444444,46.1373737 L32.5818182,46.1373737 Z M35.8343434,53.7454545 C35.7070707,52.3454545 35.2262626,49.9414141 34.6888889,48.0747475 L33.7555556,48.2444444 C34.2646465,50.1111111 34.7030303,52.5575758 34.8020202,53.9717172 L35.8343434,53.7454545 Z M31.8747475,43.4080808 C31.0545455,45.5434343 29.6828283,47.6222222 28.2545455,48.9515152 C28.4383838,49.2060606 28.7494949,49.7434343 28.8626263,49.9838384 C29.4,49.4606061 29.9232323,48.8242424 30.4181818,48.1454545 L30.4181818,56.2343434 L31.4080808,56.2343434 L31.4080808,46.6323232 C31.959596,45.6989899 32.4545455,44.7090909 32.8505051,43.7191919 L31.8747475,43.4080808 Z M38.1393939,54.6363636 C38.789899,52.8828283 39.5252525,50.2383838 40.0060606,48.1454545 L38.8747475,47.9474747 C38.5070707,49.9979798 37.7717172,52.8545455 37.1212121,54.6363636 L32.2424242,54.6363636 L32.2424242,55.6262626 L41.5191919,55.6262626 L41.5191919,54.6363636 L38.1393939,54.6363636 Z M50.6969697,46.0242424 C49.8909091,45.359596 48.3494949,44.2141414 47.1616162,43.4222222 L46.4686869,44.1717172 C47.6565657,44.9777778 49.1838384,46.1515152 50.0040404,46.8727273 L50.6969697,46.0242424 Z M44.1919192,47.6363636 C43.9232323,49.1777778 43.3575758,51.0727273 42.579798,52.2888889 L43.5555556,52.6989899 C44.3474747,51.4545455 44.8707071,49.4464646 45.1818182,47.8767677 L44.1919192,47.6363636 Z M48.4909091,55.1313131 C47.6848485,55.1313131 47.5292929,55.0040404 47.5292929,54.3393939 L47.5292929,52.7979798 C50.4141414,50.5494949 52.6767677,47.6787879 54.2747475,44.6525253 L53.2282828,44.2282828 C51.9414141,46.8161616 49.989899,49.3757576 47.5292929,51.4686869 L47.5292929,46.8020202 L46.440404,46.8020202 L46.440404,52.3454545 C45.2525253,53.2363636 43.9656566,54.0141414 42.5939394,54.6363636 C42.8060606,54.8343434 43.1171717,55.2161616 43.2727273,55.4565657 C44.389899,54.9191919 45.4363636,54.2969697 46.440404,53.6181818 L46.440404,54.3252525 C46.440404,55.7818182 46.8787879,56.1636364 48.4060606,56.1636364 L51.2484848,56.1636364 C52.7757576,56.1636364 53.1292929,55.4 53.2848485,52.8969697 C52.9737374,52.8262626 52.5353535,52.6424242 52.2525253,52.430303 C52.1535354,54.6787879 52.0262626,55.1313131 51.2060606,55.1313131 L48.4909091,55.1313131 Z M52.4929293,48.5414141 C53.4262626,49.9414141 54.3737374,51.8363636 54.7414141,53.0808081 L55.7313131,52.6 C55.3494949,51.3555556 54.4020202,49.5030303 53.4262626,48.1171717 L52.4929293,48.5414141 Z M67.4969697,48.0323232 L63.169697,48.0323232 L63.169697,47.1414141 L67.4969697,47.1414141 L67.4969697,48.0323232 Z M67.4969697,49.6161616 L63.169697,49.6161616 L63.169697,48.7111111 L67.4969697,48.7111111 L67.4969697,49.6161616 Z M67.4969697,51.2282828 L63.169697,51.2282828 L63.169697,50.3090909 L67.4969697,50.3090909 L67.4969697,51.2282828 Z M64.7959596,46.4343434 L62.2080808,46.4343434 L62.2080808,51.9494949 L68.4868687,51.9494949 L68.4868687,46.4343434 L65.8,46.4343434 L65.8,45.430303 L69.5757576,45.430303 L69.5757576,44.5393939 L65.8,44.5393939 L65.8,43.3656566 L64.7959596,43.3656566 L64.7959596,44.5393939 L61.1050505,44.5393939 L61.1050505,45.430303 L64.7959596,45.430303 L64.7959596,46.4343434 Z M60.7090909,53.6464646 L69.759596,53.6464646 L69.759596,52.7272727 L60.7090909,52.7272727 L60.7090909,53.6464646 Z M61.2464646,51.1575758 L59.6343434,51.8222222 L59.6343434,47.7919192 L61.1333333,47.7919192 L61.1333333,46.8020202 L59.6343434,46.8020202 L59.6343434,43.5494949 L58.6585859,43.5494949 L58.6585859,46.8020202 L57.0040404,46.8020202 L57.0040404,47.7919192 L58.6585859,47.7919192 L58.6585859,52.2323232 C57.9373737,52.5292929 57.2727273,52.7979798 56.7353535,52.9959596 L57.1454545,54.0424242 C58.3757576,53.5050505 59.9878788,52.7979798 61.4868687,52.1191919 L61.2464646,51.1575758 Z M63.4949495,53.8585859 C62.7313131,54.5232323 61.4727273,55.159596 60.2989899,55.5555556 C60.5252525,55.7252525 60.9070707,56.1070707 61.0767677,56.2909091 C62.2363636,55.810101 63.6080808,55.0181818 64.4565657,54.1979798 L63.4949495,53.8585859 Z M66.0686869,54.3535354 C67.1151515,54.9474747 68.2464646,55.7252525 68.8969697,56.2767677 L69.8585859,55.7535354 C69.1232323,55.1878788 67.8929293,54.410101 66.8040404,53.8161616 L66.0686869,54.3535354 Z" id="Shape" fill="#F23F44" fill-rule="nonzero"></path>
            </g>
        </g>
    </g>
</svg>