<?xml version="1.0" encoding="UTF-8"?>
<svg width="293px" height="274px" viewBox="0 0 293 274" version="1.1" xmlns="http://www.w3.org/2000/svg" xmlns:xlink="http://www.w3.org/1999/xlink">
    <title>登入</title>
    <g id="登入" stroke="none" stroke-width="1" fill="none" fill-rule="evenodd">
        <g>
            <path d="M5.78313253,0 L287.216867,0 C290.410803,-3.17913509e-14 293,2.58919663 293,5.78313253 L293,268.216867 C293,271.410803 290.410803,274 287.216867,274 L5.78313253,274 C2.58919663,274 -1.20433535e-14,271.410803 0,268.216867 L0,102.296507 L0,102.296507 L0,5.78313253 C-3.91144338e-16,2.58919663 2.58919663,1.47489493e-15 5.78313253,0 Z" id="Rectangle" fill="#004477" fill-rule="nonzero"></path>
            <g id="Group-2" transform="translate(30.000000, 30.000000)">
                <g id="page" fill-rule="nonzero">
                    <rect id="Rectangle-Copy-6" fill="#FFFFFF" x="0" y="0" width="155.3375" height="213.253012" rx="5.78313253"></rect>
                    <rect id="Rectangle-Copy-6" fill="#ECEDF1" x="14.365" y="125.433735" width="87.4225" height="14.4578313"></rect>
                    <rect id="Rectangle-Copy-7" fill="#ECEDF1" x="14.365" y="100.13253" width="126.4375" height="14.4578313"></rect>
                    <rect id="Rectangle-40-Copy-13" fill="#004477" x="14.365" y="176.759036" width="126.4375" height="11.5662651" rx="1.44578313"></rect>
                    <path d="M0,67 L39.0118675,67 C42.2058034,67 44.795,69.5891966 44.795,72.7831325 C44.795,75.9770684 42.2058034,78.5662651 39.0118675,78.5662651 L0,78.5662651 L0,78.5662651 L0,67 Z" id="Rectangle-40-Copy-13-Copy" fill="#F5A700"></path>
                    <rect id="Rectangle-Copy-6-Copy-7" fill="#F1F8FE" transform="translate(76.000000, 38.000000) rotate(45.000000) translate(-76.000000, -38.000000) " x="61" y="23" width="30" height="30" rx="4"></rect>
                </g>
                <g id="line+tag" transform="translate(163.337500, 18.000000)">
                    <g id="Group">
                        <g id="tag" transform="translate(10.000000, 10.000000)" fill-rule="nonzero">
                            <path d="M39.8918919,0 C40.5038831,0 41,0.8954305 41,2 L41,20 C41,21.1045695 40.5038831,22 39.8918919,22 L2.77027027,22 C2.15827906,22 1.66216216,21.1045695 1.66216216,20 L1.66216216,14 L0,11 L1.66216216,8 L1.66216216,2 C1.66216216,0.8954305 2.15827906,0 2.77027027,0 L39.8918919,0 Z" id="Bg" fill="#50E3C2"></path>
                            <g id="数据" transform="translate(7.000000, 2.000000)" fill="#FFFFFF" font-family="PingFangTC-Regular, PingFang TC" font-size="12" font-weight="normal">
                                <text id="Logo">
                                    <tspan x="0" y="13">Logo</tspan>
                                </text>
                            </g>
                        </g>
                        <rect id="Rectangle-Copy-2" fill-opacity="0.3" fill="#50E3C2" x="0" y="0" width="2" height="40"></rect>
                    </g>
                    <g id="Group-Copy-2" transform="translate(0.000000, 70.000000)">
                        <g id="tag" transform="translate(10.000000, 29.000000)" fill-rule="nonzero">
                            <path d="M39.8918919,0 C40.5038831,0 41,0.8954305 41,2 L41,20 C41,21.1045695 40.5038831,22 39.8918919,22 L2.77027027,22 C2.15827906,22 1.66216216,21.1045695 1.66216216,20 L1.66216216,14 L0,11 L1.66216216,8 L1.66216216,2 C1.66216216,0.8954305 2.15827906,0 2.77027027,0 L39.8918919,0 Z" id="Bg" fill="#50E3C2"></path>
                            <g id="数据" transform="translate(9.000000, 2.000000)" fill="#FFFFFF" font-family="PingFangTC-Regular, PingFang TC" font-size="12" font-weight="normal">
                                <text id="內容">
                                    <tspan x="0" y="13">內容</tspan>
                                </text>
                            </g>
                        </g>
                        <rect id="Rectangle-Copy-2" fill-opacity="0.3" fill="#50E3C2" x="0" y="0" width="2" height="80"></rect>
                    </g>
                    <g id="Group-Copy" transform="translate(0.000000, 44.000000)">
                        <g id="tag" transform="translate(10.000000, 0.000000)" fill-rule="nonzero">
                            <path d="M57.4054054,0 C58.2860757,0 59,0.8954305 59,2 L59,20 C59,21.1045695 58.2860757,22 57.4054054,22 L3.98648649,22 C3.10581621,22 2.39189189,21.1045695 2.39189189,20 L2.39189189,14 L0,11 L2.39189189,8 L2.39189189,2 C2.39189189,0.8954305 3.10581621,0 3.98648649,0 L57.4054054,0 Z" id="Bg" fill="#50E3C2"></path>
                            <g id="数据" transform="translate(7.000000, 2.000000)" fill="#FFFFFF" font-family="PingFangTC-Regular, PingFang TC" font-size="12" font-weight="normal">
                                <text id="位置標籤">
                                    <tspan x="0" y="13">位置標籤</tspan>
                                </text>
                            </g>
                        </g>
                        <rect id="Rectangle-Copy-2" fill-opacity="0.3" fill="#50E3C2" x="0" y="1" width="2" height="20"></rect>
                    </g>
                    <g id="Group-Copy-3" transform="translate(0.000000, 154.000000)">
                        <g id="tag" transform="translate(10.000000, 0.000000)" fill-rule="nonzero">
                            <path d="M34.0540541,0 C34.5764856,0 35,0.8954305 35,2 L35,20 C35,21.1045695 34.5764856,22 34.0540541,22 L2.36486486,22 C1.84243334,22 1.41891892,21.1045695 1.41891892,20 L1.41891892,14 L0,11 L1.41891892,8 L1.41891892,2 C1.41891892,0.8954305 1.84243334,0 2.36486486,0 L34.0540541,0 Z" id="Bg" fill="#50E3C2"></path>
                            <g id="数据" transform="translate(7.000000, 2.000000)" fill="#FFFFFF" font-family="PingFangTC-Regular, PingFang TC" font-size="12" font-weight="normal">
                                <text id="按鈕">
                                    <tspan x="0" y="13">按鈕</tspan>
                                </text>
                            </g>
                        </g>
                        <rect id="Rectangle-Copy-2" fill-opacity="0.3" fill="#50E3C2" x="0" y="1" width="2" height="20"></rect>
                    </g>
                </g>
            </g>
        </g>
    </g>
</svg>