<?xml version="1.0" encoding="UTF-8"?>
<svg width="300px" height="238px" viewBox="0 0 300 238" version="1.1" xmlns="http://www.w3.org/2000/svg" xmlns:xlink="http://www.w3.org/1999/xlink">
    <title>collapse/rule01</title>
    <defs>
        <filter x="-8.7%" y="-10.5%" width="117.3%" height="121.8%" filterUnits="objectBoundingBox" id="filter-1">
            <feOffset dx="0" dy="4" in="SourceAlpha" result="shadowOffsetOuter1"></feOffset>
            <feGaussianBlur stdDeviation="4" in="shadowOffsetOuter1" result="shadowBlurOuter1"></feGaussianBlur>
            <feColorMatrix values="0 0 0 0 0   0 0 0 0 0   0 0 0 0 0  0 0 0 0.1 0" type="matrix" in="shadowBlurOuter1" result="shadowMatrixOuter1"></feColorMatrix>
            <feMerge>
                <feMergeNode in="shadowMatrixOuter1"></feMergeNode>
                <feMergeNode in="SourceGraphic"></feMergeNode>
            </feMerge>
        </filter>
        <path d="M5.87036282,0 L294.129637,0 C297.371749,-5.95566287e-16 300,2.62825096 300,5.87036282 L300,232.129637 C300,235.371749 297.371749,238 294.129637,238 L5.87036282,238 C2.62825096,238 -1.02610968e-14,235.371749 0,232.129637 C0,177.904842 0,123.680048 0,69.4552529 C0,48.2602896 0,27.0653262 0,5.87036282 C-3.97044191e-16,2.62825096 2.62825096,4.14827997e-15 5.87036282,0 Z" id="path-2"></path>
        <filter x="-1.7%" y="-1.7%" width="103.3%" height="104.2%" filterUnits="objectBoundingBox" id="filter-3">
            <feOffset dx="0" dy="1" in="SourceAlpha" result="shadowOffsetOuter1"></feOffset>
            <feGaussianBlur stdDeviation="1.5" in="shadowOffsetOuter1" result="shadowBlurOuter1"></feGaussianBlur>
            <feColorMatrix values="0 0 0 0 0   0 0 0 0 0   0 0 0 0 0  0 0 0 0.1 0" type="matrix" in="shadowBlurOuter1"></feColorMatrix>
        </filter>
        <path d="M5.87036282,0 L294.129637,0 C297.371749,-3.13826996e-14 300,2.62825096 300,5.87036282 L300,36.6897676 L300,36.6897676 L0,36.6897676 L0,5.87036282 C4.91134228e-16,2.62825096 2.62825096,1.48374471e-15 5.87036282,0 Z" id="path-4"></path>
        <filter x="-1.7%" y="-10.9%" width="103.3%" height="127.3%" filterUnits="objectBoundingBox" id="filter-5">
            <feOffset dx="0" dy="1" in="SourceAlpha" result="shadowOffsetOuter1"></feOffset>
            <feGaussianBlur stdDeviation="1.5" in="shadowOffsetOuter1" result="shadowBlurOuter1"></feGaussianBlur>
            <feColorMatrix values="0 0 0 0 0   0 0 0 0 0   0 0 0 0 0  0 0 0 0.1 0" type="matrix" in="shadowBlurOuter1"></feColorMatrix>
        </filter>
        <path d="M6.91942512,4.03068545 L4.36721099,4.03068545 L4.36721099,1.4014253 C4.36721099,1.23291555 4.23819797,1.09658354 4.07873467,1.09658354 L4.07873467,1.09658354 C3.91927137,1.09658354 3.79025834,1.23291555 3.79025834,1.4014253 L3.79025834,4.03068545 L1.29413683,4.03068545 C1.13467353,4.03068545 1.00566051,4.16701746 1.00566051,4.3355272 L1.00566051,4.3355272 C1.00566051,4.50403695 1.13467353,4.64036896 1.29413683,4.64036896 L3.79025834,4.64036896 L3.79025834,7.27809694 C3.79025834,7.44660669 3.91927137,7.58293869 4.07873467,7.58293869 L4.07873467,7.58293869 C4.23819797,7.58293869 4.36721099,7.44660669 4.36721099,7.27809694 L4.36721099,4.64036896 L6.91942512,4.64036896 C7.07888842,4.64036896 7.20790144,4.50403695 7.20790144,4.3355272 L7.20790144,4.3355272 C7.20790144,4.16701746 7.07888842,4.03068545 6.91942512,4.03068545 Z" id="path-6"></path>
        <path d="M6.91942512,4.03068545 L4.36721099,4.03068545 L4.36721099,1.4014253 C4.36721099,1.23291555 4.23819797,1.09658354 4.07873467,1.09658354 L4.07873467,1.09658354 C3.91927137,1.09658354 3.79025834,1.23291555 3.79025834,1.4014253 L3.79025834,4.03068545 L1.29413683,4.03068545 C1.13467353,4.03068545 1.00566051,4.16701746 1.00566051,4.3355272 L1.00566051,4.3355272 C1.00566051,4.50403695 1.13467353,4.64036896 1.29413683,4.64036896 L3.79025834,4.64036896 L3.79025834,7.27809694 C3.79025834,7.44660669 3.91927137,7.58293869 4.07873467,7.58293869 L4.07873467,7.58293869 C4.23819797,7.58293869 4.36721099,7.44660669 4.36721099,7.27809694 L4.36721099,4.64036896 L6.91942512,4.64036896 C7.07888842,4.64036896 7.20790144,4.50403695 7.20790144,4.3355272 L7.20790144,4.3355272 C7.20790144,4.16701746 7.07888842,4.03068545 6.91942512,4.03068545 Z" id="path-8"></path>
        <path d="M6.91942512,4.03068545 L4.36721099,4.03068545 L4.36721099,1.4014253 C4.36721099,1.23291555 4.23819797,1.09658354 4.07873467,1.09658354 L4.07873467,1.09658354 C3.91927137,1.09658354 3.79025834,1.23291555 3.79025834,1.4014253 L3.79025834,4.03068545 L1.29413683,4.03068545 C1.13467353,4.03068545 1.00566051,4.16701746 1.00566051,4.3355272 L1.00566051,4.3355272 C1.00566051,4.50403695 1.13467353,4.64036896 1.29413683,4.64036896 L3.79025834,4.64036896 L3.79025834,7.27809694 C3.79025834,7.44660669 3.91927137,7.58293869 4.07873467,7.58293869 L4.07873467,7.58293869 C4.23819797,7.58293869 4.36721099,7.44660669 4.36721099,7.27809694 L4.36721099,4.64036896 L6.91942512,4.64036896 C7.07888842,4.64036896 7.20790144,4.50403695 7.20790144,4.3355272 L7.20790144,4.3355272 C7.20790144,4.16701746 7.07888842,4.03068545 6.91942512,4.03068545 Z" id="path-10"></path>
        <path d="M6.91942512,4.03068545 L4.36721099,4.03068545 L4.36721099,1.4014253 C4.36721099,1.23291555 4.23819797,1.09658354 4.07873467,1.09658354 L4.07873467,1.09658354 C3.91927137,1.09658354 3.79025834,1.23291555 3.79025834,1.4014253 L3.79025834,4.03068545 L1.29413683,4.03068545 C1.13467353,4.03068545 1.00566051,4.16701746 1.00566051,4.3355272 L1.00566051,4.3355272 C1.00566051,4.50403695 1.13467353,4.64036896 1.29413683,4.64036896 L3.79025834,4.64036896 L3.79025834,7.27809694 C3.79025834,7.44660669 3.91927137,7.58293869 4.07873467,7.58293869 L4.07873467,7.58293869 C4.23819797,7.58293869 4.36721099,7.44660669 4.36721099,7.27809694 L4.36721099,4.64036896 L6.91942512,4.64036896 C7.07888842,4.64036896 7.20790144,4.50403695 7.20790144,4.3355272 L7.20790144,4.3355272 C7.20790144,4.16701746 7.07888842,4.03068545 6.91942512,4.03068545 Z" id="path-12"></path>
    </defs>
    <g id="collapse/rule01" stroke="none" stroke-width="1" fill="none" fill-rule="evenodd">
        <g id="Group-3" filter="url(#filter-1)">
            <g id="card/bg">
                <g id="Rectangle-Copy">
                    <use fill="black" fill-opacity="1" filter="url(#filter-3)" xlink:href="#path-2"></use>
                    <use fill="#FFFFFF" fill-rule="evenodd" xlink:href="#path-2"></use>
                </g>
                <g id="Title-area/info-Copy">
                    <g id="Rectangle-Copy">
                        <use fill="black" fill-opacity="1" filter="url(#filter-5)" xlink:href="#path-4"></use>
                        <use fill="#FFFFFF" fill-rule="evenodd" xlink:href="#path-4"></use>
                    </g>
                    <g id="Group" transform="translate(18.344884, 10.273135)" fill="#2A58AE">
                        <text id="區塊標題" font-family="PingFangTC-Semibold, PingFang TC" font-size="11.7407256" font-weight="500" line-spacing="16.1434978">
                            <tspan x="9.53933958" y="12">標題</tspan>
                        </text>
                        <rect id="Rectangle" x="0" y="2.20138606" width="3.66897676" height="11.7407256" rx="1.83448838"></rect>
                    </g>
                </g>
            </g>
            <g id="Group-2" transform="translate(15.143498, 57.847534)">
                <path d="M5,-2.84217094e-14 L264.713004,-2.84217094e-14 C266.922143,-2.88275217e-14 268.713004,1.790861 268.713004,4 L268.713004,17.6960294 L268.713004,17.6960294 L1,17.6960294 L1,4 C1,1.790861 2.790861,-2.80158972e-14 5,-2.84217094e-14 Z" id="Rectangle" fill="#E5E5E5"></path>
                <g id="Group-14" transform="translate(1.000000, 25.033983)">
                    <rect id="Rectangle-Copy" fill="#F2F2F2" x="0" y="26.1901235" width="267.713004" height="1.41568235"></rect>
                    <g id="Icon/system/number/Plus-32px" transform="translate(10.717451, 0.000000)">
                        <rect id="Rectangle" stroke="#E5E5E5" x="0.5" y="0.5" width="17.7555399" height="18.8195529" rx="2.20138606"></rect>
                        <g id="Icon/number/Plus-14px" transform="translate(5.274996, 5.574249)">
                            <mask id="mask-7" fill="white">
                                <use xlink:href="#path-6"></use>
                            </mask>
                            <use id="Mask" fill="#7F7F7F" xlink:href="#path-6"></use>
                        </g>
                    </g>
                </g>
                <g id="Group" transform="translate(1.000000, 60.256160)">
                    <g transform="translate(10.717451, 0.000000)" id="Icon/system/number/Plus-32px">
                        <rect id="Rectangle" stroke="#E5E5E5" x="0.5" y="0.5" width="17.7555399" height="18.8195529" rx="2.20138606"></rect>
                        <g id="Icon/number/Plus-14px" transform="translate(5.274996, 5.574249)">
                            <mask id="mask-9" fill="white">
                                <use xlink:href="#path-8"></use>
                            </mask>
                            <use id="Mask" fill="#7F7F7F" xlink:href="#path-8"></use>
                        </g>
                    </g>
                    <rect id="Rectangle-Copy" fill="#F2F2F2" x="0" y="27.8629882" width="267.713004" height="1.46759071"></rect>
                </g>
                <g id="Group" transform="translate(0.856502, 97.152466)">
                    <g transform="translate(10.717451, 0.000000)" id="Icon/system/number/Plus-32px">
                        <rect id="Rectangle" stroke="#E5E5E5" x="0.5" y="0.5" width="17.7555399" height="18.8195529" rx="2.20138606"></rect>
                        <g id="Icon/number/Plus-14px" transform="translate(5.274996, 5.574249)">
                            <mask id="mask-11" fill="white">
                                <use xlink:href="#path-10"></use>
                            </mask>
                            <use id="Mask" fill="#7F7F7F" xlink:href="#path-10"></use>
                        </g>
                    </g>
                    <rect id="Rectangle-Copy" fill="#F2F2F2" x="0" y="27.8629882" width="267.713004" height="1.46759071"></rect>
                </g>
                <g id="Group" transform="translate(0.856502, 134.152466)">
                    <g transform="translate(10.717451, 0.000000)" id="Icon/system/number/Plus-32px">
                        <rect id="Rectangle" stroke="#E5E5E5" x="0.5" y="0.5" width="17.7555399" height="18.8195529" rx="2.20138606"></rect>
                        <g id="Icon/number/Plus-14px" transform="translate(5.274996, 5.574249)">
                            <mask id="mask-13" fill="white">
                                <use xlink:href="#path-12"></use>
                            </mask>
                            <use id="Mask" fill="#7F7F7F" xlink:href="#path-12"></use>
                        </g>
                    </g>
                    <rect id="Rectangle-Copy" fill="#F2F2F2" x="0" y="27.8629882" width="267.713004" height="1.46759071"></rect>
                </g>
            </g>
        </g>
    </g>
</svg>