<?xml version="1.0" encoding="UTF-8"?>
<svg width="420px" height="170px" viewBox="0 0 420 170" version="1.1" xmlns="http://www.w3.org/2000/svg" xmlns:xlink="http://www.w3.org/1999/xlink">
    <title>Radiobox Copy 3</title>
    <g id="XXXGuideline" stroke="none" stroke-width="1" fill="none" fill-rule="evenodd">
        <g id="Guideline_單選" transform="translate(-110.000000, -500.000000)">
            <g id="Group-3-Copy" transform="translate(70.000000, 433.000000)">
                <g id="Radiobox-Copy-3" transform="translate(40.000000, 67.000000)">
                    <rect id="Rectangle" x="0" y="0" width="420" height="170"></rect>
                    <g id="Radio/Default/Normal" transform="translate(20.000000, 90.000000)">
                        <g id="Oval-1" transform="translate(0.000000, 2.000000)" fill="#FFFFFF" stroke="#CCCCCC">
                            <circle cx="8" cy="8" r="7.5"></circle>
                        </g>
                        <text id="Text" font-family="PingFangTC-Regular, PingFang TC" font-size="14" font-weight="normal" line-spacing="22" fill="#545454">
                            <tspan x="24" y="14">未選</tspan>
                        </text>
                    </g>
                    <g id="Radio/Default/Normal" transform="translate(20.000000, 47.000000)">
                        <g id="Oval-1" transform="translate(0.000000, 2.000000)" fill="#FFFFFF" stroke="#CCCCCC">
                            <circle cx="8" cy="8" r="7.5"></circle>
                        </g>
                        <text id="Text" font-family="PingFangTC-Regular, PingFang TC" font-size="14" font-weight="normal" line-spacing="22" fill="#545454">
                            <tspan x="24" y="14">Radiobox</tspan>
                        </text>
                    </g>
                    <text id="font-size:-14px" font-family="PingFangTC-Regular, PingFang TC" font-size="16" font-weight="normal" line-spacing="24" fill="#4C4C4C">
                        <tspan x="125" y="63">font-size: 14px</tspan>
                    </text>
                    <g id="size-width:-Button/Primary/Basic/Medium" transform="translate(20.000000, 22.000000)">
                        <g id="Group" transform="translate(0.000000, 16.500000)" fill="#FF5500" fill-rule="nonzero">
                            <g id="line">
                                <path id="Line" d="M16,9 L15,9 L15,5 L1,5 L1,9 L0,9 L0,0 L1,0 L1,4 L15,4 L15,0 L16,0 L16,9 Z"></path>
                            </g>
                        </g>
                        <g id="Number" transform="translate(-13.500000, -9.000000)">
                            <path d="M2,22 C0.8954305,22 1.3527075e-16,21.1045695 0,20 L0,2 C-1.3527075e-16,0.8954305 0.8954305,2.02906125e-16 2,0 L41,0 C42.1045695,-2.02906125e-16 43,0.8954305 43,2 L43,20 C43,21.1045695 42.1045695,22 41,22 L24.5,22 L21.5,25 L18.5,22 L2,22 Z" id="Bg" fill="#FF5500"></path>
                            <text id="数据" font-family="Menlo-Regular, Menlo" font-size="12" font-weight="normal" fill="#FFFFFF">
                                <tspan x="7.05078125" y="15">16px</tspan>
                            </text>
                        </g>
                    </g>
                    <g id="Radio/Selected/Normal" transform="translate(20.000000, 132.000000)">
                        <g id="Oval-1-Copy" transform="translate(0.000000, 2.000000)" stroke="#004477">
                            <circle cx="8" cy="8" r="7.5"></circle>
                        </g>
                        <text id="Text" font-family="PingFangTC-Regular, PingFang TC" font-size="14" font-weight="normal" line-spacing="22" fill="#545454">
                            <tspan x="24" y="15">未選Hover</tspan>
                        </text>
                    </g>
                    <g id="Radio/Selected/Normal" transform="translate(140.000000, 90.000000)">
                        <g id="Group" transform="translate(0.000000, 2.000000)" fill="#004477">
                            <path d="M8,0 C12.3349143,0 15.8645429,3.45649202 15.9961932,7.75131053 L16,8 C16,12.3349143 12.543508,15.8645429 8.24868947,15.9961932 L8,16 C3.581722,16 0,12.4092877 0,8 C0,3.66508574 3.45649202,0.135457134 7.75131053,0.00380682464 L8,0 Z M8.01530575,0.99988286 L7.78194943,1.00333734 C4.01414418,1.11883296 1,4.2185029 1,8 C1,11.779859 4.00792466,14.8688657 7.74517765,14.9960437 L7.98469425,15.0001171 L8.21805057,14.9966627 C11.9056898,14.8836244 14.8713974,11.912047 14.9960381,8.25477343 L15.0001171,8.01530575 L14.9966627,7.78194943 C14.8836244,4.09431025 11.912047,1.12860263 8.240424,1.00407168 L8.01530575,0.99988286 Z" id="BG"></path>
                            <circle id="Oval-1-Copy-5" cx="8" cy="8" r="4"></circle>
                        </g>
                        <text id="Text" font-family="PingFangTC-Regular, PingFang TC" font-size="14" font-weight="normal" line-spacing="22" fill="#545454">
                            <tspan x="24" y="15">已選</tspan>
                        </text>
                    </g>
                    <g id="Radio/Selected/Normal" transform="translate(260.000000, 90.000000)">
                        <g id="Oval-1-Copy-3" transform="translate(0.000000, 2.000000)" fill="#F2F2F2" stroke="#CCCCCC">
                            <circle cx="8" cy="8" r="7.5"></circle>
                        </g>
                        <text id="Text" font-family="PingFangTC-Regular, PingFang TC" font-size="14" font-weight="normal" line-spacing="22" fill="#545454">
                            <tspan x="24" y="14">未選禁用</tspan>
                        </text>
                    </g>
                    <g id="Radio/Selected/Normal" transform="translate(260.000000, 132.000000)">
                        <g id="Group" transform="translate(0.000000, 2.000000)">
                            <circle id="Oval-1-Copy-4" stroke="#CCCCCC" fill="#F2F2F2" cx="8" cy="8" r="7.5"></circle>
                            <circle id="Oval-1-Copy-5" fill="#B4B4B4" cx="8" cy="8" r="4"></circle>
                        </g>
                        <text id="Text" font-family="PingFangTC-Regular, PingFang TC" font-size="14" font-weight="normal" line-spacing="22" fill="#545454">
                            <tspan x="24" y="14">未選禁用</tspan>
                        </text>
                    </g>
                </g>
            </g>
        </g>
    </g>
</svg>