<?xml version="1.0" encoding="UTF-8"?>
<svg width="402px" height="252px" viewBox="0 0 402 252" version="1.1" xmlns="http://www.w3.org/2000/svg" xmlns:xlink="http://www.w3.org/1999/xlink">
    <title>Group 7 Copy 6</title>
    <defs>
        <rect id="path-1" x="0" y="0" width="400" height="250" rx="8"></rect>
        <path d="M8,0 L322,0 C326.418278,2.96939504e-14 330,3.581722 330,8 L330,44 L330,44 L0,44 L0,8 C-1.42926142e-15,3.581722 3.581722,-7.65539184e-17 8,0 Z" id="path-2"></path>
        <filter x="-0.2%" y="-1.1%" width="100.3%" height="104.5%" filterUnits="objectBoundingBox" id="filter-3">
            <feOffset dx="0" dy="1" in="SourceAlpha" result="shadowOffsetOuter1"></feOffset>
            <feColorMatrix values="0 0 0 0 0   0 0 0 0 0   0 0 0 0 0  0 0 0 0.05 0" type="matrix" in="shadowOffsetOuter1"></feColorMatrix>
        </filter>
    </defs>
    <g id="XXXGuideline" stroke="none" stroke-width="1" fill="none" fill-rule="evenodd">
        <g id="Guideline_單選" transform="translate(-519.000000, -1042.000000)">
            <g id="Group-3-Copy" transform="translate(70.000000, 433.000000)">
                <g id="Group-7-Copy-6" transform="translate(450.000000, 610.000000)">
                    <g id="Rectangle">
                        <use fill="#F5F6F8" xlink:href="#path-1"></use>
                        <rect stroke="#E5E5E5" stroke-width="1" fill-opacity="0.3" fill="#FFFFFF" x="-0.5" y="-0.5" width="401" height="251" rx="8"></rect>
                    </g>
                    <path d="M30,0 L392,0 C396.418278,-8.11624501e-16 400,3.581722 400,8 L400,40 L400,40 L30,40 L30,0 Z" id="Rectangle" fill="#043458"></path>
                    <path d="M8,0 L30,0 L30,0 L30,250 L8,250 C3.581722,250 5.41083001e-16,246.418278 0,242 L0,8 C-5.41083001e-16,3.581722 3.581722,8.11624501e-16 8,0 Z" id="Rectangle" fill="#FFFFFF"></path>
                    <g id="Group-2" transform="translate(50.000000, 60.000000)">
                        <rect id="Rectangle-Copy-6" fill="#FFFFFF" x="0" y="0" width="330" height="170" rx="8"></rect>
                        <g id="Rectangle-Copy-6">
                            <use fill="black" fill-opacity="1" filter="url(#filter-3)" xlink:href="#path-2"></use>
                            <use fill="#FFFFFF" fill-rule="evenodd" xlink:href="#path-2"></use>
                        </g>
                        <g id="Group-3" transform="translate(20.000000, 64.000000)">
                            <rect id="Rectangle-Copy-7" fill="#F1F8FE" x="64" y="3" width="50" height="16"></rect>
                            <g id="Group" transform="translate(38.000000, 3.000000)" fill="#004477">
                                <path d="M8,0 C12.3349143,0 15.8645429,3.45649202 15.9961932,7.75131053 L16,8 C16,12.3349143 12.543508,15.8645429 8.24868947,15.9961932 L8,16 C3.581722,16 0,12.4092877 0,8 C0,3.66508574 3.45649202,0.135457134 7.75131053,0.00380682464 L8,0 Z M8.01530575,0.99988286 L7.78194943,1.00333734 C4.01414418,1.11883296 1,4.2185029 1,8 C1,11.779859 4.00792466,14.8688657 7.74517765,14.9960437 L7.98469425,15.0001171 L8.21805057,14.9966627 C11.9056898,14.8836244 14.8713974,11.912047 14.9960381,8.25477343 L15.0001171,8.01530575 L14.9966627,7.78194943 C14.8836244,4.09431025 11.912047,1.12860263 8.240424,1.00407168 L8.01530575,0.99988286 Z" id="BG"></path>
                                <circle id="Oval-1-Copy-5" cx="8" cy="8" r="4"></circle>
                            </g>
                            <rect id="Rectangle-Copy-7" fill="#F1F8FE" x="150" y="3" width="50" height="16"></rect>
                            <rect id="Rectangle-Copy-9" fill="#F1F8FE" x="150" y="29" width="50" height="16"></rect>
                            <rect id="Rectangle-Copy-11" fill="#F1F8FE" x="64" y="29" width="50" height="16"></rect>
                            <rect id="Rectangle-Copy-8" fill="#F1F8FE" x="236" y="3" width="50" height="16"></rect>
                            <rect id="Rectangle-Copy-10" fill="#F1F8FE" x="236" y="29" width="50" height="16"></rect>
                            <g id="Oval-1" transform="translate(124.000000, 3.000000)" fill="#FFFFFF" stroke="#CCCCCC">
                                <circle cx="8" cy="8" r="7.5"></circle>
                            </g>
                            <g id="Oval-1" transform="translate(124.000000, 29.000000)" fill="#FFFFFF" stroke="#CCCCCC">
                                <circle cx="8" cy="8" r="7.5"></circle>
                            </g>
                            <g id="Oval-1" transform="translate(38.000000, 29.000000)" fill="#FFFFFF" stroke="#CCCCCC">
                                <circle cx="8" cy="8" r="7.5"></circle>
                            </g>
                            <g id="Oval-1" transform="translate(210.000000, 3.000000)" fill="#FFFFFF" stroke="#CCCCCC">
                                <circle cx="8" cy="8" r="7.5"></circle>
                            </g>
                            <g id="Oval-1" transform="translate(210.000000, 29.000000)" fill="#FFFFFF" stroke="#CCCCCC">
                                <circle cx="8" cy="8" r="7.5"></circle>
                            </g>
                            <g id="Radio/Default/Normal" fill="#545454" font-family="PingFangTC-Regular, PingFang TC" font-size="14" font-weight="normal" line-spacing="22">
                                <text id="標題">
                                    <tspan x="0" y="15">標題</tspan>
                                </text>
                            </g>
                        </g>
                    </g>
                    <g id="Radio/Default/Normal" transform="translate(65.000000, 131.000000)"></g>
                </g>
            </g>
        </g>
    </g>
</svg>