<?xml version="1.0" encoding="UTF-8"?>
<svg width="610px" height="180px" viewBox="0 0 610 180" version="1.1" xmlns="http://www.w3.org/2000/svg" xmlns:xlink="http://www.w3.org/1999/xlink">
    <title>card/type_card01</title>
    <defs>
        <path d="M8,0 L542,0 C546.418278,-8.11624501e-16 550,3.581722 550,8 L550,50 L550,50 L0,50 L0,8 C-5.41083001e-16,3.581722 3.581722,8.11624501e-16 8,0 Z" id="path-1"></path>
        <filter x="-1.3%" y="-10.0%" width="102.5%" height="128.0%" filterUnits="objectBoundingBox" id="filter-2">
            <feOffset dx="0" dy="2" in="SourceAlpha" result="shadowOffsetOuter1"></feOffset>
            <feGaussianBlur stdDeviation="2" in="shadowOffsetOuter1" result="shadowBlurOuter1"></feGaussianBlur>
            <feColorMatrix values="0 0 0 0 0   0 0 0 0 0   0 0 0 0 0  0 0 0 0.1 0" type="matrix" in="shadowBlurOuter1"></feColorMatrix>
        </filter>
        <path d="M11.8056641,6.5078125 L7.45117188,6.5078125 L7.45117188,2.26269531 C7.45117188,1.990625 7.23105469,1.77050781 6.95898438,1.77050781 L6.95898438,1.77050781 C6.68691406,1.77050781 6.46679688,1.990625 6.46679688,2.26269531 L6.46679688,6.5078125 L2.20800781,6.5078125 C1.9359375,6.5078125 1.71582031,6.72792969 1.71582031,7 L1.71582031,7 C1.71582031,7.27207031 1.9359375,7.4921875 2.20800781,7.4921875 L6.46679688,7.4921875 L6.46679688,11.7509766 C6.46679688,12.0230469 6.68691406,12.2431641 6.95898438,12.2431641 L6.95898438,12.2431641 C7.23105469,12.2431641 7.45117188,12.0230469 7.45117188,11.7509766 L7.45117188,7.4921875 L11.8056641,7.4921875 C12.0777344,7.4921875 12.2978516,7.27207031 12.2978516,7 L12.2978516,7 C12.2978516,6.72792969 12.0777344,6.5078125 11.8056641,6.5078125 Z" id="path-3"></path>
        <path d="M12.2458984,4.10292969 C12.2458984,4.23417969 12.2021484,4.36679687 12.1146484,4.47753906 L7.45390625,10.2716797 C7.34042969,10.4125 7.16953125,10.4945312 6.98769531,10.4945312 C6.80722656,10.4945312 6.63496094,10.4125 6.52285156,10.2716797 L1.88671875,4.50214844 C1.68027344,4.24511719 1.72128906,3.86914062 1.97832031,3.66269531 C2.23535156,3.45625 2.61132813,3.49726562 2.81777344,3.75429687 L6.9890625,8.94414062 L11.1835938,3.72832031 C11.3900391,3.47128906 11.7660156,3.43027344 12.0230469,3.63671875 C12.1693359,3.75566406 12.2458984,3.92792969 12.2458984,4.10292969 Z" id="path-5"></path>
        <path d="M8,0 L542,0 C546.418278,-8.11624501e-16 550,3.581722 550,8 L550,50 L550,50 L0,50 L0,8 C-5.41083001e-16,3.581722 3.581722,8.11624501e-16 8,0 Z" id="path-7"></path>
        <filter x="-1.3%" y="-10.0%" width="102.5%" height="128.0%" filterUnits="objectBoundingBox" id="filter-8">
            <feOffset dx="0" dy="2" in="SourceAlpha" result="shadowOffsetOuter1"></feOffset>
            <feGaussianBlur stdDeviation="2" in="shadowOffsetOuter1" result="shadowBlurOuter1"></feGaussianBlur>
            <feColorMatrix values="0 0 0 0 0   0 0 0 0 0   0 0 0 0 0  0 0 0 0.1 0" type="matrix" in="shadowBlurOuter1"></feColorMatrix>
        </filter>
    </defs>
    <g id="card/type_card01" stroke="none" stroke-width="1" fill="none" fill-rule="evenodd">
        <path d="M8,0 L602,0 C606.418278,-8.11624501e-16 610,3.581722 610,8 L610,172 C610,176.418278 606.418278,180 602,180 L8,180 C3.581722,180 5.41083001e-16,176.418278 0,172 C0,132.176394 0,92.3527886 0,52.5291829 C0,37.6861219 0,22.843061 0,8 C-5.41083001e-16,3.581722 3.581722,8.11624501e-16 8,0 Z" id="Rectangle-Copy-2" fill="#F2F2F2"></path>
        <g id="Group-4" transform="translate(30.000000, 30.000000)">
            <g id="Group-3" transform="translate(0.000000, 70.000000)">
                <g id="bg">
                    <use fill="black" fill-opacity="1" filter="url(#filter-2)" xlink:href="#path-1"></use>
                    <use fill="#FFFFFF" fill-rule="evenodd" xlink:href="#path-1"></use>
                </g>
                <g id="Group" transform="translate(25.000000, 14.000000)" fill="#2A58AE">
                    <text id="區塊標題" font-family="PingFangTC-Semibold, PingFang TC" font-size="16" font-weight="500" line-spacing="22">
                        <tspan x="13" y="17">標題</tspan>
                    </text>
                    <rect id="Rectangle" x="0" y="3" width="5" height="16" rx="2.5"></rect>
                </g>
                <g id="Button/Primary/Basic/Medium" transform="translate(460.000000, 9.000000)">
                    <rect id="Bg" fill="#2A58AE" x="0" y="0" width="78" height="32" rx="4"></rect>
                    <g id="Group-2" transform="translate(16.000000, 6.000000)">
                        <g id="Icon/number/Plus-14px" transform="translate(0.000000, 3.000000)">
                            <mask id="mask-4" fill="white">
                                <use xlink:href="#path-3"></use>
                            </mask>
                            <use id="Mask" fill="#FFFFFF" xlink:href="#path-3"></use>
                        </g>
                        <text id="Text" font-family="PingFangTC-Semibold, PingFang TC" font-size="14" font-weight="500" fill="#FFFFFF">
                            <tspan x="18" y="15">新增</tspan>
                        </text>
                    </g>
                </g>
                <g id="Select/Medium/Selected-Copy" transform="translate(374.000000, 9.000000)">
                    <path d="M73.9977223,0.5 C74.9652448,0.5 75.8411789,0.891629796 76.4750368,1.52580129 C77.1084351,2.15951285 77.5,3.03534332 77.5,4.0042577 L77.5,4.0042577 L77.5,27.9957423 C77.5,28.9631559 77.1075825,29.8389835 76.4737911,30.4730885 C75.8397148,31.1074785 74.963997,31.5 73.9977223,31.5 L73.9977223,31.5 L4.00227769,31.5 C3.03475524,31.5 2.15882106,31.1083702 1.52496315,30.4741987 C0.891564946,29.8404871 0.5,28.9646567 0.5,27.9957423 L0.5,27.9957423 L0.5,4.0042577 C0.5,3.0368441 0.892417471,2.16101651 1.52620891,1.52691152 C2.1602852,0.892521544 3.03600301,0.5 4.00227769,0.5 L4.00227769,0.5 Z" id="Rectangle-26-Copy-23" stroke="#CCCCCC" fill="#FFFFFF"></path>
                    <g id="Group" transform="translate(54.000000, 9.000000)">
                        <mask id="mask-6" fill="white">
                            <use xlink:href="#path-5"></use>
                        </mask>
                        <use id="Mask" fill="#7F7F7F" xlink:href="#path-5"></use>
                    </g>
                    <text id="Text" font-family="PingFangTC-Semibold, PingFang TC" font-size="14" font-weight="500" line-spacing="22" fill="#545454">
                        <tspan x="10" y="20">匯入</tspan>
                    </text>
                </g>
            </g>
            <g id="Title-area/title">
                <g id="Rectangle-Copy">
                    <use fill="black" fill-opacity="1" filter="url(#filter-8)" xlink:href="#path-7"></use>
                    <use fill="#FFFFFF" fill-rule="evenodd" xlink:href="#path-7"></use>
                </g>
                <g id="Group" transform="translate(25.000000, 14.000000)" fill="#2A58AE">
                    <text id="區塊標題" font-family="PingFangTC-Semibold, PingFang TC" font-size="16" font-weight="500" line-spacing="22">
                        <tspan x="13" y="17">標題</tspan>
                    </text>
                    <rect id="Rectangle" x="0" y="3" width="5" height="16" rx="2.5"></rect>
                </g>
            </g>
        </g>
    </g>
</svg>