<?xml version="1.0" encoding="UTF-8"?>
<svg width="300px" height="200px" viewBox="0 0 300 200" version="1.1" xmlns="http://www.w3.org/2000/svg" xmlns:xlink="http://www.w3.org/1999/xlink">
    <title>card/type01</title>
    <defs>
        <filter x="-6.5%" y="-9.2%" width="113.0%" height="119.5%" filterUnits="objectBoundingBox" id="filter-1">
            <feOffset dx="0" dy="3" in="SourceAlpha" result="shadowOffsetOuter1"></feOffset>
            <feGaussianBlur stdDeviation="3" in="shadowOffsetOuter1" result="shadowBlurOuter1"></feGaussianBlur>
            <feColorMatrix values="0 0 0 0 0   0 0 0 0 0   0 0 0 0 0  0 0 0 0.2 0" type="matrix" in="shadowBlurOuter1" result="shadowMatrixOuter1"></feColorMatrix>
            <feMerge>
                <feMergeNode in="shadowMatrixOuter1"></feMergeNode>
                <feMergeNode in="SourceGraphic"></feMergeNode>
            </feMerge>
        </filter>
        <path d="M4.36363636,0 L295.636364,0 C298.046333,-4.42704273e-16 300,1.95366655 300,4.36363636 L300,195.636364 C300,198.046333 298.046333,200 295.636364,200 L4.36363636,200 C1.95366655,200 -1.41480833e-15,198.046333 0,195.636364 C0,149.879495 0,104.122627 0,58.3657588 C0,40.3650513 0,22.3643438 0,4.36363636 C-2.95136182e-16,1.95366655 1.95366655,3.99541795e-15 4.36363636,0 Z" id="path-2"></path>
        <filter x="-1.2%" y="-1.2%" width="102.3%" height="103.5%" filterUnits="objectBoundingBox" id="filter-3">
            <feOffset dx="0" dy="1" in="SourceAlpha" result="shadowOffsetOuter1"></feOffset>
            <feGaussianBlur stdDeviation="1" in="shadowOffsetOuter1" result="shadowBlurOuter1"></feGaussianBlur>
            <feColorMatrix values="0 0 0 0 0   0 0 0 0 0   0 0 0 0 0  0 0 0 0.1 0" type="matrix" in="shadowBlurOuter1"></feColorMatrix>
        </filter>
        <path d="M4.36363636,0 L295.636364,0 C298.046333,-4.42704273e-16 300,1.95366655 300,4.36363636 L300,27.2727273 L300,27.2727273 L0,27.2727273 L0,4.36363636 C-2.95136182e-16,1.95366655 1.95366655,4.42704273e-16 4.36363636,0 Z" id="path-4"></path>
        <filter x="-1.2%" y="-9.2%" width="102.3%" height="125.7%" filterUnits="objectBoundingBox" id="filter-5">
            <feOffset dx="0" dy="1" in="SourceAlpha" result="shadowOffsetOuter1"></feOffset>
            <feGaussianBlur stdDeviation="1" in="shadowOffsetOuter1" result="shadowBlurOuter1"></feGaussianBlur>
            <feColorMatrix values="0 0 0 0 0   0 0 0 0 0   0 0 0 0 0  0 0 0 0.1 0" type="matrix" in="shadowBlurOuter1"></feColorMatrix>
        </filter>
        <path d="M6.43945312,3.54971591 L4.06427557,3.54971591 L4.06427557,1.23419744 C4.06427557,1.08579545 3.94421165,0.965731534 3.79580966,0.965731534 L3.79580966,0.965731534 C3.64740767,0.965731534 3.52734375,1.08579545 3.52734375,1.23419744 L3.52734375,3.54971591 L1.2043679,3.54971591 C1.05596591,3.54971591 0.935901989,3.66977983 0.935901989,3.81818182 L0.935901989,3.81818182 C0.935901989,3.96658381 1.05596591,4.08664773 1.2043679,4.08664773 L3.52734375,4.08664773 L3.52734375,6.40962358 C3.52734375,6.55802557 3.64740767,6.67808949 3.79580966,6.67808949 L3.79580966,6.67808949 C3.94421165,6.67808949 4.06427557,6.55802557 4.06427557,6.40962358 L4.06427557,4.08664773 L6.43945312,4.08664773 C6.58785511,4.08664773 6.70791903,3.96658381 6.70791903,3.81818182 L6.70791903,3.81818182 C6.70791903,3.66977983 6.58785511,3.54971591 6.43945312,3.54971591 Z" id="path-6"></path>
    </defs>
    <g id="card/type01" stroke="none" stroke-width="1" fill="none" fill-rule="evenodd">
        <g id="Group-27" filter="url(#filter-1)">
            <g id="Rectangle-Copy">
                <use fill="black" fill-opacity="1" filter="url(#filter-3)" xlink:href="#path-2"></use>
                <use fill="#FFFFFF" fill-rule="evenodd" xlink:href="#path-2"></use>
            </g>
            <g id="bg">
                <use fill="black" fill-opacity="1" filter="url(#filter-5)" xlink:href="#path-4"></use>
                <use fill="#FFFFFF" fill-rule="evenodd" xlink:href="#path-4"></use>
            </g>
            <g id="Group" transform="translate(13.636364, 7.636364)" fill="#2A58AE">
                <g id="Group" transform="translate(-0.236364, 0.000000)">
                    <text id="區塊標題" font-family="PingFangTC-Semibold, PingFang TC" font-size="8.72727273" font-weight="500" line-spacing="12">
                        <tspan x="7.09090909" y="9">標題</tspan>
                    </text>
                    <rect id="Rectangle" x="0" y="1.63636364" width="2.72727273" height="8.72727273" rx="1.36363636"></rect>
                </g>
            </g>
            <rect id="Bg" fill="#2A58AE" x="252.545455" y="5.45454545" width="42.5454545" height="17.4545455" rx="2.18181818"></rect>
            <g id="Icon/number/Plus-14px" transform="translate(261.272727, 10.363636)">
                <mask id="mask-7" fill="white">
                    <use xlink:href="#path-6"></use>
                </mask>
                <use id="Mask" fill="#FFFFFF" xlink:href="#path-6"></use>
            </g>
            <text id="Text" font-family="PingFangTC-Semibold, PingFang TC" font-size="7.63636364" font-weight="500" fill="#FFFFFF">
                <tspan x="271.090909" y="16.7272727">新增</tspan>
            </text>
        </g>
    </g>
</svg>