<?xml version="1.0" encoding="UTF-8"?>
<svg width="300px" height="200px" viewBox="0 0 300 200" version="1.1" xmlns="http://www.w3.org/2000/svg" xmlns:xlink="http://www.w3.org/1999/xlink">
    <title>card/type02</title>
    <defs>
        <filter x="-6.5%" y="-9.2%" width="113.0%" height="119.5%" filterUnits="objectBoundingBox" id="filter-1">
            <feOffset dx="0" dy="3" in="SourceAlpha" result="shadowOffsetOuter1"></feOffset>
            <feGaussianBlur stdDeviation="3" in="shadowOffsetOuter1" result="shadowBlurOuter1"></feGaussianBlur>
            <feColorMatrix values="0 0 0 0 0   0 0 0 0 0   0 0 0 0 0  0 0 0 0.2 0" type="matrix" in="shadowBlurOuter1" result="shadowMatrixOuter1"></feColorMatrix>
            <feMerge>
                <feMergeNode in="shadowMatrixOuter1"></feMergeNode>
                <feMergeNode in="SourceGraphic"></feMergeNode>
            </feMerge>
        </filter>
        <path d="M4.36363636,0 L295.636364,0 C298.046333,-4.42704273e-16 300,1.95366655 300,4.36363636 L300,195.636364 C300,198.046333 298.046333,200 295.636364,200 L4.36363636,200 C1.95366655,200 -1.41480833e-15,198.046333 0,195.636364 C0,149.879495 0,104.122627 0,58.3657588 C0,40.3650513 0,22.3643438 0,4.36363636 C-2.95136182e-16,1.95366655 1.95366655,3.99541795e-15 4.36363636,0 Z" id="path-2"></path>
        <filter x="-1.2%" y="-1.2%" width="102.3%" height="103.5%" filterUnits="objectBoundingBox" id="filter-3">
            <feOffset dx="0" dy="1" in="SourceAlpha" result="shadowOffsetOuter1"></feOffset>
            <feGaussianBlur stdDeviation="1" in="shadowOffsetOuter1" result="shadowBlurOuter1"></feGaussianBlur>
            <feColorMatrix values="0 0 0 0 0   0 0 0 0 0   0 0 0 0 0  0 0 0 0.1 0" type="matrix" in="shadowBlurOuter1"></feColorMatrix>
        </filter>
        <path d="M4.36363636,0 L295.636364,0 C298.046333,-4.42704273e-16 300,1.95366655 300,4.36363636 L300,27.2727273 L300,27.2727273 L0,27.2727273 L0,4.36363636 C-2.95136182e-16,1.95366655 1.95366655,4.42704273e-16 4.36363636,0 Z" id="path-4"></path>
        <filter x="-1.2%" y="-9.2%" width="102.3%" height="125.7%" filterUnits="objectBoundingBox" id="filter-5">
            <feOffset dx="0" dy="1" in="SourceAlpha" result="shadowOffsetOuter1"></feOffset>
            <feGaussianBlur stdDeviation="1" in="shadowOffsetOuter1" result="shadowBlurOuter1"></feGaussianBlur>
            <feColorMatrix values="0 0 0 0 0   0 0 0 0 0   0 0 0 0 0  0 0 0 0.1 0" type="matrix" in="shadowBlurOuter1"></feColorMatrix>
        </filter>
        <path d="M6.43945312,3.54971591 L4.06427557,3.54971591 L4.06427557,1.23419744 C4.06427557,1.08579545 3.94421165,0.965731534 3.79580966,0.965731534 L3.79580966,0.965731534 C3.64740767,0.965731534 3.52734375,1.08579545 3.52734375,1.23419744 L3.52734375,3.54971591 L1.2043679,3.54971591 C1.05596591,3.54971591 0.935901989,3.66977983 0.935901989,3.81818182 L0.935901989,3.81818182 C0.935901989,3.96658381 1.05596591,4.08664773 1.2043679,4.08664773 L3.52734375,4.08664773 L3.52734375,6.40962358 C3.52734375,6.55802557 3.64740767,6.67808949 3.79580966,6.67808949 L3.79580966,6.67808949 C3.94421165,6.67808949 4.06427557,6.55802557 4.06427557,6.40962358 L4.06427557,4.08664773 L6.43945312,4.08664773 C6.58785511,4.08664773 6.70791903,3.96658381 6.70791903,3.81818182 L6.70791903,3.81818182 C6.70791903,3.66977983 6.58785511,3.54971591 6.43945312,3.54971591 Z" id="path-6"></path>
    </defs>
    <g id="card/type02" stroke="none" stroke-width="1" fill="none" fill-rule="evenodd">
        <g id="card/bg/none/basic" filter="url(#filter-1)">
            <g id="card/bg">
                <g id="Rectangle-Copy">
                    <use fill="black" fill-opacity="1" filter="url(#filter-3)" xlink:href="#path-2"></use>
                    <use fill="#FFFFFF" fill-rule="evenodd" xlink:href="#path-2"></use>
                </g>
                <g id="Title">
                    <g id="bg">
                        <use fill="black" fill-opacity="1" filter="url(#filter-5)" xlink:href="#path-4"></use>
                        <use fill="#FFFFFF" fill-rule="evenodd" xlink:href="#path-4"></use>
                    </g>
                    <g id="Group" transform="translate(13.636364, 7.636364)" fill="#2A58AE">
                        <g id="Group" transform="translate(-0.236364, 0.000000)">
                            <text id="區塊標題" font-family="PingFangTC-Semibold, PingFang TC" font-size="8.72727273" font-weight="500" line-spacing="12">
                                <tspan x="7.09090909" y="9">標題</tspan>
                            </text>
                            <rect id="Rectangle" x="0" y="1.63636364" width="2.72727273" height="8.72727273" rx="1.36363636"></rect>
                        </g>
                    </g>
                    <g id="Group" transform="translate(251.090909, 4.909091)">
                        <g id="Button/Primary/Basic/Medium" transform="translate(0.363636, 0.000000)">
                            <rect id="Bg" fill="#2A58AE" x="0" y="0" width="42.5454545" height="17.4545455" rx="2.18181818"></rect>
                            <g id="Group" transform="translate(8.727273, 3.272727)">
                                <g transform="translate(0.000000, 1.636364)" id="Icon/number/Plus-14px">
                                    <mask id="mask-7" fill="white">
                                        <use xlink:href="#path-6"></use>
                                    </mask>
                                    <use id="Mask" fill="#FFFFFF" xlink:href="#path-6"></use>
                                </g>
                                <text id="Text" font-family="PingFangTC-Semibold, PingFang TC" font-size="7.63636364" font-weight="500" fill="#FFFFFF">
                                    <tspan x="9.81818182" y="8">新增</tspan>
                                </text>
                            </g>
                        </g>
                    </g>
                </g>
            </g>
            <g id="Icon/other/Empty/text" transform="translate(121.000000, 74.000000)">
                <g transform="translate(0.519481, 0.633609)">
                    <g id="Group" transform="translate(0.818182, 0.000000)">
                        <g id="Group-38" transform="translate(0.991736, 0.000000)">
                            <ellipse id="Oval" fill-opacity="0.4" fill="#F2F2F2" cx="26.7768595" cy="30.2479339" rx="26.7768595" ry="5.45454545"></ellipse>
                            <g id="Group-36" transform="translate(6.942149, 0.000000)" stroke="#D9D9D9" stroke-width="0.991735537">
                                <path d="M29.6461746,0.495867769 L39.1735537,11.0081633 L39.1735537,27.2727273 L0.495867769,27.2727273 L0.495867769,11.1967645 L9.9326022,0.495867769 L29.6461746,0.495867769 Z" id="Path" fill="#FFFFFF"></path>
                                <path d="M9.12815297,11.4049587 C9.48856049,11.4049587 9.82304033,11.5341522 10.0832396,11.7520476 C10.3434389,11.969943 10.5293577,12.2765404 10.592643,12.6313481 L10.592643,12.6313481 L11.0240497,15.0500212 C11.1295252,15.6413675 11.4393898,16.1523631 11.8730553,16.5155221 C12.3067208,16.8786812 12.8641872,17.0940037 13.4648664,17.0940037 L13.4648664,17.0940037 L26.3608682,17.0940037 C26.9615474,17.0940037 27.5190138,16.8786812 27.9526793,16.5155221 C28.3863448,16.1523631 28.6962094,15.6413675 28.8016849,15.0500212 L28.8016849,15.0500212 L29.2330916,12.6313481 C29.2963769,12.2765404 29.4822957,11.969943 29.7424949,11.7520476 C30.0026942,11.5341522 30.3371741,11.4049587 30.6975816,11.4049587 L30.6975816,11.4049587 L39.1735537,11.4049587 L39.1735537,27.768595 C39.1735537,28.4532456 38.8960443,29.0730803 38.4473722,29.5217524 C37.9987001,29.9704244 37.3788654,30.2479339 36.6942149,30.2479339 L36.6942149,30.2479339 L2.97520661,30.2479339 C2.2905561,30.2479339 1.67072138,29.9704244 1.2220493,29.5217524 C0.773377221,29.0730803 0.495867769,28.4532456 0.495867769,27.768595 L0.495867769,27.768595 L0.495867769,11.4049587 Z" id="Path-2" fill="#FAFAFA"></path>
                            </g>
                        </g>
                    </g>
                    <text id="無此資料" font-family="PingFangTC-Regular, PingFang TC" font-size="13.8842975" font-weight="normal" line-spacing="21.8181818" fill="#B4B4B4">
                        <tspan x="1.23140496" y="60">無此資料</tspan>
                    </text>
                </g>
            </g>
        </g>
    </g>
</svg>