<?xml version="1.0" encoding="UTF-8"?>
<svg width="740px" height="627px" viewBox="0 0 740 627" version="1.1" xmlns="http://www.w3.org/2000/svg" xmlns:xlink="http://www.w3.org/1999/xlink">
    <title>menu01</title>
    <defs>
        <filter x="-6.7%" y="-5.5%" width="113.3%" height="110.9%" filterUnits="objectBoundingBox" id="filter-1">
            <feOffset dx="0" dy="2" in="SourceAlpha" result="shadowOffsetOuter1"></feOffset>
            <feGaussianBlur stdDeviation="2" in="shadowOffsetOuter1" result="shadowBlurOuter1"></feGaussianBlur>
            <feColorMatrix values="0 0 0 0 0   0 0 0 0 0   0 0 0 0 0  0 0 0 0.1 0" type="matrix" in="shadowBlurOuter1" result="shadowMatrixOuter1"></feColorMatrix>
            <feMerge>
                <feMergeNode in="shadowMatrixOuter1"></feMergeNode>
                <feMergeNode in="SourceGraphic"></feMergeNode>
            </feMerge>
        </filter>
        <rect id="path-2" x="0" y="0" width="80" height="500"></rect>
        <filter x="-8.8%" y="-1.0%" width="117.5%" height="102.8%" filterUnits="objectBoundingBox" id="filter-3">
            <feOffset dx="0" dy="2" in="SourceAlpha" result="shadowOffsetOuter1"></feOffset>
            <feGaussianBlur stdDeviation="2" in="shadowOffsetOuter1" result="shadowBlurOuter1"></feGaussianBlur>
            <feColorMatrix values="0 0 0 0 0   0 0 0 0 0   0 0 0 0 0  0 0 0 0.1 0" type="matrix" in="shadowBlurOuter1"></feColorMatrix>
        </filter>
        <rect id="path-4" x="0" y="0" width="80" height="65"></rect>
        <filter x="-0.6%" y="-0.8%" width="101.2%" height="101.5%" filterUnits="objectBoundingBox" id="filter-5">
            <feOffset dx="0" dy="-1" in="SourceAlpha" result="shadowOffsetInner1"></feOffset>
            <feComposite in="shadowOffsetInner1" in2="SourceAlpha" operator="arithmetic" k2="-1" k3="1" result="shadowInnerInner1"></feComposite>
            <feColorMatrix values="0 0 0 0 0.898039216   0 0 0 0 0.898039216   0 0 0 0 0.898039216  0 0 0 1 0" type="matrix" in="shadowInnerInner1"></feColorMatrix>
        </filter>
        <rect id="path-6" x="0" y="0" width="80" height="65"></rect>
        <filter x="-0.6%" y="-0.8%" width="101.2%" height="101.5%" filterUnits="objectBoundingBox" id="filter-7">
            <feOffset dx="0" dy="-1" in="SourceAlpha" result="shadowOffsetInner1"></feOffset>
            <feComposite in="shadowOffsetInner1" in2="SourceAlpha" operator="arithmetic" k2="-1" k3="1" result="shadowInnerInner1"></feComposite>
            <feColorMatrix values="0 0 0 0 0.898039216   0 0 0 0 0.898039216   0 0 0 0 0.898039216  0 0 0 1 0" type="matrix" in="shadowInnerInner1"></feColorMatrix>
        </filter>
        <rect id="path-8" x="0" y="0" width="80" height="65"></rect>
        <filter x="-0.6%" y="-0.8%" width="101.2%" height="101.5%" filterUnits="objectBoundingBox" id="filter-9">
            <feOffset dx="0" dy="-1" in="SourceAlpha" result="shadowOffsetInner1"></feOffset>
            <feComposite in="shadowOffsetInner1" in2="SourceAlpha" operator="arithmetic" k2="-1" k3="1" result="shadowInnerInner1"></feComposite>
            <feColorMatrix values="0 0 0 0 0.898039216   0 0 0 0 0.898039216   0 0 0 0 0.898039216  0 0 0 1 0" type="matrix" in="shadowInnerInner1"></feColorMatrix>
        </filter>
        <rect id="path-10" x="0" y="0" width="80" height="65"></rect>
        <filter x="-0.6%" y="-0.8%" width="101.2%" height="101.5%" filterUnits="objectBoundingBox" id="filter-11">
            <feOffset dx="0" dy="-1" in="SourceAlpha" result="shadowOffsetInner1"></feOffset>
            <feComposite in="shadowOffsetInner1" in2="SourceAlpha" operator="arithmetic" k2="-1" k3="1" result="shadowInnerInner1"></feComposite>
            <feColorMatrix values="0 0 0 0 0.898039216   0 0 0 0 0.898039216   0 0 0 0 0.898039216  0 0 0 1 0" type="matrix" in="shadowInnerInner1"></feColorMatrix>
        </filter>
        <rect id="path-12" x="0" y="0" width="80" height="65"></rect>
        <filter x="-0.6%" y="-0.8%" width="101.2%" height="101.5%" filterUnits="objectBoundingBox" id="filter-13">
            <feOffset dx="0" dy="-1" in="SourceAlpha" result="shadowOffsetInner1"></feOffset>
            <feComposite in="shadowOffsetInner1" in2="SourceAlpha" operator="arithmetic" k2="-1" k3="1" result="shadowInnerInner1"></feComposite>
            <feColorMatrix values="0 0 0 0 0.898039216   0 0 0 0 0.898039216   0 0 0 0 0.898039216  0 0 0 1 0" type="matrix" in="shadowInnerInner1"></feColorMatrix>
        </filter>
    </defs>
    <g id="XXXGuideline" stroke="none" stroke-width="1" fill="none" fill-rule="evenodd">
        <g id="menu01">
            <g id="btn-copy-3">
                <rect id="Rectangle" x="0" y="0" width="740" height="627"></rect>
            </g>
            <g id="click" filter="url(#filter-1)" transform="translate(110.000000, 253.000000)">
                <path d="M176,0.5 C176.966498,0.5 177.841498,0.891750844 178.474874,1.52512627 C179.108249,2.15850169 179.5,3.03350169 179.5,4 L179.5,4 L179.5,216 C179.5,216.966498 179.108249,217.841498 178.474874,218.474874 C177.841498,219.108249 176.966498,219.5 176,219.5 L176,219.5 L10,219.5 C9.03350169,219.5 8.15850169,219.108249 7.52512627,218.474874 C6.89175084,217.841498 6.5,216.966498 6.5,216 L6.5,216 L6.5,41.7928932 L0.707106781,36 L6.5,30.2071068 L6.5,4 C6.5,3.03350169 6.89175084,2.15850169 7.52512627,1.52512627 C8.15850169,0.891750844 9.03350169,0.5 10,0.5 L10,0.5 Z" id="Combined-Shape" stroke="#E5E5E5" fill="#FFFFFF"></path>
                <g id="Group-3" transform="translate(6.000000, 75.000000)">
                    <rect id="Rectangle" fill="#FFFFFF" x="0" y="0" width="174" height="35"></rect>
                    <text id="二級選單" font-family="PingFangTC-Regular, PingFang TC" font-size="14" font-weight="normal" fill="#7F7F7F">
                        <tspan x="10" y="23">二級選單</tspan>
                    </text>
                </g>
                <g id="Group-3-Copy-3" transform="translate(6.000000, 40.000000)">
                    <rect id="Rectangle" fill="#FFFFFF" x="0" y="0" width="174" height="35"></rect>
                    <text id="二級選單" font-family="PingFangTC-Regular, PingFang TC" font-size="14" font-weight="normal" fill="#7F7F7F">
                        <tspan x="10" y="23">二級選單</tspan>
                    </text>
                </g>
                <g id="Group-3-Copy-2" transform="translate(6.000000, 110.000000)">
                    <rect id="Rectangle" fill="#FFFFFF" x="0" y="0" width="174" height="35"></rect>
                    <text id="二級選單" font-family="PingFangTC-Regular, PingFang TC" font-size="14" font-weight="normal" fill="#7F7F7F">
                        <tspan x="10" y="23">二級選單</tspan>
                    </text>
                </g>
                <g id="Group-3" transform="translate(6.000000, 6.000000)">
                    <rect id="Rectangle" fill="#F1F8FE" x="0" y="0" width="174" height="35"></rect>
                    <text id="二級選單" font-family="PingFangTC-Regular, PingFang TC" font-size="14" font-weight="normal" line-spacing="22" fill="#004477">
                        <tspan x="10" y="22">二級選單</tspan>
                    </text>
                </g>
                <g id="Group-3" transform="translate(6.000000, 145.000000)">
                    <rect id="Rectangle" fill="#FFFFFF" x="0" y="0" width="174" height="35"></rect>
                    <text id="二級選單" font-family="PingFangTC-Regular, PingFang TC" font-size="14" font-weight="normal" fill="#7F7F7F">
                        <tspan x="10" y="23">二級選單</tspan>
                    </text>
                </g>
                <g id="Group-3" transform="translate(6.000000, 180.000000)">
                    <rect id="Rectangle" fill="#FFFFFF" x="0" y="0" width="174" height="35"></rect>
                    <text id="二級選單" font-family="PingFangTC-Regular, PingFang TC" font-size="14" font-weight="normal" fill="#7F7F7F">
                        <tspan x="10" y="23">二級選單</tspan>
                    </text>
                </g>
                <path d="M176,0.5 C176.966498,0.5 177.841498,0.891750844 178.474874,1.52512627 C179.108249,2.15850169 179.5,3.03350169 179.5,4 L179.5,4 L179.5,216 C179.5,216.966498 179.108249,217.841498 178.474874,218.474874 C177.841498,219.108249 176.966498,219.5 176,219.5 L176,219.5 L10,219.5 C9.03350169,219.5 8.15850169,219.108249 7.52512627,218.474874 C6.89175084,217.841498 6.5,216.966498 6.5,216 L6.5,216 L6.5,41.7928932 L0.707106781,36 L6.5,30.2071068 L6.5,4 C6.5,3.03350169 6.89175084,2.15850169 7.52512627,1.52512627 C8.15850169,0.891750844 9.03350169,0.5 10,0.5 L10,0.5 Z" id="Combined-Shape" stroke="#E5E5E5"></path>
            </g>
            <g id="Side-Menu/首頁-Copy" transform="translate(30.000000, 40.000000)">
                <g id="bg">
                    <use fill="black" fill-opacity="1" filter="url(#filter-3)" xlink:href="#path-2"></use>
                    <use fill="#FFFFFF" fill-rule="evenodd" xlink:href="#path-2"></use>
                </g>
                <g id="Group" transform="translate(22.000000, 26.000000)" fill-rule="nonzero">
                    <g id="logo" transform="translate(0.000000, 1.440000)">
                        <path d="M20.3225806,3.71612903 L26.1290323,6.96774194 C26.2451613,6.96774194 26.3612903,7.08387097 26.3612903,7.08387097 C26.5935484,7.08387097 26.7096774,6.96774194 26.8258065,6.73548387 L27.6387097,5.34193548 C27.7548387,5.22580645 27.7548387,4.99354839 27.6387097,4.87741935 C27.6387097,4.76129032 27.5225806,4.64516129 27.4064516,4.52903226 L21.716129,1.27741935 C21.483871,1.16129032 21.1354839,1.16129032 20.9032258,1.50967742 L20.0903226,2.90322581 C19.9741935,3.13548387 20.0903226,3.48387097 20.3225806,3.71612903 Z" id="Path" fill="#004477"></path>
                        <path d="M8.59354839,9.87096774 C9.29032258,9.87096774 9.87096774,9.98709677 10.3354839,10.2193548 C10.4516129,10.3354839 10.5677419,10.4516129 10.683871,10.4516129 C12.6580645,11.7290323 11.4967742,15.6774194 11.4967742,15.6774194 C12.6580645,13.4709677 14.8645161,11.6129032 15.6774194,10.683871 C16.4903226,9.87096774 17.0709677,9.40645161 17.4193548,9.40645161 C17.5354839,9.40645161 17.7677419,9.52258065 18.2322581,9.63870968 C18.5806452,9.75483871 19.0451613,9.98709677 19.2774194,10.2193548 C19.5096774,10.3354839 19.7419355,10.5677419 19.7419355,10.683871 C19.8580645,10.8 19.8580645,11.0322581 19.8580645,11.2645161 C19.8580645,11.6129032 19.6258065,12.5419355 19.0451613,14.0516129 L18.9290323,14.516129 C20.4387097,12.7741935 21.483871,11.4967742 22.2967742,10.683871 C23.1096774,9.87096774 23.5741935,9.52258065 23.9225806,9.52258065 C24.0387097,9.52258065 24.3870968,9.63870968 24.7354839,9.75483871 C25.083871,9.87096774 25.4322581,10.1032258 25.7806452,10.3354839 C26.0129032,10.4516129 26.1290323,10.5677419 26.1290323,10.8 C26.2451613,10.916129 26.2451613,11.1483871 26.2451613,11.4967742 C26.2451613,11.9612903 26.1290323,12.6580645 25.8967742,13.9354839 C25.6645161,15.0967742 25.316129,16.3741935 24.9677419,17.7677419 C24.8516129,18.2322581 24.7354839,18.6967742 24.5032258,19.2774194 L24.5032258,19.2774194 L24.5032258,19.2774194 C24.5032258,19.5096774 24.3870968,19.6258065 24.2709677,19.8580645 C24.1548387,20.3225806 24.1548387,20.9032258 24.3870968,21.1354839 C24.8516129,21.483871 26.1290323,22.7612903 29.3806452,19.2774194 C31.5870968,16.9548387 32.6322581,15.7935484 33.0967742,15.3290323 C33.3290323,14.1677419 32.8645161,12.8903226 31.8193548,12.1935484 L28.3354839,10.2193548 L29.4967742,8.01290323 C29.6129032,7.89677419 29.6129032,7.78064516 29.6129032,7.66451613 L29.4967742,5.80645161 C29.4967742,5.57419355 29.2645161,5.34193548 29.0322581,5.34193548 C28.8,5.34193548 28.5677419,5.45806452 28.4516129,5.57419355 L26.4774194,9.05806452 L18.5806452,4.52903226 L20.3225806,1.27741935 C20.4387097,1.04516129 20.4387097,0.812903226 20.2064516,0.580645161 C20.0903226,0.348387097 19.7419355,0.348387097 19.5096774,0.464516129 L17.7677419,1.16129032 C17.6516129,1.16129032 17.5354839,1.27741935 17.4193548,1.39354839 L16.6064516,3.48387097 L13.8193548,1.85806452 C12.5419355,1.04516129 10.8,1.50967742 9.98709677,2.90322581 L6.27096774,9.17419355 L4.76129032,11.8451613 C6.8516129,9.75483871 8.59354839,9.87096774 8.59354839,9.87096774 Z" id="Path" fill="#004477"></path>
                        <path d="M19.2774194,26.4774194 C16.7225806,27.4064516 14.283871,28.4516129 12.7741935,29.0322581 L19.8580645,33.0967742 C20.6709677,33.5612903 21.6,33.5612903 22.4129032,33.2129032 C22.8774194,32.9806452 23.2258065,32.7483871 23.4580645,32.283871 L25.316129,29.0322581 L26.0129032,27.8709677 C25.316129,27.2903226 22.6451613,25.2 19.2774194,26.4774194 Z" id="Path" fill="#F5A700"></path>
                        <path d="M30.5419355,20.2064516 C30.5419355,20.2064516 30.5419355,20.2064516 30.5419355,20.2064516 L30.5419355,20.2064516 L30.5419355,20.2064516 C30.5419355,20.3225806 30.5419355,20.3225806 30.5419355,20.2064516 L30.5419355,20.2064516 C28.5677419,22.2967742 26.1290323,24.3870968 23.6903226,25.083871 L23.6903226,25.083871 C23.3419355,25.2 22.9935484,25.316129 22.5290323,25.316129 C21.8322581,25.316129 21.3677419,25.083871 20.7870968,24.5032258 C20.3225806,23.9225806 20.0903226,23.3419355 20.0903226,22.5290323 C20.0903226,21.6 20.3225806,20.3225806 20.7870968,18.6967742 C21.2516129,16.9548387 21.9483871,15.0967742 22.8774194,13.0064516 C21.3677419,14.4 20.0903226,15.6774194 19.1612903,17.0709677 C18.2322581,18.4645161 17.5354839,20.0903226 16.9548387,21.9483871 C16.7225806,22.6451613 16.6064516,23.3419355 16.3741935,24.1548387 C16.1419355,24.9677419 16.0258065,25.316129 15.9096774,25.316129 C15.7935484,25.316129 15.5612903,25.2 15.3290323,25.083871 C14.9806452,24.9677419 14.7483871,24.7354839 14.283871,24.5032258 C13.9354839,24.2709677 13.5870968,24.0387097 13.4709677,23.9225806 C13.3548387,23.8064516 13.2387097,23.5741935 13.2387097,23.4580645 C13.2387097,22.6451613 13.5870968,21.2516129 14.1677419,19.1612903 C14.7483871,17.0709677 15.5612903,14.8645161 16.4903226,12.6580645 C14.9806452,14.0516129 13.8193548,15.4451613 12.8903226,16.8387097 C11.9612903,18.2322581 11.2645161,19.8580645 10.8,21.483871 C10.5677419,22.2967742 10.4516129,23.1096774 10.2193548,23.9225806 C10.1032258,24.8516129 9.98709677,25.2 9.75483871,25.2 C9.63870968,25.2 9.40645161,25.083871 8.94193548,24.9677419 C8.59354839,24.8516129 8.24516129,24.6193548 7.78064516,24.3870968 C7.5483871,24.2709677 7.31612903,24.0387097 7.2,23.9225806 C7.08387097,23.6903226 7.08387097,23.4580645 7.08387097,23.1096774 C7.08387097,22.4129032 7.08387097,21.716129 7.2,20.9032258 L7.2,20.9032258 C7.78064516,17.5354839 9.05806452,15.9096774 9.29032258,14.4 C9.52258065,12.8903226 8.70967742,12.1935484 8.70967742,12.1935484 L8.70967742,12.1935484 C8.12903226,11.6129032 6.96774194,11.2645161 4.52903226,12.5419355 C3.36774194,13.2387097 3.13548387,13.8193548 2.78709677,14.0516129 L2.32258065,16.1419355 L2.32258065,16.1419355 L1.04516129,18.3483871 C1.04516129,18.4645161 0.929032258,18.4645161 0.929032258,18.5806452 C0.812903226,18.9290323 0.580645161,19.1612903 0.464516129,19.5096774 C0.348387097,19.7419355 0.348387097,19.9741935 0.348387097,20.2064516 C0.348387097,20.3225806 0.348387097,20.4387097 0.348387097,20.5548387 C0.464516129,21.483871 0.929032258,22.2967742 1.74193548,22.7612903 L12.7741935,29.0322581 C14.283871,28.4516129 16.7225806,27.5225806 19.2774194,26.4774194 C22.6451613,25.2 25.316129,27.2903226 26.1290323,27.8709677 L26.3612903,27.5225806 L26.3612903,27.5225806 L26.3612903,27.5225806 L27.7548387,25.2 L28.5677419,24.0387097 C28.5677419,24.0387097 31.4709677,21.483871 33.5612903,17.883871 C34.0258065,16.9548387 34.6064516,16.0258065 35.3032258,14.8645161 L35.3032258,13.8193548 C35.1870968,13.8193548 33.3290323,17.4193548 30.5419355,20.2064516 Z" id="Path" fill="#004477"></path>
                    </g>
                </g>
                <g id="workTool/menu/mini/option-active" transform="translate(0.000000, 214.000000)">
                    <rect id="Rectangle" fill="#FEF4F1" x="0" y="0" width="80" height="65"></rect>
                    <rect id="Rectangle" fill="#F1F8FE" x="0" y="0" width="80" height="65"></rect>
                    <g id="Icon/shopping" transform="translate(27.000000, 10.000000)" fill="#004477">
                        <path d="M10.75,2.41666667 L2.83333333,2.41666667 C2.60416667,2.41666667 2.41666667,2.60416667 2.41666667,2.83333333 L2.41666667,10.75 C2.41666667,10.9791667 2.60416667,11.1666667 2.83333333,11.1666667 L10.75,11.1666667 C10.9791667,11.1666667 11.1666667,10.9791667 11.1666667,10.75 L11.1666667,2.83333333 C11.1666667,2.60416667 10.9791667,2.41666667 10.75,2.41666667 Z M9.39583333,9.39583333 L4.1875,9.39583333 L4.1875,4.1875 L9.39583333,4.1875 L9.39583333,9.39583333 Z M21.1666667,2.41666667 L13.25,2.41666667 C13.0208333,2.41666667 12.8333333,2.60416667 12.8333333,2.83333333 L12.8333333,10.75 C12.8333333,10.9791667 13.0208333,11.1666667 13.25,11.1666667 L21.1666667,11.1666667 C21.3958333,11.1666667 21.5833333,10.9791667 21.5833333,10.75 L21.5833333,2.83333333 C21.5833333,2.60416667 21.3958333,2.41666667 21.1666667,2.41666667 Z M19.8125,9.39583333 L14.6041667,9.39583333 L14.6041667,4.1875 L19.8125,4.1875 L19.8125,9.39583333 Z M10.75,12.8333333 L2.83333333,12.8333333 C2.60416667,12.8333333 2.41666667,13.0208333 2.41666667,13.25 L2.41666667,21.1666667 C2.41666667,21.3958333 2.60416667,21.5833333 2.83333333,21.5833333 L10.75,21.5833333 C10.9791667,21.5833333 11.1666667,21.3958333 11.1666667,21.1666667 L11.1666667,13.25 C11.1666667,13.0208333 10.9791667,12.8333333 10.75,12.8333333 Z M9.39583333,19.8125 L4.1875,19.8125 L4.1875,14.6041667 L9.39583333,14.6041667 L9.39583333,19.8125 Z M21.1666667,12.8333333 L13.25,12.8333333 C13.0208333,12.8333333 12.8333333,13.0208333 12.8333333,13.25 L12.8333333,21.1666667 C12.8333333,21.3958333 13.0208333,21.5833333 13.25,21.5833333 L21.1666667,21.5833333 C21.3958333,21.5833333 21.5833333,21.3958333 21.5833333,21.1666667 L21.5833333,13.25 C21.5833333,13.0208333 21.3958333,12.8333333 21.1666667,12.8333333 Z M19.8125,19.8125 L14.6041667,19.8125 L14.6041667,14.6041667 L19.8125,14.6041667 L19.8125,19.8125 Z" id="Shape"></path>
                    </g>
                    <text id="選單名稱" font-family="PingFangTC-Regular, PingFang TC" font-size="12" font-weight="normal" line-spacing="20" fill="#004477">
                        <tspan x="16" y="51">一級選單</tspan>
                    </text>
                </g>
                <g id="workTool/menu/mini/option-default" transform="translate(0.000000, 84.000000)">
                    <g id="Rectangle">
                        <use fill="#FFFFFF" fill-rule="evenodd" xlink:href="#path-4"></use>
                        <use fill="black" fill-opacity="1" filter="url(#filter-5)" xlink:href="#path-4"></use>
                    </g>
                    <g id="Icon/shopping" transform="translate(27.000000, 10.000000)" fill="#7F7F7F">
                        <path d="M10.75,2.41666667 L2.83333333,2.41666667 C2.60416667,2.41666667 2.41666667,2.60416667 2.41666667,2.83333333 L2.41666667,10.75 C2.41666667,10.9791667 2.60416667,11.1666667 2.83333333,11.1666667 L10.75,11.1666667 C10.9791667,11.1666667 11.1666667,10.9791667 11.1666667,10.75 L11.1666667,2.83333333 C11.1666667,2.60416667 10.9791667,2.41666667 10.75,2.41666667 Z M9.39583333,9.39583333 L4.1875,9.39583333 L4.1875,4.1875 L9.39583333,4.1875 L9.39583333,9.39583333 Z M21.1666667,2.41666667 L13.25,2.41666667 C13.0208333,2.41666667 12.8333333,2.60416667 12.8333333,2.83333333 L12.8333333,10.75 C12.8333333,10.9791667 13.0208333,11.1666667 13.25,11.1666667 L21.1666667,11.1666667 C21.3958333,11.1666667 21.5833333,10.9791667 21.5833333,10.75 L21.5833333,2.83333333 C21.5833333,2.60416667 21.3958333,2.41666667 21.1666667,2.41666667 Z M19.8125,9.39583333 L14.6041667,9.39583333 L14.6041667,4.1875 L19.8125,4.1875 L19.8125,9.39583333 Z M10.75,12.8333333 L2.83333333,12.8333333 C2.60416667,12.8333333 2.41666667,13.0208333 2.41666667,13.25 L2.41666667,21.1666667 C2.41666667,21.3958333 2.60416667,21.5833333 2.83333333,21.5833333 L10.75,21.5833333 C10.9791667,21.5833333 11.1666667,21.3958333 11.1666667,21.1666667 L11.1666667,13.25 C11.1666667,13.0208333 10.9791667,12.8333333 10.75,12.8333333 Z M9.39583333,19.8125 L4.1875,19.8125 L4.1875,14.6041667 L9.39583333,14.6041667 L9.39583333,19.8125 Z M21.1666667,12.8333333 L13.25,12.8333333 C13.0208333,12.8333333 12.8333333,13.0208333 12.8333333,13.25 L12.8333333,21.1666667 C12.8333333,21.3958333 13.0208333,21.5833333 13.25,21.5833333 L21.1666667,21.5833333 C21.3958333,21.5833333 21.5833333,21.3958333 21.5833333,21.1666667 L21.5833333,13.25 C21.5833333,13.0208333 21.3958333,12.8333333 21.1666667,12.8333333 Z M19.8125,19.8125 L14.6041667,19.8125 L14.6041667,14.6041667 L19.8125,14.6041667 L19.8125,19.8125 Z" id="Shape"></path>
                    </g>
                    <text id="選單名稱" font-family="PingFangTC-Regular, PingFang TC" font-size="12" font-weight="normal" line-spacing="20" fill="#7F7F7F">
                        <tspan x="16" y="51">一級選單</tspan>
                    </text>
                </g>
                <g id="workTool/menu/mini/option-default" transform="translate(0.000000, 149.000000)">
                    <g id="Rectangle">
                        <use fill="#FFFFFF" fill-rule="evenodd" xlink:href="#path-6"></use>
                        <use fill="black" fill-opacity="1" filter="url(#filter-7)" xlink:href="#path-6"></use>
                    </g>
                    <g id="Icon/shopping" transform="translate(27.000000, 10.000000)" fill="#7F7F7F">
                        <path d="M10.75,2.41666667 L2.83333333,2.41666667 C2.60416667,2.41666667 2.41666667,2.60416667 2.41666667,2.83333333 L2.41666667,10.75 C2.41666667,10.9791667 2.60416667,11.1666667 2.83333333,11.1666667 L10.75,11.1666667 C10.9791667,11.1666667 11.1666667,10.9791667 11.1666667,10.75 L11.1666667,2.83333333 C11.1666667,2.60416667 10.9791667,2.41666667 10.75,2.41666667 Z M9.39583333,9.39583333 L4.1875,9.39583333 L4.1875,4.1875 L9.39583333,4.1875 L9.39583333,9.39583333 Z M21.1666667,2.41666667 L13.25,2.41666667 C13.0208333,2.41666667 12.8333333,2.60416667 12.8333333,2.83333333 L12.8333333,10.75 C12.8333333,10.9791667 13.0208333,11.1666667 13.25,11.1666667 L21.1666667,11.1666667 C21.3958333,11.1666667 21.5833333,10.9791667 21.5833333,10.75 L21.5833333,2.83333333 C21.5833333,2.60416667 21.3958333,2.41666667 21.1666667,2.41666667 Z M19.8125,9.39583333 L14.6041667,9.39583333 L14.6041667,4.1875 L19.8125,4.1875 L19.8125,9.39583333 Z M10.75,12.8333333 L2.83333333,12.8333333 C2.60416667,12.8333333 2.41666667,13.0208333 2.41666667,13.25 L2.41666667,21.1666667 C2.41666667,21.3958333 2.60416667,21.5833333 2.83333333,21.5833333 L10.75,21.5833333 C10.9791667,21.5833333 11.1666667,21.3958333 11.1666667,21.1666667 L11.1666667,13.25 C11.1666667,13.0208333 10.9791667,12.8333333 10.75,12.8333333 Z M9.39583333,19.8125 L4.1875,19.8125 L4.1875,14.6041667 L9.39583333,14.6041667 L9.39583333,19.8125 Z M21.1666667,12.8333333 L13.25,12.8333333 C13.0208333,12.8333333 12.8333333,13.0208333 12.8333333,13.25 L12.8333333,21.1666667 C12.8333333,21.3958333 13.0208333,21.5833333 13.25,21.5833333 L21.1666667,21.5833333 C21.3958333,21.5833333 21.5833333,21.3958333 21.5833333,21.1666667 L21.5833333,13.25 C21.5833333,13.0208333 21.3958333,12.8333333 21.1666667,12.8333333 Z M19.8125,19.8125 L14.6041667,19.8125 L14.6041667,14.6041667 L19.8125,14.6041667 L19.8125,19.8125 Z" id="Shape"></path>
                    </g>
                    <text id="選單名稱" font-family="PingFangTC-Regular, PingFang TC" font-size="12" font-weight="normal" line-spacing="20" fill="#7F7F7F">
                        <tspan x="16" y="51">一級選單</tspan>
                    </text>
                </g>
                <g id="workTool/menu/mini/option-default" transform="translate(0.000000, 279.000000)">
                    <g id="Rectangle">
                        <use fill="#FFFFFF" fill-rule="evenodd" xlink:href="#path-8"></use>
                        <use fill="black" fill-opacity="1" filter="url(#filter-9)" xlink:href="#path-8"></use>
                    </g>
                    <g id="Icon/shopping" transform="translate(27.000000, 10.000000)" fill="#7F7F7F">
                        <path d="M10.75,2.41666667 L2.83333333,2.41666667 C2.60416667,2.41666667 2.41666667,2.60416667 2.41666667,2.83333333 L2.41666667,10.75 C2.41666667,10.9791667 2.60416667,11.1666667 2.83333333,11.1666667 L10.75,11.1666667 C10.9791667,11.1666667 11.1666667,10.9791667 11.1666667,10.75 L11.1666667,2.83333333 C11.1666667,2.60416667 10.9791667,2.41666667 10.75,2.41666667 Z M9.39583333,9.39583333 L4.1875,9.39583333 L4.1875,4.1875 L9.39583333,4.1875 L9.39583333,9.39583333 Z M21.1666667,2.41666667 L13.25,2.41666667 C13.0208333,2.41666667 12.8333333,2.60416667 12.8333333,2.83333333 L12.8333333,10.75 C12.8333333,10.9791667 13.0208333,11.1666667 13.25,11.1666667 L21.1666667,11.1666667 C21.3958333,11.1666667 21.5833333,10.9791667 21.5833333,10.75 L21.5833333,2.83333333 C21.5833333,2.60416667 21.3958333,2.41666667 21.1666667,2.41666667 Z M19.8125,9.39583333 L14.6041667,9.39583333 L14.6041667,4.1875 L19.8125,4.1875 L19.8125,9.39583333 Z M10.75,12.8333333 L2.83333333,12.8333333 C2.60416667,12.8333333 2.41666667,13.0208333 2.41666667,13.25 L2.41666667,21.1666667 C2.41666667,21.3958333 2.60416667,21.5833333 2.83333333,21.5833333 L10.75,21.5833333 C10.9791667,21.5833333 11.1666667,21.3958333 11.1666667,21.1666667 L11.1666667,13.25 C11.1666667,13.0208333 10.9791667,12.8333333 10.75,12.8333333 Z M9.39583333,19.8125 L4.1875,19.8125 L4.1875,14.6041667 L9.39583333,14.6041667 L9.39583333,19.8125 Z M21.1666667,12.8333333 L13.25,12.8333333 C13.0208333,12.8333333 12.8333333,13.0208333 12.8333333,13.25 L12.8333333,21.1666667 C12.8333333,21.3958333 13.0208333,21.5833333 13.25,21.5833333 L21.1666667,21.5833333 C21.3958333,21.5833333 21.5833333,21.3958333 21.5833333,21.1666667 L21.5833333,13.25 C21.5833333,13.0208333 21.3958333,12.8333333 21.1666667,12.8333333 Z M19.8125,19.8125 L14.6041667,19.8125 L14.6041667,14.6041667 L19.8125,14.6041667 L19.8125,19.8125 Z" id="Shape"></path>
                    </g>
                    <text id="選單名稱" font-family="PingFangTC-Regular, PingFang TC" font-size="12" font-weight="normal" line-spacing="20" fill="#7F7F7F">
                        <tspan x="16" y="51">一級選單</tspan>
                    </text>
                </g>
                <g id="workTool/menu/mini/option-default" transform="translate(0.000000, 344.000000)">
                    <g id="Rectangle">
                        <use fill="#FFFFFF" fill-rule="evenodd" xlink:href="#path-10"></use>
                        <use fill="black" fill-opacity="1" filter="url(#filter-11)" xlink:href="#path-10"></use>
                    </g>
                    <g id="Icon/shopping" transform="translate(27.000000, 10.000000)" fill="#7F7F7F">
                        <path d="M10.75,2.41666667 L2.83333333,2.41666667 C2.60416667,2.41666667 2.41666667,2.60416667 2.41666667,2.83333333 L2.41666667,10.75 C2.41666667,10.9791667 2.60416667,11.1666667 2.83333333,11.1666667 L10.75,11.1666667 C10.9791667,11.1666667 11.1666667,10.9791667 11.1666667,10.75 L11.1666667,2.83333333 C11.1666667,2.60416667 10.9791667,2.41666667 10.75,2.41666667 Z M9.39583333,9.39583333 L4.1875,9.39583333 L4.1875,4.1875 L9.39583333,4.1875 L9.39583333,9.39583333 Z M21.1666667,2.41666667 L13.25,2.41666667 C13.0208333,2.41666667 12.8333333,2.60416667 12.8333333,2.83333333 L12.8333333,10.75 C12.8333333,10.9791667 13.0208333,11.1666667 13.25,11.1666667 L21.1666667,11.1666667 C21.3958333,11.1666667 21.5833333,10.9791667 21.5833333,10.75 L21.5833333,2.83333333 C21.5833333,2.60416667 21.3958333,2.41666667 21.1666667,2.41666667 Z M19.8125,9.39583333 L14.6041667,9.39583333 L14.6041667,4.1875 L19.8125,4.1875 L19.8125,9.39583333 Z M10.75,12.8333333 L2.83333333,12.8333333 C2.60416667,12.8333333 2.41666667,13.0208333 2.41666667,13.25 L2.41666667,21.1666667 C2.41666667,21.3958333 2.60416667,21.5833333 2.83333333,21.5833333 L10.75,21.5833333 C10.9791667,21.5833333 11.1666667,21.3958333 11.1666667,21.1666667 L11.1666667,13.25 C11.1666667,13.0208333 10.9791667,12.8333333 10.75,12.8333333 Z M9.39583333,19.8125 L4.1875,19.8125 L4.1875,14.6041667 L9.39583333,14.6041667 L9.39583333,19.8125 Z M21.1666667,12.8333333 L13.25,12.8333333 C13.0208333,12.8333333 12.8333333,13.0208333 12.8333333,13.25 L12.8333333,21.1666667 C12.8333333,21.3958333 13.0208333,21.5833333 13.25,21.5833333 L21.1666667,21.5833333 C21.3958333,21.5833333 21.5833333,21.3958333 21.5833333,21.1666667 L21.5833333,13.25 C21.5833333,13.0208333 21.3958333,12.8333333 21.1666667,12.8333333 Z M19.8125,19.8125 L14.6041667,19.8125 L14.6041667,14.6041667 L19.8125,14.6041667 L19.8125,19.8125 Z" id="Shape"></path>
                    </g>
                    <text id="選單名稱" font-family="PingFangTC-Regular, PingFang TC" font-size="12" font-weight="normal" line-spacing="20" fill="#7F7F7F">
                        <tspan x="16" y="51">一級選單</tspan>
                    </text>
                </g>
                <g id="Rectangle" transform="translate(61.000000, 30.000000)">
                    <path d="M12.5,0 L25,0 L25,0 L25,25 L12.5,25 C5.59644063,25 8.45442189e-16,19.4035594 0,12.5 C-8.45442189e-16,5.59644063 5.59644063,1.26816328e-15 12.5,0 Z" fill="#F5A700"></path>
                    <polygon fill="#F5A700" points="19 25 25 25 19 32"></polygon>
                    <polygon fill-opacity="0.2" fill="#000000" points="19 25 25 25 19 32"></polygon>
                </g>
            </g>
            <g id="size-width:-Button/Primary/Basic/Medium-Copy" transform="translate(30.000000, 550.000000)">
                <g id="Group" transform="translate(0.000000, 16.500000)" fill="#FF5500" fill-rule="nonzero">
                    <g id="line">
                        <path id="Line" d="M80,9 L79,9 L79,5 L1,5 L1,9 L0,9 L0,0 L1,0 L1,4 L79,4 L79,0 L80,0 L80,9 Z"></path>
                    </g>
                </g>
                <g id="Number" transform="translate(18.500000, 26.000000)">
                    <path d="M21.5,0 L24.5,3 L41,3 C42.1045695,3 43,3.8954305 43,5 L43,23 C43,24.1045695 42.1045695,25 41,25 L2,25 C0.8954305,25 1.3527075e-16,24.1045695 0,23 L0,5 C-1.3527075e-16,3.8954305 0.8954305,3 2,3 L18.5,3 L21.5,0 Z" id="Bg" fill="#FF5500"></path>
                    <text id="数据" font-family="Menlo-Regular, Menlo" font-size="12" font-weight="normal" fill="#FFFFFF">
                        <tspan x="7.05078125" y="18">80px</tspan>
                    </text>
                </g>
            </g>
            <g id="size-width:-Button/Primary/Basic/Medium-Copy-6" transform="translate(116.000000, 479.000000)">
                <g id="Group" transform="translate(0.000000, 16.500000)" fill="#FF5500" fill-rule="nonzero">
                    <g id="line">
                        <path id="Line" d="M174,9 L173,9 L173,5 L1,5 L1,9 L0,9 L0,0 L1,0 L1,4 L173,4 L173,0 L174,0 L174,9 Z"></path>
                    </g>
                </g>
                <g id="Number" transform="translate(61.500000, 26.000000)">
                    <path d="M25.5,0 L28.5,3 L49,3 C50.1045695,3 51,3.8954305 51,5 L51,23 C51,24.1045695 50.1045695,25 49,25 L2,25 C0.8954305,25 -8.67738547e-17,24.1045695 0,23 L0,5 C-3.57315355e-16,3.8954305 0.8954305,3 2,3 L22.5,3 L25.5,0 Z" id="Bg" fill="#FF5500"></path>
                    <text id="数据" font-family="Menlo-Regular, Menlo" font-size="12" font-weight="normal" fill="#FFFFFF">
                        <tspan x="7.43847656" y="18">180px</tspan>
                    </text>
                </g>
            </g>
            <g id="size-height:-Button/Primary/Basic/Medium" transform="translate(110.000000, 122.000000)">
                <g id="Group" transform="translate(16.500000, 0.000000)" fill="#FF5500" fill-rule="nonzero">
                    <g id="line">
                        <path id="Line" d="M5,0.999 L5,64 L9,64 L9,65 L0,65 L0,64 L4,64 L4,1 L0,1 L0,2.49800181e-16 L9,-2.49800181e-16 L9,1 L5,0.999 Z"></path>
                    </g>
                </g>
                <g id="Number" transform="translate(22.500000, 21.500000)">
                    <path d="M44,0 C45.1045695,-2.02906125e-16 46,0.8954305 46,2 L46,20 C46,21.1045695 45.1045695,22 44,22 L5,22 C3.8954305,22 3,21.1045695 3,20 L3,14 L0,11 L3,8 L3,2 C3,0.8954305 3.8954305,2.02906125e-16 5,0 L44,0 Z" id="Bg" fill="#FF5500"></path>
                    <text id="数据" font-family="Menlo-Regular, Menlo" font-size="12" font-weight="normal" fill="#FFFFFF">
                        <tspan x="10" y="15">79px</tspan>
                    </text>
                </g>
            </g>
            <g id="size-height:-Button/Primary/Basic/Medium-Copy" transform="translate(290.000000, 437.000000)">
                <g id="Group" transform="translate(16.500000, 0.000000)" fill="#FF5500" fill-rule="nonzero">
                    <g id="line">
                        <path id="Line" d="M5,0.999 L5,35 L9,35 L9,36 L0,36 L0,35 L4,35 L4,1 L0,1 L0,2.49800181e-16 L9,-2.49800181e-16 L9,1 L5,0.999 Z"></path>
                    </g>
                </g>
                <g id="Number" transform="translate(22.500000, 7.000000)">
                    <path d="M44,0 C45.1045695,-2.02906125e-16 46,0.8954305 46,2 L46,20 C46,21.1045695 45.1045695,22 44,22 L5,22 C3.8954305,22 3,21.1045695 3,20 L3,14 L0,11 L3,8 L3,2 C3,0.8954305 3.8954305,2.02906125e-16 5,0 L44,0 Z" id="Bg" fill="#FF5500"></path>
                    <text id="数据" font-family="Menlo-Regular, Menlo" font-size="12" font-weight="normal" fill="#FFFFFF">
                        <tspan x="10" y="15">35px</tspan>
                    </text>
                </g>
            </g>
            <g id="Number" transform="translate(127.000000, 72.000000)">
                <path d="M64,0 C65.1045695,-2.02906125e-16 66,0.8954305 66,2 L66,20 C66,21.1045695 65.1045695,22 64,22 L5,22 C3.8954305,22 3,21.1045695 3,20 L3,14 L0,11 L3,8 L3,2 C3,0.8954305 3.8954305,2.02906125e-16 5,0 L64,0 Z" id="Bg" fill="#0091FF"></path>
                <text id="数据" font-family="PingFangTC-Regular, PingFang TC" font-size="12" font-weight="normal" fill="#FFFFFF">
                    <tspan x="10" y="15">點選展開</tspan>
                </text>
            </g>
            <g id="workTool/menu/mini/option-default" transform="translate(434.000000, 39.000000)">
                <g id="Rectangle">
                    <use fill="#FFFFFF" fill-rule="evenodd" xlink:href="#path-12"></use>
                    <use fill="black" fill-opacity="1" filter="url(#filter-13)" xlink:href="#path-12"></use>
                </g>
                <g id="Icon/shopping" transform="translate(27.000000, 10.000000)" fill="#7F7F7F">
                    <path d="M10.75,2.41666667 L2.83333333,2.41666667 C2.60416667,2.41666667 2.41666667,2.60416667 2.41666667,2.83333333 L2.41666667,10.75 C2.41666667,10.9791667 2.60416667,11.1666667 2.83333333,11.1666667 L10.75,11.1666667 C10.9791667,11.1666667 11.1666667,10.9791667 11.1666667,10.75 L11.1666667,2.83333333 C11.1666667,2.60416667 10.9791667,2.41666667 10.75,2.41666667 Z M9.39583333,9.39583333 L4.1875,9.39583333 L4.1875,4.1875 L9.39583333,4.1875 L9.39583333,9.39583333 Z M21.1666667,2.41666667 L13.25,2.41666667 C13.0208333,2.41666667 12.8333333,2.60416667 12.8333333,2.83333333 L12.8333333,10.75 C12.8333333,10.9791667 13.0208333,11.1666667 13.25,11.1666667 L21.1666667,11.1666667 C21.3958333,11.1666667 21.5833333,10.9791667 21.5833333,10.75 L21.5833333,2.83333333 C21.5833333,2.60416667 21.3958333,2.41666667 21.1666667,2.41666667 Z M19.8125,9.39583333 L14.6041667,9.39583333 L14.6041667,4.1875 L19.8125,4.1875 L19.8125,9.39583333 Z M10.75,12.8333333 L2.83333333,12.8333333 C2.60416667,12.8333333 2.41666667,13.0208333 2.41666667,13.25 L2.41666667,21.1666667 C2.41666667,21.3958333 2.60416667,21.5833333 2.83333333,21.5833333 L10.75,21.5833333 C10.9791667,21.5833333 11.1666667,21.3958333 11.1666667,21.1666667 L11.1666667,13.25 C11.1666667,13.0208333 10.9791667,12.8333333 10.75,12.8333333 Z M9.39583333,19.8125 L4.1875,19.8125 L4.1875,14.6041667 L9.39583333,14.6041667 L9.39583333,19.8125 Z M21.1666667,12.8333333 L13.25,12.8333333 C13.0208333,12.8333333 12.8333333,13.0208333 12.8333333,13.25 L12.8333333,21.1666667 C12.8333333,21.3958333 13.0208333,21.5833333 13.25,21.5833333 L21.1666667,21.5833333 C21.3958333,21.5833333 21.5833333,21.3958333 21.5833333,21.1666667 L21.5833333,13.25 C21.5833333,13.0208333 21.3958333,12.8333333 21.1666667,12.8333333 Z M19.8125,19.8125 L14.6041667,19.8125 L14.6041667,14.6041667 L19.8125,14.6041667 L19.8125,19.8125 Z" id="Shape"></path>
                </g>
                <text id="選單名稱" font-family="PingFangTC-Regular, PingFang TC" font-size="12" font-weight="normal" line-spacing="20" fill="#7F7F7F">
                    <tspan x="22" y="51">未選取</tspan>
                </text>
            </g>
            <g id="workTool/menu/mini/option-active" transform="translate(434.000000, 103.000000)">
                <rect id="Rectangle" fill="#FEF4F1" x="0" y="0" width="80" height="65"></rect>
                <rect id="Rectangle" fill="#F1F8FE" x="0" y="0" width="80" height="65"></rect>
                <g id="Icon/shopping" transform="translate(27.000000, 10.000000)" fill="#004477">
                    <path d="M10.75,2.41666667 L2.83333333,2.41666667 C2.60416667,2.41666667 2.41666667,2.60416667 2.41666667,2.83333333 L2.41666667,10.75 C2.41666667,10.9791667 2.60416667,11.1666667 2.83333333,11.1666667 L10.75,11.1666667 C10.9791667,11.1666667 11.1666667,10.9791667 11.1666667,10.75 L11.1666667,2.83333333 C11.1666667,2.60416667 10.9791667,2.41666667 10.75,2.41666667 Z M9.39583333,9.39583333 L4.1875,9.39583333 L4.1875,4.1875 L9.39583333,4.1875 L9.39583333,9.39583333 Z M21.1666667,2.41666667 L13.25,2.41666667 C13.0208333,2.41666667 12.8333333,2.60416667 12.8333333,2.83333333 L12.8333333,10.75 C12.8333333,10.9791667 13.0208333,11.1666667 13.25,11.1666667 L21.1666667,11.1666667 C21.3958333,11.1666667 21.5833333,10.9791667 21.5833333,10.75 L21.5833333,2.83333333 C21.5833333,2.60416667 21.3958333,2.41666667 21.1666667,2.41666667 Z M19.8125,9.39583333 L14.6041667,9.39583333 L14.6041667,4.1875 L19.8125,4.1875 L19.8125,9.39583333 Z M10.75,12.8333333 L2.83333333,12.8333333 C2.60416667,12.8333333 2.41666667,13.0208333 2.41666667,13.25 L2.41666667,21.1666667 C2.41666667,21.3958333 2.60416667,21.5833333 2.83333333,21.5833333 L10.75,21.5833333 C10.9791667,21.5833333 11.1666667,21.3958333 11.1666667,21.1666667 L11.1666667,13.25 C11.1666667,13.0208333 10.9791667,12.8333333 10.75,12.8333333 Z M9.39583333,19.8125 L4.1875,19.8125 L4.1875,14.6041667 L9.39583333,14.6041667 L9.39583333,19.8125 Z M21.1666667,12.8333333 L13.25,12.8333333 C13.0208333,12.8333333 12.8333333,13.0208333 12.8333333,13.25 L12.8333333,21.1666667 C12.8333333,21.3958333 13.0208333,21.5833333 13.25,21.5833333 L21.1666667,21.5833333 C21.3958333,21.5833333 21.5833333,21.3958333 21.5833333,21.1666667 L21.5833333,13.25 C21.5833333,13.0208333 21.3958333,12.8333333 21.1666667,12.8333333 Z M19.8125,19.8125 L14.6041667,19.8125 L14.6041667,14.6041667 L19.8125,14.6041667 L19.8125,19.8125 Z" id="Shape"></path>
                </g>
                <text id="選單名稱" font-family="PingFangTC-Regular, PingFang TC" font-size="12" font-weight="normal" line-spacing="20" fill="#004477">
                    <tspan x="23.752" y="51">Hover</tspan>
                </text>
            </g>
            <g id="workTool/menu/mini/option-active" transform="translate(434.000000, 168.000000)">
                <rect id="Rectangle" fill="#FEF4F1" x="0" y="0" width="80" height="65"></rect>
                <rect id="Rectangle" fill="#F1F8FE" x="0" y="0" width="80" height="65"></rect>
                <g id="Icon/shopping" transform="translate(27.000000, 10.000000)" fill="#004477">
                    <path d="M10.75,2.41666667 L2.83333333,2.41666667 C2.60416667,2.41666667 2.41666667,2.60416667 2.41666667,2.83333333 L2.41666667,10.75 C2.41666667,10.9791667 2.60416667,11.1666667 2.83333333,11.1666667 L10.75,11.1666667 C10.9791667,11.1666667 11.1666667,10.9791667 11.1666667,10.75 L11.1666667,2.83333333 C11.1666667,2.60416667 10.9791667,2.41666667 10.75,2.41666667 Z M9.39583333,9.39583333 L4.1875,9.39583333 L4.1875,4.1875 L9.39583333,4.1875 L9.39583333,9.39583333 Z M21.1666667,2.41666667 L13.25,2.41666667 C13.0208333,2.41666667 12.8333333,2.60416667 12.8333333,2.83333333 L12.8333333,10.75 C12.8333333,10.9791667 13.0208333,11.1666667 13.25,11.1666667 L21.1666667,11.1666667 C21.3958333,11.1666667 21.5833333,10.9791667 21.5833333,10.75 L21.5833333,2.83333333 C21.5833333,2.60416667 21.3958333,2.41666667 21.1666667,2.41666667 Z M19.8125,9.39583333 L14.6041667,9.39583333 L14.6041667,4.1875 L19.8125,4.1875 L19.8125,9.39583333 Z M10.75,12.8333333 L2.83333333,12.8333333 C2.60416667,12.8333333 2.41666667,13.0208333 2.41666667,13.25 L2.41666667,21.1666667 C2.41666667,21.3958333 2.60416667,21.5833333 2.83333333,21.5833333 L10.75,21.5833333 C10.9791667,21.5833333 11.1666667,21.3958333 11.1666667,21.1666667 L11.1666667,13.25 C11.1666667,13.0208333 10.9791667,12.8333333 10.75,12.8333333 Z M9.39583333,19.8125 L4.1875,19.8125 L4.1875,14.6041667 L9.39583333,14.6041667 L9.39583333,19.8125 Z M21.1666667,12.8333333 L13.25,12.8333333 C13.0208333,12.8333333 12.8333333,13.0208333 12.8333333,13.25 L12.8333333,21.1666667 C12.8333333,21.3958333 13.0208333,21.5833333 13.25,21.5833333 L21.1666667,21.5833333 C21.3958333,21.5833333 21.5833333,21.3958333 21.5833333,21.1666667 L21.5833333,13.25 C21.5833333,13.0208333 21.3958333,12.8333333 21.1666667,12.8333333 Z M19.8125,19.8125 L14.6041667,19.8125 L14.6041667,14.6041667 L19.8125,14.6041667 L19.8125,19.8125 Z" id="Shape"></path>
                </g>
                <text id="選單名稱" font-family="PingFangTC-Regular, PingFang TC" font-size="12" font-weight="normal" line-spacing="20" fill="#004477">
                    <tspan x="22" y="51">已選取</tspan>
                </text>
            </g>
            <g id="Group-212" transform="translate(434.000000, 380.000000)">
                <rect id="Rectangle" fill="#FFFFFF" x="0" y="0" width="174" height="35"></rect>
                <text id="未選取" font-family="PingFangTC-Regular, PingFang TC" font-size="14" font-weight="normal" fill="#7F7F7F">
                    <tspan x="10" y="23">未選取</tspan>
                </text>
                <rect id="Rectangle" fill="#F1F8FE" x="0" y="35" width="174" height="35"></rect>
                <rect id="Rectangle-Copy-6" fill="#F1F8FE" x="0" y="70" width="174" height="35"></rect>
                <text id="Hover" font-family="PingFangTC-Regular, PingFang TC" font-size="14" font-weight="normal" line-spacing="22" fill="#004477">
                    <tspan x="10" y="57">Hover</tspan>
                </text>
                <text id="已選取" font-family="PingFangTC-Regular, PingFang TC" font-size="14" font-weight="normal" line-spacing="22" fill="#004477">
                    <tspan x="10" y="92">已選取</tspan>
                </text>
            </g>
            <text id="圖示尺寸：26x26px-字級：12pt" font-family="PingFangTC-Regular, PingFang TC" font-size="16" font-weight="normal" line-spacing="24" fill="#4C4C4C">
                <tspan x="434" y="270">圖示尺寸：26x26px</tspan>
                <tspan x="434" y="294">字級：12pt，5個中文字</tspan>
            </text>
            <text id="字級：14pt，最多10個中文字" font-family="PingFangTC-Regular, PingFang TC" font-size="16" font-weight="normal" line-spacing="24" fill="#4C4C4C">
                <tspan x="434" y="522">字級：14pt，最多10個中文字</tspan>
            </text>
        </g>
    </g>
</svg>