<?xml version="1.0" encoding="UTF-8"?>
<svg width="780px" height="348px" viewBox="0 0 780 348" version="1.1" xmlns="http://www.w3.org/2000/svg" xmlns:xlink="http://www.w3.org/1999/xlink">
    <title>menu03</title>
    <defs>
        <path d="M12.2458984,4.10292969 C12.2458984,4.23417969 12.2021484,4.36679687 12.1146484,4.47753906 L7.45390625,10.2716797 C7.34042969,10.4125 7.16953125,10.4945312 6.98769531,10.4945312 C6.80722656,10.4945312 6.63496094,10.4125 6.52285156,10.2716797 L1.88671875,4.50214844 C1.68027344,4.24511719 1.72128906,3.86914062 1.97832031,3.66269531 C2.23535156,3.45625 2.61132813,3.49726562 2.81777344,3.75429687 L6.9890625,8.94414062 L11.1835938,3.72832031 C11.3900391,3.47128906 11.7660156,3.43027344 12.0230469,3.63671875 C12.1693359,3.75566406 12.2458984,3.92792969 12.2458984,4.10292969 Z" id="path-1"></path>
        <path d="M12.2458984,4.10292969 C12.2458984,4.23417969 12.2021484,4.36679687 12.1146484,4.47753906 L7.45390625,10.2716797 C7.34042969,10.4125 7.16953125,10.4945312 6.98769531,10.4945312 C6.80722656,10.4945312 6.63496094,10.4125 6.52285156,10.2716797 L1.88671875,4.50214844 C1.68027344,4.24511719 1.72128906,3.86914062 1.97832031,3.66269531 C2.23535156,3.45625 2.61132813,3.49726562 2.81777344,3.75429687 L6.9890625,8.94414062 L11.1835938,3.72832031 C11.3900391,3.47128906 11.7660156,3.43027344 12.0230469,3.63671875 C12.1693359,3.75566406 12.2458984,3.92792969 12.2458984,4.10292969 Z" id="path-3"></path>
        <rect id="path-5" x="0" y="0" width="230" height="90" rx="4"></rect>
        <filter x="-3.0%" y="-5.6%" width="106.1%" height="115.6%" filterUnits="objectBoundingBox" id="filter-6">
            <feOffset dx="0" dy="2" in="SourceAlpha" result="shadowOffsetOuter1"></feOffset>
            <feGaussianBlur stdDeviation="2" in="shadowOffsetOuter1" result="shadowBlurOuter1"></feGaussianBlur>
            <feColorMatrix values="0 0 0 0 0   0 0 0 0 0   0 0 0 0 0  0 0 0 0.1 0" type="matrix" in="shadowBlurOuter1"></feColorMatrix>
        </filter>
        <rect id="path-7" x="0" y="0" width="230" height="90" rx="4"></rect>
        <filter x="-3.0%" y="-5.6%" width="106.1%" height="115.6%" filterUnits="objectBoundingBox" id="filter-8">
            <feOffset dx="0" dy="2" in="SourceAlpha" result="shadowOffsetOuter1"></feOffset>
            <feGaussianBlur stdDeviation="2" in="shadowOffsetOuter1" result="shadowBlurOuter1"></feGaussianBlur>
            <feColorMatrix values="0 0 0 0 0   0 0 0 0 0   0 0 0 0 0  0 0 0 0.1 0" type="matrix" in="shadowBlurOuter1"></feColorMatrix>
        </filter>
    </defs>
    <g id="XXXGuideline" stroke="none" stroke-width="1" fill="none" fill-rule="evenodd">
        <g id="menu03">
            <rect id="bg" x="0" y="0" width="780" height="348" rx="4"></rect>
            <rect id="bg" fill="#364055" x="20" y="20" width="740" height="103"></rect>
            <g id="Group-2" transform="translate(333.000000, 20.000000)">
                <path d="M0,0 L397,0 L397,16 C397,27.045695 388.045695,36 377,36 L20,36 C8.954305,36 1.3527075e-15,27.045695 0,16 L0,0 L0,0 Z" id="Rectangle" fill="#F5A700"></path>
                <g id="Group" transform="translate(166.000000, 7.000000)">
                    <g transform="translate(0.000000, 1.000000)" fill="#FFFFFF" id="Icon/top-menu/user">
                        <path d="M13.2,11.6875 C12.175,11.6875 11.6821429,12.25 10,12.25 C8.31785714,12.25 7.82857143,11.6875 6.8,11.6875 C4.15,11.6875 2,13.8039063 2,16.4125 L2,17.3125 C2,18.2441406 2.76785714,19 3.71428571,19 L16.2857143,19 C17.2321429,19 18,18.2441406 18,17.3125 L18,16.4125 C18,13.8039063 15.85,11.6875 13.2,11.6875 Z M16.2857143,17.3125 L3.71428571,17.3125 L3.71428571,16.4125 C3.71428571,14.7390625 5.1,13.375 6.8,13.375 C7.32142857,13.375 8.16785714,13.9375 10,13.9375 C11.8464286,13.9375 12.675,13.375 13.2,13.375 C14.9,13.375 16.2857143,14.7390625 16.2857143,16.4125 L16.2857143,17.3125 Z M10,11.125 C12.8392857,11.125 15.1428571,8.85742188 15.1428571,6.0625 C15.1428571,3.26757812 12.8392857,1 10,1 C7.16071429,1 4.85714286,3.26757812 4.85714286,6.0625 C4.85714286,8.85742188 7.16071429,11.125 10,11.125 Z M10,2.6875 C11.8892857,2.6875 13.4285714,4.20273438 13.4285714,6.0625 C13.4285714,7.92226562 11.8892857,9.4375 10,9.4375 C8.11071429,9.4375 6.57142857,7.92226562 6.57142857,6.0625 C6.57142857,4.20273438 8.11071429,2.6875 10,2.6875 Z" id="Shape"></path>
                    </g>
                    <text id="管理者名稱" font-family="PingFangTC-Regular, PingFang TC" font-size="14" font-weight="normal" line-spacing="22" fill="#FFFFFF">
                        <tspan x="28" y="15">管理者名稱</tspan>
                    </text>
                    <g transform="translate(106.000000, 4.000000)" id="Icon/arrow/Down-14px">
                        <mask id="mask-2" fill="white">
                            <use xlink:href="#path-1"></use>
                        </mask>
                        <use id="Mask" fill="#FFFFFF" xlink:href="#path-1"></use>
                    </g>
                </g>
                <rect id="Rectangle-Copy" fill="#FFFFFF" opacity="0.646693638" x="301" y="11" width="1" height="14"></rect>
                <rect id="Rectangle-Copy-3" fill="#FFFFFF" opacity="0.646693638" x="150" y="11" width="1" height="14"></rect>
                <g id="Group-4" transform="translate(317.000000, 7.000000)" fill="#FFFFFF">
                    <g id="Icon/top-menu/notification" transform="translate(0.000000, 1.000000)">
                        <path d="M18.3055389,13.4443555 C17.5885858,12.6739648 16.2470819,11.5150391 16.2470819,7.71875 C16.2470819,4.83535156 14.2253631,2.52714844 11.4993084,1.96085938 L11.4993084,1.1875 C11.4993084,0.531777344 10.9679022,0 10.3125506,0 C9.65719905,0 9.1257928,0.531777344 9.1257928,1.1875 L9.1257928,1.96085938 C6.39973812,2.52714844 4.37801937,4.83535156 4.37801937,7.71875 C4.37801937,11.5150391 3.03651546,12.6739648 2.31956233,13.4443555 C2.09690608,13.6837109 1.99819515,13.9698242 2.00002496,14.25 C2.00413265,14.8585937 2.4817303,15.4375 3.19126155,15.4375 L17.4338397,15.4375 C18.1433709,15.4375 18.6213397,14.8585937 18.6250763,14.25 C18.6269061,13.9698242 18.5281951,13.6833398 18.3055389,13.4443555 L18.3055389,13.4443555 Z M4.50604671,13.65625 C5.29350765,12.6183008 6.15444515,10.8979102 6.15852718,7.74027344 C6.15852718,7.73285156 6.15630062,7.72617188 6.15630062,7.71875 C6.15630062,5.42316406 8.01696468,3.5625 10.3125506,3.5625 C12.6081366,3.5625 14.4688006,5.42316406 14.4688006,7.71875 C14.4688006,7.72617187 14.4665741,7.73285156 14.4665741,7.74027344 C14.4706561,10.8982813 15.3315936,12.6186719 16.1190545,13.65625 L4.50604671,13.65625 Z M10.3125506,19 C11.6232537,19 12.6864373,17.9368164 12.6864373,16.625 L7.9386639,16.625 C7.9386639,17.9368164 9.00184749,19 10.3125506,19 Z" id="Shape"></path>
                    </g>
                    <text id="通知" font-family="PingFangTC-Regular, PingFang TC" font-size="14" font-weight="normal" line-spacing="22">
                        <tspan x="28" y="15">通知</tspan>
                    </text>
                </g>
                <g id="Group-4-Copy" transform="translate(15.000000, 7.000000)">
                    <text id="買賣小幫手" font-family="PingFangTC-Regular, PingFang TC" font-size="14" font-weight="normal" line-spacing="22" fill="#FFFFFF">
                        <tspan x="28" y="15">買賣小幫手</tspan>
                    </text>
                    <g id="Icon/arrow/Down-14px" transform="translate(106.000000, 4.000000)">
                        <mask id="mask-4" fill="white">
                            <use xlink:href="#path-3"></use>
                        </mask>
                        <use id="Mask" fill="#FFFFFF" xlink:href="#path-3"></use>
                    </g>
                    <g id="Icon/top-menu/user" transform="translate(0.000000, 1.000000)" fill="#FFFFFF">
                        <path d="M13.25,18 C13.6642136,18 14,18.3357864 14,18.75 C14,19.1642136 13.6642136,19.5 13.25,19.5 L6.75,19.5 C6.33578644,19.5 6,19.1642136 6,18.75 C6,18.3357864 6.33578644,18 6.75,18 L13.25,18 Z M10,0.5 C14.1421356,0.5 17.5,3.85786438 17.5,8 C17.5,10.333911 16.424031,12.4815594 14.6537742,13.8823144 L14.6537742,13.8823144 L14.5,13.999 L14.5,14.5 C14.5,15.8254834 13.4684641,16.9100387 12.1643757,16.9946823 L12.1643757,16.9946823 L12,17 L8,17 C6.61928813,17 5.5,15.8807119 5.5,14.4999546 L5.5,14.4999546 L5.5,13.999 L5.347199,13.8830853 C3.6472132,12.5383901 2.58722154,10.5050009 2.50514218,8.27919235 L2.50514218,8.27919235 L2.5,8 C2.5,3.85786438 5.85786438,0.5 10,0.5 Z M10,2 C6.6862915,2 4,4.6862915 4,8 C4,10.2208633 5.20661355,12.159907 7.00003939,13.1973296 L7.00003939,13.1973296 L7,14.5 C7,15.0522847 7.44771525,15.5 8,15.5 L8,15.5 L12,15.5 C12.5522847,15.5 13,15.0522847 13,14.5 L13,14.5 L13.000963,13.1967496 C14.793836,12.1591844 16,10.2204495 16,8 C16,4.6862915 13.3137085,2 10,2 Z M10.4145795,4.40597503 C10.7283772,4.61412586 10.8347621,5.01770583 10.679486,5.34870069 L10.6249991,5.44555358 L9.427,7.25 L12.0198131,7.25 C12.5853822,7.25 12.9348001,7.84470918 12.6937328,8.32996673 L12.6415216,8.41949797 L10.6217085,11.4129211 C10.3900262,11.7562813 9.92386215,11.846814 9.58050203,11.6151317 C9.26835646,11.4045114 9.16515915,11.0001045 9.32304209,10.6703451 L9.37829151,10.5739252 L10.608,8.75 L8.03056173,8.75 C7.46751662,8.75 7.11776079,8.16000357 7.35425816,7.67496553 L7.40556263,7.58542054 L9.3750009,4.61639466 C9.60396682,4.27121719 10.069402,4.17700911 10.4145795,4.40597503 Z" id="Combined-Shape"></path>
                    </g>
                </g>
            </g>
            <g id="Group" transform="translate(333.000000, 66.000000)">
                <g id="Rectangle">
                    <use fill="black" fill-opacity="1" filter="url(#filter-6)" xlink:href="#path-5"></use>
                    <use fill="#FFFFFF" fill-rule="evenodd" xlink:href="#path-5"></use>
                </g>
                <g transform="translate(10.000000, 10.000000)">
                    <circle id="Oval" fill="#F1F8FE" cx="35" cy="25" r="18"></circle>
                    <g transform="translate(23.000000, 13.000000)" fill="#004477" id="Icon/sider/setting">
                        <path d="M19.7142857,4.99285714 L19.7142857,20.925 L19.7142857,20.925 L6.21428571,20.925 C5.14907143,20.925 4.28571429,20.0688375 4.28571429,19.0125 C4.28571429,17.9561625 5.14907143,17.1 6.21428571,17.1 L18.4285714,17.1 L18.4285714,1.8 L5.57142857,1.8 C4.15714286,1.8 3,2.9475 3,4.35 L3,19.65 C3,21.0525 4.15714286,22.2 5.57142857,22.2 L21,22.2 L21,4.99285714 C21,4.63781695 20.7121831,4.35 20.3571429,4.35 C20.0021027,4.35 19.7142857,4.63781695 19.7142857,4.99285714 Z M8.4,1.8 L5.4,1.8 L5.4,6.6 L6.9,5.98635363 L8.4,6.6 L8.4,1.8 Z M6.03129156,18.6 C5.68225411,18.6 5.4,18.8688 5.4,19.2 C5.4,19.5312 5.68225411,19.8 6.0300315,19.8 L17.4,19.8 C17.7313708,19.8 18,19.5313708 18,19.2 C18,18.8686292 17.7313708,18.6 17.4,18.6 L6.03129156,18.6 L6.03129156,18.6 Z" id="Shape"></path>
                    </g>
                    <text id="操作手冊" font-family="PingFangTC-Regular, PingFang TC" font-size="14" font-weight="normal" line-spacing="22" fill="#004477">
                        <tspan x="7" y="63">操作手冊</tspan>
                    </text>
                </g>
                <g transform="translate(80.000000, 10.000000)" id="floatmenu/Top/active-Copy">
                    <circle id="Oval" stroke="#E5E5E5" fill="#FFFFFF" cx="35" cy="25" r="17.5"></circle>
                    <g id="Icon/sider/setting" transform="translate(25.000000, 15.000000)" fill="#7F7F7F">
                        <path d="M18.0343232,12.4063824 C18.022664,12.4059792 18.0109712,12.4059792 17.999312,12.4063824 L16.795088,12.4063824 L16.795088,6.3852624 C16.8047648,6.1099104 16.5893888,5.8788432 16.3140032,5.8691664 C16.302344,5.8687632 16.2906512,5.8687632 16.278992,5.8691664 L13.698512,5.8691664 L13.698512,2.9446224 C13.7081888,2.6692704 13.4928128,2.4382032 13.2174272,2.4285264 C13.205768,2.42821268 13.1940752,2.42821268 13.182416,2.4285264 L6.989264,2.4285264 C6.713912,2.4188496 6.4828448,2.6342256 6.473168,2.9096112 C6.4727648,2.9212704 6.4727648,2.9329632 6.473168,2.9446224 L6.473168,5.8691664 L4.236752,5.8691664 C3.9614,5.8594896 3.7303328,6.0748656 3.720656,6.3502512 C3.7202528,6.3619104 3.7202528,6.3736032 3.720656,6.3852624 L3.720656,12.4063824 L2.516432,12.4063824 C2.24108,12.3967056 2.0100128,12.6120816 2.000336,12.8874672 C2.00002228,12.8991264 2.00002228,12.9108192 2.000336,12.9224784 L2.000336,16.0190544 C1.9906592,16.2944064 2.2060352,16.5254736 2.4814208,16.5351504 C2.49308,16.5354641 2.5047728,16.5354641 2.516432,16.5351504 L5.957072,16.5351504 C6.232424,16.5448272 6.4634912,16.3294512 6.473168,16.0540656 C6.4735712,16.0424064 6.4735712,16.0307136 6.473168,16.0190544 L6.473168,12.9224784 C6.4828448,12.6471264 6.2674688,12.4160592 5.9920832,12.4063824 C5.980424,12.4059792 5.9687312,12.4059792 5.957072,12.4063824 L4.752848,12.4063824 L4.752848,6.9013584 L6.473168,6.9013584 L6.473168,8.1055824 C6.4634912,8.3809344 6.6788672,8.6120016 6.9542528,8.6216784 C6.965912,8.6220816 6.9776048,8.6220816 6.989264,8.6216784 L9.741776,8.6216784 L9.741776,12.4063824 L8.537552,12.4063824 C8.2622,12.3967056 8.0311328,12.6120816 8.021456,12.8874672 C8.0210528,12.8991264 8.0210528,12.9108192 8.021456,12.9224784 L8.021456,16.0190544 C8.0117792,16.2944064 8.2271552,16.5254736 8.5025408,16.5351504 C8.5142,16.5354641 8.5258928,16.5354641 8.537552,16.5351504 L11.978192,16.5351504 C12.253544,16.5448272 12.4846112,16.3294512 12.494288,16.0540656 C12.4946912,16.0424064 12.4946912,16.0307136 12.494288,16.0190544 L12.494288,12.9224784 C12.5039648,12.6471264 12.2885888,12.4160592 12.0132032,12.4063824 C12.001544,12.4059792 11.9898512,12.4059792 11.978192,12.4063824 L10.773968,12.4063824 L10.773968,8.6216784 L13.182416,8.6216784 C13.457768,8.6313552 13.6888352,8.4159792 13.698512,8.1405936 C13.6989152,8.1289344 13.6989152,8.1172416 13.698512,8.1055824 L13.698512,6.9013584 L15.762896,6.9013584 L15.762896,12.4063824 L14.558672,12.4063824 C14.28332,12.3967056 14.0522528,12.6120816 14.042576,12.8874672 C14.0421728,12.8991264 14.0421728,12.9108192 14.042576,12.9224784 L14.042576,16.0190544 C14.0328992,16.2944064 14.2482752,16.5254736 14.5236608,16.5351504 C14.53532,16.5354641 14.5470128,16.5354641 14.558672,16.5351504 L17.999312,16.5351504 C18.274664,16.5448272 18.5057312,16.3294512 18.515408,16.0540656 C18.5157196,16.0424064 18.5157196,16.0307136 18.515408,16.0190544 L18.515408,12.9224784 C18.5250512,12.6471264 18.3096752,12.4160592 18.0343232,12.4063824 Z" id="Path"></path>
                    </g>
                    <text id="操作手冊" font-family="PingFangTC-Regular, PingFang TC" font-size="14" font-weight="normal" line-spacing="22" fill="#7F7F7F">
                        <tspan x="14" y="63">流程圖</tspan>
                    </text>
                </g>
                <g transform="translate(150.000000, 10.000000)" id="floatmenu/Top/active-Copy-2">
                    <circle id="Oval" stroke="#E5E5E5" fill="#FFFFFF" cx="35" cy="25" r="17.5"></circle>
                    <g id="Icon/sider/setting" transform="translate(25.000000, 15.000000)" fill="#7F7F7F">
                        <path d="M10,2 C14.4183529,2 18,5.58164706 18,10 C18,14.4183529 14.4183529,18 10,18 C5.58164706,18 2,14.4183529 2,10 C2,5.58164706 5.58164706,2 10,2 Z M13.9035438,6.50318163 C13.6782093,6.05338324 13.1307903,5.87136148 12.6808493,6.09662465 L12.6808493,6.09662465 L8.57023548,8.15460538 L8.4689403,8.21376128 C8.33964155,8.30089474 8.23429658,8.42015698 8.16379942,8.56066409 L8.16379942,8.56066409 L6.09670596,12.6805647 L6.04969802,12.7921994 C5.9711807,13.0199507 5.98566749,13.271474 6.09338832,13.4906309 C6.31530749,13.9421231 6.86133127,14.1282858 7.31296657,13.9064369 L7.31296657,13.9064369 L11.4436464,11.877396 L11.5475772,11.8175528 C11.6801669,11.7291029 11.7878476,11.6069858 11.8589776,11.462822 L11.8589776,11.462822 L13.906005,7.31398154 L13.9523043,7.20192142 C14.0293432,6.97341709 14.0130327,6.72173624 13.9035438,6.50318163 Z M8.977,8.971 L11.042,11.057 L11.0418263,11.0598972 L6.91114638,13.0889381 L8.977,8.971 Z" id="Combined-Shape"></path>
                    </g>
                    <text id="操作手冊" font-family="PingFangTC-Regular, PingFang TC" font-size="14" font-weight="normal" line-spacing="22" fill="#7F7F7F">
                        <tspan x="7" y="63">新手指引</tspan>
                    </text>
                </g>
            </g>
            <g id="floatmenu/Top/Top-Copy-4" transform="translate(20.000000, 187.000000)">
                <g id="Rectangle">
                    <use fill="black" fill-opacity="1" filter="url(#filter-8)" xlink:href="#path-7"></use>
                    <use fill="#FFFFFF" fill-rule="evenodd" xlink:href="#path-7"></use>
                </g>
                <g id="floatmenu/Top/active" transform="translate(10.000000, 10.000000)">
                    <circle id="Oval" fill="#F1F8FE" cx="35" cy="25" r="18"></circle>
                    <g id="Icon/sider/setting" transform="translate(23.000000, 13.000000)" fill="#004477">
                        <path d="M19.7142857,4.99285714 L19.7142857,20.925 L19.7142857,20.925 L6.21428571,20.925 C5.14907143,20.925 4.28571429,20.0688375 4.28571429,19.0125 C4.28571429,17.9561625 5.14907143,17.1 6.21428571,17.1 L18.4285714,17.1 L18.4285714,1.8 L5.57142857,1.8 C4.15714286,1.8 3,2.9475 3,4.35 L3,19.65 C3,21.0525 4.15714286,22.2 5.57142857,22.2 L21,22.2 L21,4.99285714 C21,4.63781695 20.7121831,4.35 20.3571429,4.35 C20.0021027,4.35 19.7142857,4.63781695 19.7142857,4.99285714 Z M8.4,1.8 L5.4,1.8 L5.4,6.6 L6.9,5.98635363 L8.4,6.6 L8.4,1.8 Z M6.03129156,18.6 C5.68225411,18.6 5.4,18.8688 5.4,19.2 C5.4,19.5312 5.68225411,19.8 6.0300315,19.8 L17.4,19.8 C17.7313708,19.8 18,19.5313708 18,19.2 C18,18.8686292 17.7313708,18.6 17.4,18.6 L6.03129156,18.6 L6.03129156,18.6 Z" id="Shape"></path>
                    </g>
                    <text id="操作手冊" font-family="PingFangTC-Regular, PingFang TC" font-size="14" font-weight="normal" line-spacing="22" fill="#004477">
                        <tspan x="21" y="63">已選</tspan>
                    </text>
                </g>
                <g id="floatmenu/Top/active-Copy" transform="translate(80.000000, 10.000000)">
                    <circle id="Oval" fill="#F1F8FE" cx="35" cy="25" r="18"></circle>
                    <g id="Icon/sider/setting" transform="translate(23.000000, 13.000000)" fill="#004477">
                        <path d="M21.6411878,14.8876589 C21.6271968,14.887175 21.6131654,14.887175 21.5991744,14.8876589 L20.1541056,14.8876589 L20.1541056,7.66231488 C20.1657178,7.33189248 19.9072666,7.05461184 19.5768038,7.04299968 C19.5628128,7.04251584 19.5487814,7.04251584 19.5347904,7.04299968 L16.4382144,7.04299968 L16.4382144,3.53354688 C16.4498266,3.20312448 16.1913754,2.92584384 15.8609126,2.91423168 C15.8469216,2.91385521 15.8328902,2.91385521 15.8188992,2.91423168 L8.3871168,2.91423168 C8.0566944,2.90261952 7.77941376,3.16107072 7.7678016,3.49153344 C7.76731776,3.50552448 7.76731776,3.51955584 7.7678016,3.53354688 L7.7678016,7.04299968 L5.0841024,7.04299968 C4.75368,7.03138752 4.47639936,7.28983872 4.4647872,7.62030144 C4.46430336,7.63429248 4.46430336,7.64832384 4.4647872,7.66231488 L4.4647872,14.8876589 L3.0197184,14.8876589 C2.689296,14.8760467 2.41201536,15.1344979 2.4004032,15.4649606 C2.40002673,15.4789517 2.40002673,15.492983 2.4004032,15.5069741 L2.4004032,19.2228653 C2.38879104,19.5532877 2.64724224,19.8305683 2.97770496,19.8421805 C2.991696,19.8425569 3.00572736,19.8425569 3.0197184,19.8421805 L7.1484864,19.8421805 C7.4789088,19.8537926 7.75618944,19.5953414 7.7678016,19.2648787 C7.76828544,19.2508877 7.76828544,19.2368563 7.7678016,19.2228653 L7.7678016,15.5069741 C7.77941376,15.1765517 7.52096256,14.899271 7.19049984,14.8876589 C7.1765088,14.887175 7.16247744,14.887175 7.1484864,14.8876589 L5.7034176,14.8876589 L5.7034176,8.28163008 L7.7678016,8.28163008 L7.7678016,9.72669888 C7.75618944,10.0571213 8.01464064,10.3344019 8.34510336,10.3460141 C8.3590944,10.3464979 8.37312576,10.3464979 8.3871168,10.3460141 L11.6901312,10.3460141 L11.6901312,14.8876589 L10.2450624,14.8876589 C9.91464,14.8760467 9.63735936,15.1344979 9.6257472,15.4649606 C9.62526336,15.4789517 9.62526336,15.492983 9.6257472,15.5069741 L9.6257472,19.2228653 C9.61413504,19.5532877 9.87258624,19.8305683 10.203049,19.8421805 C10.21704,19.8425569 10.2310714,19.8425569 10.2450624,19.8421805 L14.3738304,19.8421805 C14.7042528,19.8537926 14.9815334,19.5953414 14.9931456,19.2648787 C14.9936294,19.2508877 14.9936294,19.2368563 14.9931456,19.2228653 L14.9931456,15.5069741 C15.0047578,15.1765517 14.7463066,14.899271 14.4158438,14.8876589 C14.4018528,14.887175 14.3878214,14.887175 14.3738304,14.8876589 L12.9287616,14.8876589 L12.9287616,10.3460141 L15.8188992,10.3460141 C16.1493216,10.3576262 16.4266022,10.099175 16.4382144,9.76871232 C16.4386982,9.75472128 16.4386982,9.74068992 16.4382144,9.72669888 L16.4382144,8.28163008 L18.9154752,8.28163008 L18.9154752,14.8876589 L17.4704064,14.8876589 C17.139984,14.8760467 16.8627034,15.1344979 16.8510912,15.4649606 C16.8506074,15.4789517 16.8506074,15.492983 16.8510912,15.5069741 L16.8510912,19.2228653 C16.839479,19.5532877 17.0979302,19.8305683 17.428393,19.8421805 C17.442384,19.8425569 17.4564154,19.8425569 17.4704064,19.8421805 L21.5991744,19.8421805 C21.9295968,19.8537926 22.2068774,19.5953414 22.2184896,19.2648787 C22.2188635,19.2508877 22.2188635,19.2368563 22.2184896,19.2228653 L22.2184896,15.5069741 C22.2300614,15.1765517 21.9716102,14.899271 21.6411878,14.8876589 Z" id="Path"></path>
                    </g>
                    <text id="操作手冊" font-family="PingFangTC-Regular, PingFang TC" font-size="14" font-weight="normal" line-spacing="22" fill="#004477">
                        <tspan x="17.192" y="63">hover</tspan>
                    </text>
                </g>
                <g id="floatmenu/Top/active-Copy-2" transform="translate(150.000000, 10.000000)">
                    <circle id="Oval" stroke="#E5E5E5" fill="#FFFFFF" cx="35" cy="25" r="17.5"></circle>
                    <g id="Icon/sider/setting" transform="translate(25.000000, 15.000000)" fill="#7F7F7F">
                        <path d="M10,2 C14.4183529,2 18,5.58164706 18,10 C18,14.4183529 14.4183529,18 10,18 C5.58164706,18 2,14.4183529 2,10 C2,5.58164706 5.58164706,2 10,2 Z M13.9035438,6.50318163 C13.6782093,6.05338324 13.1307903,5.87136148 12.6808493,6.09662465 L12.6808493,6.09662465 L8.57023548,8.15460538 L8.4689403,8.21376128 C8.33964155,8.30089474 8.23429658,8.42015698 8.16379942,8.56066409 L8.16379942,8.56066409 L6.09670596,12.6805647 L6.04969802,12.7921994 C5.9711807,13.0199507 5.98566749,13.271474 6.09338832,13.4906309 C6.31530749,13.9421231 6.86133127,14.1282858 7.31296657,13.9064369 L7.31296657,13.9064369 L11.4436464,11.877396 L11.5475772,11.8175528 C11.6801669,11.7291029 11.7878476,11.6069858 11.8589776,11.462822 L11.8589776,11.462822 L13.906005,7.31398154 L13.9523043,7.20192142 C14.0293432,6.97341709 14.0130327,6.72173624 13.9035438,6.50318163 Z M8.977,8.971 L11.042,11.057 L11.0418263,11.0598972 L6.91114638,13.0889381 L8.977,8.971 Z" id="Combined-Shape"></path>
                    </g>
                    <text id="操作手冊" font-family="PingFangTC-Regular, PingFang TC" font-size="14" font-weight="normal" line-spacing="22" fill="#7F7F7F">
                        <tspan x="21" y="63">未選</tspan>
                    </text>
                </g>
            </g>
            <g id="size-width:-Button/Primary/Basic/Medium" transform="translate(20.000000, 293.000000)">
                <g id="Group" transform="translate(0.000000, 0.500000)" fill="#FF5500" fill-rule="nonzero">
                    <g id="line">
                        <path id="Line" d="M230,9 L229,9 L229,5 L1,5 L1,9 L0,9 L0,0 L1,0 L1,4 L229,4 L229,0 L230,0 L230,9 Z"></path>
                    </g>
                </g>
                <g id="Number" transform="translate(89.500000, 10.000000)">
                    <path d="M25.5,0 L28.5,3 L49,3 C50.1045695,3 51,3.8954305 51,5 L51,23 C51,24.1045695 50.1045695,25 49,25 L2,25 C0.8954305,25 -8.67738547e-17,24.1045695 0,23 L0,5 C-3.57315355e-16,3.8954305 0.8954305,3 2,3 L22.5,3 L25.5,0 Z" id="Bg" fill="#FF5500"></path>
                    <text id="数据" font-family="Menlo-Regular, Menlo" font-size="12" font-weight="normal" fill="#FFFFFF">
                        <tspan x="7.43847656" y="18">230px</tspan>
                    </text>
                </g>
            </g>
            <text id="圖示尺寸：24x24px-字級：14pt" font-family="PingFangTC-Regular, PingFang TC" font-size="16" font-weight="normal" line-spacing="24" fill="#4C4C4C">
                <tspan x="277" y="207">圖示尺寸：24x24px</tspan>
                <tspan x="277" y="231">字級：14pt，最多4個字</tspan>
            </text>
            <g id="Breadcrumber/_Resources/Default/Non-current-page" transform="translate(70.000000, 30.000000)" fill="#FFFFFF">
                <g id="Group" transform="translate(0.000000, 24.000000)" fill-opacity="0.65" font-family="PingFangTC-Regular, PingFang TC" font-size="14" font-weight="normal">
                    <g id="Breadcrumber/_Resources/Default/Non-current-page">
                        <text id="選單">
                            <tspan x="0" y="17">一級選單</tspan>
                        </text>
                        <text id="/">
                            <tspan x="66" y="17">/</tspan>
                        </text>
                    </g>
                    <g transform="translate(83.000000, 0.000000)" id="Breadcrumber/_Resources/Default/Non-current-page-Copy-2">
                        <text id="選單">
                            <tspan x="0" y="17">二級選單</tspan>
                        </text>
                    </g>
                </g>
                <g id="Group" font-family="PingFangTC-Semibold, PingFang TC" font-size="18" font-weight="500">
                    <g id="Breadcrumber/_Resources/Default/Non-current-page">
                        <text id="當前選單">
                            <tspan x="0" y="19">自訂標題</tspan>
                        </text>
                    </g>
                </g>
            </g>
        </g>
    </g>
</svg>