<?xml version="1.0" encoding="UTF-8"?>
<svg width="780px" height="400px" viewBox="0 0 780 400" version="1.1" xmlns="http://www.w3.org/2000/svg" xmlns:xlink="http://www.w3.org/1999/xlink">
    <title>menu04</title>
    <defs>
        <path d="M12.2458984,4.10292969 C12.2458984,4.23417969 12.2021484,4.36679687 12.1146484,4.47753906 L7.45390625,10.2716797 C7.34042969,10.4125 7.16953125,10.4945312 6.98769531,10.4945312 C6.80722656,10.4945312 6.63496094,10.4125 6.52285156,10.2716797 L1.88671875,4.50214844 C1.68027344,4.24511719 1.72128906,3.86914062 1.97832031,3.66269531 C2.23535156,3.45625 2.61132813,3.49726562 2.81777344,3.75429687 L6.9890625,8.94414062 L11.1835938,3.72832031 C11.3900391,3.47128906 11.7660156,3.43027344 12.0230469,3.63671875 C12.1693359,3.75566406 12.2458984,3.92792969 12.2458984,4.10292969 Z" id="path-1"></path>
        <path d="M12.2458984,4.10292969 C12.2458984,4.23417969 12.2021484,4.36679687 12.1146484,4.47753906 L7.45390625,10.2716797 C7.34042969,10.4125 7.16953125,10.4945312 6.98769531,10.4945312 C6.80722656,10.4945312 6.63496094,10.4125 6.52285156,10.2716797 L1.88671875,4.50214844 C1.68027344,4.24511719 1.72128906,3.86914062 1.97832031,3.66269531 C2.23535156,3.45625 2.61132813,3.49726562 2.81777344,3.75429687 L6.9890625,8.94414062 L11.1835938,3.72832031 C11.3900391,3.47128906 11.7660156,3.43027344 12.0230469,3.63671875 C12.1693359,3.75566406 12.2458984,3.92792969 12.2458984,4.10292969 Z" id="path-3"></path>
        <rect id="path-5" x="0" y="0" width="210" height="127" rx="4"></rect>
        <filter x="-3.3%" y="-3.9%" width="106.7%" height="111.0%" filterUnits="objectBoundingBox" id="filter-6">
            <feOffset dx="0" dy="2" in="SourceAlpha" result="shadowOffsetOuter1"></feOffset>
            <feGaussianBlur stdDeviation="2" in="shadowOffsetOuter1" result="shadowBlurOuter1"></feGaussianBlur>
            <feColorMatrix values="0 0 0 0 0   0 0 0 0 0   0 0 0 0 0  0 0 0 0.1 0" type="matrix" in="shadowBlurOuter1"></feColorMatrix>
        </filter>
        <rect id="path-7" x="0" y="0" width="210" height="127" rx="4"></rect>
        <filter x="-3.3%" y="-3.9%" width="106.7%" height="111.0%" filterUnits="objectBoundingBox" id="filter-8">
            <feOffset dx="0" dy="2" in="SourceAlpha" result="shadowOffsetOuter1"></feOffset>
            <feGaussianBlur stdDeviation="2" in="shadowOffsetOuter1" result="shadowBlurOuter1"></feGaussianBlur>
            <feColorMatrix values="0 0 0 0 0   0 0 0 0 0   0 0 0 0 0  0 0 0 0.1 0" type="matrix" in="shadowBlurOuter1"></feColorMatrix>
        </filter>
    </defs>
    <g id="XXXGuideline" stroke="none" stroke-width="1" fill="none" fill-rule="evenodd">
        <g id="menu04">
            <rect id="bg" x="0" y="0" width="780" height="400" rx="4"></rect>
            <rect id="bg" fill="#364055" x="20" y="20" width="740" height="103"></rect>
            <g id="Group-2" transform="translate(333.000000, 20.000000)">
                <path d="M0,0 L397,0 L397,16 C397,27.045695 388.045695,36 377,36 L20,36 C8.954305,36 1.3527075e-15,27.045695 0,16 L0,0 L0,0 Z" id="Rectangle" fill="#F5A700"></path>
                <g id="Group" transform="translate(166.000000, 7.000000)">
                    <g transform="translate(0.000000, 1.000000)" fill="#FFFFFF" id="Icon/top-menu/user">
                        <path d="M13.2,11.6875 C12.175,11.6875 11.6821429,12.25 10,12.25 C8.31785714,12.25 7.82857143,11.6875 6.8,11.6875 C4.15,11.6875 2,13.8039063 2,16.4125 L2,17.3125 C2,18.2441406 2.76785714,19 3.71428571,19 L16.2857143,19 C17.2321429,19 18,18.2441406 18,17.3125 L18,16.4125 C18,13.8039063 15.85,11.6875 13.2,11.6875 Z M16.2857143,17.3125 L3.71428571,17.3125 L3.71428571,16.4125 C3.71428571,14.7390625 5.1,13.375 6.8,13.375 C7.32142857,13.375 8.16785714,13.9375 10,13.9375 C11.8464286,13.9375 12.675,13.375 13.2,13.375 C14.9,13.375 16.2857143,14.7390625 16.2857143,16.4125 L16.2857143,17.3125 Z M10,11.125 C12.8392857,11.125 15.1428571,8.85742188 15.1428571,6.0625 C15.1428571,3.26757812 12.8392857,1 10,1 C7.16071429,1 4.85714286,3.26757812 4.85714286,6.0625 C4.85714286,8.85742188 7.16071429,11.125 10,11.125 Z M10,2.6875 C11.8892857,2.6875 13.4285714,4.20273438 13.4285714,6.0625 C13.4285714,7.92226562 11.8892857,9.4375 10,9.4375 C8.11071429,9.4375 6.57142857,7.92226562 6.57142857,6.0625 C6.57142857,4.20273438 8.11071429,2.6875 10,2.6875 Z" id="Shape"></path>
                    </g>
                    <text id="管理者名稱" font-family="PingFangTC-Regular, PingFang TC" font-size="14" font-weight="normal" line-spacing="22" fill="#FFFFFF">
                        <tspan x="28" y="15">管理者名稱</tspan>
                    </text>
                    <g transform="translate(106.000000, 4.000000)" id="Icon/arrow/Down-14px">
                        <mask id="mask-2" fill="white">
                            <use xlink:href="#path-1"></use>
                        </mask>
                        <use id="Mask" fill="#FFFFFF" xlink:href="#path-1"></use>
                    </g>
                </g>
                <rect id="Rectangle-Copy" fill="#FFFFFF" opacity="0.646693638" x="301" y="11" width="1" height="14"></rect>
                <rect id="Rectangle-Copy-3" fill="#FFFFFF" opacity="0.646693638" x="150" y="11" width="1" height="14"></rect>
                <g id="Group-4" transform="translate(317.000000, 7.000000)" fill="#FFFFFF">
                    <g id="Icon/top-menu/notification" transform="translate(0.000000, 1.000000)">
                        <path d="M18.3055389,13.4443555 C17.5885858,12.6739648 16.2470819,11.5150391 16.2470819,7.71875 C16.2470819,4.83535156 14.2253631,2.52714844 11.4993084,1.96085938 L11.4993084,1.1875 C11.4993084,0.531777344 10.9679022,0 10.3125506,0 C9.65719905,0 9.1257928,0.531777344 9.1257928,1.1875 L9.1257928,1.96085938 C6.39973812,2.52714844 4.37801937,4.83535156 4.37801937,7.71875 C4.37801937,11.5150391 3.03651546,12.6739648 2.31956233,13.4443555 C2.09690608,13.6837109 1.99819515,13.9698242 2.00002496,14.25 C2.00413265,14.8585937 2.4817303,15.4375 3.19126155,15.4375 L17.4338397,15.4375 C18.1433709,15.4375 18.6213397,14.8585937 18.6250763,14.25 C18.6269061,13.9698242 18.5281951,13.6833398 18.3055389,13.4443555 L18.3055389,13.4443555 Z M4.50604671,13.65625 C5.29350765,12.6183008 6.15444515,10.8979102 6.15852718,7.74027344 C6.15852718,7.73285156 6.15630062,7.72617188 6.15630062,7.71875 C6.15630062,5.42316406 8.01696468,3.5625 10.3125506,3.5625 C12.6081366,3.5625 14.4688006,5.42316406 14.4688006,7.71875 C14.4688006,7.72617187 14.4665741,7.73285156 14.4665741,7.74027344 C14.4706561,10.8982813 15.3315936,12.6186719 16.1190545,13.65625 L4.50604671,13.65625 Z M10.3125506,19 C11.6232537,19 12.6864373,17.9368164 12.6864373,16.625 L7.9386639,16.625 C7.9386639,17.9368164 9.00184749,19 10.3125506,19 Z" id="Shape"></path>
                    </g>
                    <text id="通知" font-family="PingFangTC-Regular, PingFang TC" font-size="14" font-weight="normal" line-spacing="22">
                        <tspan x="28" y="15">通知</tspan>
                    </text>
                </g>
                <g id="Group-4-Copy" transform="translate(15.000000, 7.000000)">
                    <text id="買賣小幫手" font-family="PingFangTC-Regular, PingFang TC" font-size="14" font-weight="normal" line-spacing="22" fill="#FFFFFF">
                        <tspan x="28" y="15">買賣小幫手</tspan>
                    </text>
                    <g id="Icon/arrow/Down-14px" transform="translate(106.000000, 4.000000)">
                        <mask id="mask-4" fill="white">
                            <use xlink:href="#path-3"></use>
                        </mask>
                        <use id="Mask" fill="#FFFFFF" xlink:href="#path-3"></use>
                    </g>
                    <g id="Icon/top-menu/user" transform="translate(0.000000, 1.000000)" fill="#FFFFFF">
                        <path d="M13.25,18 C13.6642136,18 14,18.3357864 14,18.75 C14,19.1642136 13.6642136,19.5 13.25,19.5 L6.75,19.5 C6.33578644,19.5 6,19.1642136 6,18.75 C6,18.3357864 6.33578644,18 6.75,18 L13.25,18 Z M10,0.5 C14.1421356,0.5 17.5,3.85786438 17.5,8 C17.5,10.333911 16.424031,12.4815594 14.6537742,13.8823144 L14.6537742,13.8823144 L14.5,13.999 L14.5,14.5 C14.5,15.8254834 13.4684641,16.9100387 12.1643757,16.9946823 L12.1643757,16.9946823 L12,17 L8,17 C6.61928813,17 5.5,15.8807119 5.5,14.4999546 L5.5,14.4999546 L5.5,13.999 L5.347199,13.8830853 C3.6472132,12.5383901 2.58722154,10.5050009 2.50514218,8.27919235 L2.50514218,8.27919235 L2.5,8 C2.5,3.85786438 5.85786438,0.5 10,0.5 Z M10,2 C6.6862915,2 4,4.6862915 4,8 C4,10.2208633 5.20661355,12.159907 7.00003939,13.1973296 L7.00003939,13.1973296 L7,14.5 C7,15.0522847 7.44771525,15.5 8,15.5 L8,15.5 L12,15.5 C12.5522847,15.5 13,15.0522847 13,14.5 L13,14.5 L13.000963,13.1967496 C14.793836,12.1591844 16,10.2204495 16,8 C16,4.6862915 13.3137085,2 10,2 Z M10.4145795,4.40597503 C10.7283772,4.61412586 10.8347621,5.01770583 10.679486,5.34870069 L10.6249991,5.44555358 L9.427,7.25 L12.0198131,7.25 C12.5853822,7.25 12.9348001,7.84470918 12.6937328,8.32996673 L12.6415216,8.41949797 L10.6217085,11.4129211 C10.3900262,11.7562813 9.92386215,11.846814 9.58050203,11.6151317 C9.26835646,11.4045114 9.16515915,11.0001045 9.32304209,10.6703451 L9.37829151,10.5739252 L10.608,8.75 L8.03056173,8.75 C7.46751662,8.75 7.11776079,8.16000357 7.35425816,7.67496553 L7.40556263,7.58542054 L9.3750009,4.61639466 C9.60396682,4.27121719 10.069402,4.17700911 10.4145795,4.40597503 Z" id="Combined-Shape"></path>
                    </g>
                </g>
            </g>
            <g id="Menu/top-menu/admin" transform="translate(485.000000, 66.000000)">
                <g id="Rectangle">
                    <use fill="black" fill-opacity="1" filter="url(#filter-6)" xlink:href="#path-5"></use>
                    <use fill="#FFFFFF" fill-rule="evenodd" xlink:href="#path-5"></use>
                </g>
                <g id="Group" transform="translate(59.000000, 14.000000)" font-family="PingFangTC-Regular, PingFang TC" font-weight="normal">
                    <text id="UsernameUsernameUser" font-size="12" line-spacing="20" fill="#B4B4B4">
                        <tspan x="0" y="33">Username</tspan>
                    </text>
                    <text id="品牌營銷處品牌營銷處" font-size="14" line-spacing="22" fill="#7F7F7F">
                        <tspan x="0" y="15">品牌營銷處</tspan>
                    </text>
                </g>
                <g id="icon" transform="translate(15.000000, 15.000000)">
                    <rect id="Rectangle" fill="#004477" x="0" y="0" width="36" height="36" rx="4"></rect>
                    <g id="Icon/top-menu/user/20px" transform="translate(6.000000, 6.000000)" fill="#FFFFFF">
                        <path d="M20.8020833,1.70333333 L20.9179599,1.71265076 C21.257294,1.76782727 21.5154167,2.06146967 21.5154167,2.41666667 L21.5154167,2.41666667 L21.5154167,5.75260417 L21.6282439,5.8723896 L21.7377953,5.88755801 C22.0580294,5.95775127 22.2966667,6.24409087 22.2966667,6.58333333 L22.2966667,6.58333333 L22.2966667,10.0130208 L22.2864096,10.3200243 C22.252255,10.8292886 22.1329819,11.3258241 21.9312671,11.799323 C21.8208706,12.0586264 21.688562,12.3041607 21.5357395,12.5321417 L21.5357395,12.5321417 L21.5154167,21.5833333 L21.5060992,21.6992099 C21.4509227,22.038544 21.1572803,22.2966667 20.8020833,22.2966667 L20.8020833,22.2966667 L3.19791667,22.2966667 L3.08227246,22.2873048 C2.74348041,22.2318764 2.48458333,21.9370486 2.48458333,21.5833333 L2.48458333,21.5833333 L2.48458333,12.5989583 L2.35902302,12.3795971 C2.24159914,12.1700246 2.14766206,11.9865481 2.06890916,11.7997389 C1.82592186,11.2352909 1.70333333,10.6344795 1.70333333,10.0130208 L1.70333333,10.0130208 L1.70333333,6.58333333 L1.71195633,6.47243581 C1.76304806,6.14696489 2.03532808,5.892535 2.37175611,5.8723896 L2.37175611,5.8723896 L2.48458333,5.75260417 L2.48458333,2.41666667 L2.49390076,2.30079014 C2.54907727,1.96145604 2.84271967,1.70333333 3.19791667,1.70333333 L3.19791667,1.70333333 L20.8020833,1.70333333 Z M13.6666667,17.7133333 L10.3333333,17.7133333 L10.2133333,17.8333333 L10.2133333,20.5442708 L10.3333333,20.6642708 L13.6666667,20.6642708 L13.7866667,20.5442708 L13.7866667,17.8333333 L13.6666667,17.7133333 Z M14.8564423,13.6450762 L14.8294756,13.6475029 L14.7926885,13.6582937 L14.8092,13.7028 L14.7830571,13.6670104 L14.5464026,13.8307667 C14.3060474,13.9869033 14.0545917,14.1201743 13.7920465,14.2305194 C13.2247109,14.4685977 12.626033,14.5883333 12.0052083,14.5883333 C11.3834315,14.5883333 10.782323,14.4682394 10.2184862,14.2305683 C9.86736165,14.084055 9.53977936,13.8967745 9.23593323,13.6695282 C9.15625,13.6387979 9.15625,13.6387979 9.09477187,13.6582937 C8.7758612,13.8944256 8.44608199,14.0825975 8.09412985,14.2305194 C7.52679424,14.4685977 6.92811631,14.5883333 6.30729167,14.5883333 C5.68551482,14.5883333 5.08440634,14.4682394 4.52056951,14.2305683 L4.52056951,14.2305683 L4.45072215,14.2020856 L4.29175322,14.128913 L4.11958333,14.2369792 L4.11958333,20.5442708 L4.23958333,20.6642708 L8.66666667,20.6642708 L8.78666667,20.5442708 L8.78666667,17 L8.79598409,16.8841235 C8.8511606,16.5447894 9.144803,16.2866667 9.5,16.2866667 L9.5,16.2866667 L14.5,16.2866667 L14.6158765,16.2959841 C14.9552106,16.3511606 15.2133333,16.644803 15.2133333,17 L15.2133333,17 L15.2133333,20.5442708 L15.3333333,20.6642708 L19.7708333,20.6642708 L19.8908333,20.5442708 L19.8908333,14.2369792 L19.7200871,14.1282372 L19.4887454,14.2310392 C18.9226276,14.4685977 18.3239496,14.5883333 17.703125,14.5883333 C17.0813482,14.5883333 16.4802397,14.4682394 15.9164028,14.2305683 C15.5652783,14.084055 15.237696,13.8967745 14.9338499,13.6695282 C14.8740875,13.6464805 14.8591469,13.6407186 14.8294756,13.6475029 Z M20.5286458,7.505 L3.47135417,7.505 L3.4205842,7.52020837 C3.36662173,7.53860923 3.361907,7.55517783 3.33833333,7.63802083 L3.33833333,7.63802083 L3.33833333,10.0130208 L3.34464976,10.2062884 C3.44518915,11.7396282 4.73335811,12.9533333 6.3046875,12.9533333 C7.38226601,12.9533333 8.35857064,12.3799599 8.88514463,11.4689034 C8.93980044,11.3727905 9.04324632,11.3127083 9.15364583,11.3127083 C9.26329317,11.3127083 9.36528669,11.3722477 9.42260956,11.4696966 C9.94568146,12.3795197 10.9219875,12.9533333 12,12.9533333 C13.0809827,12.9533333 14.0600232,12.3765459 14.5808103,11.4630798 C14.6346395,11.3702774 14.7333294,11.3127083 14.8385417,11.3127083 L14.8385417,11.3127083 L14.9318418,11.3230354 C15.0066217,11.343396 15.0712344,11.3929766 15.1123421,11.463852 C15.6357218,12.3769858 16.6147641,12.9533333 17.6953125,12.9533333 C19.3321139,12.9533333 20.6616667,11.636379 20.6616667,10.0130208 L20.6616667,10.0130208 L20.6616667,7.63802083 L20.6464583,7.58725087 C20.6280574,7.5332884 20.6114888,7.52857367 20.5286458,7.505 L20.5286458,7.505 Z M19.7604167,3.33833333 L4.23958333,3.33833333 L4.11958333,3.45833333 L4.11958333,5.75 L4.23958333,5.87 L19.7604167,5.87 L19.8804167,5.75 L19.8804167,3.45833333 L19.7604167,3.33833333 Z" id="Combined-Shape"></path>
                    </g>
                </g>
                <g id="btn" transform="translate(-2.000000, 61.000000)">
                    <rect id="Rectangle" fill="#F1F8FE" x="0" y="1" width="214" height="30"></rect>
                    <rect id="Rectangle-Copy" fill="#FFFFFF" x="0" y="31" width="214" height="30"></rect>
                    <g id="Icon/sider/setting" transform="translate(15.000000, 6.000000)" fill="#004477">
                        <path d="M18.9583333,12.4674479 L17.5368924,11.2521701 C17.6041667,10.8398438 17.6388889,10.4188368 17.6388889,9.99782986 C17.6388889,9.57682292 17.6041667,9.15581597 17.5368924,8.74348958 L18.9583333,7.52821181 C19.1775174,7.34157986 19.2578125,7.03776042 19.1601563,6.76432292 L19.140625,6.70789931 C18.7478299,5.61197917 18.1662326,4.60503472 17.4110243,3.71527778 L17.3719618,3.66970486 C17.1853299,3.45052083 16.8836806,3.36805556 16.6102431,3.46354167 L14.8459201,4.09071181 C14.1948785,3.55685764 13.4678819,3.13585069 12.6822917,2.84071181 L12.3415799,0.99609375 C12.2894965,0.711805556 12.0659722,0.490451389 11.781684,0.438368056 L11.7230903,0.427517361 C10.5924479,0.223524306 9.40321181,0.223524306 8.27256944,0.427517361 L8.21397569,0.438368056 C7.9296875,0.490451389 7.70616319,0.711805556 7.65407986,0.99609375 L7.31119792,2.84939236 C6.53211806,3.14453125 5.80946181,3.56336806 5.16276042,4.09505208 L3.38541667,3.46354167 C3.11414931,3.36805556 2.81032986,3.44835069 2.62369792,3.66970486 L2.58463542,3.71527778 C1.82942708,4.60720486 1.24782986,5.61414931 0.855034722,6.70789931 L0.835503472,6.76432292 C0.737847222,7.03559028 0.818142361,7.33940972 1.03732639,7.52821181 L2.47612847,8.75651042 C2.40885417,9.16449653 2.37630208,9.58116319 2.37630208,9.99565972 C2.37630208,10.4123264 2.40885417,10.8289931 2.47612847,11.234809 L1.03732639,12.4631076 C0.818142361,12.6497396 0.737847222,12.953559 0.835503472,13.2269965 L0.855034722,13.2834201 C1.24782986,14.3771701 1.82942708,15.3862847 2.58463542,16.2760417 L2.62369792,16.3216146 C2.81032986,16.5407986 3.11197917,16.6232639 3.38541667,16.5277778 L5.16276042,15.8962674 C5.80946181,16.4279514 6.53211806,16.8489583 7.31119792,17.1419271 L7.65407986,18.9952257 C7.70616319,19.2795139 7.9296875,19.5008681 8.21397569,19.5529514 L8.27256944,19.5638021 C8.83897569,19.6657986 9.41840278,19.7178819 9.99782986,19.7178819 C10.5772569,19.7178819 11.1588542,19.6657986 11.7230903,19.5638021 L11.781684,19.5529514 C12.0659722,19.5008681 12.2894965,19.2795139 12.3415799,18.9952257 L12.6822917,17.1506076 C13.4678819,16.8554687 14.1948785,16.4366319 14.8459201,15.9006076 L16.6102431,16.5277778 C16.8815104,16.6232639 17.1853299,16.5429687 17.3719618,16.3216146 L17.4110243,16.2760417 C18.1662326,15.3841146 18.7478299,14.3771701 19.140625,13.2834201 L19.1601563,13.2269965 C19.2578125,12.9600694 19.1775174,12.65625 18.9583333,12.4674479 L18.9583333,12.4674479 Z M15.9960938,8.99956597 C16.0503472,9.32725694 16.078559,9.66362847 16.078559,10 C16.078559,10.3363715 16.0503472,10.6727431 15.9960938,11.000434 L15.8528646,11.8706597 L17.4739583,13.2573785 C17.2287326,13.8237847 16.9184028,14.3576389 16.5494792,14.8546007 L14.5355903,14.140625 L13.8541667,14.7005208 C13.3355035,15.1258681 12.7582465,15.4600694 12.1332465,15.6944444 L11.3064236,16.0047743 L10.9179688,18.109809 C10.3081597,18.1792535 9.68532986,18.1792535 9.07335069,18.109809 L8.68489583,16.000434 L7.86458333,15.6857639 C7.24609375,15.4513889 6.67100694,15.1171875 6.15668403,14.6940104 L5.47526042,14.1319444 L3.44835069,14.8524306 C3.07942708,14.3554688 2.77126736,13.8194444 2.52387153,13.2552083 L4.16232639,11.8554687 L4.02126736,10.9874132 C3.96918403,10.6640625 3.94097222,10.3298611 3.94097222,10 C3.94097222,9.66796875 3.96701389,9.3359375 4.02126736,9.01258681 L4.16232639,8.14453125 L2.52387153,6.74479167 C2.76909722,6.17838542 3.07942708,5.64453125 3.44835069,5.14756944 L5.47526042,5.86805556 L6.15668403,5.30598958 C6.67100694,4.8828125 7.24609375,4.54861111 7.86458333,4.31423611 L8.68706597,4.00390625 L9.07552083,1.89453125 C9.68532986,1.82508681 10.3081597,1.82508681 10.9201389,1.89453125 L11.3085938,3.99956597 L12.1354167,4.30989583 C12.7582465,4.54427083 13.3376736,4.87847222 13.8563368,5.30381944 L14.5377604,5.86371528 L16.5516493,5.14973958 C16.9205729,5.64670139 17.2287326,6.18272569 17.4761285,6.74696181 L15.8550347,8.13368056 L15.9960938,8.99956597 Z M10,5.96354167 C7.890625,5.96354167 6.18055556,7.67361111 6.18055556,9.78298611 C6.18055556,11.8923611 7.890625,13.6024306 10,13.6024306 C12.109375,13.6024306 13.8194444,11.8923611 13.8194444,9.78298611 C13.8194444,7.67361111 12.109375,5.96354167 10,5.96354167 Z M11.71875,11.5017361 C11.2586806,11.9596354 10.6488715,12.2135417 10,12.2135417 C9.35112847,12.2135417 8.74131944,11.9596354 8.28125,11.5017361 C7.82335069,11.0416667 7.56944444,10.4318576 7.56944444,9.78298611 C7.56944444,9.13411458 7.82335069,8.52430556 8.28125,8.06423611 C8.74131944,7.60416667 9.35112847,7.35243056 10,7.35243056 C10.6488715,7.35243056 11.2586806,7.60416667 11.71875,8.06423611 C12.1766493,8.52430556 12.4305556,9.13411458 12.4305556,9.78298611 C12.4305556,10.4318576 12.1766493,11.0416667 11.71875,11.5017361 Z" id="Shape"></path>
                    </g>
                    <g id="Shape" transform="translate(15.000000, 36.000000)" fill="#7F7F7F">
                        <path d="M17.879,5.65 C18.012,5.891 17.906,6.191 17.658,6.31 L16.933,6.66 C16.685,6.78 16.387,6.674 16.25,6.434 C15.535,5.18 14.456,4.166 13.15,3.53 C11.695,2.822 10.042,2.624 8.46,2.97 C6.88,3.317 5.46,4.187 4.434,5.439 C3.408,6.691 2.834,8.253 2.805,9.872 C2.776,11.491 3.295,13.072 4.275,14.36 C5.256,15.648 6.643,16.568 8.211,16.97 C9.78,17.372 11.438,17.234 12.918,16.578 C14.245,15.989 15.36,15.014 16.119,13.786 C16.265,13.551 16.566,13.456 16.809,13.585 L17.521,13.959 C17.766,14.089 17.861,14.391 17.719,14.629 C16.767,16.215 15.348,17.474 13.649,18.227 C11.799,19.048 9.724,19.221 7.763,18.717 C5.802,18.214 4.067,17.064 2.84,15.453 C1.613,13.843 0.965,11.864 1.001,9.84 C1.038,7.815 1.755,5.862 3.039,4.295 C4.322,2.73 6.097,1.641 8.075,1.208 C10.053,0.775 12.12,1.022 13.94,1.908 C15.61,2.722 16.985,4.03 17.879,5.65 L17.879,5.65 Z M18.929,10.387 L16.164,12.528 C16.098,12.579 16.001,12.531 16.002,12.448 L16.02,11.06 L10.202,11.06 C10.092,11.06 10.002,10.971 10.002,10.86 L10.002,9.76 C10.002,9.65 10.092,9.56 10.202,9.56 L16.038,9.56 L16.056,8.099 C16.057,8.015 16.154,7.969 16.219,8.023 L18.931,10.231 C18.981,10.271 18.981,10.348 18.929,10.387 Z"></path>
                    </g>
                    <text id="帳號設定" font-family="PingFangTC-Regular, PingFang TC" font-size="14" font-weight="normal" line-spacing="22" fill="#004477">
                        <tspan x="43" y="20">帳號設定</tspan>
                    </text>
                    <polygon id="Rectangle-12" fill-opacity="0.09" fill="#000000" points="0 0 214 0 214 1 0 1"></polygon>
                    <text id="登出" font-family="PingFangTC-Regular, PingFang TC" font-size="14" font-weight="normal" line-spacing="22" fill="#7F7F7F">
                        <tspan x="43" y="50">登出</tspan>
                    </text>
                </g>
            </g>
            <g id="Menu/top-menu/admin-Copy" transform="translate(20.000000, 193.000000)">
                <g id="Rectangle">
                    <use fill="black" fill-opacity="1" filter="url(#filter-8)" xlink:href="#path-7"></use>
                    <use fill="#FFFFFF" fill-rule="evenodd" xlink:href="#path-7"></use>
                </g>
                <g id="Group" transform="translate(59.000000, 14.000000)" font-family="PingFangTC-Regular, PingFang TC" font-weight="normal">
                    <text id="UsernameUsernameUser" font-size="12" line-spacing="20" fill="#B4B4B4">
                        <tspan x="0" y="33">Username</tspan>
                    </text>
                    <text id="品牌營銷處品牌營銷處" font-size="14" line-spacing="22" fill="#7F7F7F">
                        <tspan x="0" y="15">品牌營銷處</tspan>
                    </text>
                </g>
                <g id="icon" transform="translate(15.000000, 15.000000)">
                    <rect id="Rectangle" fill="#004477" x="0" y="0" width="36" height="36" rx="4"></rect>
                    <g id="Icon/top-menu/user/20px" transform="translate(6.000000, 6.000000)" fill="#FFFFFF">
                        <path d="M20.8020833,1.70333333 L20.9179599,1.71265076 C21.257294,1.76782727 21.5154167,2.06146967 21.5154167,2.41666667 L21.5154167,2.41666667 L21.5154167,5.75260417 L21.6282439,5.8723896 L21.7377953,5.88755801 C22.0580294,5.95775127 22.2966667,6.24409087 22.2966667,6.58333333 L22.2966667,6.58333333 L22.2966667,10.0130208 L22.2864096,10.3200243 C22.252255,10.8292886 22.1329819,11.3258241 21.9312671,11.799323 C21.8208706,12.0586264 21.688562,12.3041607 21.5357395,12.5321417 L21.5357395,12.5321417 L21.5154167,21.5833333 L21.5060992,21.6992099 C21.4509227,22.038544 21.1572803,22.2966667 20.8020833,22.2966667 L20.8020833,22.2966667 L3.19791667,22.2966667 L3.08227246,22.2873048 C2.74348041,22.2318764 2.48458333,21.9370486 2.48458333,21.5833333 L2.48458333,21.5833333 L2.48458333,12.5989583 L2.35902302,12.3795971 C2.24159914,12.1700246 2.14766206,11.9865481 2.06890916,11.7997389 C1.82592186,11.2352909 1.70333333,10.6344795 1.70333333,10.0130208 L1.70333333,10.0130208 L1.70333333,6.58333333 L1.71195633,6.47243581 C1.76304806,6.14696489 2.03532808,5.892535 2.37175611,5.8723896 L2.37175611,5.8723896 L2.48458333,5.75260417 L2.48458333,2.41666667 L2.49390076,2.30079014 C2.54907727,1.96145604 2.84271967,1.70333333 3.19791667,1.70333333 L3.19791667,1.70333333 L20.8020833,1.70333333 Z M13.6666667,17.7133333 L10.3333333,17.7133333 L10.2133333,17.8333333 L10.2133333,20.5442708 L10.3333333,20.6642708 L13.6666667,20.6642708 L13.7866667,20.5442708 L13.7866667,17.8333333 L13.6666667,17.7133333 Z M14.8564423,13.6450762 L14.8294756,13.6475029 L14.7926885,13.6582937 L14.8092,13.7028 L14.7830571,13.6670104 L14.5464026,13.8307667 C14.3060474,13.9869033 14.0545917,14.1201743 13.7920465,14.2305194 C13.2247109,14.4685977 12.626033,14.5883333 12.0052083,14.5883333 C11.3834315,14.5883333 10.782323,14.4682394 10.2184862,14.2305683 C9.86736165,14.084055 9.53977936,13.8967745 9.23593323,13.6695282 C9.15625,13.6387979 9.15625,13.6387979 9.09477187,13.6582937 C8.7758612,13.8944256 8.44608199,14.0825975 8.09412985,14.2305194 C7.52679424,14.4685977 6.92811631,14.5883333 6.30729167,14.5883333 C5.68551482,14.5883333 5.08440634,14.4682394 4.52056951,14.2305683 L4.52056951,14.2305683 L4.45072215,14.2020856 L4.29175322,14.128913 L4.11958333,14.2369792 L4.11958333,20.5442708 L4.23958333,20.6642708 L8.66666667,20.6642708 L8.78666667,20.5442708 L8.78666667,17 L8.79598409,16.8841235 C8.8511606,16.5447894 9.144803,16.2866667 9.5,16.2866667 L9.5,16.2866667 L14.5,16.2866667 L14.6158765,16.2959841 C14.9552106,16.3511606 15.2133333,16.644803 15.2133333,17 L15.2133333,17 L15.2133333,20.5442708 L15.3333333,20.6642708 L19.7708333,20.6642708 L19.8908333,20.5442708 L19.8908333,14.2369792 L19.7200871,14.1282372 L19.4887454,14.2310392 C18.9226276,14.4685977 18.3239496,14.5883333 17.703125,14.5883333 C17.0813482,14.5883333 16.4802397,14.4682394 15.9164028,14.2305683 C15.5652783,14.084055 15.237696,13.8967745 14.9338499,13.6695282 C14.8740875,13.6464805 14.8591469,13.6407186 14.8294756,13.6475029 Z M20.5286458,7.505 L3.47135417,7.505 L3.4205842,7.52020837 C3.36662173,7.53860923 3.361907,7.55517783 3.33833333,7.63802083 L3.33833333,7.63802083 L3.33833333,10.0130208 L3.34464976,10.2062884 C3.44518915,11.7396282 4.73335811,12.9533333 6.3046875,12.9533333 C7.38226601,12.9533333 8.35857064,12.3799599 8.88514463,11.4689034 C8.93980044,11.3727905 9.04324632,11.3127083 9.15364583,11.3127083 C9.26329317,11.3127083 9.36528669,11.3722477 9.42260956,11.4696966 C9.94568146,12.3795197 10.9219875,12.9533333 12,12.9533333 C13.0809827,12.9533333 14.0600232,12.3765459 14.5808103,11.4630798 C14.6346395,11.3702774 14.7333294,11.3127083 14.8385417,11.3127083 L14.8385417,11.3127083 L14.9318418,11.3230354 C15.0066217,11.343396 15.0712344,11.3929766 15.1123421,11.463852 C15.6357218,12.3769858 16.6147641,12.9533333 17.6953125,12.9533333 C19.3321139,12.9533333 20.6616667,11.636379 20.6616667,10.0130208 L20.6616667,10.0130208 L20.6616667,7.63802083 L20.6464583,7.58725087 C20.6280574,7.5332884 20.6114888,7.52857367 20.5286458,7.505 L20.5286458,7.505 Z M19.7604167,3.33833333 L4.23958333,3.33833333 L4.11958333,3.45833333 L4.11958333,5.75 L4.23958333,5.87 L19.7604167,5.87 L19.8804167,5.75 L19.8804167,3.45833333 L19.7604167,3.33833333 Z" id="Combined-Shape"></path>
                    </g>
                </g>
                <g id="btn" transform="translate(-2.000000, 61.000000)">
                    <rect id="Rectangle" fill="#F1F8FE" x="0" y="1" width="214" height="30"></rect>
                    <rect id="Rectangle-Copy" fill="#FFFFFF" x="0" y="31" width="214" height="30"></rect>
                    <g id="Icon/sider/setting" transform="translate(15.000000, 6.000000)" fill="#004477">
                        <path d="M18.9583333,12.4674479 L17.5368924,11.2521701 C17.6041667,10.8398438 17.6388889,10.4188368 17.6388889,9.99782986 C17.6388889,9.57682292 17.6041667,9.15581597 17.5368924,8.74348958 L18.9583333,7.52821181 C19.1775174,7.34157986 19.2578125,7.03776042 19.1601563,6.76432292 L19.140625,6.70789931 C18.7478299,5.61197917 18.1662326,4.60503472 17.4110243,3.71527778 L17.3719618,3.66970486 C17.1853299,3.45052083 16.8836806,3.36805556 16.6102431,3.46354167 L14.8459201,4.09071181 C14.1948785,3.55685764 13.4678819,3.13585069 12.6822917,2.84071181 L12.3415799,0.99609375 C12.2894965,0.711805556 12.0659722,0.490451389 11.781684,0.438368056 L11.7230903,0.427517361 C10.5924479,0.223524306 9.40321181,0.223524306 8.27256944,0.427517361 L8.21397569,0.438368056 C7.9296875,0.490451389 7.70616319,0.711805556 7.65407986,0.99609375 L7.31119792,2.84939236 C6.53211806,3.14453125 5.80946181,3.56336806 5.16276042,4.09505208 L3.38541667,3.46354167 C3.11414931,3.36805556 2.81032986,3.44835069 2.62369792,3.66970486 L2.58463542,3.71527778 C1.82942708,4.60720486 1.24782986,5.61414931 0.855034722,6.70789931 L0.835503472,6.76432292 C0.737847222,7.03559028 0.818142361,7.33940972 1.03732639,7.52821181 L2.47612847,8.75651042 C2.40885417,9.16449653 2.37630208,9.58116319 2.37630208,9.99565972 C2.37630208,10.4123264 2.40885417,10.8289931 2.47612847,11.234809 L1.03732639,12.4631076 C0.818142361,12.6497396 0.737847222,12.953559 0.835503472,13.2269965 L0.855034722,13.2834201 C1.24782986,14.3771701 1.82942708,15.3862847 2.58463542,16.2760417 L2.62369792,16.3216146 C2.81032986,16.5407986 3.11197917,16.6232639 3.38541667,16.5277778 L5.16276042,15.8962674 C5.80946181,16.4279514 6.53211806,16.8489583 7.31119792,17.1419271 L7.65407986,18.9952257 C7.70616319,19.2795139 7.9296875,19.5008681 8.21397569,19.5529514 L8.27256944,19.5638021 C8.83897569,19.6657986 9.41840278,19.7178819 9.99782986,19.7178819 C10.5772569,19.7178819 11.1588542,19.6657986 11.7230903,19.5638021 L11.781684,19.5529514 C12.0659722,19.5008681 12.2894965,19.2795139 12.3415799,18.9952257 L12.6822917,17.1506076 C13.4678819,16.8554687 14.1948785,16.4366319 14.8459201,15.9006076 L16.6102431,16.5277778 C16.8815104,16.6232639 17.1853299,16.5429687 17.3719618,16.3216146 L17.4110243,16.2760417 C18.1662326,15.3841146 18.7478299,14.3771701 19.140625,13.2834201 L19.1601563,13.2269965 C19.2578125,12.9600694 19.1775174,12.65625 18.9583333,12.4674479 L18.9583333,12.4674479 Z M15.9960938,8.99956597 C16.0503472,9.32725694 16.078559,9.66362847 16.078559,10 C16.078559,10.3363715 16.0503472,10.6727431 15.9960938,11.000434 L15.8528646,11.8706597 L17.4739583,13.2573785 C17.2287326,13.8237847 16.9184028,14.3576389 16.5494792,14.8546007 L14.5355903,14.140625 L13.8541667,14.7005208 C13.3355035,15.1258681 12.7582465,15.4600694 12.1332465,15.6944444 L11.3064236,16.0047743 L10.9179688,18.109809 C10.3081597,18.1792535 9.68532986,18.1792535 9.07335069,18.109809 L8.68489583,16.000434 L7.86458333,15.6857639 C7.24609375,15.4513889 6.67100694,15.1171875 6.15668403,14.6940104 L5.47526042,14.1319444 L3.44835069,14.8524306 C3.07942708,14.3554688 2.77126736,13.8194444 2.52387153,13.2552083 L4.16232639,11.8554687 L4.02126736,10.9874132 C3.96918403,10.6640625 3.94097222,10.3298611 3.94097222,10 C3.94097222,9.66796875 3.96701389,9.3359375 4.02126736,9.01258681 L4.16232639,8.14453125 L2.52387153,6.74479167 C2.76909722,6.17838542 3.07942708,5.64453125 3.44835069,5.14756944 L5.47526042,5.86805556 L6.15668403,5.30598958 C6.67100694,4.8828125 7.24609375,4.54861111 7.86458333,4.31423611 L8.68706597,4.00390625 L9.07552083,1.89453125 C9.68532986,1.82508681 10.3081597,1.82508681 10.9201389,1.89453125 L11.3085938,3.99956597 L12.1354167,4.30989583 C12.7582465,4.54427083 13.3376736,4.87847222 13.8563368,5.30381944 L14.5377604,5.86371528 L16.5516493,5.14973958 C16.9205729,5.64670139 17.2287326,6.18272569 17.4761285,6.74696181 L15.8550347,8.13368056 L15.9960938,8.99956597 Z M10,5.96354167 C7.890625,5.96354167 6.18055556,7.67361111 6.18055556,9.78298611 C6.18055556,11.8923611 7.890625,13.6024306 10,13.6024306 C12.109375,13.6024306 13.8194444,11.8923611 13.8194444,9.78298611 C13.8194444,7.67361111 12.109375,5.96354167 10,5.96354167 Z M11.71875,11.5017361 C11.2586806,11.9596354 10.6488715,12.2135417 10,12.2135417 C9.35112847,12.2135417 8.74131944,11.9596354 8.28125,11.5017361 C7.82335069,11.0416667 7.56944444,10.4318576 7.56944444,9.78298611 C7.56944444,9.13411458 7.82335069,8.52430556 8.28125,8.06423611 C8.74131944,7.60416667 9.35112847,7.35243056 10,7.35243056 C10.6488715,7.35243056 11.2586806,7.60416667 11.71875,8.06423611 C12.1766493,8.52430556 12.4305556,9.13411458 12.4305556,9.78298611 C12.4305556,10.4318576 12.1766493,11.0416667 11.71875,11.5017361 Z" id="Shape"></path>
                    </g>
                    <g id="Shape" transform="translate(15.000000, 36.000000)" fill="#7F7F7F">
                        <path d="M17.879,5.65 C18.012,5.891 17.906,6.191 17.658,6.31 L16.933,6.66 C16.685,6.78 16.387,6.674 16.25,6.434 C15.535,5.18 14.456,4.166 13.15,3.53 C11.695,2.822 10.042,2.624 8.46,2.97 C6.88,3.317 5.46,4.187 4.434,5.439 C3.408,6.691 2.834,8.253 2.805,9.872 C2.776,11.491 3.295,13.072 4.275,14.36 C5.256,15.648 6.643,16.568 8.211,16.97 C9.78,17.372 11.438,17.234 12.918,16.578 C14.245,15.989 15.36,15.014 16.119,13.786 C16.265,13.551 16.566,13.456 16.809,13.585 L17.521,13.959 C17.766,14.089 17.861,14.391 17.719,14.629 C16.767,16.215 15.348,17.474 13.649,18.227 C11.799,19.048 9.724,19.221 7.763,18.717 C5.802,18.214 4.067,17.064 2.84,15.453 C1.613,13.843 0.965,11.864 1.001,9.84 C1.038,7.815 1.755,5.862 3.039,4.295 C4.322,2.73 6.097,1.641 8.075,1.208 C10.053,0.775 12.12,1.022 13.94,1.908 C15.61,2.722 16.985,4.03 17.879,5.65 L17.879,5.65 Z M18.929,10.387 L16.164,12.528 C16.098,12.579 16.001,12.531 16.002,12.448 L16.02,11.06 L10.202,11.06 C10.092,11.06 10.002,10.971 10.002,10.86 L10.002,9.76 C10.002,9.65 10.092,9.56 10.202,9.56 L16.038,9.56 L16.056,8.099 C16.057,8.015 16.154,7.969 16.219,8.023 L18.931,10.231 C18.981,10.271 18.981,10.348 18.929,10.387 Z"></path>
                    </g>
                    <text id="帳號設定" font-family="PingFangTC-Regular, PingFang TC" font-size="14" font-weight="normal" line-spacing="22" fill="#004477">
                        <tspan x="43" y="20">已選</tspan>
                    </text>
                    <polygon id="Rectangle-12" fill-opacity="0.09" fill="#000000" points="0 0 214 0 214 1 0 1"></polygon>
                    <text id="登出" font-family="PingFangTC-Regular, PingFang TC" font-size="14" font-weight="normal" line-spacing="22" fill="#7F7F7F">
                        <tspan x="43" y="50">未選</tspan>
                    </text>
                </g>
            </g>
            <g id="size-width:-Button/Primary/Basic/Medium" transform="translate(20.000000, 336.000000)">
                <g id="Group" transform="translate(0.000000, 0.500000)" fill="#FF5500" fill-rule="nonzero">
                    <g id="line">
                        <path id="Line" d="M210,9 L209,9 L209,5 L1,5 L1,9 L0,9 L0,0 L1,0 L1,4 L209,4 L209,0 L210,0 L210,9 Z"></path>
                    </g>
                </g>
                <g id="Number" transform="translate(79.500000, 10.000000)">
                    <path d="M25.5,0 L28.5,3 L49,3 C50.1045695,3 51,3.8954305 51,5 L51,23 C51,24.1045695 50.1045695,25 49,25 L2,25 C0.8954305,25 -8.67738547e-17,24.1045695 0,23 L0,5 C-3.57315355e-16,3.8954305 0.8954305,3 2,3 L22.5,3 L25.5,0 Z" id="Bg" fill="#FF5500"></path>
                    <text id="数据" font-family="Menlo-Regular, Menlo" font-size="12" font-weight="normal" fill="#FFFFFF">
                        <tspan x="7.43847656" y="18">210px</tspan>
                    </text>
                </g>
            </g>
            <text id="圖示尺寸：20x20px-字級：14pt" font-family="PingFangTC-Regular, PingFang TC" font-size="16" font-weight="normal" line-spacing="24" fill="#4C4C4C">
                <tspan x="260" y="210">圖示尺寸：20x20px</tspan>
                <tspan x="260" y="234">字級：14pt，最多10個字</tspan>
            </text>
            <g id="Breadcrumber/_Resources/Default/Non-current-page" transform="translate(70.000000, 30.000000)" fill="#FFFFFF">
                <g id="Group" transform="translate(0.000000, 24.000000)" fill-opacity="0.65" font-family="PingFangTC-Regular, PingFang TC" font-size="14" font-weight="normal">
                    <g id="Breadcrumber/_Resources/Default/Non-current-page">
                        <text id="選單">
                            <tspan x="0" y="17">一級選單</tspan>
                        </text>
                        <text id="/">
                            <tspan x="66" y="17">/</tspan>
                        </text>
                    </g>
                    <g transform="translate(83.000000, 0.000000)" id="Breadcrumber/_Resources/Default/Non-current-page-Copy-2">
                        <text id="選單">
                            <tspan x="0" y="17">二級選單</tspan>
                        </text>
                    </g>
                </g>
                <g id="Group" font-family="PingFangTC-Semibold, PingFang TC" font-size="18" font-weight="500">
                    <g id="Breadcrumber/_Resources/Default/Non-current-page">
                        <text id="當前選單">
                            <tspan x="0" y="19">自訂標題</tspan>
                        </text>
                    </g>
                </g>
            </g>
        </g>
    </g>
</svg>