<?xml version="1.0" encoding="UTF-8"?>
<svg width="830px" height="359px" viewBox="0 0 830 359" version="1.1" xmlns="http://www.w3.org/2000/svg" xmlns:xlink="http://www.w3.org/1999/xlink">
    <title>input05</title>
    <defs>
        <path d="M12.2458984,4.10292969 C12.2458984,4.23417969 12.2021484,4.36679687 12.1146484,4.47753906 L7.45390625,10.2716797 C7.34042969,10.4125 7.16953125,10.4945312 6.98769531,10.4945312 C6.80722656,10.4945312 6.63496094,10.4125 6.52285156,10.2716797 L1.88671875,4.50214844 C1.68027344,4.24511719 1.72128906,3.86914062 1.97832031,3.66269531 C2.23535156,3.45625 2.61132813,3.49726562 2.81777344,3.75429687 L6.9890625,8.94414062 L11.1835938,3.72832031 C11.3900391,3.47128906 11.7660156,3.43027344 12.0230469,3.63671875 C12.1693359,3.75566406 12.2458984,3.92792969 12.2458984,4.10292969 Z" id="path-1"></path>
        <path d="M12.2458984,4.10292969 C12.2458984,4.23417969 12.2021484,4.36679687 12.1146484,4.47753906 L7.45390625,10.2716797 C7.34042969,10.4125 7.16953125,10.4945312 6.98769531,10.4945312 C6.80722656,10.4945312 6.63496094,10.4125 6.52285156,10.2716797 L1.88671875,4.50214844 C1.68027344,4.24511719 1.72128906,3.86914062 1.97832031,3.66269531 C2.23535156,3.45625 2.61132813,3.49726562 2.81777344,3.75429687 L6.9890625,8.94414062 L11.1835938,3.72832031 C11.3900391,3.47128906 11.7660156,3.43027344 12.0230469,3.63671875 C12.1693359,3.75566406 12.2458984,3.92792969 12.2458984,4.10292969 Z" id="path-3"></path>
        <path d="M12.2458984,4.10292969 C12.2458984,4.23417969 12.2021484,4.36679687 12.1146484,4.47753906 L7.45390625,10.2716797 C7.34042969,10.4125 7.16953125,10.4945312 6.98769531,10.4945312 C6.80722656,10.4945312 6.63496094,10.4125 6.52285156,10.2716797 L1.88671875,4.50214844 C1.68027344,4.24511719 1.72128906,3.86914062 1.97832031,3.66269531 C2.23535156,3.45625 2.61132813,3.49726562 2.81777344,3.75429687 L6.9890625,8.94414062 L11.1835938,3.72832031 C11.3900391,3.47128906 11.7660156,3.43027344 12.0230469,3.63671875 C12.1693359,3.75566406 12.2458984,3.92792969 12.2458984,4.10292969 Z" id="path-5"></path>
        <path d="M12.2458984,4.10292969 C12.2458984,4.23417969 12.2021484,4.36679687 12.1146484,4.47753906 L7.45390625,10.2716797 C7.34042969,10.4125 7.16953125,10.4945312 6.98769531,10.4945312 C6.80722656,10.4945312 6.63496094,10.4125 6.52285156,10.2716797 L1.88671875,4.50214844 C1.68027344,4.24511719 1.72128906,3.86914062 1.97832031,3.66269531 C2.23535156,3.45625 2.61132813,3.49726562 2.81777344,3.75429687 L6.9890625,8.94414062 L11.1835938,3.72832031 C11.3900391,3.47128906 11.7660156,3.43027344 12.0230469,3.63671875 C12.1693359,3.75566406 12.2458984,3.92792969 12.2458984,4.10292969 Z" id="path-7"></path>
        <path d="M12.2458984,4.10292969 C12.2458984,4.23417969 12.2021484,4.36679687 12.1146484,4.47753906 L7.45390625,10.2716797 C7.34042969,10.4125 7.16953125,10.4945312 6.98769531,10.4945312 C6.80722656,10.4945312 6.63496094,10.4125 6.52285156,10.2716797 L1.88671875,4.50214844 C1.68027344,4.24511719 1.72128906,3.86914062 1.97832031,3.66269531 C2.23535156,3.45625 2.61132813,3.49726562 2.81777344,3.75429687 L6.9890625,8.94414062 L11.1835938,3.72832031 C11.3900391,3.47128906 11.7660156,3.43027344 12.0230469,3.63671875 C12.1693359,3.75566406 12.2458984,3.92792969 12.2458984,4.10292969 Z" id="path-9"></path>
        <path d="M12.2458984,4.10292969 C12.2458984,4.23417969 12.2021484,4.36679687 12.1146484,4.47753906 L7.45390625,10.2716797 C7.34042969,10.4125 7.16953125,10.4945312 6.98769531,10.4945312 C6.80722656,10.4945312 6.63496094,10.4125 6.52285156,10.2716797 L1.88671875,4.50214844 C1.68027344,4.24511719 1.72128906,3.86914062 1.97832031,3.66269531 C2.23535156,3.45625 2.61132813,3.49726562 2.81777344,3.75429687 L6.9890625,8.94414062 L11.1835938,3.72832031 C11.3900391,3.47128906 11.7660156,3.43027344 12.0230469,3.63671875 C12.1693359,3.75566406 12.2458984,3.92792969 12.2458984,4.10292969 Z" id="path-11"></path>
    </defs>
    <g id="XXXGuideline" stroke="none" stroke-width="1" fill="none" fill-rule="evenodd">
        <g id="Guideline_數據輸入" transform="translate(-110.000000, -1401.000000)">
            <g id="input05" transform="translate(110.000000, 1401.000000)">
                <rect id="bg" x="0" y="0" width="830" height="359" rx="8"></rect>
                <g id="Primary-Button" transform="translate(20.000000, 20.000000)">
                    <g id="Input/Medium/style1/placeholder-2" transform="translate(0.000000, 29.000000)">
                        <g id="Select/Medium/Placeholder">
                            <path d="M176.009394,0.5 C176.973525,0.5 177.846323,0.891510214 178.477937,1.52528451 C179.10962,2.15912821 179.5,3.03517539 179.5,4.0042577 L179.5,4.0042577 L179.5,27.9957423 C179.5,28.9641957 179.109953,29.8410666 178.477688,30.4754947 C177.846792,31.1085481 176.974765,31.5 176.009394,31.5 L176.009394,31.5 L3.99060623,31.5 C3.02647481,31.5 2.15367672,31.1084898 1.5220631,30.4747155 C0.890380331,29.8408718 0.5,28.9648246 0.5,27.9957423 L0.5,27.9957423 L0.5,4.0042577 C0.5,3.03580432 0.890047312,2.1589334 1.52231245,1.52450535 C2.15320766,0.891451911 3.0252352,0.5 3.99060623,0.5 L3.99060623,0.5 Z" id="Rectangle" stroke="#CCCCCC" fill="#FFFFFF"></path>
                            <text id="Text" font-family="PingFangTC-Regular, PingFang TC" font-size="14" font-weight="normal" line-spacing="22" fill="#B4B4B4">
                                <tspan x="10" y="21">請輸入</tspan>
                            </text>
                        </g>
                        <g id="Group" transform="translate(132.000000, 0.000000)">
                            <path d="M47.5,0.5 L47.5,31.5 L4.00989318,31.5 C3.04015798,31.5 2.16217799,31.108292 1.52685581,30.4738627 C0.892338401,29.8402371 0.5,28.9645478 0.5,27.9957423 L0.5,27.9957423 L0.5,4.0042577 C0.5,3.03652388 0.89260964,2.16043117 1.52761508,1.52631817 C2.16269312,0.892132658 3.04018103,0.5 4.00989318,0.5 L4.00989318,0.5 L47.5,0.5 Z" id="Rectangle" stroke="#CCCCCC" fill="#F2F2F2" transform="translate(24.000000, 16.000000) scale(-1, 1) translate(-24.000000, -16.000000) "></path>
                            <text id="Text" font-family="PingFangTC-Regular, PingFang TC" font-size="14" font-weight="normal" line-spacing="22" fill="#7F7F7F">
                                <tspan x="9.293" y="20">0/10</tspan>
                            </text>
                        </g>
                    </g>
                    <g id="Input/Medium/style1/placeholder-2-Copy-13" transform="translate(200.000000, 29.000000)">
                        <g id="電話">
                            <path d="M176.009394,0.5 C176.973525,0.5 177.846323,0.891510214 178.477937,1.52528451 C179.10962,2.15912821 179.5,3.03517539 179.5,4.0042577 L179.5,4.0042577 L179.5,27.9957423 C179.5,28.9641957 179.109953,29.8410666 178.477688,30.4754947 C177.846792,31.1085481 176.974765,31.5 176.009394,31.5 L176.009394,31.5 L3.99060623,31.5 C3.02647481,31.5 2.15367672,31.1084898 1.5220631,30.4747155 C0.890380331,29.8408718 0.5,28.9648246 0.5,27.9957423 L0.5,27.9957423 L0.5,4.0042577 C0.5,3.03580432 0.890047312,2.1589334 1.52231245,1.52450535 C2.15320766,0.891451911 3.0252352,0.5 3.99060623,0.5 L3.99060623,0.5 Z" id="Rectangle" stroke="#CCCCCC" fill="#FFFFFF"></path>
                            <text id="Text" font-family="PingFangTC-Regular, PingFang TC" font-size="14" font-weight="normal" line-spacing="22" fill="#545454">
                                <tspan x="10" y="21">0988888888</tspan>
                            </text>
                        </g>
                        <g id="Group" transform="translate(126.000000, 0.000000)">
                            <path d="M53.5,0.5 L53.5,31.5 L3.99267864,31.5 C3.02794513,31.5 2.15459012,31.1084686 1.52257799,30.4746236 C0.890590605,29.8408034 0.5,28.9647947 0.5,27.9957423 L0.5,27.9957423 L0.5,4.0042577 C0.5,3.03745483 0.89244571,2.16215703 1.52466154,1.52810774 C2.15769484,0.893238587 3.0313145,0.5 3.99267864,0.5 L3.99267864,0.5 L53.5,0.5 Z" id="Rectangle" stroke="#CCCCCC" fill="#F2F2F2" transform="translate(27.000000, 16.000000) scale(-1, 1) translate(-27.000000, -16.000000) "></path>
                            <text id="Text" font-family="PingFangTC-Regular, PingFang TC" font-size="14" font-weight="normal" line-spacing="22" fill="#7F7F7F">
                                <tspan x="9.486" y="20">10/10</tspan>
                            </text>
                        </g>
                    </g>
                    <g id="Input/Medium/style1/placeholder-2-Copy-11" transform="translate(400.000000, 29.000000)">
                        <path d="M176.009394,0.5 C176.973525,0.5 177.846323,0.891510214 178.477937,1.52528451 C179.10962,2.15912821 179.5,3.03517539 179.5,4.0042577 L179.5,4.0042577 L179.5,27.9957423 C179.5,28.9641957 179.109953,29.8410666 178.477688,30.4754947 C177.846792,31.1085481 176.974765,31.5 176.009394,31.5 L176.009394,31.5 L3.99060623,31.5 C3.02647481,31.5 2.15367672,31.1084898 1.5220631,30.4747155 C0.890380331,29.8408718 0.5,28.9648246 0.5,27.9957423 L0.5,27.9957423 L0.5,4.0042577 C0.5,3.03580432 0.890047312,2.1589334 1.52231245,1.52450535 C2.15320766,0.891451911 3.0252352,0.5 3.99060623,0.5 L3.99060623,0.5 Z" id="Rectangle" stroke="#CCCCCC" fill="#F2F2F2"></path>
                        <text id="Text" font-family="PingFangTC-Regular, PingFang TC" font-size="14" font-weight="normal" line-spacing="22" fill="#B4B4B4">
                            <tspan x="10" y="20">0988888888</tspan>
                        </text>
                        <g id="字數" transform="translate(132.000000, 0.000000)">
                            <path d="M47.5,0.5 L47.5,31.5 L4.00989318,31.5 C3.04015798,31.5 2.16217799,31.108292 1.52685581,30.4738627 C0.892338401,29.8402371 0.5,28.9645478 0.5,27.9957423 L0.5,27.9957423 L0.5,4.0042577 C0.5,3.03652388 0.89260964,2.16043117 1.52761508,1.52631817 C2.16269312,0.892132658 3.04018103,0.5 4.00989318,0.5 L4.00989318,0.5 L47.5,0.5 Z" id="Rectangle" stroke="#CCCCCC" fill="#F2F2F2" transform="translate(24.000000, 16.000000) scale(-1, 1) translate(-24.000000, -16.000000) "></path>
                            <text id="Text" font-family="PingFangTC-Regular, PingFang TC" font-size="14" font-weight="normal" line-spacing="22" fill="#7F7F7F">
                                <tspan x="6.486" y="20">10/10</tspan>
                            </text>
                        </g>
                    </g>
                    <g id="Input/Medium/style1/placeholder-2-Copy-12" transform="translate(600.000000, 29.000000)">
                        <path d="M176.009394,0.5 C176.973525,0.5 177.846323,0.891510214 178.477937,1.52528451 C179.10962,2.15912821 179.5,3.03517539 179.5,4.0042577 L179.5,4.0042577 L179.5,27.9957423 C179.5,28.9641957 179.109953,29.8410666 178.477688,30.4754947 C177.846792,31.1085481 176.974765,31.5 176.009394,31.5 L176.009394,31.5 L3.99060623,31.5 C3.02647481,31.5 2.15367672,31.1084898 1.5220631,30.4747155 C0.890380331,29.8408718 0.5,28.9648246 0.5,27.9957423 L0.5,27.9957423 L0.5,4.0042577 C0.5,3.03580432 0.890047312,2.1589334 1.52231245,1.52450535 C2.15320766,0.891451911 3.0252352,0.5 3.99060623,0.5 L3.99060623,0.5 Z" id="Rectangle-26-Copy-23" stroke="#F5222D" fill="#FFFFFF"></path>
                        <g id="Group" transform="translate(132.000000, 0.000000)">
                            <path d="M47.5,0.5 L47.5,31.5 L4.00989318,31.5 C3.04015798,31.5 2.16217799,31.108292 1.52685581,30.4738627 C0.892338401,29.8402371 0.5,28.9645478 0.5,27.9957423 L0.5,27.9957423 L0.5,4.0042577 C0.5,3.03652388 0.89260964,2.16043117 1.52761508,1.52631817 C2.16269312,0.892132658 3.04018103,0.5 4.00989318,0.5 L4.00989318,0.5 L47.5,0.5 Z" id="Rectangle" stroke="#F5222D" fill="#FFFFFF" transform="translate(24.000000, 16.000000) scale(-1, 1) translate(-24.000000, -16.000000) "></path>
                            <text id="Text" font-family="PingFangTC-Regular, PingFang TC" font-size="14" font-weight="normal" fill="#F5222D">
                                <tspan x="7.5" y="21">0/20</tspan>
                            </text>
                        </g>
                        <text id="Text" font-family="PingFangTC-Regular, PingFang TC" font-size="14" font-weight="normal" line-spacing="22" fill="#545454">
                            <tspan x="10" y="21">123</tspan>
                        </text>
                    </g>
                    <g id="Others/Tips/Error-Copy-3" transform="translate(600.000000, 64.000000)">
                        <g id="Group" transform="translate(0.000000, 4.407407)">
                            <rect id="Rectangle" fill="#F5222D" x="0" y="0" width="151" height="22" rx="4"></rect>
                            <text id="此欄位必填" font-family="PingFangTC-Regular, PingFang TC" font-size="12" font-weight="normal" fill="#FFFFFF">
                                <tspan x="5" y="15">請輸入 09 + 8 個半形數字</tspan>
                            </text>
                        </g>
                        <polygon id="Triangle-1" fill="#F5222D" points="15 0 10 5 20 5"></polygon>
                    </g>
                    <g id="Others/Tips/Error-Copy-4" transform="translate(510.000000, 155.000000)">
                        <g id="Group" transform="translate(0.000000, 4.407407)">
                            <rect id="Rectangle" fill="#F5222D" x="0" y="0" width="135" height="22" rx="4"></rect>
                            <text id="此欄位必填" font-family="PingFangTC-Regular, PingFang TC" font-size="12" font-weight="normal" fill="#FFFFFF">
                                <tspan x="5" y="15">請輸入 5~8 個半形數字</tspan>
                            </text>
                        </g>
                        <polygon id="Triangle-1" fill="#F5222D" points="15 0 10 5 20 5"></polygon>
                    </g>
                    <g id="Others/Tips/Error-Copy-4" transform="translate(400.000000, 288.000000)">
                        <g id="Group" transform="translate(0.000000, 4.407407)">
                            <rect id="Rectangle" fill="#F5222D" x="0" y="0" width="104" height="22" rx="4"></rect>
                            <text id="此欄位必填" font-family="PingFangTC-Regular, PingFang TC" font-size="12" font-weight="normal" fill="#FFFFFF">
                                <tspan x="5" y="15">請輸入 1~50 個字</tspan>
                            </text>
                        </g>
                        <polygon id="Triangle-1" fill="#F5222D" points="15 0 10 5 20 5"></polygon>
                    </g>
                    <g id="Others/Tips/Error-Copy-5" transform="translate(675.000000, 155.000000)">
                        <g id="Group" transform="translate(-30.000000, 4.407407)">
                            <rect id="Rectangle" fill="#F5222D" x="0" y="0" width="137" height="22" rx="4"></rect>
                            <text id="此欄位必填" font-family="PingFangTC-Regular, PingFang TC" font-size="12" font-weight="normal" fill="#FFFFFF">
                                <tspan x="5" y="15">請輸入 1~10 個半形數字</tspan>
                            </text>
                        </g>
                        <polygon id="Triangle-1" fill="#F5222D" points="15 0 10 5 20 5"></polygon>
                    </g>
                    <text id="手機" font-family="PingFangTC-Regular, PingFang TC" font-size="16" font-weight="normal" line-spacing="24" fill="#4C4C4C">
                        <tspan x="0" y="17">手機</tspan>
                    </text>
                    <text id="市話" font-family="PingFangTC-Regular, PingFang TC" font-size="16" font-weight="normal" line-spacing="24" fill="#4C4C4C">
                        <tspan x="0" y="108">市話</tspan>
                    </text>
                    <text id="地址" font-family="PingFangTC-Regular, PingFang TC" font-size="16" font-weight="normal" line-spacing="24" fill="#4C4C4C">
                        <tspan x="0" y="199">地址</tspan>
                    </text>
                    <g id="Input/Medium/style1/placeholder-2-Copy-15" transform="translate(0.000000, 120.000000)">
                        <g id="Group-2" transform="translate(275.000000, 0.000000)">
                            <g id="分機" transform="translate(15.000000, 0.000000)">
                                <path d="M86.0020607,0.5 C86.9683227,0.5 87.8430912,0.891585316 88.4761149,1.52560946 C89.1088755,2.15937007 89.5,3.03528105 89.5,4.0042577 L89.5,4.0042577 L89.5,27.9957423 C89.5,28.9626136 89.1072104,29.8379495 88.4741896,30.4719707 C87.8402976,31.1068645 86.9653563,31.5 86.0020607,31.5 L86.0020607,31.5 L3.99793926,31.5 C3.03167733,31.5 2.15690878,31.1084147 1.52388508,30.4743905 C0.891124499,29.8406299 0.5,28.964719 0.5,27.9957423 L0.5,27.9957423 L0.5,4.0042577 C0.5,3.03738644 0.892789577,2.16205055 1.52581042,1.52802926 C2.15970239,0.893135471 3.03464369,0.5 3.99793926,0.5 L3.99793926,0.5 Z" id="Rectangle" stroke="#CCCCCC" fill="#FFFFFF"></path>
                                <text id="Text" font-family="PingFangTC-Regular, PingFang TC" font-size="14" font-weight="normal" line-spacing="22" fill="#545454">
                                    <tspan x="10" y="21">1234</tspan>
                                </text>
                            </g>
                            <text id="#" font-family="PingFangTC-Regular, PingFang TC" font-size="14" font-weight="normal" line-spacing="22" fill="#545454">
                                <tspan x="0" y="20">#</tspan>
                            </text>
                        </g>
                        <g id="電話" transform="translate(109.000000, 0.000000)">
                            <path d="M157.000142,0.5 C157.966961,0.5 158.842246,0.891604983 159.475638,1.52569433 C160.108681,2.15943325 160.5,3.03530861 160.5,4.0042577 L160.5,4.0042577 L160.5,27.9957423 C160.5,28.9630798 160.107679,29.8388475 159.474268,30.4729556 C158.840538,31.1073827 157.965399,31.5 157.000142,31.5 L157.000142,31.5 L3.99985792,31.5 C3.03303854,31.5 2.15775447,31.108395 1.52436184,30.4743057 C0.89131927,29.8405668 0.5,28.9646914 0.5,27.9957423 L0.5,27.9957423 L0.5,4.0042577 C0.5,3.03692017 0.892320782,2.16115246 1.52573212,1.52704438 C2.15946207,0.892617339 3.03460085,0.5 3.99985792,0.5 L3.99985792,0.5 Z" id="Rectangle" stroke="#CCCCCC" fill="#FFFFFF"></path>
                            <text id="Text" font-family="PingFangTC-Regular, PingFang TC" font-size="14" font-weight="normal" line-spacing="22" fill="#545454">
                                <tspan x="10" y="21">12345678</tspan>
                            </text>
                        </g>
                        <g id="Group">
                            <text id="-" font-family="PingFangTC-Regular, PingFang TC" font-size="14" font-weight="normal" line-spacing="22" fill="#545454">
                                <tspan x="95" y="20">-</tspan>
                            </text>
                            <g id="區碼">
                                <path d="M86.0020607,0.5 C86.9683227,0.5 87.8430912,0.891585316 88.4761149,1.52560946 C89.1088755,2.15937007 89.5,3.03528105 89.5,4.0042577 L89.5,4.0042577 L89.5,27.9957423 C89.5,28.9626136 89.1072104,29.8379495 88.4741896,30.4719707 C87.8402976,31.1068645 86.9653563,31.5 86.0020607,31.5 L86.0020607,31.5 L3.99793926,31.5 C3.03167733,31.5 2.15690878,31.1084147 1.52388508,30.4743905 C0.891124499,29.8406299 0.5,28.964719 0.5,27.9957423 L0.5,27.9957423 L0.5,4.0042577 C0.5,3.03738644 0.892789577,2.16205055 1.52581042,1.52802926 C2.15970239,0.893135471 3.03464369,0.5 3.99793926,0.5 L3.99793926,0.5 Z" id="Rectangle-26-Copy-23" stroke="#CCCCCC" fill="#FFFFFF"></path>
                                <g id="Group" transform="translate(66.000000, 9.000000)">
                                    <mask id="mask-2" fill="white">
                                        <use xlink:href="#path-1"></use>
                                    </mask>
                                    <use id="Mask" fill="#7F7F7F" xlink:href="#path-1"></use>
                                </g>
                                <text id="Text" font-family="PingFangTC-Semibold, PingFang TC" font-size="14" font-weight="500" line-spacing="22" fill="#545454">
                                    <tspan x="10" y="20">02</tspan>
                                </text>
                            </g>
                        </g>
                    </g>
                    <g id="Input/Medium/style1/placeholder-2-Copy-20" transform="translate(400.000000, 120.000000)">
                        <g id="Group-2" transform="translate(275.000000, 0.000000)">
                            <g id="分機" transform="translate(15.000000, 0.000000)">
                                <path d="M86.0020607,0.5 C86.9683227,0.5 87.8430912,0.891585316 88.4761149,1.52560946 C89.1088755,2.15937007 89.5,3.03528105 89.5,4.0042577 L89.5,4.0042577 L89.5,27.9957423 C89.5,28.9626136 89.1072104,29.8379495 88.4741896,30.4719707 C87.8402976,31.1068645 86.9653563,31.5 86.0020607,31.5 L86.0020607,31.5 L3.99793926,31.5 C3.03167733,31.5 2.15690878,31.1084147 1.52388508,30.4743905 C0.891124499,29.8406299 0.5,28.964719 0.5,27.9957423 L0.5,27.9957423 L0.5,4.0042577 C0.5,3.03738644 0.892789577,2.16205055 1.52581042,1.52802926 C2.15970239,0.893135471 3.03464369,0.5 3.99793926,0.5 L3.99793926,0.5 Z" id="Rectangle-26-Copy-23" stroke="#F5222D" fill="#FFFFFF"></path>
                                <text id="Text" font-family="PingFangTC-Regular, PingFang TC" font-size="14" font-weight="normal" line-spacing="22" fill="#545454">
                                    <tspan x="10" y="21">123</tspan>
                                </text>
                            </g>
                            <text id="#" font-family="PingFangTC-Regular, PingFang TC" font-size="14" font-weight="normal" line-spacing="22" fill="#545454">
                                <tspan x="0" y="20">#</tspan>
                            </text>
                        </g>
                        <g id="電話" transform="translate(109.000000, 0.000000)">
                            <path d="M157.000142,0.5 C157.966961,0.5 158.842246,0.891604983 159.475638,1.52569433 C160.108681,2.15943325 160.5,3.03530861 160.5,4.0042577 L160.5,4.0042577 L160.5,27.9957423 C160.5,28.9630798 160.107679,29.8388475 159.474268,30.4729556 C158.840538,31.1073827 157.965399,31.5 157.000142,31.5 L157.000142,31.5 L3.99985792,31.5 C3.03303854,31.5 2.15775447,31.108395 1.52436184,30.4743057 C0.89131927,29.8405668 0.5,28.9646914 0.5,27.9957423 L0.5,27.9957423 L0.5,4.0042577 C0.5,3.03692017 0.892320782,2.16115246 1.52573212,1.52704438 C2.15946207,0.892617339 3.03460085,0.5 3.99985792,0.5 L3.99985792,0.5 Z" id="Rectangle" stroke="#F5222D" fill="#FFFFFF"></path>
                            <text id="Text" font-family="PingFangTC-Regular, PingFang TC" font-size="14" font-weight="normal" line-spacing="22" fill="#545454">
                                <tspan x="10" y="21">123</tspan>
                            </text>
                        </g>
                        <g id="Group">
                            <text id="-" font-family="PingFangTC-Regular, PingFang TC" font-size="14" font-weight="normal" line-spacing="22" fill="#545454">
                                <tspan x="95" y="20">-</tspan>
                            </text>
                            <g id="區碼">
                                <path d="M86.0020607,0.5 C86.9683227,0.5 87.8430912,0.891585316 88.4761149,1.52560946 C89.1088755,2.15937007 89.5,3.03528105 89.5,4.0042577 L89.5,4.0042577 L89.5,27.9957423 C89.5,28.9626136 89.1072104,29.8379495 88.4741896,30.4719707 C87.8402976,31.1068645 86.9653563,31.5 86.0020607,31.5 L86.0020607,31.5 L3.99793926,31.5 C3.03167733,31.5 2.15690878,31.1084147 1.52388508,30.4743905 C0.891124499,29.8406299 0.5,28.964719 0.5,27.9957423 L0.5,27.9957423 L0.5,4.0042577 C0.5,3.03738644 0.892789577,2.16205055 1.52581042,1.52802926 C2.15970239,0.893135471 3.03464369,0.5 3.99793926,0.5 L3.99793926,0.5 Z" id="Rectangle-26-Copy-23" stroke="#CCCCCC" fill="#FFFFFF"></path>
                                <g id="Group" transform="translate(66.000000, 9.000000)">
                                    <mask id="mask-4" fill="white">
                                        <use xlink:href="#path-3"></use>
                                    </mask>
                                    <use id="Mask" fill="#7F7F7F" xlink:href="#path-3"></use>
                                </g>
                                <text id="Text" font-family="PingFangTC-Regular, PingFang TC" font-size="14" font-weight="normal" line-spacing="22" fill="#545454">
                                    <tspan x="10" y="20">02</tspan>
                                </text>
                            </g>
                        </g>
                    </g>
                    <g id="Input/Medium/style1/placeholder-2-Copy-18" transform="translate(0.000000, 211.000000)">
                        <g id="Group" transform="translate(0.000000, 0.000000)">
                            <g id="區碼" transform="translate(0.000000, 0.000000)">
                                <path d="M86.0020607,0.5 C86.9683227,0.5 87.8430912,0.891585316 88.4761149,1.52560946 C89.1088755,2.15937007 89.5,3.03528105 89.5,4.0042577 L89.5,4.0042577 L89.5,27.9957423 C89.5,28.9626136 89.1072104,29.8379495 88.4741896,30.4719707 C87.8402976,31.1068645 86.9653563,31.5 86.0020607,31.5 L86.0020607,31.5 L3.99793926,31.5 C3.03167733,31.5 2.15690878,31.1084147 1.52388508,30.4743905 C0.891124499,29.8406299 0.5,28.964719 0.5,27.9957423 L0.5,27.9957423 L0.5,4.0042577 C0.5,3.03738644 0.892789577,2.16205055 1.52581042,1.52802926 C2.15970239,0.893135471 3.03464369,0.5 3.99793926,0.5 L3.99793926,0.5 Z" id="Rectangle" stroke="#CCCCCC" fill="#F2F2F2"></path>
                                <text id="Text" font-family="PingFangTC-Regular, PingFang TC" font-size="14" font-weight="normal" line-spacing="22" fill="#B4B4B4">
                                    <tspan x="10" y="20">200</tspan>
                                </text>
                            </g>
                        </g>
                        <g id="Input/單位/Input/前後(單位)" transform="translate(0.000000, 42.000000)">
                            <path d="M376.005353,0.5 C376.970658,0.5 377.844542,0.89155159 378.476933,1.5254637 C379.10921,2.15926158 379.5,3.03523368 379.5,4.0042577 L379.5,4.0042577 L379.5,27.9957423 C379.5,28.9622109 379.106945,29.8371825 378.474507,30.4711419 C377.840766,31.1064081 376.966418,31.5 376.005353,31.5 L376.005353,31.5 L3.99464746,31.5 C3.02934194,31.5 2.15545788,31.1084484 1.52306716,30.4745363 C0.890790396,29.8407384 0.5,28.9647663 0.5,27.9957423 L0.5,27.9957423 L0.5,4.0042577 C0.5,3.03778911 0.893054786,2.16281754 1.52549277,1.52885805 C2.15923428,0.893591905 3.03358165,0.5 3.99464746,0.5 L3.99464746,0.5 Z" id="Rectangle" stroke="#CCCCCC" fill="#FFFFFF"></path>
                            <g id="Group" transform="translate(327.000000, 0.000000)">
                                <path d="M52.5,0.5 L52.5,31.5 L4.00533953,31.5 C3.03692745,31.5 2.1601707,31.1083388 1.52572406,30.4740635 C0.891875868,29.8403865 0.5,28.9646128 0.5,27.9957423 L0.5,27.9957423 L0.5,4.0042577 C0.5,3.03665837 0.892417922,2.1606702 1.52670995,1.52654949 C2.16112777,0.892303027 3.03752073,0.5 4.00533953,0.5 L4.00533953,0.5 L52.5,0.5 Z" id="Rectangle" stroke="#CCCCCC" fill="#F2F2F2" transform="translate(26.500000, 16.000000) scale(-1, 1) translate(-26.500000, -16.000000) "></path>
                                <text id="Text" font-family="PingFangTC-Regular, PingFang TC" font-size="14" font-weight="normal" line-spacing="22" fill="#7F7F7F">
                                    <tspan x="7.593" y="20">10/50</tspan>
                                </text>
                            </g>
                            <text id="Text" font-family="PingFangTC-Regular, PingFang TC" font-size="14" font-weight="normal" line-spacing="22" fill="#545454">
                                <tspan x="10" y="20">南京東路五段92號</tspan>
                            </text>
                        </g>
                        <g id="Group" transform="translate(95.000000, 0.000000)">
                            <g id="Select/Medium/Selected">
                                <path d="M135.583306,0.5 C136.552646,0.5 137.430259,0.891693963 138.06532,1.52607721 C138.699637,2.15971823 139.091837,3.03543277 139.091837,4.0042577 L139.091837,4.0042577 L139.091837,27.9957423 C139.091837,28.96384 138.699836,29.8402847 138.064956,30.4744884 C137.430511,31.1082564 136.55361,31.5 135.583306,31.5 L135.583306,31.5 L4.00853047,31.5 C3.03919122,31.5 2.16157729,31.108306 1.52651711,30.4739228 C0.89219997,29.8402818 0.5,28.9645672 0.5,27.9957423 L0.5,27.9957423 L0.5,4.0042577 C0.5,3.03616001 0.892000569,2.15971532 1.52688102,1.52551159 C2.16132529,0.891743589 3.03822711,0.5 4.00853047,0.5 L4.00853047,0.5 Z" id="Rectangle-26-Copy-23" stroke="#CCCCCC" fill="#FFFFFF"></path>
                                <g id="Group" transform="translate(115.591837, 9.000000)">
                                    <mask id="mask-6" fill="white">
                                        <use xlink:href="#path-5"></use>
                                    </mask>
                                    <use id="Mask" fill="#7F7F7F" xlink:href="#path-5"></use>
                                </g>
                                <text id="Text" font-family="PingFangTC-Semibold, PingFang TC" font-size="14" font-weight="500" line-spacing="22" fill="#545454">
                                    <tspan x="10" y="20">台北市</tspan>
                                </text>
                            </g>
                            <g transform="translate(145.408163, 0.000000)" id="Select/Medium/Selected-Copy">
                                <path d="M135.583306,0.5 C136.552646,0.5 137.430259,0.891693963 138.06532,1.52607721 C138.699637,2.15971823 139.091837,3.03543277 139.091837,4.0042577 L139.091837,4.0042577 L139.091837,27.9957423 C139.091837,28.96384 138.699836,29.8402847 138.064956,30.4744884 C137.430511,31.1082564 136.55361,31.5 135.583306,31.5 L135.583306,31.5 L4.00853047,31.5 C3.03919122,31.5 2.16157729,31.108306 1.52651711,30.4739228 C0.89219997,29.8402818 0.5,28.9645672 0.5,27.9957423 L0.5,27.9957423 L0.5,4.0042577 C0.5,3.03616001 0.892000569,2.15971532 1.52688102,1.52551159 C2.16132529,0.891743589 3.03822711,0.5 4.00853047,0.5 L4.00853047,0.5 Z" id="Rectangle-26-Copy-23" stroke="#CCCCCC" fill="#FFFFFF"></path>
                                <g id="Group" transform="translate(115.591837, 9.000000)">
                                    <mask id="mask-8" fill="white">
                                        <use xlink:href="#path-7"></use>
                                    </mask>
                                    <use id="Mask" fill="#7F7F7F" xlink:href="#path-7"></use>
                                </g>
                                <text id="Text" font-family="PingFangTC-Semibold, PingFang TC" font-size="14" font-weight="500" line-spacing="22" fill="#545454">
                                    <tspan x="10" y="20">松山區</tspan>
                                </text>
                            </g>
                        </g>
                    </g>
                    <g id="Input/Medium/style1/placeholder-2-Copy-19" transform="translate(400.000000, 211.000000)">
                        <g id="區碼">
                            <path d="M86.0020607,0.5 C86.9683227,0.5 87.8430912,0.891585316 88.4761149,1.52560946 C89.1088755,2.15937007 89.5,3.03528105 89.5,4.0042577 L89.5,4.0042577 L89.5,27.9957423 C89.5,28.9626136 89.1072104,29.8379495 88.4741896,30.4719707 C87.8402976,31.1068645 86.9653563,31.5 86.0020607,31.5 L86.0020607,31.5 L3.99793926,31.5 C3.03167733,31.5 2.15690878,31.1084147 1.52388508,30.4743905 C0.891124499,29.8406299 0.5,28.964719 0.5,27.9957423 L0.5,27.9957423 L0.5,4.0042577 C0.5,3.03738644 0.892789577,2.16205055 1.52581042,1.52802926 C2.15970239,0.893135471 3.03464369,0.5 3.99793926,0.5 L3.99793926,0.5 Z" id="Rectangle" stroke="#CCCCCC" fill="#F2F2F2"></path>
                            <text id="Text" font-family="PingFangTC-Regular, PingFang TC" font-size="14" font-weight="normal" line-spacing="22" fill="#B4B4B4">
                                <tspan x="10" y="20">郵遞區號</tspan>
                            </text>
                        </g>
                        <g id="Input/單位/Input/前後(單位)" transform="translate(0.000000, 42.000000)">
                            <path d="M376.005353,0.5 C376.970658,0.5 377.844542,0.89155159 378.476933,1.5254637 C379.10921,2.15926158 379.5,3.03523368 379.5,4.0042577 L379.5,4.0042577 L379.5,27.9957423 C379.5,28.9622109 379.106945,29.8371825 378.474507,30.4711419 C377.840766,31.1064081 376.966418,31.5 376.005353,31.5 L376.005353,31.5 L3.99464746,31.5 C3.02934194,31.5 2.15545788,31.1084484 1.52306716,30.4745363 C0.890790396,29.8407384 0.5,28.9647663 0.5,27.9957423 L0.5,27.9957423 L0.5,4.0042577 C0.5,3.03778911 0.893054786,2.16281754 1.52549277,1.52885805 C2.15923428,0.893591905 3.03358165,0.5 3.99464746,0.5 L3.99464746,0.5 Z" id="Rectangle-26-Copy-23" stroke="#F5222D" fill="#FFFFFF"></path>
                            <g id="Group" transform="translate(332.000000, 0.000000)">
                                <path d="M47.5,0.5 L47.5,31.5 L4.00989318,31.5 C3.04015798,31.5 2.16217799,31.108292 1.52685581,30.4738627 C0.892338401,29.8402371 0.5,28.9645478 0.5,27.9957423 L0.5,27.9957423 L0.5,4.0042577 C0.5,3.03652388 0.89260964,2.16043117 1.52761508,1.52631817 C2.16269312,0.892132658 3.04018103,0.5 4.00989318,0.5 L4.00989318,0.5 L47.5,0.5 Z" id="Rectangle" stroke="#F5222D" fill="#FFFFFF" transform="translate(24.000000, 16.000000) scale(-1, 1) translate(-24.000000, -16.000000) "></path>
                                <text id="Text" font-family="PingFangTC-Regular, PingFang TC" font-size="14" font-weight="normal" fill="#F5222D">
                                    <tspan x="7.5" y="21">0/50</tspan>
                                </text>
                            </g>
                            <text id="Text" font-family="PingFangTC-Regular, PingFang TC" font-size="14" font-weight="normal" line-spacing="22" fill="#B4B4B4">
                                <tspan x="10" y="21">請輸入</tspan>
                            </text>
                        </g>
                        <g id="Group" transform="translate(95.000000, 0.000000)">
                            <g id="Select/Medium/Selected">
                                <path d="M135.583306,0.5 C136.552646,0.5 137.430259,0.891693963 138.06532,1.52607721 C138.699637,2.15971823 139.091837,3.03543277 139.091837,4.0042577 L139.091837,4.0042577 L139.091837,27.9957423 C139.091837,28.96384 138.699836,29.8402847 138.064956,30.4744884 C137.430511,31.1082564 136.55361,31.5 135.583306,31.5 L135.583306,31.5 L4.00853047,31.5 C3.03919122,31.5 2.16157729,31.108306 1.52651711,30.4739228 C0.89219997,29.8402818 0.5,28.9645672 0.5,27.9957423 L0.5,27.9957423 L0.5,4.0042577 C0.5,3.03616001 0.892000569,2.15971532 1.52688102,1.52551159 C2.16132529,0.891743589 3.03822711,0.5 4.00853047,0.5 L4.00853047,0.5 Z" id="Rectangle-26-Copy-23" stroke="#F5222D" fill="#FFFFFF"></path>
                                <g id="Group" transform="translate(115.591837, 9.000000)">
                                    <mask id="mask-10" fill="white">
                                        <use xlink:href="#path-9"></use>
                                    </mask>
                                    <use id="Mask" fill="#7F7F7F" xlink:href="#path-9"></use>
                                </g>
                                <text id="Text" font-family="PingFangTC-Regular, PingFang TC" font-size="14" font-weight="normal" line-spacing="22" fill="#B4B4B4">
                                    <tspan x="10" y="20">縣市</tspan>
                                </text>
                            </g>
                            <g transform="translate(145.408163, 0.000000)" id="Select/Medium/Selected-Copy">
                                <path d="M135.583306,0.5 C136.552646,0.5 137.430259,0.891693963 138.06532,1.52607721 C138.699637,2.15971823 139.091837,3.03543277 139.091837,4.0042577 L139.091837,4.0042577 L139.091837,27.9957423 C139.091837,28.96384 138.699836,29.8402847 138.064956,30.4744884 C137.430511,31.1082564 136.55361,31.5 135.583306,31.5 L135.583306,31.5 L4.00853047,31.5 C3.03919122,31.5 2.16157729,31.108306 1.52651711,30.4739228 C0.89219997,29.8402818 0.5,28.9645672 0.5,27.9957423 L0.5,27.9957423 L0.5,4.0042577 C0.5,3.03616001 0.892000569,2.15971532 1.52688102,1.52551159 C2.16132529,0.891743589 3.03822711,0.5 4.00853047,0.5 L4.00853047,0.5 Z" id="Rectangle-26-Copy-23" stroke="#F5222D" fill="#FFFFFF"></path>
                                <g id="Group" transform="translate(115.591837, 9.000000)">
                                    <mask id="mask-12" fill="white">
                                        <use xlink:href="#path-11"></use>
                                    </mask>
                                    <use id="Mask" fill="#7F7F7F" xlink:href="#path-11"></use>
                                </g>
                                <text id="Text" font-family="PingFangTC-Regular, PingFang TC" font-size="14" font-weight="normal" line-spacing="22" fill="#B4B4B4">
                                    <tspan x="10" y="20">區域</tspan>
                                </text>
                            </g>
                        </g>
                    </g>
                </g>
            </g>
        </g>
    </g>
</svg>