<?xml version="1.0" encoding="UTF-8"?>
<svg width="830px" height="130px" viewBox="0 0 830 130" version="1.1" xmlns="http://www.w3.org/2000/svg" xmlns:xlink="http://www.w3.org/1999/xlink">
    <title>input06</title>
    <defs>
        <rect id="path-1" x="0" y="15" width="17" height="15"></rect>
        <filter x="-2.9%" y="-3.3%" width="105.9%" height="106.7%" filterUnits="objectBoundingBox" id="filter-2">
            <feOffset dx="1" dy="0" in="SourceAlpha" result="shadowOffsetInner1"></feOffset>
            <feComposite in="shadowOffsetInner1" in2="SourceAlpha" operator="arithmetic" k2="-1" k3="1" result="shadowInnerInner1"></feComposite>
            <feColorMatrix values="0 0 0 0 0.8   0 0 0 0 0.8   0 0 0 0 0.8  0 0 0 1 0" type="matrix" in="shadowInnerInner1" result="shadowMatrixInner1"></feColorMatrix>
            <feOffset dx="0" dy="0.5" in="SourceAlpha" result="shadowOffsetInner2"></feOffset>
            <feComposite in="shadowOffsetInner2" in2="SourceAlpha" operator="arithmetic" k2="-1" k3="1" result="shadowInnerInner2"></feComposite>
            <feColorMatrix values="0 0 0 0 0.8   0 0 0 0 0.8   0 0 0 0 0.8  0 0 0 1 0" type="matrix" in="shadowInnerInner2" result="shadowMatrixInner2"></feColorMatrix>
            <feMerge>
                <feMergeNode in="shadowMatrixInner1"></feMergeNode>
                <feMergeNode in="shadowMatrixInner2"></feMergeNode>
            </feMerge>
        </filter>
        <rect id="path-3" x="0" y="0" width="17" height="15"></rect>
        <filter x="-2.9%" y="-3.3%" width="105.9%" height="106.7%" filterUnits="objectBoundingBox" id="filter-4">
            <feOffset dx="1" dy="0" in="SourceAlpha" result="shadowOffsetInner1"></feOffset>
            <feComposite in="shadowOffsetInner1" in2="SourceAlpha" operator="arithmetic" k2="-1" k3="1" result="shadowInnerInner1"></feComposite>
            <feColorMatrix values="0 0 0 0 0.8   0 0 0 0 0.8   0 0 0 0 0.8  0 0 0 1 0" type="matrix" in="shadowInnerInner1" result="shadowMatrixInner1"></feColorMatrix>
            <feOffset dx="0" dy="-0.5" in="SourceAlpha" result="shadowOffsetInner2"></feOffset>
            <feComposite in="shadowOffsetInner2" in2="SourceAlpha" operator="arithmetic" k2="-1" k3="1" result="shadowInnerInner2"></feComposite>
            <feColorMatrix values="0 0 0 0 0.8   0 0 0 0 0.8   0 0 0 0 0.8  0 0 0 1 0" type="matrix" in="shadowInnerInner2" result="shadowMatrixInner2"></feColorMatrix>
            <feMerge>
                <feMergeNode in="shadowMatrixInner1"></feMergeNode>
                <feMergeNode in="shadowMatrixInner2"></feMergeNode>
            </feMerge>
        </filter>
        <path d="M6.99765625,2.34453125 C6.99765625,2.41953125 6.97265625,2.4953125 6.92265625,2.55859375 L4.259375,5.86953125 C4.19453125,5.95 4.096875,5.996875 3.99296875,5.996875 C3.88984375,5.996875 3.79140625,5.95 3.72734375,5.86953125 L1.078125,2.57265625 C0.96015625,2.42578125 0.98359375,2.2109375 1.13046875,2.09296875 C1.27734375,1.975 1.4921875,1.9984375 1.61015625,2.1453125 L3.99375,5.1109375 L6.390625,2.13046875 C6.50859375,1.98359375 6.7234375,1.96015625 6.8703125,2.078125 C6.95390625,2.14609375 6.99765625,2.24453125 6.99765625,2.34453125 Z" id="path-5"></path>
        <path d="M6.99765625,5.65546875 C6.99765625,5.58046875 6.97265625,5.5046875 6.92265625,5.44140625 L4.259375,2.13046875 C4.19453125,2.05 4.096875,2.003125 3.99296875,2.003125 C3.88984375,2.003125 3.79140625,2.05 3.72734375,2.13046875 L1.078125,5.42734375 C0.96015625,5.57421875 0.98359375,5.7890625 1.13046875,5.90703125 C1.27734375,6.025 1.4921875,6.0015625 1.61015625,5.8546875 L3.99375,2.8890625 L6.390625,5.86953125 C6.50859375,6.01640625 6.7234375,6.03984375 6.8703125,5.921875 C6.95390625,5.85390625 6.99765625,5.75546875 6.99765625,5.65546875 Z" id="path-7"></path>
        <rect id="path-9" x="0" y="15" width="17" height="15"></rect>
        <filter x="-2.9%" y="-3.3%" width="105.9%" height="106.7%" filterUnits="objectBoundingBox" id="filter-10">
            <feOffset dx="1" dy="0" in="SourceAlpha" result="shadowOffsetInner1"></feOffset>
            <feComposite in="shadowOffsetInner1" in2="SourceAlpha" operator="arithmetic" k2="-1" k3="1" result="shadowInnerInner1"></feComposite>
            <feColorMatrix values="0 0 0 0 0.8   0 0 0 0 0.8   0 0 0 0 0.8  0 0 0 1 0" type="matrix" in="shadowInnerInner1" result="shadowMatrixInner1"></feColorMatrix>
            <feOffset dx="0" dy="0.5" in="SourceAlpha" result="shadowOffsetInner2"></feOffset>
            <feComposite in="shadowOffsetInner2" in2="SourceAlpha" operator="arithmetic" k2="-1" k3="1" result="shadowInnerInner2"></feComposite>
            <feColorMatrix values="0 0 0 0 0.8   0 0 0 0 0.8   0 0 0 0 0.8  0 0 0 1 0" type="matrix" in="shadowInnerInner2" result="shadowMatrixInner2"></feColorMatrix>
            <feMerge>
                <feMergeNode in="shadowMatrixInner1"></feMergeNode>
                <feMergeNode in="shadowMatrixInner2"></feMergeNode>
            </feMerge>
        </filter>
        <rect id="path-11" x="0" y="0" width="17" height="15"></rect>
        <filter x="-2.9%" y="-3.3%" width="105.9%" height="106.7%" filterUnits="objectBoundingBox" id="filter-12">
            <feOffset dx="1" dy="0" in="SourceAlpha" result="shadowOffsetInner1"></feOffset>
            <feComposite in="shadowOffsetInner1" in2="SourceAlpha" operator="arithmetic" k2="-1" k3="1" result="shadowInnerInner1"></feComposite>
            <feColorMatrix values="0 0 0 0 0.8   0 0 0 0 0.8   0 0 0 0 0.8  0 0 0 1 0" type="matrix" in="shadowInnerInner1" result="shadowMatrixInner1"></feColorMatrix>
            <feOffset dx="0" dy="-0.5" in="SourceAlpha" result="shadowOffsetInner2"></feOffset>
            <feComposite in="shadowOffsetInner2" in2="SourceAlpha" operator="arithmetic" k2="-1" k3="1" result="shadowInnerInner2"></feComposite>
            <feColorMatrix values="0 0 0 0 0.8   0 0 0 0 0.8   0 0 0 0 0.8  0 0 0 1 0" type="matrix" in="shadowInnerInner2" result="shadowMatrixInner2"></feColorMatrix>
            <feMerge>
                <feMergeNode in="shadowMatrixInner1"></feMergeNode>
                <feMergeNode in="shadowMatrixInner2"></feMergeNode>
            </feMerge>
        </filter>
        <path d="M6.99765625,2.34453125 C6.99765625,2.41953125 6.97265625,2.4953125 6.92265625,2.55859375 L4.259375,5.86953125 C4.19453125,5.95 4.096875,5.996875 3.99296875,5.996875 C3.88984375,5.996875 3.79140625,5.95 3.72734375,5.86953125 L1.078125,2.57265625 C0.96015625,2.42578125 0.98359375,2.2109375 1.13046875,2.09296875 C1.27734375,1.975 1.4921875,1.9984375 1.61015625,2.1453125 L3.99375,5.1109375 L6.390625,2.13046875 C6.50859375,1.98359375 6.7234375,1.96015625 6.8703125,2.078125 C6.95390625,2.14609375 6.99765625,2.24453125 6.99765625,2.34453125 Z" id="path-13"></path>
        <path d="M6.99765625,5.65546875 C6.99765625,5.58046875 6.97265625,5.5046875 6.92265625,5.44140625 L4.259375,2.13046875 C4.19453125,2.05 4.096875,2.003125 3.99296875,2.003125 C3.88984375,2.003125 3.79140625,2.05 3.72734375,2.13046875 L1.078125,5.42734375 C0.96015625,5.57421875 0.98359375,5.7890625 1.13046875,5.90703125 C1.27734375,6.025 1.4921875,6.0015625 1.61015625,5.8546875 L3.99375,2.8890625 L6.390625,5.86953125 C6.50859375,6.01640625 6.7234375,6.03984375 6.8703125,5.921875 C6.95390625,5.85390625 6.99765625,5.75546875 6.99765625,5.65546875 Z" id="path-15"></path>
        <rect id="path-17" x="0" y="15" width="17" height="15"></rect>
        <filter x="-2.9%" y="-3.3%" width="105.9%" height="106.7%" filterUnits="objectBoundingBox" id="filter-18">
            <feOffset dx="1" dy="0" in="SourceAlpha" result="shadowOffsetInner1"></feOffset>
            <feComposite in="shadowOffsetInner1" in2="SourceAlpha" operator="arithmetic" k2="-1" k3="1" result="shadowInnerInner1"></feComposite>
            <feColorMatrix values="0 0 0 0 0.8   0 0 0 0 0.8   0 0 0 0 0.8  0 0 0 1 0" type="matrix" in="shadowInnerInner1" result="shadowMatrixInner1"></feColorMatrix>
            <feOffset dx="0" dy="0.5" in="SourceAlpha" result="shadowOffsetInner2"></feOffset>
            <feComposite in="shadowOffsetInner2" in2="SourceAlpha" operator="arithmetic" k2="-1" k3="1" result="shadowInnerInner2"></feComposite>
            <feColorMatrix values="0 0 0 0 0.8   0 0 0 0 0.8   0 0 0 0 0.8  0 0 0 1 0" type="matrix" in="shadowInnerInner2" result="shadowMatrixInner2"></feColorMatrix>
            <feMerge>
                <feMergeNode in="shadowMatrixInner1"></feMergeNode>
                <feMergeNode in="shadowMatrixInner2"></feMergeNode>
            </feMerge>
        </filter>
        <rect id="path-19" x="0" y="0" width="17" height="15"></rect>
        <filter x="-2.9%" y="-3.3%" width="105.9%" height="106.7%" filterUnits="objectBoundingBox" id="filter-20">
            <feOffset dx="1" dy="0" in="SourceAlpha" result="shadowOffsetInner1"></feOffset>
            <feComposite in="shadowOffsetInner1" in2="SourceAlpha" operator="arithmetic" k2="-1" k3="1" result="shadowInnerInner1"></feComposite>
            <feColorMatrix values="0 0 0 0 0.8   0 0 0 0 0.8   0 0 0 0 0.8  0 0 0 1 0" type="matrix" in="shadowInnerInner1" result="shadowMatrixInner1"></feColorMatrix>
            <feOffset dx="0" dy="-0.5" in="SourceAlpha" result="shadowOffsetInner2"></feOffset>
            <feComposite in="shadowOffsetInner2" in2="SourceAlpha" operator="arithmetic" k2="-1" k3="1" result="shadowInnerInner2"></feComposite>
            <feColorMatrix values="0 0 0 0 0.8   0 0 0 0 0.8   0 0 0 0 0.8  0 0 0 1 0" type="matrix" in="shadowInnerInner2" result="shadowMatrixInner2"></feColorMatrix>
            <feMerge>
                <feMergeNode in="shadowMatrixInner1"></feMergeNode>
                <feMergeNode in="shadowMatrixInner2"></feMergeNode>
            </feMerge>
        </filter>
        <path d="M6.99765625,2.34453125 C6.99765625,2.41953125 6.97265625,2.4953125 6.92265625,2.55859375 L4.259375,5.86953125 C4.19453125,5.95 4.096875,5.996875 3.99296875,5.996875 C3.88984375,5.996875 3.79140625,5.95 3.72734375,5.86953125 L1.078125,2.57265625 C0.96015625,2.42578125 0.98359375,2.2109375 1.13046875,2.09296875 C1.27734375,1.975 1.4921875,1.9984375 1.61015625,2.1453125 L3.99375,5.1109375 L6.390625,2.13046875 C6.50859375,1.98359375 6.7234375,1.96015625 6.8703125,2.078125 C6.95390625,2.14609375 6.99765625,2.24453125 6.99765625,2.34453125 Z" id="path-21"></path>
        <path d="M6.99765625,5.65546875 C6.99765625,5.58046875 6.97265625,5.5046875 6.92265625,5.44140625 L4.259375,2.13046875 C4.19453125,2.05 4.096875,2.003125 3.99296875,2.003125 C3.88984375,2.003125 3.79140625,2.05 3.72734375,2.13046875 L1.078125,5.42734375 C0.96015625,5.57421875 0.98359375,5.7890625 1.13046875,5.90703125 C1.27734375,6.025 1.4921875,6.0015625 1.61015625,5.8546875 L3.99375,2.8890625 L6.390625,5.86953125 C6.50859375,6.01640625 6.7234375,6.03984375 6.8703125,5.921875 C6.95390625,5.85390625 6.99765625,5.75546875 6.99765625,5.65546875 Z" id="path-23"></path>
        <rect id="path-25" x="0" y="15" width="17" height="15"></rect>
        <filter x="-2.9%" y="-3.3%" width="105.9%" height="106.7%" filterUnits="objectBoundingBox" id="filter-26">
            <feOffset dx="1" dy="0" in="SourceAlpha" result="shadowOffsetInner1"></feOffset>
            <feComposite in="shadowOffsetInner1" in2="SourceAlpha" operator="arithmetic" k2="-1" k3="1" result="shadowInnerInner1"></feComposite>
            <feColorMatrix values="0 0 0 0 0.8   0 0 0 0 0.8   0 0 0 0 0.8  0 0 0 1 0" type="matrix" in="shadowInnerInner1" result="shadowMatrixInner1"></feColorMatrix>
            <feOffset dx="0" dy="0.5" in="SourceAlpha" result="shadowOffsetInner2"></feOffset>
            <feComposite in="shadowOffsetInner2" in2="SourceAlpha" operator="arithmetic" k2="-1" k3="1" result="shadowInnerInner2"></feComposite>
            <feColorMatrix values="0 0 0 0 0.8   0 0 0 0 0.8   0 0 0 0 0.8  0 0 0 1 0" type="matrix" in="shadowInnerInner2" result="shadowMatrixInner2"></feColorMatrix>
            <feMerge>
                <feMergeNode in="shadowMatrixInner1"></feMergeNode>
                <feMergeNode in="shadowMatrixInner2"></feMergeNode>
            </feMerge>
        </filter>
        <rect id="path-27" x="0" y="0" width="17" height="15"></rect>
        <filter x="-2.9%" y="-3.3%" width="105.9%" height="106.7%" filterUnits="objectBoundingBox" id="filter-28">
            <feOffset dx="1" dy="0" in="SourceAlpha" result="shadowOffsetInner1"></feOffset>
            <feComposite in="shadowOffsetInner1" in2="SourceAlpha" operator="arithmetic" k2="-1" k3="1" result="shadowInnerInner1"></feComposite>
            <feColorMatrix values="0 0 0 0 0.8   0 0 0 0 0.8   0 0 0 0 0.8  0 0 0 1 0" type="matrix" in="shadowInnerInner1" result="shadowMatrixInner1"></feColorMatrix>
            <feOffset dx="0" dy="-0.5" in="SourceAlpha" result="shadowOffsetInner2"></feOffset>
            <feComposite in="shadowOffsetInner2" in2="SourceAlpha" operator="arithmetic" k2="-1" k3="1" result="shadowInnerInner2"></feComposite>
            <feColorMatrix values="0 0 0 0 0.8   0 0 0 0 0.8   0 0 0 0 0.8  0 0 0 1 0" type="matrix" in="shadowInnerInner2" result="shadowMatrixInner2"></feColorMatrix>
            <feMerge>
                <feMergeNode in="shadowMatrixInner1"></feMergeNode>
                <feMergeNode in="shadowMatrixInner2"></feMergeNode>
            </feMerge>
        </filter>
        <path d="M6.99765625,2.34453125 C6.99765625,2.41953125 6.97265625,2.4953125 6.92265625,2.55859375 L4.259375,5.86953125 C4.19453125,5.95 4.096875,5.996875 3.99296875,5.996875 C3.88984375,5.996875 3.79140625,5.95 3.72734375,5.86953125 L1.078125,2.57265625 C0.96015625,2.42578125 0.98359375,2.2109375 1.13046875,2.09296875 C1.27734375,1.975 1.4921875,1.9984375 1.61015625,2.1453125 L3.99375,5.1109375 L6.390625,2.13046875 C6.50859375,1.98359375 6.7234375,1.96015625 6.8703125,2.078125 C6.95390625,2.14609375 6.99765625,2.24453125 6.99765625,2.34453125 Z" id="path-29"></path>
        <path d="M6.99765625,5.65546875 C6.99765625,5.58046875 6.97265625,5.5046875 6.92265625,5.44140625 L4.259375,2.13046875 C4.19453125,2.05 4.096875,2.003125 3.99296875,2.003125 C3.88984375,2.003125 3.79140625,2.05 3.72734375,2.13046875 L1.078125,5.42734375 C0.96015625,5.57421875 0.98359375,5.7890625 1.13046875,5.90703125 C1.27734375,6.025 1.4921875,6.0015625 1.61015625,5.8546875 L3.99375,2.8890625 L6.390625,5.86953125 C6.50859375,6.01640625 6.7234375,6.03984375 6.8703125,5.921875 C6.95390625,5.85390625 6.99765625,5.75546875 6.99765625,5.65546875 Z" id="path-31"></path>
        <rect id="path-33" x="0" y="15" width="17" height="15"></rect>
        <filter x="-2.9%" y="-3.3%" width="105.9%" height="106.7%" filterUnits="objectBoundingBox" id="filter-34">
            <feOffset dx="1" dy="0" in="SourceAlpha" result="shadowOffsetInner1"></feOffset>
            <feComposite in="shadowOffsetInner1" in2="SourceAlpha" operator="arithmetic" k2="-1" k3="1" result="shadowInnerInner1"></feComposite>
            <feColorMatrix values="0 0 0 0 0.8   0 0 0 0 0.8   0 0 0 0 0.8  0 0 0 1 0" type="matrix" in="shadowInnerInner1" result="shadowMatrixInner1"></feColorMatrix>
            <feOffset dx="0" dy="0.5" in="SourceAlpha" result="shadowOffsetInner2"></feOffset>
            <feComposite in="shadowOffsetInner2" in2="SourceAlpha" operator="arithmetic" k2="-1" k3="1" result="shadowInnerInner2"></feComposite>
            <feColorMatrix values="0 0 0 0 0.8   0 0 0 0 0.8   0 0 0 0 0.8  0 0 0 1 0" type="matrix" in="shadowInnerInner2" result="shadowMatrixInner2"></feColorMatrix>
            <feMerge>
                <feMergeNode in="shadowMatrixInner1"></feMergeNode>
                <feMergeNode in="shadowMatrixInner2"></feMergeNode>
            </feMerge>
        </filter>
        <rect id="path-35" x="0" y="0" width="17" height="15"></rect>
        <filter x="-2.9%" y="-3.3%" width="105.9%" height="106.7%" filterUnits="objectBoundingBox" id="filter-36">
            <feOffset dx="1" dy="0" in="SourceAlpha" result="shadowOffsetInner1"></feOffset>
            <feComposite in="shadowOffsetInner1" in2="SourceAlpha" operator="arithmetic" k2="-1" k3="1" result="shadowInnerInner1"></feComposite>
            <feColorMatrix values="0 0 0 0 0.8   0 0 0 0 0.8   0 0 0 0 0.8  0 0 0 1 0" type="matrix" in="shadowInnerInner1" result="shadowMatrixInner1"></feColorMatrix>
            <feOffset dx="0" dy="-0.5" in="SourceAlpha" result="shadowOffsetInner2"></feOffset>
            <feComposite in="shadowOffsetInner2" in2="SourceAlpha" operator="arithmetic" k2="-1" k3="1" result="shadowInnerInner2"></feComposite>
            <feColorMatrix values="0 0 0 0 0.8   0 0 0 0 0.8   0 0 0 0 0.8  0 0 0 1 0" type="matrix" in="shadowInnerInner2" result="shadowMatrixInner2"></feColorMatrix>
            <feMerge>
                <feMergeNode in="shadowMatrixInner1"></feMergeNode>
                <feMergeNode in="shadowMatrixInner2"></feMergeNode>
            </feMerge>
        </filter>
        <path d="M6.99765625,2.34453125 C6.99765625,2.41953125 6.97265625,2.4953125 6.92265625,2.55859375 L4.259375,5.86953125 C4.19453125,5.95 4.096875,5.996875 3.99296875,5.996875 C3.88984375,5.996875 3.79140625,5.95 3.72734375,5.86953125 L1.078125,2.57265625 C0.96015625,2.42578125 0.98359375,2.2109375 1.13046875,2.09296875 C1.27734375,1.975 1.4921875,1.9984375 1.61015625,2.1453125 L3.99375,5.1109375 L6.390625,2.13046875 C6.50859375,1.98359375 6.7234375,1.96015625 6.8703125,2.078125 C6.95390625,2.14609375 6.99765625,2.24453125 6.99765625,2.34453125 Z" id="path-37"></path>
        <path d="M6.99765625,5.65546875 C6.99765625,5.58046875 6.97265625,5.5046875 6.92265625,5.44140625 L4.259375,2.13046875 C4.19453125,2.05 4.096875,2.003125 3.99296875,2.003125 C3.88984375,2.003125 3.79140625,2.05 3.72734375,2.13046875 L1.078125,5.42734375 C0.96015625,5.57421875 0.98359375,5.7890625 1.13046875,5.90703125 C1.27734375,6.025 1.4921875,6.0015625 1.61015625,5.8546875 L3.99375,2.8890625 L6.390625,5.86953125 C6.50859375,6.01640625 6.7234375,6.03984375 6.8703125,5.921875 C6.95390625,5.85390625 6.99765625,5.75546875 6.99765625,5.65546875 Z" id="path-39"></path>
        <rect id="path-41" x="0" y="15" width="17" height="15"></rect>
        <filter x="-2.9%" y="-3.3%" width="105.9%" height="106.7%" filterUnits="objectBoundingBox" id="filter-42">
            <feOffset dx="1" dy="0" in="SourceAlpha" result="shadowOffsetInner1"></feOffset>
            <feComposite in="shadowOffsetInner1" in2="SourceAlpha" operator="arithmetic" k2="-1" k3="1" result="shadowInnerInner1"></feComposite>
            <feColorMatrix values="0 0 0 0 0.8   0 0 0 0 0.8   0 0 0 0 0.8  0 0 0 1 0" type="matrix" in="shadowInnerInner1" result="shadowMatrixInner1"></feColorMatrix>
            <feOffset dx="0" dy="0.5" in="SourceAlpha" result="shadowOffsetInner2"></feOffset>
            <feComposite in="shadowOffsetInner2" in2="SourceAlpha" operator="arithmetic" k2="-1" k3="1" result="shadowInnerInner2"></feComposite>
            <feColorMatrix values="0 0 0 0 0.8   0 0 0 0 0.8   0 0 0 0 0.8  0 0 0 1 0" type="matrix" in="shadowInnerInner2" result="shadowMatrixInner2"></feColorMatrix>
            <feMerge>
                <feMergeNode in="shadowMatrixInner1"></feMergeNode>
                <feMergeNode in="shadowMatrixInner2"></feMergeNode>
            </feMerge>
        </filter>
        <rect id="path-43" x="0" y="0" width="17" height="15"></rect>
        <filter x="-2.9%" y="-3.3%" width="105.9%" height="106.7%" filterUnits="objectBoundingBox" id="filter-44">
            <feOffset dx="1" dy="0" in="SourceAlpha" result="shadowOffsetInner1"></feOffset>
            <feComposite in="shadowOffsetInner1" in2="SourceAlpha" operator="arithmetic" k2="-1" k3="1" result="shadowInnerInner1"></feComposite>
            <feColorMatrix values="0 0 0 0 0.8   0 0 0 0 0.8   0 0 0 0 0.8  0 0 0 1 0" type="matrix" in="shadowInnerInner1" result="shadowMatrixInner1"></feColorMatrix>
            <feOffset dx="0" dy="-0.5" in="SourceAlpha" result="shadowOffsetInner2"></feOffset>
            <feComposite in="shadowOffsetInner2" in2="SourceAlpha" operator="arithmetic" k2="-1" k3="1" result="shadowInnerInner2"></feComposite>
            <feColorMatrix values="0 0 0 0 0.8   0 0 0 0 0.8   0 0 0 0 0.8  0 0 0 1 0" type="matrix" in="shadowInnerInner2" result="shadowMatrixInner2"></feColorMatrix>
            <feMerge>
                <feMergeNode in="shadowMatrixInner1"></feMergeNode>
                <feMergeNode in="shadowMatrixInner2"></feMergeNode>
            </feMerge>
        </filter>
        <path d="M6.99765625,2.34453125 C6.99765625,2.41953125 6.97265625,2.4953125 6.92265625,2.55859375 L4.259375,5.86953125 C4.19453125,5.95 4.096875,5.996875 3.99296875,5.996875 C3.88984375,5.996875 3.79140625,5.95 3.72734375,5.86953125 L1.078125,2.57265625 C0.96015625,2.42578125 0.98359375,2.2109375 1.13046875,2.09296875 C1.27734375,1.975 1.4921875,1.9984375 1.61015625,2.1453125 L3.99375,5.1109375 L6.390625,2.13046875 C6.50859375,1.98359375 6.7234375,1.96015625 6.8703125,2.078125 C6.95390625,2.14609375 6.99765625,2.24453125 6.99765625,2.34453125 Z" id="path-45"></path>
        <path d="M6.99765625,5.65546875 C6.99765625,5.58046875 6.97265625,5.5046875 6.92265625,5.44140625 L4.259375,2.13046875 C4.19453125,2.05 4.096875,2.003125 3.99296875,2.003125 C3.88984375,2.003125 3.79140625,2.05 3.72734375,2.13046875 L1.078125,5.42734375 C0.96015625,5.57421875 0.98359375,5.7890625 1.13046875,5.90703125 C1.27734375,6.025 1.4921875,6.0015625 1.61015625,5.8546875 L3.99375,2.8890625 L6.390625,5.86953125 C6.50859375,6.01640625 6.7234375,6.03984375 6.8703125,5.921875 C6.95390625,5.85390625 6.99765625,5.75546875 6.99765625,5.65546875 Z" id="path-47"></path>
        <rect id="path-49" x="0" y="15" width="17" height="15"></rect>
        <filter x="-2.9%" y="-3.3%" width="105.9%" height="106.7%" filterUnits="objectBoundingBox" id="filter-50">
            <feOffset dx="1" dy="0" in="SourceAlpha" result="shadowOffsetInner1"></feOffset>
            <feComposite in="shadowOffsetInner1" in2="SourceAlpha" operator="arithmetic" k2="-1" k3="1" result="shadowInnerInner1"></feComposite>
            <feColorMatrix values="0 0 0 0 0.8   0 0 0 0 0.8   0 0 0 0 0.8  0 0 0 1 0" type="matrix" in="shadowInnerInner1" result="shadowMatrixInner1"></feColorMatrix>
            <feOffset dx="0" dy="0.5" in="SourceAlpha" result="shadowOffsetInner2"></feOffset>
            <feComposite in="shadowOffsetInner2" in2="SourceAlpha" operator="arithmetic" k2="-1" k3="1" result="shadowInnerInner2"></feComposite>
            <feColorMatrix values="0 0 0 0 0.8   0 0 0 0 0.8   0 0 0 0 0.8  0 0 0 1 0" type="matrix" in="shadowInnerInner2" result="shadowMatrixInner2"></feColorMatrix>
            <feMerge>
                <feMergeNode in="shadowMatrixInner1"></feMergeNode>
                <feMergeNode in="shadowMatrixInner2"></feMergeNode>
            </feMerge>
        </filter>
        <rect id="path-51" x="0" y="0" width="17" height="15"></rect>
        <filter x="-2.9%" y="-3.3%" width="105.9%" height="106.7%" filterUnits="objectBoundingBox" id="filter-52">
            <feOffset dx="1" dy="0" in="SourceAlpha" result="shadowOffsetInner1"></feOffset>
            <feComposite in="shadowOffsetInner1" in2="SourceAlpha" operator="arithmetic" k2="-1" k3="1" result="shadowInnerInner1"></feComposite>
            <feColorMatrix values="0 0 0 0 0.8   0 0 0 0 0.8   0 0 0 0 0.8  0 0 0 1 0" type="matrix" in="shadowInnerInner1" result="shadowMatrixInner1"></feColorMatrix>
            <feOffset dx="0" dy="-0.5" in="SourceAlpha" result="shadowOffsetInner2"></feOffset>
            <feComposite in="shadowOffsetInner2" in2="SourceAlpha" operator="arithmetic" k2="-1" k3="1" result="shadowInnerInner2"></feComposite>
            <feColorMatrix values="0 0 0 0 0.8   0 0 0 0 0.8   0 0 0 0 0.8  0 0 0 1 0" type="matrix" in="shadowInnerInner2" result="shadowMatrixInner2"></feColorMatrix>
            <feMerge>
                <feMergeNode in="shadowMatrixInner1"></feMergeNode>
                <feMergeNode in="shadowMatrixInner2"></feMergeNode>
            </feMerge>
        </filter>
        <path d="M6.99765625,2.34453125 C6.99765625,2.41953125 6.97265625,2.4953125 6.92265625,2.55859375 L4.259375,5.86953125 C4.19453125,5.95 4.096875,5.996875 3.99296875,5.996875 C3.88984375,5.996875 3.79140625,5.95 3.72734375,5.86953125 L1.078125,2.57265625 C0.96015625,2.42578125 0.98359375,2.2109375 1.13046875,2.09296875 C1.27734375,1.975 1.4921875,1.9984375 1.61015625,2.1453125 L3.99375,5.1109375 L6.390625,2.13046875 C6.50859375,1.98359375 6.7234375,1.96015625 6.8703125,2.078125 C6.95390625,2.14609375 6.99765625,2.24453125 6.99765625,2.34453125 Z" id="path-53"></path>
        <path d="M6.99765625,5.65546875 C6.99765625,5.58046875 6.97265625,5.5046875 6.92265625,5.44140625 L4.259375,2.13046875 C4.19453125,2.05 4.096875,2.003125 3.99296875,2.003125 C3.88984375,2.003125 3.79140625,2.05 3.72734375,2.13046875 L1.078125,5.42734375 C0.96015625,5.57421875 0.98359375,5.7890625 1.13046875,5.90703125 C1.27734375,6.025 1.4921875,6.0015625 1.61015625,5.8546875 L3.99375,2.8890625 L6.390625,5.86953125 C6.50859375,6.01640625 6.7234375,6.03984375 6.8703125,5.921875 C6.95390625,5.85390625 6.99765625,5.75546875 6.99765625,5.65546875 Z" id="path-55"></path>
        <rect id="path-57" x="0" y="15" width="17" height="15"></rect>
        <filter x="-2.9%" y="-3.3%" width="105.9%" height="106.7%" filterUnits="objectBoundingBox" id="filter-58">
            <feOffset dx="1" dy="0" in="SourceAlpha" result="shadowOffsetInner1"></feOffset>
            <feComposite in="shadowOffsetInner1" in2="SourceAlpha" operator="arithmetic" k2="-1" k3="1" result="shadowInnerInner1"></feComposite>
            <feColorMatrix values="0 0 0 0 0.8   0 0 0 0 0.8   0 0 0 0 0.8  0 0 0 1 0" type="matrix" in="shadowInnerInner1" result="shadowMatrixInner1"></feColorMatrix>
            <feOffset dx="0" dy="0.5" in="SourceAlpha" result="shadowOffsetInner2"></feOffset>
            <feComposite in="shadowOffsetInner2" in2="SourceAlpha" operator="arithmetic" k2="-1" k3="1" result="shadowInnerInner2"></feComposite>
            <feColorMatrix values="0 0 0 0 0.8   0 0 0 0 0.8   0 0 0 0 0.8  0 0 0 1 0" type="matrix" in="shadowInnerInner2" result="shadowMatrixInner2"></feColorMatrix>
            <feMerge>
                <feMergeNode in="shadowMatrixInner1"></feMergeNode>
                <feMergeNode in="shadowMatrixInner2"></feMergeNode>
            </feMerge>
        </filter>
        <rect id="path-59" x="0" y="0" width="17" height="15"></rect>
        <filter x="-2.9%" y="-3.3%" width="105.9%" height="106.7%" filterUnits="objectBoundingBox" id="filter-60">
            <feOffset dx="1" dy="0" in="SourceAlpha" result="shadowOffsetInner1"></feOffset>
            <feComposite in="shadowOffsetInner1" in2="SourceAlpha" operator="arithmetic" k2="-1" k3="1" result="shadowInnerInner1"></feComposite>
            <feColorMatrix values="0 0 0 0 0.8   0 0 0 0 0.8   0 0 0 0 0.8  0 0 0 1 0" type="matrix" in="shadowInnerInner1" result="shadowMatrixInner1"></feColorMatrix>
            <feOffset dx="0" dy="-0.5" in="SourceAlpha" result="shadowOffsetInner2"></feOffset>
            <feComposite in="shadowOffsetInner2" in2="SourceAlpha" operator="arithmetic" k2="-1" k3="1" result="shadowInnerInner2"></feComposite>
            <feColorMatrix values="0 0 0 0 0.8   0 0 0 0 0.8   0 0 0 0 0.8  0 0 0 1 0" type="matrix" in="shadowInnerInner2" result="shadowMatrixInner2"></feColorMatrix>
            <feMerge>
                <feMergeNode in="shadowMatrixInner1"></feMergeNode>
                <feMergeNode in="shadowMatrixInner2"></feMergeNode>
            </feMerge>
        </filter>
        <path d="M6.99765625,2.34453125 C6.99765625,2.41953125 6.97265625,2.4953125 6.92265625,2.55859375 L4.259375,5.86953125 C4.19453125,5.95 4.096875,5.996875 3.99296875,5.996875 C3.88984375,5.996875 3.79140625,5.95 3.72734375,5.86953125 L1.078125,2.57265625 C0.96015625,2.42578125 0.98359375,2.2109375 1.13046875,2.09296875 C1.27734375,1.975 1.4921875,1.9984375 1.61015625,2.1453125 L3.99375,5.1109375 L6.390625,2.13046875 C6.50859375,1.98359375 6.7234375,1.96015625 6.8703125,2.078125 C6.95390625,2.14609375 6.99765625,2.24453125 6.99765625,2.34453125 Z" id="path-61"></path>
        <path d="M6.99765625,5.65546875 C6.99765625,5.58046875 6.97265625,5.5046875 6.92265625,5.44140625 L4.259375,2.13046875 C4.19453125,2.05 4.096875,2.003125 3.99296875,2.003125 C3.88984375,2.003125 3.79140625,2.05 3.72734375,2.13046875 L1.078125,5.42734375 C0.96015625,5.57421875 0.98359375,5.7890625 1.13046875,5.90703125 C1.27734375,6.025 1.4921875,6.0015625 1.61015625,5.8546875 L3.99375,2.8890625 L6.390625,5.86953125 C6.50859375,6.01640625 6.7234375,6.03984375 6.8703125,5.921875 C6.95390625,5.85390625 6.99765625,5.75546875 6.99765625,5.65546875 Z" id="path-63"></path>
    </defs>
    <g id="XXXGuideline" stroke="none" stroke-width="1" fill="none" fill-rule="evenodd">
        <g id="Guideline_數據輸入" transform="translate(-110.000000, -1760.000000)">
            <g id="input06" transform="translate(110.000000, 1760.000000)">
                <rect id="bg" x="0" y="0" width="830" height="130" rx="8"></rect>
                <g id="Primary-Button" transform="translate(20.000000, 30.000000)">
                    <g id="Input/Number/placeholder">
                        <g>
                            <path d="M83.9901533,0.5 C84.959875,0.5 85.8378425,0.891707479 86.4731557,1.52613521 C87.1076663,2.1597614 87.5,3.03545155 87.5,4.0042577 L87.5,4.0042577 L87.5,27.9957423 C87.5,28.9630601 87.1068285,29.8387587 86.4719214,30.4727808 C85.8364023,31.1074142 84.958659,31.5 83.9901533,31.5 L83.9901533,31.5 L4.00984669,31.5 C3.04012499,31.5 2.1621575,31.1082925 1.52684425,30.4738648 C0.892333678,29.8402386 0.5,28.9645484 0.5,27.9957423 L0.5,27.9957423 L0.5,4.0042577 C0.5,3.03693987 0.89317146,2.16124134 1.52807859,1.52721916 C2.16359774,0.892585804 3.04134103,0.5 4.00984669,0.5 L4.00984669,0.5 Z" id="BG" stroke="#CCCCCC" fill="#FFFFFF"></path>
                            <text id="-数值" font-family="PingFangTC-Regular, PingFang TC" font-size="14" font-weight="normal" line-spacing="22" fill="#B4B4B4">
                                <tspan x="12" y="20">0</tspan>
                            </text>
                        </g>
                        <g id="Group" transform="translate(70.000000, 1.000000)">
                            <g id="BG" fill="black" fill-opacity="1">
                                <use filter="url(#filter-2)" xlink:href="#path-1"></use>
                            </g>
                            <g id="BG" fill="black" fill-opacity="1">
                                <use filter="url(#filter-4)" xlink:href="#path-3"></use>
                            </g>
                            <g transform="translate(5.000000, 19.000000)" id="Icon/system/arrow/Down/14px">
                                <mask id="mask-6" fill="white">
                                    <use xlink:href="#path-5"></use>
                                </mask>
                                <use id="Mask" fill="#B4B4B4" xlink:href="#path-5"></use>
                            </g>
                            <g transform="translate(5.000000, 3.000000)" id="Icon/system/arrow/Down/14px-Copy">
                                <mask id="mask-8" fill="white">
                                    <use xlink:href="#path-7"></use>
                                </mask>
                                <use id="Mask" fill="#B4B4B4" xlink:href="#path-7"></use>
                            </g>
                        </g>
                    </g>
                    <g id="Input/Number/placeholder" transform="translate(0.000000, 42.000000)">
                        <path d="M83.9901533,0.5 C84.959875,0.5 85.8378425,0.891707479 86.4731557,1.52613521 C87.1076663,2.1597614 87.5,3.03545155 87.5,4.0042577 L87.5,4.0042577 L87.5,27.9957423 C87.5,28.9630601 87.1068285,29.8387587 86.4719214,30.4727808 C85.8364023,31.1074142 84.958659,31.5 83.9901533,31.5 L83.9901533,31.5 L4.00984669,31.5 C3.04012499,31.5 2.1621575,31.1082925 1.52684425,30.4738648 C0.892333678,29.8402386 0.5,28.9645484 0.5,27.9957423 L0.5,27.9957423 L0.5,4.0042577 C0.5,3.03693987 0.89317146,2.16124134 1.52807859,1.52721916 C2.16359774,0.892585804 3.04134103,0.5 4.00984669,0.5 L4.00984669,0.5 Z" id="BG" stroke="#CCCCCC" fill="#FFFFFF"></path>
                        <g id="Group" transform="translate(70.000000, 1.000000)">
                            <g id="BG" fill="black" fill-opacity="1">
                                <use filter="url(#filter-10)" xlink:href="#path-9"></use>
                            </g>
                            <g id="BG" fill="black" fill-opacity="1">
                                <use filter="url(#filter-12)" xlink:href="#path-11"></use>
                            </g>
                            <g transform="translate(5.000000, 19.000000)" id="Icon/system/arrow/Down/14px">
                                <mask id="mask-14" fill="white">
                                    <use xlink:href="#path-13"></use>
                                </mask>
                                <use id="Mask" fill="#B4B4B4" xlink:href="#path-13"></use>
                            </g>
                            <g transform="translate(5.000000, 3.000000)" id="Icon/system/arrow/Down/14px-Copy">
                                <mask id="mask-16" fill="white">
                                    <use xlink:href="#path-15"></use>
                                </mask>
                                <use id="Mask" fill="#B4B4B4" xlink:href="#path-15"></use>
                            </g>
                        </g>
                        <text id="-数值" font-family="PingFangTC-Regular, PingFang TC" font-size="14" font-weight="normal" line-spacing="22" fill="#545454">
                            <tspan x="12" y="20">1</tspan>
                        </text>
                    </g>
                    <g id="Input/Number/placeholder-Copy" transform="translate(118.000000, 0.000000)">
                        <g id="Input/Number/placeholder">
                            <path d="M83.9901533,0.5 C84.959875,0.5 85.8378425,0.891707479 86.4731557,1.52613521 C87.1076663,2.1597614 87.5,3.03545155 87.5,4.0042577 L87.5,4.0042577 L87.5,27.9957423 C87.5,28.9630601 87.1068285,29.8387587 86.4719214,30.4727808 C85.8364023,31.1074142 84.958659,31.5 83.9901533,31.5 L83.9901533,31.5 L4.00984669,31.5 C3.04012499,31.5 2.1621575,31.1082925 1.52684425,30.4738648 C0.892333678,29.8402386 0.5,28.9645484 0.5,27.9957423 L0.5,27.9957423 L0.5,4.0042577 C0.5,3.03693987 0.89317146,2.16124134 1.52807859,1.52721916 C2.16359774,0.892585804 3.04134103,0.5 4.00984669,0.5 L4.00984669,0.5 Z" id="BG" stroke="#004477" fill="#FFFFFF"></path>
                            <text id="-数值" font-family="PingFangTC-Regular, PingFang TC" font-size="14" font-weight="normal" line-spacing="22" fill="#B4B4B4">
                                <tspan x="12" y="20">0</tspan>
                            </text>
                        </g>
                        <g id="Group" transform="translate(70.000000, 1.000000)">
                            <g id="BG" fill="black" fill-opacity="1">
                                <use filter="url(#filter-18)" xlink:href="#path-17"></use>
                            </g>
                            <g id="BG" fill="black" fill-opacity="1">
                                <use filter="url(#filter-20)" xlink:href="#path-19"></use>
                            </g>
                            <g transform="translate(5.000000, 19.000000)" id="Icon/system/arrow/Down/14px">
                                <mask id="mask-22" fill="white">
                                    <use xlink:href="#path-21"></use>
                                </mask>
                                <use id="Mask" fill="#B4B4B4" xlink:href="#path-21"></use>
                            </g>
                            <g transform="translate(5.000000, 3.000000)" id="Icon/system/arrow/Down/14px-Copy">
                                <mask id="mask-24" fill="white">
                                    <use xlink:href="#path-23"></use>
                                </mask>
                                <use id="Mask" fill="#B4B4B4" xlink:href="#path-23"></use>
                            </g>
                        </g>
                    </g>
                    <g id="Input/Number/placeholder" transform="translate(118.000000, 42.000000)">
                        <path d="M83.9901533,0.5 C84.959875,0.5 85.8378425,0.891707479 86.4731557,1.52613521 C87.1076663,2.1597614 87.5,3.03545155 87.5,4.0042577 L87.5,4.0042577 L87.5,27.9957423 C87.5,28.9630601 87.1068285,29.8387587 86.4719214,30.4727808 C85.8364023,31.1074142 84.958659,31.5 83.9901533,31.5 L83.9901533,31.5 L4.00984669,31.5 C3.04012499,31.5 2.1621575,31.1082925 1.52684425,30.4738648 C0.892333678,29.8402386 0.5,28.9645484 0.5,27.9957423 L0.5,27.9957423 L0.5,4.0042577 C0.5,3.03693987 0.89317146,2.16124134 1.52807859,1.52721916 C2.16359774,0.892585804 3.04134103,0.5 4.00984669,0.5 L4.00984669,0.5 Z" id="BG" stroke="#004477" fill="#FFFFFF"></path>
                        <g id="Group" transform="translate(70.000000, 1.000000)">
                            <g id="BG" fill="black" fill-opacity="1">
                                <use filter="url(#filter-26)" xlink:href="#path-25"></use>
                            </g>
                            <g id="BG" fill="black" fill-opacity="1">
                                <use filter="url(#filter-28)" xlink:href="#path-27"></use>
                            </g>
                            <g transform="translate(5.000000, 19.000000)" id="Icon/system/arrow/Down/14px">
                                <mask id="mask-30" fill="white">
                                    <use xlink:href="#path-29"></use>
                                </mask>
                                <use id="Mask" fill="#B4B4B4" xlink:href="#path-29"></use>
                            </g>
                            <g transform="translate(5.000000, 3.000000)" id="Icon/system/arrow/Down/14px-Copy">
                                <mask id="mask-32" fill="white">
                                    <use xlink:href="#path-31"></use>
                                </mask>
                                <use id="Mask" fill="#B4B4B4" xlink:href="#path-31"></use>
                            </g>
                        </g>
                        <text id="-数值" font-family="PingFangTC-Regular, PingFang TC" font-size="14" font-weight="normal" line-spacing="22" fill="#545454">
                            <tspan x="12" y="20">1</tspan>
                        </text>
                    </g>
                    <g id="Input/Number/placeholder-Copy-2" transform="translate(236.000000, 0.000000)">
                        <g id="Input/Number/placeholder">
                            <path d="M83.9901533,0.5 C84.959875,0.5 85.8378425,0.891707479 86.4731557,1.52613521 C87.1076663,2.1597614 87.5,3.03545155 87.5,4.0042577 L87.5,4.0042577 L87.5,27.9957423 C87.5,28.9630601 87.1068285,29.8387587 86.4719214,30.4727808 C85.8364023,31.1074142 84.958659,31.5 83.9901533,31.5 L83.9901533,31.5 L4.00984669,31.5 C3.04012499,31.5 2.1621575,31.1082925 1.52684425,30.4738648 C0.892333678,29.8402386 0.5,28.9645484 0.5,27.9957423 L0.5,27.9957423 L0.5,4.0042577 C0.5,3.03693987 0.89317146,2.16124134 1.52807859,1.52721916 C2.16359774,0.892585804 3.04134103,0.5 4.00984669,0.5 L4.00984669,0.5 Z" id="BG" stroke="#CCCCCC" fill="#F2F2F2"></path>
                            <text id="-数值" font-family="PingFangTC-Regular, PingFang TC" font-size="14" font-weight="normal" line-spacing="22" fill="#B4B4B4">
                                <tspan x="12" y="20">0</tspan>
                            </text>
                        </g>
                        <g id="Group" transform="translate(70.000000, 1.000000)">
                            <g id="BG" fill="black" fill-opacity="1">
                                <use filter="url(#filter-34)" xlink:href="#path-33"></use>
                            </g>
                            <g id="BG" fill="black" fill-opacity="1">
                                <use filter="url(#filter-36)" xlink:href="#path-35"></use>
                            </g>
                            <g transform="translate(5.000000, 19.000000)" id="Icon/system/arrow/Down/14px">
                                <mask id="mask-38" fill="white">
                                    <use xlink:href="#path-37"></use>
                                </mask>
                                <use id="Mask" fill="#B4B4B4" xlink:href="#path-37"></use>
                            </g>
                            <g transform="translate(5.000000, 3.000000)" id="Icon/system/arrow/Down/14px-Copy">
                                <mask id="mask-40" fill="white">
                                    <use xlink:href="#path-39"></use>
                                </mask>
                                <use id="Mask" fill="#B4B4B4" xlink:href="#path-39"></use>
                            </g>
                        </g>
                    </g>
                    <g id="Input/Number/placeholder-Copy-6" transform="translate(236.000000, 42.000000)">
                        <g id="Input/Number/placeholder">
                            <path d="M83.9901533,0.5 C84.959875,0.5 85.8378425,0.891707479 86.4731557,1.52613521 C87.1076663,2.1597614 87.5,3.03545155 87.5,4.0042577 L87.5,4.0042577 L87.5,27.9957423 C87.5,28.9630601 87.1068285,29.8387587 86.4719214,30.4727808 C85.8364023,31.1074142 84.958659,31.5 83.9901533,31.5 L83.9901533,31.5 L4.00984669,31.5 C3.04012499,31.5 2.1621575,31.1082925 1.52684425,30.4738648 C0.892333678,29.8402386 0.5,28.9645484 0.5,27.9957423 L0.5,27.9957423 L0.5,4.0042577 C0.5,3.03693987 0.89317146,2.16124134 1.52807859,1.52721916 C2.16359774,0.892585804 3.04134103,0.5 4.00984669,0.5 L4.00984669,0.5 Z" id="BG" stroke="#CCCCCC" fill="#F2F2F2"></path>
                            <text id="-数值" font-family="PingFangTC-Regular, PingFang TC" font-size="14" font-weight="normal" line-spacing="22" fill="#B4B4B4">
                                <tspan x="12" y="20">1</tspan>
                            </text>
                        </g>
                        <g id="Group" transform="translate(70.000000, 1.000000)">
                            <g id="BG" fill="black" fill-opacity="1">
                                <use filter="url(#filter-42)" xlink:href="#path-41"></use>
                            </g>
                            <g id="BG" fill="black" fill-opacity="1">
                                <use filter="url(#filter-44)" xlink:href="#path-43"></use>
                            </g>
                            <g transform="translate(5.000000, 19.000000)" id="Icon/system/arrow/Down/14px">
                                <mask id="mask-46" fill="white">
                                    <use xlink:href="#path-45"></use>
                                </mask>
                                <use id="Mask" fill="#B4B4B4" xlink:href="#path-45"></use>
                            </g>
                            <g transform="translate(5.000000, 3.000000)" id="Icon/system/arrow/Down/14px-Copy">
                                <mask id="mask-48" fill="white">
                                    <use xlink:href="#path-47"></use>
                                </mask>
                                <use id="Mask" fill="#B4B4B4" xlink:href="#path-47"></use>
                            </g>
                        </g>
                    </g>
                    <g id="Input/Number/placeholder" transform="translate(354.000000, 0.000000)">
                        <path d="M83.9901533,0.5 C84.959875,0.5 85.8378425,0.891707479 86.4731557,1.52613521 C87.1076663,2.1597614 87.5,3.03545155 87.5,4.0042577 L87.5,4.0042577 L87.5,27.9957423 C87.5,28.9630601 87.1068285,29.8387587 86.4719214,30.4727808 C85.8364023,31.1074142 84.958659,31.5 83.9901533,31.5 L83.9901533,31.5 L4.00984669,31.5 C3.04012499,31.5 2.1621575,31.1082925 1.52684425,30.4738648 C0.892333678,29.8402386 0.5,28.9645484 0.5,27.9957423 L0.5,27.9957423 L0.5,4.0042577 C0.5,3.03693987 0.89317146,2.16124134 1.52807859,1.52721916 C2.16359774,0.892585804 3.04134103,0.5 4.00984669,0.5 L4.00984669,0.5 Z" id="BG" stroke="#F5222D" fill="#FFFFFF"></path>
                        <g id="Group" transform="translate(70.000000, 1.000000)">
                            <g id="BG" fill="black" fill-opacity="1">
                                <use filter="url(#filter-50)" xlink:href="#path-49"></use>
                            </g>
                            <g id="BG" fill="black" fill-opacity="1">
                                <use filter="url(#filter-52)" xlink:href="#path-51"></use>
                            </g>
                            <g transform="translate(5.000000, 19.000000)" id="Icon/system/arrow/Down/14px">
                                <mask id="mask-54" fill="white">
                                    <use xlink:href="#path-53"></use>
                                </mask>
                                <use id="Mask" fill="#B4B4B4" xlink:href="#path-53"></use>
                            </g>
                            <g transform="translate(5.000000, 3.000000)" id="Icon/system/arrow/Down/14px-Copy">
                                <mask id="mask-56" fill="white">
                                    <use xlink:href="#path-55"></use>
                                </mask>
                                <use id="Mask" fill="#B4B4B4" xlink:href="#path-55"></use>
                            </g>
                        </g>
                        <text id="-数值" font-family="PingFangTC-Regular, PingFang TC" font-size="14" font-weight="normal" line-spacing="22" fill="#B4B4B4">
                            <tspan x="12" y="20">0</tspan>
                        </text>
                    </g>
                    <g id="Input/Number/placeholder" transform="translate(354.000000, 42.000000)">
                        <path d="M83.9901533,0.5 C84.959875,0.5 85.8378425,0.891707479 86.4731557,1.52613521 C87.1076663,2.1597614 87.5,3.03545155 87.5,4.0042577 L87.5,4.0042577 L87.5,27.9957423 C87.5,28.9630601 87.1068285,29.8387587 86.4719214,30.4727808 C85.8364023,31.1074142 84.958659,31.5 83.9901533,31.5 L83.9901533,31.5 L4.00984669,31.5 C3.04012499,31.5 2.1621575,31.1082925 1.52684425,30.4738648 C0.892333678,29.8402386 0.5,28.9645484 0.5,27.9957423 L0.5,27.9957423 L0.5,4.0042577 C0.5,3.03693987 0.89317146,2.16124134 1.52807859,1.52721916 C2.16359774,0.892585804 3.04134103,0.5 4.00984669,0.5 L4.00984669,0.5 Z" id="BG" stroke="#F5222D" fill="#FFFFFF"></path>
                        <g id="Group" transform="translate(70.000000, 1.000000)">
                            <g id="BG" fill="black" fill-opacity="1">
                                <use filter="url(#filter-58)" xlink:href="#path-57"></use>
                            </g>
                            <g id="BG" fill="black" fill-opacity="1">
                                <use filter="url(#filter-60)" xlink:href="#path-59"></use>
                            </g>
                            <g transform="translate(5.000000, 19.000000)" id="Icon/system/arrow/Down/14px">
                                <mask id="mask-62" fill="white">
                                    <use xlink:href="#path-61"></use>
                                </mask>
                                <use id="Mask" fill="#B4B4B4" xlink:href="#path-61"></use>
                            </g>
                            <g transform="translate(5.000000, 3.000000)" id="Icon/system/arrow/Down/14px-Copy">
                                <mask id="mask-64" fill="white">
                                    <use xlink:href="#path-63"></use>
                                </mask>
                                <use id="Mask" fill="#B4B4B4" xlink:href="#path-63"></use>
                            </g>
                        </g>
                        <text id="-数值" font-family="PingFangTC-Regular, PingFang TC" font-size="14" font-weight="normal" line-spacing="22" fill="#545454">
                            <tspan x="12" y="20">999999</tspan>
                        </text>
                    </g>
                </g>
            </g>
        </g>
    </g>
</svg>