<?xml version="1.0" encoding="UTF-8"?>
<svg width="830px" height="184px" viewBox="0 0 830 184" version="1.1" xmlns="http://www.w3.org/2000/svg" xmlns:xlink="http://www.w3.org/1999/xlink">
    <title>input07</title>
    <g id="XXXGuideline" stroke="none" stroke-width="1" fill="none" fill-rule="evenodd">
        <g id="Guideline_數據輸入" transform="translate(-110.000000, -1937.000000)">
            <g id="input07" transform="translate(110.000000, 1937.000000)">
                <rect id="bg" x="0" y="0" width="830" height="184" rx="8"></rect>
                <g id="Primary-Button" transform="translate(20.000000, 20.000000)">
                    <g id="Input/Medium/style2/placeholder">
                        <path d="M176.009394,0.5 C176.973525,0.5 177.846323,0.891510214 178.477937,1.52528451 C179.10962,2.15912821 179.5,3.03517539 179.5,4.0042577 L179.5,4.0042577 L179.5,27.9957423 C179.5,28.9641957 179.109953,29.8410666 178.477688,30.4754947 C177.846792,31.1085481 176.974765,31.5 176.009394,31.5 L176.009394,31.5 L3.99060623,31.5 C3.02647481,31.5 2.15367672,31.1084898 1.5220631,30.4747155 C0.890380331,29.8408718 0.5,28.9648246 0.5,27.9957423 L0.5,27.9957423 L0.5,4.0042577 C0.5,3.03580432 0.890047312,2.1589334 1.52231245,1.52450535 C2.15320766,0.891451911 3.0252352,0.5 3.99060623,0.5 L3.99060623,0.5 Z" id="Rectangle" stroke="#CCCCCC" fill="#FFFFFF"></path>
                        <g id="Icon/login/ID" transform="translate(10.000000, 9.000000)" fill="#B4B4B4">
                            <path d="M11.2027344,10.8554687 C10.9730469,10.3126953 10.6435547,9.82460937 10.2251953,9.40625 C9.80683594,8.98789062 9.31875,8.65839844 8.77597656,8.42871094 C8.59140625,8.35078125 8.40136719,8.28515625 8.20996094,8.23183594 C8.75136719,8.04863281 9.24765625,7.74238281 9.66328125,7.32675781 C10.3742187,6.61582031 10.7666016,5.66972656 10.7666016,4.66484375 C10.7666016,3.65996094 10.3755859,2.71386719 9.66328125,2.00292969 C8.95234375,1.29199219 8.00625,0.899609375 7.00136719,0.899609375 C5.99648437,0.899609375 5.05039062,1.290625 4.33945312,2.00292969 C3.62851562,2.71386719 3.23613281,3.65996094 3.23613281,4.66484375 C3.23613281,5.66972656 3.62714844,6.61582031 4.33945312,7.32675781 C4.75507812,7.74238281 5.25136719,8.04863281 5.79277344,8.23183594 C5.60136719,8.28515625 5.41132812,8.34941406 5.22675781,8.42871094 C4.68398437,8.65839844 4.19589844,8.98789062 3.77753906,9.40625 C3.35917969,9.82460937 3.0296875,10.3126953 2.8,10.8554687 C2.56210937,11.41875 2.44179687,12.0148437 2.44179687,12.6314453 C2.44179687,12.9035156 2.66191406,13.1236328 2.93398437,13.1236328 C3.20605469,13.1236328 3.42617187,12.9035156 3.42617187,12.6314453 C3.42617187,11.6757812 3.79804687,10.7775391 4.4734375,10.1021484 C5.14882812,9.42675781 6.04707031,9.05488281 7.00273437,9.05488281 C7.95839844,9.05488281 8.85664062,9.42675781 9.53203125,10.1021484 C10.2074219,10.7775391 10.5792969,11.6757812 10.5792969,12.6314453 C10.5792969,12.9035156 10.7994141,13.1236328 11.0714844,13.1236328 C11.3435547,13.1236328 11.5636719,12.9035156 11.5636719,12.6314453 C11.5609375,12.0148437 11.440625,11.41875 11.2027344,10.8554687 Z M4.21914062,4.66484375 C4.21914062,3.13085937 5.46738281,1.88398437 7,1.88398437 C8.53261719,1.88398437 9.78085937,3.13085937 9.78085937,4.66484375 C9.78085937,6.19882812 8.53398437,7.44570312 7,7.44570312 C5.46601562,7.44570312 4.21914062,6.19746094 4.21914062,4.66484375 Z" id="Shape"></path>
                        </g>
                        <text id="Text" font-family="PingFangTC-Regular, PingFang TC" font-size="14" font-weight="normal" line-spacing="22" fill="#B4B4B4">
                            <tspan x="32" y="20">管理者帳號</tspan>
                        </text>
                    </g>
                    <g id="Input/Medium/style2/placeholder-Copy-8" transform="translate(0.000000, 73.000000)">
                        <path d="M176.009394,0.5 C176.973525,0.5 177.846323,0.891510214 178.477937,1.52528451 C179.10962,2.15912821 179.5,3.03517539 179.5,4.0042577 L179.5,4.0042577 L179.5,27.9957423 C179.5,28.9641957 179.109953,29.8410666 178.477688,30.4754947 C177.846792,31.1085481 176.974765,31.5 176.009394,31.5 L176.009394,31.5 L3.99060623,31.5 C3.02647481,31.5 2.15367672,31.1084898 1.5220631,30.4747155 C0.890380331,29.8408718 0.5,28.9648246 0.5,27.9957423 L0.5,27.9957423 L0.5,4.0042577 C0.5,3.03580432 0.890047312,2.1589334 1.52231245,1.52450535 C2.15320766,0.891451911 3.0252352,0.5 3.99060623,0.5 L3.99060623,0.5 Z" id="Rectangle" stroke="#CCCCCC" fill="#FFFFFF"></path>
                        <g id="Shape" transform="translate(10.000000, 9.000000)" fill="#7F7F7F">
                            <path d="M11.2669922,3.85683594 C11.0304687,3.27304687 10.6955078,2.75078125 10.2730469,2.30644531 C9.85058594,1.85800781 9.35566406,1.50390625 8.80195312,1.25507812 C8.22910156,0.999414062 7.6234375,0.86953125 7,0.86953125 C6.3765625,0.86953125 5.76953125,0.999414062 5.19667969,1.25644531 C4.64296875,1.50390625 4.14941406,1.85800781 3.72558594,2.30644531 C3.29902344,2.75625 2.9640625,3.27851562 2.73164062,3.85683594 C2.48964844,4.45566406 2.36660156,5.09277344 2.36660156,5.75175781 L2.36660156,12.1802734 C2.36660156,12.7052734 2.77265625,13.1318359 3.27304687,13.1318359 L10.7228516,13.1318359 C11.2232422,13.1318359 11.6293415,12.7052734 11.6265625,12.1802734 L11.6265625,6.50644531 L11.6293415,6.2453125 L11.6293415,5.75175781 C11.6320312,5.09550781 11.5089844,4.45839844 11.2669922,3.85683594 Z M5.56035156,2.11640625 L5.56308594,2.11640625 L5.58085937,2.10957031 C6.02792969,1.90585937 6.50507812,1.80332031 6.99863281,1.80332031 C7.48945312,1.80332031 7.96796875,1.90722656 8.41777344,2.10683594 C8.85390625,2.30371094 9.25039062,2.58671875 9.59355469,2.94628906 C9.93945312,3.31132812 10.2087891,3.73378906 10.3988281,4.20410156 C10.5970703,4.69355469 10.696875,5.21308594 10.696875,5.75175781 L10.696875,6.15644531 L3.30039062,6.15644531 L3.30039062,6.15644531 L3.30039062,5.75039062 C3.30039062,5.2171875 3.40019531,4.69765625 3.5984375,4.20410156 C3.78984375,3.7296875 4.06191406,3.30722656 4.40371094,2.94765625 C4.74414062,2.58945312 5.13105469,2.30917969 5.56035156,2.11640625 Z M10.7009766,7.0875 L10.7009766,12.1789062 C10.7009766,12.1871094 10.6996094,12.1939453 10.6982422,12.1980469 L3.303125,12.1980469 C3.30175781,12.1939453 3.30039062,12.1871094 3.30039062,12.1789062 L3.30039062,7.0875 L10.7009766,7.0875 Z M6.56796875,9.1875 L6.56796875,10.4111328 C6.56796875,10.6503906 6.76210937,10.8445312 7.00136719,10.8445312 C7.240625,10.8445312 7.43476562,10.6503906 7.43476562,10.4111328 L7.43476562,9.18476562 C7.66445312,9.03710937 7.80253906,8.78828125 7.80253906,8.51210937 C7.80253906,8.06914062 7.44296875,7.70957031 7,7.70957031 C6.55703125,7.70957031 6.19746094,8.06914062 6.19746094,8.51210937 C6.19882812,8.78417969 6.33964844,9.04121094 6.56796875,9.1875 Z"></path>
                        </g>
                        <text id="Text" font-family="PingFangTC-Regular, PingFang TC" font-size="14" font-weight="normal" line-spacing="22" fill="#B4B4B4">
                            <tspan x="32" y="20">密碼</tspan>
                        </text>
                        <g id="Shape" transform="translate(156.000000, 9.000000)" fill="#7F7F7F">
                            <path d="M7,4.8125 C5.775,4.8125 4.8125,5.775 4.8125,7 C4.8125,8.225 5.775,9.1875 7,9.1875 C8.225,9.1875 9.1875,8.225 9.1875,7 C9.1875,5.775 8.225,4.8125 7,4.8125 Z M7,8.3125 C6.25625,8.3125 5.6875,7.74375 5.6875,7 C5.6875,6.25625 6.25625,5.6875 7,5.6875 C7.74375,5.6875 8.3125,6.25625 8.3125,7 C8.3125,7.74375 7.74375,8.3125 7,8.3125 Z M13.08125,6.825 C12.11875,4.375 9.5375,2.625 7,2.625 C4.06875,2.625 2.1,4.9 0.91875,6.78125 C0.83125,6.9125 0.83125,7.0875 0.91875,7.21875 C2.1,9.1 4.06875,11.375 7,11.375 C9.5375,11.375 12.11875,9.625 13.08125,7.175 C13.125,7.04375 13.125,6.95625 13.08125,6.825 Z M7,10.5 C4.59375,10.5 2.8875,8.6625 1.8375,7 C2.8875,5.3375 4.59375,3.5 7,3.5 C9.1,3.5 11.33125,4.9875 12.20625,7 C11.33125,9.0125 9.1,10.5 7,10.5 Z"></path>
                        </g>
                    </g>
                    <g id="Input/Medium/style2/placeholder-Copy-9" transform="translate(200.000000, 73.000000)">
                        <path d="M176.009394,0.5 C176.973525,0.5 177.846323,0.891510214 178.477937,1.52528451 C179.10962,2.15912821 179.5,3.03517539 179.5,4.0042577 L179.5,4.0042577 L179.5,27.9957423 C179.5,28.9641957 179.109953,29.8410666 178.477688,30.4754947 C177.846792,31.1085481 176.974765,31.5 176.009394,31.5 L176.009394,31.5 L3.99060623,31.5 C3.02647481,31.5 2.15367672,31.1084898 1.5220631,30.4747155 C0.890380331,29.8408718 0.5,28.9648246 0.5,27.9957423 L0.5,27.9957423 L0.5,4.0042577 C0.5,3.03580432 0.890047312,2.1589334 1.52231245,1.52450535 C2.15320766,0.891451911 3.0252352,0.5 3.99060623,0.5 L3.99060623,0.5 Z" id="Rectangle" stroke="#CCCCCC" fill="#FFFFFF"></path>
                        <g id="Shape" transform="translate(10.000000, 9.000000)" fill="#7F7F7F">
                            <path d="M11.2669922,3.85683594 C11.0304687,3.27304687 10.6955078,2.75078125 10.2730469,2.30644531 C9.85058594,1.85800781 9.35566406,1.50390625 8.80195312,1.25507812 C8.22910156,0.999414062 7.6234375,0.86953125 7,0.86953125 C6.3765625,0.86953125 5.76953125,0.999414062 5.19667969,1.25644531 C4.64296875,1.50390625 4.14941406,1.85800781 3.72558594,2.30644531 C3.29902344,2.75625 2.9640625,3.27851562 2.73164062,3.85683594 C2.48964844,4.45566406 2.36660156,5.09277344 2.36660156,5.75175781 L2.36660156,12.1802734 C2.36660156,12.7052734 2.77265625,13.1318359 3.27304687,13.1318359 L10.7228516,13.1318359 C11.2232422,13.1318359 11.6293415,12.7052734 11.6265625,12.1802734 L11.6265625,6.50644531 L11.6293415,6.2453125 L11.6293415,5.75175781 C11.6320312,5.09550781 11.5089844,4.45839844 11.2669922,3.85683594 Z M5.56035156,2.11640625 L5.56308594,2.11640625 L5.58085937,2.10957031 C6.02792969,1.90585937 6.50507812,1.80332031 6.99863281,1.80332031 C7.48945312,1.80332031 7.96796875,1.90722656 8.41777344,2.10683594 C8.85390625,2.30371094 9.25039062,2.58671875 9.59355469,2.94628906 C9.93945312,3.31132812 10.2087891,3.73378906 10.3988281,4.20410156 C10.5970703,4.69355469 10.696875,5.21308594 10.696875,5.75175781 L10.696875,6.15644531 L3.30039062,6.15644531 L3.30039062,6.15644531 L3.30039062,5.75039062 C3.30039062,5.2171875 3.40019531,4.69765625 3.5984375,4.20410156 C3.78984375,3.7296875 4.06191406,3.30722656 4.40371094,2.94765625 C4.74414062,2.58945312 5.13105469,2.30917969 5.56035156,2.11640625 Z M10.7009766,7.0875 L10.7009766,12.1789062 C10.7009766,12.1871094 10.6996094,12.1939453 10.6982422,12.1980469 L3.303125,12.1980469 C3.30175781,12.1939453 3.30039062,12.1871094 3.30039062,12.1789062 L3.30039062,7.0875 L10.7009766,7.0875 Z M6.56796875,9.1875 L6.56796875,10.4111328 C6.56796875,10.6503906 6.76210937,10.8445312 7.00136719,10.8445312 C7.240625,10.8445312 7.43476562,10.6503906 7.43476562,10.4111328 L7.43476562,9.18476562 C7.66445312,9.03710937 7.80253906,8.78828125 7.80253906,8.51210937 C7.80253906,8.06914062 7.44296875,7.70957031 7,7.70957031 C6.55703125,7.70957031 6.19746094,8.06914062 6.19746094,8.51210937 C6.19882812,8.78417969 6.33964844,9.04121094 6.56796875,9.1875 Z"></path>
                        </g>
                        <text id="Text" font-family="PingFangTC-Regular, PingFang TC" font-size="14" font-weight="normal" line-spacing="22" fill="#545454">
                            <tspan x="32" y="20">123456</tspan>
                        </text>
                        <g id="Shape" transform="translate(156.000000, 9.000000)" fill="#7F7F7F">
                            <path d="M7,4.8125 C5.775,4.8125 4.8125,5.775 4.8125,7 C4.8125,8.225 5.775,9.1875 7,9.1875 C8.225,9.1875 9.1875,8.225 9.1875,7 C9.1875,5.775 8.225,4.8125 7,4.8125 Z M7,8.3125 C6.25625,8.3125 5.6875,7.74375 5.6875,7 C5.6875,6.25625 6.25625,5.6875 7,5.6875 C7.74375,5.6875 8.3125,6.25625 8.3125,7 C8.3125,7.74375 7.74375,8.3125 7,8.3125 Z M13.08125,6.825 C12.11875,4.375 9.5375,2.625 7,2.625 C4.06875,2.625 2.1,4.9 0.91875,6.78125 C0.83125,6.9125 0.83125,7.0875 0.91875,7.21875 C2.1,9.1 4.06875,11.375 7,11.375 C9.5375,11.375 12.11875,9.625 13.08125,7.175 C13.125,7.04375 13.125,6.95625 13.08125,6.825 Z M7,10.5 C4.59375,10.5 2.8875,8.6625 1.8375,7 C2.8875,5.3375 4.59375,3.5 7,3.5 C9.1,3.5 11.33125,4.9875 12.20625,7 C11.33125,9.0125 9.1,10.5 7,10.5 Z"></path>
                        </g>
                    </g>
                    <g id="Input/Medium/style2/placeholder-Copy-10" transform="translate(400.000000, 73.000000)">
                        <path d="M176.009394,0.5 C176.973525,0.5 177.846323,0.891510214 178.477937,1.52528451 C179.10962,2.15912821 179.5,3.03517539 179.5,4.0042577 L179.5,4.0042577 L179.5,27.9957423 C179.5,28.9641957 179.109953,29.8410666 178.477688,30.4754947 C177.846792,31.1085481 176.974765,31.5 176.009394,31.5 L176.009394,31.5 L3.99060623,31.5 C3.02647481,31.5 2.15367672,31.1084898 1.5220631,30.4747155 C0.890380331,29.8408718 0.5,28.9648246 0.5,27.9957423 L0.5,27.9957423 L0.5,4.0042577 C0.5,3.03580432 0.890047312,2.1589334 1.52231245,1.52450535 C2.15320766,0.891451911 3.0252352,0.5 3.99060623,0.5 L3.99060623,0.5 Z" id="Rectangle" stroke="#CCCCCC" fill="#FFFFFF"></path>
                        <g id="Shape" transform="translate(10.000000, 9.000000)" fill="#7F7F7F">
                            <path d="M11.2669922,3.85683594 C11.0304687,3.27304687 10.6955078,2.75078125 10.2730469,2.30644531 C9.85058594,1.85800781 9.35566406,1.50390625 8.80195312,1.25507812 C8.22910156,0.999414062 7.6234375,0.86953125 7,0.86953125 C6.3765625,0.86953125 5.76953125,0.999414062 5.19667969,1.25644531 C4.64296875,1.50390625 4.14941406,1.85800781 3.72558594,2.30644531 C3.29902344,2.75625 2.9640625,3.27851562 2.73164062,3.85683594 C2.48964844,4.45566406 2.36660156,5.09277344 2.36660156,5.75175781 L2.36660156,12.1802734 C2.36660156,12.7052734 2.77265625,13.1318359 3.27304687,13.1318359 L10.7228516,13.1318359 C11.2232422,13.1318359 11.6293415,12.7052734 11.6265625,12.1802734 L11.6265625,6.50644531 L11.6293415,6.2453125 L11.6293415,5.75175781 C11.6320312,5.09550781 11.5089844,4.45839844 11.2669922,3.85683594 Z M5.56035156,2.11640625 L5.56308594,2.11640625 L5.58085937,2.10957031 C6.02792969,1.90585937 6.50507812,1.80332031 6.99863281,1.80332031 C7.48945312,1.80332031 7.96796875,1.90722656 8.41777344,2.10683594 C8.85390625,2.30371094 9.25039062,2.58671875 9.59355469,2.94628906 C9.93945312,3.31132812 10.2087891,3.73378906 10.3988281,4.20410156 C10.5970703,4.69355469 10.696875,5.21308594 10.696875,5.75175781 L10.696875,6.15644531 L3.30039062,6.15644531 L3.30039062,6.15644531 L3.30039062,5.75039062 C3.30039062,5.2171875 3.40019531,4.69765625 3.5984375,4.20410156 C3.78984375,3.7296875 4.06191406,3.30722656 4.40371094,2.94765625 C4.74414062,2.58945312 5.13105469,2.30917969 5.56035156,2.11640625 Z M10.7009766,7.0875 L10.7009766,12.1789062 C10.7009766,12.1871094 10.6996094,12.1939453 10.6982422,12.1980469 L3.303125,12.1980469 C3.30175781,12.1939453 3.30039062,12.1871094 3.30039062,12.1789062 L3.30039062,7.0875 L10.7009766,7.0875 Z M6.56796875,9.1875 L6.56796875,10.4111328 C6.56796875,10.6503906 6.76210937,10.8445312 7.00136719,10.8445312 C7.240625,10.8445312 7.43476562,10.6503906 7.43476562,10.4111328 L7.43476562,9.18476562 C7.66445312,9.03710937 7.80253906,8.78828125 7.80253906,8.51210937 C7.80253906,8.06914062 7.44296875,7.70957031 7,7.70957031 C6.55703125,7.70957031 6.19746094,8.06914062 6.19746094,8.51210937 C6.19882812,8.78417969 6.33964844,9.04121094 6.56796875,9.1875 Z"></path>
                        </g>
                        <text id="Text" font-family="PingFangTC-Regular, PingFang TC" font-size="14" font-weight="normal" line-spacing="22" fill="#545454">
                            <tspan x="32" y="20">123456</tspan>
                        </text>
                        <g id="Shape" transform="translate(156.000000, 9.000000)" fill="#7F7F7F">
                            <path d="M7,4.8125 C5.775,4.8125 4.8125,5.775 4.8125,7 C4.8125,8.225 5.775,9.1875 7,9.1875 C8.225,9.1875 9.1875,8.225 9.1875,7 C9.1875,5.775 8.225,4.8125 7,4.8125 Z M7,8.3125 C6.25625,8.3125 5.6875,7.74375 5.6875,7 C5.6875,6.25625 6.25625,5.6875 7,5.6875 C7.74375,5.6875 8.3125,6.25625 8.3125,7 C8.3125,7.74375 7.74375,8.3125 7,8.3125 Z M13.08125,6.825 C12.11875,4.375 9.5375,2.625 7,2.625 C4.06875,2.625 2.1,4.9 0.91875,6.78125 C0.83125,6.9125 0.83125,7.0875 0.91875,7.21875 C2.1,9.1 4.06875,11.375 7,11.375 C9.5375,11.375 12.11875,9.625 13.08125,7.175 C13.125,7.04375 13.125,6.95625 13.08125,6.825 Z M7,10.5 C4.59375,10.5 2.8875,8.6625 1.8375,7 C2.8875,5.3375 4.59375,3.5 7,3.5 C9.1,3.5 11.33125,4.9875 12.20625,7 C11.33125,9.0125 9.1,10.5 7,10.5 Z"></path>
                        </g>
                    </g>
                    <g id="Input/Medium/style2/placeholder-Copy-13" transform="translate(400.000000, 115.000000)">
                        <path d="M176.009394,0.5 C176.973525,0.5 177.846323,0.891510214 178.477937,1.52528451 C179.10962,2.15912821 179.5,3.03517539 179.5,4.0042577 L179.5,4.0042577 L179.5,27.9957423 C179.5,28.9641957 179.109953,29.8410666 178.477688,30.4754947 C177.846792,31.1085481 176.974765,31.5 176.009394,31.5 L176.009394,31.5 L3.99060623,31.5 C3.02647481,31.5 2.15367672,31.1084898 1.5220631,30.4747155 C0.890380331,29.8408718 0.5,28.9648246 0.5,27.9957423 L0.5,27.9957423 L0.5,4.0042577 C0.5,3.03580432 0.890047312,2.1589334 1.52231245,1.52450535 C2.15320766,0.891451911 3.0252352,0.5 3.99060623,0.5 L3.99060623,0.5 Z" id="Rectangle" stroke="#CCCCCC" fill="#FFFFFF"></path>
                        <g id="Shape" transform="translate(10.000000, 9.000000)" fill="#7F7F7F">
                            <path d="M11.2669922,3.85683594 C11.0304687,3.27304687 10.6955078,2.75078125 10.2730469,2.30644531 C9.85058594,1.85800781 9.35566406,1.50390625 8.80195312,1.25507812 C8.22910156,0.999414062 7.6234375,0.86953125 7,0.86953125 C6.3765625,0.86953125 5.76953125,0.999414062 5.19667969,1.25644531 C4.64296875,1.50390625 4.14941406,1.85800781 3.72558594,2.30644531 C3.29902344,2.75625 2.9640625,3.27851562 2.73164062,3.85683594 C2.48964844,4.45566406 2.36660156,5.09277344 2.36660156,5.75175781 L2.36660156,12.1802734 C2.36660156,12.7052734 2.77265625,13.1318359 3.27304687,13.1318359 L10.7228516,13.1318359 C11.2232422,13.1318359 11.6293415,12.7052734 11.6265625,12.1802734 L11.6265625,6.50644531 L11.6293415,6.2453125 L11.6293415,5.75175781 C11.6320312,5.09550781 11.5089844,4.45839844 11.2669922,3.85683594 Z M5.56035156,2.11640625 L5.56308594,2.11640625 L5.58085937,2.10957031 C6.02792969,1.90585937 6.50507812,1.80332031 6.99863281,1.80332031 C7.48945312,1.80332031 7.96796875,1.90722656 8.41777344,2.10683594 C8.85390625,2.30371094 9.25039062,2.58671875 9.59355469,2.94628906 C9.93945312,3.31132812 10.2087891,3.73378906 10.3988281,4.20410156 C10.5970703,4.69355469 10.696875,5.21308594 10.696875,5.75175781 L10.696875,6.15644531 L3.30039062,6.15644531 L3.30039062,6.15644531 L3.30039062,5.75039062 C3.30039062,5.2171875 3.40019531,4.69765625 3.5984375,4.20410156 C3.78984375,3.7296875 4.06191406,3.30722656 4.40371094,2.94765625 C4.74414062,2.58945312 5.13105469,2.30917969 5.56035156,2.11640625 Z M10.7009766,7.0875 L10.7009766,12.1789062 C10.7009766,12.1871094 10.6996094,12.1939453 10.6982422,12.1980469 L3.303125,12.1980469 C3.30175781,12.1939453 3.30039062,12.1871094 3.30039062,12.1789062 L3.30039062,7.0875 L10.7009766,7.0875 Z M6.56796875,9.1875 L6.56796875,10.4111328 C6.56796875,10.6503906 6.76210937,10.8445312 7.00136719,10.8445312 C7.240625,10.8445312 7.43476562,10.6503906 7.43476562,10.4111328 L7.43476562,9.18476562 C7.66445312,9.03710937 7.80253906,8.78828125 7.80253906,8.51210937 C7.80253906,8.06914062 7.44296875,7.70957031 7,7.70957031 C6.55703125,7.70957031 6.19746094,8.06914062 6.19746094,8.51210937 C6.19882812,8.78417969 6.33964844,9.04121094 6.56796875,9.1875 Z"></path>
                        </g>
                        <text id="Text" font-family="PingFangTC-Regular, PingFang TC" font-size="14" font-weight="normal" line-spacing="22" fill="#545454">
                            <tspan x="32" y="20">・・・・・・</tspan>
                        </text>
                        <g id="Icon/login/eye-open" transform="translate(156.000000, 9.000000)" fill="#B4B4B4">
                            <path d="M13.8685391,11.6191396 L0.787690766,1.57541141 C0.71523088,1.5184313 0.622692651,1.49205639 0.530433443,1.50208885 C0.438174234,1.51212131 0.353751443,1.55773934 0.295737128,1.62890749 L0.0769938374,1.89724727 C0.0188420897,1.96844141 -0.0080942848,2.05942751 0.00212302884,2.15014704 C0.0123403425,2.24086656 0.0588724135,2.32387064 0.131460917,2.38086045 L13.2123092,12.4245886 C13.2847691,12.4815687 13.3773073,12.5079436 13.4695666,12.4979112 C13.5618258,12.4878787 13.6462486,12.4422607 13.7042629,12.3710925 L13.9230062,12.1027527 C13.9811579,12.0315586 14.0080943,11.9405725 13.997877,11.849853 C13.9876597,11.7591334 13.9411276,11.6761294 13.8685391,11.6191396 Z M6.49229684,4.64681695 L9.44073755,6.91083986 C9.39217654,5.62306672 8.32295938,4.59375055 7,4.59375055 C6.82934797,4.59406442 6.6591941,4.61184933 6.49229684,4.64681695 Z M7.50770316,9.3533979 L4.55926245,7.08937498 C4.6080422,8.37693328 5.67725936,9.40624945 7,9.40624945 C7.17063811,9.4058915 7.34077983,9.38817987 7.50770316,9.3533979 L7.50770316,9.3533979 Z M7,3.90625071 C9.15790249,3.90625071 11.1362167,5.08789106 12.2045589,7 C11.942676,7.47058759 11.619094,7.90541416 11.2420885,8.29335908 L12.0676256,8.92714799 C12.5272454,8.44422113 12.9166521,7.90117919 13.2247776,7.31345696 C13.3262585,7.11629494 13.3262585,6.88349022 13.2247776,6.6863282 C12.0374391,4.413067 9.68901117,2.87500095 7,2.87500095 C6.19721215,2.87500095 5.43139192,3.02539155 4.71128903,3.27912195 L5.7264766,4.05878974 C6.14077638,3.96640695 6.56513835,3.90625071 7,3.90625071 Z M7,10.0937493 C4.84209751,10.0937493 2.86400201,8.91210894 1.79544108,7 C2.05766632,6.52941785 2.3816188,6.09465979 2.75900523,5.70685577 L1.93346809,5.07306685 C1.47392017,5.55592375 1.08458601,6.09889493 0.776534856,6.68654304 C0.675053923,6.88370506 0.675053923,7.11650978 0.776534856,7.3136718 C1.96277968,9.586933 4.31120757,11.124999 7,11.124999 C7.80278785,11.124999 8.56860808,10.9735342 9.28871097,10.720878 L8.2735234,9.9414251 C7.85922362,10.0335931 7.43508039,10.0937493 7,10.0937493 Z" id="Shape"></path>
                        </g>
                    </g>
                    <g id="Input/Medium/style2/placeholder-Copy-11" transform="translate(600.000000, 73.000000)">
                        <path d="M176.009394,0.5 C176.973525,0.5 177.846323,0.891510214 178.477937,1.52528451 C179.10962,2.15912821 179.5,3.03517539 179.5,4.0042577 L179.5,4.0042577 L179.5,27.9957423 C179.5,28.9641957 179.109953,29.8410666 178.477688,30.4754947 C177.846792,31.1085481 176.974765,31.5 176.009394,31.5 L176.009394,31.5 L3.99060623,31.5 C3.02647481,31.5 2.15367672,31.1084898 1.5220631,30.4747155 C0.890380331,29.8408718 0.5,28.9648246 0.5,27.9957423 L0.5,27.9957423 L0.5,4.0042577 C0.5,3.03580432 0.890047312,2.1589334 1.52231245,1.52450535 C2.15320766,0.891451911 3.0252352,0.5 3.99060623,0.5 L3.99060623,0.5 Z" id="Rectangle" stroke="#F5222D"></path>
                        <g id="Shape" transform="translate(10.000000, 9.000000)" fill="#7F7F7F">
                            <path d="M11.2669922,3.85683594 C11.0304687,3.27304687 10.6955078,2.75078125 10.2730469,2.30644531 C9.85058594,1.85800781 9.35566406,1.50390625 8.80195312,1.25507812 C8.22910156,0.999414062 7.6234375,0.86953125 7,0.86953125 C6.3765625,0.86953125 5.76953125,0.999414062 5.19667969,1.25644531 C4.64296875,1.50390625 4.14941406,1.85800781 3.72558594,2.30644531 C3.29902344,2.75625 2.9640625,3.27851562 2.73164062,3.85683594 C2.48964844,4.45566406 2.36660156,5.09277344 2.36660156,5.75175781 L2.36660156,12.1802734 C2.36660156,12.7052734 2.77265625,13.1318359 3.27304687,13.1318359 L10.7228516,13.1318359 C11.2232422,13.1318359 11.6293415,12.7052734 11.6265625,12.1802734 L11.6265625,6.50644531 L11.6293415,6.2453125 L11.6293415,5.75175781 C11.6320312,5.09550781 11.5089844,4.45839844 11.2669922,3.85683594 Z M5.56035156,2.11640625 L5.56308594,2.11640625 L5.58085937,2.10957031 C6.02792969,1.90585937 6.50507812,1.80332031 6.99863281,1.80332031 C7.48945312,1.80332031 7.96796875,1.90722656 8.41777344,2.10683594 C8.85390625,2.30371094 9.25039062,2.58671875 9.59355469,2.94628906 C9.93945312,3.31132812 10.2087891,3.73378906 10.3988281,4.20410156 C10.5970703,4.69355469 10.696875,5.21308594 10.696875,5.75175781 L10.696875,6.15644531 L3.30039062,6.15644531 L3.30039062,6.15644531 L3.30039062,5.75039062 C3.30039062,5.2171875 3.40019531,4.69765625 3.5984375,4.20410156 C3.78984375,3.7296875 4.06191406,3.30722656 4.40371094,2.94765625 C4.74414062,2.58945312 5.13105469,2.30917969 5.56035156,2.11640625 Z M10.7009766,7.0875 L10.7009766,12.1789062 C10.7009766,12.1871094 10.6996094,12.1939453 10.6982422,12.1980469 L3.303125,12.1980469 C3.30175781,12.1939453 3.30039062,12.1871094 3.30039062,12.1789062 L3.30039062,7.0875 L10.7009766,7.0875 Z M6.56796875,9.1875 L6.56796875,10.4111328 C6.56796875,10.6503906 6.76210937,10.8445312 7.00136719,10.8445312 C7.240625,10.8445312 7.43476562,10.6503906 7.43476562,10.4111328 L7.43476562,9.18476562 C7.66445312,9.03710937 7.80253906,8.78828125 7.80253906,8.51210937 C7.80253906,8.06914062 7.44296875,7.70957031 7,7.70957031 C6.55703125,7.70957031 6.19746094,8.06914062 6.19746094,8.51210937 C6.19882812,8.78417969 6.33964844,9.04121094 6.56796875,9.1875 Z"></path>
                        </g>
                        <text id="Text" font-family="PingFangTC-Regular, PingFang TC" font-size="14" font-weight="normal" line-spacing="22" fill="#545454">
                            <tspan x="32" y="21">123456</tspan>
                        </text>
                    </g>
                    <g id="Others/Tips/Error-Copy-6" transform="translate(600.000000, 107.000000)">
                        <g id="Group" transform="translate(0.000000, 2.037037)">
                            <rect id="Rectangle" fill="#F5222D" x="0" y="0" width="82" height="22" rx="4"></rect>
                            <text id="此欄位必填" font-family="PingFangTC-Regular, PingFang TC" font-size="12" font-weight="normal" fill="#FFFFFF">
                                <tspan x="5" y="15">密碼輸入錯誤</tspan>
                            </text>
                        </g>
                        <polygon id="Triangle-1" fill="#F5222D" points="15 0 10 5 20 5"></polygon>
                    </g>
                    <g id="Others/Tips/Error-Copy-7" transform="translate(600.000000, 34.000000)">
                        <g id="Group" transform="translate(0.000000, 2.037037)">
                            <rect id="Rectangle" fill="#F5222D" x="0" y="0" width="118" height="22" rx="4"></rect>
                            <text id="此欄位必填" font-family="PingFangTC-Regular, PingFang TC" font-size="12" font-weight="normal" fill="#FFFFFF">
                                <tspan x="5" y="15">管理員帳號輸入錯誤</tspan>
                            </text>
                        </g>
                        <polygon id="Triangle-1" fill="#F5222D" points="15 0 10 5 20 5"></polygon>
                    </g>
                    <g id="Input/Medium/style2/placeholder-Copy-6" transform="translate(200.000000, 0.000000)">
                        <path d="M176.009394,0.5 C176.973525,0.5 177.846323,0.891510214 178.477937,1.52528451 C179.10962,2.15912821 179.5,3.03517539 179.5,4.0042577 L179.5,4.0042577 L179.5,27.9957423 C179.5,28.9641957 179.109953,29.8410666 178.477688,30.4754947 C177.846792,31.1085481 176.974765,31.5 176.009394,31.5 L176.009394,31.5 L3.99060623,31.5 C3.02647481,31.5 2.15367672,31.1084898 1.5220631,30.4747155 C0.890380331,29.8408718 0.5,28.9648246 0.5,27.9957423 L0.5,27.9957423 L0.5,4.0042577 C0.5,3.03580432 0.890047312,2.1589334 1.52231245,1.52450535 C2.15320766,0.891451911 3.0252352,0.5 3.99060623,0.5 L3.99060623,0.5 Z" id="Rectangle" stroke="#CCCCCC" fill="#FFFFFF"></path>
                        <g id="Shape" transform="translate(10.000000, 9.000000)" fill="#7F7F7F">
                            <path d="M11.2027344,10.8554687 C10.9730469,10.3126953 10.6435547,9.82460937 10.2251953,9.40625 C9.80683594,8.98789062 9.31875,8.65839844 8.77597656,8.42871094 C8.59140625,8.35078125 8.40136719,8.28515625 8.20996094,8.23183594 C8.75136719,8.04863281 9.24765625,7.74238281 9.66328125,7.32675781 C10.3742187,6.61582031 10.7666016,5.66972656 10.7666016,4.66484375 C10.7666016,3.65996094 10.3755859,2.71386719 9.66328125,2.00292969 C8.95234375,1.29199219 8.00625,0.899609375 7.00136719,0.899609375 C5.99648437,0.899609375 5.05039062,1.290625 4.33945312,2.00292969 C3.62851562,2.71386719 3.23613281,3.65996094 3.23613281,4.66484375 C3.23613281,5.66972656 3.62714844,6.61582031 4.33945312,7.32675781 C4.75507812,7.74238281 5.25136719,8.04863281 5.79277344,8.23183594 C5.60136719,8.28515625 5.41132812,8.34941406 5.22675781,8.42871094 C4.68398437,8.65839844 4.19589844,8.98789062 3.77753906,9.40625 C3.35917969,9.82460937 3.0296875,10.3126953 2.8,10.8554687 C2.56210937,11.41875 2.44179687,12.0148437 2.44179687,12.6314453 C2.44179687,12.9035156 2.66191406,13.1236328 2.93398437,13.1236328 C3.20605469,13.1236328 3.42617187,12.9035156 3.42617187,12.6314453 C3.42617187,11.6757812 3.79804687,10.7775391 4.4734375,10.1021484 C5.14882812,9.42675781 6.04707031,9.05488281 7.00273437,9.05488281 C7.95839844,9.05488281 8.85664062,9.42675781 9.53203125,10.1021484 C10.2074219,10.7775391 10.5792969,11.6757812 10.5792969,12.6314453 C10.5792969,12.9035156 10.7994141,13.1236328 11.0714844,13.1236328 C11.3435547,13.1236328 11.5636719,12.9035156 11.5636719,12.6314453 C11.5609375,12.0148437 11.440625,11.41875 11.2027344,10.8554687 Z M4.21914062,4.66484375 C4.21914062,3.13085937 5.46738281,1.88398437 7,1.88398437 C8.53261719,1.88398437 9.78085937,3.13085937 9.78085937,4.66484375 C9.78085937,6.19882812 8.53398437,7.44570312 7,7.44570312 C5.46601562,7.44570312 4.21914062,6.19746094 4.21914062,4.66484375 Z"></path>
                        </g>
                        <text id="Text" font-family="PingFangTC-Regular, PingFang TC" font-size="14" font-weight="normal" line-spacing="22" fill="#545454">
                            <tspan x="32" y="20">admin</tspan>
                        </text>
                    </g>
                    <g id="Input/Medium/style2/placeholder-Copy-6" transform="translate(400.000000, 0.000000)">
                        <path d="M176.009394,0.5 C176.973525,0.5 177.846323,0.891510214 178.477937,1.52528451 C179.10962,2.15912821 179.5,3.03517539 179.5,4.0042577 L179.5,4.0042577 L179.5,27.9957423 C179.5,28.9641957 179.109953,29.8410666 178.477688,30.4754947 C177.846792,31.1085481 176.974765,31.5 176.009394,31.5 L176.009394,31.5 L3.99060623,31.5 C3.02647481,31.5 2.15367672,31.1084898 1.5220631,30.4747155 C0.890380331,29.8408718 0.5,28.9648246 0.5,27.9957423 L0.5,27.9957423 L0.5,4.0042577 C0.5,3.03580432 0.890047312,2.1589334 1.52231245,1.52450535 C2.15320766,0.891451911 3.0252352,0.5 3.99060623,0.5 L3.99060623,0.5 Z" id="Rectangle" stroke="#CCCCCC" fill="#FFFFFF"></path>
                        <g id="Shape" transform="translate(10.000000, 9.000000)" fill="#7F7F7F">
                            <path d="M11.2027344,10.8554687 C10.9730469,10.3126953 10.6435547,9.82460937 10.2251953,9.40625 C9.80683594,8.98789062 9.31875,8.65839844 8.77597656,8.42871094 C8.59140625,8.35078125 8.40136719,8.28515625 8.20996094,8.23183594 C8.75136719,8.04863281 9.24765625,7.74238281 9.66328125,7.32675781 C10.3742187,6.61582031 10.7666016,5.66972656 10.7666016,4.66484375 C10.7666016,3.65996094 10.3755859,2.71386719 9.66328125,2.00292969 C8.95234375,1.29199219 8.00625,0.899609375 7.00136719,0.899609375 C5.99648437,0.899609375 5.05039062,1.290625 4.33945312,2.00292969 C3.62851562,2.71386719 3.23613281,3.65996094 3.23613281,4.66484375 C3.23613281,5.66972656 3.62714844,6.61582031 4.33945312,7.32675781 C4.75507812,7.74238281 5.25136719,8.04863281 5.79277344,8.23183594 C5.60136719,8.28515625 5.41132812,8.34941406 5.22675781,8.42871094 C4.68398437,8.65839844 4.19589844,8.98789062 3.77753906,9.40625 C3.35917969,9.82460937 3.0296875,10.3126953 2.8,10.8554687 C2.56210937,11.41875 2.44179687,12.0148437 2.44179687,12.6314453 C2.44179687,12.9035156 2.66191406,13.1236328 2.93398437,13.1236328 C3.20605469,13.1236328 3.42617187,12.9035156 3.42617187,12.6314453 C3.42617187,11.6757812 3.79804687,10.7775391 4.4734375,10.1021484 C5.14882812,9.42675781 6.04707031,9.05488281 7.00273437,9.05488281 C7.95839844,9.05488281 8.85664062,9.42675781 9.53203125,10.1021484 C10.2074219,10.7775391 10.5792969,11.6757812 10.5792969,12.6314453 C10.5792969,12.9035156 10.7994141,13.1236328 11.0714844,13.1236328 C11.3435547,13.1236328 11.5636719,12.9035156 11.5636719,12.6314453 C11.5609375,12.0148437 11.440625,11.41875 11.2027344,10.8554687 Z M4.21914062,4.66484375 C4.21914062,3.13085937 5.46738281,1.88398437 7,1.88398437 C8.53261719,1.88398437 9.78085937,3.13085937 9.78085937,4.66484375 C9.78085937,6.19882812 8.53398437,7.44570312 7,7.44570312 C5.46601562,7.44570312 4.21914062,6.19746094 4.21914062,4.66484375 Z"></path>
                        </g>
                        <text id="Text" font-family="PingFangTC-Regular, PingFang TC" font-size="14" font-weight="normal" line-spacing="22" fill="#545454">
                            <tspan x="32" y="20">admin</tspan>
                        </text>
                    </g>
                    <g id="Input/Medium/style2/placeholder-Copy-12" transform="translate(600.000000, 0.000000)">
                        <path d="M176.009394,0.5 C176.973525,0.5 177.846323,0.891510214 178.477937,1.52528451 C179.10962,2.15912821 179.5,3.03517539 179.5,4.0042577 L179.5,4.0042577 L179.5,27.9957423 C179.5,28.9641957 179.109953,29.8410666 178.477688,30.4754947 C177.846792,31.1085481 176.974765,31.5 176.009394,31.5 L176.009394,31.5 L3.99060623,31.5 C3.02647481,31.5 2.15367672,31.1084898 1.5220631,30.4747155 C0.890380331,29.8408718 0.5,28.9648246 0.5,27.9957423 L0.5,27.9957423 L0.5,4.0042577 C0.5,3.03580432 0.890047312,2.1589334 1.52231245,1.52450535 C2.15320766,0.891451911 3.0252352,0.5 3.99060623,0.5 L3.99060623,0.5 Z" id="Rectangle" stroke="#CCCCCC" fill="#FFFFFF"></path>
                        <g id="Shape" transform="translate(10.000000, 9.000000)" fill="#7F7F7F">
                            <path d="M11.2027344,10.8554687 C10.9730469,10.3126953 10.6435547,9.82460937 10.2251953,9.40625 C9.80683594,8.98789062 9.31875,8.65839844 8.77597656,8.42871094 C8.59140625,8.35078125 8.40136719,8.28515625 8.20996094,8.23183594 C8.75136719,8.04863281 9.24765625,7.74238281 9.66328125,7.32675781 C10.3742187,6.61582031 10.7666016,5.66972656 10.7666016,4.66484375 C10.7666016,3.65996094 10.3755859,2.71386719 9.66328125,2.00292969 C8.95234375,1.29199219 8.00625,0.899609375 7.00136719,0.899609375 C5.99648437,0.899609375 5.05039062,1.290625 4.33945312,2.00292969 C3.62851562,2.71386719 3.23613281,3.65996094 3.23613281,4.66484375 C3.23613281,5.66972656 3.62714844,6.61582031 4.33945312,7.32675781 C4.75507812,7.74238281 5.25136719,8.04863281 5.79277344,8.23183594 C5.60136719,8.28515625 5.41132812,8.34941406 5.22675781,8.42871094 C4.68398437,8.65839844 4.19589844,8.98789062 3.77753906,9.40625 C3.35917969,9.82460937 3.0296875,10.3126953 2.8,10.8554687 C2.56210937,11.41875 2.44179687,12.0148437 2.44179687,12.6314453 C2.44179687,12.9035156 2.66191406,13.1236328 2.93398437,13.1236328 C3.20605469,13.1236328 3.42617187,12.9035156 3.42617187,12.6314453 C3.42617187,11.6757812 3.79804687,10.7775391 4.4734375,10.1021484 C5.14882812,9.42675781 6.04707031,9.05488281 7.00273437,9.05488281 C7.95839844,9.05488281 8.85664062,9.42675781 9.53203125,10.1021484 C10.2074219,10.7775391 10.5792969,11.6757812 10.5792969,12.6314453 C10.5792969,12.9035156 10.7994141,13.1236328 11.0714844,13.1236328 C11.3435547,13.1236328 11.5636719,12.9035156 11.5636719,12.6314453 C11.5609375,12.0148437 11.440625,11.41875 11.2027344,10.8554687 Z M4.21914062,4.66484375 C4.21914062,3.13085937 5.46738281,1.88398437 7,1.88398437 C8.53261719,1.88398437 9.78085937,3.13085937 9.78085937,4.66484375 C9.78085937,6.19882812 8.53398437,7.44570312 7,7.44570312 C5.46601562,7.44570312 4.21914062,6.19746094 4.21914062,4.66484375 Z"></path>
                        </g>
                        <text id="Text" font-family="PingFangTC-Regular, PingFang TC" font-size="14" font-weight="normal" line-spacing="22" fill="#545454">
                            <tspan x="32" y="20">aa</tspan>
                        </text>
                    </g>
                </g>
            </g>
        </g>
    </g>
</svg>