<?xml version="1.0" encoding="UTF-8"?>
<svg width="400px" height="290px" viewBox="0 0 400 290" version="1.1" xmlns="http://www.w3.org/2000/svg" xmlns:xlink="http://www.w3.org/1999/xlink">
    <title>抽屜</title>
    <defs>
        <path d="M8,0 L292,0 C296.418278,0 300,3.581722 300,8 L300,36 L300,36 L0,36 L0,8 C0,3.581722 3.581722,0 8,0 Z" id="path-1"></path>
        <filter x="-0.2%" y="-2.1%" width="100.5%" height="104.2%" filterUnits="objectBoundingBox" id="filter-2">
            <feGaussianBlur stdDeviation="0.5" in="SourceAlpha" result="shadowBlurInner1"></feGaussianBlur>
            <feOffset dx="0" dy="-0.5" in="shadowBlurInner1" result="shadowOffsetInner1"></feOffset>
            <feComposite in="shadowOffsetInner1" in2="SourceAlpha" operator="arithmetic" k2="-1" k3="1" result="shadowInnerInner1"></feComposite>
            <feColorMatrix values="0 0 0 0 0.898039216   0 0 0 0 0.898039216   0 0 0 0 0.898039216  0 0 0 1 0" type="matrix" in="shadowInnerInner1"></feColorMatrix>
        </filter>
    </defs>
    <g id="抽屜" stroke="none" stroke-width="1" fill="none" fill-rule="evenodd">
        <g>
            <rect id="Rectangle" fill-opacity="0.5" fill="#000000" fill-rule="nonzero" x="0" y="0" width="400" height="290" rx="8"></rect>
            <g id="Group-9" transform="translate(100.000000, 0.000000)">
                <path d="M0,0 L292,0 C296.418278,0 300,3.581722 300,8 L300,282 C300,286.418278 296.418278,290 292,290 L0,290 L0,290 L0,0 Z" id="Rectangle-Copy-6" fill="#FFFFFF" fill-rule="nonzero"></path>
                <g id="Rectangle-Copy-6" transform="translate(150.000000, 275.000000) scale(-1, 1) rotate(-180.000000) translate(-150.000000, -275.000000) translate(0.000000, 260.000000)">
                    <g id="path-1-link" fill="#000000" fill-rule="nonzero">
                        <path d="M8,0 L292,0 C296.418278,0 300,3.581722 300,8 L300,30 L300,30 L0,30 L0,8 C0,3.581722 3.581722,0 8,0 Z" id="path-1"></path>
                    </g>
                    <g id="path-1-link" fill="#FFFFFF">
                        <path d="M8,0 L292,0 C296.418278,0 300,3.581722 300,8 L300,30 L300,30 L0,30 L0,8 C0,3.581722 3.581722,0 8,0 Z" id="path-1"></path>
                    </g>
                </g>
                <rect id="Rectangle-40-Copy-13" fill="#004477" fill-rule="nonzero" x="156" y="267" width="40" height="16" rx="2"></rect>
                <g id="Button/Primary/Basic/Small-Copy" transform="translate(106.000000, 267.000000)" fill="#FFFFFF" fill-rule="nonzero" stroke="#CCCCCC">
                    <path d="M38.0027084,0.5 C38.4160889,0.5 38.7903336,0.66757253 39.0613105,0.938110935 C39.3322215,1.20858367 39.5,1.58205484 39.5,1.99406028 L39.5,1.99406028 L39.5,14.0059397 C39.5,14.418692 39.3329047,14.7923905 39.0620872,15.0627699 C38.7913248,15.3330942 38.4169982,15.5 38.0027084,15.5 L38.0027084,15.5 L1.99729162,15.5 C1.58305215,15.5 1.2078669,15.3336012 0.936692146,15.0623165 C0.666463893,14.7919787 0.5,14.4177602 0.5,14.0018986 L0.5,14.0018986 L0.5,1.99810135 C0.5,1.58411665 0.66717841,1.20925692 0.938270807,0.938054614 C1.20894168,0.667274009 1.5831181,0.5 1.99729162,0.5 L1.99729162,0.5 L38.0027084,0.5 Z" id="Bg"></path>
                </g>
                <g id="Rectangle-Copy-6">
                    <g id="path-3-link" fill="#000000" fill-rule="nonzero">
                        <path d="M8,0 L292,0 C296.418278,0 300,3.581722 300,8 L300,36 L300,36 L0,36 L0,8 C0,3.581722 3.581722,0 8,0 Z" id="path-3"></path>
                    </g>
                    <g id="path-3">
                        <use fill="#FFFFFF" fill-rule="evenodd" xlink:href="#path-1"></use>
                        <use fill="black" fill-opacity="1" filter="url(#filter-2)" xlink:href="#path-1"></use>
                    </g>
                </g>
                <g id="||||||||||||||||||||" transform="translate(15.000000, 10.000000)" fill="#7F7F7F" fill-rule="nonzero" font-family="PingFangTC-Regular, PingFang TC" font-size="14" font-weight="normal">
                    <text id="|||||||||||||||||||||">
                        <tspan x="0.335" y="15">|||||||||||||||||||||</tspan>
                    </text>
                </g>
                <rect id="Rectangle-Copy-6" fill="#F1F8FE" fill-rule="nonzero" x="30" y="80" width="254" height="20"></rect>
                <rect id="Rectangle-Copy-7" fill="#F1F8FE" fill-rule="nonzero" x="30" y="112" width="193" height="20"></rect>
                <g id="Group" transform="translate(15.000000, 48.000000)" fill-rule="nonzero">
                    <g id="info-copy-2">
                        <text id="|||||||||||||||||||||-copy" fill="#7F7F7F" font-family="PingFangTC-Regular, PingFang TC" font-size="14" font-weight="normal">
                            <tspan x="26" y="15">|||||||||||||||||||||</tspan>
                        </text>
                        <g id="Icon/system/alert/Info/20px" transform="translate(0.859750, 2.000000)">
                            <path d="M7.57012505,15.14025 C3.38881379,15.14025 -5.32907052e-15,11.7514363 -5.32907052e-15,7.57012505 C-5.32907052e-15,3.38881379 3.38881379,-5.32907052e-15 7.57012505,-5.32907052e-15 C11.7514363,-5.32907052e-15 15.14025,3.38881379 15.14025,7.57012505 C15.14025,11.7514363 11.7514363,15.14025 7.57012505,15.14025 L7.57012505,15.14025 Z" id="Path" fill="#7F7F7F"></path>
                            <path d="M8.11084826,5.40723217 C8.40948144,5.40723217 8.65157148,5.6493222 8.65157148,5.94795539 L8.65086854,10.8130747 L9.73301791,10.8144643 C10.0316511,10.8144643 10.2737411,11.0565544 10.2737411,11.3551876 L10.2737411,11.8959108 C10.2737411,12.194544 10.0316511,12.436634 9.73301791,12.436634 L5.94795539,12.436634 C5.6493222,12.436634 5.40723217,12.194544 5.40723217,11.8959108 L5.40723217,11.3551876 C5.40723217,11.0565544 5.6493222,10.8144643 5.94795539,10.8144643 L7.02905036,10.8130747 L7.02905036,7.02834742 L6.16424468,7.02940182 C5.86561149,7.02940182 5.62352145,6.7873118 5.62352145,6.4886786 L5.62352145,5.94795539 C5.62352145,5.6493222 5.86561149,5.40723217 6.16424468,5.40723217 L8.11084826,5.40723217 Z M7.57012505,2.16289287 C8.16739142,2.16289287 8.65157148,2.64707293 8.65157148,3.2443393 C8.65157148,3.84160567 8.16739142,4.32578575 7.57012505,4.32578575 C6.97285866,4.32578575 6.4886786,3.84160567 6.4886786,3.2443393 C6.4886786,2.64707293 6.97285866,2.16289287 7.57012505,2.16289287 Z" id="Combined-Shape" fill="#FFFFFF"></path>
                        </g>
                    </g>
                    <g id="pagination" transform="translate(197.000000, 2.000000)">
                        <g id="Select/Medium/Selected" transform="translate(57.000000, 0.000000)">
                            <path d="M13.7825193,0.246153846 C14.2591212,0.246153846 14.6906123,0.438966207 15.0028528,0.751206759 C15.3148229,1.06317683 15.5076923,1.49433683 15.5076923,1.97132687 L15.5076923,1.97132687 L15.5076923,13.7825193 C15.5076923,14.2591212 15.31488,14.6906123 15.0026394,15.0028528 C14.6906693,15.3148229 14.2595093,15.5076923 13.7825193,15.5076923 L13.7825193,15.5076923 L1.97132687,15.5076923 C1.4947249,15.5076923 1.06323389,15.31488 0.750993334,15.0026394 C0.439023264,14.6906693 0.246153846,14.2595093 0.246153846,13.7825193 L0.246153846,13.7825193 L0.246153846,1.97132687 C0.246153846,1.4947249 0.438966207,1.06323389 0.751206759,0.750993334 C1.06317683,0.439023264 1.49433683,0.246153846 1.97132687,0.246153846 L1.97132687,0.246153846 L13.7825193,0.246153846 Z" id="Rectangle-26-Copy-23" stroke="#CCCCCC" stroke-width="0.5" fill="#FFFFFF"></path>
                            <g id="Mask" transform="translate(5.415385, 4.923077)" fill="#7F7F7F">
                                <path d="M0.540435658,5.53389721 C0.605051042,5.53389721 0.6703395,5.51235874 0.724858732,5.46928182 L3.57735872,3.17476258 C3.64668564,3.1188972 3.68707028,3.03476258 3.68707028,2.94524335 C3.68707028,2.85639719 3.64668564,2.7715895 3.57735872,2.71639719 L0.736974119,0.433993349 C0.610435658,0.332358735 0.4253395,0.35255104 0.323704886,0.479089502 C0.222070272,0.605627963 0.242262577,0.790724116 0.368801039,0.892358735 L2.92380104,2.94591643 L0.356012578,5.01091643 C0.229474117,5.11255104 0.209281812,5.29764721 0.310916426,5.42418565 C0.369474117,5.4962049 0.454281812,5.53389721 0.540435658,5.53389721 Z" id="path-11"></path>
                            </g>
                        </g>
                        <g id="Select/Medium/Selected">
                            <path d="M13.7825193,0.246153846 C14.2591212,0.246153846 14.6906123,0.438966207 15.0028528,0.751206759 C15.3148229,1.06317683 15.5076923,1.49433683 15.5076923,1.97132687 L15.5076923,1.97132687 L15.5076923,13.7825193 C15.5076923,14.2591212 15.31488,14.6906123 15.0026394,15.0028528 C14.6906693,15.3148229 14.2595093,15.5076923 13.7825193,15.5076923 L13.7825193,15.5076923 L1.97132687,15.5076923 C1.4947249,15.5076923 1.06323389,15.31488 0.750993334,15.0026394 C0.439023264,14.6906693 0.246153846,14.2595093 0.246153846,13.7825193 L0.246153846,13.7825193 L0.246153846,1.97132687 C0.246153846,1.4947249 0.438966207,1.06323389 0.751206759,0.750993334 C1.06317683,0.439023264 1.49433683,0.246153846 1.97132687,0.246153846 L1.97132687,0.246153846 L13.7825193,0.246153846 Z" id="Rectangle-26-Copy-23" stroke="#CCCCCC" stroke-width="0.5" fill="#FFFFFF"></path>
                            <g id="Mask" transform="translate(5.415385, 4.923077)" fill="#7F7F7F">
                                <path d="M3.39278846,5.53389721 C3.32817308,5.53389721 3.26288461,5.51235874 3.20836539,5.46928182 L0.355865383,3.17476258 C0.286538462,3.1188972 0.246153846,3.03476258 0.246153846,2.94524335 C0.246153846,2.85639719 0.286538462,2.7715895 0.355865383,2.71639719 L3.19625,0.433993349 C3.32278846,0.332358735 3.5078846,0.35255104 3.60951921,0.479089502 C3.71115382,0.605627963 3.69096153,0.790724116 3.56442309,0.892358735 L1.00942308,2.94524335 L3.57721152,5.01091643 C3.70375001,5.11255104 3.7239423,5.29764721 3.62230769,5.42418565 C3.56375001,5.4962049 3.47894233,5.53389721 3.39278846,5.53389721 Z" id="path-13"></path>
                            </g>
                        </g>
                        <g id="Input/Medium/Placeholder-" transform="translate(20.000000, 0.000000)" fill="#FFFFFF" stroke="#CCCCCC" stroke-width="0.5">
                            <path d="M31.5077707,0.246153846 C31.9837408,0.246153846 32.4146477,0.438943905 32.7264701,0.751110686 C33.0381206,1.06310532 33.2307692,1.49430566 33.2307692,1.97132687 L33.2307692,1.97132687 L33.2307692,13.7825193 C33.2307692,14.2593292 33.0384194,14.6910282 32.7264602,15.0033319 C32.4150981,15.3150378 31.984634,15.5076923 31.5077707,15.5076923 L31.5077707,15.5076923 L1.96915239,15.5076923 C1.49318223,15.5076923 1.06227541,15.3149023 0.750452967,15.0027355 C0.438802477,14.6907408 0.246153846,14.2595405 0.246153846,13.7825193 L0.246153846,13.7825193 L0.246153846,1.97132687 C0.246153846,1.49451695 0.438503637,1.06281792 0.750462878,0.750514196 C1.06182492,0.438808325 1.49228902,0.246153846 1.96915239,0.246153846 L1.96915239,0.246153846 L31.5077707,0.246153846 Z" id="Rectangle"></path>
                        </g>
                    </g>
                </g>
            </g>
        </g>
    </g>
</svg>