<?xml version="1.0" encoding="UTF-8"?>
<svg width="418px" height="252px" viewBox="0 0 418 252" version="1.1" xmlns="http://www.w3.org/2000/svg" xmlns:xlink="http://www.w3.org/1999/xlink">
    <title>響應式佈局_窄版</title>
    <g id="Page-1" stroke="none" stroke-width="1" fill="none" fill-rule="evenodd">
        <g id="響應式佈局_窄版">
            <g id="Rectangle" transform="translate(6.000000, 0.000000)" fill-rule="nonzero">
                <g id="path-1-link" transform="translate(1.000000, 1.000000)" fill="#F5F6F8">
                    <rect id="path-1" x="0" y="0" width="400" height="250" rx="8"></rect>
                </g>
                <rect stroke="#E5E5E5" fill-opacity="0.3" fill="#FFFFFF" x="0.5" y="0.5" width="401" height="251" rx="8"></rect>
            </g>
            <path d="M38,1 L399,1 C403.418278,1 407,4.581722 407,9 L407,31 L407,31 L38,31 L38,1 Z" id="Rectangle" fill="#043458" fill-rule="nonzero"></path>
            <g id="||||||||||||||||||||" transform="translate(57.000000, 6.000000)" fill="#7F7F7F" fill-rule="nonzero" font-family="PingFangTC-Regular, PingFang TC" font-size="14" font-weight="normal">
                <text id="|||||||||||||||||||||">
                    <tspan x="0.335" y="15">|||||||||||||||||||||</tspan>
                </text>
            </g>
            <path d="M335,1 L383,1 C385.209139,1 387,2.790861 387,5 L387,12 L387,12 L331,12 L331,5 C331,2.790861 332.790861,1 335,1 Z" id="Rectangle-Copy-2" fill="#F5A700" fill-rule="nonzero" transform="translate(359.000000, 6.500000) scale(-1, 1) rotate(-180.000000) translate(-359.000000, -6.500000) "></path>
            <path d="M15,1 L37,1 L37,1 L37,251 L15,251 C10.581722,251 7,247.418278 7,243 L7,9 C7,4.581722 10.581722,1 15,1 Z" id="Rectangle" fill="#FFFFFF" fill-rule="nonzero"></path>
            <rect id="Rectangle-Copy-6" fill="#FFFFFF" fill-rule="nonzero" x="57" y="46" width="330" height="180" rx="4"></rect>
            <g id="Rectangle-Copy-6" transform="translate(57.000000, 46.000000)">
                <g id="path-2-link" fill="#000000" fill-rule="nonzero">
                    <path d="M8,0 L322,0 C326.418278,0 330,3.581722 330,8 L330,36 L330,36 L0,36 L0,8 C0,3.581722 3.581722,0 8,0 Z" id="path-2"></path>
                </g>
                <g id="path-2-link" fill="#FFFFFF">
                    <path d="M8,0 L322,0 C326.418278,0 330,3.581722 330,8 L330,36 L330,36 L0,36 L0,8 C0,3.581722 3.581722,0 8,0 Z" id="path-2"></path>
                </g>
            </g>
            <rect id="Rectangle-40-Copy-13" fill="#004477" fill-rule="nonzero" x="332" y="56" width="40" height="16" rx="2"></rect>
            <g id="size-width:-Rectangle" transform="translate(26.000000, 203.000000)" fill-rule="nonzero">
                <g id="line" transform="translate(14.000000, 0.500000)" fill="#FF5500">
                    <polygon id="Line" points="15 9 14 9 14 5 1 5 1 9 0 9 0 0 1 0 1 4 14 4 14 0 15 0"></polygon>
                </g>
                <g id="Number" transform="translate(0.000000, 10.000000)">
                    <path d="M21.5,0 L24.5,3 L41,3 C42.1045695,3 43,3.8954305 43,5 L43,23 C43,24.1045695 42.1045695,25 41,25 L2,25 C0.8954305,25 0,24.1045695 0,23 L0,5 C0,3.8954305 0.8954305,3 2,3 L18.5,3 L21.5,0 Z" id="Bg" fill="#FF5500"></path>
                    <g id="数据" transform="translate(7.000000, 7.000000)" fill="#FFFFFF" font-family="Menlo-Regular, Menlo" font-size="12" font-weight="normal">
                        <text id="30px">
                            <tspan x="0.05078125" y="11">30px</tspan>
                        </text>
                    </g>
                </g>
            </g>
            <g id="size-width:-Rectangle" transform="translate(375.000000, 203.000000)" fill-rule="nonzero">
                <g id="line" transform="translate(14.000000, 0.500000)" fill="#FF5500">
                    <polygon id="Line" points="15 9 14 9 14 5 1 5 1 9 0 9 0 0 1 0 1 4 14 4 14 0 15 0"></polygon>
                </g>
                <g id="Number" transform="translate(0.000000, 10.000000)">
                    <path d="M21.5,0 L24.5,3 L41,3 C42.1045695,3 43,3.8954305 43,5 L43,23 C43,24.1045695 42.1045695,25 41,25 L2,25 C0.8954305,25 0,24.1045695 0,23 L0,5 C0,3.8954305 0.8954305,3 2,3 L18.5,3 L21.5,0 Z" id="Bg" fill="#FF5500"></path>
                    <g id="数据" transform="translate(7.000000, 7.000000)" fill="#FFFFFF" font-family="Menlo-Regular, Menlo" font-size="12" font-weight="normal">
                        <text id="30px">
                            <tspan x="0.05078125" y="11">30px</tspan>
                        </text>
                    </g>
                </g>
            </g>
            <g id="size-width:-Rectangle" transform="translate(0.000000, 146.000000)" fill-rule="nonzero">
                <g id="line" transform="translate(7.000000, 0.500000)" fill="#FF5500">
                    <polygon id="Line" points="30 9 29 9 29 5 1 5 1 9 0 9 0 0 1 0 1 4 29 4 29 0 30 0"></polygon>
                </g>
                <g id="Number" transform="translate(0.500000, 10.000000)">
                    <path d="M21.5,0 L24.5,3 L41,3 C42.1045695,3 43,3.8954305 43,5 L43,23 C43,24.1045695 42.1045695,25 41,25 L2,25 C0.8954305,25 0,24.1045695 0,23 L0,5 C0,3.8954305 0.8954305,3 2,3 L18.5,3 L21.5,0 Z" id="Bg" fill="#FF5500"></path>
                    <g id="数据" transform="translate(7.000000, 7.000000)" fill="#FFFFFF" font-family="Menlo-Regular, Menlo" font-size="12" font-weight="normal">
                        <text id="80px">
                            <tspan x="0.05078125" y="11">80px</tspan>
                        </text>
                    </g>
                </g>
            </g>
        </g>
    </g>
</svg>