<?xml version="1.0" encoding="UTF-8"?>
<svg width="840px" height="250px" viewBox="0 0 840 250" version="1.1" xmlns="http://www.w3.org/2000/svg" xmlns:xlink="http://www.w3.org/1999/xlink">
    <title>steps02</title>
    <g id="XXXGuideline" stroke="none" stroke-width="1" fill="none" fill-rule="evenodd">
        <g id="steps02">
            <rect id="bg" x="0" y="0" width="840" height="250"></rect>
            <g id="Timeline/_Resources/-Node" transform="translate(30.000000, 30.000000)">
                <text id="Text" font-family="PingFangTC-Semibold, PingFang TC" font-size="14" font-weight="500" line-spacing="22" fill="#004477">
                    <tspan x="16" y="14">2022-02-11 09:40:13</tspan>
                </text>
                <text id="Text" font-family="PingFangTC-Regular, PingFang TC" font-size="14" font-weight="normal" line-spacing="22" fill="#545454">
                    <tspan x="16" y="34">訂單狀態</tspan>
                    <tspan x="16" y="56">操作人員</tspan>
                </text>
                <g id="Timeline/_Resources/Dot/Ongoing" transform="translate(0.000000, 6.000000)">
                    <path d="M4,0 C1.790861,0 0,1.790861 0,4 C0,6.209139 1.790861,8 4,8 C6.209139,8 8,6.209139 8,4 C8,1.790861 6.209139,0 4,0 Z M4,1.6 C5.3254834,1.6 6.4,2.6745166 6.4,4 C6.4,5.3254834 5.3254834,6.4 4,6.4 C2.6745166,6.4 1.6,5.3254834 1.6,4 C1.6,2.6745166 2.6745166,1.6 4,1.6 Z" id="Oval" fill="#004477"></path>
                    <path d="M4,1.6 C5.3254834,1.6 6.4,2.6745166 6.4,4 C6.4,5.3254834 5.3254834,6.4 4,6.4 C2.6745166,6.4 1.6,5.3254834 1.6,4 C1.6,2.6745166 2.6745166,1.6 4,1.6 Z" id="Path" fill="#FFFFFF"></path>
                </g>
            </g>
            <g id="Timeline/_Resources/-Node" transform="translate(320.000000, 30.000000)">
                <text id="Text" font-family="PingFangTC-Semibold, PingFang TC" font-size="14" font-weight="500" line-spacing="22" fill="#004477">
                    <tspan x="16" y="14">2021-07-30 10:08:55</tspan>
                </text>
                <text id="Text" font-family="PingFangTC-Regular, PingFang TC" font-size="14" font-weight="normal" line-spacing="22" fill="#545454">
                    <tspan x="16" y="34">訂單狀態</tspan>
                    <tspan x="16" y="56">操作人員</tspan>
                </text>
                <rect id="Rectangle-2" fill="#E5E5E5" x="3" y="10" width="2" height="56"></rect>
                <g id="Timeline/_Resources/Dot/Ongoing" transform="translate(0.000000, 6.000000)">
                    <path d="M4,0 C1.790861,0 0,1.790861 0,4 C0,6.209139 1.790861,8 4,8 C6.209139,8 8,6.209139 8,4 C8,1.790861 6.209139,0 4,0 Z M4,1.6 C5.3254834,1.6 6.4,2.6745166 6.4,4 C6.4,5.3254834 5.3254834,6.4 4,6.4 C2.6745166,6.4 1.6,5.3254834 1.6,4 C1.6,2.6745166 2.6745166,1.6 4,1.6 Z" id="Oval" fill="#004477"></path>
                    <path d="M4,1.6 C5.3254834,1.6 6.4,2.6745166 6.4,4 C6.4,5.3254834 5.3254834,6.4 4,6.4 C2.6745166,6.4 1.6,5.3254834 1.6,4 C1.6,2.6745166 2.6745166,1.6 4,1.6 Z" id="Path" fill="#FFFFFF"></path>
                </g>
            </g>
            <g id="Timeline/_Resources/-Node" transform="translate(320.000000, 96.000000)">
                <text id="Text" font-family="PingFangTC-Semibold, PingFang TC" font-size="14" font-weight="500" line-spacing="22" fill="#004477">
                    <tspan x="16" y="14">2021-07-30 10:08:55</tspan>
                </text>
                <text id="Text" font-family="PingFangTC-Regular, PingFang TC" font-size="14" font-weight="normal" line-spacing="22" fill="#545454">
                    <tspan x="16" y="34">訂單狀態</tspan>
                    <tspan x="16" y="56">操作人員</tspan>
                </text>
                <rect id="Rectangle-2" fill="#E5E5E5" x="3" y="0" width="2" height="66"></rect>
                <g id="Timeline/_Resources/Dot/Ongoing" transform="translate(0.000000, 6.000000)">
                    <path d="M4,0 C1.790861,0 0,1.790861 0,4 C0,6.209139 1.790861,8 4,8 C6.209139,8 8,6.209139 8,4 C8,1.790861 6.209139,0 4,0 Z M4,1.6 C5.3254834,1.6 6.4,2.6745166 6.4,4 C6.4,5.3254834 5.3254834,6.4 4,6.4 C2.6745166,6.4 1.6,5.3254834 1.6,4 C1.6,2.6745166 2.6745166,1.6 4,1.6 Z" id="Oval" fill="#004477"></path>
                    <path d="M4,1.6 C5.3254834,1.6 6.4,2.6745166 6.4,4 C6.4,5.3254834 5.3254834,6.4 4,6.4 C2.6745166,6.4 1.6,5.3254834 1.6,4 C1.6,2.6745166 2.6745166,1.6 4,1.6 Z" id="Path" fill="#FFFFFF"></path>
                </g>
            </g>
            <g id="Timeline/_Resources/-Node" transform="translate(320.000000, 162.000000)">
                <text id="Text" font-family="PingFangTC-Semibold, PingFang TC" font-size="14" font-weight="500" line-spacing="22" fill="#004477">
                    <tspan x="16" y="14">2021-07-30 10:08:55</tspan>
                </text>
                <text id="Text" font-family="PingFangTC-Regular, PingFang TC" font-size="14" font-weight="normal" line-spacing="22" fill="#545454">
                    <tspan x="16" y="34">訂單狀態</tspan>
                    <tspan x="16" y="56">操作人員</tspan>
                </text>
                <rect id="Rectangle-2" fill="#E5E5E5" x="3" y="0" width="2" height="10"></rect>
                <g id="Timeline/_Resources/Dot/Ongoing" transform="translate(0.000000, 6.000000)">
                    <path d="M4,0 C1.790861,0 0,1.790861 0,4 C0,6.209139 1.790861,8 4,8 C6.209139,8 8,6.209139 8,4 C8,1.790861 6.209139,0 4,0 Z M4,1.6 C5.3254834,1.6 6.4,2.6745166 6.4,4 C6.4,5.3254834 5.3254834,6.4 4,6.4 C2.6745166,6.4 1.6,5.3254834 1.6,4 C1.6,2.6745166 2.6745166,1.6 4,1.6 Z" id="Oval" fill="#004477"></path>
                    <path d="M4,1.6 C5.3254834,1.6 6.4,2.6745166 6.4,4 C6.4,5.3254834 5.3254834,6.4 4,6.4 C2.6745166,6.4 1.6,5.3254834 1.6,4 C1.6,2.6745166 2.6745166,1.6 4,1.6 Z" id="Path" fill="#FFFFFF"></path>
                </g>
            </g>
        </g>
    </g>
</svg>