<?xml version="1.0" encoding="UTF-8"?>
<svg width="880px" height="382px" viewBox="0 0 880 382" version="1.1" xmlns="http://www.w3.org/2000/svg" xmlns:xlink="http://www.w3.org/1999/xlink">
    <title>date04</title>
    <defs>
        <path d="M9.92698943,7.41489705 L4.07145242,7.41489705 C3.80189204,7.41489705 3.5837507,7.1961714 3.5837507,6.92588898 L3.5837507,6.92588898 C3.5837507,6.65560657 3.80189204,6.43688091 4.07145242,6.43688091 L9.92854758,6.43688091 C10.198108,6.43688091 10.4162493,6.65560657 10.4162493,6.92588898 L10.4162493,6.92588898 C10.4146912,7.1961714 10.1965498,7.41489705 9.92698943,7.41489705 L9.92698943,7.41489705 Z M9.92698943,4.76675431 L4.07145242,4.76675431 C3.80189204,4.76675431 3.5837507,4.54802866 3.5837507,4.27774624 L3.5837507,4.27774624 C3.5837507,4.00746383 3.80189204,3.78873817 4.07145242,3.78873817 L9.92854758,3.78873817 C10.198108,3.78873817 10.4162493,4.00746383 10.4162493,4.27774624 L10.4162493,4.27774624 C10.4146912,4.54802866 10.1965498,4.76675431 9.92698943,4.76675431 L9.92698943,4.76675431 Z M12.8765721,11.9987618 L11.0753478,11.9987618 L11.0753478,12.3846564 C11.0753478,12.6549388 10.8572065,12.8736644 10.5876461,12.8736644 L10.5876461,12.8736644 C10.3180857,12.8736644 10.0999444,12.6549388 10.0999444,12.3846564 L10.0999444,11.9987618 L3.8984975,11.9987618 L3.8984975,12.3846564 C3.8984975,12.6549388 3.68035615,12.8736644 3.41079577,12.8736644 L3.41079577,12.8736644 C3.14123539,12.8736644 2.92309405,12.6549388 2.92309405,12.3846564 L2.92309405,11.9987618 L1.12186978,11.9987618 C0.501725097,11.9987618 0,11.4956928 0,10.873887 L0,1.99987479 C0,1.378069 0.501725097,0.875 1.12186978,0.875 L12.8781302,0.875 C13.4982749,0.875 14,1.378069 14,1.99987479 L14,10.873887 C13.9984418,11.4941305 13.4967168,11.9987618 12.8765721,11.9987618 L12.8765721,11.9987618 Z M1.12186978,10.873887 L2.9246522,10.873887 L2.9246522,10.6207902 C2.9246522,10.3505078 3.14279354,10.1317821 3.41235392,10.1317821 L3.41235392,10.1317821 C3.6819143,10.1317821 3.90005565,10.3505078 3.90005565,10.6207902 L3.90005565,10.873887 L10.1015025,10.873887 L10.1015025,10.6207902 C10.1015025,10.3505078 10.3196439,10.1317821 10.5892042,10.1317821 L10.5892042,10.1317821 C10.8587646,10.1317821 11.076906,10.3505078 11.076906,10.6207902 L11.076906,10.873887 L12.8796884,10.873887 L12.8796884,10.873887 L12.8796884,9.34124513 L1.12186978,9.34124513 L1.12186978,10.873887 L1.12186978,10.873887 L1.12186978,10.873887 Z M12.8765721,1.99987479 L1.12186978,1.99987479 L1.12186978,1.99987479 L1.12186978,8.36791597 L12.8781302,8.36791597 L12.8781302,1.99987479 L12.8765721,1.99987479 L12.8765721,1.99987479 Z" id="path-1"></path>
        <path d="M9.92698943,7.41489705 L4.07145242,7.41489705 C3.80189204,7.41489705 3.5837507,7.1961714 3.5837507,6.92588898 L3.5837507,6.92588898 C3.5837507,6.65560657 3.80189204,6.43688091 4.07145242,6.43688091 L9.92854758,6.43688091 C10.198108,6.43688091 10.4162493,6.65560657 10.4162493,6.92588898 L10.4162493,6.92588898 C10.4146912,7.1961714 10.1965498,7.41489705 9.92698943,7.41489705 L9.92698943,7.41489705 Z M9.92698943,4.76675431 L4.07145242,4.76675431 C3.80189204,4.76675431 3.5837507,4.54802866 3.5837507,4.27774624 L3.5837507,4.27774624 C3.5837507,4.00746383 3.80189204,3.78873817 4.07145242,3.78873817 L9.92854758,3.78873817 C10.198108,3.78873817 10.4162493,4.00746383 10.4162493,4.27774624 L10.4162493,4.27774624 C10.4146912,4.54802866 10.1965498,4.76675431 9.92698943,4.76675431 L9.92698943,4.76675431 Z M12.8765721,11.9987618 L11.0753478,11.9987618 L11.0753478,12.3846564 C11.0753478,12.6549388 10.8572065,12.8736644 10.5876461,12.8736644 L10.5876461,12.8736644 C10.3180857,12.8736644 10.0999444,12.6549388 10.0999444,12.3846564 L10.0999444,11.9987618 L3.8984975,11.9987618 L3.8984975,12.3846564 C3.8984975,12.6549388 3.68035615,12.8736644 3.41079577,12.8736644 L3.41079577,12.8736644 C3.14123539,12.8736644 2.92309405,12.6549388 2.92309405,12.3846564 L2.92309405,11.9987618 L1.12186978,11.9987618 C0.501725097,11.9987618 0,11.4956928 0,10.873887 L0,1.99987479 C0,1.378069 0.501725097,0.875 1.12186978,0.875 L12.8781302,0.875 C13.4982749,0.875 14,1.378069 14,1.99987479 L14,10.873887 C13.9984418,11.4941305 13.4967168,11.9987618 12.8765721,11.9987618 L12.8765721,11.9987618 Z M1.12186978,10.873887 L2.9246522,10.873887 L2.9246522,10.6207902 C2.9246522,10.3505078 3.14279354,10.1317821 3.41235392,10.1317821 L3.41235392,10.1317821 C3.6819143,10.1317821 3.90005565,10.3505078 3.90005565,10.6207902 L3.90005565,10.873887 L10.1015025,10.873887 L10.1015025,10.6207902 C10.1015025,10.3505078 10.3196439,10.1317821 10.5892042,10.1317821 L10.5892042,10.1317821 C10.8587646,10.1317821 11.076906,10.3505078 11.076906,10.6207902 L11.076906,10.873887 L12.8796884,10.873887 L12.8796884,10.873887 L12.8796884,9.34124513 L1.12186978,9.34124513 L1.12186978,10.873887 L1.12186978,10.873887 L1.12186978,10.873887 Z M12.8765721,1.99987479 L1.12186978,1.99987479 L1.12186978,1.99987479 L1.12186978,8.36791597 L12.8781302,8.36791597 L12.8781302,1.99987479 L12.8765721,1.99987479 L12.8765721,1.99987479 Z" id="path-3"></path>
        <path d="M9.92698943,7.41489705 L4.07145242,7.41489705 C3.80189204,7.41489705 3.5837507,7.1961714 3.5837507,6.92588898 L3.5837507,6.92588898 C3.5837507,6.65560657 3.80189204,6.43688091 4.07145242,6.43688091 L9.92854758,6.43688091 C10.198108,6.43688091 10.4162493,6.65560657 10.4162493,6.92588898 L10.4162493,6.92588898 C10.4146912,7.1961714 10.1965498,7.41489705 9.92698943,7.41489705 L9.92698943,7.41489705 Z M9.92698943,4.76675431 L4.07145242,4.76675431 C3.80189204,4.76675431 3.5837507,4.54802866 3.5837507,4.27774624 L3.5837507,4.27774624 C3.5837507,4.00746383 3.80189204,3.78873817 4.07145242,3.78873817 L9.92854758,3.78873817 C10.198108,3.78873817 10.4162493,4.00746383 10.4162493,4.27774624 L10.4162493,4.27774624 C10.4146912,4.54802866 10.1965498,4.76675431 9.92698943,4.76675431 L9.92698943,4.76675431 Z M12.8765721,11.9987618 L11.0753478,11.9987618 L11.0753478,12.3846564 C11.0753478,12.6549388 10.8572065,12.8736644 10.5876461,12.8736644 L10.5876461,12.8736644 C10.3180857,12.8736644 10.0999444,12.6549388 10.0999444,12.3846564 L10.0999444,11.9987618 L3.8984975,11.9987618 L3.8984975,12.3846564 C3.8984975,12.6549388 3.68035615,12.8736644 3.41079577,12.8736644 L3.41079577,12.8736644 C3.14123539,12.8736644 2.92309405,12.6549388 2.92309405,12.3846564 L2.92309405,11.9987618 L1.12186978,11.9987618 C0.501725097,11.9987618 0,11.4956928 0,10.873887 L0,1.99987479 C0,1.378069 0.501725097,0.875 1.12186978,0.875 L12.8781302,0.875 C13.4982749,0.875 14,1.378069 14,1.99987479 L14,10.873887 C13.9984418,11.4941305 13.4967168,11.9987618 12.8765721,11.9987618 L12.8765721,11.9987618 Z M1.12186978,10.873887 L2.9246522,10.873887 L2.9246522,10.6207902 C2.9246522,10.3505078 3.14279354,10.1317821 3.41235392,10.1317821 L3.41235392,10.1317821 C3.6819143,10.1317821 3.90005565,10.3505078 3.90005565,10.6207902 L3.90005565,10.873887 L10.1015025,10.873887 L10.1015025,10.6207902 C10.1015025,10.3505078 10.3196439,10.1317821 10.5892042,10.1317821 L10.5892042,10.1317821 C10.8587646,10.1317821 11.076906,10.3505078 11.076906,10.6207902 L11.076906,10.873887 L12.8796884,10.873887 L12.8796884,10.873887 L12.8796884,9.34124513 L1.12186978,9.34124513 L1.12186978,10.873887 L1.12186978,10.873887 L1.12186978,10.873887 Z M12.8765721,1.99987479 L1.12186978,1.99987479 L1.12186978,1.99987479 L1.12186978,8.36791597 L12.8781302,8.36791597 L12.8781302,1.99987479 L12.8765721,1.99987479 L12.8765721,1.99987479 Z" id="path-5"></path>
        <path d="M9.92698943,7.41489705 L4.07145242,7.41489705 C3.80189204,7.41489705 3.5837507,7.1961714 3.5837507,6.92588898 L3.5837507,6.92588898 C3.5837507,6.65560657 3.80189204,6.43688091 4.07145242,6.43688091 L9.92854758,6.43688091 C10.198108,6.43688091 10.4162493,6.65560657 10.4162493,6.92588898 L10.4162493,6.92588898 C10.4146912,7.1961714 10.1965498,7.41489705 9.92698943,7.41489705 L9.92698943,7.41489705 Z M9.92698943,4.76675431 L4.07145242,4.76675431 C3.80189204,4.76675431 3.5837507,4.54802866 3.5837507,4.27774624 L3.5837507,4.27774624 C3.5837507,4.00746383 3.80189204,3.78873817 4.07145242,3.78873817 L9.92854758,3.78873817 C10.198108,3.78873817 10.4162493,4.00746383 10.4162493,4.27774624 L10.4162493,4.27774624 C10.4146912,4.54802866 10.1965498,4.76675431 9.92698943,4.76675431 L9.92698943,4.76675431 Z M12.8765721,11.9987618 L11.0753478,11.9987618 L11.0753478,12.3846564 C11.0753478,12.6549388 10.8572065,12.8736644 10.5876461,12.8736644 L10.5876461,12.8736644 C10.3180857,12.8736644 10.0999444,12.6549388 10.0999444,12.3846564 L10.0999444,11.9987618 L3.8984975,11.9987618 L3.8984975,12.3846564 C3.8984975,12.6549388 3.68035615,12.8736644 3.41079577,12.8736644 L3.41079577,12.8736644 C3.14123539,12.8736644 2.92309405,12.6549388 2.92309405,12.3846564 L2.92309405,11.9987618 L1.12186978,11.9987618 C0.501725097,11.9987618 0,11.4956928 0,10.873887 L0,1.99987479 C0,1.378069 0.501725097,0.875 1.12186978,0.875 L12.8781302,0.875 C13.4982749,0.875 14,1.378069 14,1.99987479 L14,10.873887 C13.9984418,11.4941305 13.4967168,11.9987618 12.8765721,11.9987618 L12.8765721,11.9987618 Z M1.12186978,10.873887 L2.9246522,10.873887 L2.9246522,10.6207902 C2.9246522,10.3505078 3.14279354,10.1317821 3.41235392,10.1317821 L3.41235392,10.1317821 C3.6819143,10.1317821 3.90005565,10.3505078 3.90005565,10.6207902 L3.90005565,10.873887 L10.1015025,10.873887 L10.1015025,10.6207902 C10.1015025,10.3505078 10.3196439,10.1317821 10.5892042,10.1317821 L10.5892042,10.1317821 C10.8587646,10.1317821 11.076906,10.3505078 11.076906,10.6207902 L11.076906,10.873887 L12.8796884,10.873887 L12.8796884,10.873887 L12.8796884,9.34124513 L1.12186978,9.34124513 L1.12186978,10.873887 L1.12186978,10.873887 L1.12186978,10.873887 Z M12.8765721,1.99987479 L1.12186978,1.99987479 L1.12186978,1.99987479 L1.12186978,8.36791597 L12.8781302,8.36791597 L12.8781302,1.99987479 L12.8765721,1.99987479 L12.8765721,1.99987479 Z" id="path-7"></path>
        <path d="M12.2458984,4.10292969 C12.2458984,4.23417969 12.2021484,4.36679687 12.1146484,4.47753906 L7.45390625,10.2716797 C7.34042969,10.4125 7.16953125,10.4945312 6.98769531,10.4945312 C6.80722656,10.4945312 6.63496094,10.4125 6.52285156,10.2716797 L1.88671875,4.50214844 C1.68027344,4.24511719 1.72128906,3.86914062 1.97832031,3.66269531 C2.23535156,3.45625 2.61132813,3.49726562 2.81777344,3.75429687 L6.9890625,8.94414062 L11.1835938,3.72832031 C11.3900391,3.47128906 11.7660156,3.43027344 12.0230469,3.63671875 C12.1693359,3.75566406 12.2458984,3.92792969 12.2458984,4.10292969 Z" id="path-9"></path>
        <path d="M12.2458984,4.10292969 C12.2458984,4.23417969 12.2021484,4.36679687 12.1146484,4.47753906 L7.45390625,10.2716797 C7.34042969,10.4125 7.16953125,10.4945312 6.98769531,10.4945312 C6.80722656,10.4945312 6.63496094,10.4125 6.52285156,10.2716797 L1.88671875,4.50214844 C1.68027344,4.24511719 1.72128906,3.86914062 1.97832031,3.66269531 C2.23535156,3.45625 2.61132813,3.49726562 2.81777344,3.75429687 L6.9890625,8.94414062 L11.1835938,3.72832031 C11.3900391,3.47128906 11.7660156,3.43027344 12.0230469,3.63671875 C12.1693359,3.75566406 12.2458984,3.92792969 12.2458984,4.10292969 Z" id="path-11"></path>
        <rect id="path-13" x="0" y="0" width="199" height="97" rx="4"></rect>
        <filter x="-3.5%" y="-5.2%" width="107.0%" height="114.4%" filterUnits="objectBoundingBox" id="filter-14">
            <feOffset dx="0" dy="2" in="SourceAlpha" result="shadowOffsetOuter1"></feOffset>
            <feGaussianBlur stdDeviation="2" in="shadowOffsetOuter1" result="shadowBlurOuter1"></feGaussianBlur>
            <feColorMatrix values="0 0 0 0 0   0 0 0 0 0   0 0 0 0 0  0 0 0 0.1 0" type="matrix" in="shadowBlurOuter1"></feColorMatrix>
        </filter>
        <rect id="path-15" x="0" y="0" width="267" height="266" rx="4"></rect>
        <filter x="-4.9%" y="-4.1%" width="109.7%" height="109.8%" filterUnits="objectBoundingBox" id="filter-16">
            <feOffset dx="0" dy="2" in="SourceAlpha" result="shadowOffsetOuter1"></feOffset>
            <feGaussianBlur stdDeviation="4" in="shadowOffsetOuter1" result="shadowBlurOuter1"></feGaussianBlur>
            <feColorMatrix values="0 0 0 0 0   0 0 0 0 0   0 0 0 0 0  0 0 0 0.15 0" type="matrix" in="shadowBlurOuter1"></feColorMatrix>
        </filter>
    </defs>
    <g id="XXXGuideline" stroke="none" stroke-width="1" fill="none" fill-rule="evenodd">
        <g id="Guideline_日期" transform="translate(-110.000000, -2108.000000)">
            <g id="date04" transform="translate(110.000000, 2108.000000)">
                <rect id="bg" x="0" y="0" width="880" height="382"></rect>
                <g id="DatePicker/Medium/Placeholder--Copy-2" transform="translate(230.000000, 20.000000)">
                    <g id="DatePicker/Medium/Placeholder-">
                        <rect id="Rectangle-5" stroke="#CCCCCC" fill="#FFFFFF" x="0.5" y="0.5" width="161.67377" height="31" rx="4"></rect>
                        <g id="Group" transform="translate(138.673770, 9.000000)">
                            <mask id="mask-2" fill="white">
                                <use xlink:href="#path-1"></use>
                            </mask>
                            <use id="Mask" fill="#7F7F7F" transform="translate(7.000000, 6.874332) scale(1, -1) translate(-7.000000, -6.874332) " xlink:href="#path-1"></use>
                        </g>
                        <text id="Text" font-family="PingFangTC-Regular, PingFang TC" font-size="14" font-weight="normal" line-spacing="22" fill="#B4B4B4">
                            <tspan x="10" y="20">開始日期</tspan>
                        </text>
                    </g>
                    <text id="Text-Copy" font-family="PingFangTC-Regular, PingFang TC" font-size="14" font-weight="normal" line-spacing="22" fill="#545454">
                        <tspan x="166.720492" y="20">~</tspan>
                    </text>
                    <g id="DatePicker/Medium/Placeholder-" transform="translate(177.767213, 0.000000)">
                        <rect id="Rectangle-5" stroke="#CCCCCC" fill="#FFFFFF" x="0.5" y="0.5" width="162.232787" height="31" rx="4"></rect>
                        <g id="Group" transform="translate(139.232787, 9.000000)">
                            <mask id="mask-4" fill="white">
                                <use xlink:href="#path-3"></use>
                            </mask>
                            <use id="Mask" fill="#7F7F7F" transform="translate(7.000000, 6.874332) scale(1, -1) translate(-7.000000, -6.874332) " xlink:href="#path-3"></use>
                        </g>
                        <text id="Text" font-family="PingFangTC-Regular, PingFang TC" font-size="14" font-weight="normal" line-spacing="22" fill="#B4B4B4">
                            <tspan x="10" y="20">結束日期</tspan>
                        </text>
                    </g>
                </g>
                <g id="DatePicker/Medium/Placeholder--Copy-5" transform="translate(230.000000, 62.000000)">
                    <text id="Text-Copy" font-family="PingFangTC-Regular, PingFang TC" font-size="14" font-weight="normal" line-spacing="22" fill="#545454">
                        <tspan x="167.145902" y="21">~</tspan>
                    </text>
                    <g id="DatePicker/Medium/Placeholder-">
                        <rect id="Rectangle-5" stroke="#004477" fill="#FFFFFF" x="0.5" y="0.5" width="161.114754" height="31" rx="4"></rect>
                        <g id="Group" transform="translate(138.114754, 9.000000)">
                            <mask id="mask-6" fill="white">
                                <use xlink:href="#path-5"></use>
                            </mask>
                            <use id="Mask" fill="#7F7F7F" transform="translate(7.000000, 6.874332) scale(1, -1) translate(-7.000000, -6.874332) " xlink:href="#path-5"></use>
                        </g>
                        <text id="Text" font-family="PingFangTC-Regular, PingFang TC" font-size="14" font-weight="normal" line-spacing="22" fill="#545454">
                            <tspan x="10" y="20">2020-4-17</tspan>
                        </text>
                    </g>
                    <g id="DatePicker/Medium/Placeholder-" transform="translate(178.885246, 0.000000)">
                        <rect id="Rectangle-5" stroke="#CCCCCC" fill="#FFFFFF" x="0.5" y="0.5" width="161.114754" height="31" rx="4"></rect>
                        <g id="Group" transform="translate(138.114754, 9.000000)">
                            <mask id="mask-8" fill="white">
                                <use xlink:href="#path-7"></use>
                            </mask>
                            <use id="Mask" fill="#7F7F7F" transform="translate(7.000000, 6.874332) scale(1, -1) translate(-7.000000, -6.874332) " xlink:href="#path-7"></use>
                        </g>
                        <text id="Text" font-family="PingFangTC-Semibold, PingFang TC" font-size="14" font-weight="500" line-spacing="22" fill="#545454">
                            <tspan x="10" y="20">2020-5-17</tspan>
                        </text>
                    </g>
                </g>
                <g id="Select/Medium/Selected" transform="translate(20.000000, 20.000000)">
                    <path d="M196.004924,0.5 C196.970354,0.5 197.844353,0.891555978 198.476826,1.52548268 C199.109166,2.15927571 199.5,3.03523985 199.5,4.0042577 L199.5,4.0042577 L199.5,27.9957423 C199.5,28.9633833 199.108483,29.8394625 198.475724,30.4736763 C197.843166,31.1076874 196.969463,31.5 196.004924,31.5 L196.004924,31.5 L3.99507582,31.5 C3.02964584,31.5 2.15564668,31.108444 1.52317359,30.4745173 C0.890833869,29.8407243 0.5,28.9647601 0.5,27.9957423 L0.5,27.9957423 L0.5,4.0042577 C0.5,3.03661667 0.891516865,2.1605375 1.52427638,1.52632372 C2.15683371,0.892312577 3.03053701,0.5 3.99507582,0.5 L3.99507582,0.5 L196.004924,0.5 Z" id="Rectangle-26-Copy-23" stroke="#CCCCCC" fill="#FFFFFF"></path>
                    <g id="Group" transform="translate(176.000000, 9.000000)">
                        <mask id="mask-10" fill="white">
                            <use xlink:href="#path-9"></use>
                        </mask>
                        <use id="Mask" fill="#7F7F7F" xlink:href="#path-9"></use>
                    </g>
                    <text id="Text" font-family="PingFangTC-Regular, PingFang TC" font-size="14" font-weight="normal" line-spacing="22" fill="#B4B4B4">
                        <tspan x="10" y="20">查詢日期</tspan>
                    </text>
                </g>
                <g id="Select/Medium/Selected-Copy" transform="translate(20.000000, 62.000000)">
                    <path d="M196.004924,0.5 C196.970354,0.5 197.844353,0.891555978 198.476826,1.52548268 C199.109166,2.15927571 199.5,3.03523985 199.5,4.0042577 L199.5,4.0042577 L199.5,27.9957423 C199.5,28.9633833 199.108483,29.8394625 198.475724,30.4736763 C197.843166,31.1076874 196.969463,31.5 196.004924,31.5 L196.004924,31.5 L3.99507582,31.5 C3.02964584,31.5 2.15564668,31.108444 1.52317359,30.4745173 C0.890833869,29.8407243 0.5,28.9647601 0.5,27.9957423 L0.5,27.9957423 L0.5,4.0042577 C0.5,3.03661667 0.891516865,2.1605375 1.52427638,1.52632372 C2.15683371,0.892312577 3.03053701,0.5 3.99507582,0.5 L3.99507582,0.5 L196.004924,0.5 Z" id="Rectangle-26-Copy-23" stroke="#004477" fill="#FFFFFF"></path>
                    <g id="Group" transform="translate(176.000000, 9.000000)">
                        <mask id="mask-12" fill="white">
                            <use xlink:href="#path-11"></use>
                        </mask>
                        <use id="Mask" fill="#7F7F7F" xlink:href="#path-11"></use>
                    </g>
                    <text id="Text" font-family="PingFangTC-Semibold, PingFang TC" font-size="14" font-weight="500" line-spacing="22" fill="#545454">
                        <tspan x="10" y="20">發票日期</tspan>
                    </text>
                </g>
                <g id="Select/Medium/Dropdown" transform="translate(20.000000, 94.000000)">
                    <g id="Rectangle">
                        <use fill="black" fill-opacity="1" filter="url(#filter-14)" xlink:href="#path-13"></use>
                        <use fill="#FFFFFF" fill-rule="evenodd" xlink:href="#path-13"></use>
                    </g>
                    <g id="Select/Resource/hover" transform="translate(0.000000, 1.000000)">
                        <rect id="Rectangle" fill="#F1F8FE" x="0" y="0" width="199" height="32"></rect>
                        <text id="商品分類B" font-family="PingFangTC-Regular, PingFang TC" font-size="14" font-weight="normal" line-spacing="22" fill="#545454">
                            <tspan x="10" y="20">發票日期</tspan>
                        </text>
                    </g>
                    <g id="Select/Resource/default-Copy-5" transform="translate(0.000000, 33.000000)">
                        <rect id="Rectangle" fill="#FFFFFF" x="0" y="0" width="163" height="32"></rect>
                        <text id="商品分類B" font-family="PingFangTC-Regular, PingFang TC" font-size="14" font-weight="normal" line-spacing="22" fill="#545454">
                            <tspan x="10" y="20">付款日期</tspan>
                        </text>
                    </g>
                    <g id="Select/Resource/default-Copy-6" transform="translate(0.000000, 65.000000)">
                        <rect id="Rectangle" fill="#FFFFFF" x="0" y="0" width="163" height="32"></rect>
                        <text id="商品分類B" font-family="PingFangTC-Regular, PingFang TC" font-size="14" font-weight="normal" line-spacing="22" fill="#545454">
                            <tspan x="10" y="20">匯入日期</tspan>
                        </text>
                    </g>
                </g>
                <g id="Group-5" transform="translate(230.000000, 94.000000)">
                    <g id="Rectangle-5-Copy-10">
                        <use fill="black" fill-opacity="1" filter="url(#filter-16)" xlink:href="#path-15"></use>
                        <use fill="#FFFFFF" fill-rule="evenodd" xlink:href="#path-15"></use>
                    </g>
                    <g id="Group-2" transform="translate(0.000000, 4.000000)">
                        <text id="日" font-family="PingFangSC-Medium, PingFang SC" font-size="14" font-weight="400" line-spacing="22" fill="#000000" fill-opacity="0.65">
                            <tspan x="18.9291045" y="58">日</tspan>
                        </text>
                        <rect id="Rectangle-52-Copy-9" fill="#004477" x="194.272388" y="133" width="23.9104478" height="24" rx="2"></rect>
                        <text id="03" font-family="HelveticaNeue, Helvetica Neue" font-size="14" font-weight="normal" line-spacing="22" fill="#000000" fill-opacity="0.65">
                            <tspan x="18.9291045" y="116">03</tspan>
                        </text>
                        <text id="26" font-family="HelveticaNeue, Helvetica Neue" font-size="14" font-weight="normal" line-spacing="22" fill="#000000" fill-opacity="0.25">
                            <tspan x="18.9291045" y="86">26</tspan>
                        </text>
                        <text id="27" font-family="HelveticaNeue, Helvetica Neue" font-size="14" font-weight="normal" line-spacing="22" fill="#000000" fill-opacity="0.25">
                            <tspan x="54.7947761" y="86">27</tspan>
                        </text>
                        <text id="28" font-family="HelveticaNeue, Helvetica Neue" font-size="14" font-weight="normal" line-spacing="22" fill="#000000" fill-opacity="0.25">
                            <tspan x="90.6604478" y="86">28</tspan>
                        </text>
                        <text id="29" font-family="HelveticaNeue, Helvetica Neue" font-size="14" font-weight="normal" line-spacing="22" fill="#000000" fill-opacity="0.25">
                            <tspan x="126.526119" y="86">29</tspan>
                        </text>
                        <text id="30" font-family="HelveticaNeue, Helvetica Neue" font-size="14" font-weight="normal" line-spacing="22" fill="#000000" fill-opacity="0.25">
                            <tspan x="162.391791" y="86">30</tspan>
                        </text>
                        <text id="01" font-family="HelveticaNeue, Helvetica Neue" font-size="14" font-weight="normal" line-spacing="22" fill="#000000" fill-opacity="0.65">
                            <tspan x="198.257463" y="86">01</tspan>
                        </text>
                        <text id="02" font-family="HelveticaNeue, Helvetica Neue" font-size="14" font-weight="normal" line-spacing="22" fill="#000000" fill-opacity="0.65">
                            <tspan x="234.123134" y="86">02</tspan>
                        </text>
                        <text id="12" font-family="HelveticaNeue, Helvetica Neue" font-size="14" font-weight="normal" line-spacing="22" fill="#000000" fill-opacity="0.65">
                            <tspan x="18.9291045" y="146">12</tspan>
                        </text>
                        <text id="19" font-family="HelveticaNeue, Helvetica Neue" font-size="14" font-weight="normal" line-spacing="22" fill="#000000" fill-opacity="0.25">
                            <tspan x="18.9291045" y="176">19</tspan>
                        </text>
                        <text id="26" font-family="HelveticaNeue, Helvetica Neue" font-size="14" font-weight="normal" line-spacing="22" fill="#000000" fill-opacity="0.25">
                            <tspan x="18.9291045" y="206">26</tspan>
                        </text>
                        <text id="一" font-family="PingFangSC-Medium, PingFang SC" font-size="14" font-weight="400" line-spacing="22" fill="#000000" fill-opacity="0.65">
                            <tspan x="54.7947761" y="58">一</tspan>
                        </text>
                        <text id="06" font-family="HelveticaNeue, Helvetica Neue" font-size="14" font-weight="normal" line-spacing="22" fill="#000000" fill-opacity="0.65">
                            <tspan x="54.7947761" y="116">06</tspan>
                        </text>
                        <text id="04" font-family="HelveticaNeue, Helvetica Neue" font-size="14" font-weight="normal" line-spacing="22" fill="#000000" fill-opacity="0.25">
                            <tspan x="54.7947761" y="236">04</tspan>
                        </text>
                        <text id="13" font-family="HelveticaNeue, Helvetica Neue" font-size="14" font-weight="normal" line-spacing="22" fill="#000000" fill-opacity="0.65">
                            <tspan x="54.7947761" y="146">13</tspan>
                        </text>
                        <text id="20" font-family="HelveticaNeue, Helvetica Neue" font-size="14" font-weight="normal" line-spacing="22" fill="#000000" fill-opacity="0.25">
                            <tspan x="54.7947761" y="176">20</tspan>
                        </text>
                        <text id="27" font-family="HelveticaNeue, Helvetica Neue" font-size="14" font-weight="normal" line-spacing="22" fill="#000000" fill-opacity="0.25">
                            <tspan x="54.7947761" y="206">27</tspan>
                        </text>
                        <text id="二" font-family="PingFangSC-Medium, PingFang SC" font-size="14" font-weight="400" line-spacing="22" fill="#000000" fill-opacity="0.65">
                            <tspan x="90.6604478" y="58">二</tspan>
                        </text>
                        <text id="07" font-family="HelveticaNeue, Helvetica Neue" font-size="14" font-weight="normal" line-spacing="22" fill="#000000" fill-opacity="0.65">
                            <tspan x="90.6604478" y="116">07</tspan>
                        </text>
                        <text id="05" font-family="HelveticaNeue, Helvetica Neue" font-size="14" font-weight="normal" line-spacing="22" fill="#000000" fill-opacity="0.25">
                            <tspan x="90.6604478" y="236">05</tspan>
                        </text>
                        <text id="14" font-family="HelveticaNeue, Helvetica Neue" font-size="14" font-weight="normal" line-spacing="22" fill="#000000" fill-opacity="0.65">
                            <tspan x="90.6604478" y="146">14</tspan>
                        </text>
                        <text id="21" font-family="HelveticaNeue, Helvetica Neue" font-size="14" font-weight="normal" line-spacing="22" fill="#000000" fill-opacity="0.65">
                            <tspan x="90.6604478" y="176">21</tspan>
                        </text>
                        <text id="28" font-family="HelveticaNeue, Helvetica Neue" font-size="14" font-weight="normal" line-spacing="22" fill="#000000" fill-opacity="0.25">
                            <tspan x="90.6604478" y="206">28</tspan>
                        </text>
                        <text id="三" font-family="PingFangSC-Medium, PingFang SC" font-size="14" font-weight="400" line-spacing="22" fill="#000000" fill-opacity="0.65">
                            <tspan x="126.526119" y="58">三</tspan>
                        </text>
                        <text id="08" font-family="HelveticaNeue, Helvetica Neue" font-size="14" font-weight="normal" line-spacing="22" fill="#000000" fill-opacity="0.65">
                            <tspan x="126.526119" y="116">08</tspan>
                        </text>
                        <text id="06" font-family="HelveticaNeue, Helvetica Neue" font-size="14" font-weight="normal" line-spacing="22" fill="#000000" fill-opacity="0.25">
                            <tspan x="126.526119" y="236">06</tspan>
                        </text>
                        <text id="15" font-family="HelveticaNeue, Helvetica Neue" font-size="14" font-weight="normal" line-spacing="22" fill="#000000" fill-opacity="0.65">
                            <tspan x="126.526119" y="146">15</tspan>
                        </text>
                        <text id="22" font-family="HelveticaNeue, Helvetica Neue" font-size="14" font-weight="normal" line-spacing="22" fill="#000000" fill-opacity="0.65">
                            <tspan x="126.526119" y="176">22</tspan>
                        </text>
                        <text id="29" font-family="HelveticaNeue, Helvetica Neue" font-size="14" font-weight="normal" line-spacing="22" fill="#000000" fill-opacity="0.25">
                            <tspan x="126.526119" y="206">29</tspan>
                        </text>
                        <text id="16" font-family="HelveticaNeue, Helvetica Neue" font-size="14" font-weight="normal" line-spacing="22" fill="#666666">
                            <tspan x="162.391791" y="146">16</tspan>
                        </text>
                        <text id="23" font-family="HelveticaNeue, Helvetica Neue" font-size="14" font-weight="normal" line-spacing="22" fill="#000000" fill-opacity="0.65">
                            <tspan x="162.391791" y="176">23</tspan>
                        </text>
                        <text id="30" font-family="HelveticaNeue, Helvetica Neue" font-size="14" font-weight="normal" line-spacing="22" fill="#000000" fill-opacity="0.25">
                            <tspan x="162.391791" y="206">30</tspan>
                        </text>
                        <text id="四" font-family="PingFangSC-Medium, PingFang SC" font-size="14" font-weight="400" line-spacing="22" fill="#000000" fill-opacity="0.65">
                            <tspan x="162.391791" y="58">四</tspan>
                        </text>
                        <text id="09" font-family="HelveticaNeue, Helvetica Neue" font-size="14" font-weight="normal" line-spacing="22" fill="#000000" fill-opacity="0.65">
                            <tspan x="162.391791" y="116">09</tspan>
                        </text>
                        <text id="07" font-family="HelveticaNeue, Helvetica Neue" font-size="14" font-weight="normal" line-spacing="22" fill="#000000" fill-opacity="0.25">
                            <tspan x="162.391791" y="236">07</tspan>
                        </text>
                        <text id="五" font-family="PingFangSC-Medium, PingFang SC" font-size="14" font-weight="400" line-spacing="22" fill="#000000" fill-opacity="0.65">
                            <tspan x="198.257463" y="58">五</tspan>
                        </text>
                        <text id="10" font-family="HelveticaNeue, Helvetica Neue" font-size="14" font-weight="normal" line-spacing="22" fill="#000000" fill-opacity="0.65">
                            <tspan x="198.257463" y="116">10</tspan>
                        </text>
                        <text id="08" font-family="HelveticaNeue, Helvetica Neue" font-size="14" font-weight="normal" line-spacing="22" fill="#000000" fill-opacity="0.25">
                            <tspan x="198.257463" y="236">08</tspan>
                        </text>
                        <text id="17" font-family="HelveticaNeue, Helvetica Neue" font-size="14" font-weight="normal" line-spacing="22" fill="#FFFFFF">
                            <tspan x="198.257463" y="146">17</tspan>
                        </text>
                        <text id="24" font-family="HelveticaNeue, Helvetica Neue" font-size="14" font-weight="normal" line-spacing="22" fill="#000000" fill-opacity="0.65">
                            <tspan x="198.257463" y="176">24</tspan>
                        </text>
                        <text id="01" font-family="HelveticaNeue, Helvetica Neue" font-size="14" font-weight="normal" line-spacing="22" fill="#000000" fill-opacity="0.25">
                            <tspan x="198.257463" y="206">01</tspan>
                        </text>
                        <text id="六" font-family="PingFangSC-Medium, PingFang SC" font-size="14" font-weight="400" line-spacing="22" fill="#000000" fill-opacity="0.65">
                            <tspan x="234.123134" y="58">六</tspan>
                        </text>
                        <text id="11" font-family="HelveticaNeue, Helvetica Neue" font-size="14" font-weight="normal" line-spacing="22" fill="#000000" fill-opacity="0.65">
                            <tspan x="234.123134" y="116">11</tspan>
                        </text>
                        <text id="09" font-family="HelveticaNeue, Helvetica Neue" font-size="14" font-weight="normal" line-spacing="22" fill="#000000" fill-opacity="0.25">
                            <tspan x="234.123134" y="236">09</tspan>
                        </text>
                        <text id="18" font-family="HelveticaNeue, Helvetica Neue" font-size="14" font-weight="normal" line-spacing="22" fill="#000000" fill-opacity="0.65">
                            <tspan x="234.123134" y="146">18</tspan>
                        </text>
                        <text id="25" font-family="HelveticaNeue, Helvetica Neue" font-size="14" font-weight="normal" line-spacing="22" fill="#000000" fill-opacity="0.65">
                            <tspan x="234.123134" y="176">25</tspan>
                        </text>
                        <text id="02" font-family="HelveticaNeue, Helvetica Neue" font-size="14" font-weight="normal" line-spacing="22" fill="#000000" fill-opacity="0.25">
                            <tspan x="234.123134" y="206">02</tspan>
                        </text>
                        <text id="2020年-4月" font-family="HelveticaNeue-Medium, Helvetica Neue" font-size="14" font-weight="400" line-spacing="22" fill="#000000" fill-opacity="0.85">
                            <tspan x="99.203403" y="14">2020</tspan>
                            <tspan x="130.339403" y="14" font-family="PingFangSC-Medium, PingFang SC">年</tspan>
                            <tspan x="144.339403" y="14" font-family="PingFangSC-Regular, PingFang SC" font-weight="normal"> </tspan>
                            <tspan x="149.001403" y="14">4</tspan>
                            <tspan x="156.785403" y="14" font-family="PingFangSC-Medium, PingFang SC">月 </tspan>
                        </text>
                        <text id="03" font-family="HelveticaNeue, Helvetica Neue" font-size="14" font-weight="normal" line-spacing="22" fill="#000000" fill-opacity="0.25">
                            <tspan x="18.9291045" y="236">03</tspan>
                        </text>
                        <rect id="Rectangle-12" fill-opacity="0.09" fill="#000000" x="0" y="26" width="267" height="1"></rect>
                    </g>
                </g>
            </g>
        </g>
    </g>
</svg>