<?xml version="1.0" encoding="UTF-8"?>
<svg width="880px" height="494px" viewBox="0 0 880 494" version="1.1" xmlns="http://www.w3.org/2000/svg" xmlns:xlink="http://www.w3.org/1999/xlink">
    <title>date01</title>
    <defs>
        <path d="M9.92698943,7.41489705 L4.07145242,7.41489705 C3.80189204,7.41489705 3.5837507,7.1961714 3.5837507,6.92588898 L3.5837507,6.92588898 C3.5837507,6.65560657 3.80189204,6.43688091 4.07145242,6.43688091 L9.92854758,6.43688091 C10.198108,6.43688091 10.4162493,6.65560657 10.4162493,6.92588898 L10.4162493,6.92588898 C10.4146912,7.1961714 10.1965498,7.41489705 9.92698943,7.41489705 L9.92698943,7.41489705 Z M9.92698943,4.76675431 L4.07145242,4.76675431 C3.80189204,4.76675431 3.5837507,4.54802866 3.5837507,4.27774624 L3.5837507,4.27774624 C3.5837507,4.00746383 3.80189204,3.78873817 4.07145242,3.78873817 L9.92854758,3.78873817 C10.198108,3.78873817 10.4162493,4.00746383 10.4162493,4.27774624 L10.4162493,4.27774624 C10.4146912,4.54802866 10.1965498,4.76675431 9.92698943,4.76675431 L9.92698943,4.76675431 Z M12.8765721,11.9987618 L11.0753478,11.9987618 L11.0753478,12.3846564 C11.0753478,12.6549388 10.8572065,12.8736644 10.5876461,12.8736644 L10.5876461,12.8736644 C10.3180857,12.8736644 10.0999444,12.6549388 10.0999444,12.3846564 L10.0999444,11.9987618 L3.8984975,11.9987618 L3.8984975,12.3846564 C3.8984975,12.6549388 3.68035615,12.8736644 3.41079577,12.8736644 L3.41079577,12.8736644 C3.14123539,12.8736644 2.92309405,12.6549388 2.92309405,12.3846564 L2.92309405,11.9987618 L1.12186978,11.9987618 C0.501725097,11.9987618 0,11.4956928 0,10.873887 L0,1.99987479 C0,1.378069 0.501725097,0.875 1.12186978,0.875 L12.8781302,0.875 C13.4982749,0.875 14,1.378069 14,1.99987479 L14,10.873887 C13.9984418,11.4941305 13.4967168,11.9987618 12.8765721,11.9987618 L12.8765721,11.9987618 Z M1.12186978,10.873887 L2.9246522,10.873887 L2.9246522,10.6207902 C2.9246522,10.3505078 3.14279354,10.1317821 3.41235392,10.1317821 L3.41235392,10.1317821 C3.6819143,10.1317821 3.90005565,10.3505078 3.90005565,10.6207902 L3.90005565,10.873887 L10.1015025,10.873887 L10.1015025,10.6207902 C10.1015025,10.3505078 10.3196439,10.1317821 10.5892042,10.1317821 L10.5892042,10.1317821 C10.8587646,10.1317821 11.076906,10.3505078 11.076906,10.6207902 L11.076906,10.873887 L12.8796884,10.873887 L12.8796884,10.873887 L12.8796884,9.34124513 L1.12186978,9.34124513 L1.12186978,10.873887 L1.12186978,10.873887 L1.12186978,10.873887 Z M12.8765721,1.99987479 L1.12186978,1.99987479 L1.12186978,1.99987479 L1.12186978,8.36791597 L12.8781302,8.36791597 L12.8781302,1.99987479 L12.8765721,1.99987479 L12.8765721,1.99987479 Z" id="path-1"></path>
        <path d="M9.92698943,7.41489705 L4.07145242,7.41489705 C3.80189204,7.41489705 3.5837507,7.1961714 3.5837507,6.92588898 L3.5837507,6.92588898 C3.5837507,6.65560657 3.80189204,6.43688091 4.07145242,6.43688091 L9.92854758,6.43688091 C10.198108,6.43688091 10.4162493,6.65560657 10.4162493,6.92588898 L10.4162493,6.92588898 C10.4146912,7.1961714 10.1965498,7.41489705 9.92698943,7.41489705 L9.92698943,7.41489705 Z M9.92698943,4.76675431 L4.07145242,4.76675431 C3.80189204,4.76675431 3.5837507,4.54802866 3.5837507,4.27774624 L3.5837507,4.27774624 C3.5837507,4.00746383 3.80189204,3.78873817 4.07145242,3.78873817 L9.92854758,3.78873817 C10.198108,3.78873817 10.4162493,4.00746383 10.4162493,4.27774624 L10.4162493,4.27774624 C10.4146912,4.54802866 10.1965498,4.76675431 9.92698943,4.76675431 L9.92698943,4.76675431 Z M12.8765721,11.9987618 L11.0753478,11.9987618 L11.0753478,12.3846564 C11.0753478,12.6549388 10.8572065,12.8736644 10.5876461,12.8736644 L10.5876461,12.8736644 C10.3180857,12.8736644 10.0999444,12.6549388 10.0999444,12.3846564 L10.0999444,11.9987618 L3.8984975,11.9987618 L3.8984975,12.3846564 C3.8984975,12.6549388 3.68035615,12.8736644 3.41079577,12.8736644 L3.41079577,12.8736644 C3.14123539,12.8736644 2.92309405,12.6549388 2.92309405,12.3846564 L2.92309405,11.9987618 L1.12186978,11.9987618 C0.501725097,11.9987618 0,11.4956928 0,10.873887 L0,1.99987479 C0,1.378069 0.501725097,0.875 1.12186978,0.875 L12.8781302,0.875 C13.4982749,0.875 14,1.378069 14,1.99987479 L14,10.873887 C13.9984418,11.4941305 13.4967168,11.9987618 12.8765721,11.9987618 L12.8765721,11.9987618 Z M1.12186978,10.873887 L2.9246522,10.873887 L2.9246522,10.6207902 C2.9246522,10.3505078 3.14279354,10.1317821 3.41235392,10.1317821 L3.41235392,10.1317821 C3.6819143,10.1317821 3.90005565,10.3505078 3.90005565,10.6207902 L3.90005565,10.873887 L10.1015025,10.873887 L10.1015025,10.6207902 C10.1015025,10.3505078 10.3196439,10.1317821 10.5892042,10.1317821 L10.5892042,10.1317821 C10.8587646,10.1317821 11.076906,10.3505078 11.076906,10.6207902 L11.076906,10.873887 L12.8796884,10.873887 L12.8796884,10.873887 L12.8796884,9.34124513 L1.12186978,9.34124513 L1.12186978,10.873887 L1.12186978,10.873887 L1.12186978,10.873887 Z M12.8765721,1.99987479 L1.12186978,1.99987479 L1.12186978,1.99987479 L1.12186978,8.36791597 L12.8781302,8.36791597 L12.8781302,1.99987479 L12.8765721,1.99987479 L12.8765721,1.99987479 Z" id="path-3"></path>
        <rect id="path-5" x="0" y="0" width="280" height="338" rx="4"></rect>
        <filter x="-4.6%" y="-3.3%" width="109.3%" height="107.7%" filterUnits="objectBoundingBox" id="filter-6">
            <feOffset dx="0" dy="2" in="SourceAlpha" result="shadowOffsetOuter1"></feOffset>
            <feGaussianBlur stdDeviation="4" in="shadowOffsetOuter1" result="shadowBlurOuter1"></feGaussianBlur>
            <feColorMatrix values="0 0 0 0 0   0 0 0 0 0   0 0 0 0 0  0 0 0 0.15 0" type="matrix" in="shadowBlurOuter1"></feColorMatrix>
        </filter>
        <path d="M9.92698943,7.41489705 L4.07145242,7.41489705 C3.80189204,7.41489705 3.5837507,7.1961714 3.5837507,6.92588898 L3.5837507,6.92588898 C3.5837507,6.65560657 3.80189204,6.43688091 4.07145242,6.43688091 L9.92854758,6.43688091 C10.198108,6.43688091 10.4162493,6.65560657 10.4162493,6.92588898 L10.4162493,6.92588898 C10.4146912,7.1961714 10.1965498,7.41489705 9.92698943,7.41489705 L9.92698943,7.41489705 Z M9.92698943,4.76675431 L4.07145242,4.76675431 C3.80189204,4.76675431 3.5837507,4.54802866 3.5837507,4.27774624 L3.5837507,4.27774624 C3.5837507,4.00746383 3.80189204,3.78873817 4.07145242,3.78873817 L9.92854758,3.78873817 C10.198108,3.78873817 10.4162493,4.00746383 10.4162493,4.27774624 L10.4162493,4.27774624 C10.4146912,4.54802866 10.1965498,4.76675431 9.92698943,4.76675431 L9.92698943,4.76675431 Z M12.8765721,11.9987618 L11.0753478,11.9987618 L11.0753478,12.3846564 C11.0753478,12.6549388 10.8572065,12.8736644 10.5876461,12.8736644 L10.5876461,12.8736644 C10.3180857,12.8736644 10.0999444,12.6549388 10.0999444,12.3846564 L10.0999444,11.9987618 L3.8984975,11.9987618 L3.8984975,12.3846564 C3.8984975,12.6549388 3.68035615,12.8736644 3.41079577,12.8736644 L3.41079577,12.8736644 C3.14123539,12.8736644 2.92309405,12.6549388 2.92309405,12.3846564 L2.92309405,11.9987618 L1.12186978,11.9987618 C0.501725097,11.9987618 0,11.4956928 0,10.873887 L0,1.99987479 C0,1.378069 0.501725097,0.875 1.12186978,0.875 L12.8781302,0.875 C13.4982749,0.875 14,1.378069 14,1.99987479 L14,10.873887 C13.9984418,11.4941305 13.4967168,11.9987618 12.8765721,11.9987618 L12.8765721,11.9987618 Z M1.12186978,10.873887 L2.9246522,10.873887 L2.9246522,10.6207902 C2.9246522,10.3505078 3.14279354,10.1317821 3.41235392,10.1317821 L3.41235392,10.1317821 C3.6819143,10.1317821 3.90005565,10.3505078 3.90005565,10.6207902 L3.90005565,10.873887 L10.1015025,10.873887 L10.1015025,10.6207902 C10.1015025,10.3505078 10.3196439,10.1317821 10.5892042,10.1317821 L10.5892042,10.1317821 C10.8587646,10.1317821 11.076906,10.3505078 11.076906,10.6207902 L11.076906,10.873887 L12.8796884,10.873887 L12.8796884,10.873887 L12.8796884,9.34124513 L1.12186978,9.34124513 L1.12186978,10.873887 L1.12186978,10.873887 L1.12186978,10.873887 Z M12.8765721,1.99987479 L1.12186978,1.99987479 L1.12186978,1.99987479 L1.12186978,8.36791597 L12.8781302,8.36791597 L12.8781302,1.99987479 L12.8765721,1.99987479 L12.8765721,1.99987479 Z" id="path-7"></path>
        <rect id="path-9" x="0" y="0" width="280" height="338" rx="4"></rect>
        <filter x="-4.6%" y="-3.3%" width="109.3%" height="107.7%" filterUnits="objectBoundingBox" id="filter-10">
            <feOffset dx="0" dy="2" in="SourceAlpha" result="shadowOffsetOuter1"></feOffset>
            <feGaussianBlur stdDeviation="4" in="shadowOffsetOuter1" result="shadowBlurOuter1"></feGaussianBlur>
            <feColorMatrix values="0 0 0 0 0   0 0 0 0 0   0 0 0 0 0  0 0 0 0.15 0" type="matrix" in="shadowBlurOuter1"></feColorMatrix>
        </filter>
        <path d="M9.92698943,7.41489705 L4.07145242,7.41489705 C3.80189204,7.41489705 3.5837507,7.1961714 3.5837507,6.92588898 L3.5837507,6.92588898 C3.5837507,6.65560657 3.80189204,6.43688091 4.07145242,6.43688091 L9.92854758,6.43688091 C10.198108,6.43688091 10.4162493,6.65560657 10.4162493,6.92588898 L10.4162493,6.92588898 C10.4146912,7.1961714 10.1965498,7.41489705 9.92698943,7.41489705 L9.92698943,7.41489705 Z M9.92698943,4.76675431 L4.07145242,4.76675431 C3.80189204,4.76675431 3.5837507,4.54802866 3.5837507,4.27774624 L3.5837507,4.27774624 C3.5837507,4.00746383 3.80189204,3.78873817 4.07145242,3.78873817 L9.92854758,3.78873817 C10.198108,3.78873817 10.4162493,4.00746383 10.4162493,4.27774624 L10.4162493,4.27774624 C10.4146912,4.54802866 10.1965498,4.76675431 9.92698943,4.76675431 L9.92698943,4.76675431 Z M12.8765721,11.9987618 L11.0753478,11.9987618 L11.0753478,12.3846564 C11.0753478,12.6549388 10.8572065,12.8736644 10.5876461,12.8736644 L10.5876461,12.8736644 C10.3180857,12.8736644 10.0999444,12.6549388 10.0999444,12.3846564 L10.0999444,11.9987618 L3.8984975,11.9987618 L3.8984975,12.3846564 C3.8984975,12.6549388 3.68035615,12.8736644 3.41079577,12.8736644 L3.41079577,12.8736644 C3.14123539,12.8736644 2.92309405,12.6549388 2.92309405,12.3846564 L2.92309405,11.9987618 L1.12186978,11.9987618 C0.501725097,11.9987618 0,11.4956928 0,10.873887 L0,1.99987479 C0,1.378069 0.501725097,0.875 1.12186978,0.875 L12.8781302,0.875 C13.4982749,0.875 14,1.378069 14,1.99987479 L14,10.873887 C13.9984418,11.4941305 13.4967168,11.9987618 12.8765721,11.9987618 L12.8765721,11.9987618 Z M1.12186978,10.873887 L2.9246522,10.873887 L2.9246522,10.6207902 C2.9246522,10.3505078 3.14279354,10.1317821 3.41235392,10.1317821 L3.41235392,10.1317821 C3.6819143,10.1317821 3.90005565,10.3505078 3.90005565,10.6207902 L3.90005565,10.873887 L10.1015025,10.873887 L10.1015025,10.6207902 C10.1015025,10.3505078 10.3196439,10.1317821 10.5892042,10.1317821 L10.5892042,10.1317821 C10.8587646,10.1317821 11.076906,10.3505078 11.076906,10.6207902 L11.076906,10.873887 L12.8796884,10.873887 L12.8796884,10.873887 L12.8796884,9.34124513 L1.12186978,9.34124513 L1.12186978,10.873887 L1.12186978,10.873887 L1.12186978,10.873887 Z M12.8765721,1.99987479 L1.12186978,1.99987479 L1.12186978,1.99987479 L1.12186978,8.36791597 L12.8781302,8.36791597 L12.8781302,1.99987479 L12.8765721,1.99987479 L12.8765721,1.99987479 Z" id="path-11"></path>
        <path d="M9.92698943,7.41489705 L4.07145242,7.41489705 C3.80189204,7.41489705 3.5837507,7.1961714 3.5837507,6.92588898 L3.5837507,6.92588898 C3.5837507,6.65560657 3.80189204,6.43688091 4.07145242,6.43688091 L9.92854758,6.43688091 C10.198108,6.43688091 10.4162493,6.65560657 10.4162493,6.92588898 L10.4162493,6.92588898 C10.4146912,7.1961714 10.1965498,7.41489705 9.92698943,7.41489705 L9.92698943,7.41489705 Z M9.92698943,4.76675431 L4.07145242,4.76675431 C3.80189204,4.76675431 3.5837507,4.54802866 3.5837507,4.27774624 L3.5837507,4.27774624 C3.5837507,4.00746383 3.80189204,3.78873817 4.07145242,3.78873817 L9.92854758,3.78873817 C10.198108,3.78873817 10.4162493,4.00746383 10.4162493,4.27774624 L10.4162493,4.27774624 C10.4146912,4.54802866 10.1965498,4.76675431 9.92698943,4.76675431 L9.92698943,4.76675431 Z M12.8765721,11.9987618 L11.0753478,11.9987618 L11.0753478,12.3846564 C11.0753478,12.6549388 10.8572065,12.8736644 10.5876461,12.8736644 L10.5876461,12.8736644 C10.3180857,12.8736644 10.0999444,12.6549388 10.0999444,12.3846564 L10.0999444,11.9987618 L3.8984975,11.9987618 L3.8984975,12.3846564 C3.8984975,12.6549388 3.68035615,12.8736644 3.41079577,12.8736644 L3.41079577,12.8736644 C3.14123539,12.8736644 2.92309405,12.6549388 2.92309405,12.3846564 L2.92309405,11.9987618 L1.12186978,11.9987618 C0.501725097,11.9987618 0,11.4956928 0,10.873887 L0,1.99987479 C0,1.378069 0.501725097,0.875 1.12186978,0.875 L12.8781302,0.875 C13.4982749,0.875 14,1.378069 14,1.99987479 L14,10.873887 C13.9984418,11.4941305 13.4967168,11.9987618 12.8765721,11.9987618 L12.8765721,11.9987618 Z M1.12186978,10.873887 L2.9246522,10.873887 L2.9246522,10.6207902 C2.9246522,10.3505078 3.14279354,10.1317821 3.41235392,10.1317821 L3.41235392,10.1317821 C3.6819143,10.1317821 3.90005565,10.3505078 3.90005565,10.6207902 L3.90005565,10.873887 L10.1015025,10.873887 L10.1015025,10.6207902 C10.1015025,10.3505078 10.3196439,10.1317821 10.5892042,10.1317821 L10.5892042,10.1317821 C10.8587646,10.1317821 11.076906,10.3505078 11.076906,10.6207902 L11.076906,10.873887 L12.8796884,10.873887 L12.8796884,10.873887 L12.8796884,9.34124513 L1.12186978,9.34124513 L1.12186978,10.873887 L1.12186978,10.873887 L1.12186978,10.873887 Z M12.8765721,1.99987479 L1.12186978,1.99987479 L1.12186978,1.99987479 L1.12186978,8.36791597 L12.8781302,8.36791597 L12.8781302,1.99987479 L12.8765721,1.99987479 L12.8765721,1.99987479 Z" id="path-13"></path>
        <path d="M9.92698943,7.41489705 L4.07145242,7.41489705 C3.80189204,7.41489705 3.5837507,7.1961714 3.5837507,6.92588898 L3.5837507,6.92588898 C3.5837507,6.65560657 3.80189204,6.43688091 4.07145242,6.43688091 L9.92854758,6.43688091 C10.198108,6.43688091 10.4162493,6.65560657 10.4162493,6.92588898 L10.4162493,6.92588898 C10.4146912,7.1961714 10.1965498,7.41489705 9.92698943,7.41489705 L9.92698943,7.41489705 Z M9.92698943,4.76675431 L4.07145242,4.76675431 C3.80189204,4.76675431 3.5837507,4.54802866 3.5837507,4.27774624 L3.5837507,4.27774624 C3.5837507,4.00746383 3.80189204,3.78873817 4.07145242,3.78873817 L9.92854758,3.78873817 C10.198108,3.78873817 10.4162493,4.00746383 10.4162493,4.27774624 L10.4162493,4.27774624 C10.4146912,4.54802866 10.1965498,4.76675431 9.92698943,4.76675431 L9.92698943,4.76675431 Z M12.8765721,11.9987618 L11.0753478,11.9987618 L11.0753478,12.3846564 C11.0753478,12.6549388 10.8572065,12.8736644 10.5876461,12.8736644 L10.5876461,12.8736644 C10.3180857,12.8736644 10.0999444,12.6549388 10.0999444,12.3846564 L10.0999444,11.9987618 L3.8984975,11.9987618 L3.8984975,12.3846564 C3.8984975,12.6549388 3.68035615,12.8736644 3.41079577,12.8736644 L3.41079577,12.8736644 C3.14123539,12.8736644 2.92309405,12.6549388 2.92309405,12.3846564 L2.92309405,11.9987618 L1.12186978,11.9987618 C0.501725097,11.9987618 0,11.4956928 0,10.873887 L0,1.99987479 C0,1.378069 0.501725097,0.875 1.12186978,0.875 L12.8781302,0.875 C13.4982749,0.875 14,1.378069 14,1.99987479 L14,10.873887 C13.9984418,11.4941305 13.4967168,11.9987618 12.8765721,11.9987618 L12.8765721,11.9987618 Z M1.12186978,10.873887 L2.9246522,10.873887 L2.9246522,10.6207902 C2.9246522,10.3505078 3.14279354,10.1317821 3.41235392,10.1317821 L3.41235392,10.1317821 C3.6819143,10.1317821 3.90005565,10.3505078 3.90005565,10.6207902 L3.90005565,10.873887 L10.1015025,10.873887 L10.1015025,10.6207902 C10.1015025,10.3505078 10.3196439,10.1317821 10.5892042,10.1317821 L10.5892042,10.1317821 C10.8587646,10.1317821 11.076906,10.3505078 11.076906,10.6207902 L11.076906,10.873887 L12.8796884,10.873887 L12.8796884,10.873887 L12.8796884,9.34124513 L1.12186978,9.34124513 L1.12186978,10.873887 L1.12186978,10.873887 L1.12186978,10.873887 Z M12.8765721,1.99987479 L1.12186978,1.99987479 L1.12186978,1.99987479 L1.12186978,8.36791597 L12.8781302,8.36791597 L12.8781302,1.99987479 L12.8765721,1.99987479 L12.8765721,1.99987479 Z" id="path-15"></path>
        <path d="M9.92698943,7.41489705 L4.07145242,7.41489705 C3.80189204,7.41489705 3.5837507,7.1961714 3.5837507,6.92588898 L3.5837507,6.92588898 C3.5837507,6.65560657 3.80189204,6.43688091 4.07145242,6.43688091 L9.92854758,6.43688091 C10.198108,6.43688091 10.4162493,6.65560657 10.4162493,6.92588898 L10.4162493,6.92588898 C10.4146912,7.1961714 10.1965498,7.41489705 9.92698943,7.41489705 L9.92698943,7.41489705 Z M9.92698943,4.76675431 L4.07145242,4.76675431 C3.80189204,4.76675431 3.5837507,4.54802866 3.5837507,4.27774624 L3.5837507,4.27774624 C3.5837507,4.00746383 3.80189204,3.78873817 4.07145242,3.78873817 L9.92854758,3.78873817 C10.198108,3.78873817 10.4162493,4.00746383 10.4162493,4.27774624 L10.4162493,4.27774624 C10.4146912,4.54802866 10.1965498,4.76675431 9.92698943,4.76675431 L9.92698943,4.76675431 Z M12.8765721,11.9987618 L11.0753478,11.9987618 L11.0753478,12.3846564 C11.0753478,12.6549388 10.8572065,12.8736644 10.5876461,12.8736644 L10.5876461,12.8736644 C10.3180857,12.8736644 10.0999444,12.6549388 10.0999444,12.3846564 L10.0999444,11.9987618 L3.8984975,11.9987618 L3.8984975,12.3846564 C3.8984975,12.6549388 3.68035615,12.8736644 3.41079577,12.8736644 L3.41079577,12.8736644 C3.14123539,12.8736644 2.92309405,12.6549388 2.92309405,12.3846564 L2.92309405,11.9987618 L1.12186978,11.9987618 C0.501725097,11.9987618 0,11.4956928 0,10.873887 L0,1.99987479 C0,1.378069 0.501725097,0.875 1.12186978,0.875 L12.8781302,0.875 C13.4982749,0.875 14,1.378069 14,1.99987479 L14,10.873887 C13.9984418,11.4941305 13.4967168,11.9987618 12.8765721,11.9987618 L12.8765721,11.9987618 Z M1.12186978,10.873887 L2.9246522,10.873887 L2.9246522,10.6207902 C2.9246522,10.3505078 3.14279354,10.1317821 3.41235392,10.1317821 L3.41235392,10.1317821 C3.6819143,10.1317821 3.90005565,10.3505078 3.90005565,10.6207902 L3.90005565,10.873887 L10.1015025,10.873887 L10.1015025,10.6207902 C10.1015025,10.3505078 10.3196439,10.1317821 10.5892042,10.1317821 L10.5892042,10.1317821 C10.8587646,10.1317821 11.076906,10.3505078 11.076906,10.6207902 L11.076906,10.873887 L12.8796884,10.873887 L12.8796884,10.873887 L12.8796884,9.34124513 L1.12186978,9.34124513 L1.12186978,10.873887 L1.12186978,10.873887 L1.12186978,10.873887 Z M12.8765721,1.99987479 L1.12186978,1.99987479 L1.12186978,1.99987479 L1.12186978,8.36791597 L12.8781302,8.36791597 L12.8781302,1.99987479 L12.8765721,1.99987479 L12.8765721,1.99987479 Z" id="path-17"></path>
        <path d="M9.92698943,7.41489705 L4.07145242,7.41489705 C3.80189204,7.41489705 3.5837507,7.1961714 3.5837507,6.92588898 L3.5837507,6.92588898 C3.5837507,6.65560657 3.80189204,6.43688091 4.07145242,6.43688091 L9.92854758,6.43688091 C10.198108,6.43688091 10.4162493,6.65560657 10.4162493,6.92588898 L10.4162493,6.92588898 C10.4146912,7.1961714 10.1965498,7.41489705 9.92698943,7.41489705 L9.92698943,7.41489705 Z M9.92698943,4.76675431 L4.07145242,4.76675431 C3.80189204,4.76675431 3.5837507,4.54802866 3.5837507,4.27774624 L3.5837507,4.27774624 C3.5837507,4.00746383 3.80189204,3.78873817 4.07145242,3.78873817 L9.92854758,3.78873817 C10.198108,3.78873817 10.4162493,4.00746383 10.4162493,4.27774624 L10.4162493,4.27774624 C10.4146912,4.54802866 10.1965498,4.76675431 9.92698943,4.76675431 L9.92698943,4.76675431 Z M12.8765721,11.9987618 L11.0753478,11.9987618 L11.0753478,12.3846564 C11.0753478,12.6549388 10.8572065,12.8736644 10.5876461,12.8736644 L10.5876461,12.8736644 C10.3180857,12.8736644 10.0999444,12.6549388 10.0999444,12.3846564 L10.0999444,11.9987618 L3.8984975,11.9987618 L3.8984975,12.3846564 C3.8984975,12.6549388 3.68035615,12.8736644 3.41079577,12.8736644 L3.41079577,12.8736644 C3.14123539,12.8736644 2.92309405,12.6549388 2.92309405,12.3846564 L2.92309405,11.9987618 L1.12186978,11.9987618 C0.501725097,11.9987618 0,11.4956928 0,10.873887 L0,1.99987479 C0,1.378069 0.501725097,0.875 1.12186978,0.875 L12.8781302,0.875 C13.4982749,0.875 14,1.378069 14,1.99987479 L14,10.873887 C13.9984418,11.4941305 13.4967168,11.9987618 12.8765721,11.9987618 L12.8765721,11.9987618 Z M1.12186978,10.873887 L2.9246522,10.873887 L2.9246522,10.6207902 C2.9246522,10.3505078 3.14279354,10.1317821 3.41235392,10.1317821 L3.41235392,10.1317821 C3.6819143,10.1317821 3.90005565,10.3505078 3.90005565,10.6207902 L3.90005565,10.873887 L10.1015025,10.873887 L10.1015025,10.6207902 C10.1015025,10.3505078 10.3196439,10.1317821 10.5892042,10.1317821 L10.5892042,10.1317821 C10.8587646,10.1317821 11.076906,10.3505078 11.076906,10.6207902 L11.076906,10.873887 L12.8796884,10.873887 L12.8796884,10.873887 L12.8796884,9.34124513 L1.12186978,9.34124513 L1.12186978,10.873887 L1.12186978,10.873887 L1.12186978,10.873887 Z M12.8765721,1.99987479 L1.12186978,1.99987479 L1.12186978,1.99987479 L1.12186978,8.36791597 L12.8781302,8.36791597 L12.8781302,1.99987479 L12.8765721,1.99987479 L12.8765721,1.99987479 Z" id="path-19"></path>
        <path d="M9.92698943,7.41489705 L4.07145242,7.41489705 C3.80189204,7.41489705 3.5837507,7.1961714 3.5837507,6.92588898 L3.5837507,6.92588898 C3.5837507,6.65560657 3.80189204,6.43688091 4.07145242,6.43688091 L9.92854758,6.43688091 C10.198108,6.43688091 10.4162493,6.65560657 10.4162493,6.92588898 L10.4162493,6.92588898 C10.4146912,7.1961714 10.1965498,7.41489705 9.92698943,7.41489705 L9.92698943,7.41489705 Z M9.92698943,4.76675431 L4.07145242,4.76675431 C3.80189204,4.76675431 3.5837507,4.54802866 3.5837507,4.27774624 L3.5837507,4.27774624 C3.5837507,4.00746383 3.80189204,3.78873817 4.07145242,3.78873817 L9.92854758,3.78873817 C10.198108,3.78873817 10.4162493,4.00746383 10.4162493,4.27774624 L10.4162493,4.27774624 C10.4146912,4.54802866 10.1965498,4.76675431 9.92698943,4.76675431 L9.92698943,4.76675431 Z M12.8765721,11.9987618 L11.0753478,11.9987618 L11.0753478,12.3846564 C11.0753478,12.6549388 10.8572065,12.8736644 10.5876461,12.8736644 L10.5876461,12.8736644 C10.3180857,12.8736644 10.0999444,12.6549388 10.0999444,12.3846564 L10.0999444,11.9987618 L3.8984975,11.9987618 L3.8984975,12.3846564 C3.8984975,12.6549388 3.68035615,12.8736644 3.41079577,12.8736644 L3.41079577,12.8736644 C3.14123539,12.8736644 2.92309405,12.6549388 2.92309405,12.3846564 L2.92309405,11.9987618 L1.12186978,11.9987618 C0.501725097,11.9987618 0,11.4956928 0,10.873887 L0,1.99987479 C0,1.378069 0.501725097,0.875 1.12186978,0.875 L12.8781302,0.875 C13.4982749,0.875 14,1.378069 14,1.99987479 L14,10.873887 C13.9984418,11.4941305 13.4967168,11.9987618 12.8765721,11.9987618 L12.8765721,11.9987618 Z M1.12186978,10.873887 L2.9246522,10.873887 L2.9246522,10.6207902 C2.9246522,10.3505078 3.14279354,10.1317821 3.41235392,10.1317821 L3.41235392,10.1317821 C3.6819143,10.1317821 3.90005565,10.3505078 3.90005565,10.6207902 L3.90005565,10.873887 L10.1015025,10.873887 L10.1015025,10.6207902 C10.1015025,10.3505078 10.3196439,10.1317821 10.5892042,10.1317821 L10.5892042,10.1317821 C10.8587646,10.1317821 11.076906,10.3505078 11.076906,10.6207902 L11.076906,10.873887 L12.8796884,10.873887 L12.8796884,10.873887 L12.8796884,9.34124513 L1.12186978,9.34124513 L1.12186978,10.873887 L1.12186978,10.873887 L1.12186978,10.873887 Z M12.8765721,1.99987479 L1.12186978,1.99987479 L1.12186978,1.99987479 L1.12186978,8.36791597 L12.8781302,8.36791597 L12.8781302,1.99987479 L12.8765721,1.99987479 L12.8765721,1.99987479 Z" id="path-21"></path>
    </defs>
    <g id="XXXGuideline" stroke="none" stroke-width="1" fill="none" fill-rule="evenodd">
        <g id="Guideline_日期" transform="translate(-110.000000, -425.000000)">
            <g id="date01" transform="translate(110.000000, 425.000000)">
                <rect id="bg" x="0" y="0" width="880" height="494"></rect>
                <g id="Primary-Button" transform="translate(20.000000, 25.000000)">
                    <g id="Datepicker/Medium/Placeholder-">
                        <rect id="Rectangle-5" stroke="#CCCCCC" fill="#FFFFFF" x="0.5" y="0.5" width="179" height="31" rx="4"></rect>
                        <g id="Group" transform="translate(156.000000, 9.000000)">
                            <mask id="mask-2" fill="white">
                                <use xlink:href="#path-1"></use>
                            </mask>
                            <use id="Mask" fill="#7F7F7F" transform="translate(7.000000, 6.874332) scale(1, -1) translate(-7.000000, -6.874332) " xlink:href="#path-1"></use>
                        </g>
                        <text id="Text" font-family="PingFangTC-Regular, PingFang TC" font-size="14" font-weight="normal" line-spacing="22" fill="#B4B4B4">
                            <tspan x="10" y="20">請選擇日期</tspan>
                        </text>
                    </g>
                    <g id="Datepicker/Medium/Selected" transform="translate(0.000000, 52.000000)">
                        <rect id="Rectangle-5" stroke="#CCCCCC" fill="#FFFFFF" x="0.5" y="0.5" width="179" height="31" rx="4"></rect>
                        <g id="Group" transform="translate(156.000000, 9.000000)">
                            <mask id="mask-4" fill="white">
                                <use xlink:href="#path-3"></use>
                            </mask>
                            <use id="Mask" fill="#7F7F7F" transform="translate(7.000000, 6.874332) scale(1, -1) translate(-7.000000, -6.874332) " xlink:href="#path-3"></use>
                        </g>
                        <text id="Text" font-family="PingFangTC-Semibold, PingFang TC" font-size="14" font-weight="500" line-spacing="22" fill="#545454">
                            <tspan x="10" y="20">2017-08-08</tspan>
                        </text>
                    </g>
                    <g id="DatePicker/Large/Dropdown" transform="translate(0.000000, 104.000000)">
                        <g id="Rectangle-5-Copy-10">
                            <use fill="black" fill-opacity="1" filter="url(#filter-6)" xlink:href="#path-5"></use>
                            <use fill="#FFFFFF" fill-rule="evenodd" xlink:href="#path-5"></use>
                        </g>
                        <g id="Group-2" transform="translate(0.000000, 36.000000)">
                            <text id="日" font-family="PingFangSC-Medium, PingFang SC" font-size="14" font-weight="400" line-spacing="22" fill="#000000" fill-opacity="0.65">
                                <tspan x="24" y="58">日</tspan>
                            </text>
                            <rect id="Rectangle-52-Copy-9" fill="#004477" x="200" y="133" width="24" height="24" rx="2"></rect>
                            <rect id="Rectangle-52-Copy-38" fill="#F1F8FE" x="92" y="133" width="24" height="24" rx="2"></rect>
                            <text id="28" font-family="HelveticaNeue, Helvetica Neue" font-size="14" font-weight="normal" line-spacing="22" fill="#000000" fill-opacity="0.25">
                                <tspan x="24" y="86">28</tspan>
                            </text>
                            <text id="05" font-family="HelveticaNeue, Helvetica Neue" font-size="14" font-weight="normal" line-spacing="22" fill="#000000" fill-opacity="0.65">
                                <tspan x="24" y="116">05</tspan>
                            </text>
                            <text id="12" font-family="HelveticaNeue, Helvetica Neue" font-size="14" font-weight="normal" line-spacing="22" fill="#000000" fill-opacity="0.65">
                                <tspan x="24" y="146">12</tspan>
                            </text>
                            <text id="19" font-family="HelveticaNeue, Helvetica Neue" font-size="14" font-weight="normal" line-spacing="22" fill="#000000" fill-opacity="0.75">
                                <tspan x="24" y="176">19</tspan>
                            </text>
                            <text id="26" font-family="HelveticaNeue, Helvetica Neue" font-size="14" font-weight="normal" line-spacing="22" fill="#000000" fill-opacity="0.75">
                                <tspan x="24" y="206">26</tspan>
                            </text>
                            <text id="一" font-family="PingFangSC-Medium, PingFang SC" font-size="14" font-weight="400" line-spacing="22" fill="#000000" fill-opacity="0.65">
                                <tspan x="60" y="58">一</tspan>
                            </text>
                            <text id="29" font-family="HelveticaNeue, Helvetica Neue" font-size="14" font-weight="normal" line-spacing="22" fill="#000000" fill-opacity="0.25">
                                <tspan x="60" y="86">29</tspan>
                            </text>
                            <text id="06" font-family="HelveticaNeue, Helvetica Neue" font-size="14" font-weight="normal" line-spacing="22" fill="#000000" fill-opacity="0.65">
                                <tspan x="60" y="116">06</tspan>
                            </text>
                            <text id="04" font-family="HelveticaNeue, Helvetica Neue" font-size="14" font-weight="normal" line-spacing="22" fill="#000000" fill-opacity="0.25">
                                <tspan x="60" y="236">04</tspan>
                            </text>
                            <text id="13" font-family="HelveticaNeue, Helvetica Neue" font-size="14" font-weight="normal" line-spacing="22" fill="#000000" fill-opacity="0.65">
                                <tspan x="60" y="146">13</tspan>
                            </text>
                            <text id="20" font-family="HelveticaNeue, Helvetica Neue" font-size="14" font-weight="normal" line-spacing="22" fill="#000000" fill-opacity="0.75">
                                <tspan x="60" y="176">20</tspan>
                            </text>
                            <text id="27" font-family="HelveticaNeue, Helvetica Neue" font-size="14" font-weight="normal" line-spacing="22" fill="#000000" fill-opacity="0.75">
                                <tspan x="60" y="206">27</tspan>
                            </text>
                            <text id="二" font-family="PingFangSC-Medium, PingFang SC" font-size="14" font-weight="400" line-spacing="22" fill="#000000" fill-opacity="0.65">
                                <tspan x="96" y="58">二</tspan>
                            </text>
                            <text id="30" font-family="HelveticaNeue, Helvetica Neue" font-size="14" font-weight="normal" line-spacing="22" fill="#000000" fill-opacity="0.25">
                                <tspan x="96" y="86">30</tspan>
                            </text>
                            <text id="07" font-family="HelveticaNeue, Helvetica Neue" font-size="14" font-weight="normal" line-spacing="22" fill="#000000" fill-opacity="0.65">
                                <tspan x="96" y="116">07</tspan>
                            </text>
                            <text id="05" font-family="HelveticaNeue, Helvetica Neue" font-size="14" font-weight="normal" line-spacing="22" fill="#000000" fill-opacity="0.25">
                                <tspan x="96" y="236">05</tspan>
                            </text>
                            <text id="14" font-family="HelveticaNeue, Helvetica Neue" font-size="14" font-weight="normal" line-spacing="22" fill="#000000" fill-opacity="0.65">
                                <tspan x="96" y="146">14</tspan>
                            </text>
                            <text id="21" font-family="HelveticaNeue, Helvetica Neue" font-size="14" font-weight="normal" line-spacing="22" fill="#000000" fill-opacity="0.65">
                                <tspan x="96" y="176">21</tspan>
                            </text>
                            <text id="28" font-family="HelveticaNeue, Helvetica Neue" font-size="14" font-weight="normal" line-spacing="22" fill="#000000" fill-opacity="0.75">
                                <tspan x="96" y="206">28</tspan>
                            </text>
                            <text id="三" font-family="PingFangSC-Medium, PingFang SC" font-size="14" font-weight="400" line-spacing="22" fill="#000000" fill-opacity="0.65">
                                <tspan x="132" y="58">三</tspan>
                            </text>
                            <text id="01" font-family="HelveticaNeue, Helvetica Neue" font-size="14" font-weight="normal" line-spacing="22" fill="#000000" fill-opacity="0.75">
                                <tspan x="132" y="86">01</tspan>
                            </text>
                            <text id="08" font-family="HelveticaNeue, Helvetica Neue" font-size="14" font-weight="normal" line-spacing="22" fill="#000000" fill-opacity="0.65">
                                <tspan x="132" y="116">08</tspan>
                            </text>
                            <text id="06" font-family="HelveticaNeue, Helvetica Neue" font-size="14" font-weight="normal" line-spacing="22" fill="#000000" fill-opacity="0.25">
                                <tspan x="132" y="236">06</tspan>
                            </text>
                            <text id="15" font-family="HelveticaNeue, Helvetica Neue" font-size="14" font-weight="normal" line-spacing="22" fill="#000000" fill-opacity="0.65">
                                <tspan x="132" y="146">15</tspan>
                            </text>
                            <text id="22" font-family="HelveticaNeue, Helvetica Neue" font-size="14" font-weight="normal" line-spacing="22" fill="#000000" fill-opacity="0.65">
                                <tspan x="132" y="176">22</tspan>
                            </text>
                            <text id="29" font-family="HelveticaNeue, Helvetica Neue" font-size="14" font-weight="normal" line-spacing="22" fill="#000000" fill-opacity="0.75">
                                <tspan x="132" y="206">29</tspan>
                            </text>
                            <text id="16" font-family="HelveticaNeue, Helvetica Neue" font-size="14" font-weight="normal" line-spacing="22" fill="#666666">
                                <tspan x="168" y="146">16</tspan>
                            </text>
                            <text id="23" font-family="HelveticaNeue, Helvetica Neue" font-size="14" font-weight="normal" line-spacing="22" fill="#000000" fill-opacity="0.65">
                                <tspan x="168" y="176">23</tspan>
                            </text>
                            <text id="30" font-family="HelveticaNeue, Helvetica Neue" font-size="14" font-weight="normal" line-spacing="22" fill="#000000" fill-opacity="0.75">
                                <tspan x="168" y="206">30</tspan>
                            </text>
                            <text id="四" font-family="PingFangSC-Medium, PingFang SC" font-size="14" font-weight="400" line-spacing="22" fill="#000000" fill-opacity="0.65">
                                <tspan x="168" y="58">四</tspan>
                            </text>
                            <text id="02" font-family="HelveticaNeue, Helvetica Neue" font-size="14" font-weight="normal" line-spacing="22" fill="#000000" fill-opacity="0.75">
                                <tspan x="168" y="86">02</tspan>
                            </text>
                            <text id="09" font-family="HelveticaNeue, Helvetica Neue" font-size="14" font-weight="normal" line-spacing="22" fill="#000000" fill-opacity="0.65">
                                <tspan x="168" y="116">09</tspan>
                            </text>
                            <text id="07" font-family="HelveticaNeue, Helvetica Neue" font-size="14" font-weight="normal" line-spacing="22" fill="#000000" fill-opacity="0.25">
                                <tspan x="168" y="236">07</tspan>
                            </text>
                            <text id="五" font-family="PingFangSC-Medium, PingFang SC" font-size="14" font-weight="400" line-spacing="22" fill="#000000" fill-opacity="0.65">
                                <tspan x="204" y="58">五</tspan>
                            </text>
                            <text id="10" font-family="HelveticaNeue, Helvetica Neue" font-size="14" font-weight="normal" line-spacing="22" fill="#000000" fill-opacity="0.65">
                                <tspan x="204" y="116">10</tspan>
                            </text>
                            <text id="08" font-family="HelveticaNeue, Helvetica Neue" font-size="14" font-weight="normal" line-spacing="22" fill="#000000" fill-opacity="0.25">
                                <tspan x="204" y="236">08</tspan>
                            </text>
                            <text id="17" font-family="HelveticaNeue, Helvetica Neue" font-size="14" font-weight="normal" line-spacing="22" fill="#FFFFFF">
                                <tspan x="204" y="146">17</tspan>
                            </text>
                            <text id="24" font-family="HelveticaNeue, Helvetica Neue" font-size="14" font-weight="normal" line-spacing="22" fill="#000000" fill-opacity="0.65">
                                <tspan x="204" y="176">24</tspan>
                            </text>
                            <text id="01" font-family="HelveticaNeue, Helvetica Neue" font-size="14" font-weight="normal" line-spacing="22" fill="#000000" fill-opacity="0.25">
                                <tspan x="204" y="206">01</tspan>
                            </text>
                            <text id="六" font-family="PingFangSC-Medium, PingFang SC" font-size="14" font-weight="400" line-spacing="22" fill="#000000" fill-opacity="0.65">
                                <tspan x="240" y="58">六</tspan>
                            </text>
                            <text id="04" font-family="HelveticaNeue, Helvetica Neue" font-size="14" font-weight="normal" line-spacing="22" fill="#000000" fill-opacity="0.65">
                                <tspan x="240" y="86">04</tspan>
                            </text>
                            <text id="03" font-family="HelveticaNeue, Helvetica Neue" font-size="14" font-weight="normal" line-spacing="22" fill="#000000" fill-opacity="0.65">
                                <tspan x="204" y="86">03</tspan>
                            </text>
                            <text id="11" font-family="HelveticaNeue, Helvetica Neue" font-size="14" font-weight="normal" line-spacing="22" fill="#000000" fill-opacity="0.65">
                                <tspan x="240" y="116">11</tspan>
                            </text>
                            <text id="09" font-family="HelveticaNeue, Helvetica Neue" font-size="14" font-weight="normal" line-spacing="22" fill="#000000" fill-opacity="0.25">
                                <tspan x="240" y="236">09</tspan>
                            </text>
                            <text id="18" font-family="HelveticaNeue, Helvetica Neue" font-size="14" font-weight="normal" line-spacing="22" fill="#000000" fill-opacity="0.65">
                                <tspan x="240" y="146">18</tspan>
                            </text>
                            <text id="25" font-family="HelveticaNeue, Helvetica Neue" font-size="14" font-weight="normal" line-spacing="22" fill="#000000" fill-opacity="0.65">
                                <tspan x="240" y="176">25</tspan>
                            </text>
                            <text id="02" font-family="HelveticaNeue, Helvetica Neue" font-size="14" font-weight="normal" line-spacing="22" fill="#000000" fill-opacity="0.25">
                                <tspan x="240" y="206">02</tspan>
                            </text>
                            <text id="今天" font-family="PingFangTC-Regular, PingFang TC" font-size="14" font-weight="normal" line-spacing="22" fill="#004477">
                                <tspan x="126" y="285">今天</tspan>
                            </text>
                            <text id="2020年-3月" font-family="HelveticaNeue-Medium, Helvetica Neue" font-size="14" font-weight="400" line-spacing="22" fill="#000000" fill-opacity="0.85">
                                <tspan x="104.709" y="14">2020</tspan>
                                <tspan x="135.845" y="14" font-family="PingFangSC-Medium, PingFang SC">年</tspan>
                                <tspan x="149.845" y="14" font-family="PingFangSC-Regular, PingFang SC" font-weight="normal"> </tspan>
                                <tspan x="154.507" y="14">3</tspan>
                                <tspan x="162.291" y="14" font-family="PingFangSC-Medium, PingFang SC">月 </tspan>
                            </text>
                            <text id="03" font-family="HelveticaNeue, Helvetica Neue" font-size="14" font-weight="normal" line-spacing="22" fill="#000000" fill-opacity="0.25">
                                <tspan x="24" y="236">03</tspan>
                            </text>
                            <rect id="Rectangle-12" fill-opacity="0.09" fill="#000000" x="0" y="26" width="280" height="1"></rect>
                            <rect id="Rectangle-12" fill-opacity="0.09" fill="#000000" x="0" y="261" width="280" height="1"></rect>
                        </g>
                        <g id="Group" transform="translate(38.000000, 41.000000)">
                            <rect id="Rectangle" x="0" y="0" width="12" height="12"></rect>
                            <path d="M10.5146288,3.12611787 C10.7070168,3.29934473 10.7225499,3.59573406 10.549323,3.78812198 L5.99107763,8.85056635 C5.8943593,8.95798293 5.75924678,9.01026749 5.62527855,9.00534789 C5.49137803,9.01052727 5.35583366,8.95825014 5.25887474,8.85056635 L5.25887474,8.85056635 L0.700629353,3.78812198 C0.527402496,3.59573406 0.542935602,3.29934473 0.735323518,3.12611787 C0.927711434,2.95289101 1.22410077,2.96842412 1.39732763,3.16081203 L1.39732763,3.16081203 L5.62522449,7.85571301 L9.85262474,3.16081203 C10.0258516,2.96842412 10.3222409,2.95289101 10.5146288,3.12611787 Z" id="down" fill-opacity="0.45" fill="#000000" transform="translate(5.624976, 6.005689) rotate(90.000000) translate(-5.624976, -6.005689) "></path>
                        </g>
                        <g id="Group-Copy-4" transform="translate(234.000000, 45.000000) scale(-1, 1) translate(-234.000000, -45.000000) translate(228.000000, 37.000000)">
                            <rect id="Rectangle" x="0" y="4" width="12" height="12"></rect>
                            <path d="M10.5146288,3.12611787 C10.7070168,3.29934473 10.7225499,3.59573406 10.549323,3.78812198 L5.99107763,8.85056635 C5.8943593,8.95798293 5.75924678,9.01026749 5.62527855,9.00534789 C5.49137803,9.01052727 5.35583366,8.95825014 5.25887474,8.85056635 L5.25887474,8.85056635 L0.700629353,3.78812198 C0.527402496,3.59573406 0.542935602,3.29934473 0.735323518,3.12611787 C0.927711434,2.95289101 1.22410077,2.96842412 1.39732763,3.16081203 L1.39732763,3.16081203 L5.62522449,7.85571301 L9.85262474,3.16081203 C10.0258516,2.96842412 10.3222409,2.95289101 10.5146288,3.12611787 Z" id="down" fill-opacity="0.45" fill="#000000" transform="translate(5.624976, 6.005689) rotate(90.000000) translate(-5.624976, -6.005689) "></path>
                        </g>
                        <g id="Group-Copy-3" transform="translate(16.000000, 41.000000)">
                            <rect id="Rectangle" x="0" y="0" width="12" height="12"></rect>
                            <path d="M8.51462885,3.12611787 C8.70701676,3.29934473 8.72254987,3.59573406 8.54932301,3.78812198 L3.99107763,8.85056635 C3.8943593,8.95798293 3.75924678,9.01026749 3.62527855,9.00534789 C3.49137803,9.01052727 3.35583366,8.95825014 3.25887474,8.85056635 L3.25887474,8.85056635 L-1.29937065,3.78812198 C-1.4725975,3.59573406 -1.4570644,3.29934473 -1.26467648,3.12611787 C-1.07228857,2.95289101 -0.775899231,2.96842412 -0.602672373,3.16081203 L-0.602672373,3.16081203 L3.62522449,7.85571301 L7.85262474,3.16081203 C8.0258516,2.96842412 8.32224093,2.95289101 8.51462885,3.12611787 Z" id="down" fill-opacity="0.45" fill="#000000" transform="translate(3.624976, 6.005689) rotate(90.000000) translate(-3.624976, -6.005689) "></path>
                            <path d="M12.5146288,3.12611787 C12.7070168,3.29934473 12.7225499,3.59573406 12.549323,3.78812198 L7.99107763,8.85056635 C7.8943593,8.95798293 7.75924678,9.01026749 7.62527855,9.00534789 C7.49137803,9.01052727 7.35583366,8.95825014 7.25887474,8.85056635 L7.25887474,8.85056635 L2.70062935,3.78812198 C2.5274025,3.59573406 2.5429356,3.29934473 2.73532352,3.12611787 C2.92771143,2.95289101 3.22410077,2.96842412 3.39732763,3.16081203 L3.39732763,3.16081203 L7.62522449,7.85571301 L11.8526247,3.16081203 C12.0258516,2.96842412 12.3222409,2.95289101 12.5146288,3.12611787 Z" id="down" fill-opacity="0.45" fill="#000000" transform="translate(7.624976, 6.005689) rotate(90.000000) translate(-7.624976, -6.005689) "></path>
                        </g>
                        <g id="Group-Copy-5" transform="translate(258.000000, 45.000000) scale(-1, 1) translate(-258.000000, -45.000000) translate(252.000000, 37.000000)">
                            <rect id="Rectangle" x="0" y="4" width="12" height="12"></rect>
                            <path d="M8.51462885,3.12611787 C8.70701676,3.29934473 8.72254987,3.59573406 8.54932301,3.78812198 L3.99107763,8.85056635 C3.8943593,8.95798293 3.75924678,9.01026749 3.62527855,9.00534789 C3.49137803,9.01052727 3.35583366,8.95825014 3.25887474,8.85056635 L3.25887474,8.85056635 L-1.29937065,3.78812198 C-1.4725975,3.59573406 -1.4570644,3.29934473 -1.26467648,3.12611787 C-1.07228857,2.95289101 -0.775899231,2.96842412 -0.602672373,3.16081203 L-0.602672373,3.16081203 L3.62522449,7.85571301 L7.85262474,3.16081203 C8.0258516,2.96842412 8.32224093,2.95289101 8.51462885,3.12611787 Z" id="down" fill-opacity="0.45" fill="#000000" transform="translate(3.624976, 6.005689) rotate(90.000000) translate(-3.624976, -6.005689) "></path>
                            <path d="M12.5146288,3.12611787 C12.7070168,3.29934473 12.7225499,3.59573406 12.549323,3.78812198 L7.99107763,8.85056635 C7.8943593,8.95798293 7.75924678,9.01026749 7.62527855,9.00534789 C7.49137803,9.01052727 7.35583366,8.95825014 7.25887474,8.85056635 L7.25887474,8.85056635 L2.70062935,3.78812198 C2.5274025,3.59573406 2.5429356,3.29934473 2.73532352,3.12611787 C2.92771143,2.95289101 3.22410077,2.96842412 3.39732763,3.16081203 L3.39732763,3.16081203 L7.62522449,7.85571301 L11.8526247,3.16081203 C12.0258516,2.96842412 12.3222409,2.95289101 12.5146288,3.12611787 Z" id="down" fill-opacity="0.45" fill="#000000" transform="translate(7.624976, 6.005689) rotate(90.000000) translate(-7.624976, -6.005689) "></path>
                        </g>
                        <g id="DatePicker/Large/Placeholder">
                            <rect id="Rectangle-5" stroke="#004477" fill="#FFFFFF" x="0.5" y="0.5" width="279" height="31" rx="4"></rect>
                            <g id="Group" transform="translate(256.000000, 9.000000)">
                                <mask id="mask-8" fill="white">
                                    <use xlink:href="#path-7"></use>
                                </mask>
                                <use id="Mask" fill="#7F7F7F" transform="translate(7.000000, 6.874332) scale(1, -1) translate(-7.000000, -6.874332) " xlink:href="#path-7"></use>
                            </g>
                            <text id="Text" font-family="PingFangTC-Regular, PingFang TC" font-size="14" font-weight="normal" line-spacing="22" fill="#B4B4B4">
                                <tspan x="10" y="20">2020-03-17</tspan>
                            </text>
                        </g>
                    </g>
                    <g id="DatePicker/Large/Dropdown-Copy" transform="translate(440.000000, 104.000000)">
                        <g id="Rectangle-5-Copy-10">
                            <use fill="black" fill-opacity="1" filter="url(#filter-10)" xlink:href="#path-9"></use>
                            <use fill="#FFFFFF" fill-rule="evenodd" xlink:href="#path-9"></use>
                        </g>
                        <g id="Group-2" transform="translate(0.000000, 36.000000)" fill="#000000">
                            <text id="2020年" font-family="HelveticaNeue-Medium, Helvetica Neue" font-size="14" font-weight="400" line-spacing="22" fill-opacity="0.85">
                                <tspan x="117.432" y="14">2020</tspan>
                                <tspan x="148.568" y="14" font-family="PingFangSC-Medium, PingFang SC">年</tspan>
                            </text>
                            <rect id="Rectangle-12" fill-opacity="0.09" x="0" y="26" width="280" height="1"></rect>
                        </g>
                        <g id="Group-Copy-3" transform="translate(16.000000, 41.000000)" fill="#000000" fill-opacity="0.45">
                            <path d="M8.51462885,3.12611787 C8.70701676,3.29934473 8.72254987,3.59573406 8.54932301,3.78812198 L3.99107763,8.85056635 C3.8943593,8.95798293 3.75924678,9.01026749 3.62527855,9.00534789 C3.49137803,9.01052727 3.35583366,8.95825014 3.25887474,8.85056635 L3.25887474,8.85056635 L-1.29937065,3.78812198 C-1.4725975,3.59573406 -1.4570644,3.29934473 -1.26467648,3.12611787 C-1.07228857,2.95289101 -0.775899231,2.96842412 -0.602672373,3.16081203 L-0.602672373,3.16081203 L3.62522449,7.85571301 L7.85262474,3.16081203 C8.0258516,2.96842412 8.32224093,2.95289101 8.51462885,3.12611787 Z" id="down" transform="translate(3.624976, 6.005689) rotate(90.000000) translate(-3.624976, -6.005689) "></path>
                            <path d="M12.5146288,3.12611787 C12.7070168,3.29934473 12.7225499,3.59573406 12.549323,3.78812198 L7.99107763,8.85056635 C7.8943593,8.95798293 7.75924678,9.01026749 7.62527855,9.00534789 C7.49137803,9.01052727 7.35583366,8.95825014 7.25887474,8.85056635 L7.25887474,8.85056635 L2.70062935,3.78812198 C2.5274025,3.59573406 2.5429356,3.29934473 2.73532352,3.12611787 C2.92771143,2.95289101 3.22410077,2.96842412 3.39732763,3.16081203 L3.39732763,3.16081203 L7.62522449,7.85571301 L11.8526247,3.16081203 C12.0258516,2.96842412 12.3222409,2.95289101 12.5146288,3.12611787 Z" id="down" transform="translate(7.624976, 6.005689) rotate(90.000000) translate(-7.624976, -6.005689) "></path>
                        </g>
                        <g id="Group-Copy-5" transform="translate(258.500000, 47.000000) scale(-1, 1) translate(-258.500000, -47.000000) translate(253.000000, 41.000000)" fill="#000000" fill-opacity="0.45">
                            <path d="M8.51462885,3.12611787 C8.70701676,3.29934473 8.72254987,3.59573406 8.54932301,3.78812198 L3.99107763,8.85056635 C3.8943593,8.95798293 3.75924678,9.01026749 3.62527855,9.00534789 C3.49137803,9.01052727 3.35583366,8.95825014 3.25887474,8.85056635 L3.25887474,8.85056635 L-1.29937065,3.78812198 C-1.4725975,3.59573406 -1.4570644,3.29934473 -1.26467648,3.12611787 C-1.07228857,2.95289101 -0.775899231,2.96842412 -0.602672373,3.16081203 L-0.602672373,3.16081203 L3.62522449,7.85571301 L7.85262474,3.16081203 C8.0258516,2.96842412 8.32224093,2.95289101 8.51462885,3.12611787 Z" id="down" transform="translate(3.624976, 6.005689) rotate(90.000000) translate(-3.624976, -6.005689) "></path>
                            <path d="M12.5146288,3.12611787 C12.7070168,3.29934473 12.7225499,3.59573406 12.549323,3.78812198 L7.99107763,8.85056635 C7.8943593,8.95798293 7.75924678,9.01026749 7.62527855,9.00534789 C7.49137803,9.01052727 7.35583366,8.95825014 7.25887474,8.85056635 L7.25887474,8.85056635 L2.70062935,3.78812198 C2.5274025,3.59573406 2.5429356,3.29934473 2.73532352,3.12611787 C2.92771143,2.95289101 3.22410077,2.96842412 3.39732763,3.16081203 L3.39732763,3.16081203 L7.62522449,7.85571301 L11.8526247,3.16081203 C12.0258516,2.96842412 12.3222409,2.95289101 12.5146288,3.12611787 Z" id="down" transform="translate(7.624976, 6.005689) rotate(90.000000) translate(-7.624976, -6.005689) "></path>
                        </g>
                        <g id="DatePicker/Large/Placeholder">
                            <rect id="Rectangle-5" stroke="#004477" fill="#FFFFFF" x="0.5" y="0.5" width="279" height="31" rx="4"></rect>
                            <g id="Group" transform="translate(256.000000, 9.000000)">
                                <mask id="mask-12" fill="white">
                                    <use xlink:href="#path-11"></use>
                                </mask>
                                <use id="Mask" fill="#7F7F7F" transform="translate(7.000000, 6.874332) scale(1, -1) translate(-7.000000, -6.874332) " xlink:href="#path-11"></use>
                            </g>
                            <text id="Text" font-family="PingFangTC-Regular, PingFang TC" font-size="14" font-weight="normal" line-spacing="22" fill="#B4B4B4">
                                <tspan x="10" y="20">2020-03-17</tspan>
                            </text>
                        </g>
                        <g id="Group-8" transform="translate(39.000000, 88.000000)">
                            <text id="7-月" font-family="PingFangSC-Medium, PingFang SC" font-size="14" font-weight="400" line-spacing="22" fill="#000000" fill-opacity="0.65">
                                <tspan x="5.312" y="139">7 月</tspan>
                            </text>
                            <text id="10-月" font-family="PingFangSC-Medium, PingFang SC" font-size="14" font-weight="400" line-spacing="22" fill="#000000" fill-opacity="0.65">
                                <tspan x="2.113" y="201">10 月</tspan>
                            </text>
                            <text id="2-月" font-family="PingFangSC-Medium, PingFang SC" font-size="14" font-weight="400" line-spacing="22" fill="#000000" fill-opacity="0.65">
                                <tspan x="86.969" y="15">2 月</tspan>
                            </text>
                            <text id="1-月" font-family="PingFangSC-Medium, PingFang SC" font-size="14" font-weight="400" line-spacing="22" fill="#000000" fill-opacity="0.65">
                                <tspan x="6.313" y="15">1 月</tspan>
                            </text>
                            <text id="5-月" font-family="PingFangSC-Medium, PingFang SC" font-size="14" font-weight="400" line-spacing="22" fill="#000000" fill-opacity="0.65">
                                <tspan x="86.969" y="77">5 月</tspan>
                            </text>
                            <text id="8-月" font-family="PingFangSC-Medium, PingFang SC" font-size="14" font-weight="400" line-spacing="22" fill="#000000" fill-opacity="0.65">
                                <tspan x="86.969" y="139">8 月</tspan>
                            </text>
                            <text id="11-月" font-family="PingFangSC-Medium, PingFang SC" font-size="14" font-weight="400" line-spacing="22" fill="#000000" fill-opacity="0.65">
                                <tspan x="85.457" y="201">11 月</tspan>
                            </text>
                            <text id="3-月" font-family="PingFangSC-Medium, PingFang SC" font-size="14" font-weight="400" line-spacing="22" fill="#000000" fill-opacity="0.65">
                                <tspan x="169.969" y="15">3 月</tspan>
                            </text>
                            <text id="6-月" font-family="PingFangSC-Medium, PingFang SC" font-size="14" font-weight="400" line-spacing="22" fill="#000000" fill-opacity="0.65">
                                <tspan x="169.969" y="77">6 月</tspan>
                            </text>
                            <text id="9-月" font-family="PingFangSC-Medium, PingFang SC" font-size="14" font-weight="400" line-spacing="22" fill="#000000" fill-opacity="0.65">
                                <tspan x="169.969" y="139">9 月</tspan>
                            </text>
                            <text id="12-月" font-family="PingFangSC-Medium, PingFang SC" font-size="14" font-weight="400" line-spacing="22" fill="#000000" fill-opacity="0.65">
                                <tspan x="167.113" y="201">12 月</tspan>
                            </text>
                            <rect id="Rectangle-52-Copy-8" fill="#004477" x="0" y="61" width="37" height="25" rx="2"></rect>
                            <text id="4-月" font-family="PingFangSC-Medium, PingFang SC" font-size="14" font-weight="400" line-spacing="22" fill="#FFFFFF">
                                <tspan x="4.969" y="78">4 月</tspan>
                            </text>
                        </g>
                    </g>
                    <g id="Datepicker/Medium/Selected-Copy" transform="translate(220.000000, 52.000000)">
                        <rect id="Rectangle-5" stroke="#004477" fill="#FFFFFF" x="0.5" y="0.5" width="179" height="31" rx="4"></rect>
                        <g id="Group" transform="translate(156.000000, 9.000000)">
                            <mask id="mask-14" fill="white">
                                <use xlink:href="#path-13"></use>
                            </mask>
                            <use id="Mask" fill="#7F7F7F" transform="translate(7.000000, 6.874332) scale(1, -1) translate(-7.000000, -6.874332) " xlink:href="#path-13"></use>
                        </g>
                        <text id="Text" font-family="PingFangTC-Semibold, PingFang TC" font-size="14" font-weight="500" line-spacing="22" fill="#545454">
                            <tspan x="10" y="20">2017-08-08</tspan>
                        </text>
                    </g>
                    <g id="Datepicker/Medium/Disabled" transform="translate(440.000000, 0.000000)">
                        <rect id="Rectangle-5" stroke="#CCCCCC" fill="#F2F2F2" x="0.5" y="0.5" width="179" height="31" rx="4"></rect>
                        <g id="Icon/Picker/Date-14px" transform="translate(156.000000, 9.000000)">
                            <mask id="mask-16" fill="white">
                                <use xlink:href="#path-15"></use>
                            </mask>
                            <use id="Mask" fill="#B4B4B4" transform="translate(7.000000, 6.874332) scale(1, -1) translate(-7.000000, -6.874332) " xlink:href="#path-15"></use>
                        </g>
                        <text id="Text" font-family="PingFangTC-Regular, PingFang TC" font-size="14" font-weight="normal" line-spacing="22" fill="#B4B4B4">
                            <tspan x="10" y="20">請選擇日期</tspan>
                        </text>
                    </g>
                    <g id="Datepicker/Medium/Disabled-Copy" transform="translate(440.000000, 52.000000)">
                        <rect id="Rectangle-5" stroke="#CCCCCC" fill="#F2F2F2" x="0.5" y="0.5" width="179" height="31" rx="4"></rect>
                        <g id="Icon/Picker/Date-14px" transform="translate(156.000000, 9.000000)">
                            <mask id="mask-18" fill="white">
                                <use xlink:href="#path-17"></use>
                            </mask>
                            <use id="Mask" fill="#B4B4B4" transform="translate(7.000000, 6.874332) scale(1, -1) translate(-7.000000, -6.874332) " xlink:href="#path-17"></use>
                        </g>
                        <text id="Text" font-family="PingFangTC-Regular, PingFang TC" font-size="14" font-weight="normal" line-spacing="22" fill="#B4B4B4">
                            <tspan x="10" y="20">2017-08-08</tspan>
                        </text>
                    </g>
                    <g id="Datepicker/Medium/Selected" transform="translate(660.000000, 0.000000)">
                        <rect id="Rectangle-5" stroke="#F5222D" fill="#FFFFFF" x="0.5" y="0.5" width="179" height="31" rx="4"></rect>
                        <g id="Group" transform="translate(156.000000, 9.000000)">
                            <mask id="mask-20" fill="white">
                                <use xlink:href="#path-19"></use>
                            </mask>
                            <use id="Mask" fill="#7F7F7F" transform="translate(7.000000, 6.874332) scale(1, -1) translate(-7.000000, -6.874332) " xlink:href="#path-19"></use>
                        </g>
                        <text id="Text" font-family="PingFangTC-Regular, PingFang TC" font-size="14" font-weight="normal" line-spacing="22" fill="#B4B4B4">
                            <tspan x="10" y="21">請選擇日期</tspan>
                        </text>
                    </g>
                    <g id="Datepicker/Medium/Selected" transform="translate(220.000000, 0.000000)">
                        <rect id="Rectangle-5" stroke="#004477" fill="#FFFFFF" x="0.5" y="0.5" width="179" height="31" rx="4"></rect>
                        <g id="Group" transform="translate(156.000000, 9.000000)">
                            <mask id="mask-22" fill="white">
                                <use xlink:href="#path-21"></use>
                            </mask>
                            <use id="Mask" fill="#7F7F7F" transform="translate(7.000000, 6.874332) scale(1, -1) translate(-7.000000, -6.874332) " xlink:href="#path-21"></use>
                        </g>
                        <text id="Text" font-family="PingFangTC-Regular, PingFang TC" font-size="14" font-weight="normal" line-spacing="22" fill="#B4B4B4">
                            <tspan x="10" y="20">請選擇日期</tspan>
                        </text>
                    </g>
                </g>
                <g id="Others/Tips/Error" transform="translate(680.000000, 60.000000)">
                    <g id="Group" transform="translate(0.000000, 2.037037)">
                        <rect id="Rectangle" fill="#F5222D" x="0" y="0" width="82" height="22" rx="4"></rect>
                        <text id="此欄位必填" font-family="PingFangTC-Regular, PingFang TC" font-size="12" font-weight="normal" fill="#FFFFFF">
                            <tspan x="5" y="15">此欄位為必填</tspan>
                        </text>
                    </g>
                    <polygon id="Triangle-1" fill="#F5222D" points="15 0 10 5 20 5"></polygon>
                </g>
            </g>
        </g>
    </g>
</svg>