<?xml version="1.0" encoding="UTF-8"?>
<svg width="880px" height="397px" viewBox="0 0 880 397" version="1.1" xmlns="http://www.w3.org/2000/svg" xmlns:xlink="http://www.w3.org/1999/xlink">
    <title>date03</title>
    <defs>
        <path d="M9.92698943,7.41489705 L4.07145242,7.41489705 C3.80189204,7.41489705 3.5837507,7.1961714 3.5837507,6.92588898 L3.5837507,6.92588898 C3.5837507,6.65560657 3.80189204,6.43688091 4.07145242,6.43688091 L9.92854758,6.43688091 C10.198108,6.43688091 10.4162493,6.65560657 10.4162493,6.92588898 L10.4162493,6.92588898 C10.4146912,7.1961714 10.1965498,7.41489705 9.92698943,7.41489705 L9.92698943,7.41489705 Z M9.92698943,4.76675431 L4.07145242,4.76675431 C3.80189204,4.76675431 3.5837507,4.54802866 3.5837507,4.27774624 L3.5837507,4.27774624 C3.5837507,4.00746383 3.80189204,3.78873817 4.07145242,3.78873817 L9.92854758,3.78873817 C10.198108,3.78873817 10.4162493,4.00746383 10.4162493,4.27774624 L10.4162493,4.27774624 C10.4146912,4.54802866 10.1965498,4.76675431 9.92698943,4.76675431 L9.92698943,4.76675431 Z M12.8765721,11.9987618 L11.0753478,11.9987618 L11.0753478,12.3846564 C11.0753478,12.6549388 10.8572065,12.8736644 10.5876461,12.8736644 L10.5876461,12.8736644 C10.3180857,12.8736644 10.0999444,12.6549388 10.0999444,12.3846564 L10.0999444,11.9987618 L3.8984975,11.9987618 L3.8984975,12.3846564 C3.8984975,12.6549388 3.68035615,12.8736644 3.41079577,12.8736644 L3.41079577,12.8736644 C3.14123539,12.8736644 2.92309405,12.6549388 2.92309405,12.3846564 L2.92309405,11.9987618 L1.12186978,11.9987618 C0.501725097,11.9987618 0,11.4956928 0,10.873887 L0,1.99987479 C0,1.378069 0.501725097,0.875 1.12186978,0.875 L12.8781302,0.875 C13.4982749,0.875 14,1.378069 14,1.99987479 L14,10.873887 C13.9984418,11.4941305 13.4967168,11.9987618 12.8765721,11.9987618 L12.8765721,11.9987618 Z M1.12186978,10.873887 L2.9246522,10.873887 L2.9246522,10.6207902 C2.9246522,10.3505078 3.14279354,10.1317821 3.41235392,10.1317821 L3.41235392,10.1317821 C3.6819143,10.1317821 3.90005565,10.3505078 3.90005565,10.6207902 L3.90005565,10.873887 L10.1015025,10.873887 L10.1015025,10.6207902 C10.1015025,10.3505078 10.3196439,10.1317821 10.5892042,10.1317821 L10.5892042,10.1317821 C10.8587646,10.1317821 11.076906,10.3505078 11.076906,10.6207902 L11.076906,10.873887 L12.8796884,10.873887 L12.8796884,10.873887 L12.8796884,9.34124513 L1.12186978,9.34124513 L1.12186978,10.873887 L1.12186978,10.873887 L1.12186978,10.873887 Z M12.8765721,1.99987479 L1.12186978,1.99987479 L1.12186978,1.99987479 L1.12186978,8.36791597 L12.8781302,8.36791597 L12.8781302,1.99987479 L12.8765721,1.99987479 L12.8765721,1.99987479 Z" id="path-1"></path>
        <path d="M9.92698943,7.41489705 L4.07145242,7.41489705 C3.80189204,7.41489705 3.5837507,7.1961714 3.5837507,6.92588898 L3.5837507,6.92588898 C3.5837507,6.65560657 3.80189204,6.43688091 4.07145242,6.43688091 L9.92854758,6.43688091 C10.198108,6.43688091 10.4162493,6.65560657 10.4162493,6.92588898 L10.4162493,6.92588898 C10.4146912,7.1961714 10.1965498,7.41489705 9.92698943,7.41489705 L9.92698943,7.41489705 Z M9.92698943,4.76675431 L4.07145242,4.76675431 C3.80189204,4.76675431 3.5837507,4.54802866 3.5837507,4.27774624 L3.5837507,4.27774624 C3.5837507,4.00746383 3.80189204,3.78873817 4.07145242,3.78873817 L9.92854758,3.78873817 C10.198108,3.78873817 10.4162493,4.00746383 10.4162493,4.27774624 L10.4162493,4.27774624 C10.4146912,4.54802866 10.1965498,4.76675431 9.92698943,4.76675431 L9.92698943,4.76675431 Z M12.8765721,11.9987618 L11.0753478,11.9987618 L11.0753478,12.3846564 C11.0753478,12.6549388 10.8572065,12.8736644 10.5876461,12.8736644 L10.5876461,12.8736644 C10.3180857,12.8736644 10.0999444,12.6549388 10.0999444,12.3846564 L10.0999444,11.9987618 L3.8984975,11.9987618 L3.8984975,12.3846564 C3.8984975,12.6549388 3.68035615,12.8736644 3.41079577,12.8736644 L3.41079577,12.8736644 C3.14123539,12.8736644 2.92309405,12.6549388 2.92309405,12.3846564 L2.92309405,11.9987618 L1.12186978,11.9987618 C0.501725097,11.9987618 0,11.4956928 0,10.873887 L0,1.99987479 C0,1.378069 0.501725097,0.875 1.12186978,0.875 L12.8781302,0.875 C13.4982749,0.875 14,1.378069 14,1.99987479 L14,10.873887 C13.9984418,11.4941305 13.4967168,11.9987618 12.8765721,11.9987618 L12.8765721,11.9987618 Z M1.12186978,10.873887 L2.9246522,10.873887 L2.9246522,10.6207902 C2.9246522,10.3505078 3.14279354,10.1317821 3.41235392,10.1317821 L3.41235392,10.1317821 C3.6819143,10.1317821 3.90005565,10.3505078 3.90005565,10.6207902 L3.90005565,10.873887 L10.1015025,10.873887 L10.1015025,10.6207902 C10.1015025,10.3505078 10.3196439,10.1317821 10.5892042,10.1317821 L10.5892042,10.1317821 C10.8587646,10.1317821 11.076906,10.3505078 11.076906,10.6207902 L11.076906,10.873887 L12.8796884,10.873887 L12.8796884,10.873887 L12.8796884,9.34124513 L1.12186978,9.34124513 L1.12186978,10.873887 L1.12186978,10.873887 L1.12186978,10.873887 Z M12.8765721,1.99987479 L1.12186978,1.99987479 L1.12186978,1.99987479 L1.12186978,8.36791597 L12.8781302,8.36791597 L12.8781302,1.99987479 L12.8765721,1.99987479 L12.8765721,1.99987479 Z" id="path-3"></path>
        <rect id="path-5" x="0" y="0" width="270" height="193" rx="4"></rect>
        <filter x="-4.8%" y="-5.7%" width="109.6%" height="113.5%" filterUnits="objectBoundingBox" id="filter-6">
            <feOffset dx="0" dy="2" in="SourceAlpha" result="shadowOffsetOuter1"></feOffset>
            <feGaussianBlur stdDeviation="4" in="shadowOffsetOuter1" result="shadowBlurOuter1"></feGaussianBlur>
            <feColorMatrix values="0 0 0 0 0   0 0 0 0 0   0 0 0 0 0  0 0 0 0.15 0" type="matrix" in="shadowBlurOuter1"></feColorMatrix>
        </filter>
        <rect id="path-7" x="0" y="0" width="267" height="266" rx="4"></rect>
        <filter x="-4.9%" y="-4.1%" width="109.7%" height="109.8%" filterUnits="objectBoundingBox" id="filter-8">
            <feOffset dx="0" dy="2" in="SourceAlpha" result="shadowOffsetOuter1"></feOffset>
            <feGaussianBlur stdDeviation="4" in="shadowOffsetOuter1" result="shadowBlurOuter1"></feGaussianBlur>
            <feColorMatrix values="0 0 0 0 0   0 0 0 0 0   0 0 0 0 0  0 0 0 0.15 0" type="matrix" in="shadowBlurOuter1"></feColorMatrix>
        </filter>
    </defs>
    <g id="XXXGuideline" stroke="none" stroke-width="1" fill="none" fill-rule="evenodd">
        <g id="Guideline_日期" transform="translate(-110.000000, -1728.000000)">
            <g id="date03" transform="translate(110.000000, 1728.000000)">
                <rect id="bg" x="0" y="0" width="880" height="397"></rect>
                <g id="DatePicker/Medium/Placeholder-" transform="translate(20.000000, 20.000000)">
                    <g id="DatePicker/Medium/Placeholder-">
                        <rect id="Rectangle-5" stroke="#CCCCCC" fill="#FFFFFF" x="0.5" y="0.5" width="268.177049" height="31" rx="4"></rect>
                        <g id="Group" transform="translate(245.177049, 9.000000)">
                            <mask id="mask-2" fill="white">
                                <use xlink:href="#path-1"></use>
                            </mask>
                            <use id="Mask" fill="#7F7F7F" transform="translate(7.000000, 6.874332) scale(1, -1) translate(-7.000000, -6.874332) " xlink:href="#path-1"></use>
                        </g>
                        <text id="Text" font-family="PingFangTC-Regular, PingFang TC" font-size="14" font-weight="normal" line-spacing="22" fill="#B4B4B4">
                            <tspan x="10" y="20">請選擇日期</tspan>
                        </text>
                    </g>
                    <g id="DatePicker/Medium/Placeholder-" transform="translate(281.822951, 0.000000)">
                        <rect id="Rectangle-5" stroke="#CCCCCC" fill="#FFFFFF" x="0.5" y="0.5" width="268.177049" height="31" rx="4"></rect>
                        <g id="icon/others/clock/28px-stroke" transform="translate(245.177049, 9.000000)" fill="#7F7F7F">
                            <path d="M7,0 C3.13306452,0 0,3.13306452 0,7 C0,10.8669355 3.13306452,14 7,14 C10.8669355,14 14,10.8669355 14,7 C14,3.13306452 10.8669355,0 7,0 Z M7,12.6451613 C3.88104839,12.6451613 1.35483871,10.1189516 1.35483871,7 C1.35483871,3.88104839 3.88104839,1.35483871 7,1.35483871 C10.1189516,1.35483871 12.6451613,3.88104839 12.6451613,7 C12.6451613,10.1189516 10.1189516,12.6451613 7,12.6451613 Z M8.74435484,9.6983871 L6.34798387,7.95685484 C6.26048387,7.89193548 6.20967742,7.79032258 6.20967742,7.68306452 L6.20967742,3.0483871 C6.20967742,2.86209677 6.36209677,2.70967742 6.5483871,2.70967742 L7.4516129,2.70967742 C7.63790323,2.70967742 7.79032258,2.86209677 7.79032258,3.0483871 L7.79032258,7.04798387 L9.67580645,8.41975806 C9.82822581,8.52983871 9.85927419,8.74153226 9.74919355,8.89395161 L9.21854839,9.625 C9.10846774,9.77459677 8.89677419,9.80846774 8.74435484,9.6983871 Z"></path>
                        </g>
                        <text id="Text" font-family="PingFangTC-Regular, PingFang TC" font-size="14" font-weight="normal" line-spacing="22" fill="#B4B4B4">
                            <tspan x="10" y="20">請選擇時間</tspan>
                        </text>
                    </g>
                </g>
                <g id="DatePicker/Medium/Placeholder--Copy-4" transform="translate(20.000000, 62.000000)">
                    <g id="DatePicker/Medium/Placeholder-">
                        <rect id="Rectangle-5" stroke="#004477" fill="#FFFFFF" x="0.5" y="0.5" width="268.177049" height="31" rx="4"></rect>
                        <g id="Group" transform="translate(245.177049, 9.000000)">
                            <mask id="mask-4" fill="white">
                                <use xlink:href="#path-3"></use>
                            </mask>
                            <use id="Mask" fill="#7F7F7F" transform="translate(7.000000, 6.874332) scale(1, -1) translate(-7.000000, -6.874332) " xlink:href="#path-3"></use>
                        </g>
                        <text id="Text" font-family="PingFangTC-Semibold, PingFang TC" font-size="14" font-weight="500" line-spacing="22" fill="#545454">
                            <tspan x="10" y="20">2020-4-17</tspan>
                        </text>
                    </g>
                    <g id="DatePicker/Medium/Placeholder-" transform="translate(281.822951, 0.000000)">
                        <rect id="Rectangle-5" stroke="#004477" fill="#FFFFFF" x="0.5" y="0.5" width="268.177049" height="31" rx="4"></rect>
                        <g id="icon/others/clock/28px-stroke" transform="translate(245.177049, 9.000000)" fill="#7F7F7F">
                            <path d="M7,0 C3.13306452,0 0,3.13306452 0,7 C0,10.8669355 3.13306452,14 7,14 C10.8669355,14 14,10.8669355 14,7 C14,3.13306452 10.8669355,0 7,0 Z M7,12.6451613 C3.88104839,12.6451613 1.35483871,10.1189516 1.35483871,7 C1.35483871,3.88104839 3.88104839,1.35483871 7,1.35483871 C10.1189516,1.35483871 12.6451613,3.88104839 12.6451613,7 C12.6451613,10.1189516 10.1189516,12.6451613 7,12.6451613 Z M8.74435484,9.6983871 L6.34798387,7.95685484 C6.26048387,7.89193548 6.20967742,7.79032258 6.20967742,7.68306452 L6.20967742,3.0483871 C6.20967742,2.86209677 6.36209677,2.70967742 6.5483871,2.70967742 L7.4516129,2.70967742 C7.63790323,2.70967742 7.79032258,2.86209677 7.79032258,3.0483871 L7.79032258,7.04798387 L9.67580645,8.41975806 C9.82822581,8.52983871 9.85927419,8.74153226 9.74919355,8.89395161 L9.21854839,9.625 C9.10846774,9.77459677 8.89677419,9.80846774 8.74435484,9.6983871 Z"></path>
                        </g>
                        <text id="Text" font-family="PingFangTC-Regular, PingFang TC" font-size="14" font-weight="normal" line-spacing="22" fill="#545454">
                            <tspan x="10" y="20">01:34:55</tspan>
                        </text>
                    </g>
                </g>
                <g id="Group-35" transform="translate(301.000000, 94.000000)">
                    <g id="Rectangle-3-Copy-14">
                        <use fill="black" fill-opacity="1" filter="url(#filter-6)" xlink:href="#path-5"></use>
                        <use fill="#FFFFFF" fill-rule="evenodd" xlink:href="#path-5"></use>
                    </g>
                    <rect id="Rectangle-3-Copy-31" fill="#F1F8FE" x="0" y="1" width="90" height="32"></rect>
                    <rect id="Rectangle-3-Copy-32" fill="#F1F8FE" x="90" y="1" width="90" height="32"></rect>
                    <polygon id="Rectangle-3-Copy-33" fill="#EEEEEE" points="88 1 90 1 90 193 88 193"></polygon>
                    <polygon id="Rectangle-3-Copy-36" fill="#EEEEEE" points="178 1 180 1 180 193 178 193"></polygon>
                    <polygon id="Rectangle-3-Copy-34" fill="#EEEEEE" points="0 0 270 0 270 1 0 1"></polygon>
                    <text id="02-copy-6" font-family="HelveticaNeue, Helvetica Neue" font-size="14" font-weight="normal" line-spacing="22" fill="#666666">
                        <tspan x="32" y="51">02</tspan>
                    </text>
                    <text id="35" font-family="HelveticaNeue, Helvetica Neue" font-size="14" font-weight="normal" line-spacing="22" fill="#666666">
                        <tspan x="122" y="51">35</tspan>
                    </text>
                    <text id="03-copy-6" font-family="HelveticaNeue, Helvetica Neue" font-size="14" font-weight="normal" line-spacing="22" fill="#666666">
                        <tspan x="32" y="83">03</tspan>
                    </text>
                    <text id="36" font-family="HelveticaNeue, Helvetica Neue" font-size="14" font-weight="normal" line-spacing="22" fill="#666666">
                        <tspan x="122" y="83">36</tspan>
                    </text>
                    <text id="04-copy-6" font-family="HelveticaNeue, Helvetica Neue" font-size="14" font-weight="normal" line-spacing="22" fill="#666666">
                        <tspan x="32" y="115">04</tspan>
                    </text>
                    <text id="37" font-family="HelveticaNeue, Helvetica Neue" font-size="14" font-weight="normal" line-spacing="22" fill="#666666">
                        <tspan x="122" y="115">37</tspan>
                    </text>
                    <text id="05-copy-7" font-family="HelveticaNeue, Helvetica Neue" font-size="14" font-weight="normal" line-spacing="22" fill="#666666">
                        <tspan x="32" y="147">05</tspan>
                    </text>
                    <text id="38" font-family="HelveticaNeue, Helvetica Neue" font-size="14" font-weight="normal" line-spacing="22" fill="#666666">
                        <tspan x="122" y="147">38</tspan>
                    </text>
                    <text id="06-copy-7" font-family="HelveticaNeue, Helvetica Neue" font-size="14" font-weight="normal" line-spacing="22" fill="#666666">
                        <tspan x="32" y="179">06</tspan>
                    </text>
                    <text id="39" font-family="HelveticaNeue, Helvetica Neue" font-size="14" font-weight="normal" line-spacing="22" fill="#666666">
                        <tspan x="122" y="179">39</tspan>
                    </text>
                    <text id="01-copy-6" font-family="HelveticaNeue-Bold, Helvetica Neue" font-size="14" font-weight="bold" line-spacing="22" fill="#666666">
                        <tspan x="32" y="20">01</tspan>
                    </text>
                    <text id="34" font-family="HelveticaNeue-Bold, Helvetica Neue" font-size="14" font-weight="bold" line-spacing="22" fill="#666666">
                        <tspan x="122" y="20">34</tspan>
                    </text>
                    <rect id="Rectangle-1002-Copy-6" fill="#DDDDDD" x="171" y="42" width="6" height="28" rx="3"></rect>
                    <rect id="Rectangle-3-Copy-32" fill="#F1F8FE" x="180" y="1" width="90" height="32"></rect>
                    <rect id="Rectangle-3-Copy-37" fill="#F5F6F8" x="180" y="33" width="90" height="32"></rect>
                    <text id="56" font-family="HelveticaNeue, Helvetica Neue" font-size="14" font-weight="normal" line-spacing="22" fill="#666666">
                        <tspan x="212" y="51">56</tspan>
                    </text>
                    <text id="57" font-family="HelveticaNeue, Helvetica Neue" font-size="14" font-weight="normal" line-spacing="22" fill="#666666">
                        <tspan x="212" y="83">57</tspan>
                    </text>
                    <text id="58" font-family="HelveticaNeue, Helvetica Neue" font-size="14" font-weight="normal" line-spacing="22" fill="#666666">
                        <tspan x="212" y="115">58</tspan>
                    </text>
                    <text id="59" font-family="HelveticaNeue, Helvetica Neue" font-size="14" font-weight="normal" line-spacing="22" fill="#666666">
                        <tspan x="212" y="147">59</tspan>
                    </text>
                    <text id="60" font-family="HelveticaNeue, Helvetica Neue" font-size="14" font-weight="normal" line-spacing="22" fill="#666666">
                        <tspan x="212" y="179">60</tspan>
                    </text>
                    <text id="55" font-family="HelveticaNeue-Bold, Helvetica Neue" font-size="14" font-weight="bold" line-spacing="22" fill="#666666">
                        <tspan x="212" y="20">55</tspan>
                    </text>
                    <rect id="Rectangle-1002-Copy-6" fill="#DDDDDD" x="259" y="20" width="6" height="28" rx="3"></rect>
                </g>
                <g id="size-height:-Button/Primary/Basic/Medium-Copy-4" transform="translate(575.000000, 94.000000)">
                    <g id="Number" transform="translate(0.500000, 0.000000)">
                        <path d="M40.5,0 C41.6045695,-2.02906125e-16 42.5,0.8954305 42.5,2 L42.5,20 C42.5,21.1045695 41.6045695,22 40.5,22 L5.5,22 C4.3954305,22 3.5,21.1045695 3.5,20 L3.5,14 L0.5,11 L3.5,8 L3.5,2 C3.5,0.8954305 4.3954305,2.02906125e-16 5.5,0 L40.5,0 Z" id="Bg" fill="#1FA1FF"></path>
                        <text id="数据" font-family="PingFangTC-Regular, PingFang TC" font-size="12" font-weight="normal" fill="#FFFFFF">
                            <tspan x="11" y="15">選取</tspan>
                        </text>
                    </g>
                </g>
                <g id="size-height:-Button/Primary/Basic/Medium-Copy-3" transform="translate(575.000000, 136.000000)">
                    <g id="Number" transform="translate(0.500000, 0.000000)">
                        <path d="M51.5,0 C52.6045695,-2.02906125e-16 53.5,0.8954305 53.5,2 L53.5,20 C53.5,21.1045695 52.6045695,22 51.5,22 L5.5,22 C4.3954305,22 3.5,21.1045695 3.5,20 L3.5,14 L0.5,11 L3.5,8 L3.5,2 C3.5,0.8954305 4.3954305,2.02906125e-16 5.5,0 L51.5,0 Z" id="Bg" fill="#1FA1FF"></path>
                        <text id="数据" font-family="PingFangTC-Regular, PingFang TC" font-size="12" font-weight="normal" fill="#FFFFFF">
                            <tspan x="11" y="15">Hover</tspan>
                        </text>
                    </g>
                </g>
                <g id="Group-5" transform="translate(20.000000, 94.000000)">
                    <g id="Rectangle-5-Copy-10">
                        <use fill="black" fill-opacity="1" filter="url(#filter-8)" xlink:href="#path-7"></use>
                        <use fill="#FFFFFF" fill-rule="evenodd" xlink:href="#path-7"></use>
                    </g>
                    <g id="Group-2" transform="translate(0.000000, 4.000000)">
                        <text id="日" font-family="PingFangSC-Medium, PingFang SC" font-size="14" font-weight="400" line-spacing="22" fill="#000000" fill-opacity="0.65">
                            <tspan x="18.9291045" y="58">日</tspan>
                        </text>
                        <rect id="Rectangle-52-Copy-9" fill="#004477" x="194.272388" y="133" width="23.9104478" height="24" rx="2"></rect>
                        <text id="03" font-family="HelveticaNeue, Helvetica Neue" font-size="14" font-weight="normal" line-spacing="22" fill="#000000" fill-opacity="0.65">
                            <tspan x="18.9291045" y="116">03</tspan>
                        </text>
                        <text id="26" font-family="HelveticaNeue, Helvetica Neue" font-size="14" font-weight="normal" line-spacing="22" fill="#000000" fill-opacity="0.25">
                            <tspan x="18.9291045" y="86">26</tspan>
                        </text>
                        <text id="27" font-family="HelveticaNeue, Helvetica Neue" font-size="14" font-weight="normal" line-spacing="22" fill="#000000" fill-opacity="0.25">
                            <tspan x="54.7947761" y="86">27</tspan>
                        </text>
                        <text id="28" font-family="HelveticaNeue, Helvetica Neue" font-size="14" font-weight="normal" line-spacing="22" fill="#000000" fill-opacity="0.25">
                            <tspan x="90.6604478" y="86">28</tspan>
                        </text>
                        <text id="29" font-family="HelveticaNeue, Helvetica Neue" font-size="14" font-weight="normal" line-spacing="22" fill="#000000" fill-opacity="0.25">
                            <tspan x="126.526119" y="86">29</tspan>
                        </text>
                        <text id="30" font-family="HelveticaNeue, Helvetica Neue" font-size="14" font-weight="normal" line-spacing="22" fill="#000000" fill-opacity="0.25">
                            <tspan x="162.391791" y="86">30</tspan>
                        </text>
                        <text id="01" font-family="HelveticaNeue, Helvetica Neue" font-size="14" font-weight="normal" line-spacing="22" fill="#000000" fill-opacity="0.65">
                            <tspan x="198.257463" y="86">01</tspan>
                        </text>
                        <text id="02" font-family="HelveticaNeue, Helvetica Neue" font-size="14" font-weight="normal" line-spacing="22" fill="#000000" fill-opacity="0.65">
                            <tspan x="234.123134" y="86">02</tspan>
                        </text>
                        <text id="12" font-family="HelveticaNeue, Helvetica Neue" font-size="14" font-weight="normal" line-spacing="22" fill="#000000" fill-opacity="0.65">
                            <tspan x="18.9291045" y="146">12</tspan>
                        </text>
                        <text id="19" font-family="HelveticaNeue, Helvetica Neue" font-size="14" font-weight="normal" line-spacing="22" fill="#000000" fill-opacity="0.25">
                            <tspan x="18.9291045" y="176">19</tspan>
                        </text>
                        <text id="26" font-family="HelveticaNeue, Helvetica Neue" font-size="14" font-weight="normal" line-spacing="22" fill="#000000" fill-opacity="0.25">
                            <tspan x="18.9291045" y="206">26</tspan>
                        </text>
                        <text id="一" font-family="PingFangSC-Medium, PingFang SC" font-size="14" font-weight="400" line-spacing="22" fill="#000000" fill-opacity="0.65">
                            <tspan x="54.7947761" y="58">一</tspan>
                        </text>
                        <text id="06" font-family="HelveticaNeue, Helvetica Neue" font-size="14" font-weight="normal" line-spacing="22" fill="#000000" fill-opacity="0.65">
                            <tspan x="54.7947761" y="116">06</tspan>
                        </text>
                        <text id="04" font-family="HelveticaNeue, Helvetica Neue" font-size="14" font-weight="normal" line-spacing="22" fill="#000000" fill-opacity="0.25">
                            <tspan x="54.7947761" y="236">04</tspan>
                        </text>
                        <text id="13" font-family="HelveticaNeue, Helvetica Neue" font-size="14" font-weight="normal" line-spacing="22" fill="#000000" fill-opacity="0.65">
                            <tspan x="54.7947761" y="146">13</tspan>
                        </text>
                        <text id="20" font-family="HelveticaNeue, Helvetica Neue" font-size="14" font-weight="normal" line-spacing="22" fill="#000000" fill-opacity="0.25">
                            <tspan x="54.7947761" y="176">20</tspan>
                        </text>
                        <text id="27" font-family="HelveticaNeue, Helvetica Neue" font-size="14" font-weight="normal" line-spacing="22" fill="#000000" fill-opacity="0.25">
                            <tspan x="54.7947761" y="206">27</tspan>
                        </text>
                        <text id="二" font-family="PingFangSC-Medium, PingFang SC" font-size="14" font-weight="400" line-spacing="22" fill="#000000" fill-opacity="0.65">
                            <tspan x="90.6604478" y="58">二</tspan>
                        </text>
                        <text id="07" font-family="HelveticaNeue, Helvetica Neue" font-size="14" font-weight="normal" line-spacing="22" fill="#000000" fill-opacity="0.65">
                            <tspan x="90.6604478" y="116">07</tspan>
                        </text>
                        <text id="05" font-family="HelveticaNeue, Helvetica Neue" font-size="14" font-weight="normal" line-spacing="22" fill="#000000" fill-opacity="0.25">
                            <tspan x="90.6604478" y="236">05</tspan>
                        </text>
                        <text id="14" font-family="HelveticaNeue, Helvetica Neue" font-size="14" font-weight="normal" line-spacing="22" fill="#000000" fill-opacity="0.65">
                            <tspan x="90.6604478" y="146">14</tspan>
                        </text>
                        <text id="21" font-family="HelveticaNeue, Helvetica Neue" font-size="14" font-weight="normal" line-spacing="22" fill="#000000" fill-opacity="0.65">
                            <tspan x="90.6604478" y="176">21</tspan>
                        </text>
                        <text id="28" font-family="HelveticaNeue, Helvetica Neue" font-size="14" font-weight="normal" line-spacing="22" fill="#000000" fill-opacity="0.25">
                            <tspan x="90.6604478" y="206">28</tspan>
                        </text>
                        <text id="三" font-family="PingFangSC-Medium, PingFang SC" font-size="14" font-weight="400" line-spacing="22" fill="#000000" fill-opacity="0.65">
                            <tspan x="126.526119" y="58">三</tspan>
                        </text>
                        <text id="08" font-family="HelveticaNeue, Helvetica Neue" font-size="14" font-weight="normal" line-spacing="22" fill="#000000" fill-opacity="0.65">
                            <tspan x="126.526119" y="116">08</tspan>
                        </text>
                        <text id="06" font-family="HelveticaNeue, Helvetica Neue" font-size="14" font-weight="normal" line-spacing="22" fill="#000000" fill-opacity="0.25">
                            <tspan x="126.526119" y="236">06</tspan>
                        </text>
                        <text id="15" font-family="HelveticaNeue, Helvetica Neue" font-size="14" font-weight="normal" line-spacing="22" fill="#000000" fill-opacity="0.65">
                            <tspan x="126.526119" y="146">15</tspan>
                        </text>
                        <text id="22" font-family="HelveticaNeue, Helvetica Neue" font-size="14" font-weight="normal" line-spacing="22" fill="#000000" fill-opacity="0.65">
                            <tspan x="126.526119" y="176">22</tspan>
                        </text>
                        <text id="29" font-family="HelveticaNeue, Helvetica Neue" font-size="14" font-weight="normal" line-spacing="22" fill="#000000" fill-opacity="0.25">
                            <tspan x="126.526119" y="206">29</tspan>
                        </text>
                        <text id="16" font-family="HelveticaNeue, Helvetica Neue" font-size="14" font-weight="normal" line-spacing="22" fill="#666666">
                            <tspan x="162.391791" y="146">16</tspan>
                        </text>
                        <text id="23" font-family="HelveticaNeue, Helvetica Neue" font-size="14" font-weight="normal" line-spacing="22" fill="#000000" fill-opacity="0.65">
                            <tspan x="162.391791" y="176">23</tspan>
                        </text>
                        <text id="30" font-family="HelveticaNeue, Helvetica Neue" font-size="14" font-weight="normal" line-spacing="22" fill="#000000" fill-opacity="0.25">
                            <tspan x="162.391791" y="206">30</tspan>
                        </text>
                        <text id="四" font-family="PingFangSC-Medium, PingFang SC" font-size="14" font-weight="400" line-spacing="22" fill="#000000" fill-opacity="0.65">
                            <tspan x="162.391791" y="58">四</tspan>
                        </text>
                        <text id="09" font-family="HelveticaNeue, Helvetica Neue" font-size="14" font-weight="normal" line-spacing="22" fill="#000000" fill-opacity="0.65">
                            <tspan x="162.391791" y="116">09</tspan>
                        </text>
                        <text id="07" font-family="HelveticaNeue, Helvetica Neue" font-size="14" font-weight="normal" line-spacing="22" fill="#000000" fill-opacity="0.25">
                            <tspan x="162.391791" y="236">07</tspan>
                        </text>
                        <text id="五" font-family="PingFangSC-Medium, PingFang SC" font-size="14" font-weight="400" line-spacing="22" fill="#000000" fill-opacity="0.65">
                            <tspan x="198.257463" y="58">五</tspan>
                        </text>
                        <text id="10" font-family="HelveticaNeue, Helvetica Neue" font-size="14" font-weight="normal" line-spacing="22" fill="#000000" fill-opacity="0.65">
                            <tspan x="198.257463" y="116">10</tspan>
                        </text>
                        <text id="08" font-family="HelveticaNeue, Helvetica Neue" font-size="14" font-weight="normal" line-spacing="22" fill="#000000" fill-opacity="0.25">
                            <tspan x="198.257463" y="236">08</tspan>
                        </text>
                        <text id="17" font-family="HelveticaNeue, Helvetica Neue" font-size="14" font-weight="normal" line-spacing="22" fill="#FFFFFF">
                            <tspan x="198.257463" y="146">17</tspan>
                        </text>
                        <text id="24" font-family="HelveticaNeue, Helvetica Neue" font-size="14" font-weight="normal" line-spacing="22" fill="#000000" fill-opacity="0.65">
                            <tspan x="198.257463" y="176">24</tspan>
                        </text>
                        <text id="01" font-family="HelveticaNeue, Helvetica Neue" font-size="14" font-weight="normal" line-spacing="22" fill="#000000" fill-opacity="0.25">
                            <tspan x="198.257463" y="206">01</tspan>
                        </text>
                        <text id="六" font-family="PingFangSC-Medium, PingFang SC" font-size="14" font-weight="400" line-spacing="22" fill="#000000" fill-opacity="0.65">
                            <tspan x="234.123134" y="58">六</tspan>
                        </text>
                        <text id="11" font-family="HelveticaNeue, Helvetica Neue" font-size="14" font-weight="normal" line-spacing="22" fill="#000000" fill-opacity="0.65">
                            <tspan x="234.123134" y="116">11</tspan>
                        </text>
                        <text id="09" font-family="HelveticaNeue, Helvetica Neue" font-size="14" font-weight="normal" line-spacing="22" fill="#000000" fill-opacity="0.25">
                            <tspan x="234.123134" y="236">09</tspan>
                        </text>
                        <text id="18" font-family="HelveticaNeue, Helvetica Neue" font-size="14" font-weight="normal" line-spacing="22" fill="#000000" fill-opacity="0.65">
                            <tspan x="234.123134" y="146">18</tspan>
                        </text>
                        <text id="25" font-family="HelveticaNeue, Helvetica Neue" font-size="14" font-weight="normal" line-spacing="22" fill="#000000" fill-opacity="0.65">
                            <tspan x="234.123134" y="176">25</tspan>
                        </text>
                        <text id="02" font-family="HelveticaNeue, Helvetica Neue" font-size="14" font-weight="normal" line-spacing="22" fill="#000000" fill-opacity="0.25">
                            <tspan x="234.123134" y="206">02</tspan>
                        </text>
                        <text id="2020年-4月" font-family="HelveticaNeue-Medium, Helvetica Neue" font-size="14" font-weight="400" line-spacing="22" fill="#000000" fill-opacity="0.85">
                            <tspan x="99.203403" y="14">2020</tspan>
                            <tspan x="130.339403" y="14" font-family="PingFangSC-Medium, PingFang SC">年</tspan>
                            <tspan x="144.339403" y="14" font-family="PingFangSC-Regular, PingFang SC" font-weight="normal"> </tspan>
                            <tspan x="149.001403" y="14">4</tspan>
                            <tspan x="156.785403" y="14" font-family="PingFangSC-Medium, PingFang SC">月 </tspan>
                        </text>
                        <text id="03" font-family="HelveticaNeue, Helvetica Neue" font-size="14" font-weight="normal" line-spacing="22" fill="#000000" fill-opacity="0.25">
                            <tspan x="18.9291045" y="236">03</tspan>
                        </text>
                        <rect id="Rectangle-12" fill-opacity="0.09" fill="#000000" x="0" y="26" width="267" height="1"></rect>
                    </g>
                </g>
            </g>
        </g>
    </g>
</svg>