<?xml version="1.0" encoding="UTF-8"?>
<svg width="420px" height="280px" viewBox="0 0 420 280" version="1.1" xmlns="http://www.w3.org/2000/svg" xmlns:xlink="http://www.w3.org/1999/xlink">
    <title>rule01</title>
    <defs>
        <rect id="path-1" x="0" y="0" width="100" height="160" rx="4"></rect>
        <filter x="-13.0%" y="-6.9%" width="126.0%" height="116.2%" filterUnits="objectBoundingBox" id="filter-2">
            <feOffset dx="0" dy="2" in="SourceAlpha" result="shadowOffsetOuter1"></feOffset>
            <feGaussianBlur stdDeviation="4" in="shadowOffsetOuter1" result="shadowBlurOuter1"></feGaussianBlur>
            <feColorMatrix values="0 0 0 0 0   0 0 0 0 0   0 0 0 0 0  0 0 0 0.2 0" type="matrix" in="shadowBlurOuter1"></feColorMatrix>
        </filter>
        <path d="M12.2458984,4.10292969 C12.2458984,4.23417969 12.2021484,4.36679687 12.1146484,4.47753906 L7.45390625,10.2716797 C7.34042969,10.4125 7.16953125,10.4945312 6.98769531,10.4945312 C6.80722656,10.4945312 6.63496094,10.4125 6.52285156,10.2716797 L1.88671875,4.50214844 C1.68027344,4.24511719 1.72128906,3.86914062 1.97832031,3.66269531 C2.23535156,3.45625 2.61132813,3.49726562 2.81777344,3.75429687 L6.9890625,8.94414062 L11.1835938,3.72832031 C11.3900391,3.47128906 11.7660156,3.43027344 12.0230469,3.63671875 C12.1693359,3.75566406 12.2458984,3.92792969 12.2458984,4.10292969 Z" id="path-3"></path>
        <path d="M4.09775993,12.2407287 C4.22900993,12.2407287 4.36162711,12.1969787 4.4723693,12.1094787 L10.2665099,7.44873649 C10.4073302,7.33525993 10.4893615,7.16436149 10.4893615,6.98252555 C10.4893615,6.8020568 10.4073302,6.62979118 10.2665099,6.5176818 L4.49697868,1.88154899 C4.23994743,1.67510368 3.86397086,1.7161193 3.65752555,1.97315055 C3.45108024,2.2301818 3.49209586,2.60615836 3.74912711,2.81260368 L8.93897086,6.98389274 L3.72315055,11.178424 C3.4661193,11.3848693 3.42510368,11.7608459 3.63154899,12.0178771 C3.7504943,12.1641662 3.92275993,12.2407287 4.09775993,12.2407287 Z" id="path-5"></path>
        <path d="M9.89160156,12.2407287 C9.76035156,12.2407287 9.62773437,12.1969787 9.51699219,12.1094787 L3.72285156,7.44873649 C3.58203125,7.33525993 3.5,7.16436149 3.5,6.98252555 C3.5,6.8020568 3.58203125,6.62979118 3.72285156,6.5176818 L9.49238281,1.88154899 C9.74941406,1.67510368 10.1253906,1.7161193 10.3318359,1.97315055 C10.5382812,2.2301818 10.4972656,2.60615836 10.2402344,2.81260368 L5.05039063,6.98252555 L10.2662109,11.178424 C10.5232422,11.3848693 10.5642578,11.7608459 10.3578125,12.0178771 C10.2388672,12.1641662 10.0666016,12.2407287 9.89160156,12.2407287 Z" id="path-7"></path>
        <path d="M12.2458984,9.89707031 C12.2458984,9.76582031 12.2021484,9.63320312 12.1146484,9.52246094 L7.45390625,3.72832031 C7.34042969,3.5875 7.16953125,3.50546875 6.98769531,3.50546875 C6.80722656,3.50546875 6.63496094,3.5875 6.52285156,3.72832031 L1.88671875,9.49785156 C1.68027344,9.75488281 1.72128906,10.1308594 1.97832031,10.3373047 C2.23535156,10.54375 2.61132813,10.5027344 2.81777344,10.2457031 L6.9890625,5.05585937 L11.1835938,10.2716797 C11.3900391,10.5287109 11.7660156,10.5697266 12.0230469,10.3632812 C12.1693359,10.2443359 12.2458984,10.0720703 12.2458984,9.89707031 Z" id="path-9"></path>
        <path d="M4.09775993,12.2407287 C4.22900993,12.2407287 4.36162711,12.1969787 4.4723693,12.1094787 L10.2665099,7.44873649 C10.4073302,7.33525993 10.4893615,7.16436149 10.4893615,6.98252555 C10.4893615,6.8020568 10.4073302,6.62979118 10.2665099,6.5176818 L4.49697868,1.88154899 C4.23994743,1.67510368 3.86397086,1.7161193 3.65752555,1.97315055 C3.45108024,2.2301818 3.49209586,2.60615836 3.74912711,2.81260368 L8.93897086,6.98389274 L3.72315055,11.178424 C3.4661193,11.3848693 3.42510368,11.7608459 3.63154899,12.0178771 C3.7504943,12.1641662 3.92275993,12.2407287 4.09775993,12.2407287 Z" id="path-11"></path>
        <path d="M9.89160156,12.2407287 C9.76035156,12.2407287 9.62773437,12.1969787 9.51699219,12.1094787 L3.72285156,7.44873649 C3.58203125,7.33525993 3.5,7.16436149 3.5,6.98252555 C3.5,6.8020568 3.58203125,6.62979118 3.72285156,6.5176818 L9.49238281,1.88154899 C9.74941406,1.67510368 10.1253906,1.7161193 10.3318359,1.97315055 C10.5382812,2.2301818 10.4972656,2.60615836 10.2402344,2.81260368 L5.05039063,6.98252555 L10.2662109,11.178424 C10.5232422,11.3848693 10.5642578,11.7608459 10.3578125,12.0178771 C10.2388672,12.1641662 10.0666016,12.2407287 9.89160156,12.2407287 Z" id="path-13"></path>
    </defs>
    <g id="XXXGuideline" stroke="none" stroke-width="1" fill="none" fill-rule="evenodd">
        <g id="rule01">
            <rect id="Rectangle" x="0" y="0" width="420" height="280"></rect>
            <g id="Group-23" transform="translate(20.000000, 99.000000)">
                <g id="Rectangle" opacity="0.5">
                    <use fill="black" fill-opacity="1" filter="url(#filter-2)" xlink:href="#path-1"></use>
                    <use fill="#FFFFFF" fill-rule="evenodd" xlink:href="#path-1"></use>
                </g>
                <rect id="Rectangle" fill="#FFFFFF" x="0" y="0" width="100" height="160" rx="4"></rect>
                <g id="Group-22">
                    <path d="M4,0 L96,0 C98.209139,-4.05812251e-16 100,1.790861 100,4 L100,32 L100,32 L0,32 L0,4 C-2.705415e-16,1.790861 1.790861,4.05812251e-16 4,0 Z" id="Rectangle" fill="#F1F8FE"></path>
                    <text id="20筆/頁" font-family="PingFangTC-Semibold, PingFang TC" font-size="14" font-weight="500" line-spacing="22" fill="#545454">
                        <tspan x="10" y="20">20筆/頁</tspan>
                    </text>
                </g>
                <g id="Group-21" transform="translate(0.000000, 32.000000)">
                    <rect id="Rectangle" fill="#FFFFFF" x="0" y="0" width="100" height="32"></rect>
                    <text id="50筆/頁" font-family="PingFangTC-Regular, PingFang TC" font-size="14" font-weight="normal" line-spacing="22" fill="#545454">
                        <tspan x="10" y="20">50筆/頁</tspan>
                    </text>
                </g>
                <g id="Group" transform="translate(0.000000, 64.000000)">
                    <rect id="Rectangle" fill="#FFFFFF" x="0" y="0" width="100" height="32"></rect>
                    <text id="100條/頁" font-family="PingFangTC-Regular, PingFang TC" font-size="14" font-weight="normal" line-spacing="22" fill="#545454">
                        <tspan x="10" y="20">100條/頁</tspan>
                    </text>
                </g>
                <g id="Group" transform="translate(0.000000, 64.000000)">
                    <rect id="Rectangle" fill="#FFFFFF" x="0" y="0" width="100" height="32"></rect>
                    <text id="100筆/頁" font-family="PingFangTC-Regular, PingFang TC" font-size="14" font-weight="normal" line-spacing="22" fill="#545454">
                        <tspan x="10" y="20">100筆/頁</tspan>
                    </text>
                </g>
                <g id="Group" transform="translate(0.000000, 96.000000)">
                    <rect id="Rectangle" fill="#FFFFFF" x="0" y="0" width="100" height="32"></rect>
                    <text id="200筆/頁" font-family="PingFangTC-Regular, PingFang TC" font-size="14" font-weight="normal" line-spacing="22" fill="#545454">
                        <tspan x="10" y="20">200筆/頁</tspan>
                    </text>
                </g>
                <g id="Group" transform="translate(0.000000, 128.000000)">
                    <rect id="Rectangle" fill="#FFFFFF" x="0" y="0" width="100" height="32"></rect>
                    <text id="500筆/頁" font-family="PingFangTC-Regular, PingFang TC" font-size="14" font-weight="normal" line-spacing="22" fill="#545454">
                        <tspan x="10" y="20">500筆/頁</tspan>
                    </text>
                </g>
            </g>
            <g id="Group" transform="translate(2.000000, 20.000000)">
                <g id="Group" transform="translate(18.000000, 0.000000)">
                    <g id="Select/Medium/Selected">
                        <path d="M96.0026765,0.5 C96.9687595,0.5 97.8433626,0.891579006 98.4762679,1.52558221 C99.108938,2.15934979 99.5,3.0352722 99.5,4.0042577 L99.5,4.0042577 L99.5,27.9957423 C99.5,28.9623915 99.1069641,29.8375203 98.4740846,30.4714977 C97.8400628,31.1066193 96.9651376,31.5 96.0026765,31.5 L96.0026765,31.5 L3.99732351,31.5 C3.03124049,31.5 2.15663738,31.108421 1.52373208,30.4744178 C0.891061997,29.8406502 0.5,28.9647278 0.5,27.9957423 L0.5,27.9957423 L0.5,4.0042577 C0.5,3.03760854 0.893035869,2.16247973 1.52591541,1.52850233 C2.15993722,0.893380683 3.03486238,0.5 3.99732351,0.5 L3.99732351,0.5 Z" id="Rectangle-26-Copy-23" stroke="#CCCCCC" fill="#FFFFFF"></path>
                        <g id="Group" transform="translate(76.000000, 9.000000)">
                            <mask id="mask-4" fill="white">
                                <use xlink:href="#path-3"></use>
                            </mask>
                            <use id="Mask" fill="#7F7F7F" xlink:href="#path-3"></use>
                        </g>
                        <text id="Text" font-family="PingFangTC-Semibold, PingFang TC" font-size="14" font-weight="500" line-spacing="22" fill="#545454">
                            <tspan x="10" y="20">20 筆/頁</tspan>
                        </text>
                    </g>
                    <g transform="translate(330.000000, 0.000000)" id="Select/Medium/Selected">
                        <path d="M27.9957423,0.5 C28.96384,0.5 29.8403062,0.891650108 30.4745448,1.52588873 C31.108234,2.15957794 31.5,3.03537169 31.5,4.0042577 L31.5,4.0042577 L31.5,27.9957423 C31.5,28.96384 31.1083499,29.8403062 30.4741113,30.4745448 C29.8404221,31.108234 28.9646283,31.5 27.9957423,31.5 L27.9957423,31.5 L4.0042577,31.5 C3.03615996,31.5 2.15969383,31.1083499 1.52545521,30.4741113 C0.891766004,29.8404221 0.5,28.9646283 0.5,27.9957423 L0.5,27.9957423 L0.5,4.0042577 C0.5,3.03615996 0.891650108,2.15969383 1.52588873,1.52545521 C2.15957794,0.891766004 3.03537169,0.5 4.0042577,0.5 L4.0042577,0.5 L27.9957423,0.5 Z" id="Rectangle-26-Copy-23" stroke="#CCCCCC" fill="#FFFFFF"></path>
                        <g id="Icon/arrow/Down-14px" transform="translate(8.000000, 9.000000)">
                            <mask id="mask-6" fill="white">
                                <use xlink:href="#path-5"></use>
                            </mask>
                            <use id="Mask" fill="#7F7F7F" xlink:href="#path-5"></use>
                        </g>
                        <text id="Text" font-family="PingFangTC-Semibold, PingFang TC" font-size="14" font-weight="500" line-spacing="22"></text>
                    </g>
                    <g transform="translate(118.000000, 0.000000)" id="Select/Medium/Selected">
                        <path d="M27.9957423,0.5 C28.96384,0.5 29.8403062,0.891650108 30.4745448,1.52588873 C31.108234,2.15957794 31.5,3.03537169 31.5,4.0042577 L31.5,4.0042577 L31.5,27.9957423 C31.5,28.96384 31.1083499,29.8403062 30.4741113,30.4745448 C29.8404221,31.108234 28.9646283,31.5 27.9957423,31.5 L27.9957423,31.5 L4.0042577,31.5 C3.03615996,31.5 2.15969383,31.1083499 1.52545521,30.4741113 C0.891766004,29.8404221 0.5,28.9646283 0.5,27.9957423 L0.5,27.9957423 L0.5,4.0042577 C0.5,3.03615996 0.891650108,2.15969383 1.52588873,1.52545521 C2.15957794,0.891766004 3.03537169,0.5 4.0042577,0.5 L4.0042577,0.5 L27.9957423,0.5 Z" id="Rectangle-26-Copy-23" stroke="#CCCCCC" fill="#FFFFFF"></path>
                        <g id="Icon/arrow/Down-14px" transform="translate(8.000000, 9.000000)">
                            <mask id="mask-8" fill="white">
                                <use xlink:href="#path-7"></use>
                            </mask>
                            <use id="Mask" fill="#7F7F7F" xlink:href="#path-7"></use>
                        </g>
                        <text id="Text" font-family="PingFangTC-Semibold, PingFang TC" font-size="14" font-weight="500" line-spacing="22"></text>
                    </g>
                    <text id="第" font-family="PingFangTC-Regular, PingFang TC" font-size="14" font-weight="normal" line-spacing="22" fill="#545454">
                        <tspan x="156" y="20">第</tspan>
                    </text>
                    <text id="頁，共-3-頁" font-family="PingFangTC-Regular, PingFang TC" font-size="14" font-weight="normal" line-spacing="22" fill="#545454">
                        <tspan x="250" y="20">頁，共 3 頁</tspan>
                    </text>
                    <g transform="translate(176.000000, 0.000000)" id="Input/Medium/Placeholder-">
                        <path d="M64.0001592,0.5 C64.9669736,0.5 65.8422531,0.891604808 66.4756424,1.52569358 C67.1086825,2.15943268 67.5,3.03530837 67.5,4.0042577 L67.5,4.0042577 L67.5,27.9957423 C67.5,28.9642624 67.1092895,29.8411511 66.4756223,30.475518 C65.8431681,31.1086706 64.9687879,31.5 64.0001592,31.5 L64.0001592,31.5 L3.9998408,31.5 C3.0330264,31.5 2.15774693,31.1083952 1.52435759,30.4743064 C0.891317532,29.8405673 0.5,28.9646916 0.5,27.9957423 L0.5,27.9957423 L0.5,4.0042577 C0.5,3.03573755 0.890710513,2.15884891 1.52437772,1.52448196 C2.15683187,0.891329411 3.03121207,0.5 3.9998408,0.5 L3.9998408,0.5 Z" id="Rectangle" stroke="#CCCCCC" fill="#FFFFFF"></path>
                        <text id="Text" font-family="PingFangTC-Regular, PingFang TC" font-size="14" font-weight="normal" line-spacing="22" fill="#545454">
                            <tspan x="31.193" y="21">1</tspan>
                        </text>
                    </g>
                </g>
            </g>
            <g id="Group" transform="translate(2.000000, 67.000000)">
                <g id="Group" transform="translate(18.000000, 0.000000)">
                    <g id="Select/Medium/Selected">
                        <path d="M96.0026765,0.5 C96.9687595,0.5 97.8433626,0.891579006 98.4762679,1.52558221 C99.108938,2.15934979 99.5,3.0352722 99.5,4.0042577 L99.5,4.0042577 L99.5,27.9957423 C99.5,28.9623915 99.1069641,29.8375203 98.4740846,30.4714977 C97.8400628,31.1066193 96.9651376,31.5 96.0026765,31.5 L96.0026765,31.5 L3.99732351,31.5 C3.03124049,31.5 2.15663738,31.108421 1.52373208,30.4744178 C0.891061997,29.8406502 0.5,28.9647278 0.5,27.9957423 L0.5,27.9957423 L0.5,4.0042577 C0.5,3.03760854 0.893035869,2.16247973 1.52591541,1.52850233 C2.15993722,0.893380683 3.03486238,0.5 3.99732351,0.5 L3.99732351,0.5 Z" id="Rectangle-26-Copy-23" stroke="#CCCCCC" fill="#FFFFFF"></path>
                        <g id="Icon/arrow/Down-14px" transform="translate(76.000000, 9.000000)">
                            <mask id="mask-10" fill="white">
                                <use xlink:href="#path-9"></use>
                            </mask>
                            <use id="Mask" fill="#7F7F7F" xlink:href="#path-9"></use>
                        </g>
                        <text id="Text" font-family="PingFangTC-Semibold, PingFang TC" font-size="14" font-weight="500" line-spacing="22" fill="#545454">
                            <tspan x="10" y="20">20 筆/頁</tspan>
                        </text>
                    </g>
                    <g transform="translate(330.000000, 0.000000)" id="Select/Medium/Selected">
                        <path d="M27.9957423,0.5 C28.96384,0.5 29.8403062,0.891650108 30.4745448,1.52588873 C31.108234,2.15957794 31.5,3.03537169 31.5,4.0042577 L31.5,4.0042577 L31.5,27.9957423 C31.5,28.96384 31.1083499,29.8403062 30.4741113,30.4745448 C29.8404221,31.108234 28.9646283,31.5 27.9957423,31.5 L27.9957423,31.5 L4.0042577,31.5 C3.03615996,31.5 2.15969383,31.1083499 1.52545521,30.4741113 C0.891766004,29.8404221 0.5,28.9646283 0.5,27.9957423 L0.5,27.9957423 L0.5,4.0042577 C0.5,3.03615996 0.891650108,2.15969383 1.52588873,1.52545521 C2.15957794,0.891766004 3.03537169,0.5 4.0042577,0.5 L4.0042577,0.5 L27.9957423,0.5 Z" id="Rectangle-26-Copy-23" stroke="#CCCCCC" fill="#FFFFFF"></path>
                        <g id="Icon/arrow/Down-14px" transform="translate(8.000000, 9.000000)">
                            <mask id="mask-12" fill="white">
                                <use xlink:href="#path-11"></use>
                            </mask>
                            <use id="Mask" fill="#7F7F7F" xlink:href="#path-11"></use>
                        </g>
                        <text id="Text" font-family="PingFangTC-Semibold, PingFang TC" font-size="14" font-weight="500" line-spacing="22"></text>
                    </g>
                    <g transform="translate(118.000000, 0.000000)" id="Select/Medium/Selected">
                        <path d="M27.9957423,0.5 C28.96384,0.5 29.8403062,0.891650108 30.4745448,1.52588873 C31.108234,2.15957794 31.5,3.03537169 31.5,4.0042577 L31.5,4.0042577 L31.5,27.9957423 C31.5,28.96384 31.1083499,29.8403062 30.4741113,30.4745448 C29.8404221,31.108234 28.9646283,31.5 27.9957423,31.5 L27.9957423,31.5 L4.0042577,31.5 C3.03615996,31.5 2.15969383,31.1083499 1.52545521,30.4741113 C0.891766004,29.8404221 0.5,28.9646283 0.5,27.9957423 L0.5,27.9957423 L0.5,4.0042577 C0.5,3.03615996 0.891650108,2.15969383 1.52588873,1.52545521 C2.15957794,0.891766004 3.03537169,0.5 4.0042577,0.5 L4.0042577,0.5 L27.9957423,0.5 Z" id="Rectangle-26-Copy-23" stroke="#CCCCCC" fill="#FFFFFF"></path>
                        <g id="Icon/arrow/Down-14px" transform="translate(8.000000, 9.000000)">
                            <mask id="mask-14" fill="white">
                                <use xlink:href="#path-13"></use>
                            </mask>
                            <use id="Mask" fill="#7F7F7F" xlink:href="#path-13"></use>
                        </g>
                        <text id="Text" font-family="PingFangTC-Semibold, PingFang TC" font-size="14" font-weight="500" line-spacing="22"></text>
                    </g>
                    <text id="第" font-family="PingFangTC-Regular, PingFang TC" font-size="14" font-weight="normal" line-spacing="22" fill="#545454">
                        <tspan x="156" y="20">第</tspan>
                    </text>
                    <text id="頁，共-3-頁" font-family="PingFangTC-Regular, PingFang TC" font-size="14" font-weight="normal" line-spacing="22" fill="#545454">
                        <tspan x="250" y="20">頁，共 3 頁</tspan>
                    </text>
                    <g transform="translate(176.000000, 0.000000)" id="Input/Medium/Placeholder-">
                        <path d="M64.0001592,0.5 C64.9669736,0.5 65.8422531,0.891604808 66.4756424,1.52569358 C67.1086825,2.15943268 67.5,3.03530837 67.5,4.0042577 L67.5,4.0042577 L67.5,27.9957423 C67.5,28.9642624 67.1092895,29.8411511 66.4756223,30.475518 C65.8431681,31.1086706 64.9687879,31.5 64.0001592,31.5 L64.0001592,31.5 L3.9998408,31.5 C3.0330264,31.5 2.15774693,31.1083952 1.52435759,30.4743064 C0.891317532,29.8405673 0.5,28.9646916 0.5,27.9957423 L0.5,27.9957423 L0.5,4.0042577 C0.5,3.03573755 0.890710513,2.15884891 1.52437772,1.52448196 C2.15683187,0.891329411 3.03121207,0.5 3.9998408,0.5 L3.9998408,0.5 Z" id="Rectangle" stroke="#CCCCCC" fill="#FFFFFF"></path>
                        <text id="Text" font-family="PingFangTC-Regular, PingFang TC" font-size="14" font-weight="normal" line-spacing="22" fill="#545454">
                            <tspan x="31.193" y="21">1</tspan>
                        </text>
                    </g>
                </g>
            </g>
        </g>
    </g>
</svg>