<?xml version="1.0" encoding="UTF-8"?>
<svg width="402px" height="252px" viewBox="0 0 402 252" version="1.1" xmlns="http://www.w3.org/2000/svg" xmlns:xlink="http://www.w3.org/1999/xlink">
    <title>Group 7 Copy 2</title>
    <defs>
        <rect id="path-1" x="0" y="0" width="400" height="250" rx="8"></rect>
        <path d="M8.3971875,2.8134375 C8.3971875,2.9034375 8.3671875,2.994375 8.3071875,3.0703125 L5.11125,7.0434375 C5.0334375,7.14 4.91625,7.19625 4.7915625,7.19625 C4.6678125,7.19625 4.5496875,7.14 4.4728125,7.0434375 L1.29375,3.0871875 C1.1521875,2.9109375 1.1803125,2.653125 1.3565625,2.5115625 C1.5328125,2.37 1.790625,2.398125 1.9321875,2.574375 L4.7925,6.133125 L7.66875,2.5565625 C7.8103125,2.3803125 8.068125,2.3521875 8.244375,2.49375 C8.3446875,2.5753125 8.3971875,2.6934375 8.3971875,2.8134375 Z" id="path-2"></path>
        <path d="M2.80989252,8.39364252 C2.89989252,8.39364252 2.99083002,8.36364252 3.06676752,8.30364252 L7.03989252,5.10770502 C7.13645502,5.02989252 7.19270502,4.91270502 7.19270502,4.78801752 C7.19270502,4.66426752 7.13645502,4.54614252 7.03989252,4.46926752 L3.08364252,1.29020502 C2.90739252,1.14864252 2.64958002,1.17676752 2.50801752,1.35301752 C2.36645502,1.52926752 2.39458002,1.78708002 2.57083002,1.92864252 L6.12958002,4.78895502 L2.55301752,7.66520502 C2.37676752,7.80676752 2.34864252,8.06458002 2.49020502,8.24083002 C2.57176752,8.34114252 2.68989252,8.39364252 2.80989252,8.39364252 Z" id="path-4"></path>
        <path d="M6.7828125,8.39364252 C6.6928125,8.39364252 6.601875,8.36364252 6.5259375,8.30364252 L2.5528125,5.10770502 C2.45625,5.02989252 2.4,4.91270502 2.4,4.78801752 C2.4,4.66426752 2.45625,4.54614252 2.5528125,4.46926752 L6.5090625,1.29020502 C6.6853125,1.14864252 6.943125,1.17676752 7.0846875,1.35301752 C7.22625,1.52926752 7.198125,1.78708002 7.021875,1.92864252 L3.463125,4.78801752 L7.0396875,7.66520502 C7.2159375,7.80676752 7.2440625,8.06458002 7.1025,8.24083002 C7.0209375,8.34114252 6.9028125,8.39364252 6.7828125,8.39364252 Z" id="path-6"></path>
        <path d="M8,0 L322,0 C326.418278,-8.11624501e-16 330,3.581722 330,8 L330,40 L330,40 L0,40 L0,8 C-5.41083001e-16,3.581722 3.581722,8.11624501e-16 8,0 Z" id="path-8"></path>
        <filter x="-0.2%" y="-1.2%" width="100.3%" height="105.0%" filterUnits="objectBoundingBox" id="filter-9">
            <feOffset dx="0" dy="1" in="SourceAlpha" result="shadowOffsetOuter1"></feOffset>
            <feColorMatrix values="0 0 0 0 0   0 0 0 0 0   0 0 0 0 0  0 0 0 0.05 0" type="matrix" in="shadowOffsetOuter1"></feColorMatrix>
        </filter>
    </defs>
    <g id="XXXGuideline" stroke="none" stroke-width="1" fill="none" fill-rule="evenodd">
        <g id="Guideline_導航" transform="translate(-489.000000, -1030.000000)">
            <g id="Group-7-Copy-2" transform="translate(490.000000, 1031.000000)">
                <g id="Rectangle">
                    <use fill="#F5F6F8" xlink:href="#path-1"></use>
                    <rect stroke="#E5E5E5" stroke-width="1" fill-opacity="0.3" fill="#FFFFFF" x="-0.5" y="-0.5" width="401" height="251" rx="8"></rect>
                </g>
                <path d="M30,0 L392,0 C396.418278,-8.11624501e-16 400,3.581722 400,8 L400,40 L400,40 L30,40 L30,0 Z" id="Rectangle" fill="#043458"></path>
                <path d="M8,0 L30,0 L30,0 L30,250 L8,250 C3.581722,250 5.41083001e-16,246.418278 0,242 L0,8 C-5.41083001e-16,3.581722 3.581722,8.11624501e-16 8,0 Z" id="Rectangle" fill="#FFFFFF"></path>
                <g id="Group-2" transform="translate(50.000000, 60.000000)">
                    <rect id="Rectangle-Copy-6" fill="#FFFFFF" x="0" y="0" width="330" height="170" rx="8"></rect>
                    <g id="Others/Pagination/Default-Copy" transform="translate(70.000000, 50.000000)">
                        <g id="Group" transform="translate(0.914286, 0.023810)">
                            <g id="Select/Medium/Selected">
                                <path d="M65.8197627,0.342857143 C66.4849072,0.342857143 67.0871657,0.611117011 67.5232066,1.04447118 C67.9588318,1.47741227 68.2285714,2.07523398 68.2285714,2.73471124 L68.2285714,2.73471124 L68.2285714,19.2081459 C68.2285714,19.8698168 67.9611,20.4688152 67.5254566,20.9017744 C67.0908989,21.3336546 66.4892883,21.6 65.8197627,21.6 L65.8197627,21.6 L2.75166586,21.6 C2.08652138,21.6 1.48426288,21.3317401 1.04822201,20.898386 C0.612596782,20.4654449 0.342857143,19.8676232 0.342857143,19.2081459 L0.342857143,19.2081459 L0.342857143,2.73471124 C0.342857143,2.07304035 0.610328587,1.4740419 1.04597194,1.04108279 C1.48052972,0.609202583 2.08214023,0.342857143 2.75166586,0.342857143 L2.75166586,0.342857143 Z" id="Rectangle-26-Copy-23" stroke="#CCCCCC" stroke-width="0.685714286" fill="#FFFFFF"></path>
                                <g id="Icon/arrow/Down-14px" transform="translate(52.114286, 6.171429)">
                                    <mask id="mask-3" fill="white">
                                        <use xlink:href="#path-2"></use>
                                    </mask>
                                    <use id="Mask" fill="#7F7F7F" xlink:href="#path-2"></use>
                                </g>
                                <text id="Text" font-family="PingFangTC-Semibold, PingFang TC" font-size="9.6" font-weight="500" line-spacing="15.0857143" fill="#545454">
                                    <tspan x="6.85714286" y="13.4285714">20 筆/頁</tspan>
                                </text>
                            </g>
                            <g transform="translate(226.285714, 0.000000)" id="Select/Medium/Selected">
                                <path d="M19.2081459,0.342857143 C19.868367,0.342857143 20.4660734,0.610942233 20.8988543,1.04372314 C21.331987,1.47685583 21.6,2.07499332 21.6,2.73471124 L21.6,2.73471124 L21.6,19.2081459 C21.6,19.868367 21.3319149,20.4660734 20.899134,20.8988543 C20.4660013,21.331987 19.8678638,21.6 19.2081459,21.6 L19.2081459,21.6 L2.73471124,21.6 C2.07449013,21.6 1.47678374,21.3319149 1.04400283,20.899134 C0.61087014,20.4660013 0.342857143,19.8678638 0.342857143,19.2081459 L0.342857143,19.2081459 L0.342857143,2.73471124 C0.342857143,2.07449013 0.610942233,1.47678374 1.04372314,1.04400283 C1.47685583,0.61087014 2.07499332,0.342857143 2.73471124,0.342857143 L2.73471124,0.342857143 Z" id="Rectangle-26-Copy-23" stroke="#CCCCCC" stroke-width="0.685714286" fill="#FFFFFF"></path>
                                <g id="Icon/arrow/Down-14px" transform="translate(5.485714, 6.171429)">
                                    <mask id="mask-5" fill="white">
                                        <use xlink:href="#path-4"></use>
                                    </mask>
                                    <use id="Mask" fill="#7F7F7F" xlink:href="#path-4"></use>
                                </g>
                                <text id="Text" font-family="PingFangTC-Semibold, PingFang TC" font-size="9.6" font-weight="500" line-spacing="15.0857143"></text>
                            </g>
                            <g transform="translate(80.914286, 0.000000)" id="Select/Medium/Selected">
                                <path d="M19.2081459,0.342857143 C19.868367,0.342857143 20.4660734,0.610942233 20.8988543,1.04372314 C21.331987,1.47685583 21.6,2.07499332 21.6,2.73471124 L21.6,2.73471124 L21.6,19.2081459 C21.6,19.868367 21.3319149,20.4660734 20.899134,20.8988543 C20.4660013,21.331987 19.8678638,21.6 19.2081459,21.6 L19.2081459,21.6 L2.73471124,21.6 C2.07449013,21.6 1.47678374,21.3319149 1.04400283,20.899134 C0.61087014,20.4660013 0.342857143,19.8678638 0.342857143,19.2081459 L0.342857143,19.2081459 L0.342857143,2.73471124 C0.342857143,2.07449013 0.610942233,1.47678374 1.04372314,1.04400283 C1.47685583,0.61087014 2.07499332,0.342857143 2.73471124,0.342857143 L2.73471124,0.342857143 Z" id="Rectangle-26-Copy-23" stroke="#CCCCCC" stroke-width="0.685714286" fill="#FFFFFF"></path>
                                <g id="Icon/arrow/Down-14px" transform="translate(5.485714, 6.171429)">
                                    <mask id="mask-7" fill="white">
                                        <use xlink:href="#path-6"></use>
                                    </mask>
                                    <use id="Mask" fill="#7F7F7F" xlink:href="#path-6"></use>
                                </g>
                                <text id="Text" font-family="PingFangTC-Semibold, PingFang TC" font-size="9.6" font-weight="500" line-spacing="15.0857143"></text>
                            </g>
                            <text id="第" font-family="PingFangTC-Regular, PingFang TC" font-size="9.6" font-weight="normal" line-spacing="15.0857143" fill="#545454">
                                <tspan x="106.971429" y="13.4285714">第</tspan>
                            </text>
                            <text id="頁，共-3-頁" font-family="PingFangTC-Regular, PingFang TC" font-size="9.6" font-weight="normal" line-spacing="15.0857143" fill="#545454">
                                <tspan x="171.428571" y="13.4285714">頁，共 3 頁</tspan>
                            </text>
                            <g id="Input/Medium/Placeholder-" transform="translate(120.685714, 0.000000)">
                                <path d="M43.8858234,0.342857143 C44.5483782,0.342857143 45.1482427,0.61102499 45.5825689,1.04407859 C46.0168832,1.47712024 46.2857143,2.07510788 46.2857143,2.73471124 L46.2857143,2.73471124 L46.2857143,19.2081459 C46.2857143,19.8690575 46.0179122,20.4673786 45.5837736,20.9002451 C45.1499656,21.332782 44.5501853,21.6 43.8858234,21.6 L43.8858234,21.6 L2.74274798,21.6 C2.08019323,21.6 1.48032875,21.3318322 1.04600249,20.8987786 C0.611688229,20.4657369 0.342857143,19.8677493 0.342857143,19.2081459 L0.342857143,19.2081459 L0.342857143,2.73471124 C0.342857143,2.07379961 0.610659268,1.4754785 1.04479786,1.04261201 C1.47860582,0.610075187 2.07838615,0.342857143 2.74274798,0.342857143 L2.74274798,0.342857143 Z" id="Rectangle" stroke="#CCCCCC" stroke-width="0.685714286" fill="#FFFFFF"></path>
                                <text id="Text" font-family="PingFangTC-Regular, PingFang TC" font-size="9.14285714" font-weight="normal" line-spacing="22.8571429" fill="#545454">
                                    <tspan x="21.4811429" y="10.1190476">1</tspan>
                                </text>
                            </g>
                        </g>
                    </g>
                    <rect id="Rectangle-Copy-6" fill="#F2F2F2" x="10" y="83" width="310" height="20"></rect>
                    <g id="Rectangle-Copy-6">
                        <use fill="black" fill-opacity="1" filter="url(#filter-9)" xlink:href="#path-8"></use>
                        <use fill="#FFFFFF" fill-rule="evenodd" xlink:href="#path-8"></use>
                    </g>
                    <g id="Button/Primary/Basic/Small" transform="translate(270.000000, 10.000000)" fill="#004477">
                        <rect id="Rectangle-40-Copy-13" x="0" y="0" width="50" height="20" rx="4"></rect>
                    </g>
                </g>
            </g>
        </g>
    </g>
</svg>