<?xml version="1.0" encoding="UTF-8"?>
<svg width="402px" height="252px" viewBox="0 0 402 252" version="1.1" xmlns="http://www.w3.org/2000/svg" xmlns:xlink="http://www.w3.org/1999/xlink">
    <title>backtop02</title>
    <defs>
        <rect id="path-1" x="0" y="0" width="400" height="250" rx="8"></rect>
    </defs>
    <g id="XXXGuideline" stroke="none" stroke-width="1" fill="none" fill-rule="evenodd">
        <g id="Guideline_導航" transform="translate(-959.000000, -1196.000000)">
            <g id="🌑BackTop" transform="translate(950.000000, 905.000000)">
                <g id="backtop02" transform="translate(10.000000, 292.000000)">
                    <g id="Rectangle">
                        <use fill="#F5F6F8" xlink:href="#path-1"></use>
                        <rect stroke="#E5E5E5" stroke-width="1" fill-opacity="0.3" fill="#FFFFFF" x="-0.5" y="-0.5" width="401" height="251" rx="8"></rect>
                    </g>
                    <path d="M30,0 L392,0 C396.418278,-8.11624501e-16 400,3.581722 400,8 L400,40 L400,40 L30,40 L30,0 Z" id="Rectangle" fill="#043458"></path>
                    <path d="M8,0 L30,0 L30,0 L30,250 L8,250 C3.581722,250 5.41083001e-16,246.418278 0,242 L0,8 C-5.41083001e-16,3.581722 3.581722,8.11624501e-16 8,0 Z" id="Rectangle" fill="#FFFFFF"></path>
                    <g id="Group-2" transform="translate(50.000000, 60.000000)" fill="#FFFFFF">
                        <rect id="Rectangle-Copy-6" x="0" y="0" width="330" height="170" rx="8"></rect>
                    </g>
                    <g id="Group" transform="translate(345.000000, 195.000000)">
                        <circle id="Oval-3" fill-opacity="0.7" fill="#000000" cx="20" cy="20" r="20"></circle>
                        <path d="M20.0839286,23.8411023 C20.3136724,24.0529462 20.6862357,24.0529857 20.9160224,23.8411023 L26.7353536,18.4754835 C27.1952492,18.0514204 27.040426,17.7079618 26.3899327,17.7079618 L22.8558639,17.7079618 L22.8558639,12.0840133 C22.8558639,11.4852278 22.3286493,11 21.6783063,11 L19.3216234,11 C18.6713662,11 18.1440227,11.4853068 18.1440227,12.0839738 L18.1440227,17.7079618 L14.6100399,17.7079618 C13.9594606,17.7079618 13.8048522,18.0516179 14.2645975,18.4754835 L20.0839501,23.841122 L20.0839286,23.8411023 Z M26.8573542,27 L13.1426458,27 C12.5119583,27 12,27.4477267 12,28 C12,28.5524009 12.5115625,29 13.1426458,29 L26.8573542,29 C27.488,29 28,28.5522733 28,28 C28,27.4475991 27.4884375,27 26.8573542,27 Z" id="Shape" fill="#FFFFFF" transform="translate(20.000000, 20.000000) scale(1, -1) translate(-20.000000, -20.000000) "></path>
                    </g>
                    <g id="Radio/Default/Normal" transform="translate(65.000000, 131.000000)"></g>
                </g>
            </g>
        </g>
    </g>
</svg>