<?xml version="1.0" encoding="UTF-8"?>
<svg width="740px" height="150px" viewBox="0 0 740 150" version="1.1" xmlns="http://www.w3.org/2000/svg" xmlns:xlink="http://www.w3.org/1999/xlink">
    <title>backtop01</title>
    <g id="XXXGuideline" stroke="none" stroke-width="1" fill="none" fill-rule="evenodd">
        <g id="backtop01">
            <polygon id="bg" points="0 0 740 0 740 150 0 150"></polygon>
            <g id="Group-213" transform="translate(498.000000, 35.000000)">
                <g id="Group" transform="translate(42.000000, 0.000000)">
                    <circle id="Oval-3" fill-opacity="0.7" fill="#000000" cx="20" cy="20" r="20"></circle>
                    <path d="M20.0839286,23.8411023 C20.3136724,24.0529462 20.6862357,24.0529857 20.9160224,23.8411023 L26.7353536,18.4754835 C27.1952492,18.0514204 27.040426,17.7079618 26.3899327,17.7079618 L22.8558639,17.7079618 L22.8558639,12.0840133 C22.8558639,11.4852278 22.3286493,11 21.6783063,11 L19.3216234,11 C18.6713662,11 18.1440227,11.4853068 18.1440227,12.0839738 L18.1440227,17.7079618 L14.6100399,17.7079618 C13.9594606,17.7079618 13.8048522,18.0516179 14.2645975,18.4754835 L20.0839501,23.841122 L20.0839286,23.8411023 Z M26.8573542,27 L13.1426458,27 C12.5119583,27 12,27.4477267 12,28 C12,28.5524009 12.5115625,29 13.1426458,29 L26.8573542,29 C27.488,29 28,28.5522733 28,28 C28,27.4475991 27.4884375,27 26.8573542,27 Z" id="Shape" fill="#FFFFFF" transform="translate(20.000000, 20.000000) scale(1, -1) translate(-20.000000, -20.000000) "></path>
                </g>
                <g id="size-width:-Button/Primary/Basic/Medium-Copy" transform="translate(82.000000, 0.000000)">
                    <g id="Group" transform="translate(0.000000, 16.500000)" fill="#50E3C2" fill-rule="nonzero">
                        <g id="line">
                            <path id="Line" d="M1,0.5 L1,4 L2.5,4 L2.5,5 L1,5 L1,8.5 L0,8.5 L0,0.5 L1,0.5 Z M100,0.5 L100,8.5 L99,8.5 L99,0.5 L100,0.5 Z M6.5,4 L6.5,5 L4.5,5 L4.5,4 L6.5,4 Z M10.5,4 L10.5,5 L8.5,5 L8.5,4 L10.5,4 Z M14.5,4 L14.5,5 L12.5,5 L12.5,4 L14.5,4 Z M18.5,4 L18.5,5 L16.5,5 L16.5,4 L18.5,4 Z M22.5,4 L22.5,5 L20.5,5 L20.5,4 L22.5,4 Z M26.5,4 L26.5,5 L24.5,5 L24.5,4 L26.5,4 Z M30.5,4 L30.5,5 L28.5,5 L28.5,4 L30.5,4 Z M34.5,4 L34.5,5 L32.5,5 L32.5,4 L34.5,4 Z M38.5,4 L38.5,5 L36.5,5 L36.5,4 L38.5,4 Z M42.5,4 L42.5,5 L40.5,5 L40.5,4 L42.5,4 Z M46.5,4 L46.5,5 L44.5,5 L44.5,4 L46.5,4 Z M50.5,4 L50.5,5 L48.5,5 L48.5,4 L50.5,4 Z M54.5,4 L54.5,5 L52.5,5 L52.5,4 L54.5,4 Z M58.5,4 L58.5,5 L56.5,5 L56.5,4 L58.5,4 Z M62.5,4 L62.5,5 L60.5,5 L60.5,4 L62.5,4 Z M66.5,4 L66.5,5 L64.5,5 L64.5,4 L66.5,4 Z M70.5,4 L70.5,5 L68.5,5 L68.5,4 L70.5,4 Z M74.5,4 L74.5,5 L72.5,5 L72.5,4 L74.5,4 Z M78.5,4 L78.5,5 L76.5,5 L76.5,4 L78.5,4 Z M82.5,4 L82.5,5 L80.5,5 L80.5,4 L82.5,4 Z M86.5,4 L86.5,5 L84.5,5 L84.5,4 L86.5,4 Z M90.5,4 L90.5,5 L88.5,5 L88.5,4 L90.5,4 Z M94.5,4 L94.5,5 L92.5,5 L92.5,4 L94.5,4 Z M98.5,4 L98.5,5 L96.5,5 L96.5,4 L98.5,4 Z"></path>
                        </g>
                    </g>
                    <g id="Number" transform="translate(24.500000, 26.000000)">
                        <path d="M25.5,0 L28.5,3 L49,3 C50.1045695,3 51,3.8954305 51,5 L51,23 C51,24.1045695 50.1045695,25 49,25 L2,25 C0.8954305,25 -8.67738547e-17,24.1045695 0,23 L0,5 C-3.57315355e-16,3.8954305 0.8954305,3 2,3 L22.5,3 L25.5,0 Z" id="Bg" fill="#50E3C2"></path>
                        <text id="数据" font-family="Menlo-Regular, Menlo" font-size="12" font-weight="normal" fill="#FFFFFF">
                            <tspan x="7.43847656" y="18">100px</tspan>
                        </text>
                    </g>
                </g>
                <g id="size-height:-Button/Primary/Basic/Medium" transform="translate(42.000000, 40.000000)">
                    <g id="Group" transform="translate(16.500000, 0.000000)" fill="#50E3C2" fill-rule="nonzero">
                        <g id="line">
                            <path id="Line" d="M5,48.5 L5,49 L8.5,49 L8.5,50 L0.5,50 L0.5,49 L4,49 L4,48.5 L5,48.5 Z M5,44.5 L5,46.5 L4,46.5 L4,44.5 L5,44.5 Z M5,40.5 L5,42.5 L4,42.5 L4,40.5 L5,40.5 Z M5,36.5 L5,38.5 L4,38.5 L4,36.5 L5,36.5 Z M5,32.5 L5,34.5 L4,34.5 L4,32.5 L5,32.5 Z M5,28.5 L5,30.5 L4,30.5 L4,28.5 L5,28.5 Z M5,24.5 L5,26.5 L4,26.5 L4,24.5 L5,24.5 Z M5,20.5 L5,22.5 L4,22.5 L4,20.5 L5,20.5 Z M5,16.5 L5,18.5 L4,18.5 L4,16.5 L5,16.5 Z M5,12.5 L5,14.5 L4,14.5 L4,12.5 L5,12.5 Z M5,8.5 L5,10.5 L4,10.5 L4,8.5 L5,8.5 Z M5,4.5 L5,6.5 L4,6.5 L4,4.5 L5,4.5 Z M8.5,-2.22044605e-16 L8.5,1 L5,0.999 L5,2.5 L4,2.5 L4,1 L0.5,1 L0.5,2.22044605e-16 L8.5,-2.22044605e-16 Z"></path>
                        </g>
                    </g>
                    <g id="Number" transform="translate(-30.000000, 14.000000)">
                        <path d="M41,0 C42.1045695,-2.02906125e-16 43,0.8954305 43,2 L43,8 L46,11 L43,14 L43,20 C43,21.1045695 42.1045695,22 41,22 L2,22 C0.8954305,22 1.3527075e-16,21.1045695 0,20 L0,2 C-1.3527075e-16,0.8954305 0.8954305,2.02906125e-16 2,0 L41,0 Z" id="Bg" fill="#50E3C2"></path>
                        <text id="数据" font-family="Menlo-Regular, Menlo" font-size="12" font-weight="normal" fill="#FFFFFF">
                            <tspan x="7.1015625" y="15">50px</tspan>
                        </text>
                    </g>
                </g>
                <g id="size-height:-Button/Primary/Basic/Medium-Copy-4">
                    <g id="Group" transform="translate(16.500000, 0.000000)" fill="#FF5500" fill-rule="nonzero">
                        <g id="line">
                            <path id="Line" d="M5,0.999 L5,41 L9,41 L9,42 L0,42 L0,41 L4,41 L4,1 L0,1 L0,2.49800181e-16 L9,-2.49800181e-16 L9,1 L5,0.999 Z"></path>
                        </g>
                    </g>
                    <g id="Number" transform="translate(-26.500000, 10.000000)">
                        <path d="M41,0 C42.1045695,-2.02906125e-16 43,0.8954305 43,2 L43,8 L46,11 L43,14 L43,20 C43,21.1045695 42.1045695,22 41,22 L2,22 C0.8954305,22 1.3527075e-16,21.1045695 0,20 L0,2 C-1.3527075e-16,0.8954305 0.8954305,2.02906125e-16 2,0 L41,0 Z" id="Bg" fill="#FF5500"></path>
                        <text id="数据" font-family="Menlo-Regular, Menlo" font-size="12" font-weight="normal" fill="#FFFFFF">
                            <tspan x="7.1015625" y="15">40px</tspan>
                        </text>
                    </g>
                </g>
            </g>
            <g id="Group" transform="translate(130.000000, 35.000000)">
                <circle id="Oval-3" fill-opacity="0.7" fill="#000000" cx="20" cy="20" r="20"></circle>
                <path d="M20.0839286,23.8411023 C20.3136724,24.0529462 20.6862357,24.0529857 20.9160224,23.8411023 L26.7353536,18.4754835 C27.1952492,18.0514204 27.040426,17.7079618 26.3899327,17.7079618 L22.8558639,17.7079618 L22.8558639,12.0840133 C22.8558639,11.4852278 22.3286493,11 21.6783063,11 L19.3216234,11 C18.6713662,11 18.1440227,11.4853068 18.1440227,12.0839738 L18.1440227,17.7079618 L14.6100399,17.7079618 C13.9594606,17.7079618 13.8048522,18.0516179 14.2645975,18.4754835 L20.0839501,23.841122 L20.0839286,23.8411023 Z M26.8573542,27 L13.1426458,27 C12.5119583,27 12,27.4477267 12,28 C12,28.5524009 12.5115625,29 13.1426458,29 L26.8573542,29 C27.488,29 28,28.5522733 28,28 C28,27.4475991 27.4884375,27 26.8573542,27 Z" id="Shape" fill="#FFFFFF" transform="translate(20.000000, 20.000000) scale(1, -1) translate(-20.000000, -20.000000) "></path>
            </g>
            <text id="Default" font-family="PingFangTC-Regular, PingFang TC" font-size="14" font-weight="normal" line-spacing="22" fill="#7F7F7F">
                <tspan x="40" y="59">Default</tspan>
            </text>
            <text id="Hover" font-family="PingFangTC-Regular, PingFang TC" font-size="14" font-weight="normal" line-spacing="22" fill="#7F7F7F">
                <tspan x="240" y="59">Hover</tspan>
            </text>
            <g id="Group" transform="translate(330.000000, 35.000000)">
                <circle id="Oval-3" fill-opacity="0.5" fill="#000000" cx="20" cy="20" r="20"></circle>
                <path d="M20.0839286,23.8411023 C20.3136724,24.0529462 20.6862357,24.0529857 20.9160224,23.8411023 L26.7353536,18.4754835 C27.1952492,18.0514204 27.040426,17.7079618 26.3899327,17.7079618 L22.8558639,17.7079618 L22.8558639,12.0840133 C22.8558639,11.4852278 22.3286493,11 21.6783063,11 L19.3216234,11 C18.6713662,11 18.1440227,11.4853068 18.1440227,12.0839738 L18.1440227,17.7079618 L14.6100399,17.7079618 C13.9594606,17.7079618 13.8048522,18.0516179 14.2645975,18.4754835 L20.0839501,23.841122 L20.0839286,23.8411023 Z M26.8573542,27 L13.1426458,27 C12.5119583,27 12,27.4477267 12,28 C12,28.5524009 12.5115625,29 13.1426458,29 L26.8573542,29 C27.488,29 28,28.5522733 28,28 C28,27.4475991 27.4884375,27 26.8573542,27 Z" id="Shape" fill="#FFFFFF" transform="translate(20.000000, 20.000000) scale(1, -1) translate(-20.000000, -20.000000) "></path>
            </g>
        </g>
    </g>
</svg>