<?xml version="1.0" encoding="UTF-8"?>
<svg width="410px" height="310px" viewBox="0 0 410 310" version="1.1" xmlns="http://www.w3.org/2000/svg" xmlns:xlink="http://www.w3.org/1999/xlink">
    <title>notification/type01</title>
    <defs>
        <filter x="-5.8%" y="-38.3%" width="111.5%" height="176.7%" filterUnits="objectBoundingBox" id="filter-1">
            <feOffset dx="0" dy="4" in="SourceAlpha" result="shadowOffsetOuter1"></feOffset>
            <feGaussianBlur stdDeviation="4" in="shadowOffsetOuter1" result="shadowBlurOuter1"></feGaussianBlur>
            <feColorMatrix values="0 0 0 0 0   0 0 0 0 0   0 0 0 0 0  0 0 0 0.2 0" type="matrix" in="shadowBlurOuter1" result="shadowMatrixOuter1"></feColorMatrix>
            <feMerge>
                <feMergeNode in="shadowMatrixOuter1"></feMergeNode>
                <feMergeNode in="SourceGraphic"></feMergeNode>
            </feMerge>
        </filter>
        <path d="M8.797,7.501 L14.731,1.567 C15.09,1.208 15.09,0.628 14.731,0.271 C14.372,-0.087 13.793,-0.087 13.436,0.271 L7.5,6.203 L1.564,0.269 C1.205,-0.09 0.625,-0.09 0.269,0.269 C-0.09,0.628 -0.09,1.208 0.269,1.565 L6.203,7.498 L0.269,13.434 C-0.09,13.793 -0.09,14.373 0.269,14.73 C0.448,14.909 0.684,14.998 0.916,14.998 C1.152,14.998 1.384,14.909 1.564,14.73 L7.5,8.796 L13.436,14.732 C13.616,14.911 13.848,15 14.084,15 C14.319,15 14.552,14.911 14.731,14.732 C15.09,14.373 15.09,13.793 14.731,13.436 L8.797,7.501 Z" id="path-2"></path>
        <filter x="-5.8%" y="-38.3%" width="111.5%" height="176.7%" filterUnits="objectBoundingBox" id="filter-4">
            <feOffset dx="0" dy="4" in="SourceAlpha" result="shadowOffsetOuter1"></feOffset>
            <feGaussianBlur stdDeviation="4" in="shadowOffsetOuter1" result="shadowBlurOuter1"></feGaussianBlur>
            <feColorMatrix values="0 0 0 0 0   0 0 0 0 0   0 0 0 0 0  0 0 0 0.2 0" type="matrix" in="shadowBlurOuter1" result="shadowMatrixOuter1"></feColorMatrix>
            <feMerge>
                <feMergeNode in="shadowMatrixOuter1"></feMergeNode>
                <feMergeNode in="SourceGraphic"></feMergeNode>
            </feMerge>
        </filter>
        <path d="M8.797,7.501 L14.731,1.567 C15.09,1.208 15.09,0.628 14.731,0.271 C14.372,-0.087 13.793,-0.087 13.436,0.271 L7.5,6.203 L1.564,0.269 C1.205,-0.09 0.625,-0.09 0.269,0.269 C-0.09,0.628 -0.09,1.208 0.269,1.565 L6.203,7.498 L0.269,13.434 C-0.09,13.793 -0.09,14.373 0.269,14.73 C0.448,14.909 0.684,14.998 0.916,14.998 C1.152,14.998 1.384,14.909 1.564,14.73 L7.5,8.796 L13.436,14.732 C13.616,14.911 13.848,15 14.084,15 C14.319,15 14.552,14.911 14.731,14.732 C15.09,14.373 15.09,13.793 14.731,13.436 L8.797,7.501 Z" id="path-5"></path>
        <filter x="-5.8%" y="-38.3%" width="111.5%" height="176.7%" filterUnits="objectBoundingBox" id="filter-7">
            <feOffset dx="0" dy="4" in="SourceAlpha" result="shadowOffsetOuter1"></feOffset>
            <feGaussianBlur stdDeviation="4" in="shadowOffsetOuter1" result="shadowBlurOuter1"></feGaussianBlur>
            <feColorMatrix values="0 0 0 0 0   0 0 0 0 0   0 0 0 0 0  0 0 0 0.2 0" type="matrix" in="shadowBlurOuter1" result="shadowMatrixOuter1"></feColorMatrix>
            <feMerge>
                <feMergeNode in="shadowMatrixOuter1"></feMergeNode>
                <feMergeNode in="SourceGraphic"></feMergeNode>
            </feMerge>
        </filter>
        <path d="M8.797,7.501 L14.731,1.567 C15.09,1.208 15.09,0.628 14.731,0.271 C14.372,-0.087 13.793,-0.087 13.436,0.271 L7.5,6.203 L1.564,0.269 C1.205,-0.09 0.625,-0.09 0.269,0.269 C-0.09,0.628 -0.09,1.208 0.269,1.565 L6.203,7.498 L0.269,13.434 C-0.09,13.793 -0.09,14.373 0.269,14.73 C0.448,14.909 0.684,14.998 0.916,14.998 C1.152,14.998 1.384,14.909 1.564,14.73 L7.5,8.796 L13.436,14.732 C13.616,14.911 13.848,15 14.084,15 C14.319,15 14.552,14.911 14.731,14.732 C15.09,14.373 15.09,13.793 14.731,13.436 L8.797,7.501 Z" id="path-8"></path>
        <path d="M0,4 C0,1.79086 1.79086,0 4,0 L396,0 C398.209,0 400,1.79086 400,4 L400,56 C400,58.2091 398.209,60 396,60 L4,60 C1.79086,60 0,58.2091 0,56 L0,4 Z" id="path-10"></path>
        <filter x="-3.5%" y="-16.7%" width="107.0%" height="146.7%" filterUnits="objectBoundingBox" id="filter-11">
            <feOffset dx="0" dy="4" in="SourceAlpha" result="shadowOffsetOuter1"></feOffset>
            <feGaussianBlur stdDeviation="4" in="shadowOffsetOuter1" result="shadowBlurOuter1"></feGaussianBlur>
            <feColorMatrix values="0 0 0 0 0   0 0 0 0 0   0 0 0 0 0  0 0 0 0.2 0" type="matrix" in="shadowBlurOuter1"></feColorMatrix>
        </filter>
        <path d="M10,0 C4.4766,0 0,4.4766 0,10 C0,15.5234 4.4766,20 10,20 C15.5234,20 20,15.5234 20,10 C20,4.4766 15.5234,0 10,0 Z" id="path-12"></path>
        <path d="M8.797,7.5006 L14.731,1.5672 C15.09,1.2083 15.09,0.6281 14.731,0.2715 C14.372,-0.0874 13.793,-0.0874 13.436,0.2715 L7.5,6.2025 L1.564,0.2692 C1.205,-0.0897 0.625,-0.0897 0.269,0.2692 C-0.09,0.6281 -0.09,1.2083 0.269,1.5649 L6.203,7.4983 L0.269,13.4339 C-0.09,13.7928 -0.09,14.3731 0.269,14.7297 C0.448,14.9091 0.684,14.9977 0.916,14.9977 C1.152,14.9977 1.384,14.9091 1.564,14.7297 L7.5,8.7963 L13.436,14.732 C13.616,14.9114 13.848,15 14.084,15 C14.319,15 14.552,14.9114 14.731,14.732 C15.09,14.3731 15.09,13.7928 14.731,13.4363 L8.797,7.5006 Z" id="path-14"></path>
    </defs>
    <g id="notification/type01" stroke="none" stroke-width="1" fill="none" fill-rule="evenodd">
        <g id="Frame-54" transform="translate(5.000000, 5.000000)">
            <g id="Group" filter="url(#filter-1)" transform="translate(0.000000, 240.000000)">
                <path d="M0,4 C0,1.791 1.79086,0 4,0 L396,0 C398.209,0 400,1.791 400,4 L400,56 C400,58.209 398.209,60 396,60 L4,60 C1.79086,60 0,58.209 0,56 L0,4 Z" id="Path" fill="#FFFFFF"></path>
                <path d="M58.736,25.744 C58.64,27.232 58.544,27.808 58.384,28 C58.304,28.112 58.208,28.128 58.064,28.128 C57.968,28.128 57.744,28.128 57.472,28.096 L57.472,26.288 L54.064,26.288 C54.24,26.112 54.4,25.936 54.544,25.744 L58.736,25.744 Z M56.624,27.76 L54.72,27.76 L54.72,26.944 L56.624,26.944 L56.624,27.76 Z M54.288,24.464 C54.016,25.12 53.424,25.808 52.592,26.336 C52.8,26.464 53.12,26.752 53.264,26.96 C53.488,26.8 53.696,26.624 53.888,26.448 L53.888,28.432 L57.392,28.432 C57.44,28.592 57.472,28.768 57.488,28.912 C57.888,28.928 58.288,28.928 58.528,28.896 C58.832,28.88 59.056,28.8 59.248,28.576 C59.52,28.272 59.632,27.488 59.76,25.44 C59.776,25.296 59.776,25.04 59.776,25.04 L55.008,25.04 C55.072,24.912 55.12,24.8 55.184,24.672 L55.856,24.672 L55.856,24.096 L57.584,24.096 L57.584,24.672 L58.608,24.672 L58.608,24.096 L60.432,24.096 L60.432,23.328 L58.608,23.328 L58.608,22.64 L57.584,22.64 L57.584,23.328 L55.856,23.328 L55.856,22.64 L54.864,22.64 L54.864,23.328 L52.928,23.328 L52.928,24.096 L54.864,24.096 L54.864,24.544 L54.288,24.464 Z M55.664,29.856 L64.4,29.856 L64.4,29.2 L55.664,29.2 L55.664,29.856 Z M63.696,35.072 L63.696,36.144 L56.272,36.144 L56.272,35.072 L63.696,35.072 Z M55.136,37.232 L56.272,37.232 L56.272,36.848 L63.696,36.848 L63.696,37.216 L64.88,37.216 L64.88,34.384 L55.136,34.384 L55.136,37.232 Z M55.264,33.792 L64.768,33.792 L64.768,33.136 L55.264,33.136 L55.264,33.792 Z M64.768,31.84 L55.264,31.84 L55.264,32.496 L64.768,32.496 L64.768,31.84 Z M52.8,31.216 L67.216,31.216 L67.216,30.48 L52.8,30.48 L52.8,31.216 Z M64.864,24.672 C64.576,25.392 64.144,26 63.584,26.496 C63.008,25.968 62.56,25.344 62.24,24.672 L64.864,24.672 Z M67.136,24.672 L67.136,23.824 L62.608,23.824 C62.784,23.504 62.928,23.168 63.056,22.816 L62.08,22.592 C61.648,23.84 60.816,24.992 59.808,25.76 C60.048,25.904 60.432,26.208 60.608,26.384 C60.96,26.096 61.28,25.76 61.6,25.376 C61.936,25.984 62.352,26.544 62.848,27.04 C62.048,27.536 61.104,27.888 60.032,28.128 C60.24,28.32 60.528,28.72 60.624,28.944 C61.712,28.624 62.704,28.224 63.536,27.664 C64.432,28.368 65.488,28.88 66.688,29.2 C66.832,28.912 67.12,28.528 67.344,28.336 C66.192,28.096 65.168,27.648 64.32,27.072 C65.024,26.432 65.568,25.648 65.904,24.672 L67.136,24.672 Z M79.952,32.304 L79.952,35.36 L72.192,35.36 L72.192,32.304 L79.952,32.304 Z M71.008,37.376 L72.192,37.376 L72.192,36.48 L79.952,36.48 L79.952,37.344 L81.152,37.344 L81.152,31.2 L71.008,31.2 L71.008,37.376 Z M76.976,28.512 L76.976,26 L81.84,26 L81.84,24.912 L76.976,24.912 L76.976,22.608 L75.744,22.608 L75.744,24.912 L72.4,24.912 C72.688,24.304 72.96,23.68 73.184,23.04 L72,22.768 C71.408,24.544 70.4,26.368 69.232,27.504 C69.536,27.664 70.064,27.984 70.304,28.144 C70.832,27.568 71.344,26.816 71.824,26 L75.744,26 L75.744,28.512 L69.04,28.512 L69.04,29.632 L83.024,29.632 L83.024,28.512 L76.976,28.512 Z M90.016,23.168 L85.472,23.168 L85.472,24.128 L90.016,24.128 L90.016,23.168 Z M90.592,25.264 L84.672,25.264 L84.672,26.24 L90.592,26.24 L90.592,25.264 Z M90.048,27.424 L85.408,27.424 L85.408,28.368 L90.048,28.368 L90.048,27.424 Z M85.408,30.496 L90.048,30.496 L90.048,29.536 L85.408,29.536 L85.408,30.496 Z M89.04,32.656 L89.04,35.344 L86.432,35.344 L86.432,32.656 L89.04,32.656 Z M90.064,36.304 L90.064,31.68 L85.392,31.68 L85.392,37.04 L86.432,37.04 L86.432,36.304 L90.064,36.304 Z M90.8,23.424 L90.8,24.544 L92.8,24.544 L92.8,27.888 C92.8,28.208 92.8,28.528 92.784,28.848 L90.624,28.848 L90.624,29.968 L92.736,29.968 C92.544,32.208 91.936,34.528 90.032,36.432 C90.288,36.608 90.704,37.024 90.88,37.248 C93.056,35.12 93.696,32.496 93.872,29.968 L95.952,29.968 L95.952,28.848 L93.92,28.848 C93.936,28.528 93.936,28.208 93.936,27.904 L93.936,24.544 L96.48,24.544 C96.48,31.36 96.432,36.592 98.224,37.136 C99.024,37.456 99.552,36.912 99.744,34.272 C99.536,34.128 99.216,33.712 98.992,33.424 C98.944,34.768 98.816,35.952 98.688,35.92 C97.584,35.664 97.632,30.192 97.696,23.424 L90.8,23.424 Z M111.808,26.16 L104.384,26.16 L104.384,24.864 L111.808,24.864 L111.808,26.16 Z M111.808,28.4 L104.384,28.4 L104.384,27.072 L111.808,27.072 L111.808,28.4 Z M111.808,30.624 L104.384,30.624 L104.384,29.296 L111.808,29.296 L111.808,30.624 Z M113.008,23.92 L108.176,23.92 C108.384,23.552 108.608,23.12 108.832,22.688 L107.456,22.448 C107.344,22.848 107.12,23.44 106.928,23.92 L103.232,23.92 L103.232,31.568 L113.008,31.568 L113.008,23.92 Z M106.448,32.368 C107.376,33.024 108.4,33.984 108.864,34.704 L109.776,34.016 C109.296,33.296 108.256,32.384 107.328,31.776 L106.448,32.368 Z M101.616,36.688 C102.672,35.824 103.296,34.448 103.68,33.2 L102.656,32.816 C102.304,33.968 101.632,35.264 100.656,36.016 L101.616,36.688 Z M106.976,36.064 C106.112,36.064 105.984,35.984 105.984,35.568 L105.984,32.944 L104.816,32.944 L104.816,35.568 C104.816,36.8 105.248,37.12 106.896,37.12 L110,37.12 C111.328,37.12 111.68,36.704 111.84,34.944 C111.52,34.864 111.024,34.704 110.752,34.528 C110.704,35.872 110.592,36.064 109.92,36.064 L106.976,36.064 Z M111.584,33.248 C112.736,34.256 113.936,35.696 114.432,36.688 L115.44,36.032 C114.928,35.008 113.68,33.632 112.512,32.656 L111.584,33.248 Z" id="Shape" fill="#4C4C4C" fill-rule="nonzero"></path>
                <path d="M24,30 C24,24.477 28.4766,20 34,20 C39.5234,20 44,24.477 44,30 C44,35.523 39.5234,40 34,40 C28.4766,40 24,35.523 24,30 Z M32.5714,25.286 C32.5714,24.733 33.0191,24.286 33.5714,24.286 L34.4286,24.286 C34.9809,24.286 35.4286,24.733 35.4286,25.286 L35.4286,31.857 C35.4286,32.409 34.9809,32.857 34.4286,32.857 L33.5714,32.857 C33.0191,32.857 32.5714,32.409 32.5714,31.857 L32.5714,25.286 Z M35.4286,35.714 C35.4286,36.503 34.789,37.143 34,37.143 C33.211,37.143 32.5714,36.503 32.5714,35.714 C32.5714,34.925 33.211,34.286 34,34.286 C34.789,34.286 35.4286,34.925 35.4286,35.714 Z" id="Shape" fill="#F5A700"></path>
                <path d="M367.797,30.501 L373.731,24.567 C374.09,24.208 374.09,23.628 373.731,23.271 C373.372,22.913 372.793,22.913 372.436,23.271 L366.5,29.203 L360.564,23.269 C360.205,22.91 359.625,22.91 359.269,23.269 C358.91,23.628 358.91,24.208 359.269,24.565 L365.203,30.498 L359.269,36.434 C358.91,36.793 358.91,37.373 359.269,37.73 C359.448,37.909 359.684,37.998 359.916,37.998 C360.152,37.998 360.384,37.909 360.564,37.73 L366.5,31.796 L372.436,37.732 C372.616,37.911 372.848,38 373.084,38 C373.319,38 373.552,37.911 373.731,37.732 C374.09,37.373 374.09,36.793 373.731,36.436 L367.797,30.501 Z" id="Path" fill="#7F7F7F"></path>
                <g id="Clipped" transform="translate(359.000000, 23.000000)">
                    <mask id="mask-3" fill="white">
                        <use xlink:href="#path-2"></use>
                    </mask>
                    <g id="Path"></g>
                </g>
            </g>
            <g id="Group" filter="url(#filter-4)" transform="translate(0.000000, 160.000000)">
                <path d="M0,4 C0,1.791 1.79086,0 4,0 L396,0 C398.209,0 400,1.791 400,4 L400,56 C400,58.209 398.209,60 396,60 L4,60 C1.79086,60 0,58.209 0,56 L0,4 Z" id="Path" fill="#FFFFFF"></path>
                <path d="M61.632,27.52 L61.632,28.928 L58.944,28.928 L58.944,27.52 L61.632,27.52 Z M65.488,28.928 L62.704,28.928 L62.704,27.52 L65.488,27.52 L65.488,28.928 Z M62.704,31.264 L62.704,29.808 L65.488,29.808 L65.488,31.264 L62.704,31.264 Z M58.944,31.264 L58.944,29.808 L61.632,29.808 L61.632,31.264 L58.944,31.264 Z M58.944,32.176 L61.632,32.176 L61.632,34.768 L62.704,34.768 L62.704,32.176 L65.488,32.176 L65.488,33.632 C65.488,33.84 65.424,33.904 65.216,33.904 C65.024,33.904 64.336,33.92 63.584,33.888 C63.728,34.16 63.872,34.576 63.92,34.864 C64.992,34.864 65.664,34.848 66.08,34.688 C66.496,34.512 66.624,34.224 66.624,33.648 L66.624,26.608 L64.608,26.608 C64.256,26.416 63.84,26.192 63.376,25.968 C64.56,25.376 65.76,24.576 66.608,23.776 L65.872,23.216 L65.648,23.28 L57.84,23.28 L57.84,24.224 L64.512,24.224 C63.872,24.688 63.088,25.152 62.32,25.488 C61.568,25.168 60.784,24.848 60.096,24.608 L59.344,25.28 C60.304,25.632 61.44,26.144 62.384,26.608 L57.824,26.608 L57.824,34.832 L58.944,34.832 L58.944,32.176 Z M56.528,25.552 C56.016,24.768 54.832,23.696 53.824,22.976 L52.992,23.712 C54,24.464 55.152,25.584 55.648,26.368 L56.528,25.552 Z M56.176,28.88 L52.72,28.88 L52.72,30 L55.024,30 L55.024,34.112 C54.208,34.768 53.296,35.44 52.528,35.92 L53.104,37.072 C54.016,36.4 54.864,35.712 55.68,35.008 C56.656,36.272 58.096,36.832 60.192,36.912 C61.952,36.992 65.344,36.96 67.12,36.88 C67.184,36.528 67.36,35.984 67.488,35.712 C65.584,35.84 61.936,35.888 60.192,35.808 C58.32,35.744 56.944,35.216 56.176,34.016 L56.176,28.88 Z M73.248,25.856 L75.776,25.856 L75.776,24.752 L71.216,24.752 C71.408,24.144 71.584,23.504 71.712,22.832 L70.56,22.608 C70.176,24.544 69.52,26.448 68.576,27.68 C68.848,27.84 69.344,28.16 69.552,28.368 C70.048,27.68 70.464,26.816 70.848,25.856 L72.064,25.856 L72.064,28.48 C72.064,28.656 72.064,28.848 72.064,29.04 L68.768,29.04 L68.768,30.176 L71.984,30.176 C71.776,32.272 71.024,34.576 68.592,36.304 C68.848,36.48 69.264,36.928 69.424,37.184 C71.248,35.888 72.224,34.16 72.736,32.464 C73.6,33.44 74.848,34.944 75.392,35.728 L76.192,34.72 C75.696,34.16 73.76,32 73.008,31.248 C73.072,30.896 73.136,30.528 73.168,30.176 L76.24,30.176 L76.24,29.04 L73.232,29.04 C73.248,28.848 73.248,28.656 73.248,28.496 L73.248,25.856 Z M77.904,34.384 L77.904,25.12 L81.28,25.12 L81.28,34.384 L77.904,34.384 Z M76.752,24 L76.752,36.768 L77.904,36.768 L77.904,35.504 L81.28,35.504 L81.28,36.608 L82.464,36.608 L82.464,24 L76.752,24 Z M90.016,23.168 L85.472,23.168 L85.472,24.128 L90.016,24.128 L90.016,23.168 Z M90.592,25.264 L84.672,25.264 L84.672,26.24 L90.592,26.24 L90.592,25.264 Z M90.048,27.424 L85.408,27.424 L85.408,28.368 L90.048,28.368 L90.048,27.424 Z M85.408,30.496 L90.048,30.496 L90.048,29.536 L85.408,29.536 L85.408,30.496 Z M89.04,32.656 L89.04,35.344 L86.432,35.344 L86.432,32.656 L89.04,32.656 Z M90.064,36.304 L90.064,31.68 L85.392,31.68 L85.392,37.04 L86.432,37.04 L86.432,36.304 L90.064,36.304 Z M90.8,23.424 L90.8,24.544 L92.8,24.544 L92.8,27.888 C92.8,28.208 92.8,28.528 92.784,28.848 L90.624,28.848 L90.624,29.968 L92.736,29.968 C92.544,32.208 91.936,34.528 90.032,36.432 C90.288,36.608 90.704,37.024 90.88,37.248 C93.056,35.12 93.696,32.496 93.872,29.968 L95.952,29.968 L95.952,28.848 L93.92,28.848 C93.936,28.528 93.936,28.208 93.936,27.904 L93.936,24.544 L96.48,24.544 C96.48,31.36 96.432,36.592 98.224,37.136 C99.024,37.456 99.552,36.912 99.744,34.272 C99.536,34.128 99.216,33.712 98.992,33.424 C98.944,34.768 98.816,35.952 98.688,35.92 C97.584,35.664 97.632,30.192 97.696,23.424 L90.8,23.424 Z M111.808,26.16 L104.384,26.16 L104.384,24.864 L111.808,24.864 L111.808,26.16 Z M111.808,28.4 L104.384,28.4 L104.384,27.072 L111.808,27.072 L111.808,28.4 Z M111.808,30.624 L104.384,30.624 L104.384,29.296 L111.808,29.296 L111.808,30.624 Z M113.008,23.92 L108.176,23.92 C108.384,23.552 108.608,23.12 108.832,22.688 L107.456,22.448 C107.344,22.848 107.12,23.44 106.928,23.92 L103.232,23.92 L103.232,31.568 L113.008,31.568 L113.008,23.92 Z M106.448,32.368 C107.376,33.024 108.4,33.984 108.864,34.704 L109.776,34.016 C109.296,33.296 108.256,32.384 107.328,31.776 L106.448,32.368 Z M101.616,36.688 C102.672,35.824 103.296,34.448 103.68,33.2 L102.656,32.816 C102.304,33.968 101.632,35.264 100.656,36.016 L101.616,36.688 Z M106.976,36.064 C106.112,36.064 105.984,35.984 105.984,35.568 L105.984,32.944 L104.816,32.944 L104.816,35.568 C104.816,36.8 105.248,37.12 106.896,37.12 L110,37.12 C111.328,37.12 111.68,36.704 111.84,34.944 C111.52,34.864 111.024,34.704 110.752,34.528 C110.704,35.872 110.592,36.064 109.92,36.064 L106.976,36.064 Z M111.584,33.248 C112.736,34.256 113.936,35.696 114.432,36.688 L115.44,36.032 C114.928,35.008 113.68,33.632 112.512,32.656 L111.584,33.248 Z" id="Shape" fill="#4C4C4C" fill-rule="nonzero"></path>
                <path d="M24,30 C24,35.523 28.4766,40 34,40 C39.5234,40 44,35.523 44,30 C44,24.477 39.5234,20 34,20 C28.4766,20 24,24.477 24,30 Z M35.4286,24.286 C35.4286,25.075 34.789,25.714 34,25.714 C33.211,25.714 32.5714,25.075 32.5714,24.286 C32.5714,23.497 33.211,22.857 34,22.857 C34.789,22.857 35.4286,23.497 35.4286,24.286 Z M31.4286,28.214 C31.4286,27.623 31.9083,27.143 32.5,27.143 L34.2857,27.143 L34.2857,27.145 C34.3093,27.144 34.3331,27.143 34.3571,27.143 C34.9489,27.143 35.4286,27.623 35.4286,28.214 L35.4286,34.286 L36.5,34.286 C37.0917,34.286 37.5714,34.765 37.5714,35.357 C37.5714,35.949 37.0917,36.429 36.5,36.429 L32.2143,36.429 C31.6226,36.429 31.1429,35.949 31.1429,35.357 C31.1429,34.765 31.6226,34.286 32.2143,34.286 L33.2857,34.286 L33.2857,29.286 L32.5,29.286 C31.9083,29.286 31.4286,28.806 31.4286,28.214 Z" id="Shape" fill="#1FA1FF"></path>
                <path d="M367.797,30.501 L373.731,24.567 C374.09,24.208 374.09,23.628 373.731,23.271 C373.372,22.913 372.793,22.913 372.436,23.271 L366.5,29.203 L360.564,23.269 C360.205,22.91 359.625,22.91 359.269,23.269 C358.91,23.628 358.91,24.208 359.269,24.565 L365.203,30.498 L359.269,36.434 C358.91,36.793 358.91,37.373 359.269,37.73 C359.448,37.909 359.684,37.998 359.916,37.998 C360.152,37.998 360.384,37.909 360.564,37.73 L366.5,31.796 L372.436,37.732 C372.616,37.911 372.848,38 373.084,38 C373.319,38 373.552,37.911 373.731,37.732 C374.09,37.373 374.09,36.793 373.731,36.436 L367.797,30.501 Z" id="Path" fill="#7F7F7F"></path>
                <g id="Clipped" transform="translate(359.000000, 23.000000)">
                    <mask id="mask-6" fill="white">
                        <use xlink:href="#path-5"></use>
                    </mask>
                    <g id="Path"></g>
                </g>
            </g>
            <g id="Group" filter="url(#filter-7)" transform="translate(0.000000, 80.000000)">
                <path d="M0,4 C0,1.7909 1.79086,0 4,0 L396,0 C398.209,0 400,1.7909 400,4 L400,56 C400,58.209 398.209,60 396,60 L4,60 C1.79086,60 0,58.209 0,56 L0,4 Z" id="Path" fill="#FFFFFF"></path>
                <path d="M53.472,31.68 C53.296,33.072 52.992,34.512 52.496,35.488 C52.72,35.568 53.184,35.776 53.36,35.904 C53.872,34.88 54.224,33.36 54.448,31.856 L53.472,31.68 Z M57.28,30.4 C57.408,30.784 57.504,31.136 57.552,31.424 L58.464,31.04 C58.272,30.144 57.712,28.752 57.104,27.696 L56.272,28.016 C56.496,28.448 56.72,28.928 56.912,29.408 L54.768,29.52 C55.792,28.176 56.976,26.352 57.84,24.864 L56.864,24.432 C56.448,25.28 55.872,26.32 55.248,27.312 C55.024,27.008 54.736,26.656 54.416,26.304 C54.976,25.424 55.664,24.112 56.208,23.008 L55.184,22.624 C54.864,23.504 54.288,24.736 53.776,25.648 C53.616,25.488 53.44,25.312 53.28,25.168 L52.64,25.904 C53.376,26.592 54.176,27.52 54.64,28.24 C54.32,28.736 54,29.184 53.696,29.584 C53.28,29.6 52.88,29.616 52.528,29.632 L52.64,30.704 C53.36,30.656 54.176,30.608 55.056,30.544 L55.056,37.216 L56.096,37.216 L56.096,30.48 L57.28,30.4 Z M64.688,33.2 L64.688,31.36 L65.952,31.36 L65.952,33.2 L64.688,33.2 Z M62.64,33.2 L62.64,31.36 L63.872,31.36 L63.872,33.2 L62.64,33.2 Z M60.64,33.2 L60.64,31.36 L61.84,31.36 L61.84,33.2 L60.64,33.2 Z M65.488,26.656 L65.488,28.368 L59.968,28.368 L59.968,26.656 L65.488,26.656 Z M66.96,30.432 L59.936,30.432 C59.952,30.048 59.968,29.696 59.968,29.344 L66.64,29.344 L66.64,25.664 L58.896,25.664 L58.896,29.168 C58.896,30.704 58.816,32.672 58.176,34.432 C58.08,33.648 57.776,32.512 57.392,31.632 L56.56,31.888 C56.928,32.8 57.248,34 57.296,34.784 L58.144,34.544 C57.904,35.168 57.6,35.776 57.2,36.32 C57.44,36.448 57.888,36.784 58.064,36.992 C59.008,35.696 59.504,34.048 59.744,32.432 L59.744,37.216 L60.64,37.216 L60.64,34.112 L61.84,34.112 L61.84,37.056 L62.64,37.056 L62.64,34.112 L63.872,34.112 L63.872,37.056 L64.688,37.056 L64.688,34.112 L65.952,34.112 L65.952,36.08 C65.952,36.224 65.92,36.256 65.824,36.256 C65.696,36.256 65.36,36.256 64.976,36.24 C65.104,36.512 65.264,36.928 65.296,37.216 C65.888,37.216 66.304,37.184 66.608,37.04 C66.896,36.848 66.96,36.56 66.96,36.096 L66.96,30.432 Z M58.288,23.584 L58.288,24.624 L67.024,24.624 L67.024,23.584 L58.288,23.584 Z M81.312,25.632 L77.536,25.632 L77.536,24.016 L81.312,24.016 L81.312,25.632 Z M82.48,23.12 L76.416,23.12 L76.416,26.528 L82.48,26.528 L82.48,23.12 Z M70.192,29.744 L71.712,29.744 L71.712,31.2 L70.192,31.2 L70.192,29.744 Z M70.192,27.472 L71.712,27.472 L71.712,28.896 L70.192,28.896 L70.192,27.472 Z M74.192,28.896 L72.592,28.896 L72.592,27.472 L74.192,27.472 L74.192,28.896 Z M74.192,31.2 L72.592,31.2 L72.592,29.744 L74.192,29.744 L74.192,31.2 Z M75.616,34.448 L75.616,33.392 L72.704,33.392 L72.704,32.096 L75.136,32.096 L75.136,26.576 L72.704,26.576 L72.704,25.392 L75.424,25.392 L75.424,24.352 L72.704,24.352 L72.704,22.624 L71.632,22.624 L71.632,24.352 L68.848,24.352 L68.848,25.392 L71.632,25.392 L71.632,26.576 L69.296,26.576 L69.296,32.096 L71.632,32.096 L71.632,33.392 L68.688,33.392 L68.688,34.448 L71.632,34.448 L71.632,37.232 L72.704,37.232 L72.704,34.448 L75.616,34.448 Z M77.6,32.992 L81.312,32.992 L81.312,34.336 C80.016,34.432 78.736,34.512 77.6,34.592 L77.6,32.992 Z M81.312,28.432 L81.312,29.808 L77.6,29.808 L77.6,28.432 L81.312,28.432 Z M77.6,30.704 L81.312,30.704 L81.312,32.096 L77.6,32.096 L77.6,30.704 Z M83.36,34.176 L82.432,34.256 L82.432,28.432 L83.344,28.432 L83.344,27.472 L75.504,27.472 L75.504,28.432 L76.496,28.432 L76.496,34.656 C75.984,34.688 75.504,34.72 75.088,34.736 L75.264,35.808 C76.864,35.68 79.056,35.52 81.312,35.344 L81.312,37.216 L82.432,37.216 L82.432,35.248 L83.36,35.168 L83.36,34.176 Z M99.104,30.944 L99.104,29.76 L92.4,29.76 C92.496,29.024 92.528,28.288 92.528,27.552 L92.528,26.592 L97.744,26.592 L97.744,25.408 L92.528,25.408 L92.528,22.624 L91.312,22.624 L91.312,25.408 L88.256,25.408 C88.576,24.672 88.832,23.904 89.056,23.12 L87.808,22.848 C87.232,25.008 86.24,27.12 85.008,28.48 C85.328,28.608 85.904,28.912 86.16,29.104 C86.72,28.416 87.248,27.552 87.728,26.592 L91.312,26.592 L91.312,27.552 C91.312,28.288 91.28,29.024 91.152,29.76 L84.912,29.76 L84.912,30.944 L90.88,30.944 C90.208,33.008 88.576,34.912 84.72,36.208 C84.976,36.448 85.344,36.944 85.456,37.232 C89.536,35.824 91.296,33.728 92.032,31.44 C93.264,34.416 95.36,36.352 98.672,37.216 C98.864,36.88 99.2,36.384 99.472,36.128 C96.224,35.408 94.128,33.632 93.024,30.944 L99.104,30.944 Z M102.544,33.424 C102.128,34.608 101.424,35.776 100.592,36.544 C100.848,36.72 101.328,37.056 101.536,37.248 C102.368,36.384 103.2,35.04 103.68,33.712 L102.544,33.424 Z M104.8,33.872 C105.408,34.624 106.08,35.648 106.384,36.336 L107.392,35.808 C107.072,35.152 106.4,34.144 105.76,33.408 L104.8,33.872 Z M109.632,26.688 L112.848,26.688 C112.528,28.704 112.032,30.432 111.296,31.872 C110.528,30.368 109.984,28.608 109.616,26.704 L109.632,26.688 Z M105.904,26.208 L102.592,26.208 L102.592,24.224 L105.904,24.224 L105.904,26.208 Z M105.904,29.168 L102.592,29.168 L102.592,27.136 L105.904,27.136 L105.904,29.168 Z M105.904,32.128 L102.592,32.128 L102.592,30.08 L105.904,30.08 L105.904,32.128 Z M115.312,26.688 L115.312,25.552 L110.016,25.552 C110.304,24.672 110.544,23.76 110.736,22.816 L109.504,22.608 C109.04,25.056 108.24,27.392 107.056,29.008 L107.056,23.232 L101.472,23.232 L101.472,33.12 L107.056,33.12 L107.056,29.744 C107.296,29.936 107.552,30.144 107.68,30.272 C108.112,29.728 108.512,29.104 108.864,28.416 C109.296,30.144 109.84,31.728 110.576,33.072 C109.68,34.384 108.496,35.408 106.928,36.176 C107.168,36.432 107.52,36.976 107.632,37.248 C109.152,36.448 110.336,35.44 111.264,34.192 C112.16,35.488 113.28,36.528 114.656,37.232 C114.848,36.912 115.232,36.432 115.488,36.208 C114.048,35.536 112.896,34.464 112,33.088 C113.008,31.36 113.648,29.248 114.08,26.688 L115.312,26.688 Z" id="Shape" fill="#4C4C4C" fill-rule="nonzero"></path>
                <path d="M24,30 C24,24.477 28.4766,20 34,20 C39.5234,20 44,24.477 44,30 C44,35.523 39.5234,40 34,40 C28.4766,40 24,35.523 24,30 Z M30.4929,25.081 C30.2199,24.808 29.7773,24.808 29.5043,25.081 L29.0807,25.505 C28.8077,25.778 28.8077,26.22 29.0807,26.493 L32.5877,30 L29.0807,33.507 C28.8077,33.78 28.8077,34.223 29.0807,34.496 L29.5043,34.92 C29.7773,35.193 30.2199,35.193 30.4929,34.92 L34,31.412 L37.5071,34.92 C37.7801,35.193 38.2227,35.193 38.4957,34.92 L38.9193,34.496 C39.1923,34.223 39.1923,33.78 38.9194,33.507 L35.4123,30 L38.9194,26.493 C39.1923,26.22 39.1923,25.778 38.9194,25.505 L38.4957,25.081 C38.2227,24.808 37.7801,24.808 37.5071,25.081 L34,28.588 L30.4929,25.081 Z" id="Shape" fill="#F23F44"></path>
                <path d="M367.797,30.501 L373.731,24.567 C374.09,24.208 374.09,23.628 373.731,23.271 C373.372,22.913 372.793,22.913 372.436,23.271 L366.5,29.203 L360.564,23.269 C360.205,22.91 359.625,22.91 359.269,23.269 C358.91,23.628 358.91,24.208 359.269,24.565 L365.203,30.498 L359.269,36.434 C358.91,36.793 358.91,37.373 359.269,37.73 C359.448,37.909 359.684,37.998 359.916,37.998 C360.152,37.998 360.384,37.909 360.564,37.73 L366.5,31.796 L372.436,37.732 C372.616,37.911 372.848,38 373.084,38 C373.319,38 373.552,37.911 373.731,37.732 C374.09,37.373 374.09,36.793 373.731,36.436 L367.797,30.501 Z" id="Path" fill="#7F7F7F"></path>
                <g id="Clipped" transform="translate(359.000000, 23.000000)">
                    <mask id="mask-9" fill="white">
                        <use xlink:href="#path-8"></use>
                    </mask>
                    <g id="Path"></g>
                </g>
            </g>
            <g id="Path">
                <use fill="black" fill-opacity="1" filter="url(#filter-11)" xlink:href="#path-10"></use>
                <use fill="#FFFFFF" fill-rule="evenodd" xlink:href="#path-10"></use>
            </g>
            <path d="M53.472,31.68 C53.296,33.072 52.992,34.512 52.496,35.488 C52.72,35.568 53.184,35.776 53.36,35.904 C53.872,34.88 54.224,33.36 54.448,31.856 L53.472,31.68 Z M57.28,30.4 C57.408,30.784 57.504,31.136 57.552,31.424 L58.464,31.04 C58.272,30.144 57.712,28.752 57.104,27.696 L56.272,28.016 C56.496,28.448 56.72,28.928 56.912,29.408 L54.768,29.52 C55.792,28.176 56.976,26.352 57.84,24.864 L56.864,24.432 C56.448,25.28 55.872,26.32 55.248,27.312 C55.024,27.008 54.736,26.656 54.416,26.304 C54.976,25.424 55.664,24.112 56.208,23.008 L55.184,22.624 C54.864,23.504 54.288,24.736 53.776,25.648 C53.616,25.488 53.44,25.312 53.28,25.168 L52.64,25.904 C53.376,26.592 54.176,27.52 54.64,28.24 C54.32,28.736 54,29.184 53.696,29.584 C53.28,29.6 52.88,29.616 52.528,29.632 L52.64,30.704 C53.36,30.656 54.176,30.608 55.056,30.544 L55.056,37.216 L56.096,37.216 L56.096,30.48 L57.28,30.4 Z M64.688,33.2 L64.688,31.36 L65.952,31.36 L65.952,33.2 L64.688,33.2 Z M62.64,33.2 L62.64,31.36 L63.872,31.36 L63.872,33.2 L62.64,33.2 Z M60.64,33.2 L60.64,31.36 L61.84,31.36 L61.84,33.2 L60.64,33.2 Z M65.488,26.656 L65.488,28.368 L59.968,28.368 L59.968,26.656 L65.488,26.656 Z M66.96,30.432 L59.936,30.432 C59.952,30.048 59.968,29.696 59.968,29.344 L66.64,29.344 L66.64,25.664 L58.896,25.664 L58.896,29.168 C58.896,30.704 58.816,32.672 58.176,34.432 C58.08,33.648 57.776,32.512 57.392,31.632 L56.56,31.888 C56.928,32.8 57.248,34 57.296,34.784 L58.144,34.544 C57.904,35.168 57.6,35.776 57.2,36.32 C57.44,36.448 57.888,36.784 58.064,36.992 C59.008,35.696 59.504,34.048 59.744,32.432 L59.744,37.216 L60.64,37.216 L60.64,34.112 L61.84,34.112 L61.84,37.056 L62.64,37.056 L62.64,34.112 L63.872,34.112 L63.872,37.056 L64.688,37.056 L64.688,34.112 L65.952,34.112 L65.952,36.08 C65.952,36.224 65.92,36.256 65.824,36.256 C65.696,36.256 65.36,36.256 64.976,36.24 C65.104,36.512 65.264,36.928 65.296,37.216 C65.888,37.216 66.304,37.184 66.608,37.04 C66.896,36.848 66.96,36.56 66.96,36.096 L66.96,30.432 Z M58.288,23.584 L58.288,24.624 L67.024,24.624 L67.024,23.584 L58.288,23.584 Z M81.312,25.632 L77.536,25.632 L77.536,24.016 L81.312,24.016 L81.312,25.632 Z M82.48,23.12 L76.416,23.12 L76.416,26.528 L82.48,26.528 L82.48,23.12 Z M70.192,29.744 L71.712,29.744 L71.712,31.2 L70.192,31.2 L70.192,29.744 Z M70.192,27.472 L71.712,27.472 L71.712,28.896 L70.192,28.896 L70.192,27.472 Z M74.192,28.896 L72.592,28.896 L72.592,27.472 L74.192,27.472 L74.192,28.896 Z M74.192,31.2 L72.592,31.2 L72.592,29.744 L74.192,29.744 L74.192,31.2 Z M75.616,34.448 L75.616,33.392 L72.704,33.392 L72.704,32.096 L75.136,32.096 L75.136,26.576 L72.704,26.576 L72.704,25.392 L75.424,25.392 L75.424,24.352 L72.704,24.352 L72.704,22.624 L71.632,22.624 L71.632,24.352 L68.848,24.352 L68.848,25.392 L71.632,25.392 L71.632,26.576 L69.296,26.576 L69.296,32.096 L71.632,32.096 L71.632,33.392 L68.688,33.392 L68.688,34.448 L71.632,34.448 L71.632,37.232 L72.704,37.232 L72.704,34.448 L75.616,34.448 Z M77.6,32.992 L81.312,32.992 L81.312,34.336 C80.016,34.432 78.736,34.512 77.6,34.592 L77.6,32.992 Z M81.312,28.432 L81.312,29.808 L77.6,29.808 L77.6,28.432 L81.312,28.432 Z M77.6,30.704 L81.312,30.704 L81.312,32.096 L77.6,32.096 L77.6,30.704 Z M83.36,34.176 L82.432,34.256 L82.432,28.432 L83.344,28.432 L83.344,27.472 L75.504,27.472 L75.504,28.432 L76.496,28.432 L76.496,34.656 C75.984,34.688 75.504,34.72 75.088,34.736 L75.264,35.808 C76.864,35.68 79.056,35.52 81.312,35.344 L81.312,37.216 L82.432,37.216 L82.432,35.248 L83.36,35.168 L83.36,34.176 Z M94.72,23.408 C95.728,23.952 96.944,24.768 97.552,25.328 L98.288,24.512 C97.664,23.952 96.416,23.184 95.424,22.688 L94.72,23.408 Z M96.992,27.728 C96.496,29.344 95.808,30.784 94.944,32.048 C94.512,30.528 94.224,28.624 94.064,26.496 L99.152,26.496 L99.152,25.328 L93.984,25.328 C93.936,24.464 93.92,23.568 93.92,22.64 L92.688,22.64 C92.704,23.552 92.72,24.448 92.784,25.328 L86.112,25.328 L86.112,29.792 C86.112,31.856 85.968,34.592 84.656,36.544 C84.928,36.688 85.44,37.104 85.648,37.344 C87.088,35.264 87.328,32.048 87.328,29.808 L87.328,29.68 L90.24,29.68 C90.176,32.432 90.096,33.44 89.872,33.68 C89.776,33.824 89.616,33.856 89.392,33.856 C89.12,33.856 88.432,33.84 87.696,33.776 C87.888,34.08 88.016,34.528 88.032,34.896 C88.816,34.928 89.536,34.928 89.936,34.896 C90.384,34.848 90.656,34.736 90.896,34.432 C91.232,34.016 91.328,32.672 91.408,29.088 L91.408,28.576 L87.328,28.576 L87.328,26.496 L92.848,26.496 C93.056,29.072 93.44,31.424 94.016,33.232 C92.992,34.432 91.76,35.424 90.336,36.192 C90.608,36.416 91.024,36.896 91.2,37.136 C92.432,36.416 93.536,35.52 94.496,34.48 C95.232,36.128 96.192,37.104 97.424,37.104 C98.64,37.104 99.072,36.32 99.296,33.6 C98.976,33.504 98.544,33.232 98.272,32.96 C98.16,35.088 97.968,35.92 97.52,35.92 C96.704,35.92 95.968,35.008 95.376,33.44 C96.56,31.92 97.504,30.096 98.192,28.032 L96.992,27.728 Z M106.944,31.44 C106.096,31.664 105.216,31.904 104.384,32.128 L104.384,25.632 L106.704,25.632 L106.704,24.496 L100.88,24.496 L100.88,25.632 L103.216,25.632 L103.216,32.448 C102.24,32.688 101.36,32.912 100.656,33.072 L100.96,34.288 C102.64,33.824 104.928,33.184 107.088,32.544 L106.944,31.44 Z M110.672,26.24 C110.704,25.152 110.72,24.032 110.72,22.88 L109.536,22.88 C109.536,24.048 109.52,25.168 109.488,26.24 L106.816,26.24 L106.816,27.392 L109.44,27.392 C109.2,31.264 108.32,34.496 104.928,36.304 C105.216,36.512 105.616,36.944 105.776,37.248 C109.424,35.2 110.352,31.632 110.608,27.392 L113.808,27.392 C113.568,33.056 113.312,35.2 112.864,35.712 C112.688,35.904 112.496,35.952 112.192,35.952 C111.84,35.952 110.928,35.952 109.952,35.856 C110.16,36.192 110.304,36.688 110.32,37.024 C111.216,37.088 112.16,37.104 112.672,37.056 C113.232,36.992 113.552,36.864 113.904,36.432 C114.512,35.696 114.72,33.408 114.976,26.848 C114.992,26.688 114.992,26.24 114.992,26.24 L110.672,26.24 Z" id="Shape" fill="#4C4C4C" fill-rule="nonzero"></path>
            <path d="M34,20 C28.4766,20 24,24.4766 24,30 C24,35.5234 28.4766,40 34,40 C39.5234,40 44,35.5234 44,30 C44,24.4766 39.5234,20 34,20 Z" id="Path" fill="#1AB643"></path>
            <g id="Clipped" transform="translate(24.000000, 20.000000)">
                <mask id="mask-13" fill="white">
                    <use xlink:href="#path-12"></use>
                </mask>
                <g id="Path"></g>
                <path d="M8.241,14.3298 L8.3131,14.2602 L15.335,7.2169 C15.7479,6.8009 15.747,6.1295 15.3317,5.7171 L15.2138,5.614 C14.802,5.3047 14.2132,5.3383 13.8354,5.7161 L7.7686,11.7984 L6.3336,9.2876 C6.0421,8.7782 5.3961,8.6017 4.8871,8.893 C4.3779,9.1844 4.2015,9.8303 4.4928,10.3394 L6.6176,14.0598 C6.8074,14.3934 7.1616,14.5953 7.5391,14.5953 C7.7228,14.5953 7.9025,14.5487 8.0639,14.4564 C8.13,14.4173 8.1886,14.3756 8.241,14.3298 Z" id="Path" fill="#FFFFFF" fill-rule="nonzero" mask="url(#mask-13)"></path>
            </g>
            <path d="M367.797,30.5006 L373.731,24.5672 C374.09,24.2083 374.09,23.6281 373.731,23.2715 C373.372,22.9126 372.793,22.9126 372.436,23.2715 L366.5,29.2025 L360.564,23.2692 C360.205,22.9103 359.625,22.9103 359.269,23.2692 C358.91,23.6281 358.91,24.2083 359.269,24.5649 L365.203,30.4983 L359.269,36.4339 C358.91,36.7928 358.91,37.3731 359.269,37.7297 C359.448,37.9091 359.684,37.9977 359.916,37.9977 C360.152,37.9977 360.384,37.9091 360.564,37.7297 L366.5,31.7963 L372.436,37.732 C372.616,37.9114 372.848,38 373.084,38 C373.319,38 373.552,37.9114 373.731,37.732 C374.09,37.3731 374.09,36.7928 373.731,36.4363 L367.797,30.5006 Z" id="Path" fill="#7F7F7F"></path>
            <g id="Clipped" transform="translate(359.000000, 23.000000)">
                <mask id="mask-15" fill="white">
                    <use xlink:href="#path-14"></use>
                </mask>
                <g id="Path"></g>
            </g>
        </g>
    </g>
</svg>