<?xml version="1.0" encoding="UTF-8"?>
<svg width="310px" height="199px" viewBox="0 0 310 199" version="1.1" xmlns="http://www.w3.org/2000/svg" xmlns:xlink="http://www.w3.org/1999/xlink">
    <title>notification/where01</title>
    <defs>
        <filter x="-5.8%" y="-9.3%" width="113.7%" height="118.5%" filterUnits="objectBoundingBox" id="filter-1">
            <feOffset dx="0" dy="3" in="SourceAlpha" result="shadowOffsetOuter1"></feOffset>
            <feGaussianBlur stdDeviation="3" in="shadowOffsetOuter1" result="shadowBlurOuter1"></feGaussianBlur>
            <feColorMatrix values="0 0 0 0 0   0 0 0 0 0   0 0 0 0 0  0 0 0 0.2 0" type="matrix" in="shadowBlurOuter1" result="shadowMatrixOuter1"></feColorMatrix>
            <feMerge>
                <feMergeNode in="shadowMatrixOuter1"></feMergeNode>
                <feMergeNode in="SourceGraphic"></feMergeNode>
            </feMerge>
        </filter>
        <rect id="path-2" x="0" y="-7.10542736e-14" width="300" height="188.847584" rx="5.94795539"></rect>
        <path d="M4.26035503,0 L180,0 L180,0 L180,51.1242604 L4.26035503,51.1242604 C1.90742592,51.1242604 1.09462917e-14,49.2168344 0,46.8639053 L0,4.26035503 C-2.88150711e-16,1.90742592 1.90742592,4.32226066e-16 4.26035503,0 Z" id="path-4"></path>
        <filter x="-5.8%" y="-14.7%" width="111.7%" height="141.1%" filterUnits="objectBoundingBox" id="filter-5">
            <feOffset dx="0" dy="3" in="SourceAlpha" result="shadowOffsetOuter1"></feOffset>
            <feGaussianBlur stdDeviation="3" in="shadowOffsetOuter1" result="shadowBlurOuter1"></feGaussianBlur>
            <feComposite in="shadowBlurOuter1" in2="SourceAlpha" operator="out" result="shadowBlurOuter1"></feComposite>
            <feColorMatrix values="0 0 0 0 0   0 0 0 0 0   0 0 0 0 0  0 0 0 0.2 0" type="matrix" in="shadowBlurOuter1"></feColorMatrix>
        </filter>
    </defs>
    <g id="notification/where01" stroke="none" stroke-width="1" fill="none" fill-rule="evenodd">
        <g id="where01" filter="url(#filter-1)" transform="translate(5.000000, 5.000000)">
            <g id="Rectangle">
                <mask id="mask-3" fill="white">
                    <use xlink:href="#path-2"></use>
                </mask>
                <use id="Mask" fill="#F8F8FA" xlink:href="#path-2"></use>
                <path d="M12,-6.67910172e-13 L294.052045,-6.67910172e-13 C297.33701,-6.69401788e-13 300,2.66299034 300,5.94795539 L300,30.1115242 L300,30.1115242 L0,30.1115242 L0,12 C-8.11624501e-16,5.372583 5.372583,-6.66692735e-13 12,-6.67910172e-13 Z" fill="#043458" mask="url(#mask-3)"></path>
            </g>
            <g id="Group-4" transform="translate(120.000000, 11.000000)">
                <g id="Rectangle">
                    <use fill="black" fill-opacity="1" filter="url(#filter-5)" xlink:href="#path-4"></use>
                    <path stroke="#F2F2F2" stroke-width="1.06508876" d="M179.467456,0.532544379 L179.467456,50.591716 L4.26035503,50.591716 C3.23094854,50.591716 2.29899588,50.1744666 1.62439484,49.4998655 C0.949793798,48.8252645 0.532544379,47.8933118 0.532544379,46.8639053 L0.532544379,46.8639053 L0.532544379,4.26035503 C0.532544379,3.23094854 0.949793798,2.29899588 1.62439484,1.62439484 C2.29899588,0.949793798 3.23094854,0.532544379 4.26035503,0.532544379 L4.26035503,0.532544379 L179.467456,0.532544379 Z" stroke-linejoin="square" fill="#FFFFFF" fill-rule="evenodd"></path>
                </g>
                <rect id="Rectangle" fill-opacity="0.1" fill="#7F7F7F" x="38.4142012" y="8.52071006" width="132" height="34.0828402" rx="2.13017751"></rect>
                <g id="Icon/system/alert/Info/20px" transform="translate(10.650888, 8.520710)" fill="#1FA1FF">
                    <path d="M10,0 C15.5234375,0 20,4.4765625 20,10 C20,15.5234375 15.5234375,20 10,20 C4.4765625,20 0,15.5234375 0,10 C0,4.4765625 4.4765625,0 10,0 Z M10.2857143,7.14285714 L8.5,7.14285714 C7.90826634,7.14285714 7.42857143,7.62255205 7.42857143,8.21428571 C7.42857143,8.80601937 7.90826634,9.28571429 8.5,9.28571429 L8.5,9.28571429 L9.28485714,9.28514286 L9.28485714,14.2851429 L8.21428571,14.2857143 C7.62255205,14.2857143 7.14285714,14.7654092 7.14285714,15.3571429 C7.14285714,15.9488765 7.62255205,16.4285714 8.21428571,16.4285714 L8.21428571,16.4285714 L12.5,16.4285714 C13.0917337,16.4285714 13.5714286,15.9488765 13.5714286,15.3571429 C13.5714286,14.7654092 13.0917337,14.2857143 12.5,14.2857143 L12.5,14.2857143 L11.4278571,14.2851429 L11.4285714,8.21428571 C11.4285714,7.62255205 10.9488765,7.14285714 10.3571429,7.14285714 C10.3328666,7.14285714 10.3087789,7.14366452 10.2857143,7.14285714 L10.2857143,7.14285714 Z M10,2.85714286 C9.21102179,2.85714286 8.57142857,3.49673607 8.57142857,4.28571429 C8.57142857,5.0746925 9.21102179,5.71428571 10,5.71428571 C10.7889782,5.71428571 11.4285714,5.0746925 11.4285714,4.28571429 C11.4285714,3.49673607 10.7889782,2.85714286 10,2.85714286 Z" id="Combined-Shape"></path>
                </g>
            </g>
            <path d="M5.94795539,8.38440428e-13 L22.6765799,8.38440428e-13 L22.6765799,8.38440428e-13 L22.6765799,188.847584 L5.94795539,188.847584 C2.66299034,188.847584 6.47944141e-13,186.184593 6.30606678e-13,182.899628 L6.30606678e-13,5.94795539 C6.29316207e-13,2.66299034 2.66299034,8.36379331e-13 5.94795539,8.38440428e-13 Z" id="Rectangle" fill="#FFFFFF"></path>
        </g>
    </g>
</svg>