<?xml version="1.0" encoding="UTF-8"?>
<svg width="550px" height="100px" viewBox="0 0 550 100" version="1.1" xmlns="http://www.w3.org/2000/svg" xmlns:xlink="http://www.w3.org/1999/xlink">
    <title>alert/type01</title>
    <g id="alert/type01" stroke="none" stroke-width="1" fill="none" fill-rule="evenodd">
        <g>
            <g id="Info">
                <path d="M0.5,4 C0.5,2.067 2.067,0.5 4,0.5 L546,0.5 C547.933,0.5 549.5,2.067 549.5,4 L549.5,36 C549.5,37.933 547.933,39.5 546,39.5 L4,39.5 C2.067,39.5 0.5,37.933 0.5,36 L0.5,4 Z" id="Path" stroke="#91D5FF" fill="#E6F7FF" fill-rule="nonzero"></path>
                <path d="M41.738,13.338 C40.954,15.466 39.652,17.552 38.28,18.896 C38.476,19.134 38.756,19.666 38.868,19.918 C39.344,19.4 39.834,18.826 40.282,18.182 L40.282,26.036 L41.276,26.036 L41.276,16.628 C41.822,15.676 42.312,14.668 42.718,13.632 L41.738,13.338 Z M44.286,19.246 C43.908,20.898 43.25,22.564 42.368,23.628 C42.62,23.768 43.068,24.034 43.264,24.202 C44.118,23.04 44.86,21.276 45.308,19.442 L44.286,19.246 Z M50.208,16.936 C50.096,17.65 49.97,18.392 49.886,18.896 L50.754,19.064 C50.936,18.322 51.188,17.118 51.37,16.096 L50.656,15.928 L50.488,15.97 L44.818,15.97 C45.098,15.2 45.35,14.388 45.56,13.576 L44.538,13.352 C44.076,15.396 43.264,17.398 42.242,18.686 C42.466,18.84 42.9,19.19 43.068,19.344 C43.572,18.686 44.034,17.86 44.426,16.936 L46.554,16.936 L46.554,24.804 C46.554,24.986 46.498,25.042 46.316,25.042 C46.134,25.042 45.532,25.056 44.874,25.028 C45.014,25.322 45.182,25.784 45.238,26.078 C46.12,26.078 46.708,26.05 47.086,25.868 C47.45,25.7 47.576,25.392 47.576,24.804 L47.576,16.936 L50.208,16.936 Z M48.598,19.442 C49.34,20.912 50.04,22.872 50.264,24.146 L51.258,23.81 C51.02,22.536 50.306,20.618 49.508,19.134 L48.598,19.442 Z M56.816,17.118 C56.634,18.952 56.27,20.492 55.738,21.752 C55.206,21.374 54.646,21.024 54.114,20.716 C54.394,19.61 54.688,18.364 54.968,17.118 L56.816,17.118 Z M57.25,16.124 L57.068,16.166 L55.178,16.166 C55.388,15.2 55.584,14.262 55.752,13.408 L54.758,13.296 C54.604,14.164 54.408,15.158 54.184,16.166 L52.658,16.166 L52.658,17.118 L53.988,17.118 C53.596,18.868 53.176,20.59 52.84,21.794 L53.708,22.242 L53.862,21.654 C54.352,21.962 54.842,22.298 55.304,22.648 C54.646,23.852 53.792,24.72 52.77,25.252 C52.994,25.462 53.274,25.84 53.414,26.092 C54.506,25.434 55.402,24.524 56.102,23.278 C56.69,23.768 57.194,24.258 57.53,24.678 L58.16,23.852 C57.782,23.39 57.222,22.872 56.564,22.368 C57.25,20.8 57.684,18.798 57.866,16.264 L57.25,16.124 Z M65.44,18.896 L62.108,18.896 L62.108,17.65 C63.172,16.824 64.362,15.564 65.146,14.444 L64.46,13.94 L64.25,14.01 L58.258,14.01 L58.258,14.962 L63.494,14.962 C62.934,15.676 62.192,16.474 61.492,17.034 L61.072,17.034 L61.072,18.896 L57.796,18.896 L57.796,19.862 L61.072,19.862 L61.072,24.748 C61.072,24.958 61.002,25.028 60.764,25.042 C60.526,25.056 59.742,25.056 58.86,25.028 C59.014,25.294 59.196,25.756 59.252,26.036 C60.358,26.036 61.086,26.008 61.52,25.854 C61.968,25.686 62.108,25.378 62.108,24.748 L62.108,19.862 L65.44,19.862 L65.44,18.896 Z M72.538,21.612 L73.462,21.612 L73.742,16.18 L73.77,14.528 L72.23,14.528 L72.258,16.18 L72.538,21.612 Z M73,25.07 C73.49,25.07 73.896,24.706 73.896,24.146 C73.896,23.586 73.49,23.208 73,23.208 C72.51,23.208 72.104,23.586 72.104,24.146 C72.104,24.706 72.496,25.07 73,25.07 Z M82.31,15.9 L83.22,15.9 L83.22,15.032 L84.998,15.032 L84.998,15.9 L85.922,15.9 L85.922,15.032 L87.602,15.032 L87.602,14.248 L85.922,14.248 L85.922,13.296 L84.998,13.296 L84.998,14.248 L83.22,14.248 L83.22,13.296 L82.31,13.296 L82.31,14.248 L80.644,14.248 L80.644,15.032 L82.31,15.032 L82.31,15.9 Z M82.59,23.712 L84.214,23.712 L84.214,24.552 L82.59,24.552 L82.59,23.712 Z M84.214,21.514 L82.59,21.514 L82.59,20.688 L84.214,20.688 L84.214,21.514 Z M84.214,23.026 L82.59,23.026 L82.59,22.2 L84.214,22.2 L84.214,23.026 Z M81.82,16.866 L83.01,16.866 L83.01,18.084 L81.82,18.084 L81.82,16.866 Z M86.412,18.084 L85.124,18.084 L85.124,16.866 L86.412,16.866 L86.412,18.084 Z M90.682,16.74 L92.208,16.74 C92.11,17.608 91.984,18.546 91.816,19.176 L92.572,19.568 C92.866,18.644 93.132,17.202 93.286,15.984 L92.614,15.732 L92.446,15.788 L89.226,15.788 C89.408,15.032 89.534,14.234 89.646,13.422 L88.638,13.268 C88.386,15.284 87.952,17.272 87.196,18.63 L87.196,16.18 L84.382,16.18 L84.382,18.77 L87.112,18.77 L87,18.952 C87.252,19.078 87.686,19.386 87.868,19.554 C88.316,18.784 88.694,17.818 88.988,16.74 L89.688,16.74 L89.688,18.672 C89.702,19.666 89.408,22.76 87.294,24.72 L87.294,24.552 L85.11,24.552 L85.11,23.712 L86.902,23.712 L86.902,23.026 L85.11,23.026 L85.11,22.2 L86.902,22.2 L86.902,21.514 L85.11,21.514 L85.11,20.688 L87.266,20.688 L87.266,19.932 L85.124,19.932 C85.264,19.666 85.418,19.358 85.572,19.064 L84.634,18.826 C84.55,19.134 84.396,19.554 84.228,19.932 L82.814,19.932 C82.954,19.624 83.08,19.302 83.192,18.98 L82.366,18.77 L83.78,18.77 L83.78,16.18 L81.078,16.18 L81.078,18.77 L82.31,18.77 C81.89,20.03 81.19,21.262 80.392,22.102 C80.56,22.284 80.868,22.69 80.994,22.872 C81.246,22.606 81.484,22.298 81.708,21.962 L81.708,26.036 L82.59,26.036 L82.59,25.294 L86.72,25.294 C86.902,25.504 87.154,25.868 87.266,26.05 C89.338,24.566 90.052,21.962 90.178,20.828 C90.304,21.934 90.934,24.622 92.824,26.05 C92.978,25.812 93.272,25.392 93.468,25.182 C91.032,23.362 90.682,19.75 90.682,18.672 L90.682,16.74 Z M103.604,15.228 L105.858,15.228 L105.858,21.5 C105.858,21.668 105.802,21.724 105.634,21.724 C105.452,21.724 104.92,21.738 104.304,21.71 C104.43,21.948 104.57,22.354 104.626,22.606 C105.466,22.606 106.026,22.592 106.362,22.452 C106.726,22.284 106.824,22.004 106.824,21.514 L106.824,14.318 L102.666,14.318 L102.666,24.3 L103.604,24.3 L103.604,15.228 Z M98.27,22.802 C99.376,22.48 100.846,22.046 102.218,21.64 L102.092,20.744 C101.336,20.954 100.58,21.164 99.88,21.36 L99.88,15.242 C100.79,14.892 101.756,14.472 102.512,14.024 L101.742,13.254 C101.224,13.66 100.328,14.136 99.502,14.514 L98.914,14.346 L98.914,21.612 C98.578,21.71 98.27,21.78 98.004,21.85 L98.27,22.802 Z M97.696,15.928 C97.304,15.228 96.38,14.262 95.554,13.604 L94.756,14.136 C95.568,14.822 96.464,15.816 96.828,16.516 L97.696,15.928 Z M97.374,18.77 L94.686,18.77 L94.686,19.75 L96.408,19.75 L96.408,23.362 C95.792,23.95 95.106,24.538 94.518,24.972 L95.064,25.938 C95.736,25.322 96.366,24.734 96.954,24.118 C97.822,25.224 99.096,25.728 100.944,25.798 C102.526,25.854 105.55,25.826 107.132,25.756 C107.174,25.462 107.342,25 107.468,24.776 C105.76,24.888 102.498,24.93 100.916,24.86 C99.278,24.79 98.032,24.314 97.374,23.264 L97.374,18.77 Z M111.906,13.254 C111.094,15.368 109.736,17.454 108.322,18.784 C108.518,19.008 108.812,19.554 108.91,19.792 C109.428,19.274 109.96,18.658 110.45,17.972 L110.45,26.134 L111.444,26.134 L111.444,16.474 C111.99,15.536 112.494,14.542 112.886,13.562 L111.906,13.254 Z M113.88,20.114 L113.88,18.042 L116.372,18.042 L116.372,19.484 C116.372,19.694 116.372,19.904 116.358,20.114 L113.88,20.114 Z M119.97,18.042 L119.97,20.114 L117.38,20.114 C117.394,19.904 117.394,19.694 117.394,19.484 L117.394,18.042 L119.97,18.042 Z M120.964,20.996 L120.964,17.16 L117.394,17.16 L117.394,15.788 L121.426,15.788 L121.426,14.836 L117.394,14.836 L117.394,13.352 L116.372,13.352 L116.372,14.836 L112.508,14.836 L112.508,15.788 L116.372,15.788 L116.372,17.16 L112.914,17.16 L112.914,20.996 L116.302,20.996 C116.204,21.766 115.994,22.508 115.546,23.152 C114.804,22.634 114.202,22.018 113.782,21.29 L112.914,21.57 C113.432,22.466 114.118,23.222 114.944,23.838 C114.286,24.426 113.362,24.902 111.99,25.252 C112.214,25.462 112.508,25.896 112.62,26.12 C114.076,25.686 115.084,25.098 115.784,24.412 C117.212,25.266 118.962,25.812 120.936,26.106 C121.076,25.798 121.328,25.392 121.552,25.168 C119.564,24.93 117.8,24.454 116.4,23.684 C116.96,22.872 117.212,21.962 117.324,20.996 L120.964,20.996 Z M129.588,20.814 L129.588,18.49 L133.354,18.49 L133.354,20.814 L129.588,20.814 Z M125.15,20.814 C125.192,20.296 125.206,19.778 125.206,19.316 L125.206,18.49 L128.552,18.49 L128.552,20.814 L125.15,20.814 Z M128.552,15.27 L128.552,17.51 L125.206,17.51 L125.206,15.27 L128.552,15.27 Z M133.354,17.51 L129.588,17.51 L129.588,15.27 L133.354,15.27 L133.354,17.51 Z M134.376,14.276 L124.184,14.276 L124.184,19.316 C124.184,21.262 124.044,23.726 122.504,25.462 C122.728,25.588 123.148,25.938 123.302,26.148 C124.366,24.958 124.842,23.362 125.052,21.808 L128.552,21.808 L128.552,25.938 L129.588,25.938 L129.588,21.808 L133.354,21.808 L133.354,24.65 C133.354,24.916 133.256,25 132.976,25.014 C132.724,25.014 131.772,25.028 130.792,24.986 C130.932,25.266 131.1,25.714 131.142,25.994 C132.458,26.008 133.27,25.994 133.746,25.826 C134.194,25.644 134.376,25.336 134.376,24.664 L134.376,14.276 Z M139.668,17.524 C141.04,16.488 142.216,15.326 142.944,14.276 C143.756,15.368 145.016,16.53 146.388,17.524 L139.668,17.524 Z M143.476,21.234 L148.278,21.234 L148.278,20.324 L143.476,20.324 L143.476,18.448 L146.472,18.448 L146.472,17.58 C147.242,18.14 148.04,18.644 148.81,19.036 C148.978,18.728 149.23,18.378 149.482,18.112 C147.312,17.146 144.89,15.27 143.406,13.268 L142.37,13.268 C141.278,15.018 138.982,17.076 136.574,18.294 C136.798,18.504 137.092,18.868 137.204,19.106 C138.002,18.686 138.786,18.182 139.514,17.65 L139.514,18.448 L142.398,18.448 L142.398,20.324 L137.708,20.324 L137.708,21.234 L142.398,21.234 L142.398,24.692 L137.078,24.692 L137.078,25.616 L148.95,25.616 L148.95,24.692 L143.476,24.692 L143.476,21.234 Z M138.87,21.934 C139.416,22.732 139.962,23.81 140.144,24.51 L141.04,24.118 C140.844,23.418 140.284,22.382 139.71,21.612 L138.87,21.934 Z M145.408,24.51 C145.94,23.852 146.598,22.844 147.116,21.962 L146.136,21.584 C145.786,22.368 145.142,23.474 144.638,24.16 L145.408,24.51 Z M155.796,23.208 L155.796,22.48 L152.492,22.48 L152.492,23.208 L153.724,23.208 L153.724,25.672 L154.508,25.672 L154.508,23.208 L155.796,23.208 Z M155.46,21.276 C155.25,21.276 155.222,21.262 155.222,21.066 L155.222,19.988 L156.384,19.988 L156.384,21.192 C156.342,21.262 156.314,21.276 156.132,21.276 L155.46,21.276 Z M157.238,19.204 L151.05,19.204 L151.05,26.036 L151.862,26.036 L151.862,19.988 L153.01,19.988 L153.01,20.044 C153.01,20.618 152.898,21.43 151.876,21.934 C152.058,22.046 152.324,22.256 152.45,22.424 C153.542,21.766 153.682,20.828 153.682,20.072 L153.682,19.988 L154.55,19.988 L154.55,21.08 C154.55,21.78 154.704,21.92 155.39,21.92 L156.258,21.92 L156.384,21.92 L156.384,25.056 C156.384,25.196 156.342,25.238 156.188,25.238 C156.048,25.252 155.586,25.252 155.04,25.238 C155.152,25.462 155.278,25.812 155.292,26.036 C156.048,26.036 156.538,26.022 156.846,25.896 C157.168,25.742 157.238,25.504 157.238,25.07 L157.238,19.204 Z M155.754,17.678 L152.534,17.678 L152.534,16.32 L155.754,16.32 L155.754,17.678 Z M156.692,15.592 L151.624,15.592 L151.624,18.392 L156.692,18.392 L156.692,15.592 Z M150.882,14.794 L157.434,14.794 L157.434,13.912 L150.882,13.912 L150.882,14.794 Z M158.708,16.964 L159.926,16.964 L159.926,20.408 L158.708,20.408 L158.708,16.964 Z M162.026,20.408 L160.738,20.408 L160.738,16.964 L162.026,16.964 L162.026,20.408 Z M163.468,25.84 C163.342,24.846 162.81,23.264 162.208,22.06 L161.41,22.284 C161.676,22.844 161.928,23.488 162.124,24.118 L160.78,24.328 L160.78,21.304 L162.908,21.304 L162.908,16.054 L160.78,16.054 L160.78,13.394 L159.87,13.394 L159.87,16.054 L157.868,16.054 L157.868,21.304 L159.87,21.304 L159.87,24.468 C158.974,24.608 158.148,24.734 157.49,24.832 L157.756,25.826 C159.044,25.602 160.738,25.294 162.376,24.986 C162.488,25.392 162.558,25.77 162.6,26.078 L163.468,25.84 Z M166.058,16.474 L170.454,16.474 L170.454,19.96 L171.448,19.96 L171.448,16.474 L175.928,16.474 L175.928,18.658 L176.894,18.658 L176.894,15.662 L171.448,15.662 L171.448,14.668 L176.11,14.668 L176.11,13.828 L165.876,13.828 L165.876,14.668 L170.454,14.668 L170.454,15.662 L165.12,15.662 L165.12,18.658 L166.058,18.658 L166.058,16.474 Z M166.492,19.652 L169.712,19.652 L169.712,18.924 L166.492,18.924 L166.492,19.652 Z M169.712,17.342 L166.772,17.342 L166.772,18.056 L169.712,18.056 L169.712,17.342 Z M166.38,21.346 L175.578,21.346 L175.578,20.548 L166.38,20.548 L166.38,21.346 Z M172.19,19.652 L175.55,19.652 L175.55,18.924 L172.19,18.924 L172.19,19.652 Z M172.19,17.342 L172.19,18.056 L175.186,18.056 L175.186,17.342 L172.19,17.342 Z M177.216,22.354 L164.798,22.354 L164.798,23.18 L168.284,23.18 C167.99,23.712 167.64,24.3 167.29,24.79 L165.568,24.818 L165.652,25.742 C167.976,25.686 171.532,25.56 174.906,25.448 C175.214,25.7 175.466,25.952 175.662,26.176 L176.586,25.686 C175.886,24.916 174.486,23.866 173.352,23.18 L172.47,23.614 C172.932,23.908 173.436,24.272 173.912,24.636 C171.994,24.678 170.09,24.72 168.424,24.762 C168.802,24.286 169.208,23.726 169.558,23.18 L177.216,23.18 L177.216,22.354 Z M185.28,25 L178.672,25 L178.672,23.978 L181.29,21.332 C181.794,20.828 182.219,20.38 182.564,19.988 C182.909,19.596 183.171,19.2133 183.348,18.84 C183.525,18.4573 183.614,18.042 183.614,17.594 C183.614,17.0433 183.451,16.628 183.124,16.348 C182.797,16.0587 182.373,15.914 181.85,15.914 C181.365,15.914 180.935,15.998 180.562,16.166 C180.198,16.334 179.825,16.5673 179.442,16.866 L178.784,16.04 C179.176,15.7133 179.624,15.438 180.128,15.214 C180.641,14.9807 181.215,14.864 181.85,14.864 C182.783,14.864 183.521,15.102 184.062,15.578 C184.603,16.0447 184.874,16.6933 184.874,17.524 C184.874,18.0467 184.767,18.5367 184.552,18.994 C184.337,19.4513 184.039,19.904 183.656,20.352 C183.273,20.7907 182.825,21.262 182.312,21.766 L180.226,23.824 L180.226,23.88 L185.28,23.88 L185.28,25 Z M187.02,24.244 C187.02,23.8987 187.104,23.656 187.272,23.516 C187.44,23.376 187.64,23.306 187.874,23.306 C188.116,23.306 188.322,23.376 188.49,23.516 C188.667,23.656 188.756,23.8987 188.756,24.244 C188.756,24.58 188.667,24.8227 188.49,24.972 C188.322,25.1213 188.116,25.196 187.874,25.196 C187.64,25.196 187.44,25.1213 187.272,24.972 C187.104,24.8227 187.02,24.58 187.02,24.244 Z M197.08,19.988 C197.08,21.0613 196.968,21.9853 196.744,22.76 C196.52,23.5253 196.165,24.1133 195.68,24.524 C195.194,24.9347 194.55,25.14 193.748,25.14 C192.618,25.14 191.783,24.6873 191.242,23.782 C190.71,22.8673 190.444,21.6027 190.444,19.988 C190.444,18.9053 190.551,17.9813 190.766,17.216 C190.99,16.4507 191.344,15.8673 191.83,15.466 C192.315,15.0553 192.954,14.85 193.748,14.85 C194.868,14.85 195.703,15.3027 196.254,16.208 C196.804,17.104 197.08,18.364 197.08,19.988 Z M191.676,19.988 C191.676,21.36 191.83,22.3867 192.138,23.068 C192.455,23.7493 192.992,24.09 193.748,24.09 C194.494,24.09 195.026,23.754 195.344,23.082 C195.67,22.4007 195.834,21.3693 195.834,19.988 C195.834,18.6253 195.67,17.6033 195.344,16.922 C195.026,16.2407 194.494,15.9 193.748,15.9 C192.992,15.9 192.455,16.2407 192.138,16.922 C191.83,17.6033 191.676,18.6253 191.676,19.988 Z M205.246,19.778 L207.164,19.778 L206.828,20.072 C207.164,20.184 207.528,20.338 207.892,20.506 L205.246,20.548 L205.246,19.778 Z M200.934,19.078 L200.934,18.21 L204.238,18.21 L204.238,19.078 L200.934,19.078 Z M200.934,16.698 L204.238,16.698 L204.238,17.538 L200.934,17.538 L200.934,16.698 Z M208.648,16.698 L208.648,17.538 L205.246,17.538 L205.246,16.698 L208.648,16.698 Z M208.648,19.078 L205.246,19.078 L205.246,18.21 L208.648,18.21 L208.648,19.078 Z M211.084,22.102 L207.752,22.102 L207.752,21.206 L209.138,21.164 C209.446,21.36 209.726,21.556 209.936,21.724 L210.552,21.136 C209.992,20.702 208.998,20.156 208.046,19.778 L209.67,19.778 L209.67,15.984 L205.246,15.984 L205.246,15.2 L210.524,15.2 L210.524,14.36 L205.246,14.36 L205.246,13.31 L204.238,13.31 L204.238,14.36 L198.876,14.36 L198.876,15.2 L204.238,15.2 L204.238,15.984 L199.954,15.984 L199.954,19.778 L204.238,19.778 L204.238,20.548 C202.236,20.576 200.402,20.59 199.016,20.59 L199.058,21.402 C201.074,21.374 203.874,21.318 206.744,21.234 L206.744,22.102 L198.47,22.102 L198.47,22.956 L201.368,22.956 L200.682,23.544 C201.522,24.062 202.502,24.818 202.992,25.364 L203.734,24.678 C203.244,24.16 202.264,23.432 201.438,22.956 L206.744,22.956 L206.744,24.93 C206.744,25.112 206.674,25.168 206.464,25.182 C206.24,25.196 205.456,25.196 204.602,25.168 C204.742,25.42 204.896,25.798 204.938,26.064 C206.058,26.064 206.758,26.064 207.192,25.91 C207.64,25.77 207.752,25.49 207.752,24.958 L207.752,22.956 L211.084,22.956 L211.084,22.102 Z M220.856,16.656 C220.66,17.132 220.38,17.706 220.142,18.112 L220.282,18.154 L216.992,18.154 L217.44,18.056 C217.328,17.678 217.034,17.09 216.74,16.656 L220.856,16.656 Z M224.874,22.746 L224.874,21.864 L219.26,21.864 L219.26,20.828 L223.642,20.828 L223.642,20.03 L219.26,20.03 L219.26,19.008 L224.328,19.008 L224.328,18.154 L221.15,18.154 C221.43,17.734 221.738,17.188 222.018,16.656 L224.818,16.656 L224.818,15.76 L222.648,15.76 C223.04,15.228 223.488,14.458 223.88,13.744 L222.816,13.464 C222.564,14.094 222.116,15.004 221.752,15.592 L222.27,15.76 L220.576,15.76 L220.576,13.282 L219.596,13.282 L219.596,15.76 L217.93,15.76 L217.93,13.282 L216.964,13.282 L216.964,15.76 L215.242,15.76 L215.956,15.494 C215.746,14.934 215.242,14.066 214.766,13.436 L213.884,13.73 C214.304,14.36 214.794,15.2 214.99,15.76 L212.764,15.76 L212.764,16.656 L216.18,16.656 L215.69,16.754 C215.97,17.174 216.25,17.734 216.376,18.154 L213.324,18.154 L213.324,19.008 L218.238,19.008 L218.238,20.03 L214.024,20.03 L214.024,20.828 L218.238,20.828 L218.238,21.864 L212.708,21.864 L212.708,22.746 L217.286,22.746 C216.026,23.726 214.08,24.566 212.344,24.958 C212.568,25.182 212.876,25.574 213.016,25.84 C214.85,25.308 216.894,24.3 218.238,23.082 L218.238,26.064 L219.26,26.064 L219.26,23.012 C220.604,24.3 222.648,25.35 224.524,25.882 C224.664,25.588 224.986,25.182 225.224,24.958 C223.432,24.58 221.5,23.754 220.226,22.746 L224.874,22.746 Z M228.22,18.07 L231.916,18.07 L231.916,17.132 L230.698,17.132 L230.698,13.254 L229.746,13.254 L229.746,17.132 L228.22,17.132 L228.22,13.576 L227.282,13.576 L227.282,19.078 C227.282,21.192 227.156,23.698 226.19,25.462 C226.414,25.602 226.764,25.91 226.918,26.078 C227.772,24.664 228.08,22.844 228.178,21.024 L230.124,21.024 L230.124,26.05 L231.076,26.05 L231.076,20.086 L228.206,20.086 C228.22,19.75 228.22,19.414 228.22,19.078 L228.22,18.07 Z M237.642,18.462 C237.334,19.96 236.802,21.262 236.116,22.326 C235.444,21.22 234.954,19.918 234.618,18.462 L237.642,18.462 Z M238.132,17.482 L237.95,17.524 L233.54,17.524 L233.54,14.864 L238.888,14.864 L238.888,13.912 L232.56,13.912 L232.56,17.902 C232.56,20.142 232.462,23.292 231.244,25.546 C231.482,25.63 231.902,25.896 232.098,26.05 C233.26,23.894 233.512,20.786 233.54,18.462 L233.736,18.462 C234.128,20.268 234.702,21.878 235.514,23.18 C234.786,24.09 233.946,24.776 233.036,25.224 C233.26,25.42 233.554,25.812 233.694,26.064 C234.59,25.56 235.416,24.902 236.116,24.048 C236.802,24.902 237.628,25.588 238.608,26.078 C238.79,25.812 239.112,25.42 239.322,25.224 C238.3,24.776 237.446,24.09 236.746,23.222 C237.698,21.794 238.412,19.974 238.762,17.692 L238.132,17.482 Z M241.968,26.498 C243.438,25.98 244.39,24.832 244.39,23.32 C244.39,22.34 243.97,21.71 243.2,21.71 C242.626,21.71 242.136,22.06 242.136,22.718 C242.136,23.376 242.612,23.712 243.186,23.712 C243.27,23.712 243.34,23.712 243.424,23.698 C243.354,24.65 242.738,25.308 241.66,25.756 L241.968,26.498 Z M257.508,13.338 C256.724,15.466 255.422,17.552 254.05,18.896 C254.246,19.134 254.526,19.666 254.638,19.918 C255.114,19.4 255.604,18.826 256.052,18.182 L256.052,26.036 L257.046,26.036 L257.046,16.628 C257.592,15.676 258.082,14.668 258.488,13.632 L257.508,13.338 Z M260.056,19.246 C259.678,20.898 259.02,22.564 258.138,23.628 C258.39,23.768 258.838,24.034 259.034,24.202 C259.888,23.04 260.63,21.276 261.078,19.442 L260.056,19.246 Z M265.978,16.936 C265.866,17.65 265.74,18.392 265.656,18.896 L266.524,19.064 C266.706,18.322 266.958,17.118 267.14,16.096 L266.426,15.928 L266.258,15.97 L260.588,15.97 C260.868,15.2 261.12,14.388 261.33,13.576 L260.308,13.352 C259.846,15.396 259.034,17.398 258.012,18.686 C258.236,18.84 258.67,19.19 258.838,19.344 C259.342,18.686 259.804,17.86 260.196,16.936 L262.324,16.936 L262.324,24.804 C262.324,24.986 262.268,25.042 262.086,25.042 C261.904,25.042 261.302,25.056 260.644,25.028 C260.784,25.322 260.952,25.784 261.008,26.078 C261.89,26.078 262.478,26.05 262.856,25.868 C263.22,25.7 263.346,25.392 263.346,24.804 L263.346,16.936 L265.978,16.936 Z M264.368,19.442 C265.11,20.912 265.81,22.872 266.034,24.146 L267.028,23.81 C266.79,22.536 266.076,20.618 265.278,19.134 L264.368,19.442 Z M274.686,18.364 L274.686,21.556 L271.032,21.556 L271.032,18.364 L274.686,18.364 Z M275.708,22.55 L275.708,17.356 L270.024,17.356 L270.024,23.67 L271.032,23.67 L271.032,22.55 L275.708,22.55 Z M280.986,14.276 L268.596,14.276 L268.596,15.312 L278.2,15.312 L278.2,24.566 C278.2,24.86 278.102,24.958 277.794,24.972 C277.472,24.986 276.324,25 275.204,24.944 C275.372,25.238 275.582,25.756 275.652,26.05 C277.024,26.05 277.99,26.05 278.55,25.854 C279.082,25.7 279.264,25.322 279.264,24.58 L279.264,15.312 L280.986,15.312 L280.986,14.276 Z M290.03,18.364 C289.638,17.412 288.742,16.04 287.818,15.018 L286.894,15.48 C287.776,16.502 288.672,17.93 289.05,18.896 L290.03,18.364 Z M288.042,21.08 C287.118,21.472 286.18,21.878 285.284,22.256 L285.074,13.996 L284.01,14.038 L284.248,22.69 C283.52,22.998 282.862,23.264 282.316,23.474 L282.694,24.552 C284.234,23.88 286.348,22.956 288.28,22.074 L288.042,21.08 Z M295.308,25.224 C294.594,24.188 293.11,22.634 291.864,21.374 C292.844,19.498 293.376,17.118 293.712,14.122 L292.578,14.01 C291.962,20.058 290.478,23.446 285.676,25.21 C285.928,25.42 286.362,25.896 286.502,26.106 C288.686,25.196 290.212,23.978 291.304,22.326 C292.494,23.586 293.796,25.056 294.44,26.022 L295.308,25.224 Z M301.538,20.87 C301.258,20.492 300.054,18.952 299.62,18.462 L299.62,17.244 L301.454,17.244 L301.454,16.278 L299.62,16.278 L299.62,13.282 L298.626,13.282 L298.626,16.278 L296.54,16.278 L296.54,17.244 L298.5,17.244 C298.052,19.162 297.128,21.346 296.218,22.522 C296.386,22.76 296.638,23.18 296.75,23.46 C297.45,22.536 298.122,21.01 298.626,19.442 L298.626,26.05 L299.62,26.05 L299.62,19.68 C300.096,20.366 300.656,21.234 300.894,21.696 L301.538,20.87 Z M303.19,17.426 L307.278,17.426 L307.278,19.008 L303.19,19.008 L303.19,17.426 Z M307.278,14.948 L307.278,16.502 L303.19,16.502 L303.19,14.948 L307.278,14.948 Z M308.314,20.394 C307.796,20.926 306.928,21.64 306.2,22.172 C305.836,21.486 305.556,20.73 305.346,19.918 L308.286,19.918 L308.286,14.024 L302.21,14.024 L302.21,24.594 C301.79,24.678 301.412,24.748 301.076,24.804 L301.37,25.812 C302.644,25.532 304.352,25.182 305.948,24.804 L305.864,23.88 C304.954,24.062 304.03,24.244 303.19,24.412 L303.19,19.918 L304.422,19.918 C305.122,22.76 306.424,25.014 308.594,26.106 C308.734,25.826 309.056,25.434 309.28,25.224 C308.174,24.748 307.292,23.922 306.606,22.872 C307.376,22.382 308.286,21.738 309.028,21.15 L308.314,20.394 Z M314.432,19.162 C313.97,19.316 313.494,19.47 313.046,19.61 L313.046,17.048 L314.334,17.048 L314.334,16.096 L313.046,16.096 L313.046,13.296 L312.108,13.296 L312.108,16.096 L310.4,16.096 L310.4,17.048 L312.108,17.048 L312.108,19.904 C311.394,20.128 310.736,20.324 310.204,20.464 L310.47,21.472 C310.96,21.318 311.52,21.136 312.108,20.94 L312.108,24.888 C312.108,25.084 312.038,25.14 311.87,25.14 C311.702,25.14 311.156,25.14 310.554,25.126 C310.694,25.392 310.82,25.826 310.862,26.064 C311.73,26.078 312.262,26.036 312.584,25.896 C312.934,25.714 313.046,25.434 313.046,24.888 L313.046,20.632 C313.55,20.464 314.068,20.296 314.572,20.128 L314.432,19.162 Z M315.748,16.474 L321.922,16.474 C321.81,16.88 321.67,17.286 321.544,17.58 L322.342,17.748 C322.58,17.272 322.832,16.488 323.014,15.816 L322.384,15.662 L322.216,15.69 L318.996,15.69 L318.996,14.934 L322.286,14.934 L322.286,14.164 L318.996,14.164 L318.996,13.31 L318.002,13.31 L318.002,15.69 L314.852,15.69 L314.852,19.652 C314.852,21.458 314.712,23.838 313.466,25.518 C313.676,25.616 314.068,25.91 314.236,26.05 C315.566,24.272 315.748,21.612 315.748,19.652 L315.748,16.474 Z M321.404,19.246 C322.188,19.246 322.454,19.036 322.524,18.182 C322.3,18.126 321.964,18.028 321.782,17.916 C321.754,18.504 321.67,18.588 321.292,18.588 L319.388,18.588 C318.87,18.588 318.786,18.546 318.786,18.266 L318.786,17.93 L321.138,17.706 L321.054,17.062 L318.786,17.272 L318.786,16.516 L317.89,16.516 L317.89,17.356 L316.084,17.524 L316.154,18.182 L317.89,18.014 L317.89,18.266 C317.89,19.064 318.184,19.246 319.318,19.246 L321.404,19.246 Z M322.286,20.968 C321.95,21.29 321.418,21.724 320.928,22.088 C320.704,21.598 320.522,21.066 320.382,20.52 L322.986,20.52 L322.986,19.792 L316.154,19.792 L316.154,20.52 L318.786,20.52 C318.058,21.038 316.952,21.5 316,21.78 C316.098,21.906 316.28,22.172 316.35,22.326 C316.896,22.158 317.47,21.934 318.016,21.654 C318.17,21.766 318.31,21.892 318.436,22.018 C317.82,22.536 316.742,23.054 315.874,23.306 C316.028,23.446 316.21,23.726 316.294,23.88 C317.134,23.558 318.142,22.984 318.828,22.452 C318.954,22.62 319.052,22.788 319.136,22.956 C318.324,23.768 316.77,24.65 315.538,25.056 C315.706,25.21 315.888,25.49 315.986,25.672 C317.106,25.21 318.478,24.384 319.374,23.586 C319.556,24.3 319.444,24.916 319.164,25.168 C319.01,25.322 318.828,25.35 318.618,25.35 C318.408,25.35 318.114,25.336 317.792,25.294 C317.932,25.518 318.002,25.854 318.016,26.064 C318.296,26.092 318.548,26.092 318.772,26.092 C319.164,26.078 319.458,26.008 319.766,25.728 C320.55,25.056 320.536,22.732 318.66,21.318 C319.038,21.094 319.388,20.856 319.682,20.604 C320.172,22.76 321.166,24.58 322.748,25.434 C322.874,25.196 323.154,24.874 323.336,24.692 C322.454,24.3 321.754,23.572 321.222,22.676 C321.768,22.34 322.398,21.892 322.902,21.444 L322.286,20.968 Z M327.13,24.328 L327.13,22.256 L334.592,22.256 L334.592,24.328 L327.13,24.328 Z M334.592,19.246 L334.592,21.276 L327.13,21.276 L327.13,19.246 L334.592,19.246 Z M334.592,16.18 L334.592,18.266 L327.13,18.266 L327.13,16.18 L334.592,16.18 Z M330.644,15.186 C330.882,14.654 331.134,14.024 331.344,13.422 L330.154,13.268 C330.042,13.814 329.818,14.57 329.608,15.186 L326.094,15.186 L326.094,26.092 L327.13,26.092 L327.13,25.308 L334.592,25.308 L334.592,26.022 L335.67,26.022 L335.67,15.186 L330.644,15.186 Z M341.788,19.75 L347.542,19.75 L347.542,20.45 C347.374,20.604 347.206,20.744 347.038,20.884 C345.232,21.01 343.412,21.122 341.788,21.22 L341.788,19.75 Z M347.542,15.592 L347.542,16.88 L341.788,16.88 L341.788,15.592 L347.542,15.592 Z M347.542,18.966 L341.788,18.966 L341.788,17.678 L347.542,17.678 L347.542,18.966 Z M349.908,17.748 C349.516,18.336 349.082,18.896 348.592,19.428 L348.592,14.668 L344.756,14.668 C344.994,14.29 345.232,13.856 345.428,13.45 L344.182,13.254 C344.056,13.66 343.846,14.192 343.608,14.668 L340.752,14.668 L340.752,21.276 C339.94,21.318 339.212,21.36 338.582,21.388 L338.736,22.424 C340.584,22.298 343.104,22.102 345.666,21.892 C343.58,23.278 341.116,24.314 338.456,25.014 C338.666,25.224 339.002,25.714 339.142,25.952 C342.264,25.028 345.162,23.684 347.542,21.822 L347.542,24.608 C347.542,24.902 347.444,25 347.15,25 C346.842,25.014 345.792,25.028 344.686,24.972 C344.854,25.28 345.022,25.77 345.078,26.064 C346.492,26.078 347.402,26.064 347.92,25.896 C348.438,25.7 348.592,25.35 348.592,24.622 L348.592,20.926 C349.46,20.128 350.23,19.246 350.902,18.266 L349.908,17.748 Z M353.828,16.264 L358.238,16.264 L358.238,19.554 L359.218,19.554 L359.218,16.264 L363.698,16.264 L363.698,18.154 L364.664,18.154 L364.664,15.494 L359.218,15.494 L359.218,14.682 L363.852,14.682 L363.852,13.842 L353.688,13.842 L353.688,14.682 L358.238,14.682 L358.238,15.494 L352.89,15.494 L352.89,18.154 L353.828,18.154 L353.828,16.264 Z M359.946,19.176 L363.362,19.176 L363.362,18.476 L359.946,18.476 L359.946,19.176 Z M359.946,17.02 L359.946,17.706 L363.026,17.706 L363.026,17.02 L359.946,17.02 Z M357.51,17.02 L354.514,17.02 L354.514,17.706 L357.51,17.706 L357.51,17.02 Z M354.22,19.176 L357.51,19.176 L357.51,18.476 L354.22,18.476 L354.22,19.176 Z M364.86,20.856 L364.86,20.002 L352.722,20.002 L352.722,20.856 L358.126,20.856 C358.042,21.178 357.944,21.528 357.846,21.85 L353.8,21.85 L353.8,26.036 L354.794,26.036 L354.794,22.704 L356.866,22.704 L356.866,25.952 L357.804,25.952 L357.804,22.704 L359.932,22.704 L359.932,25.952 L360.884,25.952 L360.884,22.704 L363.082,22.704 L363.082,25.028 C363.082,25.154 363.04,25.196 362.886,25.21 C362.718,25.224 362.256,25.224 361.696,25.21 C361.822,25.448 361.962,25.812 362.018,26.064 C362.774,26.064 363.292,26.064 363.642,25.91 C363.992,25.756 364.076,25.504 364.076,25.042 L364.076,21.85 L358.826,21.85 C358.938,21.542 359.078,21.206 359.19,20.856 L364.86,20.856 Z M371.048,21.192 C369.34,22.172 367.534,23.18 366.344,23.796 L366.974,24.72 C368.22,24.02 369.872,23.04 371.37,22.116 L371.048,21.192 Z M370.544,19.988 C370.124,19.246 369.116,18.196 368.276,17.454 L367.478,17.986 C368.332,18.756 369.298,19.848 369.704,20.59 L370.544,19.988 Z M374.59,13.996 C375.472,14.458 376.578,15.158 377.138,15.634 L377.796,14.906 C377.208,14.43 376.074,13.772 375.206,13.338 L374.59,13.996 Z M377.362,17.202 C376.718,18.084 375.668,19.204 374.786,20.002 C374.156,19.008 373.652,17.916 373.274,16.768 L373.274,16.628 L378.874,16.628 L378.874,15.634 L373.274,15.634 L373.274,13.324 L372.224,13.324 L372.224,15.634 L366.722,15.634 L366.722,16.628 L372.224,16.628 L372.224,24.65 C372.224,24.93 372.126,25 371.86,25.014 C371.594,25.028 370.684,25.028 369.718,25 C369.872,25.308 370.04,25.798 370.096,26.092 C371.328,26.092 372.154,26.064 372.616,25.896 C373.092,25.714 373.274,25.392 373.274,24.65 L373.274,19.134 C374.478,21.752 376.228,23.922 378.524,25.042 C378.678,24.748 379.028,24.356 379.28,24.132 C377.712,23.46 376.368,22.27 375.304,20.786 C376.242,19.988 377.39,18.84 378.258,17.832 L377.362,17.202 Z M383.662,16.754 L383.662,17.692 L386.462,17.692 C385.706,18.924 384.628,19.862 383.242,20.506 C383.466,20.702 383.816,21.122 383.942,21.332 C385.552,20.492 386.77,19.302 387.61,17.692 L389.164,17.692 C389.934,19.134 391.25,20.464 392.608,21.136 C392.776,20.884 393.098,20.506 393.322,20.324 C392.118,19.82 390.956,18.812 390.228,17.692 L392.972,17.692 L392.972,16.754 L388.044,16.754 C388.268,16.194 388.45,15.606 388.604,14.962 C389.99,14.78 391.292,14.542 392.3,14.22 L391.488,13.422 C389.85,13.954 386.742,14.276 384.138,14.43 C384.264,14.668 384.376,15.06 384.418,15.312 C385.412,15.256 386.462,15.186 387.512,15.074 C387.358,15.676 387.176,16.236 386.952,16.754 L383.662,16.754 Z M383.858,14.864 C383.382,14.374 382.402,13.786 381.618,13.422 L381.016,14.164 C381.814,14.556 382.78,15.2 383.242,15.676 L383.858,14.864 Z M383.27,18.476 C382.766,18.042 381.758,17.496 380.932,17.16 L380.344,17.916 C381.184,18.294 382.192,18.882 382.682,19.33 L383.27,18.476 Z M381.59,25.896 C382.206,24.65 382.892,23.026 383.41,21.64 L382.584,21.066 C382.01,22.55 381.212,24.272 380.652,25.294 L381.59,25.896 Z M385.37,20.968 C385.076,22.06 384.502,23.292 383.634,24.006 L384.39,24.594 C385.342,23.782 385.874,22.438 386.224,21.248 L385.37,20.968 Z M387.106,24.916 C387.106,25.084 387.078,25.126 386.882,25.14 C386.686,25.154 386.084,25.154 385.384,25.126 C385.51,25.406 385.65,25.784 385.692,26.05 C386.63,26.05 387.232,26.05 387.596,25.896 C387.974,25.742 388.072,25.448 388.072,24.93 L388.072,19.512 L387.106,19.512 L387.106,24.916 Z M388.688,21.5 C389.136,22.438 389.514,23.67 389.64,24.496 L390.48,24.174 C390.354,23.362 389.948,22.144 389.486,21.206 L388.688,21.5 Z M390.424,21.164 C391.236,22.228 392.09,23.684 392.426,24.636 L393.294,24.188 C392.944,23.222 392.09,21.808 391.222,20.772 L390.424,21.164 Z M400.63,15.914 L397.536,15.914 C397.55,15.116 397.564,14.304 397.564,13.478 L396.542,13.478 C396.542,14.304 396.542,15.116 396.528,15.914 L394.568,15.914 L394.568,16.936 L396.5,16.936 C396.388,20.436 395.968,23.53 394.232,25.364 C394.484,25.518 394.862,25.854 395.016,26.078 C396.906,24.034 397.382,20.688 397.508,16.936 L399.622,16.936 C399.524,22.298 399.398,24.202 399.076,24.594 C398.978,24.79 398.838,24.832 398.614,24.818 C398.362,24.818 397.76,24.818 397.116,24.762 C397.298,25.056 397.396,25.504 397.424,25.812 C398.04,25.854 398.684,25.854 399.062,25.798 C399.482,25.756 399.734,25.63 399.986,25.266 C400.42,24.664 400.518,22.634 400.63,16.446 L400.63,15.914 Z M402.758,23.838 L402.758,16.026 L405.474,16.026 L405.474,23.838 L402.758,23.838 Z M401.778,15.018 L401.778,25.854 L402.758,25.854 L402.758,24.832 L405.474,24.832 L405.474,25.756 L406.51,25.756 L406.51,15.018 L401.778,15.018 Z M416.856,16.656 C416.66,17.132 416.38,17.706 416.142,18.112 L416.282,18.154 L412.992,18.154 L413.44,18.056 C413.328,17.678 413.034,17.09 412.74,16.656 L416.856,16.656 Z M420.874,22.746 L420.874,21.864 L415.26,21.864 L415.26,20.828 L419.642,20.828 L419.642,20.03 L415.26,20.03 L415.26,19.008 L420.328,19.008 L420.328,18.154 L417.15,18.154 C417.43,17.734 417.738,17.188 418.018,16.656 L420.818,16.656 L420.818,15.76 L418.648,15.76 C419.04,15.228 419.488,14.458 419.88,13.744 L418.816,13.464 C418.564,14.094 418.116,15.004 417.752,15.592 L418.27,15.76 L416.576,15.76 L416.576,13.282 L415.596,13.282 L415.596,15.76 L413.93,15.76 L413.93,13.282 L412.964,13.282 L412.964,15.76 L411.242,15.76 L411.956,15.494 C411.746,14.934 411.242,14.066 410.766,13.436 L409.884,13.73 C410.304,14.36 410.794,15.2 410.99,15.76 L408.764,15.76 L408.764,16.656 L412.18,16.656 L411.69,16.754 C411.97,17.174 412.25,17.734 412.376,18.154 L409.324,18.154 L409.324,19.008 L414.238,19.008 L414.238,20.03 L410.024,20.03 L410.024,20.828 L414.238,20.828 L414.238,21.864 L408.708,21.864 L408.708,22.746 L413.286,22.746 C412.026,23.726 410.08,24.566 408.344,24.958 C408.568,25.182 408.876,25.574 409.016,25.84 C410.85,25.308 412.894,24.3 414.238,23.082 L414.238,26.064 L415.26,26.064 L415.26,23.012 C416.604,24.3 418.648,25.35 420.524,25.882 C420.664,25.588 420.986,25.182 421.224,24.958 C419.432,24.58 417.5,23.754 416.226,22.746 L420.874,22.746 Z M432.802,15.634 C432.48,16.348 432.018,16.936 431.444,17.44 C430.786,16.922 430.24,16.306 429.862,15.634 L432.802,15.634 Z M427.202,21.71 C427.51,21.136 427.79,20.338 428.028,19.526 C428.182,19.722 428.336,19.932 428.406,20.072 C429.54,19.722 430.576,19.26 431.458,18.644 C432.382,19.302 433.46,19.806 434.636,20.128 C434.776,19.848 435.084,19.456 435.294,19.232 C434.174,18.994 433.138,18.574 432.256,18.014 C432.97,17.37 433.544,16.586 433.936,15.634 L435.014,15.634 L435.014,14.752 L430.366,14.752 C430.604,14.36 430.828,13.954 431.01,13.548 L430.016,13.282 C429.456,14.612 428.448,15.886 427.356,16.698 C427.608,16.838 428.014,17.132 428.21,17.3 C428.546,17.02 428.882,16.67 429.218,16.306 C429.61,16.936 430.1,17.51 430.66,18.014 C429.946,18.476 429.092,18.826 428.154,19.092 C428.224,18.84 428.294,18.588 428.364,18.35 L427.734,18.126 L427.58,18.182 L426.544,18.182 L427.076,17.58 C426.782,17.314 426.362,17.02 425.9,16.74 C426.74,16.096 427.636,15.2 428.182,14.36 L427.51,13.94 L427.328,13.982 L422.624,13.982 L422.624,14.892 L426.586,14.892 C426.166,15.382 425.634,15.886 425.116,16.278 C424.668,16.04 424.192,15.816 423.758,15.634 L423.114,16.306 C424.206,16.782 425.494,17.566 426.222,18.182 L422.47,18.182 L422.47,19.092 L424.584,19.092 C424.066,20.52 423.198,22.018 422.33,22.844 C422.512,23.11 422.764,23.516 422.876,23.81 C423.646,23.026 424.374,21.71 424.92,20.366 L424.92,24.86 C424.92,25.014 424.864,25.056 424.696,25.07 C424.514,25.07 423.968,25.07 423.366,25.056 C423.506,25.322 423.646,25.756 423.688,26.008 C424.528,26.008 425.074,25.994 425.438,25.854 C425.788,25.672 425.9,25.392 425.9,24.86 L425.9,19.092 L427.244,19.092 C427.034,19.904 426.754,20.772 426.488,21.346 L427.202,21.71 Z M431.43,21.094 C431.514,20.646 431.584,20.184 431.626,19.708 L430.576,19.708 C430.534,20.184 430.478,20.646 430.394,21.094 L427.986,21.094 L427.986,21.962 L430.17,21.962 C429.736,23.39 428.854,24.566 426.922,25.266 C427.132,25.448 427.412,25.826 427.538,26.064 C429.778,25.196 430.758,23.74 431.248,21.962 L433.6,21.962 C433.39,23.88 433.18,24.664 432.914,24.93 C432.774,25.056 432.662,25.07 432.438,25.07 C432.214,25.07 431.654,25.056 431.052,25 C431.206,25.266 431.304,25.686 431.332,25.966 C431.962,26.008 432.55,25.994 432.886,25.98 C433.25,25.938 433.516,25.868 433.754,25.616 C434.16,25.21 434.426,24.146 434.678,21.542 C434.692,21.374 434.706,21.094 434.706,21.094 L431.43,21.094 Z M442.868,16.376 L443.862,16.376 L443.862,15.326 L445.99,15.326 L445.99,16.39 L446.998,16.39 L446.998,15.326 L448.944,15.326 L448.944,14.444 L446.998,14.444 L446.998,13.296 L445.99,13.296 L445.99,14.444 L443.862,14.444 L443.862,13.296 L442.868,13.296 L442.868,14.444 L440.838,14.444 L440.838,15.326 L442.868,15.326 L442.868,16.376 Z M440.908,20.226 C440.656,19.792 439.606,18.028 439.242,17.496 L439.242,16.95 L440.684,16.95 L440.684,15.97 L439.242,15.97 L439.242,13.282 L438.248,13.282 L438.248,15.97 L436.526,15.97 L436.526,16.95 L438.248,16.95 C437.87,18.84 437.072,21.066 436.26,22.228 C436.442,22.48 436.694,22.928 436.806,23.236 C437.324,22.41 437.842,21.136 438.248,19.778 L438.248,26.064 L439.242,26.064 L439.242,18.896 C439.62,19.624 440.054,20.52 440.25,20.996 L440.908,20.226 Z M442.378,19.162 L447.222,19.162 L447.222,20.156 L442.378,20.156 L442.378,19.162 Z M442.378,17.426 L447.222,17.426 L447.222,18.42 L442.378,18.42 L442.378,17.426 Z M448.93,22.984 L448.93,22.102 L445.08,22.102 C445.15,21.738 445.22,21.346 445.262,20.94 L448.216,20.94 L448.216,16.642 L441.412,16.642 L441.412,20.94 L444.24,20.94 C444.184,21.346 444.128,21.752 444.044,22.102 L440.53,22.102 L440.53,22.984 L443.736,22.984 C443.204,24.048 442.21,24.79 440.166,25.252 C440.348,25.448 440.614,25.84 440.698,26.064 C443.134,25.476 444.254,24.496 444.814,23.012 C445.514,24.538 446.802,25.574 448.594,26.064 C448.734,25.798 449.028,25.406 449.252,25.21 C447.67,24.874 446.48,24.104 445.794,22.984 L448.93,22.984 Z M460.536,20.618 C460.452,21.234 460.228,22.144 460.032,22.802 L459.598,22.844 L459.78,23.628 C460.522,23.516 461.376,23.39 462.286,23.25 C462.356,23.418 462.398,23.572 462.44,23.712 L463.084,23.418 C462.944,22.9 462.566,22.06 462.174,21.43 L461.572,21.668 C461.726,21.948 461.894,22.27 462.034,22.592 L460.746,22.732 C460.942,22.144 461.166,21.402 461.334,20.744 L460.536,20.618 Z M454.768,20.716 L453.186,21.332 L453.186,17.384 L454.642,17.384 L454.642,16.39 L453.186,16.39 L453.186,13.338 L452.22,13.338 L452.22,16.39 L450.554,16.39 L450.554,17.384 L452.22,17.384 L452.22,21.71 C451.492,21.99 450.834,22.242 450.288,22.424 L450.652,23.46 C451.87,22.97 453.48,22.312 454.978,21.682 L454.768,20.716 Z M456.014,17.972 L458.24,17.972 L458.24,19.54 L456.014,19.54 L456.014,17.972 Z M456.014,15.606 L458.24,15.606 L458.24,17.132 L456.014,17.132 L456.014,15.606 Z M461.53,17.132 L459.192,17.132 L459.192,15.606 L461.53,15.606 L461.53,17.132 Z M461.53,19.54 L459.192,19.54 L459.192,17.972 L461.53,17.972 L461.53,19.54 Z M460.06,24.958 C459.556,24.958 459.472,24.888 459.472,24.524 L459.472,20.422 L462.552,20.422 L462.552,14.724 L458.758,14.724 C458.982,14.332 459.22,13.87 459.43,13.408 L458.24,13.268 C458.128,13.688 457.904,14.248 457.708,14.724 L455.048,14.724 L455.048,20.422 L456.462,20.422 C456.322,22.998 455.888,24.468 453.312,25.252 C453.536,25.448 453.802,25.868 453.928,26.12 C456.742,25.154 457.316,23.39 457.484,20.422 L458.492,20.422 L458.492,24.538 C458.492,25.588 458.786,25.882 459.962,25.882 L461.922,25.882 C462.832,25.882 463.126,25.532 463.238,24.23 C462.958,24.16 462.552,24.006 462.342,23.866 C462.3,24.804 462.23,24.958 461.838,24.958 L460.06,24.958 Z M466.486,21.584 C465.324,21.584 464.358,22.536 464.358,23.712 C464.358,24.902 465.324,25.854 466.486,25.854 C467.676,25.854 468.628,24.902 468.628,23.712 C468.628,22.536 467.676,21.584 466.486,21.584 Z M466.486,25.14 C465.716,25.14 465.072,24.51 465.072,23.712 C465.072,22.942 465.716,22.298 466.486,22.298 C467.284,22.298 467.914,22.942 467.914,23.712 C467.914,24.51 467.284,25.14 466.486,25.14 Z" id="Shape" fill="#545454" fill-rule="nonzero"></path>
                <path d="M19,27 C15.1336,27 12,23.8664 12,20 C12,16.1336 15.1336,13 19,13 C22.8664,13 26,16.1336 26,20 C26,23.8664 22.8664,27 19,27 Z" id="Path" fill="#7F7F7F"></path>
                <path d="M19,17 C19.5523,17 20,16.5523 20,16 C20,15.4477 19.5523,15 19,15 C18.4477,15 18,15.4477 18,16 C18,16.5523 18.4477,17 19,17 Z M17.95,18 C17.5358,18 17.2,18.3358 17.2,18.75 C17.2,19.1642 17.5358,19.5 17.95,19.5 L18.5,19.5 L18.5,23 L17.75,23 C17.3358,23 17,23.3358 17,23.75 C17,24.1642 17.3358,24.5 17.75,24.5 L20.75,24.5 C21.1642,24.5 21.5,24.1642 21.5,23.75 C21.5,23.3358 21.1642,23 20.75,23 L20,23 L20,18.75 C20,18.3358 19.6642,18 19.25,18 C19.2332,18 19.2165,18.0006 19.2,18.0016 L19.2,18 L17.95,18 Z" id="Shape" fill="#FFFFFF"></path>
            </g>
            <g id="Warning" transform="translate(0.000000, 60.000000)">
                <rect id="Rectangle" stroke="#FFE58F" fill="#FFFBE6" fill-rule="nonzero" x="0.5" y="0.5" width="549" height="39" rx="3.5"></rect>
                <path d="M41.752,22.326 C40.968,23.362 39.708,24.44 38.532,25.112 C38.812,25.28 39.26,25.63 39.47,25.84 C40.604,25.07 41.934,23.88 42.83,22.732 L41.752,22.326 Z M46.974,22.858 C48.192,23.74 49.69,25.014 50.404,25.812 L51.328,25.154 C50.558,24.356 49.018,23.124 47.828,22.27 L46.974,22.858 Z M39.806,17.286 C41.094,18.042 42.648,19.19 43.376,19.988 L44.146,19.232 C43.376,18.434 41.794,17.342 40.534,16.642 L39.806,17.286 Z M47.128,19.078 C48.36,20.1 49.83,21.556 50.488,22.508 L51.426,21.892 C50.698,20.926 49.2,19.512 47.968,18.532 L47.128,19.078 Z M44.412,21.038 L44.412,26.134 L45.518,26.134 L45.518,21.038 L44.412,21.038 Z M38.77,20.632 L38.882,21.682 C41.654,21.626 45.896,21.528 49.886,21.388 L49.942,20.45 C45.882,20.534 41.486,20.618 38.77,20.632 Z M47.338,15.55 C45.868,17.258 43.432,19.484 41.556,20.8 L42.368,21.332 C44.216,20.016 46.638,17.902 48.346,16.082 L47.338,15.55 Z M43.712,14.598 C43.068,15.536 41.948,16.81 41.108,17.566 L41.934,18.028 C42.788,17.286 43.894,16.124 44.72,15.116 L43.712,14.598 Z M49.55,13.45 C47.142,13.926 42.83,14.22 39.218,14.332 C39.316,14.584 39.442,15.004 39.47,15.27 C43.11,15.186 47.478,14.892 50.32,14.346 L49.55,13.45 Z M60.75,13.24 L60.75,15.508 L61.814,15.508 L61.814,13.24 L60.75,13.24 Z M59.952,15.718 C59.686,16.698 59.154,18.098 58.706,18.938 L59.588,19.232 C60.05,18.42 60.61,17.118 61.072,16.04 L59.952,15.718 Z M62.346,17.02 C63.214,18.042 64.152,19.428 64.558,20.31 L65.44,19.806 C65.02,18.924 64.04,17.566 63.158,16.586 L62.346,17.02 Z M57.558,15.102 L57.558,16.054 L65.216,16.054 L65.216,15.102 L57.558,15.102 Z M57.614,18.686 L57.712,19.666 C59.406,19.554 61.842,19.386 64.166,19.218 L64.18,18.294 C61.758,18.462 59.252,18.616 57.614,18.686 Z M62.024,20.17 L62.024,24.692 C62.024,25.728 62.262,26.036 63.214,26.036 C63.41,26.036 64.236,26.036 64.432,26.036 C65.272,26.036 65.524,25.56 65.608,23.726 C65.342,23.67 64.922,23.502 64.712,23.32 C64.67,24.86 64.614,25.084 64.334,25.084 C64.152,25.084 63.508,25.084 63.368,25.084 C63.074,25.084 63.018,25.042 63.018,24.692 L63.018,20.17 L62.024,20.17 Z M54.73,13.254 C54.366,14.178 53.722,15.522 53.19,16.32 L53.918,16.656 C54.464,15.886 55.122,14.64 55.654,13.618 L54.73,13.254 Z M56.298,14.85 C55.556,16.362 54.24,18.49 53.204,19.75 L53.848,20.114 C54.884,18.882 56.228,16.852 57.18,15.242 L56.298,14.85 Z M52.518,16.194 C53.274,16.866 54.156,17.846 54.534,18.504 L55.094,17.706 C54.716,17.076 53.834,16.166 53.05,15.508 L52.518,16.194 Z M55.808,18.098 C56.368,19.022 56.886,20.254 57.082,21.038 L57.866,20.674 C57.67,19.904 57.11,18.7 56.536,17.804 L55.808,18.098 Z M52.476,19.526 L52.56,20.478 C53.834,20.394 55.528,20.296 57.208,20.184 L57.222,19.316 C55.444,19.414 53.694,19.484 52.476,19.526 Z M56.172,21.402 C56.522,22.214 56.9,23.292 57.026,23.992 L57.838,23.712 C57.698,23.012 57.32,21.948 56.928,21.164 L56.172,21.402 Z M53.26,21.248 C53.092,22.48 52.812,23.726 52.35,24.58 C52.574,24.678 52.994,24.874 53.176,24.986 C53.624,24.09 53.974,22.732 54.17,21.416 L53.26,21.248 Z M54.772,19.918 L54.772,26.162 L55.71,26.162 L55.71,19.918 L54.772,19.918 Z M59.434,20.184 C59.322,22.9 58.986,24.524 56.746,25.406 C56.956,25.588 57.236,25.938 57.362,26.176 C59.854,25.14 60.316,23.25 60.442,20.184 L59.434,20.184 Z M71.236,20.352 L71.236,21.304 L79.398,21.304 L79.398,20.352 L71.236,20.352 Z M74.512,14.332 L74.036,15.116 L78.082,15.116 L78.306,14.332 L74.512,14.332 Z M76.612,18.532 L76.612,24.888 C76.612,25.084 76.542,25.126 76.332,25.14 C76.094,25.154 75.352,25.154 74.512,25.126 C74.652,25.42 74.792,25.854 74.834,26.134 C75.968,26.134 76.654,26.12 77.06,25.952 C77.494,25.784 77.62,25.476 77.62,24.888 L77.62,18.532 L76.612,18.532 Z M75.072,13.268 C74.246,14.514 72.664,15.788 70.928,16.544 C71.138,16.698 71.446,17.006 71.6,17.188 C73.364,16.334 75.058,15.004 76.08,13.562 L75.072,13.268 Z M72.202,22.298 C72.86,22.928 73.56,23.824 73.854,24.412 L74.722,23.866 C74.4,23.278 73.672,22.424 73.014,21.808 L72.202,22.298 Z M73.672,15.662 C74.54,16.166 75.534,16.95 75.996,17.496 L76.598,16.922 C76.122,16.376 75.1,15.634 74.232,15.158 L73.672,15.662 Z M72.034,16.726 C72.86,17.286 73.798,18.112 74.232,18.7 L74.89,18.168 C74.442,17.58 73.49,16.782 72.65,16.25 L72.034,16.726 Z M66.56,20.282 L66.56,21.206 L70.242,21.206 L70.242,20.282 L66.56,20.282 Z M69.794,13.254 L69.794,26.12 L70.774,26.12 L70.774,13.254 L69.794,13.254 Z M67.33,20.632 L67.33,21.514 C67.33,22.606 67.204,24.356 66.434,25.644 C66.686,25.742 67.064,25.98 67.246,26.148 C68.114,24.748 68.254,22.76 68.254,21.542 L68.254,20.632 L67.33,20.632 Z M77.928,14.332 L77.928,14.5 C76.878,17.076 74.036,18.742 71.278,19.4 C71.46,19.582 71.698,19.932 71.796,20.17 C74.764,19.372 77.704,17.65 78.95,14.612 L78.306,14.29 L78.124,14.332 L77.928,14.332 Z M67.162,13.87 L67.162,18.21 L70.382,18.21 L70.382,17.258 L68.1,17.258 L68.1,13.87 L67.162,13.87 Z M80.616,15.536 L80.616,16.516 L86.58,16.516 L86.58,15.536 L80.616,15.536 Z M82.688,18.448 L82.688,19.414 L85.222,19.414 L85.222,18.448 L82.688,18.448 Z M83.094,13.268 L83.094,15.886 L84.13,15.886 L84.13,13.268 L83.094,13.268 Z M89.73,14.458 C90.388,16.236 91.62,18.168 93.034,19.316 C93.174,18.994 93.398,18.574 93.594,18.294 C92.25,17.328 90.962,15.312 90.234,13.254 L89.156,13.254 C88.61,15.158 87.392,17.272 85.992,18.378 C86.174,18.63 86.412,19.05 86.524,19.33 C87.952,18.168 89.156,16.166 89.73,14.458 Z M82.142,16.11 C82.114,19.862 82.002,23.46 80.406,25.434 C80.672,25.616 81.036,25.938 81.204,26.176 C82.94,23.978 83.108,20.17 83.178,16.11 L82.142,16.11 Z M84.9,18.448 L84.9,18.658 C84.816,23.124 84.704,24.664 84.452,25 C84.34,25.154 84.228,25.196 84.018,25.182 C83.794,25.182 83.276,25.182 82.688,25.14 C82.856,25.406 82.954,25.812 82.982,26.092 C83.57,26.134 84.158,26.134 84.494,26.106 C84.872,26.05 85.11,25.952 85.334,25.644 C85.698,25.154 85.782,23.586 85.88,18.938 C85.894,18.784 85.894,18.448 85.894,18.448 L84.9,18.448 Z M88.218,19.302 C89.17,19.918 90.276,20.828 90.794,21.486 L91.522,20.744 C90.99,20.1 89.856,19.232 88.904,18.644 L88.218,19.302 Z M87.084,23.096 C88.792,23.894 90.836,25.182 91.83,26.134 L92.502,25.21 C91.494,24.272 89.408,23.04 87.714,22.298 L87.084,23.096 Z M102.607,25 L101.403,25 L101.403,18.014 C101.403,17.7433 101.403,17.5147 101.403,17.328 C101.412,17.1413 101.421,16.9687 101.431,16.81 C101.44,16.642 101.449,16.4693 101.459,16.292 C101.309,16.4413 101.174,16.5673 101.053,16.67 C100.931,16.7727 100.777,16.9033 100.591,17.062 L99.5267,17.93 L98.8827,17.104 L101.585,15.004 L102.607,15.004 L102.607,25 Z M109.498,18.868 C110.18,18.868 110.772,18.9847 111.276,19.218 C111.78,19.4513 112.168,19.7873 112.438,20.226 C112.718,20.6553 112.858,21.1827 112.858,21.808 C112.858,22.4987 112.709,23.096 112.41,23.6 C112.112,24.0947 111.682,24.4773 111.122,24.748 C110.572,25.0093 109.904,25.14 109.12,25.14 C108.607,25.14 108.122,25.0933 107.664,25 C107.216,24.9067 106.838,24.7713 106.53,24.594 L106.53,23.432 C106.866,23.6373 107.272,23.8007 107.748,23.922 C108.234,24.034 108.696,24.09 109.134,24.09 C109.629,24.09 110.058,24.0153 110.422,23.866 C110.796,23.7073 111.085,23.4693 111.29,23.152 C111.496,22.8253 111.598,22.4193 111.598,21.934 C111.598,21.2807 111.398,20.7813 110.996,20.436 C110.595,20.0813 109.96,19.904 109.092,19.904 C108.831,19.904 108.532,19.9273 108.196,19.974 C107.86,20.0207 107.59,20.0673 107.384,20.114 L106.768,19.722 L107.146,15.004 L112.158,15.004 L112.158,16.124 L108.196,16.124 L107.958,19.022 C108.117,18.994 108.332,18.9613 108.602,18.924 C108.873,18.8867 109.172,18.868 109.498,18.868 Z M120.66,17.398 C121.22,17.398 121.71,16.978 121.71,16.348 C121.71,15.704 121.22,15.284 120.66,15.284 C120.086,15.284 119.596,15.704 119.596,16.348 C119.596,16.978 120.086,17.398 120.66,17.398 Z M120.66,24.244 C121.22,24.244 121.71,23.838 121.71,23.194 C121.71,22.55 121.22,22.144 120.66,22.144 C120.086,22.144 119.596,22.55 119.596,23.194 C119.596,23.838 120.086,24.244 120.66,24.244 Z M134.982,19.988 C134.982,20.8 134.921,21.5233 134.8,22.158 C134.679,22.7927 134.483,23.334 134.212,23.782 C133.951,24.2207 133.605,24.5567 133.176,24.79 C132.756,25.0233 132.247,25.14 131.65,25.14 C130.903,25.14 130.283,24.9347 129.788,24.524 C129.303,24.1133 128.939,23.5253 128.696,22.76 C128.463,21.9853 128.346,21.0613 128.346,19.988 C128.346,18.9053 128.453,17.9813 128.668,17.216 C128.892,16.4507 129.247,15.8673 129.732,15.466 C130.217,15.0553 130.857,14.85 131.65,14.85 C132.397,14.85 133.017,15.0553 133.512,15.466 C134.007,15.8673 134.375,16.4507 134.618,17.216 C134.861,17.9813 134.982,18.9053 134.982,19.988 Z M129.578,19.988 C129.578,20.9027 129.643,21.6633 129.774,22.27 C129.914,22.8767 130.133,23.334 130.432,23.642 C130.74,23.9407 131.146,24.09 131.65,24.09 C132.154,24.09 132.555,23.9407 132.854,23.642 C133.162,23.3433 133.386,22.8907 133.526,22.284 C133.666,21.668 133.736,20.9027 133.736,19.988 C133.736,19.0733 133.666,18.3173 133.526,17.72 C133.386,17.1133 133.162,16.6607 132.854,16.362 C132.555,16.054 132.154,15.9 131.65,15.9 C131.146,15.9 130.74,16.054 130.432,16.362 C130.133,16.6607 129.914,17.1133 129.774,17.72 C129.643,18.3173 129.578,19.0733 129.578,19.988 Z M142.994,19.988 C142.994,20.8 142.933,21.5233 142.812,22.158 C142.691,22.7927 142.495,23.334 142.224,23.782 C141.963,24.2207 141.617,24.5567 141.188,24.79 C140.768,25.0233 140.259,25.14 139.662,25.14 C138.915,25.14 138.295,24.9347 137.8,24.524 C137.315,24.1133 136.951,23.5253 136.708,22.76 C136.475,21.9853 136.358,21.0613 136.358,19.988 C136.358,18.9053 136.465,17.9813 136.68,17.216 C136.904,16.4507 137.259,15.8673 137.744,15.466 C138.229,15.0553 138.869,14.85 139.662,14.85 C140.409,14.85 141.029,15.0553 141.524,15.466 C142.019,15.8673 142.387,16.4507 142.63,17.216 C142.873,17.9813 142.994,18.9053 142.994,19.988 Z M137.59,19.988 C137.59,20.9027 137.655,21.6633 137.786,22.27 C137.926,22.8767 138.145,23.334 138.444,23.642 C138.752,23.9407 139.158,24.09 139.662,24.09 C140.166,24.09 140.567,23.9407 140.866,23.642 C141.174,23.3433 141.398,22.8907 141.538,22.284 C141.678,21.668 141.748,20.9027 141.748,19.988 C141.748,19.0733 141.678,18.3173 141.538,17.72 C141.398,17.1133 141.174,16.6607 140.866,16.362 C140.567,16.054 140.166,15.9 139.662,15.9 C139.158,15.9 138.752,16.054 138.444,16.362 C138.145,16.6607 137.926,17.1133 137.786,17.72 C137.655,18.3173 137.59,19.0733 137.59,19.988 Z M147.88,21.794 L147.88,20.702 L151.268,20.702 L151.268,21.794 L147.88,21.794 Z M160.439,25 L159.235,25 L159.235,18.014 C159.235,17.7433 159.235,17.5147 159.235,17.328 C159.244,17.1413 159.253,16.9687 159.263,16.81 C159.272,16.642 159.281,16.4693 159.291,16.292 C159.141,16.4413 159.006,16.5673 158.885,16.67 C158.763,16.7727 158.609,16.9033 158.423,17.062 L157.359,17.93 L156.715,17.104 L159.417,15.004 L160.439,15.004 L160.439,25 Z M165.384,25 L169.486,16.124 L164.096,16.124 L164.096,15.004 L170.802,15.004 L170.802,15.956 L166.742,25 L165.384,25 Z M178.492,17.398 C179.052,17.398 179.542,16.978 179.542,16.348 C179.542,15.704 179.052,15.284 178.492,15.284 C177.918,15.284 177.428,15.704 177.428,16.348 C177.428,16.978 177.918,17.398 178.492,17.398 Z M178.492,24.244 C179.052,24.244 179.542,23.838 179.542,23.194 C179.542,22.55 179.052,22.144 178.492,22.144 C177.918,22.144 177.428,22.55 177.428,23.194 C177.428,23.838 177.918,24.244 178.492,24.244 Z M192.814,19.988 C192.814,20.8 192.754,21.5233 192.632,22.158 C192.511,22.7927 192.315,23.334 192.044,23.782 C191.783,24.2207 191.438,24.5567 191.008,24.79 C190.588,25.0233 190.08,25.14 189.482,25.14 C188.736,25.14 188.115,24.9347 187.62,24.524 C187.135,24.1133 186.771,23.5253 186.528,22.76 C186.295,21.9853 186.178,21.0613 186.178,19.988 C186.178,18.9053 186.286,17.9813 186.5,17.216 C186.724,16.4507 187.079,15.8673 187.564,15.466 C188.05,15.0553 188.689,14.85 189.482,14.85 C190.229,14.85 190.85,15.0553 191.344,15.466 C191.839,15.8673 192.208,16.4507 192.45,17.216 C192.693,17.9813 192.814,18.9053 192.814,19.988 Z M187.41,19.988 C187.41,20.9027 187.476,21.6633 187.606,22.27 C187.746,22.8767 187.966,23.334 188.264,23.642 C188.572,23.9407 188.978,24.09 189.482,24.09 C189.986,24.09 190.388,23.9407 190.686,23.642 C190.994,23.3433 191.218,22.8907 191.358,22.284 C191.498,21.668 191.568,20.9027 191.568,19.988 C191.568,19.0733 191.498,18.3173 191.358,17.72 C191.218,17.1133 190.994,16.6607 190.686,16.362 C190.388,16.054 189.986,15.9 189.482,15.9 C188.978,15.9 188.572,16.054 188.264,16.362 C187.966,16.6607 187.746,17.1133 187.606,17.72 C187.476,18.3173 187.41,19.0733 187.41,19.988 Z M200.826,19.988 C200.826,20.8 200.765,21.5233 200.644,22.158 C200.523,22.7927 200.327,23.334 200.056,23.782 C199.795,24.2207 199.449,24.5567 199.02,24.79 C198.6,25.0233 198.091,25.14 197.494,25.14 C196.747,25.14 196.127,24.9347 195.632,24.524 C195.147,24.1133 194.783,23.5253 194.54,22.76 C194.307,21.9853 194.19,21.0613 194.19,19.988 C194.19,18.9053 194.297,17.9813 194.512,17.216 C194.736,16.4507 195.091,15.8673 195.576,15.466 C196.061,15.0553 196.701,14.85 197.494,14.85 C198.241,14.85 198.861,15.0553 199.356,15.466 C199.851,15.8673 200.219,16.4507 200.462,17.216 C200.705,17.9813 200.826,18.9053 200.826,19.988 Z M195.422,19.988 C195.422,20.9027 195.487,21.6633 195.618,22.27 C195.758,22.8767 195.977,23.334 196.276,23.642 C196.584,23.9407 196.99,24.09 197.494,24.09 C197.998,24.09 198.399,23.9407 198.698,23.642 C199.006,23.3433 199.23,22.8907 199.37,22.284 C199.51,21.668 199.58,20.9027 199.58,19.988 C199.58,19.0733 199.51,18.3173 199.37,17.72 C199.23,17.1133 199.006,16.6607 198.698,16.362 C198.399,16.054 197.998,15.9 197.494,15.9 C196.99,15.9 196.584,16.054 196.276,16.362 C195.977,16.6607 195.758,17.1133 195.618,17.72 C195.487,18.3173 195.422,19.0733 195.422,19.988 Z M208.582,18.77 L205.796,18.77 L205.796,19.75 L207.574,19.75 L207.574,23.726 L208.582,23.726 L208.582,18.77 Z M208.582,23.306 L207.672,23.306 C207.014,23.908 206.258,24.538 205.642,24.986 L206.188,26.008 C206.888,25.392 207.532,24.79 208.148,24.188 C209.016,25.294 210.29,25.784 212.138,25.854 C213.706,25.924 216.702,25.896 218.284,25.826 C218.326,25.518 218.494,25.028 218.62,24.79 C216.926,24.902 213.692,24.944 212.138,24.874 C210.472,24.818 209.24,24.342 208.582,23.306 Z M205.922,14.178 C206.776,14.864 207.742,15.844 208.134,16.544 L209.002,15.886 C208.568,15.2 207.588,14.234 206.72,13.604 L205.922,14.178 Z M214.826,13.38 C214.602,14.15 214.168,15.242 213.79,15.956 L214.658,16.208 C215.05,15.55 215.554,14.528 215.96,13.632 L214.826,13.38 Z M211.494,15.438 L211.256,15.438 L210.472,16.236 L210.472,23.012 L211.494,23.012 L211.494,16.348 L218.074,16.348 L218.074,15.438 L211.494,15.438 Z M211.018,17.818 L211.018,18.7 L217.724,18.7 L217.724,17.818 L211.018,17.818 Z M211.018,20.17 L211.018,21.066 L217.696,21.066 L217.696,20.17 L211.018,20.17 Z M210.472,22.592 L210.472,23.502 L218.312,23.502 L218.312,22.592 L210.472,22.592 Z M213.944,15.858 L213.944,22.942 L214.952,22.942 L214.952,15.858 L213.944,15.858 Z M211.704,13.282 C210.99,15.06 209.786,16.726 208.428,17.804 C208.666,17.986 209.058,18.392 209.226,18.602 C210.612,17.412 211.928,15.564 212.74,13.576 L211.704,13.282 Z M225.242,14.094 L225.242,15.102 L232.116,15.102 L232.116,14.094 L225.242,14.094 Z M229.33,18.266 L229.33,24.762 C229.33,25 229.246,25.056 228.966,25.07 C228.714,25.084 227.776,25.084 226.782,25.056 C226.936,25.364 227.076,25.798 227.118,26.092 C228.49,26.092 229.288,26.078 229.764,25.924 C230.24,25.756 230.394,25.434 230.394,24.776 L230.394,18.266 L229.33,18.266 Z M224.626,17.958 L224.626,18.952 L232.522,18.952 L232.522,17.958 L224.626,17.958 Z M221.826,19.036 L221.826,26.162 L222.876,26.162 L222.876,18.182 L222.75,18.126 L221.826,19.036 Z M223.45,16.236 C222.484,17.846 220.944,19.47 219.488,20.506 C219.712,20.702 220.076,21.164 220.23,21.374 C221.7,20.198 223.352,18.392 224.444,16.614 L223.45,16.236 Z M222.876,13.24 C222.162,14.248 220.804,15.508 219.642,16.292 C219.824,16.502 220.104,16.908 220.258,17.132 C221.504,16.236 222.946,14.878 223.884,13.646 L222.876,13.24 Z M237.03,15.13 L237.03,19.036 C237.03,21.346 236.694,23.698 233.712,25.364 C233.95,25.532 234.314,25.91 234.468,26.148 C237.688,24.328 238.08,21.668 238.08,19.05 L238.08,15.13 L237.03,15.13 Z M242.364,13.52 L242.364,26.12 L243.428,26.12 L243.428,13.52 L242.364,13.52 Z M233.852,18.896 L233.852,19.904 L246.452,19.904 L246.452,18.896 L233.852,18.896 Z M240.082,13.464 C238.696,14.304 236.19,15.088 233.978,15.592 C234.132,15.83 234.3,16.208 234.356,16.46 C236.61,15.942 239.172,15.214 240.88,14.318 L240.082,13.464 Z M252.528,14.122 L252.528,15.102 L257.918,15.102 L257.918,14.122 L252.528,14.122 Z M257.484,14.122 L257.484,14.248 C257.316,15.368 256.896,17.594 256.532,19.162 L257.498,19.274 C257.834,17.72 258.24,15.634 258.478,14.178 L257.764,14.066 L257.61,14.122 L257.484,14.122 Z M257.358,17.664 L257.078,18.616 L259.696,18.616 L259.696,17.664 L257.358,17.664 Z M259.346,17.664 L259.346,17.874 C258.604,21.668 256.546,24.104 253.942,25.336 C254.166,25.49 254.502,25.882 254.656,26.12 C257.316,24.762 259.5,22.13 260.354,17.874 L259.738,17.622 L259.542,17.664 L259.346,17.664 Z M254.796,15.648 L254.026,15.788 C254.838,20.688 256.434,24.622 260.074,26.134 C260.228,25.868 260.522,25.476 260.76,25.28 C257.204,23.978 255.566,20.17 254.796,15.648 Z M249.882,13.254 C249.518,14.178 248.874,15.522 248.342,16.32 L249.07,16.656 C249.616,15.886 250.274,14.64 250.806,13.618 L249.882,13.254 Z M251.45,14.85 C250.708,16.362 249.392,18.49 248.356,19.75 L249,20.114 C250.036,18.882 251.38,16.852 252.332,15.242 L251.45,14.85 Z M247.67,16.194 C248.426,16.866 249.308,17.846 249.686,18.504 L250.246,17.706 C249.868,17.076 248.986,16.166 248.202,15.508 L247.67,16.194 Z M251.114,18.098 C251.66,19.022 252.206,20.254 252.388,21.038 L253.186,20.674 C252.99,19.904 252.43,18.7 251.856,17.804 L251.114,18.098 Z M247.628,19.526 L247.712,20.478 C249.014,20.394 250.722,20.282 252.43,20.156 L252.444,19.302 C250.638,19.4 248.846,19.484 247.628,19.526 Z M251.352,21.388 C251.702,22.172 252.052,23.208 252.178,23.894 L252.99,23.614 C252.85,22.942 252.5,21.906 252.108,21.15 L251.352,21.388 Z M248.412,21.248 C248.244,22.48 247.964,23.726 247.502,24.58 C247.726,24.678 248.146,24.874 248.328,24.986 C248.776,24.09 249.126,22.732 249.322,21.416 L248.412,21.248 Z M249.924,19.918 L249.924,26.162 L250.862,26.162 L250.862,19.918 L249.924,19.918 Z M253.886,14.71 L253.886,17.174 C253.886,19.582 253.704,22.984 251.66,25.546 C251.898,25.658 252.276,25.938 252.444,26.092 C254.586,23.404 254.824,19.792 254.824,17.174 L254.824,14.71 L253.886,14.71 Z M263.35,26.498 C264.82,25.994 265.772,24.846 265.772,23.334 C265.772,22.354 265.352,21.71 264.568,21.71 C264.008,21.71 263.504,22.06 263.504,22.718 C263.504,23.39 263.98,23.726 264.554,23.726 C264.82,23.726 265.1,23.656 265.296,23.404 L264.54,22.34 L264.806,23.53 C264.806,24.58 264.176,25.294 263.028,25.77 L263.35,26.498 Z M276.342,17.482 L276.342,18.322 L280.444,18.322 L280.444,17.482 L276.342,17.482 Z M276.384,13.744 L276.384,14.584 L280.388,14.584 L280.388,13.744 L276.384,13.744 Z M276.342,19.358 L276.342,20.198 L280.444,20.198 L280.444,19.358 L276.342,19.358 Z M275.684,15.578 L275.684,16.446 L280.906,16.446 L280.906,15.578 L275.684,15.578 Z M276.804,21.248 L276.804,22.116 L279.52,22.116 L279.52,24.454 L276.804,24.454 L276.804,25.336 L280.444,25.336 L280.444,21.248 L276.804,21.248 Z M276.328,21.248 L276.328,25.98 L277.238,25.98 L277.238,21.248 L276.328,21.248 Z M281.214,14.192 L281.214,15.004 L288.256,15.004 L288.256,14.192 L281.214,14.192 Z M281.578,15.844 L281.578,16.614 L288.046,16.614 L288.046,15.844 L281.578,15.844 Z M280.864,17.524 L280.864,18.336 L288.564,18.336 L288.564,17.524 L280.864,17.524 Z M284.196,13.24 L284.196,18.21 L285.19,18.21 L285.19,13.24 L284.196,13.24 Z M281.914,19.162 L281.914,26.106 L282.908,26.106 L282.908,19.96 L287.304,19.96 L287.304,19.162 L281.914,19.162 Z M286.716,19.162 L286.716,25 C286.716,25.168 286.674,25.21 286.492,25.224 C286.31,25.224 285.736,25.238 285.106,25.21 C285.232,25.462 285.372,25.826 285.414,26.078 C286.282,26.078 286.87,26.078 287.248,25.938 C287.598,25.784 287.71,25.532 287.71,25.014 L287.71,19.162 L286.716,19.162 Z M282.362,20.968 L282.362,21.724 L287.22,21.724 L287.22,20.968 L282.362,20.968 Z M282.362,22.732 L282.362,23.488 L287.22,23.488 L287.22,22.732 L282.362,22.732 Z M293.87,15.186 L292.946,15.396 C294.248,20.954 296.698,24.692 302.018,26.106 C302.186,25.812 302.508,25.35 302.746,25.126 C297.552,23.894 295.046,20.296 293.87,15.186 Z M290.398,13.996 L290.398,15.018 L298.238,15.018 L298.238,13.996 L290.398,13.996 Z M300.828,17.384 L300.828,17.58 C299.792,21.92 296.586,24.314 292.89,25.21 C293.114,25.434 293.366,25.868 293.492,26.134 C297.426,25.028 300.744,22.564 301.934,17.622 L301.22,17.342 L301.024,17.384 L300.828,17.384 Z M298,13.996 L298,14.122 C297.762,15.242 297.258,17.398 296.796,18.952 L297.888,19.106 C298.322,17.566 298.812,15.536 299.12,14.094 L298.322,13.94 L298.126,13.996 L298,13.996 Z M297.804,17.384 L297.58,18.378 L301.066,18.378 L301.066,17.384 L297.804,17.384 Z M292.876,14.318 L292.876,16.208 C292.876,18.7 292.652,22.2 289.642,24.986 C289.88,25.182 290.244,25.602 290.398,25.868 C293.66,22.816 293.94,18.994 293.94,16.194 L293.94,14.318 L292.876,14.318 Z M309.046,14.92 L309.046,15.844 L316.046,15.844 L316.046,14.92 L309.046,14.92 Z M308.444,17.636 L308.444,18.574 L316.648,18.574 L316.648,17.636 L308.444,17.636 Z M308.514,20.17 L308.514,21.108 L316.494,21.108 L316.494,20.17 L308.514,20.17 Z M311.986,13.24 L311.986,18.21 L313.022,18.21 L313.022,13.24 L311.986,13.24 Z M313.834,18.434 L313.834,24.86 C313.834,25.07 313.764,25.126 313.526,25.14 C313.302,25.154 312.518,25.154 311.65,25.126 C311.804,25.406 311.972,25.826 312.014,26.106 C313.134,26.106 313.848,26.092 314.282,25.938 C314.716,25.784 314.856,25.476 314.856,24.874 L314.856,18.434 L313.834,18.434 Z M309.368,22.088 C310.082,22.816 310.838,23.866 311.146,24.552 L312.056,23.992 C311.72,23.306 310.936,22.312 310.208,21.584 L309.368,22.088 Z M304.706,14.164 L304.706,15.116 L307.226,15.116 L307.226,22.41 L304.706,22.41 L304.706,23.362 L308.206,23.362 L308.206,14.164 L304.706,14.164 Z M304.748,18.238 L304.748,19.176 L307.688,19.176 L307.688,18.238 L304.748,18.238 Z M304.202,14.164 L304.202,24.51 L305.196,24.51 L305.196,14.164 L304.202,14.164 Z M325.51,18.056 L325.51,26.134 L326.574,26.134 L326.574,18.056 L325.51,18.056 Z M321.422,20.114 L321.422,21.08 L330.508,21.08 L330.508,20.114 L321.422,20.114 Z M326.868,20.492 L326.056,20.8 C326.98,22.662 328.604,24.552 330.13,25.532 C330.312,25.28 330.648,24.902 330.872,24.706 C329.346,23.866 327.708,22.172 326.868,20.492 Z M325.272,20.422 C324.39,22.13 322.668,23.866 321.03,24.678 C321.254,24.888 321.576,25.252 321.758,25.504 C323.424,24.538 325.16,22.662 326.098,20.73 L325.272,20.422 Z M323.466,14.85 L328.688,14.85 L328.688,17.412 L323.466,17.412 L323.466,14.85 Z M322.472,13.912 L322.472,18.364 L329.724,18.364 L329.724,13.912 L322.472,13.912 Z M321.016,13.282 C320.204,15.41 318.86,17.496 317.46,18.826 C317.656,19.078 317.95,19.624 318.062,19.862 C319.588,18.308 321.058,15.956 322.01,13.59 L321.016,13.282 Z M319.56,16.894 L319.56,26.092 L320.568,26.092 L320.568,15.914 L320.554,15.9 L319.56,16.894 Z M335.842,21.29 L335.842,22.27 L344.55,22.27 L344.55,21.29 L335.842,21.29 Z M337.032,17.664 L337.032,18.63 L342.8,18.63 L342.8,17.664 L337.032,17.664 Z M339.762,19.988 L339.762,24.874 C339.762,25.07 339.692,25.126 339.454,25.14 C339.202,25.14 338.376,25.154 337.438,25.126 C337.578,25.42 337.718,25.826 337.774,26.12 C338.978,26.12 339.748,26.12 340.21,25.966 C340.686,25.798 340.812,25.504 340.812,24.888 L340.812,19.988 L339.762,19.988 Z M342.52,17.664 L342.52,17.86 C341.988,18.588 340.882,19.568 339.944,20.128 C340.126,20.268 340.392,20.562 340.532,20.744 C341.61,20.1 342.842,19.078 343.668,18.112 L342.996,17.608 L342.772,17.664 L342.52,17.664 Z M332.02,15.074 L332.02,16.082 L344.284,16.082 L344.284,15.074 L332.02,15.074 Z M336.542,13.24 C335.758,16.138 334.134,19.246 331.586,21.024 C331.768,21.276 332.034,21.738 332.146,22.004 C334.946,20.002 336.654,16.74 337.634,13.52 L336.542,13.24 Z M333.784,18.966 L333.784,26.092 L334.834,26.092 L334.834,18.966 L333.784,18.966 Z M351.662,13.31 C351.2,15.368 350.388,17.384 349.352,18.686 C349.59,18.84 350.01,19.176 350.192,19.358 C351.27,17.93 352.152,15.774 352.698,13.534 L351.662,13.31 Z M351.424,19.246 C351.032,20.926 350.36,22.592 349.492,23.67 C349.744,23.796 350.192,24.076 350.402,24.244 C351.256,23.068 352.012,21.29 352.446,19.456 L351.424,19.246 Z M351.536,15.942 L351.13,16.922 L357.836,16.922 L357.836,15.942 L351.536,15.942 Z M353.706,16.348 L353.706,24.846 C353.706,25.028 353.65,25.084 353.468,25.084 C353.272,25.084 352.67,25.098 352.012,25.07 C352.166,25.378 352.32,25.84 352.39,26.134 C353.258,26.134 353.86,26.106 354.238,25.924 C354.63,25.756 354.756,25.448 354.756,24.846 L354.756,16.348 L353.706,16.348 Z M355.764,19.456 C356.534,20.926 357.234,22.9 357.458,24.188 L358.452,23.852 C358.214,22.55 357.514,20.618 356.702,19.148 L355.764,19.456 Z M357.528,15.942 L357.528,16.096 C357.388,17.02 357.206,18.196 357.052,18.896 L357.962,19.064 C358.144,18.308 358.382,17.104 358.578,16.068 L357.85,15.914 L357.668,15.942 L357.528,15.942 Z M348.848,13.296 C348.064,15.424 346.748,17.524 345.362,18.882 C345.558,19.12 345.852,19.68 345.964,19.918 C347.476,18.35 348.918,15.984 349.842,13.604 L348.848,13.296 Z M347.392,16.908 L347.392,26.106 L348.4,26.106 L348.4,15.928 L348.372,15.914 L347.392,16.908 Z M360.986,15.494 L360.986,16.432 L364.262,16.432 L364.262,23.698 L360.986,23.698 L360.986,24.65 L365.242,24.65 L365.242,15.494 L360.986,15.494 Z M360.356,15.494 L360.356,25.77 L361.336,25.77 L361.336,15.494 L360.356,15.494 Z M360.916,19.386 L360.916,20.324 L364.78,20.324 L364.78,19.386 L360.916,19.386 Z M362.498,13.212 C362.386,13.94 362.12,15.004 361.882,15.676 L362.722,15.886 C363.002,15.256 363.352,14.29 363.632,13.422 L362.498,13.212 Z M367.23,15.452 L367.23,16.432 L371.528,16.432 L371.528,15.452 L367.23,15.452 Z M371.164,15.452 L371.164,15.676 C370.968,21.85 370.744,24.174 370.282,24.678 C370.128,24.86 369.96,24.902 369.68,24.902 C369.358,24.902 368.518,24.888 367.608,24.818 C367.804,25.098 367.93,25.532 367.958,25.84 C368.742,25.882 369.568,25.91 370.044,25.854 C370.534,25.812 370.856,25.686 371.164,25.28 C371.724,24.594 371.92,22.424 372.144,15.998 C372.144,15.844 372.144,15.452 372.144,15.452 L371.164,15.452 Z M367.524,13.184 C367.076,15.13 366.306,17.062 365.354,18.294 C365.606,18.434 366.04,18.728 366.222,18.896 C367.188,17.566 368.014,15.508 368.532,13.422 L367.524,13.184 Z M366.88,19.092 C367.65,20.114 368.588,21.5 369.008,22.354 L369.904,21.794 C369.456,20.968 368.49,19.61 367.692,18.616 L366.88,19.092 Z M374.496,14.276 C375.476,14.584 376.778,15.088 377.436,15.452 L377.898,14.64 C377.226,14.29 375.924,13.814 374.958,13.562 L374.496,14.276 Z M373.796,17.23 L374.202,18.154 C375.266,17.832 376.582,17.398 377.856,16.992 L377.744,16.166 C376.288,16.572 374.804,16.992 373.796,17.23 Z M379.802,14.276 L379.186,15.074 L385.43,15.074 L385.43,14.276 L379.802,14.276 Z M385.15,14.276 L385.15,14.43 C384.87,15.018 384.394,15.718 383.946,16.152 L384.786,16.446 C385.29,15.956 385.808,15.172 386.2,14.444 L385.5,14.234 L385.318,14.276 L385.15,14.276 Z M381.538,14.556 C381.3,16.152 380.544,17.02 377.954,17.454 C378.136,17.636 378.36,17.986 378.458,18.21 C381.314,17.636 382.21,16.544 382.504,14.556 L381.538,14.556 Z M382.462,14.808 L381.608,14.892 C381.972,16.362 382.672,17.874 385.99,18.448 C386.102,18.182 386.34,17.804 386.536,17.594 C383.428,17.146 382.742,15.998 382.462,14.808 Z M380.026,13.24 C379.662,14.08 378.948,15.046 377.898,15.76 C378.15,15.872 378.514,16.096 378.696,16.292 C379.788,15.452 380.502,14.416 380.978,13.394 L380.026,13.24 Z M376.694,20.562 L383.75,20.562 L383.75,21.514 L376.694,21.514 L376.694,20.562 Z M376.694,22.2 L383.75,22.2 L383.75,23.18 L376.694,23.18 L376.694,22.2 Z M376.694,18.924 L383.75,18.924 L383.75,19.876 L376.694,19.876 L376.694,18.924 Z M375.672,18.224 L375.672,23.88 L384.8,23.88 L384.8,18.224 L375.672,18.224 Z M381.314,24.594 C382.84,25.098 384.366,25.7 385.248,26.162 L386.41,25.63 C385.402,25.154 383.708,24.538 382.168,24.062 L381.314,24.594 Z M378.024,24.034 C377.016,24.58 375.336,25.07 373.894,25.378 C374.132,25.56 374.496,25.966 374.664,26.176 C376.064,25.784 377.842,25.14 378.976,24.468 L378.024,24.034 Z M390.064,13.296 L390.064,26.106 L391.044,26.106 L391.044,13.296 L390.064,13.296 Z M387.81,17.944 L387.81,18.938 L393.34,18.938 L393.34,17.944 L387.81,17.944 Z M389.91,18.462 C389.462,20.1 388.482,22.228 387.586,23.306 C387.754,23.586 388.006,24.034 388.118,24.342 C389.056,23.068 390.05,20.646 390.54,18.742 L389.91,18.462 Z M391.016,19.12 L390.498,19.554 C390.96,20.156 392.108,21.99 392.458,22.746 L393.158,21.906 C392.836,21.444 391.408,19.54 391.016,19.12 Z M387.908,14.332 C388.272,15.312 388.594,16.614 388.664,17.454 L389.49,17.23 C389.392,16.39 389.07,15.116 388.678,14.136 L387.908,14.332 Z M392.43,14.08 C392.234,15.032 391.814,16.432 391.506,17.272 L392.178,17.482 C392.556,16.698 392.99,15.382 393.354,14.318 L392.43,14.08 Z M397.862,13.254 L397.862,26.12 L398.856,26.12 L398.856,13.254 L397.862,13.254 Z M393.312,22.158 L393.48,23.138 L400.676,21.836 L400.508,20.87 L393.312,22.158 Z M394.362,14.962 C395.174,15.466 396.14,16.222 396.588,16.768 L397.148,15.956 C396.686,15.438 395.72,14.724 394.908,14.248 L394.362,14.962 Z M393.648,18.49 C394.488,18.952 395.496,19.666 395.986,20.17 L396.518,19.344 C396.014,18.84 394.978,18.182 394.138,17.748 L393.648,18.49 Z M407.69,21.626 L408.6,21.626 L408.88,16.194 L408.922,14.528 L407.368,14.528 L407.41,16.194 L407.69,21.626 Z M408.152,25.07 C408.642,25.07 409.048,24.72 409.048,24.16 C409.048,23.6 408.642,23.222 408.152,23.222 C407.648,23.222 407.242,23.6 407.242,24.16 C407.242,24.72 407.648,25.07 408.152,25.07 Z" id="Shape" fill="#545454" fill-rule="nonzero"></path>
                <path d="M12,20 C12,16.1336 15.1336,13 19,13 C22.8664,13 26,16.1336 26,20 C26,23.8664 22.8664,27 19,27 C15.1336,27 12,23.8664 12,20 Z M18,17 C18,16.4477 18.4477,16 19,16 C19.5523,16 20,16.4477 20,17 L20,21 C20,21.5523 19.5523,22 19,22 C18.4477,22 18,21.5523 18,21 L18,17 Z M20,24 C20,24.5523 19.5523,25 19,25 C18.4477,25 18,24.5523 18,24 C18,23.4477 18.4477,23 19,23 C19.5523,23 20,23.4477 20,24 Z" id="Shape" fill="#F5A700"></path>
            </g>
        </g>
    </g>
</svg>