<?xml version="1.0" encoding="UTF-8"?>
<svg width="301px" height="189px" viewBox="0 0 301 189" version="1.1" xmlns="http://www.w3.org/2000/svg" xmlns:xlink="http://www.w3.org/1999/xlink">
    <title>alert/where01</title>
    <defs>
        <filter x="-5.8%" y="-9.3%" width="111.7%" height="118.5%" filterUnits="objectBoundingBox" id="filter-1">
            <feOffset dx="0" dy="3" in="SourceAlpha" result="shadowOffsetOuter1"></feOffset>
            <feGaussianBlur stdDeviation="3" in="shadowOffsetOuter1" result="shadowBlurOuter1"></feGaussianBlur>
            <feColorMatrix values="0 0 0 0 0   0 0 0 0 0   0 0 0 0 0  0 0 0 0.2 0" type="matrix" in="shadowBlurOuter1" result="shadowMatrixOuter1"></feColorMatrix>
            <feMerge>
                <feMergeNode in="shadowMatrixOuter1"></feMergeNode>
                <feMergeNode in="SourceGraphic"></feMergeNode>
            </feMerge>
        </filter>
    </defs>
    <g id="alert/where01" stroke="none" stroke-width="1" fill="none" fill-rule="evenodd">
        <g id="Group-21" filter="url(#filter-1)" transform="translate(1.000000, 0.000000)">
            <g id="Group-17">
                <rect id="Rectangle" fill="#F8F8FA" x="0" y="0" width="300" height="188.847584" rx="5.94795539"></rect>
                <path d="M12,-2.13162821e-13 L294.052045,-2.13162821e-13 C297.33701,-2.14654437e-13 300,2.66299034 300,5.94795539 L300,30.1115242 L300,30.1115242 L0,30.1115242 L0,12 C-8.11624501e-16,5.372583 5.372583,-2.11945384e-13 12,-2.13162821e-13 Z" id="Rectangle" fill="#043458"></path>
                <path d="M5.94795539,-6.39488462e-14 L22.6765799,-6.39488462e-14 L22.6765799,-6.39488462e-14 L22.6765799,188.847584 L5.94795539,188.847584 C2.66299034,188.847584 6.4883232e-13,186.184593 6.31494856e-13,182.899628 L6.31494856e-13,5.94795539 C6.30204386e-13,2.66299034 2.66299034,-6.60099432e-14 5.94795539,-6.39488462e-14 Z" id="Rectangle" fill="#FFFFFF"></path>
            </g>
            <g id="Group-19" transform="translate(31.000000, 74.000000)" fill="#FFFFFF">
                <rect id="Rectangle" x="1.5" y="1.5" width="257.249071" height="101" rx="5.94795539"></rect>
                <path d="M253.460037,0.796933086 C254.998966,0.796933086 256.392205,1.42070736 257.400712,2.42921393 C258.409218,3.43772049 259.032993,4.83095934 259.032993,6.36988848 L259.032993,6.36988848 L259.032993,20.1212825 L1.03299257,20.1212825 L1.03299257,6.36988848 C1.03299257,4.83095934 1.65676684,3.43772049 2.66527341,2.42921393 C3.67377997,1.42070736 5.06701882,0.796933086 6.60594796,0.796933086 L6.60594796,0.796933086 Z" id="Rectangle" stroke="#F2F2F2" stroke-width="0.75"></path>
            </g>
            <g id="Group-20" transform="translate(31.000000, 15.000000)">
                <rect id="Rectangle" fill="#E3F1FB" x="0" y="0" width="257.249071" height="48.3271375" rx="5.94795539"></rect>
                <g id="Group-18" transform="translate(13.011152, 11.524164)">
                    <rect id="Rectangle-Copy-4" fill-opacity="0.1" fill="#7F7F7F" x="15.6133829" y="0" width="215.98513" height="25.6505576"></rect>
                    <g id="Icon/system/alert/Info/20px">
                        <path d="M5.20446097,10.4089219 C2.32980948,10.4089219 0,8.07911245 0,5.20446097 C0,2.32980948 2.32980948,0 5.20446097,0 C8.07911245,0 10.4089219,2.32980948 10.4089219,5.20446097 C10.4089219,8.07911245 8.07911245,10.4089219 5.20446097,10.4089219 L5.20446097,10.4089219 Z" id="Path" fill="#7F7F7F"></path>
                        <path d="M5.57620818,3.71747212 C5.78151849,3.71747212 5.94795539,3.88390901 5.94795539,4.08921933 L5.94747212,7.43398885 L6.69144981,7.43494424 C6.89676013,7.43494424 7.06319703,7.60138113 7.06319703,7.80669145 L7.06319703,8.17843866 C7.06319703,8.38374898 6.89676013,8.55018587 6.69144981,8.55018587 L4.08921933,8.55018587 C3.88390901,8.55018587 3.71747212,8.38374898 3.71747212,8.17843866 L3.71747212,7.80669145 C3.71747212,7.60138113 3.88390901,7.43494424 4.08921933,7.43494424 L4.83247212,7.43398885 L4.83247212,4.83198885 L4.23791822,4.83271375 C4.0326079,4.83271375 3.866171,4.66627686 3.866171,4.46096654 L3.866171,4.08921933 C3.866171,3.88390901 4.0326079,3.71747212 4.23791822,3.71747212 L5.57620818,3.71747212 Z M5.20446097,1.48698885 C5.6150816,1.48698885 5.94795539,1.81986264 5.94795539,2.23048327 C5.94795539,2.6411039 5.6150816,2.9739777 5.20446097,2.9739777 C4.79384033,2.9739777 4.46096654,2.6411039 4.46096654,2.23048327 C4.46096654,1.81986264 4.79384033,1.48698885 5.20446097,1.48698885 Z" id="Combined-Shape" fill="#FFFFFF"></path>
                    </g>
                </g>
            </g>
        </g>
    </g>
</svg>