<?xml version="1.0" encoding="UTF-8"?>
<svg width="300px" height="189px" viewBox="0 0 300 189" version="1.1" xmlns="http://www.w3.org/2000/svg" xmlns:xlink="http://www.w3.org/1999/xlink">
    <title>alert/where02</title>
    <defs>
        <filter x="-5.8%" y="-9.3%" width="111.7%" height="118.5%" filterUnits="objectBoundingBox" id="filter-1">
            <feOffset dx="0" dy="3" in="SourceAlpha" result="shadowOffsetOuter1"></feOffset>
            <feGaussianBlur stdDeviation="3" in="shadowOffsetOuter1" result="shadowBlurOuter1"></feGaussianBlur>
            <feColorMatrix values="0 0 0 0 0   0 0 0 0 0   0 0 0 0 0  0 0 0 0.2 0" type="matrix" in="shadowBlurOuter1" result="shadowMatrixOuter1"></feColorMatrix>
            <feMerge>
                <feMergeNode in="shadowMatrixOuter1"></feMergeNode>
                <feMergeNode in="SourceGraphic"></feMergeNode>
            </feMerge>
        </filter>
    </defs>
    <g id="alert/where02" stroke="none" stroke-width="1" fill="none" fill-rule="evenodd">
        <g id="Group-21-Copy" filter="url(#filter-1)">
            <g id="Group-17">
                <rect id="Rectangle" fill="#F8F8FA" x="0" y="0" width="300" height="188.847584" rx="5.94795539"></rect>
                <path d="M12,-2.13162821e-13 L294.052045,-2.13162821e-13 C297.33701,-2.14654437e-13 300,2.66299034 300,5.94795539 L300,30.1115242 L300,30.1115242 L0,30.1115242 L0,12 C-8.11624501e-16,5.372583 5.372583,-2.11945384e-13 12,-2.13162821e-13 Z" id="Rectangle" fill="#043458"></path>
                <path d="M5.94795539,-6.39488462e-14 L22.6765799,-6.39488462e-14 L22.6765799,-6.39488462e-14 L22.6765799,188.847584 L5.94795539,188.847584 C2.66299034,188.847584 6.4883232e-13,186.184593 6.31494856e-13,182.899628 L6.31494856e-13,5.94795539 C6.30204386e-13,2.66299034 2.66299034,-6.60099432e-14 5.94795539,-6.39488462e-14 Z" id="Rectangle" fill="#FFFFFF"></path>
            </g>
            <g id="Group" transform="translate(31.842007, 17.578067)">
                <g id="Group-19" fill="#FFFFFF">
                    <rect id="Rectangle" x="0.5" y="0.258364312" width="257.249071" height="158" rx="5.94795539"></rect>
                    <path d="M252.960037,0.796933086 C254.498966,0.796933086 255.892205,1.42070736 256.900712,2.42921393 C257.909218,3.43772049 258.532993,4.83095934 258.532993,6.36988848 L258.532993,6.36988848 L258.532993,20.1212825 L0.532992565,20.1212825 L0.532992565,6.36988848 C0.532992565,4.83095934 1.15676684,3.43772049 2.16527341,2.42921393 C3.17377997,1.42070736 4.56701882,0.796933086 6.10594796,0.796933086 L6.10594796,0.796933086 Z" id="Rectangle" stroke="#F2F2F2" stroke-width="0.75"></path>
                </g>
                <g id="Group-20" transform="translate(15.157993, 105.421933)">
                    <rect id="Rectangle" fill-opacity="0.2" fill="#91D5FF" x="0" y="0" width="229.330567" height="43.0823319" rx="5.30244085"></rect>
                    <g id="Group-18" transform="translate(11.599089, 10.273479)">
                        <rect id="Rectangle-Copy-4" fill-opacity="0.1" fill="#7F7F7F" x="13.9189072" y="0" width="192.544883" height="22.8667762"></rect>
                        <g id="Icon/system/alert/Info/20px">
                            <path d="M4.63963575,9.27927149 C2.07696194,9.27927149 0,7.20230955 0,4.63963575 C0,2.07696194 2.07696194,0 4.63963575,0 C7.20230955,0 9.27927149,2.07696194 9.27927149,4.63963575 C9.27927149,7.20230955 7.20230955,9.27927149 4.63963575,9.27927149 L4.63963575,9.27927149 Z" id="Path" fill="#7F7F7F"></path>
                            <path d="M4.9710383,3.31402553 C5.15406687,3.31402553 5.30244085,3.46239951 5.30244085,3.64542809 L5.30202553,6.62761021 L5.96524596,6.62805106 C6.14827453,6.62805106 6.29664851,6.77642504 6.29664851,6.95945362 L6.29664851,7.29085617 C6.29664851,7.47388475 6.14827453,7.62225872 5.96524596,7.62225872 L3.64542809,7.62225872 C3.46239951,7.62225872 3.31402553,7.47388475 3.31402553,7.29085617 L3.31402553,6.95945362 C3.31402553,6.77642504 3.46239951,6.62805106 3.64542809,6.62805106 L4.30802553,6.62761021 L4.30802553,4.30761021 L3.77798911,4.30823319 C3.59496053,4.30823319 3.44658655,4.15985922 3.44658655,3.97683064 L3.44658655,3.64542809 C3.44658655,3.46239951 3.59496053,3.31402553 3.77798911,3.31402553 L4.9710383,3.31402553 Z M4.63963575,1.32561021 C5.0056929,1.32561021 5.30244085,1.62235817 5.30244085,1.98841532 C5.30244085,2.35447247 5.0056929,2.65122043 4.63963575,2.65122043 C4.27357859,2.65122043 3.97683064,2.35447247 3.97683064,1.98841532 C3.97683064,1.62235817 4.27357859,1.32561021 4.63963575,1.32561021 Z" id="Combined-Shape" fill="#FFFFFF"></path>
                        </g>
                    </g>
                </g>
            </g>
        </g>
    </g>
</svg>