<?xml version="1.0" encoding="UTF-8"?>
<svg width="402px" height="252px" viewBox="0 0 402 252" version="1.1" xmlns="http://www.w3.org/2000/svg" xmlns:xlink="http://www.w3.org/1999/xlink">
    <title>button08</title>
    <defs>
        <rect id="path-1" x="0" y="0" width="400" height="250" rx="8"></rect>
        <path d="M13.273112,12.5758464 L10.4608073,9.76490885 C11.2141276,8.85572917 11.6666667,7.68951823 11.6666667,6.41666667 C11.6666667,3.51686198 9.31647135,1.16666667 6.41666667,1.16666667 C3.51686198,1.16666667 1.16666667,3.51686198 1.16666667,6.41666667 C1.16666667,9.31647135 3.51686198,11.6666667 6.41666667,11.6666667 C7.68951823,11.6666667 8.85572917,11.2141276 9.76490885,10.4608073 L12.5772135,13.273112 C12.6729167,13.3688151 12.7986979,13.4166667 12.9258464,13.4166667 C13.0529948,13.4166667 13.1774089,13.3688151 13.2744792,13.273112 C13.4645182,13.0803385 13.4645182,12.7686198 13.273112,12.5758464 Z M8.07643229,10.3473307 C7.55143229,10.5701823 6.99361979,10.6822917 6.41666667,10.6822917 C5.83971354,10.6822917 5.28190104,10.5701823 4.75690104,10.3473307 C4.24967448,10.1326823 3.79303385,9.8250651 3.40065104,9.43268229 C3.00826823,9.04029948 2.70065104,8.58365885 2.4860026,8.07643229 C2.26315104,7.55143229 2.15104167,6.99361979 2.15104167,6.41666667 C2.15104167,5.83971354 2.26315104,5.28190104 2.4860026,4.75690104 C2.70065104,4.24967448 3.00826823,3.79303385 3.40065104,3.40065104 C3.79303385,3.00826823 4.24967448,2.70065104 4.75690104,2.4860026 C5.28190104,2.26315104 5.83971354,2.15104167 6.41666667,2.15104167 C6.99361979,2.15104167 7.55143229,2.26315104 8.07643229,2.4860026 C8.58365885,2.70065104 9.04029948,3.00826823 9.43268229,3.40065104 C9.8250651,3.79303385 10.1326823,4.24967448 10.3473307,4.75690104 C10.5701823,5.28190104 10.6822917,5.83971354 10.6822917,6.41666667 C10.6822917,6.99361979 10.5701823,7.55143229 10.3473307,8.07643229 C10.1326823,8.58365885 9.8250651,9.04029948 9.43268229,9.43268229 C9.04029948,9.8250651 8.58502604,10.1326823 8.07643229,10.3473307 Z" id="path-2"></path>
    </defs>
    <g id="XXXGuideline" stroke="none" stroke-width="1" fill="none" fill-rule="evenodd">
        <g id="Guideline_按鈕" transform="translate(-551.000000, -1484.000000)">
            <g id="button08" transform="translate(552.000000, 1485.000000)">
                <g id="Rectangle">
                    <use fill="#F5F6F8" xlink:href="#path-1"></use>
                    <rect stroke="#E5E5E5" stroke-width="1" fill-opacity="0.3" fill="#FFFFFF" x="-0.5" y="-0.5" width="401" height="251" rx="8"></rect>
                </g>
                <path d="M30,0 L392,0 C396.418278,-8.11624501e-16 400,3.581722 400,8 L400,40 L400,40 L30,40 L30,0 Z" id="Rectangle" fill="#043458"></path>
                <path d="M8,0 L30,0 L30,0 L30,250 L8,250 C3.581722,250 5.41083001e-16,246.418278 0,242 L0,8 C-5.41083001e-16,3.581722 3.581722,8.11624501e-16 8,0 Z" id="Rectangle" fill="#FFFFFF"></path>
                <g id="Group-8" transform="translate(50.000000, 18.000000)">
                    <rect id="Rectangle-Copy-6" fill="#FFFFFF" x="0" y="0" width="330" height="44" rx="8"></rect>
                    <rect id="Rectangle-Copy-6" fill="#F1F8FE" x="10" y="10" width="170" height="24"></rect>
                    <g id="Button/Primary/Basic/Small" transform="translate(256.000000, 10.000000)">
                        <rect id="Rectangle-40-Copy-13" fill="#004477" x="0" y="0" width="64" height="24" rx="4"></rect>
                        <g id="Group" transform="translate(9.000000, 1.000000)">
                            <text id="Text" font-family="PingFangTC-Regular, PingFang TC" font-size="14" font-weight="normal" line-spacing="22" fill="#FFFFFF">
                                <tspan x="18" y="15">搜尋</tspan>
                            </text>
                            <g transform="translate(0.000000, 4.000000)" id="Icon/number/Plus-14px">
                                <mask id="mask-3" fill="white">
                                    <use xlink:href="#path-2"></use>
                                </mask>
                                <use id="Mask" fill="#FFFFFF" xlink:href="#path-2"></use>
                            </g>
                        </g>
                    </g>
                    <g id="Button/Primary/Basic/Small-Copy" transform="translate(190.000000, 10.000000)">
                        <path d="M51.9950917,0.5 C52.9633992,0.5 53.8401303,0.890464421 54.4746149,1.52259551 C55.108114,2.15374485 55.5,3.02582878 55.5,3.99005301 L55.5,3.99005301 L55.5,20.009947 C55.5,20.9727248 55.1068169,21.8442387 54.4732269,22.4754785 C53.8379696,23.1083795 52.960973,23.5 51.9950917,23.5 L51.9950917,23.5 L4.00490831,23.5 C3.03778229,23.5 2.16219867,23.107467 1.5280205,22.4747269 C0.893141443,21.8412876 0.5,20.9669496 0.5,20.0041738 L0.5,20.0041738 L0.5,3.99582624 C0.5,3.03137327 0.893242084,2.15830934 1.52702904,1.52595964 C2.16222079,0.892208343 3.03910977,0.5 4.00490831,0.5 L4.00490831,0.5 Z" id="Bg" stroke="#CCCCCC" fill="#FFFFFF"></path>
                        <text id="Text" font-family="PingFangTC-Regular, PingFang TC" font-size="14" font-weight="normal" line-spacing="22" fill="#545454">
                            <tspan x="14" y="16">清除</tspan>
                        </text>
                    </g>
                </g>
            </g>
        </g>
    </g>
</svg>