<?xml version="1.0" encoding="UTF-8"?>
<svg width="740px" height="208px" viewBox="0 0 740 208" version="1.1" xmlns="http://www.w3.org/2000/svg" xmlns:xlink="http://www.w3.org/1999/xlink">
    <title>btn02</title>
    <defs>
        <path d="M11.8056641,6.5078125 L7.45117188,6.5078125 L7.45117188,2.26269531 C7.45117188,1.990625 7.23105469,1.77050781 6.95898438,1.77050781 L6.95898438,1.77050781 C6.68691406,1.77050781 6.46679688,1.990625 6.46679688,2.26269531 L6.46679688,6.5078125 L2.20800781,6.5078125 C1.9359375,6.5078125 1.71582031,6.72792969 1.71582031,7 L1.71582031,7 C1.71582031,7.27207031 1.9359375,7.4921875 2.20800781,7.4921875 L6.46679688,7.4921875 L6.46679688,11.7509766 C6.46679688,12.0230469 6.68691406,12.2431641 6.95898438,12.2431641 L6.95898438,12.2431641 C7.23105469,12.2431641 7.45117188,12.0230469 7.45117188,11.7509766 L7.45117188,7.4921875 L11.8056641,7.4921875 C12.0777344,7.4921875 12.2978516,7.27207031 12.2978516,7 L12.2978516,7 C12.2978516,6.72792969 12.0777344,6.5078125 11.8056641,6.5078125 Z" id="path-1"></path>
        <path d="M11.8056641,6.5078125 L7.45117188,6.5078125 L7.45117188,2.26269531 C7.45117188,1.990625 7.23105469,1.77050781 6.95898438,1.77050781 L6.95898438,1.77050781 C6.68691406,1.77050781 6.46679688,1.990625 6.46679688,2.26269531 L6.46679688,6.5078125 L2.20800781,6.5078125 C1.9359375,6.5078125 1.71582031,6.72792969 1.71582031,7 L1.71582031,7 C1.71582031,7.27207031 1.9359375,7.4921875 2.20800781,7.4921875 L6.46679688,7.4921875 L6.46679688,11.7509766 C6.46679688,12.0230469 6.68691406,12.2431641 6.95898438,12.2431641 L6.95898438,12.2431641 C7.23105469,12.2431641 7.45117188,12.0230469 7.45117188,11.7509766 L7.45117188,7.4921875 L11.8056641,7.4921875 C12.0777344,7.4921875 12.2978516,7.27207031 12.2978516,7 L12.2978516,7 C12.2978516,6.72792969 12.0777344,6.5078125 11.8056641,6.5078125 Z" id="path-3"></path>
        <path d="M11.8056641,6.5078125 L7.45117188,6.5078125 L7.45117188,2.26269531 C7.45117188,1.990625 7.23105469,1.77050781 6.95898438,1.77050781 L6.95898438,1.77050781 C6.68691406,1.77050781 6.46679688,1.990625 6.46679688,2.26269531 L6.46679688,6.5078125 L2.20800781,6.5078125 C1.9359375,6.5078125 1.71582031,6.72792969 1.71582031,7 L1.71582031,7 C1.71582031,7.27207031 1.9359375,7.4921875 2.20800781,7.4921875 L6.46679688,7.4921875 L6.46679688,11.7509766 C6.46679688,12.0230469 6.68691406,12.2431641 6.95898438,12.2431641 L6.95898438,12.2431641 C7.23105469,12.2431641 7.45117188,12.0230469 7.45117188,11.7509766 L7.45117188,7.4921875 L11.8056641,7.4921875 C12.0777344,7.4921875 12.2978516,7.27207031 12.2978516,7 L12.2978516,7 C12.2978516,6.72792969 12.0777344,6.5078125 11.8056641,6.5078125 Z" id="path-5"></path>
        <path d="M11.8056641,6.5078125 L7.45117188,6.5078125 L7.45117188,2.26269531 C7.45117188,1.990625 7.23105469,1.77050781 6.95898438,1.77050781 L6.95898438,1.77050781 C6.68691406,1.77050781 6.46679688,1.990625 6.46679688,2.26269531 L6.46679688,6.5078125 L2.20800781,6.5078125 C1.9359375,6.5078125 1.71582031,6.72792969 1.71582031,7 L1.71582031,7 C1.71582031,7.27207031 1.9359375,7.4921875 2.20800781,7.4921875 L6.46679688,7.4921875 L6.46679688,11.7509766 C6.46679688,12.0230469 6.68691406,12.2431641 6.95898438,12.2431641 L6.95898438,12.2431641 C7.23105469,12.2431641 7.45117188,12.0230469 7.45117188,11.7509766 L7.45117188,7.4921875 L11.8056641,7.4921875 C12.0777344,7.4921875 12.2978516,7.27207031 12.2978516,7 L12.2978516,7 C12.2978516,6.72792969 12.0777344,6.5078125 11.8056641,6.5078125 Z" id="path-7"></path>
    </defs>
    <g id="XXXGuideline" stroke="none" stroke-width="1" fill="none" fill-rule="evenodd">
        <g id="btn02">
            <rect id="Rectangle" x="0" y="0" width="740" height="208"></rect>
            <g id="Primary-Button" transform="translate(215.000000, 20.000000)">
                <g id="Button/Secondary/Icon/Medium" transform="translate(0.000000, 52.000000)">
                    <path d="M89.9910079,0.5 C90.9604813,0.5 91.8382192,0.891698703 92.4733682,1.52609756 C93.1077531,2.15973337 93.5,3.03543936 93.5,4.0042577 L93.5,4.0042577 L93.5,27.9957423 C93.5,28.9634676 93.1074529,29.8395568 92.4725847,30.4736753 C91.8376568,31.1078534 90.9603971,31.5 89.9910079,31.5 L89.9910079,31.5 L4.0089921,31.5 C3.03978986,31.5 2.16226879,31.1085936 1.52711321,30.4754643 C0.892585529,29.8429608 0.5,28.9691718 0.5,28.0037973 L0.5,28.0037973 L0.5,3.99620271 C0.5,3.03081678 0.892464736,2.15689133 1.52705899,1.52432154 C2.16207806,0.891328301 3.03948725,0.5 4.0089921,0.5 L4.0089921,0.5 Z" id="Rectangle-77-Copy-4" stroke="#CCCCCC" fill="#FFFFFF"></path>
                    <g id="Group" transform="translate(14.500000, 5.000000)">
                        <text id="Text" font-family="PingFangTC-Semibold, PingFang TC" font-size="14" font-weight="500" line-spacing="22" fill="#545454">
                            <tspan x="18" y="15">default</tspan>
                        </text>
                        <g transform="translate(0.000000, 4.000000)" id="Icon/number/Plus-14px">
                            <mask id="mask-2" fill="white">
                                <use xlink:href="#path-1"></use>
                            </mask>
                            <use id="Mask" fill="#7F7F7F" xlink:href="#path-1"></use>
                        </g>
                    </g>
                </g>
                <g id="Button/Secondary/Basic/Medium">
                    <path d="M89.9910079,0.5 C90.9604813,0.5 91.8382192,0.891698703 92.4733682,1.52609756 C93.1077531,2.15973337 93.5,3.03543936 93.5,4.0042577 L93.5,4.0042577 L93.5,27.9957423 C93.5,28.9634676 93.1074529,29.8395568 92.4725847,30.4736753 C91.8376568,31.1078534 90.9603971,31.5 89.9910079,31.5 L89.9910079,31.5 L4.0089921,31.5 C3.03978986,31.5 2.16226879,31.1085936 1.52711321,30.4754643 C0.892585529,29.8429608 0.5,28.9691718 0.5,28.0037973 L0.5,28.0037973 L0.5,3.99620271 C0.5,3.03081678 0.892464736,2.15689133 1.52705899,1.52432154 C2.16207806,0.891328301 3.03948725,0.5 4.0089921,0.5 L4.0089921,0.5 Z" id="Rectangle-77-Copy-4" stroke="#CCCCCC" fill="#FFFFFF"></path>
                    <text id="Text" font-family="PingFangTC-Semibold, PingFang TC" font-size="14" font-weight="500" line-spacing="22" fill="#545454">
                        <tspan x="23.781" y="20">default</tspan>
                    </text>
                </g>
                <g id="Button/Secondary/Basic/Medium" transform="translate(134.000000, 0.000000)">
                    <path d="M89.9910079,0.5 C90.9604813,0.5 91.8382192,0.891698703 92.4733682,1.52609756 C93.1077531,2.15973337 93.5,3.03543936 93.5,4.0042577 L93.5,4.0042577 L93.5,27.9957423 C93.5,28.9634676 93.1074529,29.8395568 92.4725847,30.4736753 C91.8376568,31.1078534 90.9603971,31.5 89.9910079,31.5 L89.9910079,31.5 L4.0089921,31.5 C3.03978986,31.5 2.16226879,31.1085936 1.52711321,30.4754643 C0.892585529,29.8429608 0.5,28.9691718 0.5,28.0037973 L0.5,28.0037973 L0.5,3.99620271 C0.5,3.03081678 0.892464736,2.15689133 1.52705899,1.52432154 C2.16207806,0.891328301 3.03948725,0.5 4.0089921,0.5 L4.0089921,0.5 Z" id="Rectangle-77-Copy-4" stroke="#004477" fill="#FFFFFF"></path>
                    <text id="Text" font-family="PingFangTC-Semibold, PingFang TC" font-size="14" font-weight="500" line-spacing="22" fill="#545454">
                        <tspan x="28.632" y="20">hover</tspan>
                    </text>
                </g>
                <g id="Button/Secondary/Basic/Medium-Copy" transform="translate(268.000000, 0.000000)">
                    <path d="M89.9910079,0.5 C90.9604813,0.5 91.8382192,0.891698703 92.4733682,1.52609756 C93.1077531,2.15973337 93.5,3.03543936 93.5,4.0042577 L93.5,4.0042577 L93.5,27.9957423 C93.5,28.9634676 93.1074529,29.8395568 92.4725847,30.4736753 C91.8376568,31.1078534 90.9603971,31.5 89.9910079,31.5 L89.9910079,31.5 L4.0089921,31.5 C3.03978986,31.5 2.16226879,31.1085936 1.52711321,30.4754643 C0.892585529,29.8429608 0.5,28.9691718 0.5,28.0037973 L0.5,28.0037973 L0.5,3.99620271 C0.5,3.03081678 0.892464736,2.15689133 1.52705899,1.52432154 C2.16207806,0.891328301 3.03948725,0.5 4.0089921,0.5 L4.0089921,0.5 Z" id="Rectangle-77-Copy-4" stroke="#004477" fill="#FFFFFF"></path>
                    <text id="Text" font-family="PingFangTC-Semibold, PingFang TC" font-size="14" font-weight="500" line-spacing="22" fill="#545454">
                        <tspan x="31.572" y="20">click</tspan>
                    </text>
                </g>
                <g id="Button/Secondary/Basic/Medium" transform="translate(402.000000, 0.000000)">
                    <path d="M89.9910079,0.5 C90.9604813,0.5 91.8382192,0.891698703 92.4733682,1.52609756 C93.1077531,2.15973337 93.5,3.03543936 93.5,4.0042577 L93.5,4.0042577 L93.5,27.9957423 C93.5,28.9634676 93.1074529,29.8395568 92.4725847,30.4736753 C91.8376568,31.1078534 90.9603971,31.5 89.9910079,31.5 L89.9910079,31.5 L4.0089921,31.5 C3.03978986,31.5 2.16226879,31.1085936 1.52711321,30.4754643 C0.892585529,29.8429608 0.5,28.9691718 0.5,28.0037973 L0.5,28.0037973 L0.5,3.99620271 C0.5,3.03081678 0.892464736,2.15689133 1.52705899,1.52432154 C2.16207806,0.891328301 3.03948725,0.5 4.0089921,0.5 L4.0089921,0.5 Z" id="Rectangle-77-Copy-4" stroke="#E5E5E5" fill="#FFFFFF"></path>
                    <text id="Text" font-family="PingFangTC-Semibold, PingFang TC" font-size="14" font-weight="500" line-spacing="22" fill="#B4B4B4">
                        <tspan x="19.007" y="20">disabled</tspan>
                    </text>
                </g>
                <g id="Button/Secondary/Icon/Medium" transform="translate(134.000000, 52.000000)">
                    <path d="M89.9910079,0.5 C90.9604813,0.5 91.8382192,0.891698703 92.4733682,1.52609756 C93.1077531,2.15973337 93.5,3.03543936 93.5,4.0042577 L93.5,4.0042577 L93.5,27.9957423 C93.5,28.9634676 93.1074529,29.8395568 92.4725847,30.4736753 C91.8376568,31.1078534 90.9603971,31.5 89.9910079,31.5 L89.9910079,31.5 L4.0089921,31.5 C3.03978986,31.5 2.16226879,31.1085936 1.52711321,30.4754643 C0.892585529,29.8429608 0.5,28.9691718 0.5,28.0037973 L0.5,28.0037973 L0.5,3.99620271 C0.5,3.03081678 0.892464736,2.15689133 1.52705899,1.52432154 C2.16207806,0.891328301 3.03948725,0.5 4.0089921,0.5 L4.0089921,0.5 Z" id="Rectangle-77-Copy-4" stroke="#004477" fill="#FFFFFF"></path>
                    <g id="Group" transform="translate(19.500000, 5.000000)">
                        <text id="Text" font-family="PingFangTC-Semibold, PingFang TC" font-size="14" font-weight="500" line-spacing="22" fill="#004477">
                            <tspan x="18" y="15">hover</tspan>
                        </text>
                        <g transform="translate(0.000000, 4.000000)" id="Icon/number/Plus-14px">
                            <mask id="mask-4" fill="white">
                                <use xlink:href="#path-3"></use>
                            </mask>
                            <use id="Mask" fill="#004477" xlink:href="#path-3"></use>
                        </g>
                    </g>
                </g>
                <g id="Button/Secondary/Icon/Medium-Copy" transform="translate(268.000000, 52.000000)">
                    <path d="M89.9910079,0.5 C90.9604813,0.5 91.8382192,0.891698703 92.4733682,1.52609756 C93.1077531,2.15973337 93.5,3.03543936 93.5,4.0042577 L93.5,4.0042577 L93.5,27.9957423 C93.5,28.9634676 93.1074529,29.8395568 92.4725847,30.4736753 C91.8376568,31.1078534 90.9603971,31.5 89.9910079,31.5 L89.9910079,31.5 L4.0089921,31.5 C3.03978986,31.5 2.16226879,31.1085936 1.52711321,30.4754643 C0.892585529,29.8429608 0.5,28.9691718 0.5,28.0037973 L0.5,28.0037973 L0.5,3.99620271 C0.5,3.03081678 0.892464736,2.15689133 1.52705899,1.52432154 C2.16207806,0.891328301 3.03948725,0.5 4.0089921,0.5 L4.0089921,0.5 Z" id="Rectangle-77-Copy-4" stroke="#004477" fill="#FFFFFF"></path>
                    <g id="Group" transform="translate(22.500000, 5.000000)">
                        <text id="Text" font-family="PingFangTC-Semibold, PingFang TC" font-size="14" font-weight="500" line-spacing="22" fill="#004477">
                            <tspan x="18" y="15">click</tspan>
                        </text>
                        <g transform="translate(0.000000, 4.000000)" id="Icon/number/Plus-14px">
                            <mask id="mask-6" fill="white">
                                <use xlink:href="#path-5"></use>
                            </mask>
                            <use id="Mask" fill="#004477" xlink:href="#path-5"></use>
                        </g>
                    </g>
                </g>
                <g id="Button/Secondary/Icon/Medium" transform="translate(402.000000, 52.000000)">
                    <path d="M89.9910079,0.5 C90.9604813,0.5 91.8382192,0.891698703 92.4733682,1.52609756 C93.1077531,2.15973337 93.5,3.03543936 93.5,4.0042577 L93.5,4.0042577 L93.5,27.9957423 C93.5,28.9634676 93.1074529,29.8395568 92.4725847,30.4736753 C91.8376568,31.1078534 90.9603971,31.5 89.9910079,31.5 L89.9910079,31.5 L4.0089921,31.5 C3.03978986,31.5 2.16226879,31.1085936 1.52711321,30.4754643 C0.892585529,29.8429608 0.5,28.9691718 0.5,28.0037973 L0.5,28.0037973 L0.5,3.99620271 C0.5,3.03081678 0.892464736,2.15689133 1.52705899,1.52432154 C2.16207806,0.891328301 3.03948725,0.5 4.0089921,0.5 L4.0089921,0.5 Z" id="Rectangle-77-Copy-4" stroke="#E5E5E5" fill="#FFFFFF"></path>
                    <g id="Group" transform="translate(10.000000, 5.000000)">
                        <text id="Text" font-family="PingFangTC-Semibold, PingFang TC" font-size="14" font-weight="500" line-spacing="22" fill="#B4B4B4">
                            <tspan x="18.007" y="15">disabled</tspan>
                        </text>
                        <g transform="translate(0.000000, 4.000000)" id="Icon/number/Plus-14px">
                            <mask id="mask-8" fill="white">
                                <use xlink:href="#path-7"></use>
                            </mask>
                            <use id="Mask" fill="#B4B4B4" xlink:href="#path-7"></use>
                        </g>
                    </g>
                </g>
            </g>
            <g id="Group-6" transform="translate(40.000000, 25.000000)">
                <g id="Button/Primary/Basic/Medium">
                    <path d="M78.0033698,0.5 C78.9692514,0.5 79.8436682,0.891571902 80.4764402,1.52555152 C81.1090084,2.15932694 81.5,3.03526222 81.5,4.0042577 L81.5,4.0042577 L81.5,27.9957423 C81.5,28.9635717 81.1086105,29.8398215 80.4755763,30.4740639 C79.8429466,31.107901 78.9689603,31.5 78.0033698,31.5 L78.0033698,31.5 L3.99663018,31.5 C3.03101882,31.5 2.15681779,31.1087207 1.52403913,30.4760098 C0.891328439,29.8433667 0.5,28.969348 0.5,28.0037973 L0.5,28.0037973 L0.5,3.99620271 C0.5,3.03071308 0.891306687,2.15662671 1.52406786,1.52393321 C2.15678869,0.891280059 3.03092472,0.5 3.99663018,0.5 L3.99663018,0.5 Z" id="Rectangle-77-Copy-4" stroke="#CCCCCC" fill="#FFFFFF"></path>
                    <text id="Text" font-family="PingFangTC-Semibold, PingFang TC" font-size="14" font-weight="500" line-spacing="22" fill="#545454">
                        <tspan x="14.309" y="20">Medium</tspan>
                    </text>
                </g>
                <text id="font-size:-14px-Radi" font-family="PingFangTC-Regular, PingFang TC" font-size="16" font-weight="normal" line-spacing="24" fill="#4C4C4C">
                    <tspan x="0" y="128">font-size: 14px</tspan>
                    <tspan x="0" y="152">Radius: 4px</tspan>
                </text>
                <g id="size-width:-Button/Primary/Basic/Medium" transform="translate(0.000000, 32.000000)">
                    <g id="Group" transform="translate(0.000000, 16.500000)" fill="#FF5500" fill-rule="nonzero">
                        <g id="line">
                            <path id="Line" d="M19,9 L18,9 L18,5 L1,5 L1,9 L0,9 L0,0 L1,0 L1,4 L18,4 L18,0 L19,0 L19,9 Z"></path>
                        </g>
                    </g>
                    <g id="Number" transform="translate(-12.000000, 26.000000)">
                        <path d="M21.5,0 L24.5,3 L41,3 C42.1045695,3 43,3.8954305 43,5 L43,23 C43,24.1045695 42.1045695,25 41,25 L2,25 C0.8954305,25 1.3527075e-16,24.1045695 0,23 L0,5 C-1.3527075e-16,3.8954305 0.8954305,3 2,3 L18.5,3 L21.5,0 Z" id="Bg" fill="#FF5500"></path>
                        <text id="数据" font-family="Menlo-Regular, Menlo" font-size="12" font-weight="normal" fill="#FFFFFF">
                            <tspan x="7.05078125" y="18">14px</tspan>
                        </text>
                    </g>
                </g>
                <g id="size-width:-Button/Primary/Basic/Medium" transform="translate(63.000000, 32.000000)">
                    <g id="Group" transform="translate(0.000000, 16.500000)" fill="#FF5500" fill-rule="nonzero">
                        <g id="line">
                            <path id="Line" d="M19,9 L18,9 L18,5 L1,5 L1,9 L0,9 L0,0 L1,0 L1,4 L18,4 L18,0 L19,0 L19,9 Z"></path>
                        </g>
                    </g>
                    <g id="Number" transform="translate(-12.000000, 26.000000)">
                        <path d="M21.5,0 L24.5,3 L41,3 C42.1045695,3 43,3.8954305 43,5 L43,23 C43,24.1045695 42.1045695,25 41,25 L2,25 C0.8954305,25 1.3527075e-16,24.1045695 0,23 L0,5 C-1.3527075e-16,3.8954305 0.8954305,3 2,3 L18.5,3 L21.5,0 Z" id="Bg" fill="#FF5500"></path>
                        <text id="数据" font-family="Menlo-Regular, Menlo" font-size="12" font-weight="normal" fill="#FFFFFF">
                            <tspan x="7.05078125" y="18">14px</tspan>
                        </text>
                    </g>
                </g>
                <g id="size-height:-Button/Primary/Basic/Medium" transform="translate(83.000000, 0.000000)">
                    <g id="Group" transform="translate(16.500000, 0.000000)" fill="#FF5500" fill-rule="nonzero">
                        <g id="Line">
                            <path d="M5,0.999 L5,31 L9,31 L9,32 L0,32 L0,31 L4,31 L4,1 L0,1 L0,2.49800181e-16 L9,-2.49800181e-16 L9,1 L5,0.999 Z"></path>
                        </g>
                    </g>
                    <g id="Number" transform="translate(22.500000, 5.000000)">
                        <path d="M44,0 C45.1045695,-2.02906125e-16 46,0.8954305 46,2 L46,20 C46,21.1045695 45.1045695,22 44,22 L5,22 C3.8954305,22 3,21.1045695 3,20 L3,14 L0,11 L3,8 L3,2 C3,0.8954305 3.8954305,2.02906125e-16 5,0 L44,0 Z" id="Bg" fill="#FF5500"></path>
                        <text id="数据" font-family="Menlo-Regular, Menlo" font-size="12" font-weight="normal" fill="#FFFFFF">
                            <tspan x="10" y="15">32px</tspan>
                        </text>
                    </g>
                </g>
            </g>
        </g>
    </g>
</svg>