<?xml version="1.0" encoding="UTF-8"?>
<svg width="740px" height="345px" viewBox="0 0 740 345" version="1.1" xmlns="http://www.w3.org/2000/svg" xmlns:xlink="http://www.w3.org/1999/xlink">
    <title>button09</title>
    <defs>
        <path d="M18.9615885,17.9654948 L14.9440104,13.9498698 C16.0201823,12.6510417 16.6666667,10.985026 16.6666667,9.16666667 C16.6666667,5.02408854 13.3092448,1.66666667 9.16666667,1.66666667 C5.02408854,1.66666667 1.66666667,5.02408854 1.66666667,9.16666667 C1.66666667,13.3092448 5.02408854,16.6666667 9.16666667,16.6666667 C10.985026,16.6666667 12.6510417,16.0201823 13.9498698,14.9440104 L17.9674479,18.9615885 C18.1041667,19.0983073 18.2838542,19.1666667 18.4654948,19.1666667 C18.6471354,19.1666667 18.8248698,19.0983073 18.9635417,18.9615885 C19.235026,18.6861979 19.235026,18.2408854 18.9615885,17.9654948 Z M11.5377604,14.781901 C10.7877604,15.1002604 9.99088542,15.2604167 9.16666667,15.2604167 C8.34244792,15.2604167 7.54557292,15.1002604 6.79557292,14.781901 C6.07096354,14.4752604 5.41861979,14.0358073 4.85807292,13.4752604 C4.29752604,12.9147135 3.85807292,12.2623698 3.55143229,11.5377604 C3.23307292,10.7877604 3.07291667,9.99088542 3.07291667,9.16666667 C3.07291667,8.34244792 3.23307292,7.54557292 3.55143229,6.79557292 C3.85807292,6.07096354 4.29752604,5.41861979 4.85807292,4.85807292 C5.41861979,4.29752604 6.07096354,3.85807292 6.79557292,3.55143229 C7.54557292,3.23307292 8.34244792,3.07291667 9.16666667,3.07291667 C9.99088542,3.07291667 10.7877604,3.23307292 11.5377604,3.55143229 C12.2623698,3.85807292 12.9147135,4.29752604 13.4752604,4.85807292 C14.0358073,5.41861979 14.4752604,6.07096354 14.781901,6.79557292 C15.1002604,7.54557292 15.2604167,8.34244792 15.2604167,9.16666667 C15.2604167,9.99088542 15.1002604,10.7877604 14.781901,11.5377604 C14.4752604,12.2623698 14.0358073,12.9147135 13.4752604,13.4752604 C12.9147135,14.0358073 12.2643229,14.4752604 11.5377604,14.781901 Z" id="path-1"></path>
        <path d="M1.92382812,12.5058594 L2.02365027,12.5131906 C2.34941568,12.5614831 2.59960938,12.8425071 2.59960938,13.1816406 L2.59960938,13.1816406 L2.59960938,17 C2.59960938,17.2226562 2.78125,17.4023438 3.00195312,17.4023438 L3.00195312,17.4023438 L16.9960938,17.4023438 C17.21875,17.4023438 17.3984375,17.2207031 17.3984375,17 L17.3984375,17 L17.3984375,13.1835938 C17.3984375,12.8105469 17.7011719,12.5078125 18.0742188,12.5078125 L18.0742188,12.5078125 L18.1740409,12.5151422 C18.4998063,12.5634201 18.75,12.8442827 18.75,13.1816406 L18.75,13.1816406 L18.75,17.5351562 C18.75,18.203125 18.2070312,18.7480469 17.5371094,18.7480469 L17.5371094,18.7480469 L2.46289062,18.7480469 C1.79492188,18.7480469 1.25,18.2050781 1.25,17.5351562 L1.25,17.5351562 L1.25,13.1816406 C1.25,12.8105469 1.55078125,12.5058594 1.92382812,12.5058594 L1.92382812,12.5058594 Z M10.0195312,1.25 C10.1933594,1.25 10.3652344,1.31640625 10.4980469,1.44726562 L13.5410156,4.4921875 C13.8046875,4.75585938 13.8046875,5.18359375 13.5410156,5.44726562 C13.4394531,5.54882812 13.3103906,5.61414062 13.1708281,5.63620312 L13.0644531,5.64453125 L13.0644531,5.64453125 C12.8847656,5.64453125 12.7148438,5.57421875 12.5878906,5.44726562 L10.6953125,3.5546875 L10.6953125,14.8398437 C10.6953125,15.1789773 10.4451188,15.4600013 10.1193534,15.5082938 L10.0195312,15.515625 L10.0195312,15.515625 C9.64648438,15.515625 9.34375,15.2128906 9.34375,14.8398437 L9.34375,3.5546875 L7.45117188,5.44726562 C7.34570312,5.55273438 7.21398438,5.61601563 7.07714063,5.63710937 L6.97387695,5.64501953 C6.80126953,5.64501953 6.62890625,5.57910156 6.49804688,5.44726562 C6.234375,5.18359375 6.234375,4.75585938 6.49609375,4.4921875 L9.54101562,1.44726562 C9.671875,1.31640625 9.84570312,1.25 10.0195312,1.25 Z" id="path-3"></path>
        <path d="M16.8652344,9.296875 L10.6445312,9.296875 L10.6445312,3.23242188 C10.6445312,2.84375 10.3300781,2.52929688 9.94140625,2.52929688 L9.94140625,2.52929688 C9.55273438,2.52929688 9.23828125,2.84375 9.23828125,3.23242188 L9.23828125,9.296875 L3.15429688,9.296875 C2.765625,9.296875 2.45117188,9.61132812 2.45117188,10 L2.45117188,10 C2.45117188,10.3886719 2.765625,10.703125 3.15429688,10.703125 L9.23828125,10.703125 L9.23828125,16.7871094 C9.23828125,17.1757812 9.55273438,17.4902344 9.94140625,17.4902344 L9.94140625,17.4902344 C10.3300781,17.4902344 10.6445312,17.1757812 10.6445312,16.7871094 L10.6445312,10.703125 L16.8652344,10.703125 C17.2539062,10.703125 17.5683594,10.3886719 17.5683594,10 L17.5683594,10 C17.5683594,9.61132812 17.2539062,9.296875 16.8652344,9.296875 Z" id="path-5"></path>
        <path d="M11.7971588,10.5005826 L17.73102,4.56723375 C18.08966,4.20834304 18.08966,3.62805873 17.73102,3.27149849 C17.3723801,2.91260778 16.7925012,2.91260778 16.43619,3.27149849 L10.5,9.2025169 L4.56380997,3.26916803 C4.20517,2.91027732 3.6252911,2.91027732 3.26897997,3.26916803 C2.91034001,3.62805873 2.91034001,4.20834304 3.26897997,4.56490329 L9.20284117,10.4982522 L3.26897997,16.4339315 C2.91034001,16.7928222 2.91034001,17.3731065 3.26897997,17.7296667 C3.44829995,17.9091121 3.68351188,17.9976695 3.91639497,17.9976695 C4.15160689,17.9976695 4.38448999,17.9091121 4.56380997,17.7296667 L10.5,11.7963179 L16.43619,17.7319972 C16.61551,17.9114426 16.8483931,18 17.083605,18 C17.318817,18 17.5517,17.9114426 17.73102,17.7319972 C18.08966,17.3731065 18.08966,16.7928222 17.73102,16.4362619 L11.7971588,10.5005826 Z" id="path-7"></path>
        <path d="M26.9408723,32 L22.34375,37 L17.7466277,32 L26.9408723,32 Z M39.99819,0 C42.2083286,0 44,1.78902751 44,4.0042577 L44,27.9957423 C44,30.2072328 42.2069088,32 39.99819,32 L4.00180999,32 C1.79167136,32 -3.10862447e-15,30.2109725 -3.10862447e-15,27.9957423 L-3.10862447e-15,4.0042577 C-3.10862447e-15,1.79276724 1.79309123,0 4.00180999,0 L39.99819,0 Z" id="path-9"></path>
        <filter x="-29.5%" y="-29.7%" width="159.1%" height="170.3%" filterUnits="objectBoundingBox" id="filter-10">
            <feOffset dx="0" dy="2" in="SourceAlpha" result="shadowOffsetOuter1"></feOffset>
            <feGaussianBlur stdDeviation="4" in="shadowOffsetOuter1" result="shadowBlurOuter1"></feGaussianBlur>
            <feComposite in="shadowBlurOuter1" in2="SourceAlpha" operator="out" result="shadowBlurOuter1"></feComposite>
            <feColorMatrix values="0 0 0 0 0   0 0 0 0 0   0 0 0 0 0  0 0 0 0.15 0" type="matrix" in="shadowBlurOuter1"></feColorMatrix>
        </filter>
        <path d="M26.9408723,32 L22.34375,37 L17.7466277,32 L26.9408723,32 Z M39.99819,0 C42.2083286,0 44,1.78902751 44,4.0042577 L44,27.9957423 C44,30.2072328 42.2069088,32 39.99819,32 L4.00180999,32 C1.79167136,32 -3.10862447e-15,30.2109725 -3.10862447e-15,27.9957423 L-3.10862447e-15,4.0042577 C-3.10862447e-15,1.79276724 1.79309123,0 4.00180999,0 L39.99819,0 Z" id="path-11"></path>
        <filter x="-29.5%" y="-29.7%" width="159.1%" height="170.3%" filterUnits="objectBoundingBox" id="filter-12">
            <feOffset dx="0" dy="2" in="SourceAlpha" result="shadowOffsetOuter1"></feOffset>
            <feGaussianBlur stdDeviation="4" in="shadowOffsetOuter1" result="shadowBlurOuter1"></feGaussianBlur>
            <feComposite in="shadowBlurOuter1" in2="SourceAlpha" operator="out" result="shadowBlurOuter1"></feComposite>
            <feColorMatrix values="0 0 0 0 0   0 0 0 0 0   0 0 0 0 0  0 0 0 0.15 0" type="matrix" in="shadowBlurOuter1"></feColorMatrix>
        </filter>
        <path d="M26.9408723,32 L22.34375,37 L17.7466277,32 L26.9408723,32 Z M39.99819,0 C42.2083286,0 44,1.78902751 44,4.0042577 L44,27.9957423 C44,30.2072328 42.2069088,32 39.99819,32 L4.00180999,32 C1.79167136,32 -3.10862447e-15,30.2109725 -3.10862447e-15,27.9957423 L-3.10862447e-15,4.0042577 C-3.10862447e-15,1.79276724 1.79309123,0 4.00180999,0 L39.99819,0 Z" id="path-13"></path>
        <filter x="-29.5%" y="-29.7%" width="159.1%" height="170.3%" filterUnits="objectBoundingBox" id="filter-14">
            <feOffset dx="0" dy="2" in="SourceAlpha" result="shadowOffsetOuter1"></feOffset>
            <feGaussianBlur stdDeviation="4" in="shadowOffsetOuter1" result="shadowBlurOuter1"></feGaussianBlur>
            <feComposite in="shadowBlurOuter1" in2="SourceAlpha" operator="out" result="shadowBlurOuter1"></feComposite>
            <feColorMatrix values="0 0 0 0 0   0 0 0 0 0   0 0 0 0 0  0 0 0 0.15 0" type="matrix" in="shadowBlurOuter1"></feColorMatrix>
        </filter>
        <path d="M41.1596223,32 L36.5625,37 L31.9653777,32 L41.1596223,32 Z M68.0005854,0 C70.2094011,0 72,1.78902751 72,4.0042577 L72,27.9957423 C72,30.2072328 70.2022516,32 68.0005854,32 L3.99941455,32 C1.79059889,32 -4.4408921e-15,30.2109725 -4.4408921e-15,27.9957423 L-4.4408921e-15,4.0042577 C-4.4408921e-15,1.79276724 1.79774843,0 3.99941455,0 L68.0005854,0 Z" id="path-15"></path>
        <filter x="-18.1%" y="-29.7%" width="136.1%" height="170.3%" filterUnits="objectBoundingBox" id="filter-16">
            <feOffset dx="0" dy="2" in="SourceAlpha" result="shadowOffsetOuter1"></feOffset>
            <feGaussianBlur stdDeviation="4" in="shadowOffsetOuter1" result="shadowBlurOuter1"></feGaussianBlur>
            <feComposite in="shadowBlurOuter1" in2="SourceAlpha" operator="out" result="shadowBlurOuter1"></feComposite>
            <feColorMatrix values="0 0 0 0 0   0 0 0 0 0   0 0 0 0 0  0 0 0 0.15 0" type="matrix" in="shadowBlurOuter1"></feColorMatrix>
        </filter>
        <path d="M26.9408723,32 L22.34375,37 L17.7466277,32 L26.9408723,32 Z M39.99819,0 C42.2083286,0 44,1.78902751 44,4.0042577 L44,27.9957423 C44,30.2072328 42.2069088,32 39.99819,32 L4.00180999,32 C1.79167136,32 -3.10862447e-15,30.2109725 -3.10862447e-15,27.9957423 L-3.10862447e-15,4.0042577 C-3.10862447e-15,1.79276724 1.79309123,0 4.00180999,0 L39.99819,0 Z" id="path-17"></path>
        <filter x="-29.5%" y="-29.7%" width="159.1%" height="170.3%" filterUnits="objectBoundingBox" id="filter-18">
            <feOffset dx="0" dy="2" in="SourceAlpha" result="shadowOffsetOuter1"></feOffset>
            <feGaussianBlur stdDeviation="4" in="shadowOffsetOuter1" result="shadowBlurOuter1"></feGaussianBlur>
            <feComposite in="shadowBlurOuter1" in2="SourceAlpha" operator="out" result="shadowBlurOuter1"></feComposite>
            <feColorMatrix values="0 0 0 0 0   0 0 0 0 0   0 0 0 0 0  0 0 0 0.15 0" type="matrix" in="shadowBlurOuter1"></feColorMatrix>
        </filter>
        <path d="M26.9408723,32 L22.34375,37 L17.7466277,32 L26.9408723,32 Z M39.99819,0 C42.2083286,0 44,1.78902751 44,4.0042577 L44,27.9957423 C44,30.2072328 42.2069088,32 39.99819,32 L4.00180999,32 C1.79167136,32 -3.10862447e-15,30.2109725 -3.10862447e-15,27.9957423 L-3.10862447e-15,4.0042577 C-3.10862447e-15,1.79276724 1.79309123,0 4.00180999,0 L39.99819,0 Z" id="path-19"></path>
        <filter x="-29.5%" y="-29.7%" width="159.1%" height="170.3%" filterUnits="objectBoundingBox" id="filter-20">
            <feOffset dx="0" dy="2" in="SourceAlpha" result="shadowOffsetOuter1"></feOffset>
            <feGaussianBlur stdDeviation="4" in="shadowOffsetOuter1" result="shadowBlurOuter1"></feGaussianBlur>
            <feComposite in="shadowBlurOuter1" in2="SourceAlpha" operator="out" result="shadowBlurOuter1"></feComposite>
            <feColorMatrix values="0 0 0 0 0   0 0 0 0 0   0 0 0 0 0  0 0 0 0.15 0" type="matrix" in="shadowBlurOuter1"></feColorMatrix>
        </filter>
        <path d="M26.9408723,32 L22.34375,37 L17.7466277,32 L26.9408723,32 Z M39.99819,0 C42.2083286,0 44,1.78902751 44,4.0042577 L44,27.9957423 C44,30.2072328 42.2069088,32 39.99819,32 L4.00180999,32 C1.79167136,32 -3.10862447e-15,30.2109725 -3.10862447e-15,27.9957423 L-3.10862447e-15,4.0042577 C-3.10862447e-15,1.79276724 1.79309123,0 4.00180999,0 L39.99819,0 Z" id="path-21"></path>
        <filter x="-29.5%" y="-29.7%" width="159.1%" height="170.3%" filterUnits="objectBoundingBox" id="filter-22">
            <feOffset dx="0" dy="2" in="SourceAlpha" result="shadowOffsetOuter1"></feOffset>
            <feGaussianBlur stdDeviation="4" in="shadowOffsetOuter1" result="shadowBlurOuter1"></feGaussianBlur>
            <feComposite in="shadowBlurOuter1" in2="SourceAlpha" operator="out" result="shadowBlurOuter1"></feComposite>
            <feColorMatrix values="0 0 0 0 0   0 0 0 0 0   0 0 0 0 0  0 0 0 0.15 0" type="matrix" in="shadowBlurOuter1"></feColorMatrix>
        </filter>
        <path d="M26.9408723,32 L22.34375,37 L17.7466277,32 L26.9408723,32 Z M39.99819,0 C42.2083286,0 44,1.78902751 44,4.0042577 L44,27.9957423 C44,30.2072328 42.2069088,32 39.99819,32 L4.00180999,32 C1.79167136,32 -3.10862447e-15,30.2109725 -3.10862447e-15,27.9957423 L-3.10862447e-15,4.0042577 C-3.10862447e-15,1.79276724 1.79309123,0 4.00180999,0 L39.99819,0 Z" id="path-23"></path>
        <filter x="-29.5%" y="-29.7%" width="159.1%" height="170.3%" filterUnits="objectBoundingBox" id="filter-24">
            <feOffset dx="0" dy="2" in="SourceAlpha" result="shadowOffsetOuter1"></feOffset>
            <feGaussianBlur stdDeviation="4" in="shadowOffsetOuter1" result="shadowBlurOuter1"></feGaussianBlur>
            <feComposite in="shadowBlurOuter1" in2="SourceAlpha" operator="out" result="shadowBlurOuter1"></feComposite>
            <feColorMatrix values="0 0 0 0 0   0 0 0 0 0   0 0 0 0 0  0 0 0 0.15 0" type="matrix" in="shadowBlurOuter1"></feColorMatrix>
        </filter>
        <path d="M26.9408723,32 L22.34375,37 L17.7466277,32 L26.9408723,32 Z M39.99819,0 C42.2083286,0 44,1.78902751 44,4.0042577 L44,27.9957423 C44,30.2072328 42.2069088,32 39.99819,32 L4.00180999,32 C1.79167136,32 -3.10862447e-15,30.2109725 -3.10862447e-15,27.9957423 L-3.10862447e-15,4.0042577 C-3.10862447e-15,1.79276724 1.79309123,0 4.00180999,0 L39.99819,0 Z" id="path-25"></path>
        <filter x="-29.5%" y="-29.7%" width="159.1%" height="170.3%" filterUnits="objectBoundingBox" id="filter-26">
            <feOffset dx="0" dy="2" in="SourceAlpha" result="shadowOffsetOuter1"></feOffset>
            <feGaussianBlur stdDeviation="4" in="shadowOffsetOuter1" result="shadowBlurOuter1"></feGaussianBlur>
            <feComposite in="shadowBlurOuter1" in2="SourceAlpha" operator="out" result="shadowBlurOuter1"></feComposite>
            <feColorMatrix values="0 0 0 0 0   0 0 0 0 0   0 0 0 0 0  0 0 0 0.15 0" type="matrix" in="shadowBlurOuter1"></feColorMatrix>
        </filter>
        <path d="M26.9408723,32 L22.34375,37 L17.7466277,32 L26.9408723,32 Z M39.99819,0 C42.2083286,0 44,1.78902751 44,4.0042577 L44,27.9957423 C44,30.2072328 42.2069088,32 39.99819,32 L4.00180999,32 C1.79167136,32 -3.10862447e-15,30.2109725 -3.10862447e-15,27.9957423 L-3.10862447e-15,4.0042577 C-3.10862447e-15,1.79276724 1.79309123,0 4.00180999,0 L39.99819,0 Z" id="path-27"></path>
        <filter x="-29.5%" y="-29.7%" width="159.1%" height="170.3%" filterUnits="objectBoundingBox" id="filter-28">
            <feOffset dx="0" dy="2" in="SourceAlpha" result="shadowOffsetOuter1"></feOffset>
            <feGaussianBlur stdDeviation="4" in="shadowOffsetOuter1" result="shadowBlurOuter1"></feGaussianBlur>
            <feComposite in="shadowBlurOuter1" in2="SourceAlpha" operator="out" result="shadowBlurOuter1"></feComposite>
            <feColorMatrix values="0 0 0 0 0   0 0 0 0 0   0 0 0 0 0  0 0 0 0.15 0" type="matrix" in="shadowBlurOuter1"></feColorMatrix>
        </filter>
        <path d="M26.9408723,32 L22.34375,37 L17.7466277,32 L26.9408723,32 Z M39.99819,0 C42.2083286,0 44,1.78902751 44,4.0042577 L44,27.9957423 C44,30.2072328 42.2069088,32 39.99819,32 L4.00180999,32 C1.79167136,32 -3.10862447e-15,30.2109725 -3.10862447e-15,27.9957423 L-3.10862447e-15,4.0042577 C-3.10862447e-15,1.79276724 1.79309123,0 4.00180999,0 L39.99819,0 Z" id="path-29"></path>
        <filter x="-29.5%" y="-29.7%" width="159.1%" height="170.3%" filterUnits="objectBoundingBox" id="filter-30">
            <feOffset dx="0" dy="2" in="SourceAlpha" result="shadowOffsetOuter1"></feOffset>
            <feGaussianBlur stdDeviation="4" in="shadowOffsetOuter1" result="shadowBlurOuter1"></feGaussianBlur>
            <feComposite in="shadowBlurOuter1" in2="SourceAlpha" operator="out" result="shadowBlurOuter1"></feComposite>
            <feColorMatrix values="0 0 0 0 0   0 0 0 0 0   0 0 0 0 0  0 0 0 0.15 0" type="matrix" in="shadowBlurOuter1"></feColorMatrix>
        </filter>
        <path d="M26.9408723,32 L22.34375,37 L17.7466277,32 L26.9408723,32 Z M39.99819,0 C42.2083286,0 44,1.78902751 44,4.0042577 L44,27.9957423 C44,30.2072328 42.2069088,32 39.99819,32 L4.00180999,32 C1.79167136,32 -3.10862447e-15,30.2109725 -3.10862447e-15,27.9957423 L-3.10862447e-15,4.0042577 C-3.10862447e-15,1.79276724 1.79309123,0 4.00180999,0 L39.99819,0 Z" id="path-31"></path>
        <filter x="-29.5%" y="-29.7%" width="159.1%" height="170.3%" filterUnits="objectBoundingBox" id="filter-32">
            <feOffset dx="0" dy="2" in="SourceAlpha" result="shadowOffsetOuter1"></feOffset>
            <feGaussianBlur stdDeviation="4" in="shadowOffsetOuter1" result="shadowBlurOuter1"></feGaussianBlur>
            <feComposite in="shadowBlurOuter1" in2="SourceAlpha" operator="out" result="shadowBlurOuter1"></feComposite>
            <feColorMatrix values="0 0 0 0 0   0 0 0 0 0   0 0 0 0 0  0 0 0 0.15 0" type="matrix" in="shadowBlurOuter1"></feColorMatrix>
        </filter>
        <path d="M26.9408723,32 L22.34375,37 L17.7466277,32 L26.9408723,32 Z M39.99819,0 C42.2083286,0 44,1.78902751 44,4.0042577 L44,27.9957423 C44,30.2072328 42.2069088,32 39.99819,32 L4.00180999,32 C1.79167136,32 -3.10862447e-15,30.2109725 -3.10862447e-15,27.9957423 L-3.10862447e-15,4.0042577 C-3.10862447e-15,1.79276724 1.79309123,0 4.00180999,0 L39.99819,0 Z" id="path-33"></path>
        <filter x="-29.5%" y="-29.7%" width="159.1%" height="170.3%" filterUnits="objectBoundingBox" id="filter-34">
            <feOffset dx="0" dy="2" in="SourceAlpha" result="shadowOffsetOuter1"></feOffset>
            <feGaussianBlur stdDeviation="4" in="shadowOffsetOuter1" result="shadowBlurOuter1"></feGaussianBlur>
            <feComposite in="shadowBlurOuter1" in2="SourceAlpha" operator="out" result="shadowBlurOuter1"></feComposite>
            <feColorMatrix values="0 0 0 0 0   0 0 0 0 0   0 0 0 0 0  0 0 0 0.15 0" type="matrix" in="shadowBlurOuter1"></feColorMatrix>
        </filter>
        <path d="M26.9408723,32 L22.34375,37 L17.7466277,32 L26.9408723,32 Z M39.99819,0 C42.2083286,0 44,1.78902751 44,4.0042577 L44,27.9957423 C44,30.2072328 42.2069088,32 39.99819,32 L4.00180999,32 C1.79167136,32 -3.10862447e-15,30.2109725 -3.10862447e-15,27.9957423 L-3.10862447e-15,4.0042577 C-3.10862447e-15,1.79276724 1.79309123,0 4.00180999,0 L39.99819,0 Z" id="path-35"></path>
        <filter x="-29.5%" y="-29.7%" width="159.1%" height="170.3%" filterUnits="objectBoundingBox" id="filter-36">
            <feOffset dx="0" dy="2" in="SourceAlpha" result="shadowOffsetOuter1"></feOffset>
            <feGaussianBlur stdDeviation="4" in="shadowOffsetOuter1" result="shadowBlurOuter1"></feGaussianBlur>
            <feComposite in="shadowBlurOuter1" in2="SourceAlpha" operator="out" result="shadowBlurOuter1"></feComposite>
            <feColorMatrix values="0 0 0 0 0   0 0 0 0 0   0 0 0 0 0  0 0 0 0.15 0" type="matrix" in="shadowBlurOuter1"></feColorMatrix>
        </filter>
        <path d="M41.1596223,32 L36.5625,37 L31.9653777,32 L41.1596223,32 Z M68.0005854,0 C70.2094011,0 72,1.78902751 72,4.0042577 L72,27.9957423 C72,30.2072328 70.2022516,32 68.0005854,32 L3.99941455,32 C1.79059889,32 -4.4408921e-15,30.2109725 -4.4408921e-15,27.9957423 L-4.4408921e-15,4.0042577 C-4.4408921e-15,1.79276724 1.79774843,0 3.99941455,0 L68.0005854,0 Z" id="path-37"></path>
        <filter x="-18.1%" y="-29.7%" width="136.1%" height="170.3%" filterUnits="objectBoundingBox" id="filter-38">
            <feOffset dx="0" dy="2" in="SourceAlpha" result="shadowOffsetOuter1"></feOffset>
            <feGaussianBlur stdDeviation="4" in="shadowOffsetOuter1" result="shadowBlurOuter1"></feGaussianBlur>
            <feComposite in="shadowBlurOuter1" in2="SourceAlpha" operator="out" result="shadowBlurOuter1"></feComposite>
            <feColorMatrix values="0 0 0 0 0   0 0 0 0 0   0 0 0 0 0  0 0 0 0.15 0" type="matrix" in="shadowBlurOuter1"></feColorMatrix>
        </filter>
        <path d="M41.1596223,32 L36.5625,37 L31.9653777,32 L41.1596223,32 Z M68.0005854,0 C70.2094011,0 72,1.78902751 72,4.0042577 L72,27.9957423 C72,30.2072328 70.2022516,32 68.0005854,32 L3.99941455,32 C1.79059889,32 -4.4408921e-15,30.2109725 -4.4408921e-15,27.9957423 L-4.4408921e-15,4.0042577 C-4.4408921e-15,1.79276724 1.79774843,0 3.99941455,0 L68.0005854,0 Z" id="path-39"></path>
        <filter x="-18.1%" y="-29.7%" width="136.1%" height="170.3%" filterUnits="objectBoundingBox" id="filter-40">
            <feOffset dx="0" dy="2" in="SourceAlpha" result="shadowOffsetOuter1"></feOffset>
            <feGaussianBlur stdDeviation="4" in="shadowOffsetOuter1" result="shadowBlurOuter1"></feGaussianBlur>
            <feComposite in="shadowBlurOuter1" in2="SourceAlpha" operator="out" result="shadowBlurOuter1"></feComposite>
            <feColorMatrix values="0 0 0 0 0   0 0 0 0 0   0 0 0 0 0  0 0 0 0.15 0" type="matrix" in="shadowBlurOuter1"></feColorMatrix>
        </filter>
        <path d="M26.9408723,32 L22.34375,37 L17.7466277,32 L26.9408723,32 Z M39.99819,0 C42.2083286,0 44,1.78902751 44,4.0042577 L44,27.9957423 C44,30.2072328 42.2069088,32 39.99819,32 L4.00180999,32 C1.79167136,32 -3.10862447e-15,30.2109725 -3.10862447e-15,27.9957423 L-3.10862447e-15,4.0042577 C-3.10862447e-15,1.79276724 1.79309123,0 4.00180999,0 L39.99819,0 Z" id="path-41"></path>
        <filter x="-29.5%" y="-29.7%" width="159.1%" height="170.3%" filterUnits="objectBoundingBox" id="filter-42">
            <feOffset dx="0" dy="2" in="SourceAlpha" result="shadowOffsetOuter1"></feOffset>
            <feGaussianBlur stdDeviation="4" in="shadowOffsetOuter1" result="shadowBlurOuter1"></feGaussianBlur>
            <feComposite in="shadowBlurOuter1" in2="SourceAlpha" operator="out" result="shadowBlurOuter1"></feComposite>
            <feColorMatrix values="0 0 0 0 0   0 0 0 0 0   0 0 0 0 0  0 0 0 0.15 0" type="matrix" in="shadowBlurOuter1"></feColorMatrix>
        </filter>
    </defs>
    <g id="XXXGuideline" stroke="none" stroke-width="1" fill="none" fill-rule="evenodd">
        <g id="button09">
            <rect id="bg" x="0" y="0" width="740" height="345" rx="18"></rect>
            <g id="Group-5" transform="translate(30.000000, 147.000000)">
                <g id="Combined-Shape" transform="translate(76.000000, 64.000000)" fill="#7F7F7F">
                    <path d="M13.1002431,1.51762964 C13.7924814,0.825391309 14.9153909,0.825960627 15.6083315,1.51890125 L15.6083315,1.51890125 L18.4761715,4.38674123 C19.1691121,5.07968185 19.1696814,6.20259127 18.4774431,6.8948296 L18.4774431,6.8948296 L7.26672768,18.105545 C6.98449211,18.3877806 6.61516524,18.566404 6.2185374,18.612498 L6.2185374,18.612498 L2.98372661,18.9884307 C2.01091869,19.1014854 1.12985346,18.4044243 1.01581235,17.4315012 C0.999989366,17.29651 0.999733056,17.1601632 1.01504847,17.0251451 L1.01504847,17.0251451 L1.38312193,13.7802697 C1.42831479,13.3818569 1.6072148,13.0106579 1.89063038,12.7272424 L1.89063038,12.7272424 Z M11.349,5.419 L2.96607037,13.8026824 C2.92558243,13.8431703 2.90002528,13.8961987 2.89356916,13.9531148 L2.89356916,13.9531148 L2.5254957,17.1979902 C2.52330778,17.2172785 2.5233444,17.2367566 2.52560482,17.2560411 C2.54189641,17.3950301 2.66776287,17.4946102 2.80673543,17.4784596 L2.80673543,17.4784596 L6.04154622,17.1025269 C6.09820734,17.095942 6.15096832,17.0704244 6.19128769,17.030105 L6.19128769,17.030105 L14.577,8.644 L11.349,5.419 Z M14.5339814,2.59325129 C14.4349899,2.49425978 14.2745743,2.49417844 14.1756831,2.59306964 L14.1756831,2.59306964 L12.4237154,4.34529769 L15.651,7.57 L17.4020031,5.81938961 C17.4844124,5.73698028 17.4980908,5.61184565 17.4430744,5.5151365 L17.4018214,5.46109127 Z"></path>
                </g>
                <g id="Shape" transform="translate(12.000000, 64.000000)" fill="#7F7F7F">
                    <path d="M10,2.875 C14.0958061,2.875 19,7.67162985 19,10 C19,12.2037099 14.461122,16.7676123 10.5089582,17.1042287 L10.2771933,17.1191042 L10,17.125 C5.90419386,17.125 1,12.3283701 1,10 C1,7.79629005 5.53887799,3.23238773 9.49104178,2.89577132 L9.72280665,2.88089578 L10,2.875 Z M10,4.625 C8.23998877,4.625 6.46739219,5.5703231 4.87164498,7.13180947 C3.74065182,8.23852009 2.75,9.69142512 2.75,10 C2.75,10.3085749 3.74065182,11.7614799 4.87164498,12.8681905 C6.46739219,14.4296769 8.23998877,15.375 10,15.375 C11.7600112,15.375 13.5326078,14.4296769 15.128355,12.8681905 C16.2593482,11.7614799 17.25,10.3085749 17.25,10 C17.25,9.69142512 16.2593482,8.23852009 15.128355,7.13180947 C13.5326078,5.5703231 11.7600112,4.625 10,4.625 Z M10,6.625 C11.8611962,6.625 13.375,8.13880381 13.375,10 C13.375,11.7282507 12.0661075,13.1673314 10.3675022,13.3547036 L10.1840594,13.3699457 L10,13.375 C8.13880381,13.375 6.625,11.8611962 6.625,10 C6.625,8.2717493 7.93389248,6.83266859 9.63249781,6.64529637 L9.81594061,6.63005432 L10,6.625 Z M10,8.375 C9.10253728,8.375 8.375,9.10253728 8.375,10 C8.375,10.8974627 9.10253728,11.625 10,11.625 C10.8974627,11.625 11.625,10.8974627 11.625,10 C11.625,9.10253728 10.8974627,8.375 10,8.375 Z"></path>
                </g>
                <g id="Combined-Shape" transform="translate(140.000000, 64.000000)" fill="#7F7F7F">
                    <path d="M15,18 C15,19.1045695 14.1045695,20 13,20 L4,20 C2.8954305,20 2,19.1045695 2,18 L2,6 C2,4.8954305 2.8954305,4 4,4 L6,4 L6,2 C6,0.8954305 6.8954305,0 8,0 L15.7857143,0 L18.3941568,2.53598576 C18.7814777,2.91254779 19,3.4297752 19,3.9699756 L19,14 C19,15.1045695 18.1045695,16 17,16 L15,16 L15,18 Z M12.499,1.49988411 L8,1.5 C7.75454011,1.5 7.55039163,1.67687516 7.50805567,1.91012437 L7.5,2 L7.5,14 C7.5,14.2454599 7.67687516,14.4496084 7.91012437,14.4919443 L8,14.5 L17,14.5 C17.2454599,14.5 17.4496084,14.3231248 17.4919443,14.0898756 L17.5,14 L17.5,6.49988411 L14.5,6.5 C13.4456382,6.5 12.5818349,5.68412221 12.5054857,4.64926234 L12.5,4.5 L12.499,1.49988411 Z M13.999,1.49988411 L14,4.5 C14,4.74545989 14.1768752,4.94960837 14.4101244,4.99194433 L14.5,5 L17.5,4.99988411 L17.5,3.9699756 C17.5,3.86193552 17.4650364,3.75757112 17.4014739,3.67194702 L17.3485392,3.61147814 L15.177,1.5 L13.999,1.49988411 Z M8,16 C6.8954305,16 6,15.1045695 6,14 L6,5.5 L4,5.5 C3.75454011,5.5 3.55039163,5.67687516 3.50805567,5.91012437 L3.5,6 L3.5,18 C3.5,18.2454599 3.67687516,18.4496084 3.91012437,18.4919443 L4,18.5 L13,18.5 C13.2454599,18.5 13.4496084,18.3231248 13.4919443,18.0898756 L13.5,18 L13.5,16 L8,16 Z"></path>
                </g>
                <g id="Group" transform="translate(204.000000, 64.000000)" fill="#7F7F7F" stroke="#979797" stroke-width="0.2">
                    <g id="Combined-Shape">
                        <path d="M1.92382813,12.4058594 C2.31641386,12.4058594 2.64113083,12.6978609 2.69252403,13.0764088 L2.69960938,13.1816406 L2.69960938,17 C2.69960938,17.1428684 2.7996153,17.2629497 2.93286629,17.2943429 L3.00195313,17.3023438 L16.9960938,17.3023438 C17.1389622,17.3023438 17.2590434,17.2023378 17.2904366,17.0690868 L17.2984375,17 L17.2984375,13.1835938 C17.2984375,12.7553184 17.6459434,12.4078125 18.0742188,12.4078125 C18.466486,12.4078125 18.7914684,12.6995225 18.842908,13.0767847 L18.85,13.1816406 L18.85,17.5351563 C18.85,18.2137627 18.3328611,18.7738898 17.6712479,18.8412549 L17.5371094,18.8480469 L2.46289063,18.8480469 C1.78428413,18.8480469 1.22415704,18.3309079 1.15679196,17.6692948 L1.15,17.5351563 L1.15,13.1816406 C1.15,12.7544032 1.49646086,12.4058594 1.92382813,12.4058594 Z M10.0214844,1.15 C10.4140701,1.15 10.7387871,1.44200149 10.7901803,1.82054947 L10.7972656,1.92578125 L10.797,12.969 L12.5191331,11.2476487 C12.6065522,11.1602296 12.7118472,11.0961536 12.8266399,11.0588799 L12.9442881,11.0306684 L13.0664063,11.0210938 C13.2726271,11.0210938 13.4679809,11.1019502 13.6136794,11.2476487 C13.8888833,11.5228526 13.9139019,11.9536983 13.688735,12.2572007 L13.6136794,12.3441482 L10.5682318,15.3895919 C10.4194329,15.5362026 10.2235243,15.615625 10.0195313,15.615625 C9.85567955,15.615625 9.69631094,15.564455 9.56404579,15.4689153 L9.47028227,15.3890474 L6.42707382,12.3438848 C6.12626273,12.0408289 6.12695602,11.549982 6.42902695,11.247912 C6.70246956,10.9724288 7.13332274,10.9473849 7.43687405,11.1725824 L7.52383568,11.2476487 L9.245,12.969 L9.24570313,1.92578125 C9.24570313,1.56888513 9.48702667,1.2680789 9.81531238,1.17772393 L9.9162526,1.15708534 L10.0214844,1.15 Z"></path>
                    </g>
                </g>
                <g id="Combined-Shape" transform="translate(268.000000, 64.000000)" fill="#7F7F7F">
                    <path d="M16,15.5 L16,18 C16,18.5522847 15.5522847,19 15,19 L5,19 C4.44771525,19 4,18.5522847 4,18 L4,15.5 L2,15.5 C1.44771525,15.5 1,15.0522847 1,14.5 L1,9.5 C1,7.63607289 2.27489272,6.06991294 4.00024347,5.62595483 L4,2 C4,1.44771525 4.44771525,1 5,1 L15,1 C15.5522847,1 16,1.44771525 16,2 L16.0007613,5.62621352 C17.7256022,6.07052105 19,7.63643475 19,9.5 L19,14.5 C19,15.0522847 18.5522847,15.5 18,15.5 L16,15.5 Z M14.5,13.5 L5.5,13.5 L5.5,17.5 L14.5,17.5 L14.5,13.5 Z M10.4,9 C10.7313708,9 11,9.26862915 11,9.6 C11,9.93137085 10.7313708,10.2 10.4,10.2 L8.6,10.2 C8.26862915,10.2 8,9.93137085 8,9.6 C8,9.26862915 8.26862915,9 8.6,9 L10.4,9 Z M15.4,9 C15.7313708,9 16,9.26862915 16,9.6 C16,9.93137085 15.7313708,10.2 15.4,10.2 L12.6,10.2 C12.2686292,10.2 12,9.93137085 12,9.6 C12,9.26862915 12.2686292,9 12.6,9 L15.4,9 Z M14.5,2.5 L5.5,2.5 L5.5,5.5 L14.5,5.5 L14.5,2.5 Z M16,14 L17.5,14 L17.5,9.5 C17.5,8.1745166 16.4684641,7.08996133 15.1643757,7.00531768 L15,7 L5,7 C3.6745166,7 2.58996133,8.03153594 2.50531768,9.33562431 L2.5,9.5 L2.5,14 L4,14 L4,13 C4,12.4477153 4.44771525,12 5,12 L15,12 C15.5522847,12 16,12.4477153 16,13 L16,14 Z"></path>
                </g>
                <g id="Combined-Shape" transform="translate(332.000000, 64.000000)" fill="#7F7F7F">
                    <path d="M16.4236111,0.538194444 C16.8077257,0.538194444 17.1180556,0.848524306 17.1180556,1.23263889 L17.1180556,1.23263889 L17.1180556,9.56597222 C17.1180556,9.66145833 17.0399306,9.73958333 16.9444444,9.73958333 L16.9444444,9.73958333 L15.7291667,9.73958333 C15.6336806,9.73958333 15.5555556,9.66145833 15.5555556,9.56597222 L15.5555556,9.56597222 L15.5555556,2.10069444 L3.40277778,2.10069444 L3.40277778,17.3784722 L8.4375,17.3784722 C8.53298611,17.3784722 8.61111111,17.4565972 8.61111111,17.5520833 L8.61111111,17.5520833 L8.61111111,18.7673611 C8.61111111,18.8628472 8.53298611,18.9409722 8.4375,18.9409722 L8.4375,18.9409722 L2.53472222,18.9409722 C2.15060764,18.9409722 1.84027778,18.6306424 1.84027778,18.2465278 L1.84027778,18.2465278 L1.84027778,1.23263889 C1.84027778,0.848524306 2.15060764,0.538194444 2.53472222,0.538194444 L2.53472222,0.538194444 Z M16.2009087,11.6988894 L16.5133778,12.0113586 C16.7785637,12.2765444 16.7785637,12.7064957 16.5133778,12.9716816 L14.629,14.856 L16.5133778,16.7405856 C16.7520451,16.9792529 16.7759118,17.3513802 16.584978,17.6167395 L16.5133778,17.7009087 L16.2009087,18.0133778 C15.9622413,18.2520451 15.5901141,18.2759118 15.3247548,18.084978 L15.2405856,18.0133778 L13.356,16.129 L11.4716816,18.0133778 C11.2064957,18.2785637 10.7765444,18.2785637 10.5113586,18.0133778 L10.1988894,17.7009087 C9.93370353,17.4357228 9.93370353,17.0057715 10.1988894,16.7405856 L12.083,14.856 L10.1988894,12.9716816 C9.96022212,12.7330143 9.93635539,12.360887 10.1272892,12.0955277 L10.1988894,12.0113586 L10.5113586,11.6988894 C10.7500259,11.4602221 11.1221531,11.4363554 11.3875124,11.6272892 L11.4716816,11.6988894 L13.356,13.583 L15.2405856,11.6988894 C15.5057715,11.4337035 15.9357228,11.4337035 16.2009087,11.6988894 Z M9.30555556,7.56944444 C9.40104167,7.56944444 9.47916667,7.64756944 9.47916667,7.74305556 L9.47916667,7.74305556 L9.47916667,8.78472222 C9.47916667,8.88020833 9.40104167,8.95833333 9.30555556,8.95833333 L9.30555556,8.95833333 L5.3125,8.95833333 C5.21701389,8.95833333 5.13888889,8.88020833 5.13888889,8.78472222 L5.13888889,8.78472222 L5.13888889,7.74305556 C5.13888889,7.64756944 5.21701389,7.56944444 5.3125,7.56944444 L5.3125,7.56944444 Z M13.6458333,4.44444444 C13.7413194,4.44444444 13.8194444,4.52256944 13.8194444,4.61805556 L13.8194444,4.61805556 L13.8194444,5.65972222 C13.8194444,5.75520833 13.7413194,5.83333333 13.6458333,5.83333333 L13.6458333,5.83333333 L5.3125,5.83333333 C5.21701389,5.83333333 5.13888889,5.75520833 5.13888889,5.65972222 L5.13888889,5.65972222 L5.13888889,4.61805556 C5.13888889,4.52256944 5.21701389,4.44444444 5.3125,4.44444444 L5.3125,4.44444444 Z"></path>
                </g>
                <g id="Shape" transform="translate(396.000000, 64.000000)" fill="#7F7F7F">
                    <path d="M2.49289713,19.743941 C2.45607924,19.7130768 2.4186039,19.6729534 2.38178602,19.6328299 C2.42254866,19.6729534 2.45607924,19.7130768 2.49289713,19.743941 Z M2.28690347,19.6218707 C2.24887878,19.5861287 2.21134792,19.5503867 2.17579236,19.5107596 C2.21085407,19.5503867 2.24887878,19.5861287 2.28690347,19.6218707 Z M18.9074707,3.09012277 C18.7626509,2.93840681 18.5520796,2.85382951 18.3477506,2.85382951 L14.419306,2.85382951 L14.419306,1.57165527 C14.419306,0.704520089 13.7468095,0 12.9190896,0 L6.21326793,0 C5.38554799,0 4.71305154,0.704520089 4.71305154,1.57165527 L4.71305154,2.85382951 L0.764631797,2.85382953 C0.345569957,2.85382953 0.00266335227,3.21044924 0.00266335227,3.65208219 C0.00266335227,4.09371513 0.343073075,4.45033484 0.764631797,4.45033484 L1.43712825,4.45033484 L1.43712825,18.3423724 C1.43712825,19.2095075 2.10962469,19.9140276 2.93734464,19.9140276 L16.4089134,19.9140276 C17.2366333,19.9140276 17.9091297,19.2095075 17.9091297,18.3423724 L17.9091297,4.45033482 L18.3473344,4.45033482 C18.7663963,4.45033482 19.1305281,4.09371511 19.1305281,3.65208217 C19.1309426,3.44020299 19.0522905,3.24183873 18.9074707,3.09012277 Z M6.21077105,1.57645089 L12.9124312,1.57645089 L12.9124312,2.86734444 L6.21077105,2.86734444 L6.21077105,1.57645089 Z M16.4068326,18.3401925 L2.93734464,18.3401925 L2.93734464,4.45033482 L4.87826261,4.45033482 L16.4064165,4.45033482 L16.4064165,18.3401925 L16.4068326,18.3401925 Z M9.55619118,7.12541853 C9.1325517,7.12541853 8.79006126,7.48421806 8.79006126,7.92803083 L8.79006126,15.3747558 C8.79006126,15.8185686 9.13255172,16.1773681 9.55619118,16.1773681 C9.97983064,16.1773681 10.3223211,15.8185686 10.3223211,15.3747558 L10.3223211,7.92803083 C10.3223211,7.48465402 9.97983066,7.12541853 9.55619118,7.12541853 Z M5.40635542,7.12541853 C4.98271594,7.12541853 4.6402255,7.48421806 4.6402255,7.92803083 L4.6402255,15.3747558 C4.6402255,15.8185686 4.98271596,16.1773681 5.40635542,16.1773681 C5.82999488,16.1773681 6.17248536,15.8185686 6.17248536,15.3747558 L6.17248536,7.92803083 C6.17248536,7.48465402 5.82957876,7.12541853 5.40635542,7.12541853 Z M13.6635798,7.12541853 C13.2399403,7.12541853 12.8974499,7.48421806 12.8974499,7.92803083 L12.8974499,15.3747558 C12.8974499,15.8185686 13.2399403,16.1773681 13.6635798,16.1773681 C14.0872192,16.1773681 14.4297097,15.8185686 14.4297097,15.3747558 L14.4297097,7.92803083 C14.4297097,7.48465402 14.0872192,7.12541853 13.6635798,7.12541853 Z"></path>
                </g>
                <g id="Group" transform="translate(524.000000, 64.000000)">
                    <mask id="mask-2" fill="white">
                        <use xlink:href="#path-1"></use>
                    </mask>
                    <use id="Mask" fill="#7F7F7F" xlink:href="#path-1"></use>
                </g>
                <g id="Group" transform="translate(460.000000, 64.000000)">
                    <mask id="mask-4" fill="white">
                        <use xlink:href="#path-3"></use>
                    </mask>
                    <use id="Combined-Shape" stroke="#979797" stroke-width="0.2" fill="#7F7F7F" xlink:href="#path-3"></use>
                </g>
                <g id="Group" transform="translate(588.000000, 64.000000)">
                    <mask id="mask-6" fill="white">
                        <use xlink:href="#path-5"></use>
                    </mask>
                    <use id="Mask" fill="#7F7F7F" xlink:href="#path-5"></use>
                </g>
                <g id="Group" transform="translate(652.000000, 64.000000)">
                    <mask id="mask-8" fill="white">
                        <use xlink:href="#path-7"></use>
                    </mask>
                    <use id="Mask" fill="#7F7F7F" xlink:href="#path-7"></use>
                </g>
                <g id="Shape" transform="translate(12.000000, 148.000000)" fill="#7F7F7F">
                    <path d="M16.2900648,8.65175866 C16.2900648,6.95311848 15.6362546,5.35723554 14.4469427,4.15770198 C13.2597064,2.95607134 11.6801839,2.29548904 9.99895765,2.29548904 C8.31773139,2.29548904 6.73820893,2.95607134 5.55097261,4.15770198 C4.36166069,5.35933263 3.70785048,6.95521557 3.70785048,8.65175866 C3.70785048,10.3483018 4.36166069,11.9462818 5.55097261,13.1458153 C6.74028452,14.347446 8.31980697,15.0080283 9.99895765,15.0080283 C10.0051844,15.0080283 8.6435987,13.1982425 8.6435987,13.1982425 C8.37999903,12.8501261 8.44434225,12.3531166 8.78888986,12.0888837 C8.93210543,11.9777381 9.09815247,11.9253109 9.26419951,11.9253109 C9.49874095,11.9253109 9.73328239,12.0322623 9.8868759,12.2356797 L12.3505988,15.4840669 C12.6141985,15.8321833 12.5498553,16.3291929 12.2053077,16.5934258 L8.94040778,19.1225123 C8.59586018,19.3888423 8.10394582,19.3217355 7.84242174,18.9757162 C7.57882207,18.6275998 7.64316529,18.1305903 7.9877129,17.8663574 L9.64195652,16.5850374 C8.70794193,16.5430957 7.80090998,16.3375812 6.94161655,15.968494 C6.00552638,15.5679504 5.16491324,14.9954458 4.44468421,14.2677567 C3.7223796,13.5379705 3.15574408,12.6886505 2.76138236,11.7449615 C2.35041594,10.765622 2.14285714,9.72546702 2.14285714,8.65385575 C2.14285714,7.58224447 2.35041594,6.5420895 2.76138236,5.56275004 C3.15781967,4.61696396 3.72445518,3.76764387 4.44468421,3.0399548 C5.16698883,2.31016865 6.00760196,1.737664 6.94161655,1.33921753 C7.91091614,0.923994379 8.94040778,0.714285714 10.0010332,0.714285714 C11.0616587,0.714285714 12.0911503,0.923994379 13.0604499,1.33921753 C13.9944645,1.73556691 14.8350776,2.30807156 15.5553067,3.03576063 C16.2776113,3.76554678 16.8442468,4.61486687 17.2386085,5.55855586 C17.6495749,6.53789532 17.8571337,7.5780503 17.8571337,8.64966158 C17.8592093,9.08795268 17.5063594,9.44445741 17.0746371,9.44445741 C16.6408392,9.44445741 16.2900648,9.09004977 16.2900648,8.65175866 Z" transform="translate(10.000000, 10.000000) scale(1, -1) translate(-10.000000, -10.000000) "></path>
                </g>
                <g id="Icon/forAll/file-failed" transform="translate(76.000000, 148.000000)" fill="#7F7F7F">
                    <path d="M19.8121987,16.5987708 L1.12527252,2.25058772 C1.0217584,2.16918757 0.88956093,2.13150913 0.757762061,2.14584121 C0.625963192,2.1601733 0.505359205,2.22534192 0.422481611,2.3270107 L0.109991196,2.71035324 C0.026917271,2.81205916 -0.011563264,2.9420393 0.00303289835,3.07163862 C0.0176290607,3.20123794 0.0841034479,3.3198152 0.18780131,3.40122921 L18.8747275,17.7494123 C18.9782416,17.8308124 19.1104391,17.8684909 19.2422379,17.8541588 C19.3740368,17.8398267 19.4946408,17.7746581 19.5775184,17.6729893 L19.8900088,17.2896468 C19.9730827,17.1879408 20.0115633,17.0579607 19.9969671,16.9283614 C19.9823709,16.7987621 19.9158966,16.6801848 19.8121987,16.5987708 Z M9.27470977,6.63830992 L13.4867679,9.87262838 C13.4173951,8.03295246 11.889942,6.56250079 10,6.56250079 C9.75621138,6.56294917 9.51313442,6.58835618 9.27470977,6.63830992 Z M10.7252902,13.361997 L6.51323207,10.1276785 C6.58291743,11.9670475 8.11037052,13.4374992 10,13.4374992 C10.2437687,13.4369879 10.4868283,13.4116855 10.7252902,13.361997 L10.7252902,13.361997 Z M10,5.58035816 C13.0827178,5.58035816 15.908881,7.2684158 17.4350842,10 C17.0609657,10.672268 16.5987057,11.2934488 16.0601264,11.8476558 L17.2394652,12.7530686 C17.8960649,12.063173 18.4523601,11.2873988 18.8925394,10.4477957 C19.0375122,10.1661356 19.0375122,9.83355746 18.8925394,9.55189743 C17.1963415,6.30438143 13.8414445,4.10714422 10,4.10714422 C8.85316021,4.10714422 7.75913132,4.32198792 6.7304129,4.68445993 L8.18068086,5.79827106 C8.77253769,5.66629564 9.37876907,5.58035816 10,5.58035816 Z M10,14.4196418 C6.91728216,14.4196418 4.09143145,12.7315842 2.56491582,10 C2.93952331,9.32773979 3.40231258,8.70665684 3.94143605,8.15265109 L2.76209727,7.24723836 C2.10560024,7.93703393 1.54940858,8.71270704 1.10933551,9.55220435 C0.964362747,9.83386438 0.964362747,10.1664425 1.10933551,10.4481026 C2.80397098,13.6956186 6.15886796,15.8928558 10,15.8928558 C11.1468398,15.8928558 12.2408687,15.6764775 13.2695871,15.3155401 L11.8193191,14.2020359 C11.2274623,14.3337044 10.6215434,14.4196418 10,14.4196418 Z" id="Shape"></path>
                </g>
                <g id="Combined-Shape" transform="translate(140.000000, 148.000000)" fill="#7F7F7F">
                    <path d="M14.2317736,10 C16.5690448,10 18.4635472,11.880754 18.4635472,14.2010638 C18.4635472,15.1038405 18.1767572,15.9400772 17.6886821,16.6248897 L19.7751227,18.695593 C20.0734157,18.9917219 20.0751701,19.4735961 19.7790412,19.7718891 L19.7751228,19.7758075 C19.4740112,20.0747346 18.9881256,20.0747351 18.6870135,19.7758084 L16.5866668,17.6921626 C15.9134795,18.1405559 15.1034163,18.4021276 14.2317736,18.4021276 C11.8945023,18.4021276 10,16.5213735 10,14.2010638 C10,11.880754 11.8945023,10 14.2317736,10 Z M16.4236111,0.538194444 C16.8077257,0.538194444 17.1180556,0.848524306 17.1180556,1.23263889 L17.1180556,1.23263889 L17.1180556,8.56597222 C17.1180556,8.66145833 17.0399306,8.73958333 16.9444444,8.73958333 L16.9444444,8.73958333 L15.7291667,8.73958333 C15.6336806,8.73958333 15.5555556,8.66145833 15.5555556,8.56597222 L15.5555556,8.56597222 L15.5555556,2.10069444 L3.40277778,2.10069444 L3.40277778,17.3784722 L9.4375,17.3784722 C9.53298611,17.3784722 9.61111111,17.4565972 9.61111111,17.5520833 L9.61111111,17.5520833 L9.61111111,18.7673611 C9.61111111,18.8628472 9.53298611,18.9409722 9.4375,18.9409722 L9.4375,18.9409722 L2.53472222,18.9409722 C2.15060764,18.9409722 1.84027778,18.6306424 1.84027778,18.2465278 L1.84027778,18.2465278 L1.84027778,1.23263889 C1.84027778,0.848524306 2.15060764,0.538194444 2.53472222,0.538194444 L2.53472222,0.538194444 Z M14.2317736,11.5276596 C13.5124733,11.5276596 12.8356933,11.8055529 12.3272224,12.3103338 C11.8187515,12.8151147 11.5388268,13.4869834 11.5388268,14.2010638 C11.5388268,14.9151441 11.8187515,15.5870128 12.3272224,16.0917937 C12.8356933,16.5965747 13.5124733,16.874468 14.2317736,16.874468 C14.9510738,16.874468 15.6278539,16.5965747 16.1363248,16.0917937 C16.6447957,15.5870128 16.9247204,14.9151441 16.9247204,14.2010638 C16.9247204,13.4869834 16.6447957,12.8151147 16.1363248,12.3103338 C15.6278539,11.8055529 14.9510738,11.5276596 14.2317736,11.5276596 Z M9.30555556,7.56944444 C9.40104167,7.56944444 9.47916667,7.64756944 9.47916667,7.74305556 L9.47916667,7.74305556 L9.47916667,8.78472222 C9.47916667,8.88020833 9.40104167,8.95833333 9.30555556,8.95833333 L9.30555556,8.95833333 L5.3125,8.95833333 C5.21701389,8.95833333 5.13888889,8.88020833 5.13888889,8.78472222 L5.13888889,8.78472222 L5.13888889,7.74305556 C5.13888889,7.64756944 5.21701389,7.56944444 5.3125,7.56944444 L5.3125,7.56944444 Z M13.6458333,4.44444444 C13.7413194,4.44444444 13.8194444,4.52256944 13.8194444,4.61805556 L13.8194444,4.61805556 L13.8194444,5.65972222 C13.8194444,5.75520833 13.7413194,5.83333333 13.6458333,5.83333333 L13.6458333,5.83333333 L5.3125,5.83333333 C5.21701389,5.83333333 5.13888889,5.75520833 5.13888889,5.65972222 L5.13888889,5.65972222 L5.13888889,4.61805556 C5.13888889,4.52256944 5.21701389,4.44444444 5.3125,4.44444444 L5.3125,4.44444444 Z"></path>
                </g>
                <g id="Combined-Shape" transform="translate(220.000000, 148.000000)" fill="#7F7F7F">
                    <path d="M6.37734939,8.42298727 C6.73200369,8.75214527 6.75267252,9.30648466 6.42351452,9.66113896 C6.41651757,9.66867789 6.4093884,9.67609302 6.40213033,9.6833809 L4.63138464,11.4613988 C3.56082567,12.532043 3.52723251,14.2690063 4.63148802,15.3733498 C5.69285224,16.4365855 7.34447335,16.4447878 8.42128994,15.4879306 L8.54292081,15.3732463 L10.2713975,13.644632 C10.6284686,13.2875325 11.2040147,13.2767608 11.5741977,13.6202493 C11.9277234,13.9482816 11.9483899,14.5007936 11.6203575,14.8543193 L11.5989732,14.876564 L11.5989732,14.876564 L9.82626769,16.6565499 C8.03695787,18.4481199 5.13685344,18.447465 3.34410724,16.6566954 C1.60318012,14.9176876 1.55343934,12.1309774 3.19481823,10.3302256 L3.3440345,10.1739462 L5.07047464,8.44736858 C5.42867064,8.08914406 6.00604108,8.07837253 6.37734939,8.42298727 Z M12.3088894,7.64645518 C12.6618008,7.97442145 12.6820228,8.52638182 12.3540565,8.87929319 L12.3325531,8.90162302 L12.3325531,8.90162302 L8.95300326,12.2884885 C8.59640832,12.6458554 8.02094459,12.6569253 7.65086957,12.313537 C7.29776349,11.9858941 7.27712157,11.4340379 7.60476456,11.0809318 C7.61198751,11.0731475 7.61935203,11.0654958 7.62685443,11.0579804 L11.0081622,7.67083544 C11.3644861,7.31389636 11.9394398,7.30311969 12.3088894,7.64645518 Z M16.6575758,3.34420515 C18.3963465,5.08517222 18.4460257,7.8717797 16.8065466,9.67256434 L16.6575031,9.82884705 L14.9310629,11.5554246 C14.5728669,11.9136491 13.9954965,11.9244207 13.6241882,11.5798059 C13.2695339,11.2506479 13.2488651,10.6963085 13.578023,10.3416542 C13.58502,10.3341153 13.5921492,10.3267002 13.5994072,10.3194123 L15.3701529,8.54139443 C16.4407119,7.47075024 16.4743051,5.7337869 15.3700496,4.6294434 C14.3086853,3.56620774 12.6570642,3.55800539 11.5802476,4.51486259 L11.4586168,4.62954688 L9.73314038,6.35516061 C9.40781456,6.68051234 8.89718223,6.70764422 8.54095023,6.43654276 L8.44782823,6.35516061 L8.44782823,6.35516061 C8.12259053,6.02989702 8.09550663,5.51940086 8.366563,5.16328693 L8.44787937,5.07024777 C8.44795444,5.07017271 8.44802952,5.07009766 8.44810461,5.07002262 L10.1752699,3.34420515 C11.9652824,1.55193162 14.8654449,1.55193162 16.6575758,3.34420515 Z"></path>
                </g>
                <g id="Shape" transform="translate(314.000000, 148.000000)" fill="#7F7F7F">
                    <path d="M18.2756981,12.2877951 L16.9628906,11.1627323 C17.0250235,10.7810146 17.0570921,10.3912607 17.0570921,10.0015068 C17.0570921,9.61175289 17.0250235,9.221999 16.9628906,8.84028127 L18.2756981,7.71521848 C18.4781311,7.54244098 18.5522896,7.26117529 18.4620968,7.00803616 L18.4440582,6.9558011 C18.0812824,5.94123556 17.5441336,5.00904068 16.846642,4.185334 L16.8105649,4.14314415 C16.6381962,3.94023104 16.3596004,3.86388749 16.1070604,3.95228528 L14.4775756,4.53289804 C13.8762897,4.03867403 13.2048538,3.64892014 12.4793022,3.37569061 L12.1646292,1.66800603 C12.1165263,1.4048217 11.9100848,1.19989955 11.6475233,1.15168257 L11.5934076,1.14163737 C10.5491744,0.952787544 9.45082555,0.952787544 8.40659239,1.14163737 L8.35247666,1.15168257 C8.08991515,1.19989955 7.88347367,1.4048217 7.83537079,1.66800603 L7.51869356,3.38372677 C6.79915478,3.6569563 6.13172744,4.04470116 5.53445012,4.53691612 L3.89293964,3.95228528 C3.64240385,3.86388749 3.36180377,3.938222 3.18943515,4.14314415 L3.15335799,4.185334 C2.45586636,5.01104972 1.91871763,5.9432446 1.55594181,6.9558011 L1.53790323,7.00803616 C1.44771035,7.25916625 1.52186894,7.54043194 1.72430186,7.71521848 L3.05314368,8.85233551 C2.9910108,9.23003516 2.96094651,9.61577097 2.96094651,9.99949774 C2.96094651,10.3852336 2.9910108,10.7709694 3.05314368,11.14666 L1.72430186,12.283777 C1.52186894,12.4565545 1.44771035,12.7378202 1.53790323,12.9909593 L1.55594181,13.0431944 C1.91871763,14.0557509 2.45586636,14.9899548 3.15335799,15.8136615 L3.18943515,15.8558513 C3.36180377,16.0587644 3.64039956,16.135108 3.89293964,16.0467102 L5.53445012,15.4620794 C6.13172744,15.9542943 6.79915478,16.3440482 7.51869356,16.6152687 L7.83537079,18.3309895 C7.88347367,18.5941738 8.08991515,18.7990959 8.35247666,18.8473129 L8.40659239,18.8573581 C8.92971111,18.951783 9.46485556,19 10,19 C10.5351444,19 11.0722932,18.951783 11.5934076,18.8573581 L11.6475233,18.8473129 C11.9100848,18.7990959 12.1165263,18.5941738 12.1646292,18.3309895 L12.4793022,16.6233049 C13.2048538,16.3500753 13.8762897,15.9623305 14.4775756,15.4660974 L16.1070604,16.0467102 C16.3575961,16.135108 16.6381962,16.0607735 16.8105649,15.8558513 L16.846642,15.8136615 C17.5441336,14.9879458 18.0812824,14.0557509 18.4440582,13.0431944 L18.4620968,12.9909593 C18.5522896,12.7438473 18.4781311,12.4625816 18.2756981,12.2877951 L18.2756981,12.2877951 Z M15.5398473,9.07734807 C15.5899545,9.38071321 15.6160102,9.69211452 15.6160102,10.0035158 C15.6160102,10.3149171 15.5899545,10.6263184 15.5398473,10.9296836 L15.4075644,11.7353089 L16.9047663,13.0190859 C16.678282,13.5434455 16.391669,14.0376695 16.0509403,14.4977398 L14.1909627,13.8367654 L13.5616168,14.3550979 C13.0825923,14.7488699 12.5494522,15.0582622 11.9722177,15.2752386 L11.2085846,15.5625314 L10.8498174,17.5113009 C10.2866129,17.5755902 9.71138277,17.5755902 9.14617404,17.5113009 L8.78740679,15.5585133 L8.02978657,15.2672024 C7.45856497,15.050226 6.9274291,14.7408338 6.45241325,14.3490708 L5.82306735,13.8287293 L3.95106394,14.4957308 C3.61033527,14.0356605 3.32572662,13.5394274 3.09723798,13.0170768 L4.61047413,11.7212456 L4.48019553,10.9176293 C4.43209265,10.6182823 4.40603693,10.30889 4.40603693,10.0035158 C4.40603693,9.6961326 4.43008837,9.38874937 4.48019553,9.08940231 L4.61047413,8.28578604 L3.09723798,6.9899548 C3.32372233,6.46559518 3.61033527,5.97137117 3.95106394,5.51130085 L5.82306735,6.17830236 L6.45241325,5.65796082 C6.9274291,5.26619789 7.45856497,4.95680563 8.02978657,4.73982923 L8.78941107,4.45253641 L9.14817832,2.49974887 C9.71138277,2.43545957 10.2866129,2.43545957 10.8518217,2.49974887 L11.2105889,4.44851833 L11.974222,4.73581115 C12.5494522,4.95278754 13.0845966,5.26217981 13.563621,5.65595178 L14.1929669,6.17428428 L16.0529446,5.51330989 C16.3936733,5.97338021 16.678282,6.46961326 16.9067706,6.99196384 L15.4095687,8.27574083 L15.5398473,9.07734807 Z M10.0020043,6.26670015 C8.053838,6.26670015 6.4744604,7.84982421 6.4744604,9.80261175 C6.4744604,11.7553993 8.053838,13.3385234 10.0020043,13.3385234 C11.9501706,13.3385234 13.5295482,11.7553993 13.5295482,9.80261175 C13.5295482,7.84982421 11.9501706,6.26670015 10.0020043,6.26670015 Z M11.589399,11.393772 C11.1644903,11.8176796 10.6012859,12.0527373 10.0020043,12.0527373 C9.40272268,12.0527373 8.83951823,11.8176796 8.41460954,11.393772 C7.99170513,10.9678553 7.75720363,10.4033149 7.75720363,9.80261175 C7.75720363,9.20190859 7.99170513,8.63736816 8.41460954,8.21145153 C8.83951823,7.78553491 9.40272268,7.55248619 10.0020043,7.55248619 C10.6012859,7.55248619 11.1644903,7.78553491 11.589399,8.21145153 C12.0123034,8.63736816 12.2468049,9.20190859 12.2468049,9.80261175 C12.2468049,10.4033149 12.0123034,10.9678553 11.589399,11.393772 Z"></path>
                </g>
                <g id="Others/Tooltip/down" transform="translate(0.000000, 21.000000)">
                    <g id="Bg" transform="translate(22.000000, 18.500000) scale(-1, 1) translate(-22.000000, -18.500000) ">
                        <use fill="black" fill-opacity="1" filter="url(#filter-10)" xlink:href="#path-9"></use>
                        <use fill-opacity="0.7" fill="#000000" fill-rule="evenodd" xlink:href="#path-9"></use>
                    </g>
                    <text id="Text" font-family="PingFangTC-Regular, PingFang TC" font-size="14" font-weight="normal" line-spacing="22" fill="#FFFFFF">
                        <tspan x="8" y="20"></tspan>
                    </text>
                </g>
                <rect id="Rectangle" fill="#E5E5E5" transform="translate(342.000000, 0.500000) scale(1, -1) translate(-342.000000, -0.500000) " x="0" y="0" width="684" height="1"></rect>
                <g id="Others/Tooltip/down" transform="translate(64.000000, 21.000000)">
                    <g id="Bg" transform="translate(22.000000, 18.500000) scale(-1, 1) translate(-22.000000, -18.500000) ">
                        <use fill="black" fill-opacity="1" filter="url(#filter-12)" xlink:href="#path-11"></use>
                        <use fill-opacity="0.7" fill="#000000" fill-rule="evenodd" xlink:href="#path-11"></use>
                    </g>
                    <text id="Text" font-family="PingFangTC-Regular, PingFang TC" font-size="14" font-weight="normal" line-spacing="22" fill="#FFFFFF">
                        <tspan x="8" y="20"></tspan>
                    </text>
                </g>
                <g id="Others/Tooltip/down" transform="translate(128.000000, 21.000000)">
                    <g id="Bg" transform="translate(22.000000, 18.500000) scale(-1, 1) translate(-22.000000, -18.500000) ">
                        <use fill="black" fill-opacity="1" filter="url(#filter-14)" xlink:href="#path-13"></use>
                        <use fill-opacity="0.7" fill="#000000" fill-rule="evenodd" xlink:href="#path-13"></use>
                    </g>
                    <text id="Text" font-family="PingFangTC-Regular, PingFang TC" font-size="14" font-weight="normal" line-spacing="22" fill="#FFFFFF">
                        <tspan x="8" y="20"></tspan>
                    </text>
                </g>
                <g id="Others/Tooltip/down" transform="translate(178.000000, 21.000000)">
                    <g id="Bg" transform="translate(36.000000, 18.500000) scale(-1, 1) translate(-36.000000, -18.500000) ">
                        <use fill="black" fill-opacity="1" filter="url(#filter-16)" xlink:href="#path-15"></use>
                        <use fill-opacity="0.7" fill="#000000" fill-rule="evenodd" xlink:href="#path-15"></use>
                    </g>
                    <text id="Text" font-family="PingFangTC-Regular, PingFang TC" font-size="14" font-weight="normal" line-spacing="22" fill="#FFFFFF">
                        <tspan x="8" y="20"></tspan>
                    </text>
                </g>
                <g id="Others/Tooltip/down" transform="translate(256.000000, 21.000000)">
                    <g id="Bg" transform="translate(22.000000, 18.500000) scale(-1, 1) translate(-22.000000, -18.500000) ">
                        <use fill="black" fill-opacity="1" filter="url(#filter-18)" xlink:href="#path-17"></use>
                        <use fill-opacity="0.7" fill="#000000" fill-rule="evenodd" xlink:href="#path-17"></use>
                    </g>
                    <text id="Text" font-family="PingFangTC-Regular, PingFang TC" font-size="14" font-weight="normal" line-spacing="22" fill="#FFFFFF">
                        <tspan x="8" y="20"></tspan>
                    </text>
                </g>
                <g id="Others/Tooltip/down" transform="translate(320.000000, 21.000000)">
                    <g id="Bg" transform="translate(22.000000, 18.500000) scale(-1, 1) translate(-22.000000, -18.500000) ">
                        <use fill="black" fill-opacity="1" filter="url(#filter-20)" xlink:href="#path-19"></use>
                        <use fill-opacity="0.7" fill="#000000" fill-rule="evenodd" xlink:href="#path-19"></use>
                    </g>
                    <text id="Text" font-family="PingFangTC-Regular, PingFang TC" font-size="14" font-weight="normal" line-spacing="22" fill="#FFFFFF">
                        <tspan x="8" y="20"></tspan>
                    </text>
                </g>
                <g id="Others/Tooltip/down" transform="translate(384.000000, 21.000000)">
                    <g id="Bg" transform="translate(22.000000, 18.500000) scale(-1, 1) translate(-22.000000, -18.500000) ">
                        <use fill="black" fill-opacity="1" filter="url(#filter-22)" xlink:href="#path-21"></use>
                        <use fill-opacity="0.7" fill="#000000" fill-rule="evenodd" xlink:href="#path-21"></use>
                    </g>
                    <text id="Text" font-family="PingFangTC-Regular, PingFang TC" font-size="14" font-weight="normal" line-spacing="22" fill="#FFFFFF">
                        <tspan x="8" y="20"></tspan>
                    </text>
                </g>
                <g id="Others/Tooltip/down" transform="translate(448.000000, 21.000000)">
                    <g id="Bg" transform="translate(22.000000, 18.500000) scale(-1, 1) translate(-22.000000, -18.500000) ">
                        <use fill="black" fill-opacity="1" filter="url(#filter-24)" xlink:href="#path-23"></use>
                        <use fill-opacity="0.7" fill="#000000" fill-rule="evenodd" xlink:href="#path-23"></use>
                    </g>
                    <text id="Text" font-family="PingFangTC-Regular, PingFang TC" font-size="14" font-weight="normal" line-spacing="22" fill="#FFFFFF">
                        <tspan x="8" y="20"></tspan>
                    </text>
                </g>
                <g id="Others/Tooltip/down" transform="translate(512.000000, 21.000000)">
                    <g id="Bg" transform="translate(22.000000, 18.500000) scale(-1, 1) translate(-22.000000, -18.500000) ">
                        <use fill="black" fill-opacity="1" filter="url(#filter-26)" xlink:href="#path-25"></use>
                        <use fill-opacity="0.7" fill="#000000" fill-rule="evenodd" xlink:href="#path-25"></use>
                    </g>
                    <text id="Text" font-family="PingFangTC-Regular, PingFang TC" font-size="14" font-weight="normal" line-spacing="22" fill="#FFFFFF">
                        <tspan x="8" y="20"></tspan>
                    </text>
                </g>
                <g id="Others/Tooltip/down" transform="translate(576.000000, 21.000000)">
                    <g id="Bg" transform="translate(22.000000, 18.500000) scale(-1, 1) translate(-22.000000, -18.500000) ">
                        <use fill="black" fill-opacity="1" filter="url(#filter-28)" xlink:href="#path-27"></use>
                        <use fill-opacity="0.7" fill="#000000" fill-rule="evenodd" xlink:href="#path-27"></use>
                    </g>
                    <text id="Text" font-family="PingFangTC-Regular, PingFang TC" font-size="14" font-weight="normal" line-spacing="22" fill="#FFFFFF">
                        <tspan x="8" y="20"></tspan>
                    </text>
                </g>
                <g id="Others/Tooltip/down" transform="translate(640.000000, 21.000000)">
                    <g id="Bg" transform="translate(22.000000, 18.500000) scale(-1, 1) translate(-22.000000, -18.500000) ">
                        <use fill="black" fill-opacity="1" filter="url(#filter-30)" xlink:href="#path-29"></use>
                        <use fill-opacity="0.7" fill="#000000" fill-rule="evenodd" xlink:href="#path-29"></use>
                    </g>
                    <text id="Text" font-family="PingFangTC-Regular, PingFang TC" font-size="14" font-weight="normal" line-spacing="22" fill="#FFFFFF">
                        <tspan x="8" y="20"></tspan>
                    </text>
                </g>
                <g id="Others/Tooltip/down" transform="translate(0.000000, 105.000000)">
                    <g id="Bg" transform="translate(22.000000, 18.500000) scale(-1, 1) translate(-22.000000, -18.500000) ">
                        <use fill="black" fill-opacity="1" filter="url(#filter-32)" xlink:href="#path-31"></use>
                        <use fill-opacity="0.7" fill="#000000" fill-rule="evenodd" xlink:href="#path-31"></use>
                    </g>
                    <text id="Text" font-family="PingFangTC-Regular, PingFang TC" font-size="14" font-weight="normal" line-spacing="22" fill="#FFFFFF">
                        <tspan x="8" y="20"></tspan>
                    </text>
                </g>
                <g id="Others/Tooltip/down" transform="translate(64.000000, 105.000000)">
                    <g id="Bg" transform="translate(22.000000, 18.500000) scale(-1, 1) translate(-22.000000, -18.500000) ">
                        <use fill="black" fill-opacity="1" filter="url(#filter-34)" xlink:href="#path-33"></use>
                        <use fill-opacity="0.7" fill="#000000" fill-rule="evenodd" xlink:href="#path-33"></use>
                    </g>
                    <text id="Text" font-family="PingFangTC-Regular, PingFang TC" font-size="14" font-weight="normal" line-spacing="22" fill="#FFFFFF">
                        <tspan x="8" y="20"></tspan>
                    </text>
                </g>
                <g id="Others/Tooltip/down-Copy-2" transform="translate(128.000000, 105.000000)">
                    <g id="Bg" transform="translate(22.000000, 18.500000) scale(-1, 1) translate(-22.000000, -18.500000) ">
                        <use fill="black" fill-opacity="1" filter="url(#filter-36)" xlink:href="#path-35"></use>
                        <use fill-opacity="0.7" fill="#000000" fill-rule="evenodd" xlink:href="#path-35"></use>
                    </g>
                    <text id="Text" font-family="PingFangTC-Regular, PingFang TC" font-size="14" font-weight="normal" line-spacing="22" fill="#FFFFFF">
                        <tspan x="8" y="20"></tspan>
                    </text>
                </g>
                <g id="Others/Tooltip/down-Copy" transform="translate(194.000000, 105.000000)">
                    <g id="Bg" transform="translate(36.000000, 18.500000) scale(-1, 1) translate(-36.000000, -18.500000) ">
                        <use fill="black" fill-opacity="1" filter="url(#filter-38)" xlink:href="#path-37"></use>
                        <use fill-opacity="0.7" fill="#000000" fill-rule="evenodd" xlink:href="#path-37"></use>
                    </g>
                    <text id="Text" font-family="PingFangTC-Regular, PingFang TC" font-size="14" font-weight="normal" line-spacing="22" fill="#FFFFFF">
                        <tspan x="8" y="20"></tspan>
                    </text>
                </g>
                <g id="Others/Tooltip/down-Copy-3" transform="translate(288.000000, 105.000000)">
                    <g id="Bg" transform="translate(36.000000, 18.500000) scale(-1, 1) translate(-36.000000, -18.500000) ">
                        <use fill="black" fill-opacity="1" filter="url(#filter-40)" xlink:href="#path-39"></use>
                        <use fill-opacity="0.7" fill="#000000" fill-rule="evenodd" xlink:href="#path-39"></use>
                    </g>
                    <text id="Text" font-family="PingFangTC-Regular, PingFang TC" font-size="14" font-weight="normal" line-spacing="22" fill="#FFFFFF">
                        <tspan x="8" y="20"></tspan>
                    </text>
                </g>
            </g>
            <g id="Group-4" transform="translate(30.000000, 30.000000)">
                <g id="Shape" transform="translate(11.000000, 77.000000)" fill="#7F7F7F">
                    <path d="M10,2.875 C14.0958061,2.875 19,7.67162985 19,10 C19,12.2037099 14.461122,16.7676123 10.5089582,17.1042287 L10.2771933,17.1191042 L10,17.125 C5.90419386,17.125 1,12.3283701 1,10 C1,7.79629005 5.53887799,3.23238773 9.49104178,2.89577132 L9.72280665,2.88089578 L10,2.875 Z M10,4.625 C8.23998877,4.625 6.46739219,5.5703231 4.87164498,7.13180947 C3.74065182,8.23852009 2.75,9.69142512 2.75,10 C2.75,10.3085749 3.74065182,11.7614799 4.87164498,12.8681905 C6.46739219,14.4296769 8.23998877,15.375 10,15.375 C11.7600112,15.375 13.5326078,14.4296769 15.128355,12.8681905 C16.2593482,11.7614799 17.25,10.3085749 17.25,10 C17.25,9.69142512 16.2593482,8.23852009 15.128355,7.13180947 C13.5326078,5.5703231 11.7600112,4.625 10,4.625 Z M10,6.625 C11.8611962,6.625 13.375,8.13880381 13.375,10 C13.375,11.7282507 12.0661075,13.1673314 10.3675022,13.3547036 L10.1840594,13.3699457 L10,13.375 C8.13880381,13.375 6.625,11.8611962 6.625,10 C6.625,8.2717493 7.93389248,6.83266859 9.63249781,6.64529637 L9.81594061,6.63005432 L10,6.625 Z M10,8.375 C9.10253728,8.375 8.375,9.10253728 8.375,10 C8.375,10.8974627 9.10253728,11.625 10,11.625 C10.8974627,11.625 11.625,10.8974627 11.625,10 C11.625,9.10253728 10.8974627,8.375 10,8.375 Z"></path>
                </g>
                <text id="Hover" font-family="PingFangTC-Regular, PingFang TC" font-size="14" font-weight="normal" line-spacing="22" fill="#7F7F7F">
                    <tspan x="80" y="15">Hover</tspan>
                </text>
                <text id="default" font-family="PingFangTC-Regular, PingFang TC" font-size="14" font-weight="normal" line-spacing="22" fill="#7F7F7F">
                    <tspan x="0" y="15">default</tspan>
                </text>
                <g id="Icon/forAll/view-Copy" transform="translate(88.000000, 77.000000)" fill="#004477">
                    <path d="M10,2.875 C14.0958061,2.875 19,7.67162985 19,10 C19,12.2037099 14.461122,16.7676123 10.5089582,17.1042287 L10.2771933,17.1191042 L10,17.125 C5.90419386,17.125 1,12.3283701 1,10 C1,7.79629005 5.53887799,3.23238773 9.49104178,2.89577132 L9.72280665,2.88089578 L10,2.875 Z M10,4.625 C8.23998877,4.625 6.46739219,5.5703231 4.87164498,7.13180947 C3.74065182,8.23852009 2.75,9.69142512 2.75,10 C2.75,10.3085749 3.74065182,11.7614799 4.87164498,12.8681905 C6.46739219,14.4296769 8.23998877,15.375 10,15.375 C11.7600112,15.375 13.5326078,14.4296769 15.128355,12.8681905 C16.2593482,11.7614799 17.25,10.3085749 17.25,10 C17.25,9.69142512 16.2593482,8.23852009 15.128355,7.13180947 C13.5326078,5.5703231 11.7600112,4.625 10,4.625 Z M10,6.625 C11.8611962,6.625 13.375,8.13880381 13.375,10 C13.375,11.7282507 12.0661075,13.1673314 10.3675022,13.3547036 L10.1840594,13.3699457 L10,13.375 C8.13880381,13.375 6.625,11.8611962 6.625,10 C6.625,8.2717493 7.93389248,6.83266859 9.63249781,6.64529637 L9.81594061,6.63005432 L10,6.625 Z M10,8.375 C9.10253728,8.375 8.375,9.10253728 8.375,10 C8.375,10.8974627 9.10253728,11.625 10,11.625 C10.8974627,11.625 11.625,10.8974627 11.625,10 C11.625,9.10253728 10.8974627,8.375 10,8.375 Z" id="Shape"></path>
                </g>
                <g id="Others/Tooltip/down" transform="translate(76.000000, 32.000000)">
                    <g id="Bg" transform="translate(22.000000, 18.500000) scale(-1, 1) translate(-22.000000, -18.500000) ">
                        <use fill="black" fill-opacity="1" filter="url(#filter-42)" xlink:href="#path-41"></use>
                        <use fill-opacity="0.7" fill="#000000" fill-rule="evenodd" xlink:href="#path-41"></use>
                    </g>
                    <text id="Text" font-family="PingFangTC-Regular, PingFang TC" font-size="14" font-weight="normal" line-spacing="22" fill="#FFFFFF">
                        <tspan x="8" y="20"></tspan>
                    </text>
                </g>
            </g>
        </g>
    </g>
</svg>