<?xml version="1.0" encoding="UTF-8"?>
<svg width="402px" height="252px" viewBox="0 0 402 252" version="1.1" xmlns="http://www.w3.org/2000/svg" xmlns:xlink="http://www.w3.org/1999/xlink">
    <title>button05</title>
    <defs>
        <rect id="path-1" x="0" y="0" width="400" height="250" rx="8"></rect>
        <path d="M58,60 L372,60 C376.418278,60 380,63.581722 380,68 L380,104 L380,104 L50,104 L50,68 C50,63.581722 53.581722,60 58,60 Z" id="path-2"></path>
        <filter x="-0.2%" y="-1.1%" width="100.3%" height="104.5%" filterUnits="objectBoundingBox" id="filter-3">
            <feOffset dx="0" dy="1" in="SourceAlpha" result="shadowOffsetOuter1"></feOffset>
            <feColorMatrix values="0 0 0 0 0   0 0 0 0 0   0 0 0 0 0  0 0 0 0.05 0" type="matrix" in="shadowOffsetOuter1"></feColorMatrix>
        </filter>
        <path d="M11.8056641,6.5078125 L7.45117188,6.5078125 L7.45117188,2.26269531 C7.45117188,1.990625 7.23105469,1.77050781 6.95898438,1.77050781 L6.95898438,1.77050781 C6.68691406,1.77050781 6.46679688,1.990625 6.46679688,2.26269531 L6.46679688,6.5078125 L2.20800781,6.5078125 C1.9359375,6.5078125 1.71582031,6.72792969 1.71582031,7 L1.71582031,7 C1.71582031,7.27207031 1.9359375,7.4921875 2.20800781,7.4921875 L6.46679688,7.4921875 L6.46679688,11.7509766 C6.46679688,12.0230469 6.68691406,12.2431641 6.95898438,12.2431641 L6.95898438,12.2431641 C7.23105469,12.2431641 7.45117188,12.0230469 7.45117188,11.7509766 L7.45117188,7.4921875 L11.8056641,7.4921875 C12.0777344,7.4921875 12.2978516,7.27207031 12.2978516,7 L12.2978516,7 C12.2978516,6.72792969 12.0777344,6.5078125 11.8056641,6.5078125 Z" id="path-4"></path>
    </defs>
    <g id="XXXGuideline" stroke="none" stroke-width="1" fill="none" fill-rule="evenodd">
        <g id="Guideline_按鈕" transform="translate(-101.000000, -1484.000000)">
            <g id="button05" transform="translate(102.000000, 1485.000000)">
                <g id="Rectangle">
                    <use fill="#F5F6F8" xlink:href="#path-1"></use>
                    <rect stroke="#E5E5E5" stroke-width="1" fill-opacity="0.3" fill="#FFFFFF" x="-0.5" y="-0.5" width="401" height="251" rx="8"></rect>
                </g>
                <path d="M30,0 L392,0 C396.418278,-8.11624501e-16 400,3.581722 400,8 L400,40 L400,40 L30,40 L30,0 Z" id="Rectangle" fill="#043458"></path>
                <path d="M8,0 L30,0 L30,0 L30,250 L8,250 C3.581722,250 5.41083001e-16,246.418278 0,242 L0,8 C-5.41083001e-16,3.581722 3.581722,8.11624501e-16 8,0 Z" id="Rectangle" fill="#FFFFFF"></path>
                <rect id="Rectangle-Copy-6" fill="#FFFFFF" x="50" y="60" width="330" height="170" rx="8"></rect>
                <g id="Rectangle-Copy-6">
                    <use fill="black" fill-opacity="1" filter="url(#filter-3)" xlink:href="#path-2"></use>
                    <use fill="#FFFFFF" fill-rule="evenodd" xlink:href="#path-2"></use>
                </g>
                <g id="Button/Primary/Basic/Small" transform="translate(306.000000, 70.000000)">
                    <rect id="Rectangle-40-Copy-13" fill="#004477" x="0" y="0" width="64" height="24" rx="4"></rect>
                    <g id="Group" transform="translate(9.000000, 1.000000)">
                        <text id="Text" font-family="PingFangTC-Regular, PingFang TC" font-size="14" font-weight="normal" line-spacing="22" fill="#FFFFFF">
                            <tspan x="18" y="15">新增</tspan>
                        </text>
                        <g transform="translate(0.000000, 4.000000)" id="Icon/number/Plus-14px">
                            <mask id="mask-5" fill="white">
                                <use xlink:href="#path-4"></use>
                            </mask>
                            <use id="Mask" fill="#FFFFFF" xlink:href="#path-4"></use>
                        </g>
                    </g>
                </g>
            </g>
        </g>
    </g>
</svg>