<?xml version="1.0" encoding="UTF-8"?>
<svg width="402px" height="252px" viewBox="0 0 402 252" version="1.1" xmlns="http://www.w3.org/2000/svg" xmlns:xlink="http://www.w3.org/1999/xlink">
    <title>button06</title>
    <defs>
        <rect id="path-1" x="0" y="0" width="400" height="250" rx="8"></rect>
        <path d="M58,60 L372,60 C376.418278,60 380,63.581722 380,68 L380,104 L380,104 L50,104 L50,68 C50,63.581722 53.581722,60 58,60 Z" id="path-2"></path>
        <filter x="-0.2%" y="-1.1%" width="100.3%" height="104.5%" filterUnits="objectBoundingBox" id="filter-3">
            <feOffset dx="0" dy="1" in="SourceAlpha" result="shadowOffsetOuter1"></feOffset>
            <feColorMatrix values="0 0 0 0 0   0 0 0 0 0   0 0 0 0 0  0 0 0 0.05 0" type="matrix" in="shadowOffsetOuter1"></feColorMatrix>
        </filter>
        <path d="M11.8056641,6.5078125 L7.45117188,6.5078125 L7.45117188,2.26269531 C7.45117188,1.990625 7.23105469,1.77050781 6.95898438,1.77050781 L6.95898438,1.77050781 C6.68691406,1.77050781 6.46679688,1.990625 6.46679688,2.26269531 L6.46679688,6.5078125 L2.20800781,6.5078125 C1.9359375,6.5078125 1.71582031,6.72792969 1.71582031,7 L1.71582031,7 C1.71582031,7.27207031 1.9359375,7.4921875 2.20800781,7.4921875 L6.46679688,7.4921875 L6.46679688,11.7509766 C6.46679688,12.0230469 6.68691406,12.2431641 6.95898438,12.2431641 L6.95898438,12.2431641 C7.23105469,12.2431641 7.45117188,12.0230469 7.45117188,11.7509766 L7.45117188,7.4921875 L11.8056641,7.4921875 C12.0777344,7.4921875 12.2978516,7.27207031 12.2978516,7 L12.2978516,7 C12.2978516,6.72792969 12.0777344,6.5078125 11.8056641,6.5078125 Z" id="path-4"></path>
        <path d="M12.2458984,4.10292969 C12.2458984,4.23417969 12.2021484,4.36679687 12.1146484,4.47753906 L7.45390625,10.2716797 C7.34042969,10.4125 7.16953125,10.4945312 6.98769531,10.4945312 C6.80722656,10.4945312 6.63496094,10.4125 6.52285156,10.2716797 L1.88671875,4.50214844 C1.68027344,4.24511719 1.72128906,3.86914062 1.97832031,3.66269531 C2.23535156,3.45625 2.61132813,3.49726562 2.81777344,3.75429687 L6.9890625,8.94414062 L11.1835938,3.72832031 C11.3900391,3.47128906 11.7660156,3.43027344 12.0230469,3.63671875 C12.1693359,3.75566406 12.2458984,3.92792969 12.2458984,4.10292969 Z" id="path-6"></path>
    </defs>
    <g id="XXXGuideline" stroke="none" stroke-width="1" fill="none" fill-rule="evenodd">
        <g id="Guideline_按鈕" transform="translate(-101.000000, -1764.000000)">
            <g id="button06" transform="translate(102.000000, 1765.000000)">
                <g id="Rectangle">
                    <use fill="#F5F6F8" xlink:href="#path-1"></use>
                    <rect stroke="#E5E5E5" stroke-width="1" fill-opacity="0.3" fill="#FFFFFF" x="-0.5" y="-0.5" width="401" height="251" rx="8"></rect>
                </g>
                <path d="M30,0 L392,0 C396.418278,-8.11624501e-16 400,3.581722 400,8 L400,40 L400,40 L30,40 L30,0 Z" id="Rectangle" fill="#043458"></path>
                <path d="M8,0 L30,0 L30,0 L30,250 L8,250 C3.581722,250 5.41083001e-16,246.418278 0,242 L0,8 C-5.41083001e-16,3.581722 3.581722,8.11624501e-16 8,0 Z" id="Rectangle" fill="#FFFFFF"></path>
                <rect id="Rectangle-Copy-6" fill="#FFFFFF" x="50" y="60" width="330" height="170" rx="8"></rect>
                <g id="Rectangle-Copy-6">
                    <use fill="black" fill-opacity="1" filter="url(#filter-3)" xlink:href="#path-2"></use>
                    <use fill="#FFFFFF" fill-rule="evenodd" xlink:href="#path-2"></use>
                </g>
                <g id="Button/Primary/Basic/Small" transform="translate(282.000000, 124.000000)">
                    <rect id="Rectangle-40-Copy-13" fill="#004477" x="0" y="0" width="68" height="24" rx="4"></rect>
                    <g id="Group" transform="translate(11.000000, 1.000000)">
                        <text id="Text" font-family="PingFangTC-Regular, PingFang TC" font-size="14" font-weight="normal" line-spacing="22" fill="#FFFFFF">
                            <tspan x="18" y="15">新增</tspan>
                        </text>
                        <g transform="translate(0.000000, 4.000000)" id="Icon/number/Plus-14px">
                            <mask id="mask-5" fill="white">
                                <use xlink:href="#path-4"></use>
                            </mask>
                            <use id="Mask" fill="#FFFFFF" xlink:href="#path-4"></use>
                        </g>
                    </g>
                </g>
                <g id="Select/Small/Selected" transform="translate(128.000000, 124.000000)">
                    <path d="M130.007843,0.5 C130.972445,0.5 131.845751,0.890332979 132.477784,1.52203238 C133.10941,2.15332576 133.5,3.02564677 133.5,3.99005301 L133.5,3.99005301 L133.5,20.009947 C133.5,20.9730344 133.10829,21.8449074 132.476545,22.4763196 C131.843881,23.1086499 130.970395,23.5 130.007843,23.5 L130.007843,23.5 L3.99215719,23.5 C3.02755472,23.5 2.15424891,23.109667 1.52221638,22.4779676 C0.89059009,21.8466742 0.5,20.9743532 0.5,20.009947 L0.5,20.009947 L0.5,3.99005301 C0.5,3.02696557 0.891710161,2.15509264 1.52345535,1.52368042 C2.15611914,0.891350095 3.02960545,0.5 3.99215719,0.5 L3.99215719,0.5 Z" id="Rectangle-26-Copy-23" stroke="#CCCCCC" fill="#FFFFFF"></path>
                    <g id="Group" transform="translate(110.000000, 5.000000)">
                        <mask id="mask-7" fill="white">
                            <use xlink:href="#path-6"></use>
                        </mask>
                        <use id="Mask" fill="#7F7F7F" xlink:href="#path-6"></use>
                    </g>
                    <text id="-Text" font-family="PingFangTC-Regular, PingFang TC" font-size="12" font-weight="normal" line-spacing="20" fill="#545454">
                        <tspan x="10" y="15">選項一</tspan>
                    </text>
                </g>
                <text id="標題" font-family="PingFangTC-Regular, PingFang TC" font-size="14" font-weight="normal" line-spacing="22" fill="#545454">
                    <tspan x="80" y="141">標題</tspan>
                </text>
            </g>
        </g>
    </g>
</svg>