<?xml version="1.0" encoding="UTF-8"?>
<svg width="1005px" height="225px" viewBox="0 0 1005 225" version="1.1" xmlns="http://www.w3.org/2000/svg" xmlns:xlink="http://www.w3.org/1999/xlink">
    <title>tooltip/type01</title>
    <defs>
        <path d="M7.04559151,56.3968668 C3.15441876,56.3968668 0,53.243881 0,49.3397547 L0,7.05711214 C0,3.15957673 3.15665174,0 7.04559151,0 L218.541876,0 C222.433049,0 225.587467,3.15298582 225.587467,7.05711214 L225.587467,49.3397547 C225.587467,53.2372901 222.430816,56.3968668 218.541876,56.3968668 L122.658114,56.3968668 L114.556136,65.2088773 L106.454158,56.3968668 L7.04559151,56.3968668 Z" id="path-1"></path>
        <filter x="-10.2%" y="-29.1%" width="120.4%" height="170.5%" filterUnits="objectBoundingBox" id="filter-2">
            <feOffset dx="0" dy="4" in="SourceAlpha" result="shadowOffsetOuter1"></feOffset>
            <feGaussianBlur stdDeviation="7" in="shadowOffsetOuter1" result="shadowBlurOuter1"></feGaussianBlur>
            <feComposite in="shadowBlurOuter1" in2="SourceAlpha" operator="out" result="shadowBlurOuter1"></feComposite>
            <feColorMatrix values="0 0 0 0 0   0 0 0 0 0   0 0 0 0 0  0 0 0 0.15 0" type="matrix" in="shadowBlurOuter1"></feColorMatrix>
        </filter>
        <path d="M225.587467,49.3397547 C225.587467,53.2372901 222.430816,56.3968668 218.541876,56.3968668 L7.04559151,56.3968668 C3.15441876,56.3968668 -3.97903932e-13,53.243881 -3.97903932e-13,49.3397547 L-3.97903932e-13,7.05711214 C-3.97903932e-13,3.15957673 3.15665174,0 7.04559151,0 L218.541876,0 C222.433049,0 225.587467,3.15298582 225.587467,7.05711214 L225.587467,21.1488251 L234.399478,29.0796345 L225.587467,37.0104439 L225.587467,49.3397547 Z" id="path-3"></path>
        <filter x="-9.8%" y="-33.7%" width="119.6%" height="181.6%" filterUnits="objectBoundingBox" id="filter-4">
            <feOffset dx="0" dy="4" in="SourceAlpha" result="shadowOffsetOuter1"></feOffset>
            <feGaussianBlur stdDeviation="7" in="shadowOffsetOuter1" result="shadowBlurOuter1"></feGaussianBlur>
            <feComposite in="shadowBlurOuter1" in2="SourceAlpha" operator="out" result="shadowBlurOuter1"></feComposite>
            <feColorMatrix values="0 0 0 0 0   0 0 0 0 0   0 0 0 0 0  0 0 0 0.15 0" type="matrix" in="shadowBlurOuter1"></feColorMatrix>
        </filter>
    </defs>
    <g id="tooltip/type01" stroke="none" stroke-width="1" fill="none" fill-rule="evenodd">
        <g id="Group-4" transform="translate(164.000000, 60.000000)">
            <g id="Group-3" transform="translate(449.412533, 0.000000)">
                <g id="Others/Tooltip/down">
                    <g id="Bg" transform="translate(112.793734, 32.604439) scale(-1, 1) translate(-112.793734, -32.604439) ">
                        <use fill="black" fill-opacity="1" filter="url(#filter-2)" xlink:href="#path-1"></use>
                        <use fill-opacity="0.7" fill="#000000" fill-rule="evenodd" xlink:href="#path-1"></use>
                    </g>
                    <text id="Text" font-family="PingFangTC-Regular, PingFang TC" font-size="24.6736292" font-weight="normal" line-spacing="38.772846" fill="#FFFFFF">
                        <tspan x="14.0992167" y="34.8120104">懸浮出現的氣泡。</tspan>
                    </text>
                </g>
                <g id="Icon/system/alert/Question/solid/14px" transform="translate(100.456919, 79.308094)" fill="#7F7F7F">
                    <path d="M12.3368146,0 C19.1509771,0 24.6736292,5.52265217 24.6736292,12.3368146 C24.6736292,19.1509771 19.1509771,24.6736292 12.3368146,24.6736292 C5.52265217,24.6736292 0,19.1509771 0,12.3368146 C0,5.52265217 5.52265217,0 12.3368146,0 Z M12.1801949,18.2408616 C11.3606437,18.2408616 10.6962661,18.9052392 10.6962661,19.7247904 C10.6962661,20.2549471 10.9791013,20.7448321 11.4382305,21.0099105 C11.8973597,21.2749888 12.4630301,21.2749888 12.9221593,21.0099105 C13.3812885,20.7448321 13.6641237,20.2549471 13.6641237,19.7247904 C13.6641237,18.9052392 12.9997461,18.2408616 12.1801949,18.2408616 Z M12.3214912,4.65312882 L11.9767604,4.66606319 C10.8351931,4.74956665 9.77259181,5.2349513 8.95746623,6.05248849 C8.06063156,6.95197652 7.56628131,8.14816487 7.56628131,9.41886882 C7.56628131,10.1417031 8.15147988,10.7269016 8.87431411,10.7269016 C9.59714835,10.7269016 10.1823469,10.1417031 10.1823469,9.41886882 L10.1823469,9.41886882 L10.1934571,9.20029355 C10.2963219,8.19316695 11.1018006,7.3789425 12.1215851,7.27941075 L12.1215851,7.27941075 L12.3489223,7.26868322 L12.5822278,7.28273433 L12.8393244,7.32505399 C13.2638561,7.42134397 13.6638876,7.64450336 13.9691021,7.96578183 C14.3295654,8.34387748 14.5097324,8.81624803 14.4846342,9.3046968 L14.4846342,9.3046968 L14.4731104,9.4842927 L14.4651189,9.55288087 L14.4445827,9.66480145 C14.3552787,10.0452638 14.0486155,10.5087922 13.2587925,11.3292281 L13.2587925,11.3292281 L12.7421269,11.8534447 L12.4403811,12.1703321 C11.4828,13.2035082 11.0043651,14.0183591 10.9080046,14.9996631 C10.8388676,15.7201318 11.363546,16.361655 12.0826891,16.4306637 L12.0826891,16.4306637 L12.1870787,16.4368191 L12.3926279,16.4238556 L12.5877003,16.3775746 C13.0275839,16.2404313 13.3557379,15.9042313 13.4727656,15.4744501 L13.4727656,15.4744501 L13.539004,15.1177933 L13.5749519,15.0110721 C13.6657662,14.7865312 13.8714662,14.4938945 14.2167935,14.1060873 L14.2167935,14.1060873 L14.6095795,13.6855539 L15.1463864,13.1397945 L15.434977,12.8325304 C16.6245261,11.5339068 17.0322037,10.6439275 17.0970689,9.44262474 C17.1613614,8.23178573 16.7223005,7.06564006 15.8657964,6.16377585 C14.9506783,5.20091244 13.6588689,4.65050886 12.3214912,4.65312882 L12.3214912,4.65312882 Z" id="Combined-Shape"></path>
                </g>
            </g>
            <g id="Group" transform="translate(0.000000, 38.772846)">
                <g transform="translate(38.772846, 0.000000)" id="Others/Tooltip/left">
                    <g id="Combined-Shape" transform="translate(117.199739, 28.198433) scale(-1, 1) translate(-117.199739, -28.198433) ">
                        <use fill="black" fill-opacity="1" filter="url(#filter-4)" xlink:href="#path-3"></use>
                        <use fill-opacity="0.7" fill="#000000" fill-rule="evenodd" xlink:href="#path-3"></use>
                    </g>
                    <text id="Text" font-family="PingFangTC-Regular, PingFang TC" font-size="24.6736292" font-weight="normal" line-spacing="38.772846" fill="#FFFFFF">
                        <tspan x="22.9112272" y="34.8120104">懸浮出現的氣泡。</tspan>
                    </text>
                </g>
                <g transform="translate(0.000000, 21.148825)" fill="#7F7F7F" id="Icon/system/alert/Question/solid/14px">
                    <path d="M12.3368146,0 C19.1509771,0 24.6736292,5.52265217 24.6736292,12.3368146 C24.6736292,19.1509771 19.1509771,24.6736292 12.3368146,24.6736292 C5.52265217,24.6736292 0,19.1509771 0,12.3368146 C0,5.52265217 5.52265217,0 12.3368146,0 Z M12.1801949,18.2408616 C11.3606437,18.2408616 10.6962661,18.9052392 10.6962661,19.7247904 C10.6962661,20.2549471 10.9791013,20.7448321 11.4382305,21.0099105 C11.8973597,21.2749888 12.4630301,21.2749888 12.9221593,21.0099105 C13.3812885,20.7448321 13.6641237,20.2549471 13.6641237,19.7247904 C13.6641237,18.9052392 12.9997461,18.2408616 12.1801949,18.2408616 Z M12.3214912,4.65312882 L11.9767604,4.66606319 C10.8351931,4.74956665 9.77259181,5.2349513 8.95746623,6.05248849 C8.06063156,6.95197652 7.56628131,8.14816487 7.56628131,9.41886882 C7.56628131,10.1417031 8.15147988,10.7269016 8.87431411,10.7269016 C9.59714835,10.7269016 10.1823469,10.1417031 10.1823469,9.41886882 L10.1823469,9.41886882 L10.1934571,9.20029355 C10.2963219,8.19316695 11.1018006,7.3789425 12.1215851,7.27941075 L12.1215851,7.27941075 L12.3489223,7.26868322 L12.5822278,7.28273433 L12.8393244,7.32505399 C13.2638561,7.42134397 13.6638876,7.64450336 13.9691021,7.96578183 C14.3295654,8.34387748 14.5097324,8.81624803 14.4846342,9.3046968 L14.4846342,9.3046968 L14.4731104,9.4842927 L14.4651189,9.55288087 L14.4445827,9.66480145 C14.3552787,10.0452638 14.0486155,10.5087922 13.2587925,11.3292281 L13.2587925,11.3292281 L12.7421269,11.8534447 L12.4403811,12.1703321 C11.4828,13.2035082 11.0043651,14.0183591 10.9080046,14.9996631 C10.8388676,15.7201318 11.363546,16.361655 12.0826891,16.4306637 L12.0826891,16.4306637 L12.1870787,16.4368191 L12.3926279,16.4238556 L12.5877003,16.3775746 C13.0275839,16.2404313 13.3557379,15.9042313 13.4727656,15.4744501 L13.4727656,15.4744501 L13.539004,15.1177933 L13.5749519,15.0110721 C13.6657662,14.7865312 13.8714662,14.4938945 14.2167935,14.1060873 L14.2167935,14.1060873 L14.6095795,13.6855539 L15.1463864,13.1397945 L15.434977,12.8325304 C16.6245261,11.5339068 17.0322037,10.6439275 17.0970689,9.44262474 C17.1613614,8.23178573 16.7223005,7.06564006 15.8657964,6.16377585 C14.9506783,5.20091244 13.6588689,4.65050886 12.3214912,4.65312882 L12.3214912,4.65312882 Z" id="Combined-Shape"></path>
                </g>
            </g>
        </g>
    </g>
</svg>