<?xml version="1.0" encoding="UTF-8"?>
<svg width="1045px" height="240px" viewBox="0 0 1045 240" version="1.1" xmlns="http://www.w3.org/2000/svg" xmlns:xlink="http://www.w3.org/1999/xlink">
    <title>spin/type01</title>
    <g id="spin/type01" stroke="none" stroke-width="1" fill="none" fill-rule="evenodd">
        <rect fill="#000000" opacity="0.5" x="0" y="0" width="1045" height="240"></rect>
        <g id="Group-7" transform="translate(20.000000, 52.000000)">
            <path d="M134.985862,68.2775801 C134.985862,30.8757189 104.76805,0.555160142 67.4929312,0.555160142 C30.2176284,0.555160142 0,30.8757189 0,68.2775801 C0,105.679441 30.2176284,136 67.4929312,136 C104.76805,136 134.985862,105.679441 134.985862,68.2775801 Z" id="Path" fill="#FFFFFF" fill-rule="nonzero"></path>
            <path d="M67.4929312,134.153025 C103.751361,134.153025 133.145146,104.659295 133.145146,68.2775801 C133.145146,31.8958648 103.751361,2.40213523 67.4929312,2.40213523 C31.2341946,2.40213523 1.84071631,31.8958648 1.84071631,68.2775801 C1.84071631,104.659295 31.2341946,134.153025 67.4929312,134.153025 Z" id="Path" stroke="#F5F5F5" stroke-width="8"></path>
            <path d="M113.91641,21.6967452 C102.0352,9.77556762 85.6221461,2.40213523 67.4929312,2.40213523" id="Path" stroke="#1890FF" stroke-width="8" stroke-linecap="round" stroke-linejoin="round"></path>
            <path d="M100.454025,38.7259786 L35.7589821,38.7259786 C33.9697445,38.7259786 32.5193214,40.181395 32.5193214,41.9766548 L32.5193214,94.5785053 C32.5193214,96.3737651 33.9697445,97.8291815 35.7589821,97.8291815 L100.454025,97.8291815 C102.243201,97.8291815 103.693685,96.3737651 103.693685,94.5785053 L103.693685,41.9766548 C103.693685,40.181395 102.243201,38.7259786 100.454025,38.7259786 Z" id="Path" stroke="#A0B1C0" stroke-width="4" fill="#FFFFFF" fill-rule="nonzero"></path>
            <path d="M33.7464656,48.5765125 L102.466541,48.5765125 L102.466541,40.5729537 C102.466541,40.2331103 102.191661,39.9572954 101.852969,39.9572954 L34.3600377,39.9572954 C34.0211618,39.9572954 33.7464656,40.2331103 33.7464656,40.5729537 L33.7464656,48.5765125 Z" id="Path" fill="#E3E8EF" fill-rule="nonzero"></path>
            <line x1="68.1065033" y1="44.2669039" x2="98.7851084" y2="44.2669039" id="Path" stroke="#A0B1C0" stroke-width="4" stroke-linecap="round" stroke-linejoin="round"></line>
            <path d="M37.4278982,43.0355872 C36.9315797,43.0355872 36.484163,43.3354128 36.294201,43.7959253 C36.1042391,44.2558221 36.2092213,44.7852883 36.5601845,45.1374448 C36.9111478,45.4896014 37.4389425,45.594879 37.8975263,45.4046406 C38.3560487,45.2137865 38.6550424,44.7649715 38.6550424,44.2669039 C38.6543061,43.5872171 38.1053432,43.0362028 37.4278982,43.0355872 Z" id="Path" fill="#A0B1C0" fill-rule="nonzero"></path>
            <path d="M42.9500471,43.0355872 C42.2722954,43.0355872 41.7229029,43.5866014 41.7229029,44.2669039 C41.7229029,44.9472064 42.2722954,45.4982206 42.9500471,45.4982206 C43.6277989,45.4982206 44.1771913,44.9472064 44.1771913,44.2669039 C44.176455,43.5872171 43.6274921,43.0362028 42.9500471,43.0355872 Z" id="Path" fill="#A0B1C0" fill-rule="nonzero"></path>
            <path d="M48.4723801,43.0355872 C47.9760003,43.0355872 47.5285221,43.3354128 47.3385602,43.7953096 C47.1485369,44.2558221 47.2535191,44.7852883 47.6044824,45.1374448 C47.9553843,45.4896014 48.4832403,45.594879 48.9417628,45.4046406 C49.4003466,45.2137865 49.6993402,44.7649715 49.6993402,44.2669039 C49.698604,43.5872171 49.1497024,43.0362028 48.4723801,43.0355872 Z" id="Path" fill="#A0B1C0" fill-rule="nonzero"></path>
            <polygon id="Path" fill="#E3E8EF" fill-rule="nonzero" points="52.1536287 91.0569395 41.1093308 91.0569395 41.1093308 72.5871886 52.1536287 72.5871886"></polygon>
            <polygon id="Path" fill="#E3E8EF" fill-rule="nonzero" points="66.8793591 91.0569395 55.8350613 91.0569395 55.8350613 78.7437722 66.8793591 78.7437722"></polygon>
            <polygon id="Path" fill="#E3E8EF" fill-rule="nonzero" points="81.6050895 91.0569395 70.5607917 91.0569395 70.5607917 66.430605 81.6050895 66.430605"></polygon>
            <polygon id="Path" fill="#E3E8EF" fill-rule="nonzero" points="95.7172479 91.0569395 85.2865221 91.0569395 85.2865221 62.1209964 95.7172479 62.1209964"></polygon>
            <line x1="38.6550424" y1="91.0569395" x2="97.5579642" y2="91.0569395" id="Path" stroke="#A0B1C0" stroke-width="4" stroke-linecap="round" stroke-linejoin="round"></line>
            <path d="M307.399623,68.2775801 C307.399623,30.8757189 277.181811,0.555160142 239.906692,0.555160142 C202.631573,0.555160142 172.413761,30.8757189 172.413761,68.2775801 C172.413761,105.679441 202.631573,136 239.906692,136 C277.181811,136 307.399623,105.679441 307.399623,68.2775801 Z" id="Path" fill="#FFFFFF" fill-rule="nonzero"></path>
            <path d="M174.254477,68.2775801 C174.254477,104.659295 203.648262,134.153025 239.906692,134.153025 C276.165122,134.153025 305.558907,104.659295 305.558907,68.2775801 C305.558907,31.8958648 276.165122,2.40213523 239.906692,2.40213523 C203.648262,2.40213523 174.254477,31.8958648 174.254477,68.2775801 Z" id="Path" stroke="#F5F5F5" stroke-width="8"></path>
            <path d="M286.329557,114.858907 C298.210767,102.937299 305.558907,86.4684377 305.558907,68.2775801" id="Path" stroke="#1890FF" stroke-width="8" stroke-linecap="round" stroke-linejoin="round"></path>
            <path d="M216.476828,45.8368327 L272.925461,45.8368327 C274.281455,45.8368327 275.379749,46.9388612 275.379749,48.2994662 L275.379749,50.93079 C275.379749,52.291395 274.281455,53.3934235 272.925461,53.3934235 L216.476828,53.3934235" id="Path" fill="#FFFFFF"></path>
            <path d="M216.476828,45.8368327 L272.925461,45.8368327 C274.281455,45.8368327 275.379749,46.9388612 275.379749,48.2994662 L275.379749,50.93079 C275.379749,52.291395 274.281455,53.3934235 272.925461,53.3934235 L216.476828,53.3934235" id="Path" stroke="#A0B1C0" stroke-width="4"></path>
            <path d="M217.559782,53.280758 L273.653157,53.280758 L265.615976,82.3810819 C265.026947,84.5137224 263.091741,85.9906868 260.885949,85.9906868 L220.871844,85.9906868 L217.559782,53.280758 Z" id="Path" stroke="#A0B1C0" stroke-width="4" fill="#E3E8EF" stroke-linecap="round" stroke-linejoin="round"></path>
            <path d="M204.31951,33.8007117 L211.563956,33.8007117 C213.437191,33.8007117 215.011617,35.2118007 215.222073,37.0797082 L221.657217,94.1974128 C221.867672,96.0653203 223.442098,97.4764093 225.315334,97.4764093 L254.22317,97.4764093" id="Path" stroke="#A0B1C0" stroke-width="4" stroke-linecap="round" stroke-linejoin="round"></path>
            <line x1="224.056284" y1="60.0486904" x2="249.621379" y2="60.0486904" id="Path" stroke="#A0B1C0" stroke-width="4" stroke-linecap="round" stroke-linejoin="round"></line>
            <line x1="255.7571" y1="60.0486904" x2="261.381715" y2="60.0486904" id="Path" stroke="#A0B1C0" stroke-width="4" stroke-linecap="round" stroke-linejoin="round"></line>
            <path d="M258.927427,103.985765 C262.654877,103.985765 265.67672,100.953648 265.67672,97.2135231 C265.67672,93.4733986 262.654877,90.4412811 258.927427,90.4412811 C255.199976,90.4412811 252.178134,93.4733986 252.178134,97.2135231 C252.178134,100.953648 255.199976,103.985765 258.927427,103.985765 Z" id="Path" fill="#C2CDD7" fill-rule="nonzero"></path>
            <path d="M233.361718,103.985765 C237.089169,103.985765 240.111011,100.953648 240.111011,97.2135231 C240.111011,93.4733986 237.089169,90.4412811 233.361718,90.4412811 C229.634268,90.4412811 226.612425,93.4733986 226.612425,97.2135231 C226.612425,100.953648 229.634268,103.985765 233.361718,103.985765 Z" id="Path" fill="#C2CDD7" fill-rule="nonzero"></path>
            <path d="M479.199811,68.2775801 C479.199811,30.8757189 448.981999,0.555160142 411.70688,0.555160142 C374.431762,0.555160142 344.213949,30.8757189 344.213949,68.2775801 C344.213949,105.679441 374.431762,136 411.70688,136 C448.981999,136 479.199811,105.679441 479.199811,68.2775801 Z" id="Path" fill="#FFFFFF" fill-rule="nonzero"></path>
            <path d="M411.70688,2.40213523 C375.448451,2.40213523 346.054665,31.8958648 346.054665,68.2775801 C346.054665,104.659295 375.448451,134.153025 411.70688,134.153025 C447.96531,134.153025 477.359095,104.659295 477.359095,68.2775801 C477.359095,31.8958648 447.96531,2.40213523 411.70688,2.40213523 Z" id="Path" stroke="#F5F5F5" stroke-width="8"></path>
            <path d="M365.283402,114.858292 C377.164612,126.7799 393.577665,134.153025 411.70688,134.153025" id="Path" stroke="#1890FF" stroke-width="8" stroke-linecap="round" stroke-linejoin="round"></path>
            <path d="M384.914641,39.341637 L401.910588,39.341637 C403.18191,39.341637 404.363649,39.9997758 405.035511,41.0833345 L407.711912,45.3954057 L435.94666,45.0752633 C437.414938,45.0586406 438.618766,46.2394733 438.635333,47.7127438 C438.638401,47.9743986 438.602813,48.2354377 438.530412,48.487242 L436.036855,57.1039964 L444.8048,57.1039964 C445.878551,57.1039964 446.748597,57.977 446.748597,59.0544021 C446.748597,59.2138577 446.729576,59.3726975 446.690921,59.5272278 L440.507955,84.3604235 L436.673129,94.5828149 C436.289033,95.6066548 435.320816,96.2912669 434.230499,96.3103523 L384.960659,97.1671328 C383.492381,97.1919751 382.281189,96.0185302 382.255419,94.5452598 C382.255419,94.5298683 382.255419,94.5138612 382.255419,94.4984698 L382.255419,42.0099004 C382.255419,40.5360142 383.445749,39.341637 384.914641,39.341637 Z" id="Path" stroke="#A0B1C0" stroke-width="4" fill="#C2CDD7" stroke-linejoin="round"></path>
            <path d="M431.025198,49.8078292 L390.529439,49.8078292 C389.851442,49.8078292 389.302295,50.3588434 389.302295,51.0391459 L389.302295,89.8902669 C389.302295,90.5705694 389.851442,91.1215836 390.529439,91.1215836 L431.025198,91.1215836 C431.702582,91.1215836 432.252342,90.5705694 432.252342,89.8902669 L432.252342,51.0391459 C432.252342,50.3588434 431.702582,49.8078292 431.025198,49.8078292 Z" id="Path" fill="#FFFFFF" fill-rule="nonzero"></path>
            <path d="M396.689703,57.1957295 L443.897327,57.1957295 C446.064464,57.1957295 447.205094,58.9435836 446.444878,61.0996192 L437.546242,93.3096335 C436.786026,95.465669 434.413343,97.2135231 432.246206,97.2135231 L385.038582,97.2135231 C382.871446,97.2135231 381.730815,95.465669 382.491031,93.3096335 L391.389667,61.0996192 C392.149883,58.9435836 394.522566,57.1957295 396.689703,57.1957295 Z" id="Path" stroke="#A0B1C0" stroke-width="4" fill="#E3E8EF"></path>
            <path d="M404.487591,58.4270463 L416.387208,58.4270463 L411.877453,71.571968 C411.657181,72.2147153 410.958936,72.5570214 410.317753,72.3353843 C410.201174,72.2947509 410.090731,72.236879 409.991333,72.1636157 L407.00385,69.9632527 C406.626503,69.6849751 406.123988,69.6468043 405.709213,69.8641317 L402.167061,71.721573 C401.566374,72.0361744 400.825179,71.8028399 400.511644,71.2001103 C400.355183,70.9002847 400.328799,70.5493594 400.438629,70.2292171 L404.487591,58.4270463 Z" id="Path" fill="#A0B1C0"></path>
            <path d="M651,68.2775801 C651,30.8757189 620.781574,0.555160142 583.507069,0.555160142 C546.23195,0.555160142 516.014138,30.8757189 516.014138,68.2775801 C516.014138,105.679441 546.23195,136 583.507069,136 C620.781574,136 651,105.679441 651,68.2775801 Z" id="Path" fill="#FFFFFF" fill-rule="nonzero"></path>
            <path d="M649.159284,68.2775801 C649.159284,31.8958648 619.763044,2.40213523 583.507069,2.40213523 C547.248639,2.40213523 517.854854,31.8958648 517.854854,68.2775801 C517.854854,104.659295 547.248639,134.153025 583.507069,134.153025 C619.763044,134.153025 649.159284,104.659295 649.159284,68.2775801 Z" id="Path" stroke="#F5F5F5" stroke-width="8"></path>
            <path d="M537.084204,21.6964374 C525.202993,33.6178612 517.854854,50.0867224 517.854854,68.2775801" id="Path" stroke="#1890FF" stroke-width="8" stroke-linecap="round" stroke-linejoin="round"></path>
            <g id="Group" opacity="0.9" transform="translate(547.306315, 33.800712)" fill-rule="nonzero">
                <g id="Path">
                    <path d="M55.7246183,0.546088968 L2.38434119,14.8866192 C0.747944392,15.3268149 -0.223340245,17.0149502 0.215363808,18.656911 L12.9193742,66.2312954 C13.3580782,67.8732562 15.0404929,68.8478434 16.6768897,68.4082633 L70.0147125,54.0671174 C71.65295,53.6269217 72.622394,51.9387865 72.1867578,50.2968256 L59.4821338,2.72244128 C59.0434298,1.08048043 57.3610151,0.105893238 55.7246183,0.546088968 Z" fill="#C2CDD7"></path>
                    <path d="M68.7200754,6.77224199 L15.9528746,6.77224199 C14.2588021,6.77224199 12.8850141,8.15070107 12.8850141,9.85053381 L12.8850141,56.6405694 C12.8850141,58.3404021 14.2588021,59.7188612 15.9528746,59.7188612 L68.7200754,59.7188612 C70.4135344,59.7188612 71.7879359,58.3404021 71.7879359,56.6405694 L71.7879359,9.85053381 C71.7879359,8.15070107 70.4135344,6.77224199 68.7200754,6.77224199 Z" stroke="#A0B1C0" stroke-width="4" fill="#FFFFFF"></path>
                    <path d="M56.4222498,28.545 C61.6903798,33.3600641 65.7872008,37.144516 68.7200754,39.8977402 L68.7200754,55.4092527 C68.7200754,56.0895552 68.1678605,56.6405694 67.4929312,56.6405694 L17.1800189,56.6405694 C16.9756993,56.6405694 16.7830377,56.5907011 16.6136918,56.5020463 L15.9522611,54.5842705 L15.9522611,47.5214377 L27.4622601,36.7024733 C27.9126221,36.2789004 28.5973685,36.2333416 29.0998841,36.5922705 L37.7690443,42.7907189 C38.2678784,43.1478007 38.9489434,43.1053203 39.3993054,42.6879039 L54.671115,28.5505409 C55.1650405,28.0931068 55.9252564,28.0906441 56.4222498,28.545 Z" fill="#E3E8EF"></path>
                    <path d="M26.0768143,24.6263345 C28.61823,24.6263345 30.6786051,22.5589537 30.6786051,20.0088968 C30.6786051,17.4588399 28.61823,15.3914591 26.0768143,15.3914591 C23.5353987,15.3914591 21.4750236,17.4588399 21.4750236,20.0088968 C21.4750236,22.5589537 23.5353987,24.6263345 26.0768143,24.6263345 Z" fill="#E3E8EF"></path>
                </g>
            </g>
        </g>
    </g>
</svg>