<?xml version="1.0" encoding="UTF-8"?>
<svg width="30px" height="30px" viewBox="0 0 30 30" version="1.1" xmlns="http://www.w3.org/2000/svg" xmlns:xlink="http://www.w3.org/1999/xlink">
    <title>hover提示</title>
    <g id="XXXGuideline" stroke="none" stroke-width="1" fill="none" fill-rule="evenodd">
        <g id="Guideline_圖標" transform="translate(-320.000000, -1515.000000)" fill="#7F7F7F">
            <g id="02" transform="translate(70.000000, 915.000000)">
                <g id="網站通用-Icon" transform="translate(40.000000, 400.000000)">
                    <g id="icon" transform="translate(10.000000, 20.000000)">
                        <g id="通路管理-copy-19" transform="translate(180.000000, 180.000000)">
                            <g id="hover提示" transform="translate(20.000000, 0.000000)">
                                <path d="M15,0 C23.2851562,0 30,6.71484375 30,15 C30,23.2851562 23.2851562,30 15,30 C6.71484375,30 0,23.2851562 0,15 C0,6.71484375 6.71484375,0 15,0 Z M14.8095703,22.1785714 C13.8131001,22.1785714 13.0053013,22.9863702 13.0053013,23.9828404 C13.0053013,24.6274436 13.349193,25.2230816 13.9074358,25.5453832 C14.4656786,25.8676848 15.153462,25.8676848 15.7117048,25.5453832 C16.2699476,25.2230816 16.6138393,24.6274436 16.6138393,23.9828404 C16.6138393,22.9863702 15.8060406,22.1785714 14.8095703,22.1785714 Z M14.9813686,5.65761377 L14.5622197,5.67334032 C13.1742189,5.77486993 11.8822307,6.36503602 10.8911415,7.35905743 C9.80070441,8.45272066 9.19963728,9.9071338 9.19963728,11.4521484 C9.19963728,12.3310231 9.91116442,13.0425502 10.7900391,13.0425502 C11.6689137,13.0425502 12.3804408,12.3310231 12.3804408,11.4521484 L12.3804408,11.4521484 L12.3939494,11.1863887 C12.51902,9.9618506 13.4983797,8.97185707 14.7383083,8.8508391 L14.7383083,8.8508391 L15.0147213,8.83779579 L15.2983912,8.85488015 L15.610988,8.90633548 C16.1271648,9.02341187 16.6135522,9.29474536 16.9846543,9.68537918 C17.4229319,10.1450955 17.6419921,10.7194381 17.6114759,11.3133298 L17.6114759,11.3133298 L17.5974643,11.5316956 L17.5877477,11.6150901 L17.5627783,11.7511713 C17.4541961,12.2137652 17.0813324,12.7773568 16.121008,13.7749028 L16.121008,13.7749028 L15.4928083,14.4122836 L15.1259237,14.7975784 C13.9616267,16.0537894 13.3799106,17.0445445 13.2627484,18.2376857 C13.1786867,19.1136841 13.8166289,19.8936948 14.6910156,19.9776006 L14.6910156,19.9776006 L14.8179402,19.9850848 L15.0678619,19.9693229 L15.3050451,19.913051 C15.8398877,19.7463022 16.2388813,19.3375257 16.3811722,18.8149663 L16.3811722,18.8149663 L16.4617096,18.3813169 L16.5054177,18.2515575 C16.6158364,17.9785442 16.8659415,17.6227352 17.2858156,17.1512109 L17.2858156,17.1512109 L17.7633935,16.6398957 L18.4160825,15.9763215 L18.766972,15.6027274 C20.2133127,14.0237661 20.7089969,12.9416643 20.7878647,11.4810326 C20.8660363,10.0088061 20.332194,8.59092109 19.2907937,7.49436874 C18.1781263,6.32364909 16.6074502,5.65442824 14.9813686,5.65761377 L14.9813686,5.65761377 Z" id="Combined-Shape"></path>
                            </g>
                        </g>
                    </g>
                </g>
            </g>
        </g>
    </g>
</svg>