<?xml version="1.0" encoding="UTF-8"?>
<svg width="23px" height="26px" viewBox="0 0 23 26" version="1.1" xmlns="http://www.w3.org/2000/svg" xmlns:xlink="http://www.w3.org/1999/xlink">
    <title>SKU管理</title>
    <g id="XXXGuideline" stroke="none" stroke-width="1" fill="none" fill-rule="evenodd">
        <g id="Guideline_圖標" transform="translate(-234.000000, -507.000000)" fill="#7F7F7F">
            <g id="01" transform="translate(70.000000, 405.000000)">
                <g id="側選單-Icon" transform="translate(40.000000, 80.000000)">
                    <g id="icon" transform="translate(10.000000, 20.000000)">
                        <g id="SKU管理" transform="translate(90.000000, 0.000000)">
                            <g id="SKU管理" transform="translate(20.000000, 0.000000)">
                                <path d="M13.3525219,2.4 C15.6594047,2.4 17.5361648,4.27676016 17.5361648,6.58359375 L17.5361648,6.58359375 L17.5361648,8.40557344 L21.4663805,8.40557344 L21.6408117,11.6498766 C21.0507773,10.5403875 19.8830625,9.78291094 18.5412117,9.78291094 C16.6065211,9.78291094 15.0325547,11.3568281 15.0325547,13.2915188 L15.0325547,13.2915188 L15.0325547,14.7941672 L9.62070703,14.7941672 L8.86775859,27.6 L4.20669375,27.6 L4.81311797,16.3215234 L12.729068,8.40557344 L16.0595531,8.40557344 L16.0595531,6.58359375 C16.0595531,5.09093672 14.8451789,3.8765625 13.3525219,3.8765625 C11.8598648,3.8765625 10.6454906,5.09093672 10.6454906,6.58359375 L10.6454906,6.58359375 L10.6454906,8.40099609 L4.93173516,14.1147516 L5.2387125,8.40557344 L9.16897734,8.40557344 L9.16897734,6.58359375 C9.16897734,4.27676016 11.0456883,2.4 13.3525219,2.4 Z M15.4337859,22.6736461 C15.7679812,24.0801703 17.0338875,25.1298094 18.5411625,25.1298094 C20.0484375,25.1298094 21.3143437,24.0801211 21.6485391,22.6736461 L21.6485391,22.6736461 L26.4458414,22.6736461 L26.7354937,27.6 L10.3468805,27.6 L10.6365328,22.6736461 Z M18.1469808,20.2551528 C19.0701243,20.036938 19.995378,20.6083956 20.2135928,21.5315391 C20.4318076,22.4546827 19.86035,23.3799364 18.9372065,23.5981512 C18.014063,23.816366 17.0888092,23.2449084 16.8705944,22.3217649 C16.6523796,21.3986213 17.2238372,20.4733676 18.1469808,20.2551528 Z M26.069318,16.2707297 L26.3589703,21.1970836 L21.6485391,21.1970836 C21.3143437,19.7905594 20.0484375,18.7409203 18.5411625,18.7409203 C17.0338875,18.7409203 15.7679812,19.7905594 15.4337859,21.1970836 L15.4337859,21.1970836 L10.7233547,21.1970836 L11.013007,16.2707297 L26.069318,16.2707297 Z M18.5411625,11.2594734 C19.6616766,11.2594734 20.573257,12.1710047 20.573257,13.2915188 L20.573257,13.2915188 L20.573257,14.7941672 L16.509068,14.7941672 L16.509068,13.2915188 C16.509068,12.1710539 17.4206484,11.2594734 18.5411625,11.2594734 Z" id="Combined-Shape"></path>
                            </g>
                        </g>
                    </g>
                </g>
            </g>
        </g>
    </g>
</svg>