<?xml version="1.0" encoding="UTF-8"?>
<svg width="28px" height="28px" viewBox="0 0 28 28" version="1.1" xmlns="http://www.w3.org/2000/svg" xmlns:xlink="http://www.w3.org/1999/xlink">
    <title>上傳</title>
    <defs>
        <path d="M2.88574219,18.7587891 L2.9961467,18.7647405 C3.50384115,18.8198047 3.89941406,19.2501953 3.89941406,19.7724609 L3.89941406,19.7724609 L3.89941406,25.5 C3.89941406,25.8339844 4.171875,26.1035156 4.50292969,26.1035156 L4.50292969,26.1035156 L25.4941406,26.1035156 C25.828125,26.1035156 26.0976562,25.8310547 26.0976562,25.5 L26.0976562,25.5 L26.0976562,19.7753906 C26.0976562,19.2158203 26.5517578,18.7617188 27.1113281,18.7617188 L27.1113281,18.7617188 L27.2217326,18.7676693 C27.7294271,18.8227214 28.125,19.2529297 28.125,19.7724609 L28.125,19.7724609 L28.125,26.3027344 C28.125,27.3046875 27.3105469,28.1220703 26.3056641,28.1220703 L26.3056641,28.1220703 L3.69433594,28.1220703 C2.69238281,28.1220703 1.875,27.3076172 1.875,26.3027344 L1.875,26.3027344 L1.875,19.7724609 C1.875,19.2158203 2.32617188,18.7587891 2.88574219,18.7587891 L2.88574219,18.7587891 Z M15.0292969,1.875 C15.2900391,1.875 15.5478516,1.97460938 15.7470703,2.17089844 L20.3115234,6.73828125 C20.7070312,7.13378906 20.7070312,7.77539062 20.3115234,8.17089844 C20.152832,8.32958984 19.9493815,8.4292806 19.729994,8.45810276 L19.5966797,8.46679688 L19.5966797,8.46679688 C19.3271484,8.46679688 19.0722656,8.36132812 18.8818359,8.17089844 L16.0429688,5.33203125 L16.0429688,22.2597656 C16.0429688,22.7820312 15.6473958,23.2124219 15.1397014,23.2674861 L15.0292969,23.2734375 L15.0292969,23.2734375 C14.4697266,23.2734375 14.015625,22.8193359 14.015625,22.2597656 L14.015625,5.33203125 L11.1767578,8.17089844 C11.0246394,8.32301683 10.8361166,8.41662814 10.6393595,8.45173239 L10.5205425,8.46577408 L10.5205425,8.46577408 L10.4011014,8.46577408 C10.1624965,8.45173239 9.92826022,8.3534405 9.74707031,8.17089844 C9.3515625,7.77539062 9.3515625,7.13378906 9.74414062,6.73828125 L14.3115234,2.17089844 C14.5078125,1.97460938 14.7685547,1.875 15.0292969,1.875 Z" id="path-1"></path>
    </defs>
    <g id="XXXGuideline" stroke="none" stroke-width="1" fill="none" fill-rule="evenodd">
        <g id="Guideline_圖標" transform="translate(-411.000000, -1776.000000)">
            <g id="03" transform="translate(70.000000, 1675.000000)">
                <g id="動作-Icon" transform="translate(40.000000, 80.000000)">
                    <g id="icon" transform="translate(10.000000, 20.000000)">
                        <g id="通路管理-copy-7" transform="translate(270.000000, 0.000000)">
                            <g id="上傳" transform="translate(20.000000, 0.000000)">
                                <mask id="mask-2" fill="white">
                                    <use xlink:href="#path-1"></use>
                                </mask>
                                <use id="Combined-Shape" stroke="#979797" stroke-width="0.2" fill="#7F7F7F" xlink:href="#path-1"></use>
                            </g>
                        </g>
                    </g>
                </g>
            </g>
        </g>
    </g>
</svg>