<?xml version="1.0" encoding="UTF-8"?>
<svg width="26px" height="24px" viewBox="0 0 26 24" version="1.1" xmlns="http://www.w3.org/2000/svg" xmlns:xlink="http://www.w3.org/1999/xlink">
    <title>下載中心</title>
    <g id="XXXGuideline" stroke="none" stroke-width="1" fill="none" fill-rule="evenodd">
        <g id="Guideline_圖標" transform="translate(-862.000000, -508.000000)" fill="#7F7F7F">
            <g id="01" transform="translate(70.000000, 405.000000)">
                <g id="側選單-Icon" transform="translate(40.000000, 80.000000)">
                    <g id="icon" transform="translate(10.000000, 20.000000)">
                        <g id="系統管理" transform="translate(720.000000, 0.000000)">
                            <g id="下載中心" transform="translate(20.000000, 0.000000)">
                                <path d="M25.7535586,3.60300234 C26.7716977,3.60300234 27.5999508,4.43135391 27.5999508,5.44939453 L27.5999508,5.44939453 L27.5999508,21.242018 C27.5999508,22.2601078 26.7716484,23.0884594 25.7535094,23.0884594 L25.7535094,23.0884594 L18.6340172,23.0884594 L18.9161883,25.0358484 L20.8386727,25.0358484 L20.8386727,26.5329352 L9.16127812,26.5329352 L9.16127812,25.0358484 L11.0837625,25.0358484 L11.3659336,23.0884594 L4.24644141,23.0884594 C3.22830234,23.0884594 2.4,22.2601078 2.4,21.242018 L2.4,21.242018 L2.4,5.44939453 C2.4,4.43135391 3.22830234,3.60300234 4.24644141,3.60300234 L4.24644141,3.60300234 Z M16.0310344,19.5680883 L13.9689164,19.5680883 L13.9689164,21.065175 L16.0310344,21.065175 L16.0310344,19.5680883 Z M25.7535586,5.10008906 L4.24639219,5.10008906 C4.05384844,5.10008906 3.89708672,5.25680156 3.89708672,5.44939453 L3.89708672,5.44939453 L3.89708672,17.5448039 L26.1029133,17.5448039 L26.1029133,5.44939453 C26.1029133,5.25685078 25.9461516,5.10008906 25.7535586,5.10008906 L25.7535586,5.10008906 Z M16.4187318,8.25 C16.8264599,8.25 17.157013,8.58055312 17.157013,8.98828125 L17.157013,8.98828125 L17.157013,11.203125 L17.8952943,11.203125 C18.5487716,11.203125 18.8798169,11.9932828 18.4216888,12.4591383 L18.4216888,12.4591383 L15.4685638,15.461482 C15.1795513,15.7552687 14.7052794,15.7556625 14.415824,15.461482 L14.415824,15.461482 L11.462699,12.4591383 C11.0044724,11.9932336 11.3356654,11.203125 11.9890443,11.203125 L11.9890443,11.203125 L12.7273255,11.203125 L12.7273255,8.98828125 C12.7273255,8.58055312 13.0578787,8.25 13.4656068,8.25 L13.4656068,8.25 Z" id="Combined-Shape"></path>
                            </g>
                        </g>
                    </g>
                </g>
            </g>
        </g>
    </g>
</svg>