<?xml version="1.0" encoding="UTF-8"?>
<svg width="28px" height="28px" viewBox="0 0 28 28" version="1.1" xmlns="http://www.w3.org/2000/svg" xmlns:xlink="http://www.w3.org/1999/xlink">
    <title>下載</title>
    <g id="XXXGuideline" stroke="none" stroke-width="1" fill="none" fill-rule="evenodd">
        <g id="Guideline_圖標" transform="translate(-501.000000, -1776.000000)" fill="#7F7F7F" stroke="#979797" stroke-width="0.2">
            <g id="03" transform="translate(70.000000, 1675.000000)">
                <g id="動作-Icon" transform="translate(40.000000, 80.000000)">
                    <g id="icon" transform="translate(10.000000, 20.000000)">
                        <g id="通路管理-copy-8" transform="translate(360.000000, 0.000000)">
                            <g id="下載" transform="translate(20.000000, 0.000000)">
                                <path d="M2.88574219,18.6087891 C3.47462079,18.6087891 3.96169624,19.0467913 4.03878605,19.6146133 L4.04941406,19.7724609 L4.04941406,25.5 C4.04941406,25.7143026 4.19942295,25.8944245 4.39929943,25.9415143 L4.50292969,25.9535156 L25.4941406,25.9535156 C25.7084433,25.9535156 25.8885651,25.8035067 25.935655,25.6036303 L25.9476563,25.5 L25.9476563,19.7753906 C25.9476563,19.1329776 26.4689151,18.6117188 27.1113281,18.6117188 C27.699729,18.6117188 28.1872026,19.0492837 28.264362,19.615177 L28.275,19.7724609 L28.275,26.3027344 C28.275,27.3206441 27.4992916,28.1608348 26.5068719,28.2618824 L26.3056641,28.2720703 L3.69433594,28.2720703 C2.67642619,28.2720703 1.83623556,27.4963619 1.73518794,26.5039422 L1.725,26.3027344 L1.725,19.7724609 C1.725,19.1316047 2.24469128,18.6087891 2.88574219,18.6087891 Z M15.0322266,1.725 C15.6211052,1.725 16.1081806,2.16300223 16.1852704,2.73082421 L16.1958984,2.88867188 L16.1955,19.4535 L18.7786996,16.871473 C18.9098283,16.7403444 19.0677708,16.6442304 19.2399598,16.5883199 L19.4164322,16.5460026 L19.5996094,16.5316406 C19.9089406,16.5316406 20.2019713,16.6529252 20.4205191,16.871473 C20.833325,17.2842789 20.8708528,17.9305475 20.5331026,18.3858011 L20.4205191,18.5162223 L15.8523478,23.0843878 C15.6291493,23.3043039 15.3352865,23.4234375 15.0292969,23.4234375 C14.7835193,23.4234375 14.5444664,23.3466826 14.3460687,23.2033729 L14.2054234,23.083571 L9.64061073,18.5158272 C9.18939409,18.0612433 9.19043402,17.324973 9.64354042,16.8718681 C10.0537043,16.4586432 10.6999841,16.4210773 11.1553111,16.7588736 L11.2857535,16.871473 L13.8675,19.4535 L13.8685547,2.88867188 C13.8685547,2.35332769 14.23054,1.90211834 14.7229686,1.7665859 L14.8743789,1.73562802 L15.0322266,1.725 Z" id="Combined-Shape"></path>
                            </g>
                        </g>
                    </g>
                </g>
            </g>
        </g>
    </g>
</svg>