<?xml version="1.0" encoding="UTF-8"?>
<svg width="20px" height="26px" viewBox="0 0 20 26" version="1.1" xmlns="http://www.w3.org/2000/svg" xmlns:xlink="http://www.w3.org/1999/xlink">
    <title>付款單</title>
    <g id="XXXGuideline" stroke="none" stroke-width="1" fill="none" fill-rule="evenodd">
        <g id="Guideline_圖標" transform="translate(-245.000000, -2432.000000)" fill="#7F7F7F">
            <g id="04" transform="translate(70.000000, 2155.000000)">
                <g id="流程圖" transform="translate(40.000000, 75.000000)">
                    <g id="icon" transform="translate(20.000000, 20.000000)">
                        <g id="通路管理-copy-29" transform="translate(90.000000, 180.000000)">
                            <g id="付款單" transform="translate(20.000000, 0.000000)">
                                <path d="M23.987371,2.25 L6.01278148,2.25 C5.59152269,2.25 5.25,2.58055312 5.25,2.98828125 L5.25,24.5370375 C5.25,24.7328297 5.33039717,24.9206484 5.47339327,25.0591008 L7.72024239,27.5344208 C8.01813398,27.8227442 8.50107636,27.8227442 8.79901881,27.5344208 L10.5064797,25.5811641 L12.2138389,27.5344208 C12.3568859,27.6728731 12.5508866,27.7506879 12.7531763,27.7506879 C12.9554659,27.7506879 13.1495175,27.6729223 13.2925645,27.5344208 L14.9999745,25.5811641 L16.7074355,27.5344208 C16.8504824,27.6728731 17.044534,27.7506879 17.2467728,27.7506879 C17.4490625,27.7506879 17.6431141,27.6729223 17.786161,27.5344208 L19.4935711,25.5811641 L21.2009811,27.5344208 C21.3499778,27.6785825 21.5450973,27.7506879 21.7403694,27.7506879 C21.9355397,27.7506879 22.1308118,27.6785825 22.2797067,27.5344208 L24.5265558,25.0591008 C24.6696028,24.9206484 24.75,24.7328789 24.75,24.5370375 L24.75,2.98828125 C24.75,2.58055312 24.408579,2.25 23.987371,2.25 Z M20.2405005,15 L9.79413164,15 C9.35573254,15 9,14.6640363 9,14.25 C9,13.8359637 9.35573254,13.5 9.79413164,13.5 L20.2405005,13.5 C20.6788996,13.5 21.0346321,13.8359637 21.0346321,14.25 C21.0346321,14.6640363 20.6789472,15 20.2405005,15 Z M9,10.5 C9,10.0859637 9.35748563,9.75 9.79804521,9.75 L12.7140489,9.75 C13.1546085,9.75 13.5120941,10.0859637 13.5120941,10.5 C13.5120941,10.9140363 13.1546085,11.25 12.7140489,11.25 L9.79804521,11.25 C9.35743784,11.2499551 9,10.9140363 9,10.5 Z M20.1821584,11.25 L17.2980452,11.25 C16.8574856,11.25 16.5,10.9140363 16.5,10.5 C16.5,10.0859637 16.8574856,9.75 17.2980452,9.75 L20.1821584,9.75 C20.622718,9.75 20.9802036,10.0859637 20.9802036,10.5 C20.9802036,10.9140812 20.6227658,11.25 20.1821584,11.25 Z M20.1821584,18.75 L13.5480452,18.75 C13.1074856,18.75 12.75,18.4140363 12.75,18 C12.75,17.5859637 13.1074856,17.25 13.5480452,17.25 L20.1821584,17.25 C20.622718,17.25 20.9802036,17.5859637 20.9802036,18 C20.9802036,18.4140812 20.6227658,18.75 20.1821584,18.75 Z M20.2228476,7.58826747 L9.79804521,7.58826747 C9.35748563,7.58826747 9,7.23253399 9,6.79413373 C9,6.35573348 9.35748563,6 9.79804521,6 L20.2228476,6 C20.6634072,6 21.0208928,6.35573348 21.0208928,6.79413373 C21.0208928,7.23253399 20.663455,7.58826747 20.2228476,7.58826747 Z" id="Shape"></path>
                            </g>
                        </g>
                    </g>
                </g>
            </g>
        </g>
    </g>
</svg>