<?xml version="1.0" encoding="UTF-8"?>
<svg width="24px" height="29px" viewBox="0 0 24 29" version="1.1" xmlns="http://www.w3.org/2000/svg" xmlns:xlink="http://www.w3.org/1999/xlink">
    <title>作廢</title>
    <g id="XXXGuideline" stroke="none" stroke-width="1" fill="none" fill-rule="evenodd">
        <g id="Guideline_圖標" transform="translate(-592.000000, -1865.000000)" fill="#7F7F7F">
            <g id="03" transform="translate(70.000000, 1675.000000)">
                <g id="動作-Icon" transform="translate(40.000000, 80.000000)">
                    <g id="icon" transform="translate(10.000000, 20.000000)">
                        <g id="通路管理-copy-13" transform="translate(450.000000, 90.000000)">
                            <g id="作廢" transform="translate(20.000000, 0.000000)">
                                <path d="M24.6354167,0.807291667 C25.2115885,0.807291667 25.6770833,1.27278646 25.6770833,1.84895833 L25.6770833,1.84895833 L25.6770833,14.3489583 C25.6770833,14.4921875 25.5598958,14.609375 25.4166667,14.609375 L25.4166667,14.609375 L23.59375,14.609375 C23.4505208,14.609375 23.3333333,14.4921875 23.3333333,14.3489583 L23.3333333,14.3489583 L23.3333333,3.15104167 L5.10416667,3.15104167 L5.10416667,26.0677083 L12.65625,26.0677083 C12.7994792,26.0677083 12.9166667,26.1848958 12.9166667,26.328125 L12.9166667,26.328125 L12.9166667,28.1510417 C12.9166667,28.2942708 12.7994792,28.4114583 12.65625,28.4114583 L12.65625,28.4114583 L3.80208333,28.4114583 C3.22591146,28.4114583 2.76041667,27.9459635 2.76041667,27.3697917 L2.76041667,27.3697917 L2.76041667,1.84895833 C2.76041667,1.27278646 3.22591146,0.807291667 3.80208333,0.807291667 L3.80208333,0.807291667 Z M24.0612822,17.3082534 L25.0101474,18.2571186 C25.2753333,18.5223045 25.2753333,18.9522558 25.0101474,19.2174417 L21.943,22.284 L25.0101474,25.3509591 C25.2488148,25.5896264 25.2726815,25.9617537 25.0817476,26.227113 L25.0101474,26.3112822 L24.0612822,27.2601474 C23.8226149,27.4988148 23.4504876,27.5226815 23.1851283,27.3317476 L23.1009591,27.2601474 L20.034,24.193 L16.9674417,27.2601474 C16.7022558,27.5253333 16.2723045,27.5253333 16.0071186,27.2601474 L15.0582534,26.3112822 C14.7930675,26.0460963 14.7930675,25.616145 15.0582534,25.3509591 L18.124,22.284 L15.0582534,19.2174417 C14.8195861,18.9787744 14.7957193,18.6066471 14.9866532,18.3412878 L15.0582534,18.2571186 L16.0071186,17.3082534 C16.2457859,17.0695861 16.6179132,17.0457193 16.8832725,17.2366532 L16.9674417,17.3082534 L20.034,20.374 L23.1009591,17.3082534 C23.366145,17.0430675 23.7960963,17.0430675 24.0612822,17.3082534 Z M13.9583333,11.3541667 C14.1015625,11.3541667 14.21875,11.4713542 14.21875,11.6145833 L14.21875,11.6145833 L14.21875,13.1770833 C14.21875,13.3203125 14.1015625,13.4375 13.9583333,13.4375 L13.9583333,13.4375 L7.96875,13.4375 C7.82552083,13.4375 7.70833333,13.3203125 7.70833333,13.1770833 L7.70833333,13.1770833 L7.70833333,11.6145833 C7.70833333,11.4713542 7.82552083,11.3541667 7.96875,11.3541667 L7.96875,11.3541667 Z M20.46875,6.66666667 C20.6119792,6.66666667 20.7291667,6.78385417 20.7291667,6.92708333 L20.7291667,6.92708333 L20.7291667,8.48958333 C20.7291667,8.6328125 20.6119792,8.75 20.46875,8.75 L20.46875,8.75 L7.96875,8.75 C7.82552083,8.75 7.70833333,8.6328125 7.70833333,8.48958333 L7.70833333,8.48958333 L7.70833333,6.92708333 C7.70833333,6.78385417 7.82552083,6.66666667 7.96875,6.66666667 L7.96875,6.66666667 Z" id="Combined-Shape"></path>
                            </g>
                        </g>
                    </g>
                </g>
            </g>
        </g>
    </g>
</svg>