<?xml version="1.0" encoding="UTF-8"?>
<svg width="24px" height="28px" viewBox="0 0 24 28" version="1.1" xmlns="http://www.w3.org/2000/svg" xmlns:xlink="http://www.w3.org/1999/xlink">
    <title>使用者</title>
    <g id="XXXGuideline" stroke="none" stroke-width="1" fill="none" fill-rule="evenodd">
        <g id="Guideline_圖標" transform="translate(-233.000000, -756.000000)" fill="#7F7F7F">
            <g id="01" transform="translate(70.000000, 405.000000)">
                <g id="頂部選單-Icon" transform="translate(40.000000, 330.000000)">
                    <g id="title" transform="translate(10.000000, 20.000000)">
                        <g id="SKU管理" transform="translate(90.000000, 0.000000)">
                            <g id="使用者" transform="translate(20.000000, 0.000000)">
                                <path d="M19.8,17.53125 C18.2625,17.53125 17.5232143,18.375 15,18.375 C12.4767857,18.375 11.7428571,17.53125 10.2,17.53125 C6.225,17.53125 3,20.7058594 3,24.61875 L3,25.96875 C3,27.3662109 4.15178571,28.5 5.57142857,28.5 L24.4285714,28.5 C25.8482143,28.5 27,27.3662109 27,25.96875 L27,24.61875 C27,20.7058594 23.775,17.53125 19.8,17.53125 Z M24.4285714,25.96875 L5.57142857,25.96875 L5.57142857,24.61875 C5.57142857,22.1085937 7.65,20.0625 10.2,20.0625 C10.9821429,20.0625 12.2517857,20.90625 15,20.90625 C17.7696429,20.90625 19.0125,20.0625 19.8,20.0625 C22.35,20.0625 24.4285714,22.1085938 24.4285714,24.61875 L24.4285714,25.96875 Z M15,16.6875 C19.2589286,16.6875 22.7142857,13.2861328 22.7142857,9.09375 C22.7142857,4.90136719 19.2589286,1.5 15,1.5 C10.7410714,1.5 7.28571429,4.90136719 7.28571429,9.09375 C7.28571429,13.2861328 10.7410714,16.6875 15,16.6875 Z M15,4.03125 C17.8339286,4.03125 20.1428571,6.30410156 20.1428571,9.09375 C20.1428571,11.8833984 17.8339286,14.15625 15,14.15625 C12.1660714,14.15625 9.85714286,11.8833984 9.85714286,9.09375 C9.85714286,6.30410156 12.1660714,4.03125 15,4.03125 Z" id="Shape"></path>
                            </g>
                        </g>
                    </g>
                </g>
            </g>
        </g>
    </g>
</svg>