<?xml version="1.0" encoding="UTF-8"?>
<svg width="24px" height="24px" viewBox="0 0 24 24" version="1.1" xmlns="http://www.w3.org/2000/svg" xmlns:xlink="http://www.w3.org/1999/xlink">
    <title>倉庫管理</title>
    <g id="XXXGuideline" stroke="none" stroke-width="1" fill="none" fill-rule="evenodd">
        <g id="Guideline_圖標" transform="translate(-516.000000, -1183.000000)" fill="#7F7F7F">
            <g id="02" transform="translate(70.000000, 915.000000)">
                <g id="Dashboard" transform="translate(53.000000, 240.000000)">
                    <g id="icon" transform="translate(10.000000, 25.000000)">
                        <g id="SKU管理-Copy" transform="translate(360.000000, 0.000000)">
                            <g id="Shape" transform="translate(20.000000, 0.000000)">
                                <path d="M16.0847724,3.27236494 L16.2515603,3.36929302 L25.9101387,9.5207614 C26.5368395,9.92002883 26.9351934,10.5889077 26.9927704,11.3223699 L27,11.5069622 L27,24.6448336 C27,25.8890453 26.0344035,26.9078474 24.8111894,26.9940868 L24.6428571,27 L5.35714286,27 C4.11197175,27 3.09223735,26.0352941 3.00591861,24.8130352 L3,24.6448336 L3,11.3214193 C3,10.5689236 3.35933183,9.86585505 3.95988569,9.42433291 L4.11498126,9.31952402 L13.7421397,3.35359342 C14.4571216,2.91060525 15.3493104,2.88422525 16.0847724,3.27236494 Z M14.9817857,5.60678572 L5.57142857,11.4385714 L5.57142857,24.4307143 L24.4285714,24.4307143 L24.4285714,11.6228571 L14.9817857,5.60678572 Z M21.2857143,18.6994102 L21.2857143,21.2688623 L8.71428574,21.2688623 L8.71428574,18.6994102 L21.2857143,18.6994102 Z M21.2857143,13.0598471 L21.2857143,15.6292992 L8.71428574,15.6292992 L8.71428574,13.0598471 L21.2857143,13.0598471 Z"></path>
                            </g>
                        </g>
                    </g>
                </g>
            </g>
        </g>
    </g>
</svg>