<?xml version="1.0" encoding="UTF-8"?>
<svg width="22px" height="26px" viewBox="0 0 22 26" version="1.1" xmlns="http://www.w3.org/2000/svg" xmlns:xlink="http://www.w3.org/1999/xlink">
    <title>倉間調撥</title>
    <g id="XXXGuideline" stroke="none" stroke-width="1" fill="none" fill-rule="evenodd">
        <g id="Guideline_圖標" transform="translate(-154.000000, -2702.000000)" fill="#7F7F7F">
            <g id="04" transform="translate(70.000000, 2155.000000)">
                <g id="流程圖" transform="translate(40.000000, 75.000000)">
                    <g id="icon" transform="translate(20.000000, 20.000000)">
                        <g id="通路管理-copy-37" transform="translate(0.000000, 450.000000)">
                            <g id="庫存盤點" transform="translate(20.000000, 0.000000)">
                                <path d="M8.25,4.5 L8.25,7.25 C8.25,7.76283584 8.63604019,8.18550716 9.13337887,8.24327227 L9.25,8.25 L20.75,8.25 C21.2628358,8.25 21.6855072,7.86395981 21.7432723,7.36662113 L21.75,7.25 L21.75,4.5 L24,4.5 C24.8284271,4.5 25.5,5.17157288 25.5,6 L25.5,26.25 C25.5,27.0784271 24.8284271,27.75 24,27.75 L6,27.75 C5.17157288,27.75 4.5,27.0784271 4.5,26.25 L4.5,6 C4.5,5.17157288 5.17157288,4.5 6,4.5 L8.25,4.5 Z M19.4640489,21 L15.0480452,21 C14.6074856,21 14.25,21.3359637 14.25,21.75 C14.25,22.1295333 14.5503471,22.4434261 14.9397848,22.4931406 L15.0480452,22.5 L19.4640489,22.5 C19.9046085,22.5 20.2620941,22.1640363 20.2620941,21.75 C20.2620941,21.3359637 19.9046085,21 19.4640489,21 Z M11.25,18 L9.75,18 C8.92157288,18 8.25,18.6715729 8.25,19.5 L8.25,21 C8.25,21.8284271 8.92157288,22.5 9.75,22.5 L11.25,22.5 C12.0784271,22.5 12.75,21.8284271 12.75,21 L12.75,19.5 C12.75,18.6715729 12.0784271,18 11.25,18 Z M11.25,19.5 L11.25,21 L9.75,21 L9.75,19.5 L11.25,19.5 Z M21.0865026,18 L14.9134974,18 C14.5472147,18 14.25,18.3557335 14.25,18.7941337 C14.25,19.1960006 14.4997429,19.5284045 14.8234977,19.5810144 L14.9134974,19.5882675 L21.0865026,19.5882675 C21.452825,19.5882675 21.75,19.232534 21.75,18.7941337 C21.75,18.3557335 21.4527853,18 21.0865026,18 Z M19.4640489,14.25 L15.0480452,14.25 C14.6074856,14.25 14.25,14.5859637 14.25,15 C14.25,15.3795333 14.5503471,15.6934261 14.9397848,15.7431406 L15.0480452,15.75 L19.4640489,15.75 C19.9046085,15.75 20.2620941,15.4140363 20.2620941,15 C20.2620941,14.5859637 19.9046085,14.25 19.4640489,14.25 Z M11.25,11.25 L9.75,11.25 C8.92157288,11.25 8.25,11.9215729 8.25,12.75 L8.25,14.25 C8.25,15.0784271 8.92157288,15.75 9.75,15.75 L11.25,15.75 C12.0784271,15.75 12.75,15.0784271 12.75,14.25 L12.75,12.75 C12.75,11.9215729 12.0784271,11.25 11.25,11.25 Z M11.25,12.75 L11.25,14.25 L9.75,14.25 L9.75,12.75 L11.25,12.75 Z M21.0865026,11.25 L14.9134974,11.25 C14.5472147,11.25 14.25,11.6057335 14.25,12.0441337 C14.25,12.4460006 14.4997429,12.7784045 14.8234977,12.8310144 L14.9134974,12.8382675 L21.0865026,12.8382675 C21.452825,12.8382675 21.75,12.482534 21.75,12.0441337 C21.75,11.6057335 21.4527853,11.25 21.0865026,11.25 Z M15,2.25 C15.9799501,2.25 16.81358,2.87647132 17.1222411,3.75076538 L18.25,3.75 C19.3545695,3.75 20.25,4.6454305 20.25,5.75 L20.25,6.75 L9.75,6.75 L9.75,5.75 C9.75,4.6454305 10.6454305,3.75 11.75,3.75 L12.8777589,3.75076538 C13.18642,2.87647132 14.0200499,2.25 15,2.25 Z M15,3.75 C14.5857864,3.75 14.25,4.08578644 14.25,4.5 C14.25,4.91421356 14.5857864,5.25 15,5.25 C15.4142136,5.25 15.75,4.91421356 15.75,4.5 C15.75,4.08578644 15.4142136,3.75 15,3.75 Z" id="Combined-Shape"></path>
                            </g>
                        </g>
                    </g>
                </g>
            </g>
        </g>
    </g>
</svg>