<?xml version="1.0" encoding="UTF-8"?>
<svg width="26px" height="22px" viewBox="0 0 26 22" version="1.1" xmlns="http://www.w3.org/2000/svg" xmlns:xlink="http://www.w3.org/1999/xlink">
    <title>借貨單</title>
    <g id="XXXGuideline" stroke="none" stroke-width="1" fill="none" fill-rule="evenodd">
        <g id="Guideline_圖標" transform="translate(-512.000000, -2614.000000)" fill="#7F7F7F">
            <g id="04" transform="translate(70.000000, 2155.000000)">
                <g id="流程圖" transform="translate(40.000000, 75.000000)">
                    <g id="icon" transform="translate(20.000000, 20.000000)">
                        <g id="通路管理-copy-36" transform="translate(360.000000, 360.000000)">
                            <g id="借貨單" transform="translate(20.000000, 0.000000)">
                                <path d="M9.26207813,15.5715984 C10.9647516,15.5715984 12.3501117,16.9567617 12.350407,18.6594352 L12.350407,18.6594352 L12.3504563,18.965182 L14.5872023,21.2019281 C14.9357695,21.5505445 14.9357695,22.1177414 14.5872023,22.4663086 C14.2386352,22.814925 13.6713891,22.8148758 13.3228219,22.4663086 L13.3228219,22.4663086 L10.2227297,19.3663148 L9.17865234,20.4103922 L12.2786953,23.5103859 C12.7264383,23.9580797 13.3217391,24.2047148 13.9549875,24.2047148 C14.4736547,24.2047148 14.966925,24.0392414 15.3744563,23.7332977 L15.3744563,23.7332977 L19.6173586,23.7332977 C20.1098414,23.7332977 20.510482,24.1339383 20.510482,24.6264211 L20.510482,24.6264211 L20.510482,25.519643 C20.4188794,25.5196627 20.3250464,25.5196826 20.2291874,25.5197028 L15.2376296,25.5206636 C15.1269668,25.5206836 15.017343,25.5207034 14.9089626,25.5207229 L11.7614555,25.5212672 L6.86458359,20.6243461 L5.66467969,20.6242969 L5.66467969,15.5715984 Z M14.8185305,8.18981953 L14.8185305,12.8629922 L17.9654789,11.4701016 L21.1124273,12.8629922 L21.1124273,8.18981953 L27.6000492,8.18981953 L27.6000492,23.5088602 L21.7062516,23.5088602 C21.3063,22.7642789 20.5200797,22.2567844 19.6173586,22.2567844 L19.6173586,22.2567844 L16.286775,22.2567844 C16.4196164,21.5180109 16.2010852,20.7277547 15.6312305,20.1579492 L15.6312305,20.1579492 L13.8159938,18.3427125 C13.6524398,15.973125 11.6722711,14.0950852 9.26202891,14.0950852 L9.26202891,14.0950852 L8.33090859,14.0950852 L8.33090859,8.18981953 L14.8185305,8.18981953 Z M4.18811719,15.5715984 L4.18811719,21.5122523 C4.18811719,21.9227367 3.85416797,22.2566859 3.44368359,22.2566859 L3.44368359,22.2566859 L2.4,22.2566859 L2.4,15.5715984 L4.18811719,15.5715984 Z M23.5823227,19.5590555 L20.3774437,19.5590555 L20.3774437,21.035618 L23.5823227,21.035618 L23.5823227,19.5590555 Z M25.1880844,16.347532 L20.3774438,16.347532 L20.3774438,17.8240945 L25.1880844,17.8240945 L25.1880844,16.347532 Z M19.6358648,4.23967031 L19.6358648,10.5946969 L17.9654789,9.85543125 L16.2951422,10.5946969 L16.2951422,4.23967031 L19.6358648,4.23967031 Z M14.8185305,4.23967031 L14.8185305,6.71320781 L8.33090859,6.71320781 L8.33090859,4.23967031 L14.8185305,4.23967031 Z M27.6000492,4.23967031 L27.6000492,6.71320781 L21.1124273,6.71320781 L21.1124273,4.23967031 L27.6000492,4.23967031 Z" id="Combined-Shape"></path>
                            </g>
                        </g>
                    </g>
                </g>
            </g>
        </g>
    </g>
</svg>