<?xml version="1.0" encoding="UTF-8"?>
<svg width="24px" height="26px" viewBox="0 0 24 26" version="1.1" xmlns="http://www.w3.org/2000/svg" xmlns:xlink="http://www.w3.org/1999/xlink">
    <title>入庫單</title>
    <g id="XXXGuideline" stroke="none" stroke-width="1" fill="none" fill-rule="evenodd">
        <g id="Guideline_圖標" transform="translate(-243.000000, -2702.000000)" fill="#7F7F7F">
            <g id="04" transform="translate(70.000000, 2155.000000)">
                <g id="流程圖" transform="translate(40.000000, 75.000000)">
                    <g id="icon" transform="translate(20.000000, 20.000000)">
                        <g id="通路管理-copy-39" transform="translate(90.000000, 450.000000)">
                            <g id="商品加工" transform="translate(20.000000, 0.000000)">
                                <path d="M18.7058742,8.97390234 C19.1595234,8.97390234 19.5276305,9.34200938 19.5276305,9.79565859 L19.5276305,9.79565859 L19.5276305,26.7782438 C19.5276305,27.231893 19.1595234,27.6 18.7058742,27.6 L18.7058742,27.6 L4.46241094,27.6 C4.00876172,27.6 3.64065469,27.231893 3.64065469,26.7782438 L3.64065469,26.7782438 L3.64065469,9.79565859 C3.64065469,9.34200938 4.00876172,8.97390234 4.46241094,8.97390234 L4.46241094,8.97390234 Z M21.99285,5.68697578 C22.4466469,5.68697578 22.8146063,6.05488594 22.8146063,6.50868281 L22.8146063,6.50868281 L22.8146063,23.4913664 C22.8146063,23.9452125 22.4466469,24.3131227 21.99285,24.3131227 L21.99285,24.3131227 L21.1710938,24.3131227 L21.1710938,8.15224453 C21.1710938,7.69839844 20.8031344,7.33048828 20.3493375,7.33048828 L20.3493375,7.33048828 L6.92758125,7.33048828 L6.92758125,6.50873203 C6.92758125,6.05488594 7.29554063,5.68697578 7.7493375,5.68697578 L7.7493375,5.68697578 Z M15.4188984,22.6695117 L11.584118,22.6695117 C11.1304687,22.6695117 10.7623617,23.0376188 10.7623617,23.491268 C10.7623617,23.9449172 11.1304687,24.3130242 11.584118,24.3130242 L11.584118,24.3130242 L15.4188984,24.3130242 C15.8725969,24.3130242 16.2406547,23.9449172 16.2406547,23.491268 C16.2406547,23.0376188 15.8725477,22.6695117 15.4188984,22.6695117 L15.4188984,22.6695117 Z M25.2797766,2.4 C25.7336227,2.4 26.101582,2.76791016 26.101582,3.22175625 L26.101582,3.22175625 L26.101582,20.2043906 C26.101582,20.6582367 25.7336227,21.0261469 25.2798258,21.0261469 L25.2798258,21.0261469 L24.4580695,21.0261469 L24.4580695,4.86526875 C24.4580695,4.41142266 24.0901102,4.0435125 23.6363133,4.0435125 L23.6363133,4.0435125 L10.214557,4.0435125 L10.214557,3.22175625 C10.214557,2.76791016 10.5825164,2.4 11.0363133,2.4 L11.0363133,2.4 Z M15.4188984,19.3825852 L7.7493375,19.3825852 C7.29568828,19.3825852 6.92758125,19.7506922 6.92758125,20.2043414 C6.92758125,20.6579906 7.29568828,21.0260977 7.7493375,21.0260977 L7.7493375,21.0260977 L15.4188984,21.0260977 C15.8725969,21.0260977 16.2406547,20.6579906 16.2406547,20.2043414 C16.2406547,19.7506922 15.8725477,19.3825852 15.4188984,19.3825852 L15.4188984,19.3825852 Z M10.0770891,16.0956586 L7.74938672,16.0956586 C7.2957375,16.0956586 6.92763047,16.4637656 6.92763047,16.9174148 C6.92763047,17.3710641 7.29568828,17.7391219 7.74938672,17.7391711 L7.74938672,17.7391711 L10.0770891,17.7391711 C10.5307383,17.7391711 10.8988453,17.3710641 10.8988453,16.9174148 C10.8988453,16.4637656 10.5307383,16.0956586 10.0770891,16.0956586 L10.0770891,16.0956586 Z M15.4188984,16.0956094 L13.3640156,16.0956094 C12.9103664,16.0956094 12.5422594,16.4637164 12.5422594,16.9173656 C12.5422594,17.3710148 12.9103664,17.7391219 13.3640156,17.7391219 L13.3640156,17.7391219 L15.4188984,17.7391219 C15.8725969,17.7391219 16.2406547,17.3710641 16.2406547,16.9173656 C16.2406547,16.4637164 15.8725477,16.0956094 15.4188984,16.0956094 L15.4188984,16.0956094 Z M15.4188984,12.8086828 L7.7493375,12.8086828 C7.29568828,12.8086828 6.92758125,13.1767898 6.92758125,13.6304391 C6.92758125,14.0840883 7.29568828,14.4521953 7.7493375,14.4521953 L7.7493375,14.4521953 L15.4188984,14.4521953 C15.8725969,14.4521953 16.2406547,14.0840883 16.2406547,13.6304391 C16.2406547,13.1767898 15.8725477,12.8086828 15.4188984,12.8086828 L15.4188984,12.8086828 Z" id="Combined-Shape"></path>
                            </g>
                        </g>
                    </g>
                </g>
            </g>
        </g>
    </g>
</svg>