<?xml version="1.0" encoding="UTF-8"?>
<svg width="28px" height="21px" viewBox="0 0 28 21" version="1.1" xmlns="http://www.w3.org/2000/svg" xmlns:xlink="http://www.w3.org/1999/xlink">
    <title>出貨單</title>
    <g id="XXXGuideline" stroke="none" stroke-width="1" fill="none" fill-rule="evenodd">
        <g id="Guideline_圖標" transform="translate(-241.000000, -2794.000000)" fill="#7F7F7F">
            <g id="04" transform="translate(70.000000, 2155.000000)">
                <g id="流程圖" transform="translate(40.000000, 75.000000)">
                    <g id="icon" transform="translate(20.000000, 20.000000)">
                        <g id="通路管理-copy-40" transform="translate(90.000000, 540.000000)">
                            <g id="出貨單" transform="translate(20.000000, 0.000000)">
                                <path d="M24.0212105,21.432 C24.9761399,21.432 25.7502632,22.2061232 25.7502632,23.1610526 C25.7502632,24.115982 24.9761399,24.8901053 24.0212105,24.8901053 C23.0662811,24.8901053 22.2921579,24.115982 22.2921579,23.1610526 C22.2921579,22.2061232 23.0662811,21.432 24.0212105,21.432 Z M6.52915789,21.432 C7.48408729,21.432 8.25821053,22.2061232 8.25821053,23.1610526 C8.25821053,24.115982 7.48408729,24.8901053 6.52915789,24.8901053 C5.57422849,24.8901053 4.80010526,24.115982 4.80010526,23.1610526 C4.80010526,22.2061232 5.57422849,21.432 6.52915789,21.432 Z M21.7398421,9.17489474 L21.7398421,17.2991053 L28.7503684,17.2991053 L28.7503684,23.0548421 L27.3265263,23.0548421 C27.2701579,21.2798421 25.8096316,19.853 24.0212105,19.853 C22.2327895,19.853 20.7722632,21.2798421 20.7158947,23.0548421 L20.7158947,23.0548421 L19.4663158,23.0548421 L19.4663158,9.17489474 L21.7398421,9.17489474 Z M17.8873684,18.3766842 L17.8873684,23.0548421 L9.83447368,23.0548421 C9.77810526,21.2798421 8.31757895,19.853 6.52915789,19.853 C4.74073684,19.853 3.28021053,21.2798421 3.22384211,23.0548421 L3.22384211,23.0548421 L1.8,23.0548421 L1.8,18.3766842 L17.8873684,18.3766842 Z M17.8873684,4.8 L17.8873684,16.7977368 L1.8,16.7977368 L1.8,4.8 L17.8873684,4.8 Z M25.4001053,9.17489474 L28.4631053,15.7201579 L23.3187895,15.7201579 L23.3187895,9.17489474 L25.4001053,9.17489474 Z M13.8140526,7.16857895 L5.87326316,7.16857895 L5.87326316,14.4290526 L13.8140526,14.4290526 L13.8140526,7.16857895 Z M9.05415789,8.74752632 L9.05415789,10.2318947 L10.6331053,10.2318947 L10.6331053,8.74752632 L12.2351053,8.74752632 L12.2351053,12.8501053 L7.45221053,12.8501053 L7.45221053,8.74752632 L9.05415789,8.74752632 Z" id="Combined-Shape"></path>
                            </g>
                        </g>
                    </g>
                </g>
            </g>
        </g>
    </g>
</svg>