<?xml version="1.0" encoding="UTF-8"?>
<svg width="28px" height="28px" viewBox="0 0 28 28" version="1.1" xmlns="http://www.w3.org/2000/svg" xmlns:xlink="http://www.w3.org/1999/xlink">
    <title>列印</title>
    <g id="XXXGuideline" stroke="none" stroke-width="1" fill="none" fill-rule="evenodd">
        <g id="Guideline_圖標" transform="translate(-591.000000, -1776.000000)" fill="#7F7F7F">
            <g id="03" transform="translate(70.000000, 1676.000000)">
                <g id="動作-Icon" transform="translate(40.000000, 79.000000)">
                    <g id="icon" transform="translate(10.000000, 20.000000)">
                        <g id="通路管理-copy-6" transform="translate(450.000000, 0.000000)">
                            <g id="Icon/shopping" transform="translate(20.000000, 0.000000)">
                                <path d="M24,23.25 L24,27 C24,27.8284271 23.3284271,28.5 22.5,28.5 L7.5,28.5 C6.67157288,28.5 6,27.8284271 6,27 L6,23.25 L3,23.25 C2.17157288,23.25 1.5,22.5784271 1.5,21.75 L1.5,14.25 C1.5,11.4541481 3.41228605,9.10493456 6.00025754,8.43895995 L6,3 C6,2.17157288 6.67157288,1.5 7.5,1.5 L22.5,1.5 C23.3284271,1.5 24,2.17157288 24,3 L24.0007383,8.43921631 C26.5882045,9.10553724 28.5,11.4545067 28.5,14.25 L28.5,21.75 C28.5,22.5784271 27.8284271,23.25 27,23.25 L24,23.25 Z M21.75,20.25 L8.25,20.25 L8.25,26.25 L21.75,26.25 L21.75,20.25 Z M15.6,13.5 C16.0970563,13.5 16.5,13.9029437 16.5,14.4 C16.5,14.8970563 16.0970563,15.3 15.6,15.3 L12.9,15.3 C12.4029437,15.3 12,14.8970563 12,14.4 C12,13.9029437 12.4029437,13.5 12.9,13.5 L15.6,13.5 Z M23.1,13.5 C23.5970563,13.5 24,13.9029437 24,14.4 C24,14.8970563 23.5970563,15.3 23.1,15.3 L18.9,15.3 C18.4029437,15.3 18,14.8970563 18,14.4 C18,13.9029437 18.4029437,13.5 18.9,13.5 L23.1,13.5 Z M21.75,3.75 L8.25,3.75 L8.25,8.25 L21.75,8.25 L21.75,3.75 Z M24,21 L26.25,21 L26.25,14.25 C26.25,12.2617749 24.7026961,10.634942 22.7465635,10.5079765 L22.5,10.5 L7.5,10.5 C5.5117749,10.5 3.88494199,12.0473039 3.75797652,14.0034365 L3.75,14.25 L3.75,21 L6,21 L6,19.5 C6,18.6715729 6.67157288,18 7.5,18 L22.5,18 C23.3284271,18 24,18.6715729 24,19.5 L24,21 Z" id="Combined-Shape"></path>
                            </g>
                        </g>
                    </g>
                </g>
            </g>
        </g>
    </g>
</svg>