<?xml version="1.0" encoding="UTF-8"?>
<svg width="29px" height="30px" viewBox="0 0 29 30" version="1.1" xmlns="http://www.w3.org/2000/svg" xmlns:xlink="http://www.w3.org/1999/xlink">
    <title>刪除</title>
    <g id="XXXGuideline" stroke="none" stroke-width="1" fill="none" fill-rule="evenodd">
        <g id="Guideline_圖標" transform="translate(-680.000000, -1775.000000)" fill="#7F7F7F">
            <g id="03" transform="translate(70.000000, 1675.000000)">
                <g id="動作-Icon" transform="translate(40.000000, 80.000000)">
                    <g id="icon" transform="translate(10.000000, 20.000000)">
                        <g id="通路管理-copy-3" transform="translate(540.000000, 0.000000)">
                            <g id="刪除" transform="translate(20.000000, 0.000000)">
                                <path d="M3.73934569,29.6159116 C3.68411886,29.5696153 3.62790585,29.5094301 3.57267902,29.4492449 C3.63382299,29.5094301 3.68411886,29.5696153 3.73934569,29.6159116 Z M3.4303552,29.4328061 C3.37331817,29.3791931 3.31702187,29.32558 3.26368854,29.2661394 C3.3162811,29.32558 3.37331817,29.3791931 3.4303552,29.4328061 Z M28.3612061,4.63518415 C28.1439764,4.40761021 27.8281194,4.28074426 27.5216259,4.28074426 L21.628959,4.28074426 L21.628959,2.3574829 C21.628959,1.05678013 20.6202143,0 19.3786344,0 L9.3199019,0 C8.07832199,0 7.06957731,1.05678013 7.06957731,2.3574829 L7.06957731,4.28074426 L1.1469477,4.2807443 C0.518354936,4.2807443 0.00399502841,4.81567386 0.00399502841,5.47812328 C0.00399502841,6.1405727 0.514609613,6.67550227 1.1469477,6.67550227 L2.15569237,6.67550227 L2.15569237,27.5135585 C2.15569237,28.8142613 3.16443704,29.8710415 4.40601696,29.8710415 L24.61337,29.8710415 C25.8549499,29.8710415 26.8636946,28.8142613 26.8636946,27.5135585 L26.8636946,6.67550223 L27.5210016,6.67550223 C28.1495944,6.67550223 28.6957921,6.14057267 28.6957921,5.47812325 C28.6964139,5.16030449 28.5784357,4.86275809 28.3612061,4.63518415 Z M9.31615658,2.36467634 L19.3686468,2.36467634 L19.3686468,4.30101666 L9.31615658,4.30101666 L9.31615658,2.36467634 Z M24.6102489,27.5102888 L4.40601696,27.5102888 L4.40601696,6.67550223 L7.31739391,6.67550223 L24.6096247,6.67550223 L24.6096247,27.5102888 L24.6102489,27.5102888 Z M14.3342868,10.6881278 C13.6988275,10.6881278 13.1850919,11.2263271 13.1850919,11.8920462 L13.1850919,23.0621338 C13.1850919,23.727853 13.6988276,24.2660522 14.3342868,24.2660522 C14.969746,24.2660522 15.4834817,23.7278529 15.4834817,23.0621338 L15.4834817,11.8920462 C15.4834817,11.226981 14.969746,10.6881278 14.3342868,10.6881278 Z M8.10953313,10.6881278 C7.47407391,10.6881278 6.96033825,11.2263271 6.96033825,11.8920462 L6.96033825,23.0621338 C6.96033825,23.727853 7.47407394,24.2660522 8.10953313,24.2660522 C8.74499232,24.2660522 9.25872804,23.7278529 9.25872804,23.0621338 L9.25872804,11.8920462 C9.25872804,11.226981 8.74436814,10.6881278 8.10953313,10.6881278 Z M20.4953697,10.6881278 C19.8599104,10.6881278 19.3461748,11.2263271 19.3461748,11.8920462 L19.3461748,23.0621338 C19.3461748,23.727853 19.8599105,24.2660522 20.4953697,24.2660522 C21.1308288,24.2660522 21.6445645,23.7278529 21.6445645,23.0621338 L21.6445645,11.8920462 C21.6445645,11.226981 21.1308288,10.6881278 20.4953697,10.6881278 Z" id="Shape"></path>
                            </g>
                        </g>
                    </g>
                </g>
            </g>
        </g>
    </g>
</svg>