<?xml version="1.0" encoding="UTF-8"?>
<svg width="24px" height="26px" viewBox="0 0 24 26" version="1.1" xmlns="http://www.w3.org/2000/svg" xmlns:xlink="http://www.w3.org/1999/xlink">
    <title>商店代號</title>
    <g id="XXXGuideline" stroke="none" stroke-width="1" fill="none" fill-rule="evenodd">
        <g id="Guideline_圖標" transform="translate(-144.000000, -1017.000000)" fill="#7F7F7F">
            <g id="02" transform="translate(70.000000, 915.000000)">
                <g id="登入-Icon" transform="translate(40.000000, 80.000000)">
                    <g id="icon" transform="translate(10.000000, 20.000000)">
                        <g id="商店代號" transform="translate(20.000000, 0.000000)">
                            <path d="M25.8311935,14.3392659 C25.2374322,13.770062 24.5631103,13.3209916 23.817179,12.9977753 C24.6824593,12.5601462 25.4224231,11.9251549 25.977396,11.141427 C26.6547016,10.1860798 27.0127486,9.07055458 27.0127486,7.90926426 C27.0127486,4.73716828 24.3214286,2.15715875 21.0124774,2.15715875 C19.7593128,2.15715875 18.5598553,2.52327983 17.5424051,3.21547751 C16.6562387,3.81900524 15.9640145,4.62847608 15.5283906,5.57238201 C14.394575,4.40251073 12.8161844,3.73605594 11.1333635,3.73605594 C7.8244123,3.73605594 5.13309222,6.31606547 5.13309222,9.48816145 C5.13309222,10.6465915 5.49113924,11.7621166 6.16844485,12.7174638 C6.72341772,13.5011918 7.46338156,14.1361831 8.32866184,14.5766725 C7.58273056,14.8998888 6.90542495,15.3489592 6.31464738,15.918163 C5.02269439,17.156682 4.30958409,18.7985063 4.30958409,20.5404418 L4.30958409,25.2513904 C4.30958409,26.6815509 5.52396022,27.8485619 7.01880651,27.8485619 L15.2538879,27.8485619 C16.3399638,27.8485619 17.3216094,27.2192913 17.7452984,26.2696647 L25.1359855,26.2696647 C26.6278481,26.2696647 27.845208,25.1055141 27.845208,23.6724932 L27.845208,18.9586843 C27.8362568,17.2167488 27.1261302,15.5749245 25.8311935,14.3392659 Z M18.270434,5.28062927 C19.0014467,4.57699031 19.974141,4.19084697 21.0124774,4.19084697 C22.0508137,4.19084697 23.0235081,4.57699031 23.7545208,5.28062927 C24.4885172,5.98140791 24.8913201,6.91387256 24.8913201,7.90926426 C24.8913201,8.90465597 24.4855335,9.83712061 23.7545208,10.5378993 C23.0235081,11.2415382 22.0508137,11.6276816 21.0124774,11.6276816 C19.974141,11.6276816 19.0014467,11.2415382 18.270434,10.5378993 C17.5364376,9.83712061 17.1336347,8.90465597 17.1336347,7.90926426 C17.1336347,6.91387256 17.5364376,5.98140791 18.270434,5.28062927 Z M7.25153707,9.48816145 C7.25153707,8.49276974 7.65433996,7.5603051 8.38833635,6.85952646 C9.11934901,6.15588749 10.0920434,5.76974416 11.1303797,5.76974416 C12.1687161,5.76974416 13.1414105,6.15588749 13.8724231,6.85952646 C14.6064195,7.56316542 15.0092224,8.49563007 15.0092224,9.48816145 C15.0092224,10.4835532 14.6064195,11.4160178 13.8724231,12.1167964 C13.1414105,12.8204354 12.1687161,13.2065787 11.1303797,13.2065787 C10.0950271,13.2065787 9.11934901,12.8204354 8.38535262,12.1167964 C7.65433996,11.4160178 7.25153707,10.4806928 7.25153707,9.48816145 Z M15.8327306,25.2485301 C15.8327306,25.3972668 15.7730561,25.5374225 15.6596745,25.6432544 C15.5492767,25.7490863 15.4030741,25.809153 15.2479204,25.809153 L7.01283906,25.809153 C6.69059675,25.809153 6.42802893,25.5574448 6.42802893,25.2485301 L6.42802893,20.5375814 C6.42802893,19.3391069 6.91735986,18.2092802 7.80949367,17.3540442 C8.70162749,16.4988082 9.88019892,16.0297156 11.1303797,16.0297156 C12.3805606,16.0297156 13.559132,16.4988082 14.4512658,17.3540442 C14.4661844,17.3683458 14.4811031,17.3826474 14.4900542,17.3940887 L14.4990054,17.40553 C15.3583183,18.252185 15.8327306,19.3648498 15.8327306,20.5404418 L15.8327306,25.2485301 Z M15.3075949,15.3718417 C14.8809222,15.0514858 14.4214286,14.7854759 13.9350814,14.5738122 C15.1196203,13.9702844 16.0684448,13.0006356 16.6144665,11.8250437 C17.0739602,12.2969967 17.6110307,12.6945813 18.204792,12.994915 C17.4588608,13.3181313 16.7815552,13.770062 16.1907776,14.3364055 C15.8595841,14.6567615 15.5641953,15.0028603 15.3075949,15.3718417 Z M25.7148282,23.6724932 C25.7148282,23.9814079 25.4522604,24.2331162 25.1300181,24.2331162 L17.9571429,24.2331162 L17.9571429,20.5375814 C17.9571429,19.241856 17.5632911,17.9976164 16.8173599,16.9278563 C17.044123,16.5016685 17.336528,16.1155252 17.6915913,15.7780073 C18.5807414,14.9227713 19.7622966,14.4508184 21.0124774,14.4508184 C22.2626582,14.4508184 23.4412297,14.919911 24.3333635,15.775147 C25.2254973,16.630383 25.7148282,17.7602098 25.7148282,18.9586843 L25.7148282,23.6724932 Z" id="Shape"></path>
                        </g>
                    </g>
                </g>
            </g>
        </g>
    </g>
</svg>