<?xml version="1.0" encoding="UTF-8"?>
<svg width="26px" height="26px" viewBox="0 0 26 26" version="1.1" xmlns="http://www.w3.org/2000/svg" xmlns:xlink="http://www.w3.org/1999/xlink">
    <title>商店名稱</title>
    <g id="XXXGuideline" stroke="none" stroke-width="1" fill="none" fill-rule="evenodd">
        <g id="Guideline_圖標" transform="translate(-322.000000, -757.000000)" fill="#7F7F7F">
            <g id="01" transform="translate(70.000000, 405.000000)">
                <g id="頂部選單-Icon" transform="translate(40.000000, 330.000000)">
                    <g id="title" transform="translate(10.000000, 20.000000)">
                        <g id="通路管理" transform="translate(180.000000, 0.000000)">
                            <g id="商店名稱" transform="translate(20.000000, 0.000000)">
                                <path d="M26.0026042,2.12916667 L26.1474498,2.14081345 C26.5716175,2.20978408 26.8942708,2.57683709 26.8942708,3.02083333 L26.8942708,3.02083333 L26.8942708,7.19075521 L27.0353049,7.34048701 L27.1722441,7.35944751 C27.5725368,7.44718909 27.8708333,7.80511359 27.8708333,8.22916667 L27.8708333,8.22916667 L27.8708333,12.516276 L27.858012,12.9000304 C27.8153188,13.5366107 27.6662273,14.1572801 27.4140839,14.7491537 C27.2760882,15.073283 27.1107025,15.3802008 26.9196743,15.6651772 L26.9196743,15.6651772 L26.8942708,26.9791667 L26.8826241,27.1240123 C26.8136534,27.54818 26.4466004,27.8708333 26.0026042,27.8708333 L26.0026042,27.8708333 L3.99739583,27.8708333 L3.85284057,27.859131 C3.42935051,27.7898455 3.10572917,27.4213108 3.10572917,26.9791667 L3.10572917,26.9791667 L3.10572917,15.7486979 L2.94877877,15.4744964 C2.80199892,15.2125307 2.68457758,14.9831851 2.58613645,14.7496736 C2.28240232,14.0441137 2.12916667,13.2930994 2.12916667,12.516276 L2.12916667,12.516276 L2.12916667,8.22916667 L2.13994541,8.09054476 C2.20381007,7.68370611 2.5441601,7.36566875 2.96469514,7.34048701 L2.96469514,7.34048701 L3.10572917,7.19075521 L3.10572917,3.02083333 L3.11737595,2.87598768 C3.18634658,2.45182005 3.55339959,2.12916667 3.99739583,2.12916667 L3.99739583,2.12916667 L26.0026042,2.12916667 Z M17.0833333,22.1416667 L12.9166667,22.1416667 L12.7666667,22.2916667 L12.7666667,25.6803385 L12.9166667,25.8303385 L17.0833333,25.8303385 L17.2333333,25.6803385 L17.2333333,22.2916667 L17.0833333,22.1416667 Z M18.562372,17.0560514 L18.5368445,17.0593786 L18.4908607,17.0728672 L18.5115,17.1285 L18.4788214,17.083763 L18.1830032,17.2884583 C17.8825593,17.4836291 17.5682397,17.6502179 17.2400581,17.7881493 C16.5308886,18.0857472 15.7825412,18.2354167 15.0065104,18.2354167 C14.2292894,18.2354167 13.4779038,18.0852992 12.7731077,17.7882103 C12.3342021,17.6050688 11.9247242,17.3709681 11.5449165,17.0869102 C11.4453125,17.0484974 11.4453125,17.0484974 11.3684648,17.0728672 C10.9698265,17.368032 10.5576025,17.6032469 10.1176623,17.7881493 C9.4084928,18.0857472 8.66014539,18.2354167 7.88411458,18.2354167 C7.10689352,18.2354167 6.35550793,18.0852992 5.65071188,17.7882103 L5.65071188,17.7882103 L5.56340269,17.752607 L5.36469153,17.6611412 L5.14947917,17.796224 L5.14947917,25.6803385 L5.29947917,25.8303385 L10.8333333,25.8303385 L10.9833333,25.6803385 L10.9833333,21.25 L10.9949801,21.1051543 C11.0639508,20.6809867 11.4310038,20.3583333 11.875,20.3583333 L11.875,20.3583333 L18.125,20.3583333 L18.2698457,20.3699801 C18.6940133,20.4389508 19.0166667,20.8060038 19.0166667,21.25 L19.0166667,21.25 L19.0166667,25.6803385 L19.1666667,25.8303385 L24.7135417,25.8303385 L24.8635417,25.6803385 L24.8635417,17.796224 L24.6501088,17.6602965 L24.3609318,17.7887989 C23.6532845,18.0857472 22.9049371,18.2354167 22.1289062,18.2354167 C21.3516852,18.2354167 20.6002996,18.0852992 19.8955035,17.7882103 C19.4565979,17.6050688 19.04712,17.3709681 18.6673124,17.0869102 C18.5926093,17.0581006 18.5739336,17.0508982 18.5368445,17.0593786 Z M25.6608073,9.38125 L4.33919271,9.38125 L4.27573025,9.40026046 C4.20827716,9.42326154 4.20238375,9.44397229 4.17291667,9.54752604 L4.17291667,9.54752604 L4.17291667,12.516276 L4.1808122,12.7578605 C4.30648644,14.6745353 5.91669764,16.1916667 7.88085937,16.1916667 C9.22783252,16.1916667 10.4482133,15.4749499 11.1064308,14.3361292 C11.1747506,14.2159882 11.3040579,14.1408854 11.4420573,14.1408854 C11.5791165,14.1408854 11.7066084,14.2153096 11.778262,14.3371207 C12.4321018,15.4743996 13.6524844,16.1916667 15,16.1916667 C16.3512284,16.1916667 17.5750291,15.4706823 18.2260129,14.3288497 C18.2932994,14.2128468 18.4166617,14.1408854 18.5481771,14.1408854 L18.5481771,14.1408854 L18.6648022,14.1537942 C18.7582772,14.179245 18.8390429,14.2412208 18.8904276,14.329815 C19.5446523,15.4712323 20.7684552,16.1916667 22.1191406,16.1916667 C24.1651424,16.1916667 25.8270833,14.5454738 25.8270833,12.516276 L25.8270833,12.516276 L25.8270833,9.54752604 L25.8080729,9.48406358 C25.7850718,9.4166105 25.764361,9.41071708 25.6608073,9.38125 L25.6608073,9.38125 Z M24.7005208,4.17291667 L5.29947917,4.17291667 L5.14947917,4.32291667 L5.14947917,7.1875 L5.29947917,7.3375 L24.7005208,7.3375 L24.8505208,7.1875 L24.8505208,4.32291667 L24.7005208,4.17291667 Z" id="Combined-Shape"></path>
                            </g>
                        </g>
                    </g>
                </g>
            </g>
        </g>
    </g>
</svg>