<?xml version="1.0" encoding="UTF-8"?>
<svg width="26px" height="26px" viewBox="0 0 26 26" version="1.1" xmlns="http://www.w3.org/2000/svg" xmlns:xlink="http://www.w3.org/1999/xlink">
    <title>回覆</title>
    <g id="XXXGuideline" stroke="none" stroke-width="1" fill="none" fill-rule="evenodd">
        <g id="Guideline_圖標" transform="translate(-952.000000, -1867.000000)" fill="#7F7F7F">
            <g id="03" transform="translate(70.000000, 1675.000000)">
                <g id="動作-Icon" transform="translate(40.000000, 80.000000)">
                    <g id="icon" transform="translate(10.000000, 20.000000)">
                        <g id="通路管理-copy-17" transform="translate(810.000000, 90.000000)">
                            <g id="回覆" transform="translate(20.000000, 0.000000)">
                                <path d="M21.0714286,7.5 C22.5482143,7.5 23.75,8.72682292 23.75,10.234375 L23.75,21.8142361 C23.75,23.3217882 22.5482143,24.5486111 21.0714286,24.5486111 L15.625,24.5486111 L9.69145876,27.683556 C9.38625986,27.8448057 9.00812856,27.7281118 8.84687887,27.4229129 C8.79933953,27.3329347 8.77449036,27.2327092 8.77449036,27.1309445 L8.77449036,24.5486111 L5.17857143,24.5486111 C3.70178571,24.5486111 2.5,23.3217882 2.5,21.8142361 L2.5,10.234375 C2.5,8.72682292 3.70178571,7.5 5.17857143,7.5 L21.0714286,7.5 Z M20.7604167,9.66927083 L5.48958333,9.66927083 C5.01233333,9.66927083 4.625,10.0595879 4.625,10.5405143 L4.625,21.5573673 C4.625,22.0382937 5.01233333,22.4286108 5.48958333,22.4286108 L9.97245789,22.4286108 C10.3176359,22.4286108 10.5974579,22.7084328 10.5974579,23.0536108 L10.5974579,24.7617746 C10.5974579,24.8308102 10.6534223,24.8867746 10.7224579,24.8867746 C10.7440571,24.8867746 10.7652879,24.8811778 10.7840801,24.8705298 L15.09375,22.4286108 L20.7604167,22.4286108 C21.2376667,22.4286108 21.625,22.0382937 21.625,21.5573673 L21.625,10.5405143 C21.625,10.0595879 21.2376667,9.66927083 20.7604167,9.66927083 Z M14.0446429,17.5607639 C14.6322054,17.5607639 15.1071429,18.0455959 15.1071429,18.6453993 C15.1071429,19.2452027 14.6322054,19.7300347 14.0446429,19.7300347 L7.66964286,19.7300347 C7.08208036,19.7300347 6.60714286,19.2452027 6.60714286,18.6453993 C6.60714286,18.0455959 7.08208036,17.5607639 7.66964286,17.5607639 L14.0446429,17.5607639 Z M24.8214286,2.5 C26.2982143,2.5 27.5,3.72682292 27.5,5.234375 L27.5,15.5642361 C27.5,17.0101234 26.394519,18.1977778 25.0012037,18.292518 L25.0018634,16.0241267 C25.2272692,15.8668294 25.375,15.6043778 25.375,15.3073673 L25.375,5.5405143 C25.375,5.05958791 24.9876667,4.66927083 24.5104167,4.66927083 L9.23958333,4.66927083 C8.76233333,4.66927083 8.375,5.05958791 8.375,5.5405143 L8.3725,6.25 L6.25,6.25 L6.25,5.234375 C6.25,3.72682292 7.45178571,2.5 8.92857143,2.5 L24.8214286,2.5 Z M18.2946429,13.0034722 C18.8822054,13.0034722 19.3571429,13.4883043 19.3571429,14.0881076 C19.3571429,14.687911 18.8822054,15.1727431 18.2946429,15.1727431 L7.66964286,15.1727431 C7.08208036,15.1727431 6.60714286,14.687911 6.60714286,14.0881076 C6.60714286,13.4883043 7.08208036,13.0034722 7.66964286,13.0034722 L18.2946429,13.0034722 Z" id="comment"></path>
                            </g>
                        </g>
                    </g>
                </g>
            </g>
        </g>
    </g>
</svg>