<?xml version="1.0" encoding="UTF-8"?>
<svg width="30px" height="30px" viewBox="0 0 30 30" version="1.1" xmlns="http://www.w3.org/2000/svg" xmlns:xlink="http://www.w3.org/1999/xlink">
    <title>圖片</title>
    <g id="XXXGuideline" stroke="none" stroke-width="1" fill="none" fill-rule="evenodd">
        <g id="Guideline_圖標" transform="translate(-500.000000, -1425.000000)" fill="#7F7F7F">
            <g id="02" transform="translate(70.000000, 915.000000)">
                <g id="網站通用-Icon" transform="translate(40.000000, 400.000000)">
                    <g id="icon" transform="translate(10.000000, 20.000000)">
                        <g id="通路管理-copy-21" transform="translate(360.000000, 90.000000)">
                            <g id="圖片" transform="translate(20.000000, 0.000000)">
                                <path d="M26.484375,0 L3.515625,0 C1.57710937,0 0,1.57710938 0,3.515625 L0,26.484375 C0,28.4228906 1.57710938,30 3.515625,30 L26.484375,30 C28.4228906,30 30,28.4228906 30,26.484375 L30,3.515625 C30,1.57710937 28.4228906,0 26.484375,0 Z M4.140625,2.96875 L25.859375,2.96875 C26.5055469,2.96875 27.03125,3.49445312 27.03125,4.140625 L27.03125,20.1283669 L23.6675977,16.7368359 C22.2967969,15.3660937 20.0664844,15.3660937 18.6956836,16.7368359 L17.4023437,18.0302344 L13.7651953,14.3930859 C12.3945117,13.0223437 10.1641406,13.0223437 8.79333984,14.3930859 L2.96875,20.0364683 L2.96875,4.140625 C2.96875,3.49445312 3.49445312,2.96875 4.140625,2.96875 Z M25.859375,27.03125 L4.140625,27.03125 C3.49445313,27.03125 2.96875,26.5055469 2.96875,25.859375 L2.96875,24.1573242 L10.4506055,16.6754102 C10.9076367,16.2184961 11.650957,16.2184961 12.1078711,16.6754102 L17.4023437,21.9697656 L20.3530078,19.0191016 C20.8098633,18.5621875 21.5533594,18.5621875 22.0102148,19.0191016 L27.03125,24.0401367 L27.03125,25.859375 C27.03125,26.5055469 26.5055469,27.03125 25.859375,27.03125 Z M18.984375,11.71875 C20.9228906,11.71875 22.5,10.1416406 22.5,8.203125 C22.5,6.26460938 20.9228906,4.6875 18.984375,4.6875 C17.0458594,4.6875 15.46875,6.26460938 15.46875,8.203125 C15.46875,10.1416406 17.0458594,11.71875 18.984375,11.71875 Z M18.984375,7.03125 C19.6305469,7.03125 20.15625,7.55695313 20.15625,8.203125 C20.15625,8.84929688 19.6305469,9.375 18.984375,9.375 C18.3382031,9.375 17.8125,8.84929688 17.8125,8.203125 C17.8125,7.55695313 18.3382031,7.03125 18.984375,7.03125 Z" id="photo"></path>
                            </g>
                        </g>
                    </g>
                </g>
            </g>
        </g>
    </g>
</svg>