<?xml version="1.0" encoding="UTF-8"?>
<svg width="26px" height="26px" viewBox="0 0 26 26" version="1.1" xmlns="http://www.w3.org/2000/svg" xmlns:xlink="http://www.w3.org/1999/xlink">
    <title>報表管理</title>
    <g id="XXXGuideline" stroke="none" stroke-width="1" fill="none" fill-rule="evenodd">
        <g id="Guideline_圖標" transform="translate(-772.000000, -507.000000)" fill="#7F7F7F">
            <g id="01" transform="translate(70.000000, 405.000000)">
                <g id="側選單-Icon" transform="translate(40.000000, 80.000000)">
                    <g id="icon" transform="translate(10.000000, 20.000000)">
                        <g id="報表管理" transform="translate(630.000000, 0.000000)">
                            <g id="報表管理" transform="translate(20.000000, 0.000000)">
                                <path d="M4.6640625,2.4 C5.07179063,2.4 5.40234375,2.73055313 5.40234375,3.13828125 L5.40234375,3.13828125 L5.40234375,24.5976563 L26.8617188,24.5976563 C27.2694469,24.5976563 27.6,24.9282094 27.6,25.3359375 C27.6,25.7436656 27.2694469,26.0742188 26.8617188,26.0742188 L26.8617188,26.0742188 L26.0742188,26.0742188 L26.0742188,26.8617188 C26.0742188,27.2694469 25.7436656,27.6 25.3359375,27.6 C24.9282094,27.6 24.5976563,27.2694469 24.5976563,26.8617188 L24.5976563,26.8617188 L24.5976563,26.0742188 L23.1210938,26.0742188 L23.1210938,26.8617188 C23.1210938,27.2694469 22.7905406,27.6 22.3828125,27.6 C21.9750844,27.6 21.6445313,27.2694469 21.6445313,26.8617188 L21.6445313,26.8617188 L21.6445313,26.0742188 L20.1679688,26.0742188 L20.1679688,26.8617188 C20.1679688,27.2694469 19.8374156,27.6 19.4296875,27.6 C19.0219594,27.6 18.6914063,27.2694469 18.6914063,26.8617188 L18.6914063,26.8617188 L18.6914063,26.0742188 L17.2148438,26.0742188 L17.2148438,26.8617188 C17.2148438,27.2694469 16.8842906,27.6 16.4765625,27.6 C16.0688344,27.6 15.7382813,27.2694469 15.7382813,26.8617188 L15.7382813,26.8617188 L15.7382813,26.0742188 L14.2617188,26.0742188 L14.2617188,26.8617188 C14.2617188,27.2694469 13.9311656,27.6 13.5234375,27.6 C13.1157094,27.6 12.7851563,27.2694469 12.7851563,26.8617188 L12.7851563,26.8617188 L12.7851563,26.0742188 L11.3085938,26.0742188 L11.3085938,26.8617188 C11.3085938,27.2694469 10.9780406,27.6 10.5703125,27.6 C10.1625844,27.6 9.83203125,27.2694469 9.83203125,26.8617188 L9.83203125,26.8617188 L9.83203125,26.0742188 L8.35546875,26.0742188 L8.35546875,26.8617188 C8.35546875,27.2694469 8.02491563,27.6 7.6171875,27.6 C7.20945938,27.6 6.87890625,27.2694469 6.87890625,26.8617188 L6.87890625,26.8617188 L6.87890625,26.0742188 L5.40234375,26.0742188 L5.40234375,26.8617188 C5.40234375,27.2694469 5.07179063,27.6 4.6640625,27.6 C4.25633438,27.6 3.92578125,27.2694469 3.92578125,26.8617188 L3.92578125,26.8617188 L3.92578125,26.0742188 L3.13828125,26.0742188 C2.73055313,26.0742188 2.4,25.7436656 2.4,25.3359375 C2.4,24.9282094 2.73055313,24.5976563 3.13828125,24.5976563 L3.13828125,24.5976563 L3.92578125,24.5976563 L3.92578125,23.1210938 L3.13828125,23.1210938 C2.73055313,23.1210938 2.4,22.7905406 2.4,22.3828125 C2.4,21.9750844 2.73055313,21.6445313 3.13828125,21.6445313 L3.13828125,21.6445313 L3.92578125,21.6445313 L3.92578125,20.1679688 L3.13828125,20.1679688 C2.73055313,20.1679688 2.4,19.8374156 2.4,19.4296875 C2.4,19.0219594 2.73055313,18.6914063 3.13828125,18.6914063 L3.13828125,18.6914063 L3.92578125,18.6914063 L3.92578125,17.2148438 L3.13828125,17.2148438 C2.73055313,17.2148438 2.4,16.8842906 2.4,16.4765625 C2.4,16.0688344 2.73055313,15.7382813 3.13828125,15.7382813 L3.13828125,15.7382813 L3.92578125,15.7382813 L3.92578125,14.2617188 L3.13828125,14.2617188 C2.73055313,14.2617188 2.4,13.9311656 2.4,13.5234375 C2.4,13.1157094 2.73055313,12.7851563 3.13828125,12.7851563 L3.13828125,12.7851563 L3.92578125,12.7851563 L3.92578125,11.3085938 L3.13828125,11.3085938 C2.73055313,11.3085938 2.4,10.9780406 2.4,10.5703125 C2.4,10.1625844 2.73055313,9.83203125 3.13828125,9.83203125 L3.13828125,9.83203125 L3.92578125,9.83203125 L3.92578125,8.35546875 L3.13828125,8.35546875 C2.73055313,8.35546875 2.4,8.02491563 2.4,7.6171875 C2.4,7.20945938 2.73055313,6.87890625 3.13828125,6.87890625 L3.13828125,6.87890625 L3.92578125,6.87890625 L3.92578125,5.40234375 L3.13828125,5.40234375 C2.73055313,5.40234375 2.4,5.07179063 2.4,4.6640625 C2.4,4.25633438 2.73055313,3.92578125 3.13828125,3.92578125 L3.13828125,3.92578125 L3.92578125,3.92578125 L3.92578125,3.13828125 C3.92578125,2.73055313 4.25633438,2.4 4.6640625,2.4 Z M10.078125,13.7695313 C10.4858531,13.7695313 10.8164063,14.1000844 10.8164063,14.5078125 L10.8164063,14.5078125 L10.8164063,22.3828125 C10.8164063,22.7905406 10.4858531,23.1210938 10.078125,23.1210938 L10.078125,23.1210938 L8.109375,23.1210938 C7.70164688,23.1210938 7.37109375,22.7905406 7.37109375,22.3828125 L7.37109375,22.3828125 L7.37109375,14.5078125 C7.37109375,14.1000844 7.70164688,13.7695313 8.109375,13.7695313 L8.109375,13.7695313 Z M15.984375,7.86328125 C16.3921031,7.86328125 16.7226563,8.19383438 16.7226563,8.6015625 L16.7226563,8.6015625 L16.7226563,22.3828125 C16.7226563,22.7905406 16.3921031,23.1210938 15.984375,23.1210938 L15.984375,23.1210938 L14.015625,23.1210938 C13.6078969,23.1210938 13.2773438,22.7905406 13.2773438,22.3828125 L13.2773438,22.3828125 L13.2773438,8.6015625 C13.2773438,8.19383438 13.6078969,7.86328125 14.015625,7.86328125 L14.015625,7.86328125 Z M21.890625,10.8164063 C22.2983531,10.8164063 22.6289063,11.1469594 22.6289063,11.5546875 L22.6289063,11.5546875 L22.6289063,22.3828125 C22.6289063,22.7905406 22.2983531,23.1210938 21.890625,23.1210938 L21.890625,23.1210938 L19.921875,23.1210938 C19.5141469,23.1210938 19.1835938,22.7905406 19.1835938,22.3828125 L19.1835938,22.3828125 L19.1835938,11.5546875 C19.1835938,11.1469594 19.5141469,10.8164063 19.921875,10.8164063 L19.921875,10.8164063 Z M24.84375,2.44921875 C25.2514781,2.44921875 25.5820312,2.77977187 25.5820312,3.1875 L25.5820312,3.1875 L25.5820312,5.6484375 C25.5820312,6.05616562 25.2514781,6.38671875 24.84375,6.38671875 C24.4360219,6.38671875 24.1054687,6.05616562 24.1054687,5.6484375 L24.1054687,5.6484375 L24.1054687,4.96985859 L21.4282641,7.64701406 C21.1911773,7.88419922 20.823907,7.93169531 20.5342547,7.76272734 L20.5342547,7.76272734 L15.0510891,4.56424687 L9.53671875,8.7 C9.40392656,8.79956953 9.24849375,8.84770547 9.09434062,8.84770547 C8.86985391,8.84770547 8.64817266,8.74577344 8.503125,8.55234375 C8.25845859,8.22617109 8.32460859,7.76341641 8.65078125,7.51875 L8.65078125,7.51875 L14.5570312,3.0890625 C14.7944133,2.91098906 15.1156148,2.89243359 15.3719953,3.04196016 L15.3719953,3.04196016 L20.7866484,6.20052422 L23.0613914,3.92578125 L22.3828125,3.92578125 C21.9750844,3.92578125 21.6445312,3.59522812 21.6445312,3.1875 C21.6445312,2.77977187 21.9750844,2.44921875 22.3828125,2.44921875 L22.3828125,2.44921875 Z" id="Combined-Shape"></path>
                            </g>
                        </g>
                    </g>
                </g>
            </g>
        </g>
    </g>
</svg>