<?xml version="1.0" encoding="UTF-8"?>
<svg width="20px" height="28px" viewBox="0 0 20 28" version="1.1" xmlns="http://www.w3.org/2000/svg" xmlns:xlink="http://www.w3.org/1999/xlink">
    <title>密碼</title>
    <g id="XXXGuideline" stroke="none" stroke-width="1" fill="none" fill-rule="evenodd">
        <g id="Guideline_圖標" transform="translate(-325.000000, -1016.000000)" fill="#7F7F7F">
            <g id="02" transform="translate(70.000000, 915.000000)">
                <g id="登入-Icon" transform="translate(40.000000, 80.000000)">
                    <g id="icon" transform="translate(10.000000, 20.000000)">
                        <g id="通路管理" transform="translate(180.000000, 0.000000)">
                            <g id="密碼" transform="translate(20.000000, 0.000000)">
                                <path d="M24.1435547,8.26464844 C23.6367187,7.01367187 22.9189453,5.89453125 22.0136719,4.94238281 C21.1083984,3.98144531 20.0478516,3.22265625 18.8613281,2.68945312 C17.6337891,2.14160156 16.3359375,1.86328125 15,1.86328125 C13.6640625,1.86328125 12.3632812,2.14160156 11.1357422,2.69238281 C9.94921875,3.22265625 8.89160156,3.98144531 7.98339844,4.94238281 C7.06933594,5.90625 6.3515625,7.02539062 5.85351562,8.26464844 C5.33496094,9.54785156 5.07128906,10.9130859 5.07128906,12.3251953 L5.07128906,26.1005859 C5.07128906,27.2255859 5.94140625,28.1396484 7.01367187,28.1396484 L22.9775391,28.1396484 C24.0498047,28.1396484 24.9200174,27.2255859 24.9140625,26.1005859 L24.9140625,13.9423828 L24.9200174,13.3828125 L24.9200174,12.3251953 C24.9257812,10.9189453 24.6621094,9.55371094 24.1435547,8.26464844 Z M11.9150391,4.53515625 L11.9208984,4.53515625 L11.9589844,4.52050781 C12.9169922,4.08398437 13.9394531,3.86425781 14.9970703,3.86425781 C16.0488281,3.86425781 17.0742187,4.08691406 18.0380859,4.51464844 C18.9726562,4.93652344 19.8222656,5.54296875 20.5576172,6.31347656 C21.2988281,7.09570312 21.8759766,8.00097656 22.2832031,9.00878906 C22.7080078,10.0576172 22.921875,11.1708984 22.921875,12.3251953 L22.921875,13.1923828 L7.07226562,13.1923828 L7.07226562,13.1923828 L7.07226562,12.3222656 C7.07226562,11.1796875 7.28613281,10.0664062 7.7109375,9.00878906 C8.12109375,7.9921875 8.70410156,7.08691406 9.43652344,6.31640625 C10.1660156,5.54882812 10.9951172,4.94824219 11.9150391,4.53515625 Z M22.9306641,15.1875 L22.9306641,26.0976562 C22.9306641,26.1152344 22.9277344,26.1298828 22.9248047,26.1386719 L7.078125,26.1386719 C7.07519531,26.1298828 7.07226562,26.1152344 7.07226562,26.0976562 L7.07226562,15.1875 L22.9306641,15.1875 Z M14.0742187,19.6875 L14.0742187,22.3095703 C14.0742187,22.8222656 14.4902344,23.2382812 15.0029297,23.2382812 C15.515625,23.2382812 15.9316406,22.8222656 15.9316406,22.3095703 L15.9316406,19.6816406 C16.4238281,19.3652344 16.7197266,18.8320312 16.7197266,18.2402344 C16.7197266,17.2910156 15.9492187,16.5205078 15,16.5205078 C14.0507812,16.5205078 13.2802734,17.2910156 13.2802734,18.2402344 C13.2832031,18.8232422 13.5849609,19.3740234 14.0742187,19.6875 Z" id="Shape"></path>
                            </g>
                        </g>
                    </g>
                </g>
            </g>
        </g>
    </g>
</svg>