<?xml version="1.0" encoding="UTF-8"?>
<svg width="27px" height="29px" viewBox="0 0 27 29" version="1.1" xmlns="http://www.w3.org/2000/svg" xmlns:xlink="http://www.w3.org/1999/xlink">
    <title>審核</title>
    <g id="XXXGuideline" stroke="none" stroke-width="1" fill="none" fill-rule="evenodd">
        <g id="Guideline_圖標" transform="translate(-682.000000, -1865.000000)" fill="#7F7F7F">
            <g id="03" transform="translate(70.000000, 1675.000000)">
                <g id="動作-Icon" transform="translate(40.000000, 80.000000)">
                    <g id="icon" transform="translate(10.000000, 20.000000)">
                        <g id="通路管理-copy-14" transform="translate(540.000000, 90.000000)">
                            <g id="審核" transform="translate(20.000000, 0.000000)">
                                <path d="M24.6354167,0.807291667 C25.1635742,0.807291667 25.5987323,1.1984366 25.6675909,1.70742647 L25.6770833,1.84895833 L25.6770833,16.2113803 C25.6770833,16.3259636 25.6020833,16.4238803 25.49875,16.4584636 L25.4166667,16.471797 L23.59375,16.471797 C23.4791667,16.471797 23.38125,16.396797 23.3466667,16.2934636 L23.3333333,16.2113803 L23.3333333,3.15104167 L5.10416667,3.15104167 L5.10416667,26.0677083 L14.15625,26.0677083 C14.2708333,26.0677083 14.36875,26.1427083 14.4033333,26.2460417 L14.4166667,26.328125 L14.4166667,28.1510417 C14.4166667,28.265625 14.3416667,28.3635417 14.2383333,28.398125 L14.15625,28.4114583 L3.80208333,28.4114583 C3.27392578,28.4114583 2.83876772,28.0203134 2.76990914,27.5113235 L2.76041667,27.3697917 L2.76041667,1.84895833 C2.76041667,1.32080078 3.1515616,0.885642723 3.66055147,0.81678414 L3.80208333,0.807291667 L24.6354167,0.807291667 Z M28.1490043,18 C28.3993299,18 28.5586717,18.2330455 28.4796025,18.4373541 L28.4306893,18.5223922 L20.1195324,28.3642603 C20.0021636,28.5150822 19.7839311,28.5402192 19.6329411,28.4396712 L19.5517611,28.3642603 L15.0665774,23.0038898 C14.9202332,22.8131344 15.0299913,22.5562444 15.251373,22.4950025 L15.3526637,22.4814976 L17.2936493,22.4814976 C17.3699389,22.4814976 17.4423163,22.5034353 17.5016527,22.5436545 L17.5797356,22.6172373 L19.8334461,25.0900539 L25.9131298,18.1357397 C25.9571431,18.0781532 26.0187617,18.0370199 26.0888569,18.0159963 L26.1992161,18 L28.1490043,18 Z M13.9583333,11.3541667 C14.0729167,11.3541667 14.1708333,11.4291667 14.2054167,11.5325 L14.21875,11.6145833 L14.21875,13.1770833 C14.21875,13.2916667 14.14375,13.3895833 14.0404167,13.4241667 L13.9583333,13.4375 L7.96875,13.4375 C7.85416667,13.4375 7.75625,13.3625 7.72166667,13.2591667 L7.70833333,13.1770833 L7.70833333,11.6145833 C7.70833333,11.5 7.78333333,11.4020833 7.88666667,11.3675 L7.96875,11.3541667 L13.9583333,11.3541667 Z M20.46875,6.66666667 C20.5833333,6.66666667 20.68125,6.74166667 20.7158333,6.845 L20.7291667,6.92708333 L20.7291667,8.48958333 C20.7291667,8.60416667 20.6541667,8.70208333 20.5508333,8.73666667 L20.46875,8.75 L7.96875,8.75 C7.85416667,8.75 7.75625,8.675 7.72166667,8.57166667 L7.70833333,8.48958333 L7.70833333,6.92708333 C7.70833333,6.8125 7.78333333,6.71458333 7.88666667,6.68 L7.96875,6.66666667 L20.46875,6.66666667 Z" id="Shape"></path>
                            </g>
                        </g>
                    </g>
                </g>
            </g>
        </g>
    </g>
</svg>