<?xml version="1.0" encoding="UTF-8"?>
<svg width="30px" height="30px" viewBox="0 0 30 30" version="1.1" xmlns="http://www.w3.org/2000/svg" xmlns:xlink="http://www.w3.org/1999/xlink">
    <title>展開</title>
    <g id="XXXGuideline" stroke="none" stroke-width="1" fill="none" fill-rule="evenodd">
        <g id="Guideline_圖標" transform="translate(-770.000000, -1425.000000)" fill="#7F7F7F">
            <g id="02" transform="translate(70.000000, 915.000000)">
                <g id="網站通用-Icon" transform="translate(40.000000, 400.000000)">
                    <g id="icon" transform="translate(10.000000, 20.000000)">
                        <g id="通路管理-copy-26" transform="translate(630.000000, 90.000000)">
                            <g id="展開" transform="translate(20.000000, 0.000000)">
                                <path d="M24,0 C27.3137085,0 30,2.6862915 30,6 L30,24 C30,27.3137085 27.3137085,30 24,30 L6,30 C2.6862915,30 0,27.3137085 0,24 L0,6 C0,2.6862915 2.6862915,0 6,0 L24,0 Z M24,2.25 L6,2.25 C4.0117749,2.25 2.38494199,3.7973039 2.25797652,5.75343647 L2.25,6 L2.25,24 C2.25,25.9882251 3.7973039,27.615058 5.75343647,27.7420235 L6,27.75 L24,27.75 C25.9882251,27.75 27.615058,26.2026961 27.7420235,24.2465635 L27.75,24 L27.75,6 C27.75,4.0117749 26.2026961,2.38494199 24.2465635,2.25797652 L24,2.25 Z M15.0146484,7.52929688 L15.1296589,7.53547917 C15.6584505,7.59268229 16.0693359,8.03984375 16.0693359,8.58398438 L16.0693359,8.58398438 L16.0693359,13.9599609 L21.4453125,13.9599609 C22.0283203,13.9599609 22.5,14.4316406 22.5,15.0146484 L22.5,15.0146484 L22.4938177,15.1296589 C22.4366146,15.6584505 21.9894531,16.0693359 21.4453125,16.0693359 L21.4453125,16.0693359 L16.0693359,16.0693359 L16.0693359,21.4160156 C16.0693359,21.9990234 15.5976562,22.4707031 15.0146484,22.4707031 L15.0146484,22.4707031 L14.899638,22.4645208 C14.3708464,22.4073177 13.9599609,21.9601563 13.9599609,21.4160156 L13.9599609,21.4160156 L13.9599609,16.0693359 L8.5546875,16.0693359 C7.97167969,16.0693359 7.5,15.5976562 7.5,15.0146484 L7.5,15.0146484 L7.50618229,14.899638 C7.56338542,14.3708464 8.01054688,13.9599609 8.5546875,13.9599609 L8.5546875,13.9599609 L13.9599609,13.9599609 L13.9599609,8.58398438 C13.9599609,8.00097656 14.4316406,7.52929688 15.0146484,7.52929688 L15.0146484,7.52929688 Z" id="Combined-Shape"></path>
                            </g>
                        </g>
                    </g>
                </g>
            </g>
        </g>
    </g>
</svg>