<?xml version="1.0" encoding="UTF-8"?>
<svg width="26px" height="26px" viewBox="0 0 26 26" version="1.1" xmlns="http://www.w3.org/2000/svg" xmlns:xlink="http://www.w3.org/1999/xlink">
    <title>帳務管理</title>
    <g id="XXXGuideline" stroke="none" stroke-width="1" fill="none" fill-rule="evenodd">
        <g id="Guideline_圖標" transform="translate(-682.000000, -507.000000)" fill="#7F7F7F">
            <g id="01" transform="translate(70.000000, 405.000000)">
                <g id="側選單-Icon" transform="translate(40.000000, 80.000000)">
                    <g id="icon" transform="translate(10.000000, 20.000000)">
                        <g id="帳務管理" transform="translate(540.000000, 0.000000)">
                            <g id="帳務管理" transform="translate(20.000000, 0.000000)">
                                <path d="M21.8408558,6.00134638 C21.7683206,5.48950468 22.2440427,5.03312525 22.7759179,5.18283389 L22.7759179,5.18283389 L25.7679196,5.75763808 C26.1693302,5.83476221 26.4322332,6.222702 26.355109,6.62416194 C26.2779849,7.02557254 25.8897984,7.28832749 25.4885852,7.21135139 L25.4885852,7.21135139 L24.7733489,7.07397866 C25.642192,8.14749914 26.3337926,9.36421489 26.8131168,10.6748316 C30.2344082,20.0288582 21.9598233,29.3410907 12.4202646,27.3056651 C12.0204823,27.2203499 11.7655237,26.8271304 11.8508388,26.4273481 C11.936154,26.0275659 12.3295216,25.7726566 12.7291558,25.8579224 C21.1781705,27.6605447 28.4231508,19.3861571 25.4229581,11.1832686 C24.9990961,10.0243343 24.3872349,8.94898806 23.6188062,8.00065243 L23.6188062,8.00065243 L23.7089077,8.63743225 C23.7661957,9.04214888 23.4845421,9.41671653 23.0797762,9.47395517 C22.6767372,9.53144052 22.3006892,9.25077383 22.2432532,8.84482362 L22.2432532,8.84482362 Z M3.18693255,19.3251191 C-0.234358846,9.97119114 8.04012735,0.658958614 17.5798341,2.69428554 C17.9796164,2.77960071 18.234575,3.17282026 18.1492598,3.57260253 C18.0638953,3.97238479 17.6706264,4.22709671 17.2709429,4.14202826 C8.822767,2.33989943 1.57675052,10.6133001 4.57714057,18.8166327 C5.00100254,19.9756164 5.61286381,21.0509626 6.38129249,21.9992982 L6.38129249,21.9992982 L6.29119098,21.3625184 C6.233903,20.9578018 6.51555657,20.5832341 6.92032254,20.5259955 C7.32464441,20.467918 7.69955747,20.7504104 7.75684545,21.155127 L7.75684545,21.155127 L8.15924293,23.9985549 C8.23227153,24.5136533 7.75245387,24.9662826 7.22358861,24.8169687 L7.22358861,24.8169687 L4.23217911,24.2423126 C3.83076851,24.1651884 3.56786553,23.7772487 3.64498966,23.3757887 C3.72211379,22.9743781 4.10995489,22.7115738 4.51151352,22.7885993 L4.51151352,22.7885993 L5.2267004,22.925972 C4.35785739,21.8524515 3.66625677,20.6357358 3.18693255,19.3251191 Z M15,7.28970911 C19.3833446,7.28970911 22.9498543,10.7658213 22.9498543,15.0387348 C22.9498543,19.3116482 19.3833446,22.7883032 15,22.7883032 C10.6160633,22.7883032 7.0496029,19.3116482 7.0496029,15.0387348 C7.0496029,10.7658213 10.6161127,7.28970911 15,7.28970911 Z M15.0000987,9.74628278 C14.5910892,9.74628278 14.2600426,10.0778721 14.2600426,10.4864869 L14.2600426,10.4864869 L14.2600426,11.2331057 C12.7498802,11.2331057 11.8786193,12.3556737 11.8786193,13.5060223 C11.8786193,14.7594004 12.8968749,15.7789389 14.148526,15.7789389 L14.148526,15.7789389 L15.8515727,15.7789389 C16.286685,15.7789389 16.6409231,16.1347066 16.6409231,16.5714473 C16.6409231,17.0144546 16.2822441,17.3644491 15.8515727,17.3644491 L15.8515727,17.3644491 L14.0602008,17.3639556 C13.8446184,17.3619819 13.6156639,17.284463 13.4158714,17.1453139 C13.0798905,16.9119184 12.6190701,16.9953092 12.385724,17.3308954 C12.1523286,17.6664322 12.2352259,18.1278447 12.5712068,18.3612402 C13.2027562,18.8001519 13.7291543,18.8443639 14.2599439,18.8443639 L14.2599439,18.8443639 L14.2599439,19.5914761 C14.2599439,20.0000415 14.5909905,20.3316308 15.0000987,20.3316308 C15.4086148,20.3316308 15.7401548,20.0000415 15.7401548,19.5914761 L15.7401548,19.5914761 L15.7401548,18.8443639 C17.2372411,18.8443639 18.1210846,17.7345265 18.1210846,16.5714473 C18.1210846,15.3185133 17.102829,14.2985307 15.8516714,14.2985307 L15.8516714,14.2985307 L14.1486246,14.2985307 C13.7130189,14.2985307 13.3587808,13.943207 13.3587808,13.5060223 C13.3587808,13.0678013 13.7132163,12.7135139 14.1481312,12.7135139 L14.1481312,12.7135139 L15.7909787,12.7135139 C16.0963666,12.7164745 16.3978069,12.8536005 16.6188172,13.090006 C16.8980529,13.388535 17.3662254,13.4043744 17.6647052,13.1250399 C17.9631849,12.8457549 17.9789749,12.3774343 17.6997392,12.0789052 C17.2168129,11.5623265 16.5373015,11.2331057 15.7401548,11.2331057 L15.7401548,11.2331057 L15.7401548,10.4864869 C15.7401548,10.0778721 15.4086148,9.74628278 15.0000987,9.74628278 Z" id="Combined-Shape"></path>
                            </g>
                        </g>
                    </g>
                </g>
            </g>
        </g>
    </g>
</svg>