<?xml version="1.0" encoding="UTF-8"?>
<svg width="28px" height="30px" viewBox="0 0 28 30" version="1.1" xmlns="http://www.w3.org/2000/svg" xmlns:xlink="http://www.w3.org/1999/xlink">
    <title>帳號設定</title>
    <g id="XXXGuideline" stroke="none" stroke-width="1" fill="none" fill-rule="evenodd">
        <g id="Guideline_圖標" transform="translate(-411.000000, -755.000000)" fill="#7F7F7F">
            <g id="01" transform="translate(70.000000, 405.000000)">
                <g id="頂部選單-Icon" transform="translate(40.000000, 330.000000)">
                    <g id="title" transform="translate(10.000000, 20.000000)">
                        <g id="採購管理" transform="translate(270.000000, 0.000000)">
                            <g id="帳號設定" transform="translate(20.000000, 0.000000)">
                                <path d="M28.4375,18.7011719 L26.3053385,16.8782552 C26.40625,16.2597656 26.4583333,15.6282552 26.4583333,14.9967448 C26.4583333,14.3652344 26.40625,13.733724 26.3053385,13.1152344 L28.4375,11.2923177 C28.766276,11.0123698 28.8867188,10.5566406 28.7402344,10.1464844 L28.7109375,10.061849 C28.1217448,8.41796875 27.249349,6.90755208 26.1165365,5.57291667 L26.0579427,5.50455729 C25.7779948,5.17578125 25.3255208,5.05208333 24.9153646,5.1953125 L22.2688802,6.13606771 C21.2923177,5.33528646 20.2018229,4.70377604 19.0234375,4.26106771 L18.5123698,1.49414062 C18.4342448,1.06770833 18.0989583,0.735677083 17.672526,0.657552083 L17.5846354,0.641276042 C15.8886719,0.335286458 14.1048177,0.335286458 12.4088542,0.641276042 L12.3209635,0.657552083 C11.8945313,0.735677083 11.5592448,1.06770833 11.4811198,1.49414062 L10.9667969,4.27408854 C9.79817708,4.71679687 8.71419271,5.34505208 7.74414063,6.14257812 L5.078125,5.1953125 C4.67122396,5.05208333 4.21549479,5.17252604 3.93554688,5.50455729 L3.87695313,5.57291667 C2.74414063,6.91080729 1.87174479,8.42122396 1.28255208,10.061849 L1.25325521,10.1464844 C1.10677083,10.5533854 1.22721354,11.0091146 1.55598958,11.2923177 L3.71419271,13.1347656 C3.61328125,13.7467448 3.56445313,14.3717448 3.56445313,14.9934896 C3.56445313,15.6184896 3.61328125,16.2434896 3.71419271,16.8522135 L1.55598958,18.6946615 C1.22721354,18.9746094 1.10677083,19.4303385 1.25325521,19.8404948 L1.28255208,19.9251302 C1.87174479,21.5657552 2.74414063,23.0794271 3.87695313,24.4140625 L3.93554688,24.4824219 C4.21549479,24.8111979 4.66796875,24.9348958 5.078125,24.7916667 L7.74414063,23.844401 C8.71419271,24.6419271 9.79817708,25.2734375 10.9667969,25.7128906 L11.4811198,28.4928385 C11.5592448,28.9192708 11.8945313,29.2513021 12.3209635,29.3294271 L12.4088542,29.3457031 C13.2584635,29.4986979 14.1276042,29.5768229 14.9967448,29.5768229 C15.8658854,29.5768229 16.7382813,29.4986979 17.5846354,29.3457031 L17.672526,29.3294271 C18.0989583,29.2513021 18.4342448,28.9192708 18.5123698,28.4928385 L19.0234375,25.7259115 C20.2018229,25.2832031 21.2923177,24.6549479 22.2688802,23.8509115 L24.9153646,24.7916667 C25.3222656,24.9348958 25.7779948,24.8144531 26.0579427,24.4824219 L26.1165365,24.4140625 C27.249349,23.0761719 28.1217448,21.5657552 28.7109375,19.9251302 L28.7402344,19.8404948 C28.8867188,19.4401042 28.766276,18.984375 28.4375,18.7011719 L28.4375,18.7011719 Z M23.9941406,13.499349 C24.0755208,13.9908854 24.1178385,14.4954427 24.1178385,15 C24.1178385,15.5045573 24.0755208,16.0091146 23.9941406,16.500651 L23.7792969,17.8059896 L26.2109375,19.8860677 C25.843099,20.7356771 25.3776042,21.5364583 24.8242188,22.281901 L21.8033854,21.2109375 L20.78125,22.0507813 C20.0032552,22.6888021 19.1373698,23.1901042 18.1998698,23.5416667 L16.9596354,24.0071615 L16.3769531,27.1647135 C15.4622396,27.2688802 14.5279948,27.2688802 13.610026,27.1647135 L13.0273438,24.000651 L11.796875,23.5286458 C10.8691406,23.1770833 10.0065104,22.6757812 9.23502604,22.0410156 L8.21289063,21.1979167 L5.17252604,22.2786458 C4.61914063,21.5332031 4.15690104,20.7291667 3.78580729,19.8828125 L6.24348958,17.7832031 L6.03190104,16.4811198 C5.95377604,15.9960937 5.91145833,15.4947917 5.91145833,15 C5.91145833,14.5019531 5.95052083,14.0039062 6.03190104,13.5188802 L6.24348958,12.2167969 L3.78580729,10.1171875 C4.15364583,9.26757812 4.61914063,8.46679687 5.17252604,7.72135417 L8.21289063,8.80208333 L9.23502604,7.95898437 C10.0065104,7.32421875 10.8691406,6.82291667 11.796875,6.47135417 L13.030599,6.00585937 L13.6132813,2.84179687 C14.5279948,2.73763021 15.4622396,2.73763021 16.3802083,2.84179687 L16.9628906,5.99934896 L18.203125,6.46484375 C19.1373698,6.81640625 20.0065104,7.31770833 20.7845052,7.95572917 L21.8066406,8.79557292 L24.827474,7.72460937 C25.3808594,8.47005208 25.843099,9.27408854 26.2141927,10.1204427 L23.7825521,12.2005208 L23.9941406,13.499349 Z M15,8.9453125 C11.8359375,8.9453125 9.27083333,11.5104167 9.27083333,14.6744792 C9.27083333,17.8385417 11.8359375,20.4036458 15,20.4036458 C18.1640625,20.4036458 20.7291667,17.8385417 20.7291667,14.6744792 C20.7291667,11.5104167 18.1640625,8.9453125 15,8.9453125 Z M17.578125,17.2526042 C16.8880208,17.9394531 15.9733073,18.3203125 15,18.3203125 C14.0266927,18.3203125 13.1119792,17.9394531 12.421875,17.2526042 C11.735026,16.5625 11.3541667,15.6477865 11.3541667,14.6744792 C11.3541667,13.7011719 11.735026,12.7864583 12.421875,12.0963542 C13.1119792,11.40625 14.0266927,11.0286458 15,11.0286458 C15.9733073,11.0286458 16.8880208,11.40625 17.578125,12.0963542 C18.264974,12.7864583 18.6458333,13.7011719 18.6458333,14.6744792 C18.6458333,15.6477865 18.264974,16.5625 17.578125,17.2526042 Z" id="Shape"></path>
                            </g>
                        </g>
                    </g>
                </g>
            </g>
        </g>
    </g>
</svg>