<?xml version="1.0" encoding="UTF-8"?>
<svg width="26px" height="26px" viewBox="0 0 26 26" version="1.1" xmlns="http://www.w3.org/2000/svg" xmlns:xlink="http://www.w3.org/1999/xlink">
    <title>庫存管理</title>
    <g id="XXXGuideline" stroke="none" stroke-width="1" fill="none" fill-rule="evenodd">
        <g id="Guideline_圖標" transform="translate(-245.000000, -1182.000000)" fill="#7F7F7F">
            <g id="02" transform="translate(70.000000, 915.000000)">
                <g id="Dashboard" transform="translate(53.000000, 240.000000)">
                    <g id="icon" transform="translate(10.000000, 25.000000)">
                        <g id="通路管理" transform="translate(90.000000, 0.000000)">
                            <g id="Shape" transform="translate(20.000000, 0.000000)">
                                <path d="M8.55021432,5.08501753 L8.57325973,5.07319967 L14.4717025,2.12463851 C14.8042782,1.95845383 15.1956701,1.95845383 15.5282458,2.12463851 L27.3464041,8.0335787 C27.7489789,8.23112996 28.0029391,8.64168175 27.9999743,9.0900972 L27.9999743,20.9079775 C27.9999743,21.355693 27.7469102,21.7649581 27.3464041,21.9650869 L15.540064,27.8681182 C15.3771521,27.9516991 15.1972316,27.9967792 15.0141559,27.9999455 C14.8216088,28.0017954 14.63152,27.9565565 14.4604752,27.8681182 L2.65354426,21.9656778 C2.25284766,21.7654539 2,21.3559059 2,20.9079775 L2,9.0900972 C2,8.67056244 2.21804515,8.25102771 2.65354426,8.03298779 L8.55021432,5.08442665 L8.55021432,5.08501753 Z M19.7272375,13.9567003 L16.18179,15.7293824 L16.18179,24.9047847 L25.6363166,20.1776325 L25.6363166,11.0022302 L22.0908691,12.7749123 L22.0908691,16.7717194 C22.0909337,17.1939747 21.8656951,17.5841823 21.5000134,17.7953287 C21.1343318,18.006475 20.6837748,18.006475 20.3180931,17.7953287 C19.9524115,17.5841823 19.7271728,17.1939747 19.7272375,16.7717194 L19.7272375,13.9567003 L19.7272375,13.9567003 Z M9.09089506,7.45686612 L5.82435612,9.0900972 L14.9999742,13.6777984 L18.2665131,12.0445673 L9.09089506,7.45686612 Z M11.7334352,6.13562711 L20.9090533,10.7233283 L24.1755922,9.0900972 L14.9999742,4.50239605 L11.7334352,6.13562711 Z M4.36363176,20.1776325 L13.8181583,24.9047847 L13.8181583,15.7293824 L4.36363176,11.0022302 L4.36363176,20.1776325 L4.36363176,20.1776325 Z"></path>
                            </g>
                        </g>
                    </g>
                </g>
            </g>
        </g>
    </g>
</svg>