<?xml version="1.0" encoding="UTF-8"?>
<svg width="24px" height="26px" viewBox="0 0 24 26" version="1.1" xmlns="http://www.w3.org/2000/svg" xmlns:xlink="http://www.w3.org/1999/xlink">
    <title>投廣查價</title>
    <g id="XXXGuideline" stroke="none" stroke-width="1" fill="none" fill-rule="evenodd">
        <g id="Guideline_圖標" transform="translate(-323.000000, -597.000000)" fill="#7F7F7F">
            <g id="01" transform="translate(70.000000, 405.000000)">
                <g id="側選單-Icon" transform="translate(40.000000, 80.000000)">
                    <g id="icon" transform="translate(10.000000, 20.000000)">
                        <g id="操作手冊" transform="translate(90.000000, 90.000000)">
                            <g id="投廣查價" transform="translate(110.000000, 0.000000)">
                                <path d="M20.3166816,2.25 L20.3166816,6.06555178 C20.3166816,7.1782439 21.1836729,8.09224618 22.2783531,8.16962125 L22.4289789,8.17492678 L26.25,8.17492678 L26.25,26.25 C26.25,27.0296961 25.6551119,27.6704487 24.89446,27.7431334 L24.75,27.75 L5.25,27.75 C4.47030388,27.75 3.82955132,27.1551119 3.75686658,26.39446 L3.75,26.25 L3.75,3.75 C3.75,2.97030388 4.34488808,2.32955132 5.10553999,2.25686658 L5.25,2.25 L20.3166816,2.25 Z M11.4,21 L9.6,21 C9.33,21 9.06,21.243 9.0087,21.5103 L9,21.6 L9,24.9 C9,25.17 9.243,25.44 9.5103,25.4913 L9.6,25.5 L11.4,25.5 C11.67,25.5 11.94,25.257 11.9913,24.9897 L12,24.9 L12,21.6 C12,21.3 11.7,21 11.4,21 Z M15.9,16.5 L14.1,16.5 C13.83,16.5 13.56,16.743 13.5087,17.0103 L13.5,17.1 L13.5,24.9 C13.5,25.17 13.743,25.44 14.0103,25.4913 L14.1,25.5 L15.9,25.5 C16.17,25.5 16.44,25.257 16.4913,24.9897 L16.5,24.9 L16.5,17.1 C16.5,16.8 16.2,16.5 15.9,16.5 Z M20.4,19.5 L18.6,19.5 C18.33,19.5 18.06,19.743 18.0087,20.0103 L18,20.1 L18,24.9 C18,25.17 18.243,25.44 18.5103,25.4913 L18.6,25.5 L20.4,25.5 C20.67,25.5 20.94,25.257 20.9913,24.9897 L21,24.9 L21,20.1 C21,19.8 20.7,19.5 20.4,19.5 Z M22.4551827,9.75 L19.883761,9.75 C19.4577279,9.75 19.1123346,10.0805531 19.1123346,10.4882813 C19.1123346,10.8960094 19.4577279,11.2265625 19.883761,11.2265625 L20.5928048,11.2265625 L18.215937,13.5013055 L13.3081923,10.3427414 C13.0403016,10.1932148 12.7046797,10.2117703 12.4566403,10.3898437 L7.03522846,14.8195312 C6.69441224,15.0641977 6.62529243,15.5269523 6.88094317,15.853125 C7.03250275,16.0465547 7.26413641,16.1484867 7.49870149,16.1484867 C7.65977534,16.1484867 7.82218633,16.1003508 7.96094024,16.0007813 L12.9728789,11.8650281 L17.952212,15.0635086 C18.2548683,15.2324766 18.6386273,15.1849805 18.886358,14.9477953 L21.6837562,12.2706398 L21.6837562,12.9492187 C21.6837562,13.3569469 22.0291495,13.6875 22.4551827,13.6875 C22.8812158,13.6875 23.2266091,13.3569469 23.2266091,12.9492187 L23.2266091,10.4882813 C23.2266091,10.0805531 22.8812158,9.75 22.4551827,9.75 Z M21.7997812,2.25 C21.9484318,2.25 22.0920642,2.29714807 22.2107921,2.38332166 L22.2948578,2.45514222 L26.0450401,6.20514219 C26.1500729,6.31017501 26.2182276,6.44520056 26.2412881,6.59005249 L26.25,6.70021878 L26.25,6.75 L22.4502188,6.75 C22.0956875,6.75 21.8027519,6.48660876 21.7563914,6.14480541 L21.75,6.04978119 L21.75,2.25 L21.7997812,2.25 Z" id="Combined-Shape"></path>
                            </g>
                        </g>
                    </g>
                </g>
            </g>
        </g>
    </g>
</svg>