<?xml version="1.0" encoding="UTF-8"?>
<svg width="26px" height="26px" viewBox="0 0 26 26" version="1.1" xmlns="http://www.w3.org/2000/svg" xmlns:xlink="http://www.w3.org/1999/xlink">
    <title>採購申請</title>
    <g id="XXXGuideline" stroke="none" stroke-width="1" fill="none" fill-rule="evenodd">
        <g id="Guideline_圖標" transform="translate(-152.000000, -2432.000000)" fill="#7F7F7F">
            <g id="04" transform="translate(70.000000, 2155.000000)">
                <g id="流程圖" transform="translate(40.000000, 75.000000)">
                    <g id="icon" transform="translate(20.000000, 20.000000)">
                        <g id="通路管理-copy-30" transform="translate(0.000000, 180.000000)">
                            <g id="採購申請" transform="translate(20.000000, 0.000000)">
                                <path d="M13.4380922,22.6853602 C14.7930844,22.6853602 15.8954367,23.7877125 15.8954367,25.1427047 C15.8954367,26.4976969 14.7930844,27.6000492 13.4380922,27.6000492 C12.0831,27.6000492 10.9807477,26.4976969 10.9807477,25.1427047 C10.9807477,23.7877125 12.0831492,22.6853602 13.4380922,22.6853602 Z M22.0070766,22.6853602 C23.3620195,22.6853602 24.4644211,23.7877125 24.4644211,25.1427047 C24.4644211,26.4976969 23.3620195,27.6000492 22.0070766,27.6000492 C20.6520844,27.6000492 19.549732,26.4976969 19.549732,25.1427047 C19.549732,23.7877125 20.6521336,22.6853602 22.0070766,22.6853602 Z M27.6000492,11.659868 L25.4569664,21.6643664 L9.7056375,21.6643664 L7.56166875,11.659868 L27.6000492,11.659868 Z M14.6362242,13.7925164 L13.1596617,13.7925164 L13.1596617,18.688207 L14.6362242,18.688207 L14.6362242,13.7925164 Z M18.426068,13.7925164 L16.9495055,13.7925164 L16.9495055,18.688207 L18.426068,18.688207 L18.426068,13.7925164 Z M22.2159117,13.7925164 L20.7393492,13.7925164 L20.7393492,18.688207 L22.2159117,18.688207 L22.2159117,13.7925164 Z M20.0503359,5.4515625 L20.0503359,10.1834531 L15.3745547,10.1834531 L15.3745547,5.4515625 L20.0503359,5.4515625 Z M7.08734766,2.4 L8.75532187,10.1833055 L7.24524141,10.1833055 L5.89369453,3.8765625 L2.4,3.8765625 L2.4,2.4 L7.08734766,2.4 Z M13.8979922,7.27265625 L13.8979922,10.1834531 L10.597875,10.1834531 L10.597875,7.27265625 L13.8979922,7.27265625 Z M24.7777969,6.69827344 L24.7777969,10.1831086 L21.5268984,10.1831086 L21.5268984,6.69827344 L24.7777969,6.69827344 Z" id="Combined-Shape"></path>
                            </g>
                        </g>
                    </g>
                </g>
            </g>
        </g>
    </g>
</svg>