<?xml version="1.0" encoding="UTF-8"?>
<svg width="24px" height="25px" viewBox="0 0 24 25" version="1.1" xmlns="http://www.w3.org/2000/svg" xmlns:xlink="http://www.w3.org/1999/xlink">
    <title>採購管理</title>
    <g id="XXXGuideline" stroke="none" stroke-width="1" fill="none" fill-rule="evenodd">
        <g id="Guideline_圖標" transform="translate(-336.000000, -1183.000000)" fill="#7F7F7F">
            <g id="02" transform="translate(70.000000, 915.000000)">
                <g id="Dashboard" transform="translate(53.000000, 240.000000)">
                    <g id="icon" transform="translate(10.000000, 25.000000)">
                        <g id="採購管理" transform="translate(180.000000, 0.000000)">
                            <g id="Combined-Shape" transform="translate(20.000000, 0.000000)">
                                <path d="M25.0049385,15.1944826 L25.1267542,15.3067959 L26.4353981,16.6151584 C27.147618,17.3272251 27.1860156,18.4584131 26.5505736,19.2128869 L26.4384273,19.335008 L18.3940031,27.3311695 L15.6555545,27.6340301 C14.8092392,27.727686 14.0862276,27.0538239 14.1001992,26.2202505 L14.1086192,26.0873951 L14.4545816,23.2599438 L22.4094401,15.3067959 C23.1221617,14.5942276 24.2510107,14.556724 25.0049385,15.1944826 Z M24.875,3 C25.4511719,3 25.9166667,3.46549479 25.9166667,4.04166667 L25.9166667,4.04166667 L25.9166667,13.5416667 C25.9166667,13.6848958 25.7994792,13.8020833 25.65625,13.8020833 L25.65625,13.8020833 L23.8333333,13.8020833 C23.6901042,13.8020833 23.5729167,13.6848958 23.5729167,13.5416667 L23.5729167,13.5416667 L23.5729167,5.34375 L5.34375,5.34375 L5.34375,24.2604167 L12.8958333,24.2604167 C13.0390625,24.2604167 13.15625,24.3776042 13.15625,24.5208333 L13.15625,24.5208333 L13.15625,26.34375 C13.15625,26.4869792 13.0390625,26.6041667 12.8958333,26.6041667 L12.8958333,26.6041667 L4.04166667,26.6041667 C3.46549479,26.6041667 3,26.1386719 3,25.5625 L3,25.5625 L3,4.04166667 C3,3.46549479 3.46549479,3 4.04166667,3 L4.04166667,3 Z M21.5788885,18.6167083 L16.1001414,24.052014 L15.8988885,25.8457083 L17.6020199,25.6858374 L23.1258885,20.1637083 L21.5788885,18.6167083 Z M23.7436679,16.5013149 L23.694964,16.5166186 L23.652802,16.5473631 L22.8208885,17.3777083 L24.3688885,18.9257083 L25.1968412,18.0987695 C25.2494904,18.0434997 25.2597021,17.9640523 25.227997,17.9008075 L25.1963669,17.8570429 L23.887723,16.5486804 C23.8484804,16.5094463 23.7942659,16.4937526 23.7436679,16.5013149 Z M14.1979167,13.546875 C14.3411458,13.546875 14.4583333,13.6640625 14.4583333,13.8072917 L14.4583333,13.8072917 L14.4583333,15.3697917 C14.4583333,15.5130208 14.3411458,15.6302083 14.1979167,15.6302083 L14.1979167,15.6302083 L8.20833333,15.6302083 C8.06510417,15.6302083 7.94791667,15.5130208 7.94791667,15.3697917 L7.94791667,15.3697917 L7.94791667,13.8072917 C7.94791667,13.6640625 8.06510417,13.546875 8.20833333,13.546875 L8.20833333,13.546875 Z M20.7083333,8.859375 C20.8515625,8.859375 20.96875,8.9765625 20.96875,9.11979167 L20.96875,9.11979167 L20.96875,10.6822917 C20.96875,10.8255208 20.8515625,10.9427083 20.7083333,10.9427083 L20.7083333,10.9427083 L8.20833333,10.9427083 C8.06510417,10.9427083 7.94791667,10.8255208 7.94791667,10.6822917 L7.94791667,10.6822917 L7.94791667,9.11979167 C7.94791667,8.9765625 8.06510417,8.859375 8.20833333,8.859375 L8.20833333,8.859375 Z"></path>
                            </g>
                        </g>
                    </g>
                </g>
            </g>
        </g>
    </g>
</svg>