<?xml version="1.0" encoding="UTF-8"?>
<svg width="30px" height="30px" viewBox="0 0 30 30" version="1.1" xmlns="http://www.w3.org/2000/svg" xmlns:xlink="http://www.w3.org/1999/xlink">
    <title>提示</title>
    <g id="XXXGuideline" stroke="none" stroke-width="1" fill="none" fill-rule="evenodd">
        <g id="Guideline_圖標" transform="translate(-500.000000, -1515.000000)" fill="#7F7F7F">
            <g id="02" transform="translate(70.000000, 915.000000)">
                <g id="網站通用-Icon" transform="translate(40.000000, 400.000000)">
                    <g id="icon" transform="translate(10.000000, 20.000000)">
                        <g id="通路管理-copy-9" transform="translate(360.000000, 180.000000)">
                            <g id="提示" transform="translate(20.000000, 0.000000)">
                                <path d="M15,0 C23.2851562,0 30,6.71484375 30,15 C30,23.2851562 23.2851562,30 15,30 C6.71484375,30 0,23.2851562 0,15 C0,6.71484375 6.71484375,0 15,0 Z M15.7142857,10.7142857 L12.5714286,10.7142857 C11.7824504,10.7142857 11.1428571,11.3538789 11.1428571,12.1428571 L11.1428571,12.1428571 L11.1428571,12.5 C11.1428571,13.2889782 11.7824504,13.9285714 12.5714286,13.9285714 L12.5714286,13.9285714 L13.9282857,13.9277143 L13.9282857,21.4277143 L12.1428571,21.4285714 C11.3538789,21.4285714 10.7142857,22.0681646 10.7142857,22.8571429 L10.7142857,22.8571429 L10.7142857,23.2142857 C10.7142857,24.0032639 11.3538789,24.6428571 12.1428571,24.6428571 L12.1428571,24.6428571 L18.9285714,24.6428571 C19.7175496,24.6428571 20.3571429,24.0032639 20.3571429,23.2142857 L20.3571429,23.2142857 L20.3571429,22.8571429 C20.3571429,22.0681646 19.7175496,21.4285714 18.9285714,21.4285714 L18.9285714,21.4285714 L17.1422857,21.4277143 L17.1428571,12.1428571 C17.1428571,11.3538789 16.5032639,10.7142857 15.7142857,10.7142857 L15.7142857,10.7142857 Z M15,4.28571429 C13.8165327,4.28571429 12.8571429,5.24510411 12.8571429,6.42857143 C12.8571429,7.61203875 13.8165327,8.57142857 15,8.57142857 C16.1834673,8.57142857 17.1428571,7.61203875 17.1428571,6.42857143 C17.1428571,5.24510411 16.1834673,4.28571429 15,4.28571429 Z" id="Combined-Shape"></path>
                            </g>
                        </g>
                    </g>
                </g>
            </g>
        </g>
    </g>
</svg>