<?xml version="1.0" encoding="UTF-8"?>
<svg width="26px" height="26px" viewBox="0 0 26 26" version="1.1" xmlns="http://www.w3.org/2000/svg" xmlns:xlink="http://www.w3.org/1999/xlink">
    <title>換貨單</title>
    <g id="XXXGuideline" stroke="none" stroke-width="1" fill="none" fill-rule="evenodd">
        <g id="Guideline_圖標" transform="translate(-512.000000, -2792.000000)" fill="#7F7F7F">
            <g id="04" transform="translate(70.000000, 2155.000000)">
                <g id="流程圖" transform="translate(40.000000, 75.000000)">
                    <g id="icon" transform="translate(20.000000, 20.000000)">
                        <g id="通路管理-copy-44" transform="translate(360.000000, 540.000000)">
                            <g id="換貨單" transform="translate(20.000000, 0.000000)">
                                <path d="M22.0631367,16.526618 C25.1163234,16.526618 27.6002461,19.0105406 27.6002461,22.0637273 C27.6002461,25.1169141 25.1163234,27.6008367 22.0631367,27.6008367 C19.00995,27.6008367 16.5260273,25.1169141 16.5260273,22.0637273 C16.5260273,19.0105406 19.00995,16.526618 22.0631367,16.526618 Z M25.1346948,22.125 L24.6963898,22.125 L24.6379376,22.1292569 C24.4666632,22.1544693 24.3353571,22.2886936 24.3312156,22.4519433 C24.3247732,22.7100184 24.2669085,22.9588348 24.1589229,23.1925409 C24.0478433,23.4338585 23.8890488,23.6499136 23.6861046,23.8359486 C23.4825334,24.0225583 23.2466608,24.1685289 22.9846024,24.2698916 C22.7123149,24.3752655 22.4241369,24.4285714 22.1257305,24.4285714 C21.8273242,24.4285714 21.5391462,24.3752655 21.2669111,24.2699119 L21.2669111,24.2699119 L21.1379218,24.2153709 L21.0136058,24.153609 C20.8916824,24.0882685 20.7770206,24.01224 20.670375,23.9259533 L20.670375,23.9259533 L20.5945995,23.8603125 L20.7746316,23.7315083 L20.8185441,23.6950703 C21.0036879,23.5150742 20.9139872,23.2047507 20.6372391,23.142304 L20.6372391,23.142304 L19.3533371,22.8542679 L19.3005383,22.84624 C19.0906592,22.8284137 18.9012633,22.9787248 18.9012633,23.1790179 L18.9012633,23.1790179 L18.8961521,24.3899837 L18.9001836,24.4411508 L18.9118225,24.489149 C18.9828221,24.7052566 19.2799541,24.8075616 19.4899871,24.6520541 L19.4899871,24.6520541 L19.6674002,24.5240625 L19.7927898,24.6410065 C20.4120779,25.1852344 21.2409419,25.5 22.126461,25.5 C23.9656156,25.5 25.4652881,24.1493262 25.4999123,22.4664642 C25.5043499,22.2796624 25.3398545,22.125 25.1346948,22.125 L25.1346948,22.125 Z M9.57816094,6.30462187 L9.57816094,10.9178953 L12.6911977,9.54006562 L15.8042344,10.9178953 L15.8042344,6.30462187 L22.9818047,6.30462187 L22.9818047,15.11025 C22.6810781,15.0707273 22.3744945,15.0500555 22.0631367,15.0500555 C18.1957734,15.0500555 15.0494648,18.1963641 15.0494648,22.0637273 C15.0494648,22.2710039 15.0586086,22.4762023 15.0763857,22.6789581 L15.1094625,22.9812141 L2.40059062,22.9812141 L2.40059062,6.30462187 L9.57816094,6.30462187 Z M22.123539,18.75 C20.2846275,18.75 18.7847013,20.1004526 18.7500877,21.7835381 C18.7456501,21.9703376 18.9101456,22.125 19.1153052,22.125 L19.1153052,22.125 L19.5536103,22.125 L19.6120625,22.1207431 C19.7833369,22.0955307 19.9146429,21.9613064 19.9187845,21.7980567 C19.9252269,21.5399816 19.9830915,21.2911652 20.0910772,21.0574591 C20.2018667,20.8167718 20.360484,20.6011053 20.5642379,20.413737 C20.7668075,20.2274578 21.0022872,20.081878 21.2653977,19.9801084 C21.5376852,19.8747345 21.8258631,19.8214286 22.1242695,19.8214286 C22.4227131,19.8214286 22.7107972,19.874747 22.9821191,19.9799954 L22.9821191,19.9799954 L23.1112093,20.0345754 L23.2355928,20.0963635 C23.3575694,20.1617246 23.4722445,20.2377583 23.5788934,20.3240463 L23.5788934,20.3240463 L23.6541733,20.389125 L23.4746379,20.5184917 L23.4307255,20.5549297 C23.2455817,20.7349258 23.3352823,21.0452493 23.6120304,21.107696 L23.6120304,21.107696 L24.8959324,21.3957321 L24.9487312,21.40376 C25.1586104,21.4215863 25.3480062,21.2712752 25.3480062,21.0709821 L25.3480062,21.0709821 L25.3538473,19.860842 L25.3498159,19.8096475 L25.3381771,19.7616252 C25.2671779,19.545413 24.9700459,19.443108 24.760013,19.5986156 L24.760013,19.5986156 L24.5819862,19.725375 L24.4573621,19.6095232 C23.8381584,19.0649019 23.0092695,18.75 22.123539,18.75 Z M7.93838906,19.0765922 L4.77864375,19.0765922 L4.77864375,20.5531547 L7.93838906,20.5531547 L7.93838906,19.0765922 Z M9.52155937,15.9102516 L4.77864375,15.9102516 L4.77864375,17.3868141 L9.52155937,17.3868141 L9.52155937,15.9102516 Z M14.3276719,2.4 L14.3276719,8.64969844 L12.6911977,7.92539531 L11.0547234,8.64969844 L11.0547234,2.4 L14.3276719,2.4 Z M9.57816094,2.4 L9.57816094,4.82805937 L2.40059062,4.82805937 L2.40059062,2.4 L9.57816094,2.4 Z M22.9818047,2.4 L22.9818047,4.82805937 L15.8042344,4.82805937 L15.8042344,2.4 L22.9818047,2.4 Z" id="Combined-Shape"></path>
                            </g>
                        </g>
                    </g>
                </g>
            </g>
        </g>
    </g>
</svg>