<?xml version="1.0" encoding="UTF-8"?>
<svg width="27px" height="27px" viewBox="0 0 27 27" version="1.1" xmlns="http://www.w3.org/2000/svg" xmlns:xlink="http://www.w3.org/1999/xlink">
    <title>搜尋</title>
    <defs>
        <path d="M28.4423828,26.9482422 L22.4160156,20.9248047 C24.0302734,18.9765625 25,16.4775391 25,13.75 C25,7.53613281 19.9638672,2.5 13.75,2.5 C7.53613281,2.5 2.5,7.53613281 2.5,13.75 C2.5,19.9638672 7.53613281,25 13.75,25 C16.4775391,25 18.9765625,24.0302734 20.9248047,22.4160156 L26.9511719,28.4423828 C27.15625,28.6474609 27.4257813,28.75 27.6982422,28.75 C27.9707031,28.75 28.2373047,28.6474609 28.4453125,28.4423828 C28.8525391,28.0292969 28.8525391,27.3613281 28.4423828,26.9482422 Z M17.3066406,22.1728516 C16.1816406,22.6503906 14.9863281,22.890625 13.75,22.890625 C12.5136719,22.890625 11.3183594,22.6503906 10.1933594,22.1728516 C9.10644531,21.7128906 8.12792969,21.0537109 7.28710938,20.2128906 C6.44628906,19.3720703 5.78710938,18.3935547 5.32714844,17.3066406 C4.84960938,16.1816406 4.609375,14.9863281 4.609375,13.75 C4.609375,12.5136719 4.84960938,11.3183594 5.32714844,10.1933594 C5.78710938,9.10644531 6.44628906,8.12792969 7.28710938,7.28710938 C8.12792969,6.44628906 9.10644531,5.78710938 10.1933594,5.32714844 C11.3183594,4.84960938 12.5136719,4.609375 13.75,4.609375 C14.9863281,4.609375 16.1816406,4.84960938 17.3066406,5.32714844 C18.3935547,5.78710938 19.3720703,6.44628906 20.2128906,7.28710938 C21.0537109,8.12792969 21.7128906,9.10644531 22.1728516,10.1933594 C22.6503906,11.3183594 22.890625,12.5136719 22.890625,13.75 C22.890625,14.9863281 22.6503906,16.1816406 22.1728516,17.3066406 C21.7128906,18.3935547 21.0537109,19.3720703 20.2128906,20.2128906 C19.3720703,21.0537109 18.3964844,21.7128906 17.3066406,22.1728516 Z" id="path-1"></path>
    </defs>
    <g id="XXXGuideline" stroke="none" stroke-width="1" fill="none" fill-rule="evenodd">
        <g id="Guideline_圖標" transform="translate(-142.000000, -1337.000000)">
            <g id="02" transform="translate(70.000000, 915.000000)">
                <g id="網站通用-Icon" transform="translate(40.000000, 400.000000)">
                    <g id="icon" transform="translate(10.000000, 20.000000)">
                        <g id="搜尋" transform="translate(20.000000, 0.000000)">
                            <mask id="mask-2" fill="white">
                                <use xlink:href="#path-1"></use>
                            </mask>
                            <use id="Mask" fill="#7F7F7F" xlink:href="#path-1"></use>
                        </g>
                    </g>
                </g>
            </g>
        </g>
    </g>
</svg>