<?xml version="1.0" encoding="UTF-8"?>
<svg width="24px" height="26px" viewBox="0 0 24 26" version="1.1" xmlns="http://www.w3.org/2000/svg" xmlns:xlink="http://www.w3.org/1999/xlink">
    <title>操作手冊</title>
    <g id="XXXGuideline" stroke="none" stroke-width="1" fill="none" fill-rule="evenodd">
        <g id="Guideline_圖標" transform="translate(-233.000000, -597.000000)" fill="#7F7F7F">
            <g id="01" transform="translate(70.000000, 405.000000)">
                <g id="側選單-Icon" transform="translate(40.000000, 80.000000)">
                    <g id="icon" transform="translate(10.000000, 20.000000)">
                        <g id="操作手冊" transform="translate(90.000000, 90.000000)">
                            <g id="操作手冊" transform="translate(20.000000, 0.000000)">
                                <path d="M24.6428571,6.24107143 L24.6428571,26.15625 L24.6428571,26.15625 L7.76785714,26.15625 C6.43633929,26.15625 5.35714286,25.0860469 5.35714286,23.765625 C5.35714286,22.4452031 6.43633929,21.375 7.76785714,21.375 L23.0357143,21.375 L23.0357143,2.25 L6.96428571,2.25 C5.19642857,2.25 3.75,3.684375 3.75,5.4375 L3.75,24.5625 C3.75,26.315625 5.19642857,27.75 6.96428571,27.75 L26.25,27.75 L26.25,6.24107143 C26.25,5.79727118 25.8902288,5.4375 25.4464286,5.4375 C25.0026283,5.4375 24.6428571,5.79727118 24.6428571,6.24107143 Z M10.5,2.25 L6.75,2.25 L6.75,8.25 L8.625,7.48294203 L10.5,8.25 L10.5,2.25 Z M7.53911446,23.25 C7.10281764,23.25 6.75,23.586 6.75,24 C6.75,24.414 7.10281764,24.75 7.53753938,24.75 L21.75,24.75 C22.1642136,24.75 22.5,24.4142136 22.5,24 C22.5,23.5857864 22.1642136,23.25 21.75,23.25 L7.53911446,23.25 L7.53911446,23.25 Z" id="Shape"></path>
                            </g>
                        </g>
                    </g>
                </g>
            </g>
        </g>
    </g>
</svg>