<?xml version="1.0" encoding="UTF-8"?>
<svg width="30px" height="30px" viewBox="0 0 30 30" version="1.1" xmlns="http://www.w3.org/2000/svg" xmlns:xlink="http://www.w3.org/1999/xlink">
    <title>收合</title>
    <g id="XXXGuideline" stroke="none" stroke-width="1" fill="none" fill-rule="evenodd">
        <g id="Guideline_圖標" transform="translate(-860.000000, -1425.000000)" fill="#7F7F7F">
            <g id="02" transform="translate(70.000000, 915.000000)">
                <g id="網站通用-Icon" transform="translate(40.000000, 400.000000)">
                    <g id="icon" transform="translate(10.000000, 20.000000)">
                        <g id="通路管理-copy-27" transform="translate(720.000000, 90.000000)">
                            <g id="收合" transform="translate(20.000000, 0.000000)">
                                <path d="M24,0 C27.3137085,0 30,2.6862915 30,6 L30,24 C30,27.3137085 27.3137085,30 24,30 L6,30 C2.6862915,30 0,27.3137085 0,24 L0,6 C0,2.6862915 2.6862915,0 6,0 L24,0 Z M24,2.25 L6,2.25 C4.0117749,2.25 2.38494199,3.7973039 2.25797652,5.75343647 L2.25,6 L2.25,24 C2.25,25.9882251 3.7973039,27.615058 5.75343647,27.7420235 L6,27.75 L24,27.75 C25.9882251,27.75 27.615058,26.2026961 27.7420235,24.2465635 L27.75,24 L27.75,6 C27.75,4.0117749 26.2026961,2.38494199 24.2465635,2.25797652 L24,2.25 Z M23.3349609,13.9453125 C23.8791016,13.9453125 24.326263,14.3561979 24.3834661,14.8849896 L24.3896484,15 C24.3896484,15.5830078 23.9179688,16.0546875 23.3349609,16.0546875 L6.66503906,16.0546875 C6.12089844,16.0546875 5.67373698,15.6438021 5.61653385,15.1150104 L5.61035156,15 C5.61035156,14.4169922 6.08203125,13.9453125 6.66503906,13.9453125 L23.3349609,13.9453125 Z" id="Combined-Shape"></path>
                            </g>
                        </g>
                    </g>
                </g>
            </g>
        </g>
    </g>
</svg>