<?xml version="1.0" encoding="UTF-8"?>
<svg width="24px" height="24px" viewBox="0 0 24 24" version="1.1" xmlns="http://www.w3.org/2000/svg" xmlns:xlink="http://www.w3.org/1999/xlink">
    <title>新增</title>
    <defs>
        <path d="M25.2978516,13.9453125 L15.9667969,13.9453125 L15.9667969,4.84863281 C15.9667969,4.265625 15.4951172,3.79394531 14.9121094,3.79394531 L14.9121094,3.79394531 C14.3291016,3.79394531 13.8574219,4.265625 13.8574219,4.84863281 L13.8574219,13.9453125 L4.73144531,13.9453125 C4.1484375,13.9453125 3.67675781,14.4169922 3.67675781,15 L3.67675781,15 C3.67675781,15.5830078 4.1484375,16.0546875 4.73144531,16.0546875 L13.8574219,16.0546875 L13.8574219,25.1806641 C13.8574219,25.7636719 14.3291016,26.2353516 14.9121094,26.2353516 L14.9121094,26.2353516 C15.4951172,26.2353516 15.9667969,25.7636719 15.9667969,25.1806641 L15.9667969,16.0546875 L25.2978516,16.0546875 C25.8808594,16.0546875 26.3525391,15.5830078 26.3525391,15 L26.3525391,15 C26.3525391,14.4169922 25.8808594,13.9453125 25.2978516,13.9453125 Z" id="path-1"></path>
    </defs>
    <g id="XXXGuideline" stroke="none" stroke-width="1" fill="none" fill-rule="evenodd">
        <g id="Guideline_圖標" transform="translate(-233.000000, -1338.000000)">
            <g id="02" transform="translate(70.000000, 915.000000)">
                <g id="網站通用-Icon" transform="translate(40.000000, 400.000000)">
                    <g id="icon" transform="translate(10.000000, 20.000000)">
                        <g id="SKU管理" transform="translate(90.000000, 0.000000)">
                            <g id="新增" transform="translate(20.000000, 0.000000)">
                                <mask id="mask-2" fill="white">
                                    <use xlink:href="#path-1"></use>
                                </mask>
                                <use id="Mask" fill="#7F7F7F" xlink:href="#path-1"></use>
                            </g>
                        </g>
                    </g>
                </g>
            </g>
        </g>
    </g>
</svg>