<?xml version="1.0" encoding="UTF-8"?>
<svg width="28px" height="29px" viewBox="0 0 28 29" version="1.1" xmlns="http://www.w3.org/2000/svg" xmlns:xlink="http://www.w3.org/1999/xlink">
    <title>新增</title>
    <g id="XXXGuideline" stroke="none" stroke-width="1" fill="none" fill-rule="evenodd">
        <g id="Guideline_圖標" transform="translate(-232.000000, -1865.000000)" fill="#7F7F7F">
            <g id="03" transform="translate(70.000000, 1675.000000)">
                <g id="動作-Icon" transform="translate(40.000000, 80.000000)">
                    <g id="icon" transform="translate(10.000000, 20.000000)">
                        <g id="SKU管理-Copy-2" transform="translate(90.000000, 90.000000)">
                            <g id="新增" transform="translate(20.000000, 0.000000)">
                                <path d="M22.5,13.5 C26.6423611,13.5 30,16.8576389 30,21 C30,25.1423611 26.6423611,28.5 22.5,28.5 C18.3576389,28.5 15,25.1423611 15,21 C15,16.8576389 18.3576389,13.5 22.5,13.5 Z M24.6354167,0.807291667 C25.1635742,0.807291667 25.5987323,1.1984366 25.6675909,1.70742647 L25.6770833,1.84895833 L25.6770833,11.3489583 C25.6770833,11.4635417 25.6020833,11.5614583 25.49875,11.5960417 L25.4166667,11.609375 L23.59375,11.609375 C23.4791667,11.609375 23.38125,11.534375 23.3466667,11.4310417 L23.3333333,11.3489583 L23.3333333,3.15104167 L5.10416667,3.15104167 L5.10416667,26.0677083 L14.15625,26.0677083 C14.2708333,26.0677083 14.36875,26.1427083 14.4033333,26.2460417 L14.4166667,26.328125 L14.4166667,28.1510417 C14.4166667,28.265625 14.3416667,28.3635417 14.2383333,28.398125 L14.15625,28.4114583 L3.80208333,28.4114583 C3.27392578,28.4114583 2.83876772,28.0203134 2.76990914,27.5113235 L2.76041667,27.3697917 L2.76041667,1.84895833 C2.76041667,1.32080078 3.1515616,0.885642723 3.66055147,0.81678414 L3.80208333,0.807291667 L24.6354167,0.807291667 Z M22.5,15.75 C19.6002796,15.75 17.25,18.1002796 17.25,21 C17.25,23.8997204 19.6002796,26.25 22.5,26.25 C25.3997204,26.25 27.75,23.8997204 27.75,21 C27.75,18.1002796 25.3997204,15.75 22.5,15.75 Z M13.9583333,11.3541667 C14.0729167,11.3541667 14.1708333,11.4291667 14.2054167,11.5325 L14.21875,11.6145833 L14.21875,13.1770833 C14.21875,13.2916667 14.14375,13.3895833 14.0404167,13.4241667 L13.9583333,13.4375 L7.96875,13.4375 C7.85416667,13.4375 7.75625,13.3625 7.72166667,13.2591667 L7.70833333,13.1770833 L7.70833333,11.6145833 C7.70833333,11.5 7.78333333,11.4020833 7.88666667,11.3675 L7.96875,11.3541667 L13.9583333,11.3541667 Z M20.46875,6.66666667 C20.5833333,6.66666667 20.68125,6.74166667 20.7158333,6.845 L20.7291667,6.92708333 L20.7291667,8.48958333 C20.7291667,8.60416667 20.6541667,8.70208333 20.5508333,8.73666667 L20.46875,8.75 L7.96875,8.75 C7.85416667,8.75 7.75625,8.675 7.72166667,8.57166667 L7.70833333,8.48958333 L7.70833333,6.92708333 C7.70833333,6.8125 7.78333333,6.71458333 7.88666667,6.68 L7.96875,6.66666667 L20.46875,6.66666667 Z" id="Shape"></path>
                                <path d="M25.605,19.875 C25.7238,19.875 25.82532,19.956 25.861176,20.0676 L25.875,20.15625 L25.875,21.84375 C25.875,21.9675 25.79724,22.07325 25.690104,22.1106 L25.605,22.125 L19.395,22.125 C19.2762,22.125 19.17468,22.044 19.138824,21.9324 L19.125,21.84375 L19.125,20.15625 C19.125,20.0325 19.20276,19.92675 19.309896,19.8894 L19.395,19.875 L25.605,19.875 Z" id="Path" transform="translate(22.500000, 21.000000) rotate(90.000000) translate(-22.500000, -21.000000) "></path>
                                <path d="M25.605,19.875 C25.7238,19.875 25.82532,19.956 25.861176,20.0676 L25.875,20.15625 L25.875,21.84375 C25.875,21.9675 25.79724,22.07325 25.690104,22.1106 L25.605,22.125 L19.395,22.125 C19.2762,22.125 19.17468,22.044 19.138824,21.9324 L19.125,21.84375 L19.125,20.15625 C19.125,20.0325 19.20276,19.92675 19.309896,19.8894 L19.395,19.875 L25.605,19.875 Z" id="Path"></path>
                            </g>
                        </g>
                    </g>
                </g>
            </g>
        </g>
    </g>
</svg>