<?xml version="1.0" encoding="UTF-8"?>
<svg width="24px" height="24px" viewBox="0 0 24 24" version="1.1" xmlns="http://www.w3.org/2000/svg" xmlns:xlink="http://www.w3.org/1999/xlink">
    <title>新手指引</title>
    <g id="XXXGuideline" stroke="none" stroke-width="1" fill="none" fill-rule="evenodd">
        <g id="Guideline_圖標" transform="translate(-773.000000, -758.000000)" fill="#7F7F7F">
            <g id="01" transform="translate(70.000000, 405.000000)">
                <g id="頂部選單-Icon" transform="translate(40.000000, 330.000000)">
                    <g id="title" transform="translate(10.000000, 20.000000)">
                        <g id="採購管理-copy" transform="translate(630.000000, 0.000000)">
                            <g id="新手指引" transform="translate(20.000000, 0.000000)">
                                <path d="M15,3 C21.6275294,3 27,8.37247058 27,15 C27,21.6275294 21.6275294,27 15,27 C8.37247058,27 3,21.6275294 3,15 C3,8.37247058 8.37247058,3 15,3 Z M20.8553158,9.75477244 C20.5173139,9.08007486 19.6961854,8.80704223 19.0212739,9.14493698 L19.0212739,9.14493698 L12.8553532,12.2319081 L12.7278399,12.3045566 C12.5227212,12.4364897 12.3558509,12.6214538 12.2456991,12.8409961 L12.2456991,12.8409961 L9.14505894,19.0208471 L9.08208968,19.1669947 C8.95592632,19.5141847 8.97513496,19.9003624 9.14008248,20.2359464 C9.47296123,20.9131846 10.2919969,21.1924287 10.9694499,20.8596554 L10.9694499,20.8596554 L17.1654697,17.8160941 L17.2963119,17.7426492 C17.506695,17.6088615 17.6773257,17.4194889 17.7884664,17.1942331 L17.7884664,17.1942331 L20.8590074,10.9709723 L20.9210517,10.8242584 C21.0449735,10.4758773 21.0229706,10.0894342 20.8553158,9.75477244 Z M13.465,13.456 L16.563,16.586 L16.5627394,16.5898457 L10.3667196,19.6334071 L13.465,13.456 Z" id="Combined-Shape"></path>
                            </g>
                        </g>
                    </g>
                </g>
            </g>
        </g>
    </g>
</svg>