<?xml version="1.0" encoding="UTF-8"?>
<svg width="30px" height="27px" viewBox="0 0 30 27" version="1.1" xmlns="http://www.w3.org/2000/svg" xmlns:xlink="http://www.w3.org/1999/xlink">
    <title>日期</title>
    <defs>
        <path d="M21.2721202,16.5140651 L8.7245409,16.5140651 C8.14691152,16.5140651 7.67946578,16.0453673 7.67946578,15.4661907 L7.67946578,15.4661907 C7.67946578,14.8870141 8.14691152,14.4183162 8.7245409,14.4183162 L21.2754591,14.4183162 C21.8530885,14.4183162 22.3205342,14.8870141 22.3205342,15.4661907 L22.3205342,15.4661907 C22.3171953,16.0453673 21.8497496,16.5140651 21.2721202,16.5140651 L21.2721202,16.5140651 Z M21.2721202,10.8394735 L8.7245409,10.8394735 C8.14691152,10.8394735 7.67946578,10.3707757 7.67946578,9.79159909 L7.67946578,9.79159909 C7.67946578,9.21242249 8.14691152,8.74372466 8.7245409,8.74372466 L21.2754591,8.74372466 C21.8530885,8.74372466 22.3205342,9.21242249 22.3205342,9.79159909 L22.3205342,9.79159909 C22.3171953,10.3707757 21.8497496,10.8394735 21.2721202,10.8394735 L21.2721202,10.8394735 Z M27.5926544,26.3366325 L23.7328881,26.3366325 L23.7328881,27.1635494 C23.7328881,27.742726 23.2654424,28.2114238 22.687813,28.2114238 L22.687813,28.2114238 C22.1101836,28.2114238 21.6427379,27.742726 21.6427379,27.1635494 L21.6427379,26.3366325 L8.35392321,26.3366325 L8.35392321,27.1635494 C8.35392321,27.742726 7.88647746,28.2114238 7.30884808,28.2114238 L7.30884808,28.2114238 C6.7312187,28.2114238 6.26377295,27.742726 6.26377295,27.1635494 L6.26377295,26.3366325 L2.40400668,26.3366325 C1.07512521,26.3366325 0,25.2586275 0,23.9261865 L0,4.91044598 C0,3.57800501 1.07512521,2.5 2.40400668,2.5 L27.5959933,2.5 C28.9248748,2.5 30,3.57800501 30,4.91044598 L30,23.9261865 C29.9966611,25.2552796 28.9215359,26.3366325 27.5926544,26.3366325 L27.5926544,26.3366325 Z M2.40400668,23.9261865 L6.26711185,23.9261865 L6.26711185,23.3838362 C6.26711185,22.8046596 6.7345576,22.3359617 7.31218698,22.3359617 L7.31218698,22.3359617 C7.88981636,22.3359617 8.3572621,22.8046596 8.3572621,23.3838362 L8.3572621,23.9261865 L21.6460768,23.9261865 L21.6460768,23.3838362 C21.6460768,22.8046596 22.1135225,22.3359617 22.6911519,22.3359617 L22.6911519,22.3359617 C23.2687813,22.3359617 23.736227,22.8046596 23.736227,23.3838362 L23.736227,23.9261865 L27.5993322,23.9261865 L27.5993322,23.9261865 L27.5993322,20.6419539 L2.40400668,20.6419539 L2.40400668,23.9261865 L2.40400668,23.9261865 L2.40400668,23.9261865 Z M27.5926544,4.91044598 L2.40400668,4.91044598 L2.40400668,4.91044598 L2.40400668,18.5562485 L27.5959933,18.5562485 L27.5959933,4.91044598 L27.5926544,4.91044598 L27.5926544,4.91044598 Z" id="path-1"></path>
    </defs>
    <g id="XXXGuideline" stroke="none" stroke-width="1" fill="none" fill-rule="evenodd">
        <g id="Guideline_圖標" transform="translate(-230.000000, -1427.000000)">
            <g id="02" transform="translate(70.000000, 915.000000)">
                <g id="網站通用-Icon" transform="translate(40.000000, 400.000000)">
                    <g id="icon" transform="translate(10.000000, 20.000000)">
                        <g id="SKU管理-Copy-4" transform="translate(90.000000, 90.000000)">
                            <g id="日期" transform="translate(20.000000, 0.000000)">
                                <mask id="mask-2" fill="white">
                                    <use xlink:href="#path-1"></use>
                                </mask>
                                <use id="Mask" fill="#7F7F7F" transform="translate(15.000000, 15.355712) scale(1, -1) translate(-15.000000, -15.355712) " xlink:href="#path-1"></use>
                            </g>
                        </g>
                    </g>
                </g>
            </g>
        </g>
    </g>
</svg>