<?xml version="1.0" encoding="UTF-8"?>
<svg width="30px" height="30px" viewBox="0 0 30 30" version="1.1" xmlns="http://www.w3.org/2000/svg" xmlns:xlink="http://www.w3.org/1999/xlink">
    <title>時間</title>
    <g id="XXXGuideline" stroke="none" stroke-width="1" fill="none" fill-rule="evenodd">
        <g id="Guideline_圖標" transform="translate(-140.000000, -1425.000000)" fill="#7F7F7F">
            <g id="02" transform="translate(70.000000, 915.000000)">
                <g id="網站通用-Icon" transform="translate(40.000000, 400.000000)">
                    <g id="icon" transform="translate(10.000000, 20.000000)">
                        <g id="訂單管理-copy-5" transform="translate(0.000000, 90.000000)">
                            <g id="時間" transform="translate(20.000000, 0.000000)">
                                <path d="M15,0 C6.71370968,0 0,6.71370968 0,15 C0,23.2862903 6.71370968,30 15,30 C23.2862903,30 30,23.2862903 30,15 C30,6.71370968 23.2862903,0 15,0 Z M15,27.0967742 C8.31653226,27.0967742 2.90322581,21.6834677 2.90322581,15 C2.90322581,8.31653226 8.31653226,2.90322581 15,2.90322581 C21.6834677,2.90322581 27.0967742,8.31653226 27.0967742,15 C27.0967742,21.6834677 21.6834677,27.0967742 15,27.0967742 Z M18.7379032,20.7822581 L13.6028226,17.0504032 C13.4153226,16.9112903 13.3064516,16.6935484 13.3064516,16.4637097 L13.3064516,6.53225806 C13.3064516,6.13306452 13.6330645,5.80645161 14.0322581,5.80645161 L15.9677419,5.80645161 C16.3669355,5.80645161 16.6935484,6.13306452 16.6935484,6.53225806 L16.6935484,15.1028226 L20.733871,18.0423387 C21.0604839,18.2782258 21.1270161,18.7318548 20.891129,19.0584677 L19.7540323,20.625 C19.5181452,20.9455645 19.0645161,21.0181452 18.7379032,20.7822581 Z" id="icon/others/clock/28px-stroke"></path>
                            </g>
                        </g>
                    </g>
                </g>
            </g>
        </g>
    </g>
</svg>