<?xml version="1.0" encoding="UTF-8"?>
<svg width="28px" height="22px" viewBox="0 0 28 22" version="1.1" xmlns="http://www.w3.org/2000/svg" xmlns:xlink="http://www.w3.org/1999/xlink">
    <title>查看</title>
    <g id="XXXGuideline" stroke="none" stroke-width="1" fill="none" fill-rule="evenodd">
        <g id="Guideline_圖標" transform="translate(-141.000000, -1779.000000)" fill="#7F7F7F">
            <g id="03" transform="translate(70.000000, 1675.000000)">
                <g id="動作-Icon" transform="translate(40.000000, 80.000000)">
                    <g id="icon" transform="translate(10.000000, 20.000000)">
                        <g id="查看密碼" transform="translate(20.000000, 0.000000)">
                            <path d="M15,4.3125 C21.1437092,4.3125 28.5,11.5074448 28.5,15 C28.5,18.3055649 21.691683,25.1514184 15.7634373,25.656343 L15.41579,25.6786563 L15,25.6875 C8.8562908,25.6875 1.5,18.4925552 1.5,15 C1.5,11.6944351 8.30831698,4.84858159 14.2365627,4.34365699 L14.58421,4.32134367 L15,4.3125 Z M15,6.9375 C12.3599832,6.9375 9.70108829,8.35548466 7.30746746,10.6977142 C5.61097774,12.3577801 4.125,14.5371377 4.125,15 C4.125,15.4628623 5.61097774,17.6422199 7.30746746,19.3022858 C9.70108829,21.6445153 12.3599832,23.0625 15,23.0625 C17.6400168,23.0625 20.2989117,21.6445153 22.6925325,19.3022858 C24.3890223,17.6422199 25.875,15.4628623 25.875,15 C25.875,14.5371377 24.3890223,12.3577801 22.6925325,10.6977142 C20.2989117,8.35548466 17.6400168,6.9375 15,6.9375 Z M15,9.9375 C17.7917943,9.9375 20.0625,12.2082057 20.0625,15 C20.0625,17.592376 18.0991613,19.7509971 15.5512533,20.0320554 L15.2760891,20.0549185 L15,20.0625 C12.2082057,20.0625 9.9375,17.7917943 9.9375,15 C9.9375,12.407624 11.9008387,10.2490029 14.4487467,9.96794456 L14.7239109,9.94508149 L15,9.9375 Z M15,12.5625 C13.6538059,12.5625 12.5625,13.6538059 12.5625,15 C12.5625,16.3461941 13.6538059,17.4375 15,17.4375 C16.3461941,17.4375 17.4375,16.3461941 17.4375,15 C17.4375,13.6538059 16.3461941,12.5625 15,12.5625 Z" id="Shape"></path>
                        </g>
                    </g>
                </g>
            </g>
        </g>
    </g>
</svg>