<?xml version="1.0" encoding="UTF-8"?>
<svg width="25px" height="22px" viewBox="0 0 25 22" version="1.1" xmlns="http://www.w3.org/2000/svg" xmlns:xlink="http://www.w3.org/1999/xlink">
    <title>流程操作圖</title>
    <g id="XXXGuideline" stroke="none" stroke-width="1" fill="none" fill-rule="evenodd">
        <g id="Guideline_圖標" transform="translate(-143.000000, -598.000000)" fill="#7F7F7F">
            <g id="01" transform="translate(70.000000, 405.000000)">
                <g id="側選單-Icon" transform="translate(40.000000, 80.000000)">
                    <g id="icon" transform="translate(10.000000, 20.000000)">
                        <g id="流程操作圖" transform="translate(0.000000, 90.000000)">
                            <g id="流程操作圖" transform="translate(20.000000, 0.000000)">
                                <path d="M27.0514848,18.6095736 C27.033996,18.6089688 27.0164568,18.6089688 26.998968,18.6095736 L25.192632,18.6095736 L25.192632,9.5778936 C25.2071472,9.1648656 24.8840832,8.8182648 24.4710048,8.8037496 C24.453516,8.8031448 24.4359768,8.8031448 24.418488,8.8037496 L20.547768,8.8037496 L20.547768,4.4169336 C20.5622832,4.0039056 20.2392192,3.6573048 19.8261408,3.6427896 C19.808652,3.64231902 19.7911128,3.64231902 19.773624,3.6427896 L10.483896,3.6427896 C10.070868,3.6282744 9.7242672,3.9513384 9.709752,4.3644168 C9.7091472,4.3819056 9.7091472,4.3994448 9.709752,4.4169336 L9.709752,8.8037496 L6.355128,8.8037496 C5.9421,8.7892344 5.5954992,9.1122984 5.580984,9.5253768 C5.5803792,9.5428656 5.5803792,9.5604048 5.580984,9.5778936 L5.580984,18.6095736 L3.774648,18.6095736 C3.36162,18.5950584 3.0150192,18.9181224 3.000504,19.3312008 C3.00003342,19.3486896 3.00003342,19.3662288 3.000504,19.3837176 L3.000504,24.0285816 C2.9859888,24.4416096 3.3090528,24.7882104 3.7221312,24.8027256 C3.73962,24.8031962 3.7571592,24.8031962 3.774648,24.8027256 L8.935608,24.8027256 C9.348636,24.8172408 9.6952368,24.4941768 9.709752,24.0810984 C9.7103568,24.0636096 9.7103568,24.0460704 9.709752,24.0285816 L9.709752,19.3837176 C9.7242672,18.9706896 9.4012032,18.6240888 8.9881248,18.6095736 C8.970636,18.6089688 8.9530968,18.6089688 8.935608,18.6095736 L7.129272,18.6095736 L7.129272,10.3520376 L9.709752,10.3520376 L9.709752,12.1583736 C9.6952368,12.5714016 10.0183008,12.9180024 10.4313792,12.9325176 C10.448868,12.9331224 10.4664072,12.9331224 10.483896,12.9325176 L14.612664,12.9325176 L14.612664,18.6095736 L12.806328,18.6095736 C12.3933,18.5950584 12.0466992,18.9181224 12.032184,19.3312008 C12.0315792,19.3486896 12.0315792,19.3662288 12.032184,19.3837176 L12.032184,24.0285816 C12.0176688,24.4416096 12.3407328,24.7882104 12.7538112,24.8027256 C12.7713,24.8031962 12.7888392,24.8031962 12.806328,24.8027256 L17.967288,24.8027256 C18.380316,24.8172408 18.7269168,24.4941768 18.741432,24.0810984 C18.7420368,24.0636096 18.7420368,24.0460704 18.741432,24.0285816 L18.741432,19.3837176 C18.7559472,18.9706896 18.4328832,18.6240888 18.0198048,18.6095736 C18.002316,18.6089688 17.9847768,18.6089688 17.967288,18.6095736 L16.160952,18.6095736 L16.160952,12.9325176 L19.773624,12.9325176 C20.186652,12.9470328 20.5332528,12.6239688 20.547768,12.2108904 C20.5483728,12.1934016 20.5483728,12.1758624 20.547768,12.1583736 L20.547768,10.3520376 L23.644344,10.3520376 L23.644344,18.6095736 L21.838008,18.6095736 C21.42498,18.5950584 21.0783792,18.9181224 21.063864,19.3312008 C21.0632592,19.3486896 21.0632592,19.3662288 21.063864,19.3837176 L21.063864,24.0285816 C21.0493488,24.4416096 21.3724128,24.7882104 21.7854912,24.8027256 C21.80298,24.8031962 21.8205192,24.8031962 21.838008,24.8027256 L26.998968,24.8027256 C27.411996,24.8172408 27.7585968,24.4941768 27.773112,24.0810984 C27.7735794,24.0636096 27.7735794,24.0460704 27.773112,24.0285816 L27.773112,19.3837176 C27.7875768,18.9706896 27.4645128,18.6240888 27.0514848,18.6095736 Z" id="Path"></path>
                            </g>
                        </g>
                    </g>
                </g>
            </g>
        </g>
    </g>
</svg>