<?xml version="1.0" encoding="UTF-8"?>
<svg width="30px" height="26px" viewBox="0 0 30 26" version="1.1" xmlns="http://www.w3.org/2000/svg" xmlns:xlink="http://www.w3.org/1999/xlink">
    <title>照片</title>
    <g id="XXXGuideline" stroke="none" stroke-width="1" fill="none" fill-rule="evenodd">
        <g id="Guideline_圖標" transform="translate(-410.000000, -1428.000000)" fill="#7F7F7F">
            <g id="02" transform="translate(70.000000, 915.000000)">
                <g id="網站通用-Icon" transform="translate(40.000000, 400.000000)">
                    <g id="icon" transform="translate(10.000000, 20.000000)">
                        <g id="通路管理-copy-23" transform="translate(270.000000, 90.000000)">
                            <g id="照片" transform="translate(20.000000, 0.000000)">
                                <path d="M14.9733511,23.0760219 C18.1678881,23.0760219 20.7661559,20.4868524 20.7661559,17.3035017 C20.7661559,14.120151 18.1678881,11.5309815 14.9733511,11.5309815 C11.7788141,11.5309815 9.1805463,14.120151 9.1805463,17.3035017 C9.18387742,20.4868524 11.7821452,23.0760219 14.9733511,23.0760219 Z M12.5582945,14.8969018 C13.2045303,14.2529289 14.0606262,13.897748 14.9733511,13.897748 C15.8860759,13.897748 16.7421719,14.2529289 17.3884077,14.8969018 C18.0346436,15.5408748 18.3910726,16.3939729 18.3910726,17.3035017 C18.3910726,18.2130305 18.0346436,19.0661286 17.3884077,19.7101015 C16.7421719,20.3540745 15.8860759,20.7092554 14.9733511,20.7092554 C14.0606262,20.7092554 13.2045303,20.3540745 12.5582945,19.7101015 C11.9120586,19.0661286 11.5556296,18.2130305 11.5556296,17.3035017 C11.5556296,16.3972924 11.9120586,15.5408748 12.5582945,14.8969018 Z M27.8914057,6.64143452 L22.2851432,6.64143452 L19.1572285,3.33526425 L19.1439041,3.32198646 C18.9207195,3.11618068 18.5976016,3 18.254497,3 L11.7321785,3 C11.389074,3 11.065956,3.11950013 10.8461026,3.32530591 L10.8394404,3.33194481 L7.6982012,6.64143452 L2.10859427,6.64143452 C0.946035976,6.64143452 0,7.58415777 0,8.74264514 L0,26.3987894 C0,27.5572768 0.946035976,28.5 2.10859427,28.5 L27.8914057,28.5 C29.053964,28.5 30,27.5572768 30,26.3987894 L30,8.74264514 C30,7.58415777 29.053964,6.64143452 27.8914057,6.64143452 Z M12.1952032,5.41323874 L17.7914724,5.41323874 L18.9506995,6.64143452 L11.0326449,6.64143452 L12.1952032,5.41323874 Z M27.3051299,25.8212054 L2.68820786,25.8212054 L2.68820786,9.32354856 L27.3051299,9.32354856 L27.3051299,25.8212054 Z" id="Shape"></path>
                            </g>
                        </g>
                    </g>
                </g>
            </g>
        </g>
    </g>
</svg>