<?xml version="1.0" encoding="UTF-8"?>
<svg width="29px" height="29px" viewBox="0 0 29 29" version="1.1" xmlns="http://www.w3.org/2000/svg" xmlns:xlink="http://www.w3.org/1999/xlink">
    <title>異常</title>
    <g id="XXXGuideline" stroke="none" stroke-width="1" fill="none" fill-rule="evenodd">
        <g id="Guideline_圖標" transform="translate(-411.000000, -1866.000000)" fill="#7F7F7F" fill-rule="nonzero">
            <g id="03" transform="translate(70.000000, 1675.000000)">
                <g id="動作-Icon" transform="translate(40.000000, 80.000000)">
                    <g id="icon" transform="translate(10.000000, 20.000000)">
                        <g id="通路管理-copy-11" transform="translate(270.000000, 90.000000)">
                            <g id="Group" transform="translate(20.000000, 0.000000)">
                                <g id="Combined-Shape" transform="translate(1.500000, 1.500000)">
                                    <path d="M19.499432,11.1927083 C20.4254567,11.1927083 21.2842728,11.6944402 21.7678202,12.5216666 L21.7678202,12.5216666 L28.1449763,23.5691006 C28.6156917,24.4149747 28.6185021,25.4565074 28.152359,26.3051036 C27.686216,27.1536998 26.8211334,27.6819012 25.8672822,27.6927083 L25.8672822,27.6927083 L13.1189909,27.6927083 C12.1777306,27.6819012 11.3126481,27.1536998 10.846505,26.3051036 C10.3803619,25.4565074 10.3831723,24.4149747 10.8631936,23.5526829 L10.8631936,23.5526829 L17.2343289,12.5160116 C17.7145913,11.6944402 18.5734074,11.1927083 19.499432,11.1927083 Z M19.499432,13.5702426 C19.3742936,13.5702426 19.2582372,13.6380444 19.196622,13.7434125 L19.196622,13.7434125 L12.8380777,24.7580112 C12.7744676,24.8723185 12.7740878,25.0130662 12.8370801,25.1277412 C12.9000723,25.2424165 13.0169754,25.3137951 13.1315818,25.3152457 L13.1315818,25.3152457 L25.8546914,25.3152457 C25.9818887,25.3137951 26.0987918,25.2424165 26.161784,25.1277412 C26.2247762,25.0130662 26.2243965,24.8723185 26.1700922,24.7744288 L26.1700922,24.7744288 L19.8055271,13.7490675 C19.7406269,13.6380444 19.6245705,13.5702426 19.499432,13.5702426 Z M19.5069501,22.491852 C19.981481,22.491852 20.3661642,22.891024 20.3661642,23.3834274 C20.3661642,23.8211193 20.0622171,24.1851468 19.6613951,24.2606383 L19.5069501,24.2750028 C19.0249013,24.2750028 18.640218,23.8758307 18.640218,23.3834274 C18.640218,22.9457353 18.9441651,22.581708 19.3449872,22.5062164 L19.5069501,22.491852 Z M19.499432,16.2508245 C19.9212372,16.2508245 20.2720517,16.5662195 20.344803,16.982138 L20.3586461,17.1423998 L20.3586461,20.2629137 C20.3586461,20.755317 19.9739628,21.1544889 19.499432,21.1544889 C19.0776269,21.1544889 18.7268124,20.839094 18.6540611,20.4231755 L18.640218,20.2629137 L18.640218,17.1423998 C18.640218,16.6499964 19.0249013,16.2508245 19.499432,16.2508245 Z M21.8749999,0 C22.4511719,0 22.9166667,0.465494792 22.9166667,1.04166667 L22.9166667,9.45 L20.5729167,9.45 L20.5729167,2.34375 L2.34375,2.34375 L2.34375,25.2604167 L9.03458711,25.2604167 L9.03458711,27.6041667 L1.04166667,27.6041667 C0.465494792,27.6041667 0,27.1386719 0,26.5625 L0,1.04166667 C0,0.465494792 0.465494792,0 1.04166667,0 L21.8749999,0 Z M11.1979167,10.546875 C11.3411458,10.546875 11.4583333,10.6640625 11.4583333,10.8072917 L11.4583333,10.8072917 L11.4583333,12.3697917 C11.4583333,12.5130208 11.3411458,12.6302083 11.1979167,12.6302083 L11.1979167,12.6302083 L5.20833333,12.6302083 C5.06510417,12.6302083 4.94791667,12.5130208 4.94791667,12.3697917 L4.94791667,12.3697917 L4.94791667,10.8072917 C4.94791667,10.6640625 5.06510417,10.546875 5.20833333,10.546875 L5.20833333,10.546875 L11.1979167,10.546875 Z M17.7083334,5.859375 C17.8515626,5.859375 17.9687501,5.9765625 17.9687501,6.11979167 L17.9687501,6.11979167 L17.9687501,7.68229167 C17.9687501,7.82552084 17.8515626,7.94270834 17.7083334,7.94270834 L17.7083334,7.94270834 L5.20833333,7.94270834 C5.06510417,7.94270834 4.94791667,7.82552084 4.94791667,7.68229167 L4.94791667,7.68229167 L4.94791667,6.11979167 C4.94791667,5.9765625 5.06510417,5.859375 5.20833333,5.859375 L5.20833333,5.859375 L17.7083334,5.859375 Z"></path>
                                </g>
                            </g>
                        </g>
                    </g>
                </g>
            </g>
        </g>
    </g>
</svg>