<?xml version="1.0" encoding="UTF-8"?>
<svg width="28px" height="28px" viewBox="0 0 28 28" version="1.1" xmlns="http://www.w3.org/2000/svg" xmlns:xlink="http://www.w3.org/1999/xlink">
    <title>登出</title>
    <g id="XXXGuideline" stroke="none" stroke-width="1" fill="none" fill-rule="evenodd">
        <g id="Guideline_圖標" transform="translate(-861.000000, -756.000000)" fill="#7F7F7F">
            <g id="01" transform="translate(70.000000, 405.000000)">
                <g id="頂部選單-Icon" transform="translate(40.000000, 330.000000)">
                    <g id="title" transform="translate(10.000000, 20.000000)">
                        <g id="訂單管理-copy-2" transform="translate(720.000000, 0.000000)">
                            <g id="登出" transform="translate(20.000000, 0.000000)">
                                <path d="M26.8185,8.475 C27.018,8.8365 26.859,9.2865 26.487,9.465 L25.3995,9.99 C25.0275,10.17 24.5805,10.011 24.375,9.651 C23.3025,7.77 21.684,6.249 19.725,5.295 C17.5425,4.233 15.063,3.936 12.69,4.455 C10.32,4.9755 8.19,6.2805 6.651,8.1585 C5.112,10.0365 4.251,12.3795 4.2075,14.808 C4.164,17.2365 4.9425,19.608 6.4125,21.54 C7.884,23.472 9.9645,24.852 12.3165,25.455 C14.67,26.058 17.157,25.851 19.377,24.867 C21.3675,23.9835 23.04,22.521 24.1785,20.679 C24.3975,20.3265 24.849,20.184 25.2135,20.3775 L26.2815,20.9385 C26.649,21.1335 26.7915,21.5865 26.5785,21.9435 C25.1505,24.3225 23.022,26.211 20.4735,27.3405 C17.6985,28.572 14.586,28.8315 11.6445,28.0755 C8.703,27.321 6.1005,25.596 4.26,23.1795 C2.4195,20.7645 1.4475,17.796 1.5015,14.76 C1.557,11.7225 2.6325,8.793 4.5585,6.4425 C6.483,4.095 9.1455,2.4615 12.1125,1.812 C15.0795,1.1625 18.18,1.533 20.91,2.862 C23.415,4.083 25.4775,6.045 26.8185,8.475 L26.8185,8.475 Z M28.3935,15.5805 L24.246,18.792 C24.147,18.8685 24.0015,18.7965 24.003,18.672 L24.03,16.59 L15.303,16.59 C15.138,16.59 15.003,16.4565 15.003,16.29 L15.003,14.64 C15.003,14.475 15.138,14.34 15.303,14.34 L24.057,14.34 L24.084,12.1485 C24.0855,12.0225 24.231,11.9535 24.3285,12.0345 L28.3965,15.3465 C28.4715,15.4065 28.4715,15.522 28.3935,15.5805 Z" id="Shape"></path>
                            </g>
                        </g>
                    </g>
                </g>
            </g>
        </g>
    </g>
</svg>