<?xml version="1.0" encoding="UTF-8"?>
<svg width="26px" height="24px" viewBox="0 0 26 24" version="1.1" xmlns="http://www.w3.org/2000/svg" xmlns:xlink="http://www.w3.org/1999/xlink">
    <title>管理員設定</title>
    <g id="XXXGuideline" stroke="none" stroke-width="1" fill="none" fill-rule="evenodd">
        <g id="Guideline_圖標" transform="translate(-422.000000, -2253.000000)" fill="#7F7F7F">
            <g id="04" transform="translate(70.000000, 2155.000000)">
                <g id="流程圖" transform="translate(40.000000, 75.000000)">
                    <g id="icon" transform="translate(20.000000, 20.000000)">
                        <g id="通路管理-copy-2" transform="translate(270.000000, 0.000000)">
                            <g id="管理員設定" transform="translate(20.000000, 0.000000)">
                                <path d="M23.1677531,13.6223883 L23.1677531,26.2410891 L6.83224687,26.2410891 L6.83224687,13.6223883 L23.1677531,13.6223883 Z M15,3.6 L27.6,9.35588672 L27.6,26.2410891 L24.6443648,26.2410891 L24.6443648,12.1457273 L5.35563516,12.1457273 L5.35563516,26.2410891 L2.4,26.2410891 L2.4,9.35588672 L15,3.6 Z M15.7879394,15.6 L14.2119883,15.6 L14.2119883,16.612489 C13.8542908,16.688978 13.5149191,16.8164475 13.2015,16.9869697 L12.5599145,16.2106278 L11.3526492,17.2392294 L11.9947408,18.0162319 C11.7738908,18.3017445 11.5917528,18.6194824 11.4559896,18.9611139 L10.4736227,18.7851965 L10.2,20.3611499 L11.1824031,20.5370674 C11.1945119,20.9114013 11.2591403,21.272412 11.3689509,21.6129424 L10.505214,22.1192603 L11.2932257,23.5051289 L12.1586614,22.99782 C12.3986325,23.2690185 12.6756529,23.5057161 12.9815537,23.6997649 L12.639941,24.6526849 L14.1209012,25.2 L14.462044,24.2482912 C14.6378566,24.2735429 14.8173921,24.2869395 14.9999639,24.2869395 C15.1825356,24.2869395 15.3621073,24.2736163 15.5379198,24.2482912 L15.8790265,25.2 L17.3599145,24.6526115 L17.0183018,23.6996548 C17.3241664,23.505606 17.6011868,23.2689451 17.8412302,22.9976365 L18.7066297,23.5050922 L19.4946053,22.1191869 L18.6309407,21.6128323 C18.7407512,21.272412 18.8053435,20.9113278 18.8174523,20.5370307 L19.8,20.3611132 L19.5262327,18.7851598 L18.5438658,18.9610772 C18.4081027,18.619409 18.2259646,18.3017078 18.0050785,18.0161952 L18.6472424,17.2391927 L17.4399771,16.2106278 L16.7983554,16.9869697 C16.4849724,16.8164475 16.1456008,16.688978 15.7879394,16.612489 L15.7879394,15.6 Z M14.9998916,18.36447 C16.1096358,18.36447 17.0124823,19.2812742 17.0124823,20.408093 C17.0124823,21.5349852 16.109672,22.4517161 14.9998916,22.4517161 C13.8901473,22.4517161 12.9873008,21.5349852 12.9873008,20.408093 C12.9873008,19.2812742 13.8901473,18.36447 14.9998916,18.36447 Z" id="Combined-Shape"></path>
                            </g>
                        </g>
                    </g>
                </g>
            </g>
        </g>
    </g>
</svg>