<?xml version="1.0" encoding="UTF-8"?>
<svg width="20px" height="28px" viewBox="0 0 20 28" version="1.1" xmlns="http://www.w3.org/2000/svg" xmlns:xlink="http://www.w3.org/1999/xlink">
    <title>管理員帳號</title>
    <g id="XXXGuideline" stroke="none" stroke-width="1" fill="none" fill-rule="evenodd">
        <g id="Guideline_圖標" transform="translate(-235.000000, -1016.000000)" fill="#7F7F7F">
            <g id="02" transform="translate(70.000000, 915.000000)">
                <g id="登入-Icon" transform="translate(40.000000, 80.000000)">
                    <g id="icon" transform="translate(10.000000, 20.000000)">
                        <g id="SKU管理" transform="translate(90.000000, 0.000000)">
                            <g id="管理員帳號" transform="translate(20.000000, 0.000000)">
                                <path d="M24.0058594,23.2617187 C23.5136719,22.0986328 22.8076172,21.0527344 21.9111328,20.15625 C21.0146484,19.2597656 19.96875,18.5537109 18.8056641,18.0615234 C18.4101562,17.8945312 18.0029297,17.7539062 17.5927734,17.6396484 C18.7529297,17.2470703 19.8164062,16.5908203 20.7070312,15.7001953 C22.2304687,14.1767578 23.0712891,12.1494141 23.0712891,9.99609375 C23.0712891,7.84277344 22.2333984,5.81542969 20.7070312,4.29199219 C19.1835937,2.76855469 17.15625,1.92773437 15.0029297,1.92773437 C12.8496094,1.92773437 10.8222656,2.765625 9.29882812,4.29199219 C7.77539062,5.81542969 6.93457031,7.84277344 6.93457031,9.99609375 C6.93457031,12.1494141 7.77246094,14.1767578 9.29882812,15.7001953 C10.1894531,16.5908203 11.2529297,17.2470703 12.4130859,17.6396484 C12.0029297,17.7539062 11.5957031,17.8916016 11.2001953,18.0615234 C10.0371094,18.5537109 8.99121094,19.2597656 8.09472656,20.15625 C7.19824219,21.0527344 6.4921875,22.0986328 6,23.2617187 C5.49023437,24.46875 5.23242187,25.7460937 5.23242187,27.0673828 C5.23242187,27.6503906 5.70410156,28.1220703 6.28710937,28.1220703 C6.87011719,28.1220703 7.34179687,27.6503906 7.34179687,27.0673828 C7.34179687,25.0195312 8.13867187,23.0947266 9.5859375,21.6474609 C11.0332031,20.2001953 12.9580078,19.4033203 15.0058594,19.4033203 C17.0537109,19.4033203 18.9785156,20.2001953 20.4257812,21.6474609 C21.8730469,23.0947266 22.6699219,25.0195312 22.6699219,27.0673828 C22.6699219,27.6503906 23.1416016,28.1220703 23.7246094,28.1220703 C24.3076172,28.1220703 24.7792969,27.6503906 24.7792969,27.0673828 C24.7734375,25.7460937 24.515625,24.46875 24.0058594,23.2617187 Z M9.04101562,9.99609375 C9.04101562,6.70898437 11.7158203,4.03710937 15,4.03710937 C18.2841797,4.03710937 20.9589844,6.70898437 20.9589844,9.99609375 C20.9589844,13.2832031 18.2871094,15.9550781 15,15.9550781 C11.7128906,15.9550781 9.04101562,13.2802734 9.04101562,9.99609375 Z" id="Shape"></path>
                            </g>
                        </g>
                    </g>
                </g>
            </g>
        </g>
    </g>
</svg>