<?xml version="1.0" encoding="UTF-8"?>
<svg width="18px" height="26px" viewBox="0 0 18 26" version="1.1" xmlns="http://www.w3.org/2000/svg" xmlns:xlink="http://www.w3.org/1999/xlink">
    <title>篩選</title>
    <g id="XXXGuideline" stroke="none" stroke-width="1" fill="none" fill-rule="evenodd">
        <g id="Guideline_圖標" transform="translate(-596.000000, -1337.000000)" fill="#7F7F7F">
            <g id="02" transform="translate(70.000000, 915.000000)">
                <g id="網站通用-Icon" transform="translate(40.000000, 400.000000)">
                    <g id="icon" transform="translate(10.000000, 20.000000)">
                        <g id="通路管理-copy-5" transform="translate(450.000000, 0.000000)">
                            <g id="篩選" transform="translate(20.000000, 0.000000)">
                                <path d="M22.5236472,16.8824389 C23.2067691,16.8824389 23.5678744,17.689555 23.1137007,18.1991168 L23.1137007,18.1991168 L15.6105285,27.2949813 C15.2959574,27.6464674 14.7449927,27.6464674 14.4304216,27.2949813 L14.4304216,27.2949813 L6.89002202,18.1991168 C6.433987,17.689555 6.79695365,16.8824389 7.47821414,16.8824389 L7.47821414,16.8824389 Z M15.6105285,2.70501868 L23.1137007,11.8008832 C23.5678744,12.310445 23.2067691,13.1175611 22.5236472,13.1175611 L7.47821414,13.1175611 C6.79695365,13.1175611 6.433987,12.310445 6.89002202,11.8008832 L14.4304216,2.70501868 C14.7449927,2.35353261 15.2959574,2.35353261 15.6105285,2.70501868 Z" id="Combined-Shape"></path>
                            </g>
                        </g>
                    </g>
                </g>
            </g>
        </g>
    </g>
</svg>