<?xml version="1.0" encoding="UTF-8"?>
<svg width="28px" height="30px" viewBox="0 0 28 30" version="1.1" xmlns="http://www.w3.org/2000/svg" xmlns:xlink="http://www.w3.org/1999/xlink">
    <title>系統記錄</title>
    <g id="XXXGuideline" stroke="none" stroke-width="1" fill="none" fill-rule="evenodd">
        <g id="Guideline_圖標" transform="translate(-142.000000, -1865.000000)" fill="#7F7F7F">
            <g id="03" transform="translate(70.000000, 1675.000000)">
                <g id="動作-Icon" transform="translate(40.000000, 80.000000)">
                    <g id="icon" transform="translate(10.000000, 20.000000)">
                        <g id="訂單管理-copy-3" transform="translate(0.000000, 90.000000)">
                            <g id="系統記錄" transform="translate(20.000000, 0.000000)">
                                <path d="M21.3476604,15 C24.8535672,15 27.6953207,17.821131 27.6953207,21.3015957 C27.6953207,22.6555492 27.2652703,23.9097238 26.5333662,24.9368531 L29.6626875,28.0433851 C30.1101278,28.4875784 30.1127601,29.2103902 29.6685668,29.6578305 L29.6626875,29.6637098 C29.2110182,30.1121014 28.4821877,30.1121014 28.0305183,29.6637098 L24.8816749,26.5371279 C23.871563,27.2103998 22.6558473,27.6031913 21.3476604,27.6031913 C17.8417535,27.6031913 15,24.7820603 15,21.3015957 C15,17.821131 17.8417535,15 21.3476604,15 Z M24.6354167,0.807291667 C25.2115885,0.807291667 25.6770833,1.27278646 25.6770833,1.84895833 L25.6770833,1.84895833 L25.6770833,12.8489583 C25.6770833,12.9921875 25.5598958,13.109375 25.4166667,13.109375 L25.4166667,13.109375 L23.59375,13.109375 C23.4505208,13.109375 23.3333333,12.9921875 23.3333333,12.8489583 L23.3333333,12.8489583 L23.3333333,3.15104167 L5.10416667,3.15104167 L5.10416667,26.0677083 L14.15625,26.0677083 C14.2994792,26.0677083 14.4166667,26.1848958 14.4166667,26.328125 L14.4166667,26.328125 L14.4166667,28.1510417 C14.4166667,28.2942708 14.2994792,28.4114583 14.15625,28.4114583 L14.15625,28.4114583 L3.80208333,28.4114583 C3.22591146,28.4114583 2.76041667,27.9459635 2.76041667,27.3697917 L2.76041667,27.3697917 L2.76041667,1.84895833 C2.76041667,1.27278646 3.22591146,0.807291667 3.80208333,0.807291667 L3.80208333,0.807291667 Z M21.3476604,17.2914893 C20.26871,17.2914893 19.2535399,17.7083293 18.4908336,18.4655007 C17.7281272,19.2226721 17.3082401,20.2304752 17.3082401,21.3015957 C17.3082401,22.3727162 17.7281272,23.3805192 18.4908336,24.1376906 C19.2535399,24.894862 20.26871,25.311702 21.3476604,25.311702 C22.4266108,25.311702 23.4417809,24.894862 24.2044872,24.1376906 C24.9671935,23.3805192 25.3870806,22.3727162 25.3870806,21.3015957 C25.3870806,20.2304752 24.9671935,19.2226721 24.2044872,18.4655007 C23.4417809,17.7083293 22.4266108,17.2914893 21.3476604,17.2914893 Z M13.9583333,11.3541667 C14.1015625,11.3541667 14.21875,11.4713542 14.21875,11.6145833 L14.21875,11.6145833 L14.21875,13.1770833 C14.21875,13.3203125 14.1015625,13.4375 13.9583333,13.4375 L13.9583333,13.4375 L7.96875,13.4375 C7.82552083,13.4375 7.70833333,13.3203125 7.70833333,13.1770833 L7.70833333,13.1770833 L7.70833333,11.6145833 C7.70833333,11.4713542 7.82552083,11.3541667 7.96875,11.3541667 L7.96875,11.3541667 Z M20.46875,6.66666667 C20.6119792,6.66666667 20.7291667,6.78385417 20.7291667,6.92708333 L20.7291667,6.92708333 L20.7291667,8.48958333 C20.7291667,8.6328125 20.6119792,8.75 20.46875,8.75 L20.46875,8.75 L7.96875,8.75 C7.82552083,8.75 7.70833333,8.6328125 7.70833333,8.48958333 L7.70833333,8.48958333 L7.70833333,6.92708333 C7.70833333,6.78385417 7.82552083,6.66666667 7.96875,6.66666667 L7.96875,6.66666667 Z" id="Combined-Shape"></path>
                            </g>
                        </g>
                    </g>
                </g>
            </g>
        </g>
    </g>
</svg>