<?xml version="1.0" encoding="UTF-8"?>
<svg width="28px" height="26px" viewBox="0 0 28 26" version="1.1" xmlns="http://www.w3.org/2000/svg" xmlns:xlink="http://www.w3.org/1999/xlink">
    <title>系統管理</title>
    <g id="XXXGuideline" stroke="none" stroke-width="1" fill="none" fill-rule="evenodd">
        <g id="Guideline_圖標" transform="translate(-951.000000, -507.000000)" fill="#7F7F7F">
            <g id="01" transform="translate(70.000000, 405.000000)">
                <g id="側選單-Icon" transform="translate(40.000000, 80.000000)">
                    <g id="icon" transform="translate(10.000000, 20.000000)">
                        <g id="系統管理" transform="translate(810.000000, 0.000000)">
                            <g id="系統管理" transform="translate(20.000000, 0.000000)">
                                <path d="M20.1595849,15.3890103 L20.3352327,16.6460154 C20.8008766,16.6780206 21.2519531,16.776671 21.6776331,16.9333548 L21.6776331,16.9333548 L22.3543122,15.8568766 L24.0590306,16.9217866 L23.3819647,17.9991645 C23.7107645,18.3147172 23.996313,18.6771851 24.2273302,19.0775064 L24.2273302,19.0775064 L25.4388166,18.6867609 L26.0583215,20.5949871 L24.8465773,20.9859897 C24.8958876,21.4529563 24.8768725,21.9125964 24.7973314,22.3544344 L24.7973314,22.3544344 L25.9771046,22.8314267 L25.2212067,24.6902956 L24.0391775,24.2124036 C23.7825706,24.5911954 23.4737527,24.9338689 23.1205234,25.228599 L23.1205234,25.228599 L23.7177904,26.3514139 L21.940428,27.2911954 L21.3438056,26.1696658 C21.1261312,26.2316838 20.901302,26.2800129 20.6704138,26.312018 C20.4396545,26.3440231 20.2104422,26.359383 19.9838082,26.3587404 L19.9838082,26.3587404 L19.7174036,27.6 L17.7500193,27.1809769 L18.0167462,25.9377892 C17.5964806,25.7504499 17.2050277,25.5053342 16.8545056,25.2108612 L16.8545056,25.2108612 L15.8483821,25.9926093 L14.6117571,24.4106684 L15.6158824,23.6302699 C15.4178677,23.226671 15.273482,22.7901028 15.1931675,22.3275064 L15.1931675,22.3275064 L13.920575,22.281491 L13.9933479,20.2771208 L15.2660049,20.3230077 C15.378355,19.8748072 15.5533583,19.4484576 15.7829573,19.0552699 L15.7829573,19.0552699 L14.8364574,18.2031491 L16.1844012,16.7142031 L17.1301276,17.5653599 C17.4966998,17.2987147 17.9038159,17.0805913 18.3427098,16.9229434 L18.3427098,16.9229434 L18.167062,15.6659383 L20.1595849,15.3890103 Z M22.5424004,21.1431234 C22.3465128,19.7439589 21.0462034,18.7643316 19.6430837,18.9594473 C18.239835,19.1541774 17.2572386,20.4510925 17.4529973,21.8501285 C17.6483692,23.2491003 18.9490009,24.2285347 20.352314,24.0337404 C21.7553693,23.8385604 22.7376434,22.5420308 22.5424004,21.1431234 Z M11.1648704,2.4 L11.1648704,4.17287918 C11.8026814,4.30681234 12.4078768,4.53001285 12.9667268,4.82859897 L12.9667268,4.82859897 L14.1109192,3.46921594 L16.2638133,5.27024422 L15.1186541,6.63078406 C15.5125564,7.13071979 15.8373598,7.68701799 16.0794637,8.28528278 L16.0794637,8.28528278 L17.8313008,7.97724936 L18.319505,10.7367609 L16.5673456,11.0447943 C16.5457522,11.7001928 16.4305659,12.332455 16.2347428,12.9285347 L16.2347428,12.9285347 L17.7749001,13.8151671 L16.3697177,16.2419023 L14.8264664,15.3533419 C14.3984014,15.8284062 13.904396,16.2428021 13.3589532,16.5825835 L13.3589532,16.5825835 L13.9681449,18.2512211 L11.3273044,19.2097044 L10.7190151,17.5432519 C10.4054918,17.5875964 10.0852649,17.6109254 9.75968802,17.6109254 C9.43411113,17.6109254 9.11394869,17.5874679 8.80042542,17.5432519 L8.80042542,17.5432519 L8.19207168,19.2097044 L5.55110223,18.2513496 L6.16029393,16.5827763 C5.61478664,16.2429949 5.12078123,15.8285347 4.69284517,15.3536632 L4.69284517,15.3536632 L3.14952946,16.2419666 L1.74428258,13.8152956 L3.28456878,12.9287275 C3.08874565,12.332455 2.97349491,11.7003213 2.95190151,11.0448586 L2.95190151,11.0448586 L1.2,10.7368252 L1.68794637,7.97731362 L3.43978342,8.28534704 C3.68188733,7.68714653 4.00669073,7.13078406 4.40052855,6.63084833 L4.40052855,6.63084833 L3.25549826,5.27030848 L5.40839242,3.46921594 L6.5525203,4.82859897 C7.11143483,4.53001285 7.71663014,4.30681234 8.35450561,4.17287918 L8.35450561,4.17287918 L8.35450561,2.4 L11.1648704,2.4 Z M23.5966095,5.98367609 L25.1515277,6.30475578 L24.9475828,7.28746787 C25.2779296,7.4309126 25.5891324,7.62095116 25.8704912,7.85404884 L25.8704912,7.85404884 L26.6593271,7.23284062 L27.6436638,8.47512853 L26.854699,9.09659383 C27.0198401,9.42872751 27.1323837,9.77416452 27.195359,10.1230077 L27.195359,10.1230077 L28.2,10.1527635 L28.1528168,11.7356041 L27.1466289,11.7057841 C27.0610287,12.0563625 26.9269563,12.3946658 26.7467964,12.7095758 L26.7467964,12.7095758 L27.4981178,13.3768638 L26.4418461,14.5592545 L25.6910404,13.8927378 C25.5471703,13.998329 25.3940828,14.0956941 25.2319067,14.1825835 C25.0698595,14.2696015 24.9043316,14.3436375 24.7366121,14.4051414 L24.7366121,14.4051414 L24.8813846,15.3970437 L23.3097074,15.6258997 L23.1645482,14.6327763 C22.8019724,14.6094473 22.4446822,14.5352185 22.1040222,14.4133676 L22.1040222,14.4133676 L21.5748872,15.2676093 L20.2236561,14.4356041 L20.7516308,13.5829049 C20.4937991,13.3383676 20.2665206,13.0549486 20.0795926,12.7345116 L20.0795926,12.7345116 L19.1250355,13.0491645 L18.6266469,11.5456298 L19.5812041,11.2308483 C19.540789,10.8683162 19.5527781,10.5052057 19.6143354,10.1512211 L19.6143354,10.1512211 L18.6791801,9.77982005 L19.2664561,8.30854756 L20.200838,8.67937018 C20.3986593,8.3816838 20.6399897,8.10867609 20.9212195,7.87178663 L20.9212195,7.87178663 L20.4448111,6.98946015 L21.8432255,6.23856041 L22.3196339,7.12075835 C22.6731855,7.01696658 23.0339564,6.96625964 23.3922779,6.9657455 L23.3922779,6.9657455 L23.5966095,5.98367609 Z M9.75955911,7.24061697 C7.78057239,7.24061697 6.17054274,8.84595116 6.17054274,10.8190231 C6.17054274,12.7922237 7.78057239,14.3974293 9.75955911,14.3974293 C11.7386103,14.3974293 13.3485755,12.7922237 13.3485755,10.8190231 C13.3485755,8.84595116 11.7385458,7.24061697 9.75955911,7.24061697 Z M25.1925873,9.84447301 C24.6620987,8.86266067 23.4295346,8.49383033 22.445069,9.02268638 C21.4600877,9.55115681 21.0903571,10.7803985 21.6208457,11.7622108 C22.1508831,12.7438946 23.3835117,13.1124679 24.368493,12.5837404 C25.3530875,12.0549486 25.7225603,10.8263496 25.1925873,9.84447301 Z" id="Combined-Shape"></path>
                            </g>
                        </g>
                    </g>
                </g>
            </g>
        </g>
    </g>
</svg>