<?xml version="1.0" encoding="UTF-8"?>
<svg width="22px" height="26px" viewBox="0 0 22 26" version="1.1" xmlns="http://www.w3.org/2000/svg" xmlns:xlink="http://www.w3.org/1999/xlink">
    <title>組合SKU</title>
    <g id="XXXGuideline" stroke="none" stroke-width="1" fill="none" fill-rule="evenodd">
        <g id="Guideline_圖標" transform="translate(-244.000000, -2342.000000)" fill="#7F7F7F">
            <g id="04" transform="translate(70.000000, 2155.000000)">
                <g id="流程圖" transform="translate(40.000000, 75.000000)">
                    <g id="icon" transform="translate(20.000000, 20.000000)">
                        <g id="SKU管理-Copy-6" transform="translate(90.000000, 90.000000)">
                            <g id="組合SKU" transform="translate(20.000000, 0.000000)">
                                <path d="M12.7731422,16.3065609 L12.7731422,19.6860187 L17.2030266,19.6860187 L17.2030266,16.3065609 L25.1300508,16.3065609 L25.1300508,27.599557 L4.84606875,27.599557 L4.84606875,16.3065609 L12.7731422,16.3065609 Z M22.4229211,23.2681102 L19.4695992,23.2681102 L19.4695992,24.7446727 L22.4229211,24.7446727 L22.4229211,23.2681102 Z M22.4229211,20.61015 L19.4695992,20.61015 L19.4695992,22.0867125 L22.4229211,22.0867125 L22.4229211,20.61015 Z M15.7264641,16.3065609 L15.7264641,18.2094562 L14.2497047,18.2094562 L14.2497047,16.3065609 L15.7264641,16.3065609 Z M12.7731422,2.4 L12.7731422,6.46832344 L17.2030266,6.46832344 L17.2030266,2.4 L21.9413648,2.4 L21.9413648,14.8299984 L8.03480391,14.8299984 L8.03480391,2.4 L12.7731422,2.4 Z M17.8919906,8.92950703 L12.0841781,8.92950703 L12.0841781,10.4060695 L17.8919906,10.4060695 L17.8919906,8.92950703 Z M15.7264641,2.4 L15.7264641,4.99176094 L14.2497047,4.99176094 L14.2497047,2.4 L15.7264641,2.4 Z" id="Combined-Shape"></path>
                            </g>
                        </g>
                    </g>
                </g>
            </g>
        </g>
    </g>
</svg>