<?xml version="1.0" encoding="UTF-8"?>
<svg width="28px" height="28px" viewBox="0 0 28 28" version="1.1" xmlns="http://www.w3.org/2000/svg" xmlns:xlink="http://www.w3.org/1999/xlink">
    <title>編輯</title>
    <g id="XXXGuideline" stroke="none" stroke-width="1" fill="none" fill-rule="evenodd">
        <g id="Guideline_圖標" transform="translate(-231.000000, -1776.000000)" fill="#7F7F7F">
            <g id="03" transform="translate(70.000000, 1675.000000)">
                <g id="動作-Icon" transform="translate(40.000000, 80.000000)">
                    <g id="icon" transform="translate(10.000000, 20.000000)">
                        <g id="通路管理-copy-2" transform="translate(90.000000, 0.000000)">
                            <g id="編輯" transform="translate(20.000000, 0.000000)">
                                <path d="M19.6503647,2.27644447 C20.6887222,1.23808696 22.3730863,1.23894094 23.4124972,2.27835188 L23.4124972,2.27835188 L27.7142572,6.58011184 C28.7536681,7.61952278 28.7545221,9.3038869 27.7161646,10.3422444 L27.7161646,10.3422444 L10.9000915,27.1583175 C10.4767382,27.5816708 9.92274786,27.849606 9.3278061,27.918747 L9.3278061,27.918747 L4.47558991,28.4826461 C3.01637803,28.652228 1.6947802,27.6066364 1.52371852,26.1472518 C1.49998405,25.9447651 1.49959958,25.7402448 1.5225727,25.5377176 L1.5225727,25.5377176 L2.0746829,20.6704046 C2.14247218,20.0727854 2.41082221,19.5159869 2.83594556,19.0908636 L2.83594556,19.0908636 Z M17.023,8.13 L4.44910555,20.7040235 C4.38837364,20.7647555 4.35003792,20.8442981 4.34035374,20.9296723 L4.34035374,20.9296723 L3.78824354,25.7969853 C3.78496167,25.8259177 3.78501659,25.8551349 3.78840723,25.8840616 C3.81284461,26.0925451 4.0016443,26.2419153 4.21010314,26.2176894 L4.21010314,26.2176894 L9.06231933,25.6537903 C9.14731101,25.643913 9.22645248,25.6056365 9.28693153,25.5451575 L9.28693153,25.5451575 L21.865,12.967 L17.023,8.13 Z M21.8009722,3.88987694 C21.6524849,3.74138966 21.4118614,3.74126767 21.2635246,3.88960445 L21.2635246,3.88960445 L18.6355731,6.51794654 L23.477,11.355 L26.1030046,8.72908442 C26.2327993,8.59928973 26.2489302,8.39883807 26.15146,8.25127832 L26.1027321,8.19163691 Z" id="Combined-Shape"></path>
                            </g>
                        </g>
                    </g>
                </g>
            </g>
        </g>
    </g>
</svg>