<?xml version="1.0" encoding="UTF-8"?>
<svg width="28px" height="24px" viewBox="0 0 28 24" version="1.1" xmlns="http://www.w3.org/2000/svg" xmlns:xlink="http://www.w3.org/1999/xlink">
    <title>群組設定</title>
    <g id="XXXGuideline" stroke="none" stroke-width="1" fill="none" fill-rule="evenodd">
        <g id="Guideline_圖標" transform="translate(-241.000000, -2253.000000)" fill="#7F7F7F">
            <g id="04" transform="translate(70.000000, 2155.000000)">
                <g id="流程圖" transform="translate(40.000000, 75.000000)">
                    <g id="icon" transform="translate(20.000000, 20.000000)">
                        <g id="SKU管理" transform="translate(90.000000, 0.000000)">
                            <g id="群組設定" transform="translate(20.000000, 0.000000)">
                                <path d="M6.80664062,15 C7.7046875,15.46875 8.69296875,15.75 9.75,15.75 C10.8070312,15.75 11.7996094,15.46875 12.6933594,15 L12.6933594,15 L13.05,15 C15.7828125,15 18,17.41875 18,20.4 L18,20.4 L18,24.25 C18,25.3545695 17.1045695,26.25 16,26.25 L16,26.25 L3.5,26.25 C2.3954305,26.25 1.5,25.3545695 1.5,24.25 L1.5,24.25 L1.5,20.4 C1.5,17.41875 3.7171875,15 6.45,15 L6.45,15 Z M19.0766086,15.75007 C19.8605267,16.2148816 20.774276,16.4813726 21.75,16.4813726 C22.7019868,16.4813726 23.5949777,16.2276901 24.3650281,15.7842696 C26.6325501,16.1513254 28.393727,18.4380392 28.4953641,21.2493889 L28.5,21.5063726 L28.5,22.7313726 C28.5,23.7857344 27.6841222,24.6495378 26.6492623,24.7258869 L26.5,24.7313726 L19.5001373,24.7313726 L19.500478,24.7167855 L19.500478,24.7167855 L19.5013224,24.6062598 L19.5013224,22.3254265 L19.5013224,22.3254265 L19.500478,21.5806398 L19.5001373,21.3101228 C19.5001373,19.3198103 18.9335607,17.3438785 17.6123615,16.3104771 C18.1513855,15.9353838 18.5354708,15.7951759 19.0766086,15.75007 Z M21.75,7.5 C23.8203125,7.5 25.5,9.1796875 25.5,11.25 C25.5,13.3203125 23.8203125,15 21.75,15 C19.6796875,15 18,13.3203125 18,11.25 C18,9.1796875 19.6796875,7.5 21.75,7.5 Z M9.75,3.75 C12.6515625,3.75 15,6.0984375 15,9 C15,11.9015625 12.6515625,14.25 9.75,14.25 C6.8484375,14.25 4.5,11.9015625 4.5,9 C4.5,6.0984375 6.8484375,3.75 9.75,3.75 Z" id="Combined-Shape"></path>
                            </g>
                        </g>
                    </g>
                </g>
            </g>
        </g>
    </g>
</svg>