<?xml version="1.0" encoding="UTF-8"?>
<svg width="24px" height="22px" viewBox="0 0 24 22" version="1.1" xmlns="http://www.w3.org/2000/svg" xmlns:xlink="http://www.w3.org/1999/xlink">
    <title>補貨單</title>
    <g id="XXXGuideline" stroke="none" stroke-width="1" fill="none" fill-rule="evenodd">
        <g id="Guideline_圖標" transform="translate(-423.000000, -2794.000000)" fill="#7F7F7F">
            <g id="04" transform="translate(70.000000, 2155.000000)">
                <g id="流程圖" transform="translate(40.000000, 75.000000)">
                    <g id="icon" transform="translate(20.000000, 20.000000)">
                        <g id="通路管理-copy-41" transform="translate(270.000000, 540.000000)">
                            <g id="補貨單" transform="translate(20.000000, 0.000000)">
                                <path d="M10.2000001,7.5 L10.2000001,25.5 L3.00000006,25.5 L3.00000006,7.5 L10.2000001,7.5 Z M17.0756719,14.107435 L17.0756719,17.5232144 L19.3666875,16.9096882 L21.6577031,17.5231671 L21.6577031,14.107435 L27,14.107435 L27,25.5 L11.733375,25.5 L11.733375,14.107435 L17.0756719,14.107435 Z M25.3179844,22.2974114 L22.1488125,22.2974114 L22.1488125,23.7155318 L25.3179844,23.7155318 L25.3179844,22.2974114 Z M7.20000006,21.9 L4.80000006,21.9 L4.80000006,23.1 L7.20000006,23.1 L7.20000006,21.9 Z M8.40000006,19.5 L4.80000006,19.5 L4.80000006,20.7 L8.40000006,20.7 L8.40000006,19.5 Z M25.3179844,19.0948227 L20.5609219,19.0948227 L20.5609219,20.5129432 L25.3179844,20.5129432 L25.3179844,19.0948227 Z M20.2514531,10.9052245 L20.2514531,15.6793742 L19.3666875,15.4424063 L18.4819219,15.6793742 L18.4819219,10.9052245 L20.2514531,10.9052245 Z M17.0756719,10.9052245 L17.0756719,12.6894091 L11.733375,12.6894091 L11.733375,10.9052245 L17.0756719,10.9052245 Z M27,10.9052245 L27,12.6894091 L21.6577031,12.6894091 L21.6577031,10.9052245 L27,10.9052245 Z M15.0907969,4.5 L15.0907969,9.48710411 L11.733375,9.48710411 L11.733375,4.5 L15.0907969,4.5 Z M23.8242187,7.70230501 L23.8242187,9.48705684 L16.4970937,9.48705684 L16.4970937,7.70230501 L23.8242187,7.70230501 Z M10.2,4.5 L10.2,6.3 L3,6.3 L3,4.5 L10.2,4.5 Z M23.8242187,4.5 L23.8242187,6.28418458 L16.4970937,6.28418458 L16.4970937,4.5 L23.8242187,4.5 Z" id="Combined-Shape"></path>
                            </g>
                        </g>
                    </g>
                </g>
            </g>
        </g>
    </g>
</svg>