<?xml version="1.0" encoding="UTF-8"?>
<svg width="24px" height="24px" viewBox="0 0 24 24" version="1.1" xmlns="http://www.w3.org/2000/svg" xmlns:xlink="http://www.w3.org/1999/xlink">
    <title>複製連結</title>
    <g id="XXXGuideline" stroke="none" stroke-width="1" fill="none" fill-rule="evenodd">
        <g id="Guideline_圖標" transform="translate(-773.000000, -1778.000000)" fill="#7F7F7F">
            <g id="03" transform="translate(70.000000, 1675.000000)">
                <g id="動作-Icon" transform="translate(40.000000, 80.000000)">
                    <g id="icon" transform="translate(10.000000, 20.000000)">
                        <g id="通路管理-copy-5" transform="translate(630.000000, 0.000000)">
                            <g id="複製連結" transform="translate(20.000000, 0.000000)">
                                <path d="M9.56602409,12.6344809 C10.0980055,13.1282179 10.1290088,13.959727 9.63527179,14.4917084 L9.60319549,14.5250713 L9.60319549,14.5250713 L6.94707696,17.1920982 C5.34123851,18.7980644 5.29084877,21.4035095 6.94723203,23.0600247 C8.53927837,24.6548782 11.01671,24.6671817 12.6319349,23.2318959 L12.8143812,23.0598695 L15.4070963,20.4669481 C15.9427029,19.9312988 16.8060221,19.9151412 17.3612966,20.430374 C17.8915851,20.9224225 17.9225848,21.7511904 17.4305363,22.2814789 C17.4200415,22.2927893 17.4093476,22.3039134 17.3984598,22.314846 L14.7394015,24.9848249 C12.0554368,27.6721798 7.70528015,27.6711975 5.01616087,24.9850431 C2.40477017,22.3765315 2.33015901,18.1964661 4.79222735,15.4953383 L5.01605175,15.2609192 L7.60571196,12.6710529 C8.14300597,12.1337161 9.00906162,12.1175588 9.56602409,12.6344809 Z M18.4633341,11.4696828 C18.9927012,11.9616322 19.0230342,12.7895727 18.5310848,13.3189398 C18.5205323,13.3302949 18.5097789,13.3414616 18.4988296,13.3524345 L13.4295049,18.4327328 C12.8946125,18.9687831 12.0314169,18.985388 11.4763044,18.4703056 C10.9466452,17.9788411 10.9156824,17.1510568 11.4071468,16.6213977 C11.4179813,16.6097213 11.429028,16.5982437 11.4402816,16.5869707 L16.5122433,11.5062532 C17.0467292,10.9708445 17.9091598,10.9546795 18.4633341,11.4696828 Z M24.9863637,5.01630772 C27.5945198,7.62775833 27.6690386,11.8076695 25.2098199,14.5088465 L24.9862546,14.7432706 L22.3965944,17.3331369 C21.8593004,17.8704737 20.9932447,17.886631 20.4362823,17.3697089 C19.9043008,16.8759719 19.8732976,16.0444628 20.3670346,15.5124814 C20.37753,15.501173 20.3882238,15.4900503 20.3991109,15.4791185 L23.0552294,12.8120916 C24.6610679,11.2061254 24.7114576,8.60068035 23.0550743,6.9441651 C21.463028,5.34931161 18.9855963,5.33700808 17.3703714,6.77229388 L17.1879251,6.94432032 L14.5997106,9.53274092 C14.1028493,10.0296417 13.3178288,10.0627984 12.7825118,9.63218945 L12.6717423,9.53274092 L12.6717423,9.53274092 C12.1750157,9.03597471 12.1419305,8.2511642 12.5724654,7.71602653 L12.6718191,7.60537166 C12.6719317,7.60525906 12.6720443,7.60514649 12.6721569,7.60503393 L15.2629048,5.01630772 C17.9479236,2.32789743 22.2981674,2.32789743 24.9863637,5.01630772 Z" id="Combined-Shape"></path>
                            </g>
                        </g>
                    </g>
                </g>
            </g>
        </g>
    </g>
</svg>