<?xml version="1.0" encoding="UTF-8"?>
<svg width="26px" height="30px" viewBox="0 0 26 30" version="1.1" xmlns="http://www.w3.org/2000/svg" xmlns:xlink="http://www.w3.org/1999/xlink">
    <title>複製</title>
    <g id="XXXGuideline" stroke="none" stroke-width="1" fill="none" fill-rule="evenodd">
        <g id="Guideline_圖標" transform="translate(-323.000000, -1775.000000)" fill="#7F7F7F">
            <g id="03" transform="translate(70.000000, 1676.000000)">
                <g id="動作-Icon" transform="translate(40.000000, 79.000000)">
                    <g id="icon" transform="translate(10.000000, 20.000000)">
                        <g id="通路管理" transform="translate(180.000000, 0.000000)">
                            <g id="Icon/shopping" transform="translate(20.000000, 0.000000)">
                                <path d="M22.5,27 C22.5,28.6568542 21.1568542,30 19.5,30 L6,30 C4.34314575,30 3,28.6568542 3,27 L3,9 C3,7.34314575 4.34314575,6 6,6 L9,6 L9,3 C9,1.34314575 10.3431458,0 12,0 L23.6785714,0 L27.5912352,3.80397865 C28.1722166,4.36882169 28.5,5.1446628 28.5,5.9549634 L28.5,21 C28.5,22.6568542 27.1568542,24 25.5,24 L22.5,24 L22.5,27 Z M18.749,2.24982617 L12,2.25 C11.6318102,2.25 11.3255874,2.51531274 11.2620835,2.86518655 L11.25,3 L11.25,21 C11.25,21.3681898 11.5153127,21.6744126 11.8651866,21.7379165 L12,21.75 L25.5,21.75 C25.8681898,21.75 26.1744126,21.4846873 26.2379165,21.1348134 L26.25,21 L26.25,9.74882617 L21.75,9.75 C20.1684573,9.75 18.8727523,8.52618331 18.7582286,6.97389352 L18.75,6.75 L18.749,2.24982617 Z M20.999,2.24982617 L21,6.75 C21,7.11818983 21.2653127,7.42441256 21.6151866,7.4879165 L21.75,7.5 L26.25,7.49982617 L26.25,5.9549634 C26.25,5.79290328 26.1975547,5.63635668 26.1022109,5.50792054 L26.0228088,5.41721721 L22.7655,2.25 L20.999,2.24982617 Z M12,24 C10.3431458,24 9,22.6568542 9,21 L9,8.25 L6,8.25 C5.63181017,8.25 5.32558744,8.51531274 5.2620835,8.86518655 L5.25,9 L5.25,27 C5.25,27.3681898 5.51531274,27.6744126 5.86518655,27.7379165 L6,27.75 L19.5,27.75 C19.8681898,27.75 20.1744126,27.4846873 20.2379165,27.1348134 L20.25,27 L20.25,24 L12,24 Z" id="Combined-Shape"></path>
                            </g>
                        </g>
                    </g>
                </g>
            </g>
        </g>
    </g>
</svg>