<?xml version="1.0" encoding="UTF-8"?>
<svg width="27px" height="28px" viewBox="0 0 27 28" version="1.1" xmlns="http://www.w3.org/2000/svg" xmlns:xlink="http://www.w3.org/1999/xlink">
    <title>訂單管理</title>
    <g id="XXXGuideline" stroke="none" stroke-width="1" fill="none" fill-rule="evenodd">
        <g id="Guideline_圖標" transform="translate(-141.000000, -506.000000)" fill="#7F7F7F">
            <g id="01" transform="translate(70.000000, 405.000000)">
                <g id="側選單-Icon" transform="translate(40.000000, 80.000000)">
                    <g id="icon" transform="translate(10.000000, 20.000000)">
                        <g id="訂單管理" transform="translate(20.000000, 0.000000)">
                            <path d="M20.082949,1.8 C19.086257,2.79062749 18.5031873,4.14857092 18.5031873,5.57749004 L18.5031873,5.57749004 L18.5077614,27.3430279 C18.5077614,27.7676486 18.1614657,28.1139442 17.736845,28.1139442 L17.736845,28.1139442 L2.57091633,28.1139442 C2.14521633,28.1139442 1.8,27.7687793 1.8,27.3430279 L1.8,27.3430279 L1.8,5.50039841 C1.8,3.4613247 3.4613247,1.8 5.50039841,1.8 L5.50039841,1.8 Z M4.88536135,22.4605578 C4.46079203,22.4605578 4.11444502,22.8068534 4.11444502,23.2314741 C4.11444502,23.6560948 4.46074064,24.0023904 4.88536135,24.0023904 C5.30998207,24.0023904 5.65632908,23.6560434 5.65627769,23.2314741 C5.65627769,22.8068534 5.30993068,22.4605578 4.88536135,22.4605578 Z M15.4212179,22.4605578 L7.96902669,22.4605578 C7.5432753,22.4605578 7.19811036,22.8057227 7.19811036,23.2314741 C7.19811036,23.6572255 7.5432753,24.0023904 7.96902669,24.0023904 L7.96902669,24.0023904 L15.4212179,24.0023904 C15.8469693,24.0023904 16.1921343,23.6572255 16.1921343,23.2314741 C16.1921343,22.8057227 15.8469693,22.4605578 15.4212179,22.4605578 L15.4212179,22.4605578 Z M4.88536135,19.3768924 C4.46079203,19.3768924 4.11444502,19.7232394 4.11444502,20.1478088 C4.11444502,20.5723781 4.46074064,20.9187251 4.88536135,20.9187251 C5.30998207,20.9187251 5.65627769,20.5724295 5.65627769,20.1478088 C5.65627769,19.723188 5.30993068,19.3768924 4.88536135,19.3768924 Z M15.4212179,19.3768924 L7.96902669,19.3768924 C7.5432753,19.3768924 7.19811036,19.7220574 7.19811036,20.1478088 C7.19811036,20.5735602 7.5432753,20.9187251 7.96902669,20.9187251 L7.96902669,20.9187251 L15.4212179,20.9187251 C15.8469693,20.9187251 16.1921343,20.5735602 16.1921343,20.1478088 C16.1921343,19.7220574 15.8469693,19.3768924 15.4212179,19.3768924 L15.4212179,19.3768924 Z M4.88536135,16.2932271 C4.46079203,16.2932271 4.11444502,16.6395741 4.11444502,17.0641434 C4.11444502,17.4887127 4.46074064,17.8350598 4.88536135,17.8350598 C5.30998207,17.8350598 5.65627769,17.4887641 5.65627769,17.0641434 C5.65627769,16.6395227 5.30993068,16.2932271 4.88536135,16.2932271 Z M15.4212179,16.2932271 L7.96902669,16.2932271 C7.5432753,16.2932271 7.19811036,16.638392 7.19811036,17.0641434 C7.19811036,17.4898948 7.5432753,17.8350598 7.96902669,17.8350598 L7.96902669,17.8350598 L15.4212179,17.8350598 C15.8469693,17.8350598 16.1921343,17.4898948 16.1921343,17.0641434 C16.1921343,16.638392 15.8469693,16.2932271 15.4212179,16.2932271 L15.4212179,16.2932271 Z M23.82251,1.8 C24.8621163,1.8 25.806643,2.2247749 26.4909084,2.90904024 C27.1752251,3.59335697 27.6,4.53793506 27.6,5.57749004 L27.6,5.57749004 L27.6,15.2652359 C27.6,15.6909873 27.2548351,16.0361522 26.8290837,16.0361522 L26.8290837,16.0361522 L20.8159363,16.0361522 C20.3901849,16.0361522 20.0450199,15.6909873 20.0450199,15.2652359 L20.0450199,15.2652359 L20.0450199,5.57749004 C20.0450199,4.53788367 20.4697434,3.59330558 21.1540602,2.90904024 C21.8383255,2.22472351 22.7829036,1.8 23.82251,1.8 Z M15.0751279,5.37360837 C14.7741108,5.07259124 14.2860179,5.07259124 13.9850008,5.37360837 L13.9850008,5.37360837 L13.0170382,6.34151952 C11.4589649,5.00665219 9.13583426,5.09751753 7.6851753,6.54817649 C6.15105179,8.0823 6.15105179,10.5692761 7.6851753,12.1033996 C9.2192988,13.6375231 11.7062235,13.6375231 13.240347,12.1033996 C14.4318753,10.9118199 14.737261,9.08156175 13.9746191,7.56424422 L13.9746191,7.56424422 L15.0751279,6.46373546 C15.376145,6.16271833 15.376145,5.6746255 15.0751279,5.37360837 Z M8.77530239,7.63830359 C9.62361873,6.78993586 10.9719,6.70251394 11.9215147,7.43699163 L11.9215147,7.43699163 L10.5567359,8.80177052 L10.1341195,8.37915418 C9.83310239,8.07813705 9.34500956,8.07813705 9.04399243,8.37915418 C8.7429753,8.68017131 8.7429753,9.16826414 9.04399243,9.46928127 L9.04399243,9.46928127 L10.011698,10.4369869 C10.3127151,10.738004 10.800808,10.738004 11.1018251,10.4369869 L11.1018251,10.4369869 L12.7810865,8.7577255 C12.9822442,9.58157809 12.7311825,10.4322586 12.1502199,11.0132211 C11.2183363,11.9451048 9.70718606,11.9451048 8.77530239,11.0132211 C7.84347012,10.0813888 7.84347012,8.57013586 8.77530239,7.63830359 Z" id="Combined-Shape"></path>
                        </g>
                    </g>
                </g>
            </g>
        </g>
    </g>
</svg>