<?xml version="1.0" encoding="UTF-8"?>
<svg width="27px" height="26px" viewBox="0 0 27 26" version="1.1" xmlns="http://www.w3.org/2000/svg" xmlns:xlink="http://www.w3.org/1999/xlink">
    <title>訂單借貸</title>
    <g id="XXXGuideline" stroke="none" stroke-width="1" fill="none" fill-rule="evenodd">
        <g id="Guideline_圖標" transform="translate(-155.000000, -1182.000000)" fill="#7F7F7F">
            <g id="02" transform="translate(70.000000, 915.000000)">
                <g id="Dashboard" transform="translate(53.000000, 240.000000)">
                    <g id="icon" transform="translate(10.000000, 25.000000)">
                        <g id="Combined-Shape" transform="translate(20.000000, 0.000000)">
                            <path d="M26.2641702,15.1305683 L26.9822156,15.5463565 C28.0298889,16.151231 28.4095971,17.4755181 27.8709472,18.5631729 L27.7988147,18.6978281 L23.1197696,26.8021719 C22.5041551,27.8684475 21.184717,28.2686001 20.1146113,27.741454 L19.9822156,27.6707121 L6.999,20.175 L7,17.816 L21.0034358,25.9019069 C21.1010723,25.9582774 21.220069,25.9485049 21.2988349,25.8949685 L21.3407739,25.857774 L21.3828986,25.799389 L26.0619437,17.6950452 C26.1179343,17.5980666 26.1096869,17.479191 26.056341,17.3997343 L26.0190748,17.3572811 L25.9520903,17.3095915 L25.0314973,16.7785892 C25.586622,16.3623486 26.0167345,15.7911519 26.2641702,15.1305683 Z M6,17.5 L6,23.6889427 L7.61716365,23.6889427 C7.65800915,23.6889427 7.69787539,23.7014488 7.73140205,23.7247794 C7.82206693,23.7878715 7.84441908,23.9125162 7.78132696,24.0031811 L7.78132696,24.0031811 L5.16417261,27.7640945 C5.1506235,27.7835649 5.13371874,27.8004697 5.1142484,27.8140189 C5.02358378,27.8771114 4.898939,27.8547598 4.83584649,27.7640952 L4.83584649,27.7640952 L2.21867552,24.0031921 C2.19534459,23.9696653 2.18283833,23.9297988 2.18283833,23.888953 C2.18283833,23.778496 2.27238138,23.688953 2.38283833,23.688953 L2.38283833,23.688953 L4,23.688953 L4,17.5 L6,17.5 Z M14.9783537,17.4915683 L16.9473219,17.4936246 C17.4385436,18.243509 17.3472786,19.2242736 16.6459776,19.7952973 C16.1061873,20.2346591 15.3010225,20.2858595 14.599452,19.9602175 L14.5462563,19.9319326 L14.2288037,20.4842896 C14.1569087,20.6088153 14.0128016,20.6679281 13.8699936,20.6462573 L13.7990383,20.6286187 L13.7303414,20.5970893 L13.2701313,20.3313868 C13.1140617,20.24128 13.0416954,20.0622933 13.0902611,19.9077245 L13.1185875,19.843306 L13.4338357,19.2951675 L13.3550834,19.2458763 C13.0766645,19.0540598 12.838272,18.8114066 12.6558427,18.5358066 L12.5532282,18.3666362 L12.4648098,18.1904172 C12.3816702,18.0097528 12.4530328,17.8130349 12.6190599,17.7362769 L12.6958357,17.7111216 L13.4548741,17.5519298 C13.59059,17.5231959 13.7355029,17.5737039 13.8264378,17.6772841 L13.8740161,17.7455916 L13.9442148,17.8569089 C13.9964861,17.9279923 14.0592904,17.992389 14.1301606,18.0475188 L14.2422067,18.1229405 L15.1957046,18.6734427 C15.3783167,18.7788739 15.6027195,18.7290925 15.6978852,18.5642606 C15.7608905,18.4551323 15.751677,18.3161386 15.6788558,18.2044112 L15.627599,18.1411037 L14.9783537,17.4915683 Z M22.7170686,2 C23.9268176,2 24.9177981,2.95701224 24.9951409,4.16827383 L25,4.32095491 L25,13.6790451 C25,14.910274 24.0574094,15.9165355 22.8670976,15.9950664 L22.7170686,16 L4.28293135,16 C3.07318243,16 2.0822019,15.0429878 2.00485906,13.8317262 L2,13.6790451 L2,4.32095491 C2,3.08972595 2.94259057,2.08346455 4.13290242,2.0049336 L4.28293135,2 L22.7170686,2 Z M22.7065714,4.04206897 L4.28293135,4.04244032 C4.17019036,4.04244032 4.07202249,4.11040192 4.03057746,4.19614874 L4.01285438,4.24932966 L4.00556586,4.32095491 L4.00556586,13.6790451 C4.00556586,13.7910263 4.07214609,13.8898519 4.15807333,13.9319905 L4.21157344,13.9501229 L4.28293135,13.9575597 L22.7170686,13.9575597 C22.8298096,13.9575597 22.9279775,13.8895981 22.9694225,13.8038513 L22.9871456,13.7506703 L22.9944341,13.6790451 L22.9944341,4.32095491 C22.9944341,4.20897372 22.9278539,4.11014808 22.8419267,4.06800955 L22.7884266,4.04987713 L22.7065714,4.04206897 Z M13.7659753,5 C13.9461889,5 14.0983534,5.11882394 14.1335786,5.27696726 L14.1412565,5.34691849 L14.140304,5.97821074 L14.2351599,5.9825558 C14.572186,6.00946433 14.8999666,6.10041188 15.1957549,6.24787379 L15.3692069,6.34307246 L15.533889,6.45147339 C15.6962222,6.56636354 15.7327793,6.77240755 15.6273746,6.92189547 L15.5734625,6.98206847 L14.9957119,7.49945177 C14.8925455,7.59219404 14.7417931,7.62090926 14.6112511,7.57667365 L14.5358934,7.54130679 L14.4194409,7.48000249 C14.3386309,7.44457816 14.2520423,7.4202111 14.1631021,7.40790242 L14.0283565,7.39860835 L12.927352,7.39860835 C12.7164897,7.39860835 12.5470419,7.55392166 12.5470419,7.74425323 C12.5470419,7.87065627 12.6247821,7.98704851 12.7435737,8.04685293 L12.8194814,8.07557243 L14.6129056,8.55654347 C15.6598917,8.83664897 16.2604459,9.87522156 15.8900943,10.8478096 C15.6423032,11.4982033 14.9706102,11.9451265 14.2002113,12.0138976 L14.14,12.016 L14.1412565,12.6530815 C14.1412565,12.7968714 14.0460124,12.9201181 13.9115017,12.9727546 L13.8412333,12.9929569 L13.7659753,13 L13.2345705,13 C13.0543568,13 12.9021924,12.8811761 12.8669672,12.7230327 L12.8592893,12.6530815 L12.858233,12.0207555 L12.7653859,12.0174442 C12.4283598,11.9905357 12.1005792,11.8995881 11.8047908,11.7521262 L11.6313388,11.6569275 L11.4666568,11.5485266 C11.3043236,11.4336365 11.2677665,11.2275925 11.3731712,11.0781045 L11.4270833,11.0179315 L12.0048339,10.5005482 C12.1080003,10.407806 12.2587526,10.3790907 12.3892947,10.4233264 L12.4646524,10.4586932 L12.5811049,10.5199975 C12.6619149,10.5554218 12.7485035,10.5797889 12.8374437,10.5920976 L12.9721893,10.6013917 L14.0731938,10.6013917 C14.2840561,10.6013917 14.4535039,10.4460783 14.4535039,10.2557468 C14.4535039,10.1297362 14.376028,10.013971 14.2570992,9.95362279 L14.1810558,9.92442528 L12.4788892,9.4677873 C11.6783245,9.25294028 11.0804967,8.6354494 11.008152,7.90761841 C10.9092557,6.91050298 11.722426,6.05192169 12.7814748,5.97914735 L12.927352,5.97415507 L12.858233,5.97614314 L12.8592893,5.34691849 C12.8592893,5.20312859 12.9545333,5.07988189 13.0890441,5.02724541 L13.1593125,5.00704314 L13.2345705,5 L13.7659753,5 Z"></path>
                        </g>
                    </g>
                </g>
            </g>
        </g>
    </g>
</svg>