<?xml version="1.0" encoding="UTF-8"?>
<svg width="26px" height="28px" viewBox="0 0 26 28" version="1.1" xmlns="http://www.w3.org/2000/svg" xmlns:xlink="http://www.w3.org/1999/xlink">
    <title>設定</title>
    <g id="XXXGuideline" stroke="none" stroke-width="1" fill="none" fill-rule="evenodd">
        <g id="Guideline_圖標" transform="translate(-862.000000, -1776.000000)" fill="#7F7F7F">
            <g id="03" transform="translate(70.000000, 1675.000000)">
                <g id="動作-Icon" transform="translate(40.000000, 80.000000)">
                    <g id="icon" transform="translate(10.000000, 20.000000)">
                        <g id="通路管理-copy-4" transform="translate(720.000000, 0.000000)">
                            <g id="設定" transform="translate(20.000000, 0.000000)">
                                <path d="M27.4135472,18.4316926 L25.4443359,16.7440984 C25.5375352,16.1715218 25.5856381,15.586891 25.5856381,15.0022602 C25.5856381,14.4176293 25.5375352,13.8329985 25.4443359,13.2604219 L27.4135472,11.5728277 C27.7171966,11.3136615 27.8284345,10.8917629 27.6931451,10.5120542 L27.6660873,10.4337017 C27.1219236,8.91185334 26.3162005,7.51356102 25.269963,6.278001 L25.2158473,6.21471622 C24.9572943,5.91034656 24.5394007,5.79583124 24.1605905,5.92842793 L21.7163634,6.79934706 C20.8144346,6.05801105 19.8072807,5.47338021 18.7189532,5.06353591 L18.2469438,2.50200904 C18.1747895,2.10723255 17.8651273,1.79984932 17.471285,1.72752386 L17.3901114,1.71245605 C15.8237617,1.42918132 14.1762383,1.42918132 12.6098886,1.71245605 L12.528715,1.72752386 C12.1348727,1.79984932 11.8252105,2.10723255 11.7530562,2.50200904 L11.2780403,5.07559016 C10.1987322,5.48543446 9.19759116,6.06705173 8.30167518,6.80537418 L5.83940946,5.92842793 C5.46360578,5.79583124 5.04270565,5.907333 4.78415272,6.21471622 L4.73003699,6.278001 C3.68379954,7.51657459 2.87807645,8.9148669 2.33391272,10.4337017 L2.30685485,10.5120542 C2.17156553,10.8887494 2.28280342,11.3106479 2.58645279,11.5728277 L4.57971552,13.2785033 C4.4865162,13.8450527 4.44141976,14.4236565 4.44141976,14.9992466 C4.44141976,15.5778503 4.4865162,16.156454 4.57971552,16.71999 L2.58645279,18.4256655 C2.28280342,18.6848317 2.17156553,19.1067303 2.30685485,19.486439 L2.33391272,19.5647916 C2.87807645,21.0836263 3.68379954,22.4849322 4.73003699,23.7204922 L4.78415272,23.783777 C5.04270565,24.0881467 5.46059935,24.202662 5.83940946,24.0700653 L8.30167518,23.193119 C9.19759116,23.9314415 10.1987322,24.5160723 11.2780403,24.9229031 L11.7530562,27.4964842 C11.8252105,27.8912607 12.1348727,28.1986439 12.528715,28.2709694 L12.6098886,28.2860372 C13.3945667,28.4276745 14.1972833,28.5 15,28.5 C15.8027167,28.5 16.6084398,28.4276745 17.3901114,28.2860372 L17.471285,28.2709694 C17.8651273,28.1986439 18.1747895,27.8912607 18.2469438,27.4964842 L18.7189532,24.9349573 C19.8072807,24.525113 20.8144346,23.9434957 21.7163634,23.1991462 L24.1605905,24.0700653 C24.5363942,24.202662 24.9572943,24.0911602 25.2158473,23.783777 L25.269963,23.7204922 C26.3162005,22.4819186 27.1219236,21.0836263 27.6660873,19.5647916 L27.6931451,19.486439 C27.8284345,19.115771 27.7171966,18.6938724 27.4135472,18.4316926 L27.4135472,18.4316926 Z M23.309771,13.6160221 C23.3849317,14.0710698 23.4240153,14.5381718 23.4240153,15.0052737 C23.4240153,15.4723757 23.3849317,15.9394776 23.309771,16.3945254 L23.1113467,17.6029633 L25.3571495,19.5286288 C25.0174229,20.3151683 24.5875035,21.0565043 24.0764105,21.7466097 L21.286444,20.7551482 L20.3424251,21.5326469 C19.6238885,22.1233049 18.8241783,22.5873933 17.9583266,22.9128579 L16.812877,23.3437971 L16.2747261,26.2669513 C15.4299194,26.3633852 14.5670742,26.3633852 13.7192611,26.2669513 L13.1811102,23.33777 L12.0446798,22.9008036 C11.1878475,22.575339 10.3911436,22.1112506 9.67861987,21.5236062 L8.73460102,20.7430939 L5.92659591,21.7435962 C5.41550291,21.0534907 4.98858992,20.3091411 4.64585697,19.5256153 L6.9157112,17.5818684 L6.72029329,16.376444 C6.64813898,15.9274234 6.6090554,15.463335 6.6090554,15.0052737 C6.6090554,14.5441989 6.64513255,14.0831241 6.72029329,13.6341035 L6.9157112,12.4286791 L4.64585697,10.4849322 C4.98558349,9.69839277 5.41550291,8.95705676 5.92659591,8.26695128 L8.73460102,9.26745354 L9.67861987,8.48694124 C10.3911436,7.89929684 11.1878475,7.43520844 12.0446798,7.10974385 L13.1841166,6.67880462 L13.7222675,3.7496233 C14.5670742,3.65318935 15.4299194,3.65318935 16.2777325,3.7496233 L16.8158834,6.6727775 L17.961333,7.10371673 C18.8241783,7.42918132 19.6268949,7.89326971 20.3454316,8.48392767 L21.2894504,9.26142642 L24.0794169,8.26996484 C24.59051,8.96007032 25.0174229,9.70441989 25.3601559,10.4879458 L23.1143531,12.4136113 L23.309771,13.6160221 Z M15.0030064,9.40005023 C12.080757,9.40005023 9.71169059,11.7747363 9.71169059,14.7039176 C9.71169059,17.6330989 12.080757,20.007785 15.0030064,20.007785 C17.9252559,20.007785 20.2943223,17.6330989 20.2943223,14.7039176 C20.2943223,11.7747363 17.9252559,9.40005023 15.0030064,9.40005023 Z M17.3840986,17.090658 C16.7467355,17.7265193 15.9019288,18.079106 15.0030064,18.079106 C14.104084,18.079106 13.2592773,17.7265193 12.6219143,17.090658 C11.9875577,16.451783 11.6358054,15.6049724 11.6358054,14.7039176 C11.6358054,13.8028629 11.9875577,12.9560522 12.6219143,12.3171773 C13.2592773,11.6783024 14.104084,11.3287293 15.0030064,11.3287293 C15.9019288,11.3287293 16.7467355,11.6783024 17.3840986,12.3171773 C18.0184552,12.9560522 18.3702074,13.8028629 18.3702074,14.7039176 C18.3702074,15.6049724 18.0184552,16.451783 17.3840986,17.090658 Z" id="Shape"></path>
                            </g>
                        </g>
                    </g>
                </g>
            </g>
        </g>
    </g>
</svg>