<?xml version="1.0" encoding="UTF-8"?>
<svg width="30px" height="30px" viewBox="0 0 30 30" version="1.1" xmlns="http://www.w3.org/2000/svg" xmlns:xlink="http://www.w3.org/1999/xlink">
    <title>警告</title>
    <g id="XXXGuideline" stroke="none" stroke-width="1" fill="none" fill-rule="evenodd">
        <g id="Guideline_圖標" transform="translate(-410.000000, -1515.000000)" fill="#7F7F7F">
            <g id="02" transform="translate(70.000000, 915.000000)">
                <g id="網站通用-Icon" transform="translate(40.000000, 400.000000)">
                    <g id="icon" transform="translate(10.000000, 20.000000)">
                        <g id="通路管理-copy-18" transform="translate(270.000000, 180.000000)">
                            <g id="警告" transform="translate(20.000000, 0.000000)">
                                <path d="M15,0 C23.2851562,0 30,6.71484375 30,15 C30,23.2851562 23.2851562,30 15,30 C6.71484375,30 0,23.2851562 0,15 C0,6.71484375 6.71484375,0 15,0 Z M15,21.4285714 C13.8165327,21.4285714 12.8571429,22.3879613 12.8571429,23.5714286 C12.8571429,24.7548959 13.8165327,25.7142857 15,25.7142857 C16.1834673,25.7142857 17.1428571,24.7548959 17.1428571,23.5714286 C17.1428571,22.3879613 16.1834673,21.4285714 15,21.4285714 Z M15.7142857,6.42857143 L14.2857143,6.42857143 C13.4967361,6.42857143 12.8571429,7.06816464 12.8571429,7.85714286 L12.8571429,7.85714286 L12.8571429,17.8571429 C12.8571429,18.6461211 13.4967361,19.2857143 14.2857143,19.2857143 L14.2857143,19.2857143 L15.7142857,19.2857143 C16.5032639,19.2857143 17.1428571,18.6461211 17.1428571,17.8571429 L17.1428571,17.8571429 L17.1428571,7.85714286 C17.1428571,7.06816464 16.5032639,6.42857143 15.7142857,6.42857143 L15.7142857,6.42857143 Z" id="Combined-Shape"></path>
                            </g>
                        </g>
                    </g>
                </g>
            </g>
        </g>
    </g>
</svg>