<?xml version="1.0" encoding="UTF-8"?>
<svg width="24px" height="30px" viewBox="0 0 24 30" version="1.1" xmlns="http://www.w3.org/2000/svg" xmlns:xlink="http://www.w3.org/1999/xlink">
    <title>買賣小幫手</title>
    <g id="XXXGuideline" stroke="none" stroke-width="1" fill="none" fill-rule="evenodd">
        <g id="Guideline_圖標" transform="translate(-503.000000, -755.000000)" fill="#7F7F7F">
            <g id="01" transform="translate(70.000000, 405.000000)">
                <g id="頂部選單-Icon" transform="translate(40.000000, 330.000000)">
                    <g id="title" transform="translate(10.000000, 20.000000)">
                        <g id="訂單管理-copy" transform="translate(360.000000, 0.000000)">
                            <g id="買賣小幫手" transform="translate(20.000000, 0.000000)">
                                <path d="M20.25,27 C20.6642136,27 21,27.3357864 21,27.75 L21,28.5 C21,28.9142136 20.6642136,29.25 20.25,29.25 L9.75,29.25 C9.33578644,29.25 9,28.9142136 9,28.5 L9,27.75 C9,27.3357864 9.33578644,27 9.75,27 L20.25,27 Z M15,0.75 C21.2132034,0.75 26.25,5.78679656 26.25,12 C26.25,15.5008665 24.6360465,18.7223391 21.9806613,20.8234715 L21.9806613,20.8234715 L21.75,20.9985 L21.75,21.75 C21.75,23.7382251 20.2026961,25.365058 18.2465635,25.4920235 L18.2465635,25.4920235 L18,25.5 L12,25.5 C9.92893219,25.5 8.25,23.8210678 8.25,21.749932 L8.25,21.749932 L8.25,20.9985 L8.0207985,20.8246279 C5.4708198,18.8075852 3.88083231,15.7575014 3.75771327,12.4187885 L3.75771327,12.4187885 L3.75,12 C3.75,5.78679656 8.78679656,0.75 15,0.75 Z M15,3 C10.0294373,3 6,7.02943725 6,12 C6,15.331295 7.80992033,18.2398604 10.5000591,19.7959944 L10.5000591,19.7959944 L10.5,21.75 C10.5,22.5784271 11.1715729,23.25 12,23.25 L12,23.25 L18,23.25 C18.8284271,23.25 19.5,22.5784271 19.5,21.75 L19.5,21.75 L19.5014445,19.7951244 C22.1907541,18.2387765 24,15.3306743 24,12 C24,7.02943725 19.9705627,3 15,3 Z M15.6218692,6.60896254 C16.0925657,6.92118878 16.2521432,7.52655874 16.019229,8.02305104 L15.9374986,8.16833037 L14.1405,10.875 L18.0297196,10.875 C18.8780733,10.875 19.4022001,11.7670638 19.0405992,12.4949501 L18.9622824,12.629247 L15.9325627,17.1193817 C15.5850392,17.6344219 14.8857932,17.770221 14.370753,17.4226975 C13.9025347,17.106767 13.7477387,16.5001568 13.9845631,16.0055177 L14.0674373,15.8608878 L15.912,13.125 L12.0458426,13.125 C11.2012749,13.125 10.6766412,12.2400054 11.0313872,11.5124483 L11.1083439,11.3781308 L14.0625014,6.924592 C14.4059502,6.40682579 15.104103,6.26551367 15.6218692,6.60896254 Z" id="Combined-Shape"></path>
                            </g>
                        </g>
                    </g>
                </g>
            </g>
        </g>
    </g>
</svg>