<?xml version="1.0" encoding="UTF-8"?>
<svg width="26px" height="26px" viewBox="0 0 26 26" version="1.1" xmlns="http://www.w3.org/2000/svg" xmlns:xlink="http://www.w3.org/1999/xlink">
    <title>退貨單</title>
    <g id="XXXGuideline" stroke="none" stroke-width="1" fill="none" fill-rule="evenodd">
        <g id="Guideline_圖標" transform="translate(-332.000000, -2792.000000)" fill="#7F7F7F">
            <g id="04" transform="translate(70.000000, 2155.000000)">
                <g id="流程圖" transform="translate(40.000000, 75.000000)">
                    <g id="icon" transform="translate(20.000000, 20.000000)">
                        <g id="通路管理-copy-43" transform="translate(180.000000, 540.000000)">
                            <g id="退貨單" transform="translate(20.000000, 0.000000)">
                                <path d="M22.0631367,16.526618 C25.1163234,16.526618 27.6002461,19.0105406 27.6002461,22.0637273 C27.6002461,25.1169141 25.1163234,27.6008367 22.0631367,27.6008367 C19.00995,27.6008367 16.5260273,25.1169141 16.5260273,22.0637273 C16.5260273,19.0105406 19.00995,16.526618 22.0631367,16.526618 Z M21.5827978,18.772504 C21.3497407,18.5415725 20.9731203,18.5426567 20.7414615,18.7748272 L20.7414615,18.7748272 L19.3731053,20.1413654 C19.1414466,20.3736908 19.1423788,20.7491287 19.3754359,20.9800601 L19.3754359,20.9800601 L20.7464334,22.3441202 C20.9793352,22.5750516 21.3561109,22.5741223 21.5877697,22.3417969 C21.8194284,22.1096263 21.8183409,21.7340336 21.5852837,21.5031021 L21.5852837,21.5031021 L21.2308815,21.1504321 L22.8928897,21.1504321 C23.1992821,21.1504321 23.4777077,21.2752683 23.6795352,21.476617 C23.9032701,21.6994945 24.0067474,21.9697664 24.0067474,22.3001332 C24.0067474,22.9109942 23.5056746,23.4104938 22.8928897,23.4104938 L22.8928897,23.4104938 L20.108789,23.4104938 C19.7792463,23.4104938 19.5121628,23.6767388 19.5121628,24.0052469 C19.5121628,24.3337551 19.7792463,24.6 20.108789,24.6 L20.108789,24.6 L22.8928897,24.6 C23.5286696,24.6 24.1055637,24.341809 24.5232021,23.9254818 C24.9622817,23.4877808 25.2,22.9209067 25.2,22.2607927 C25.2,20.9932252 24.1644494,19.960926 22.8928897,19.960926 L22.8928897,19.960926 L21.2349212,19.960926 L21.5851284,19.6111988 C21.8167871,19.3788733 21.8156995,19.0034354 21.5827978,18.772504 Z M9.57816094,6.30462188 L9.57816094,10.9178953 L12.6911977,9.54006563 L15.8042344,10.9178953 L15.8042344,6.30462188 L22.9818047,6.30462188 L22.9818047,15.11025 C22.6810781,15.0707273 22.3744945,15.0500555 22.0631367,15.0500555 C18.1957734,15.0500555 15.0494648,18.1963641 15.0494648,22.0637273 C15.0494648,22.2710039 15.0586086,22.4762023 15.0763857,22.6789581 L15.1094625,22.9812141 L2.40059062,22.9812141 L2.40059062,6.30462188 L9.57816094,6.30462188 Z M7.93838906,19.0765922 L4.77864375,19.0765922 L4.77864375,20.5531547 L7.93838906,20.5531547 L7.93838906,19.0765922 Z M9.52155937,15.9102516 L4.77864375,15.9102516 L4.77864375,17.3868141 L9.52155937,17.3868141 L9.52155937,15.9102516 Z M14.3276719,2.4 L14.3276719,8.64969844 L12.6911977,7.92539531 L11.0547234,8.64969844 L11.0547234,2.4 L14.3276719,2.4 Z M9.57816094,2.4 L9.57816094,4.82805938 L2.40059062,4.82805938 L2.40059062,2.4 L9.57816094,2.4 Z M22.9818047,2.4 L22.9818047,4.82805938 L15.8042344,4.82805938 L15.8042344,2.4 L22.9818047,2.4 Z" id="Combined-Shape"></path>
                            </g>
                        </g>
                    </g>
                </g>
            </g>
        </g>
    </g>
</svg>