<?xml version="1.0" encoding="UTF-8"?>
<svg width="24px" height="24px" viewBox="0 0 24 24" version="1.1" xmlns="http://www.w3.org/2000/svg" xmlns:xlink="http://www.w3.org/1999/xlink">
    <title>退貨還貨</title>
    <g id="XXXGuideline" stroke="none" stroke-width="1" fill="none" fill-rule="evenodd">
        <g id="Guideline_圖標" transform="translate(-426.000000, -1183.000000)" fill="#7F7F7F">
            <g id="02" transform="translate(70.000000, 915.000000)">
                <g id="Dashboard" transform="translate(53.000000, 240.000000)">
                    <g id="icon" transform="translate(10.000000, 25.000000)">
                        <g id="訂單管理-copy" transform="translate(270.000000, 0.000000)">
                            <g id="Combined-Shape" transform="translate(20.000000, 0.000000)">
                                <path d="M20.96875,10.6822917 L20.96875,9.11979167 C20.96875,8.9765625 20.8515625,8.859375 20.7083333,8.859375 L8.20833333,8.859375 C8.06510417,8.859375 7.94791667,8.9765625 7.94791667,9.11979167 L7.94791667,10.6822917 C7.94791667,10.8255208 8.06510417,10.9427083 8.20833333,10.9427083 L20.7083333,10.9427083 C20.8515625,10.9427083 20.96875,10.8255208 20.96875,10.6822917 Z M8.20833333,13.546875 C8.06510417,13.546875 7.94791667,13.6640625 7.94791667,13.8072917 L7.94791667,15.3697917 C7.94791667,15.5130208 8.06510417,15.6302083 8.20833333,15.6302083 L14.1979167,15.6302083 C14.3411458,15.6302083 14.4583333,15.5130208 14.4583333,15.3697917 L14.4583333,13.8072917 C14.4583333,13.6640625 14.3411458,13.546875 14.1979167,13.546875 L8.20833333,13.546875 Z M12.8958333,24.2604167 L5.34375,24.2604167 L5.34375,5.34375 L23.5729167,5.34375 L23.5729167,13.5416667 C23.5729167,13.6848958 23.6901042,13.8020833 23.8333333,13.8020833 L25.65625,13.8020833 C25.7994792,13.8020833 25.9166667,13.6848958 25.9166667,13.5416667 L25.9166667,4.04166667 C25.9166667,3.46549479 25.4511719,3 24.875,3 L4.04166667,3 C3.46549479,3 3,3.46549479 3,4.04166667 L3,25.5625 C3,26.1386719 3.46549479,26.6041667 4.04166667,26.6041667 L12.8958333,26.6041667 C13.0390625,26.6041667 13.15625,26.4869792 13.15625,26.34375 L13.15625,24.5208333 C13.15625,24.3776042 13.0390625,24.2604167 12.8958333,24.2604167 Z M21.9139733,18.0079988 L15.5318441,18.0079988 C15.2381147,18.0079988 15,18.246674 15,18.5410948 L15,19.400712 C15,19.6951328 15.2381147,19.933808 15.5318441,19.933808 L26.4681559,19.933808 C26.7618853,19.933808 27,19.6951328 27,19.400712 C27,19.2554831 26.9408883,19.1165404 26.8363302,19.0160042 L22.8139917,15.1483889 C22.6020224,14.9445732 22.2653501,14.9515875 22.062013,15.1640557 C21.9670158,15.263319 21.9139733,15.395546 21.9139733,15.5330967 L21.9139733,18.0079988 Z M20.0860267,23.9920012 L26.4681559,23.9920012 C26.7618853,23.9920012 27,23.753326 27,23.4589052 L27,22.599288 C27,22.3048672 26.7618853,22.066192 26.4681559,22.066192 L15.5318441,22.066192 C15.2381147,22.066192 15,22.3048672 15,22.599288 C15,22.7445169 15.0591117,22.8834596 15.1636698,22.9839958 L19.1860083,26.8516111 C19.3979776,27.0554268 19.7346499,27.0484125 19.937987,26.8359443 C20.0329842,26.736681 20.0860267,26.604454 20.0860267,26.4669033 L20.0860267,23.9920012 Z"></path>
                            </g>
                        </g>
                    </g>
                </g>
            </g>
        </g>
    </g>
</svg>