<?xml version="1.0" encoding="UTF-8"?>
<svg width="25px" height="29px" viewBox="0 0 25 29" version="1.1" xmlns="http://www.w3.org/2000/svg" xmlns:xlink="http://www.w3.org/1999/xlink">
    <title>通知</title>
    <g id="XXXGuideline" stroke="none" stroke-width="1" fill="none" fill-rule="evenodd">
        <g id="Guideline_圖標" transform="translate(-143.000000, -755.000000)" fill="#7F7F7F">
            <g id="01" transform="translate(70.000000, 405.000000)">
                <g id="頂部選單-Icon" transform="translate(40.000000, 330.000000)">
                    <g id="title" transform="translate(10.000000, 20.000000)">
                        <g id="通知" transform="translate(20.000000, 0.000000)">
                            <path d="M27.4583083,20.1665332 C26.3828787,19.0109473 24.3706228,17.2725586 24.3706228,11.578125 C24.3706228,7.25302734 21.3380447,3.79072266 17.2489626,2.94128906 L17.2489626,1.78125 C17.2489626,0.797666016 16.4518533,0 15.4688259,0 C14.4857986,0 13.6886892,0.797666016 13.6886892,1.78125 L13.6886892,2.94128906 C9.59960717,3.79072266 6.56702905,7.25302734 6.56702905,11.578125 C6.56702905,17.2725586 4.55477319,19.0109473 3.4793435,20.1665332 C3.14535913,20.5255664 2.99729272,20.9547363 3.00003744,21.375 C3.00619897,22.2878906 3.72259546,23.15625 4.78689233,23.15625 L26.1507595,23.15625 C27.2150564,23.15625 27.9320095,22.2878906 27.9376144,21.375 C27.9403591,20.9547363 27.7922927,20.5250098 27.4583083,20.1665332 L27.4583083,20.1665332 Z M6.75907006,20.484375 C7.94026147,18.9274512 9.23166772,16.3468652 9.23779077,11.6104102 C9.23779077,11.5992773 9.23445092,11.5892578 9.23445092,11.578125 C9.23445092,8.13474609 12.025447,5.34375 15.4688259,5.34375 C18.9122048,5.34375 21.7032009,8.13474609 21.7032009,11.578125 C21.7032009,11.5892578 21.6998611,11.5992773 21.6998611,11.6104102 C21.7059841,16.3474219 22.9973904,18.9280078 24.1785818,20.484375 L6.75907006,20.484375 Z M15.4688259,28.5 C17.4348806,28.5 19.029656,26.9052246 19.029656,24.9375 L11.9079958,24.9375 C11.9079958,26.9052246 13.5027712,28.5 15.4688259,28.5 Z" id="Shape"></path>
                        </g>
                    </g>
                </g>
            </g>
        </g>
    </g>
</svg>