<?xml version="1.0" encoding="UTF-8"?>
<svg width="26px" height="26px" viewBox="0 0 26 26" version="1.1" xmlns="http://www.w3.org/2000/svg" xmlns:xlink="http://www.w3.org/1999/xlink">
    <title>通路商品</title>
    <g id="XXXGuideline" stroke="none" stroke-width="1" fill="none" fill-rule="evenodd">
        <g id="Guideline_圖標" transform="translate(-332.000000, -2342.000000)" fill="#7F7F7F">
            <g id="04" transform="translate(70.000000, 2155.000000)">
                <g id="流程圖" transform="translate(40.000000, 75.000000)">
                    <g id="icon" transform="translate(20.000000, 20.000000)">
                        <g id="通路管理-copy-28" transform="translate(180.000000, 90.000000)">
                            <g id="通路商品" transform="translate(20.000000, 0.000000)">
                                <path d="M27.6,8.30625 L27.6,18.6914062 L24.646875,18.6914062 L24.646875,27.6 L23.1703125,27.6 L23.1703125,8.30625 L27.6,8.30625 Z M27.6,20.1679688 L27.6,27.6 L26.1234375,27.6 L26.1234375,20.1679688 L27.6,20.1679688 Z M3.8765625,20.1679688 L3.8765625,27.6 L2.4,27.6 L2.4,20.1679688 L3.8765625,20.1679688 Z M6.8296875,8.30625 L6.8296875,27.6 L5.353125,27.6 L5.353125,18.6914062 L2.4,18.6914062 L2.4,8.30625 L6.8296875,8.30625 Z M14.2617187,20.1679688 L14.2617187,27.6 L8.30625,27.6 L8.30625,20.1679688 L14.2617187,20.1679688 Z M21.69375,20.1679688 L21.69375,27.6 L15.7382812,27.6 L15.7382812,20.1679688 L21.69375,20.1679688 Z M21.69375,6.8296875 L21.69375,18.6914062 L8.30625,18.6914062 L8.30625,6.8296875 L21.69375,6.8296875 Z M15,8.30625 C13.7787352,8.30625 12.7851562,9.29982891 12.7851562,10.5210937 L12.7851562,10.5210937 L12.7851562,11.259375 L11.3085937,11.259375 L11.3085937,17.2148437 L18.6914062,17.2148437 L18.6914062,11.259375 L17.2148437,11.259375 L17.2148437,10.5210937 C17.2148437,9.29982891 16.2212648,8.30625 15,8.30625 Z M17.2148437,12.7359375 L17.2148437,15.7382812 L12.7851562,15.7382812 L12.7851562,12.7359375 L17.2148437,12.7359375 Z M15,9.7828125 C15.4070883,9.7828125 15.7382812,10.1140055 15.7382812,10.5210937 L15.7382812,10.5210937 L15.7382812,11.259375 L14.2617187,11.259375 L14.2617187,10.5210937 C14.2617187,10.1140055 14.5929117,9.7828125 15,9.7828125 Z M21.69375,2.4 L21.69375,3.8765625 L20.2171875,3.8765625 L20.2171875,5.353125 L18.740625,5.353125 L18.740625,3.8765625 L11.259375,3.8765625 L11.259375,5.353125 L9.7828125,5.353125 L9.7828125,3.8765625 L8.30625,3.8765625 L8.30625,2.4 L21.69375,2.4 Z" id="Combined-Shape"></path>
                            </g>
                        </g>
                    </g>
                </g>
            </g>
        </g>
    </g>
</svg>