<?xml version="1.0" encoding="UTF-8"?>
<svg width="28px" height="26px" viewBox="0 0 28 26" version="1.1" xmlns="http://www.w3.org/2000/svg" xmlns:xlink="http://www.w3.org/1999/xlink">
    <title>通路設定</title>
    <g id="XXXGuideline" stroke="none" stroke-width="1" fill="none" fill-rule="evenodd">
        <g id="Guideline_圖標" transform="translate(-691.000000, -2252.000000)" fill="#7F7F7F">
            <g id="04" transform="translate(70.000000, 2155.000000)">
                <g id="流程圖" transform="translate(40.000000, 75.000000)">
                    <g id="icon" transform="translate(20.000000, 20.000000)">
                        <g id="通路管理-copy-4" transform="translate(540.000000, 0.000000)">
                            <g id="通路管理" transform="translate(20.000000, 0.000000)">
                                <path d="M12.7503692,17.0173622 L12.7503692,27.5479235 L8.7162736,27.5479235 L8.7162736,22.2826428 L9.55452723,22.2826428 C9.98853306,22.2826428 10.34039,21.9308383 10.34039,21.49678 C10.34039,21.0627742 9.98853306,20.7109173 9.55452723,20.7109173 L9.55452723,20.7109173 L8.7162736,20.7109173 L8.7162736,17.0173622 L12.7503692,17.0173622 Z M7.33001164,13.2007933 C8.57031268,13.8407476 10.0528166,13.8427385 11.2947418,13.2036225 C12.5335759,13.8408 14.0122029,13.8421098 15.2514561,13.2059277 C16.4845272,13.8376042 17.9571817,13.8421622 19.1935534,13.2123193 C19.8089888,13.5255642 20.4832067,13.6821605 21.1580532,13.6821605 L21.1580532,13.6821605 C21.8321139,13.6882902 22.5068033,13.5301746 23.1238628,13.2139958 C24.1458511,13.7364374 25.331037,13.8325222 26.4243293,13.4780457 L26.4243293,13.4780457 L26.4243293,25.9761979 L27.8388823,25.9761979 C28.2729405,25.9761979 28.6246927,26.3280025 28.6246927,26.7620607 C28.6246927,27.1960665 28.2728358,27.5479235 27.8388299,27.5479235 L27.8388299,27.5479235 L14.3220424,27.5479235 L14.3220424,16.2314994 C14.3220424,15.7974936 13.9701854,15.4456366 13.5361796,15.4456366 L13.5361796,15.4456366 L7.93035842,15.4456366 C7.4963526,15.4456366 7.14449563,15.7974936 7.14449563,16.2314994 L7.14449563,16.2314994 L7.14449563,27.5479235 L2.58586279,27.5479235 C2.15185696,27.5479235 1.8,27.1961189 1.8,26.7620607 C1.8,26.3280549 2.15185696,25.9761979 2.58586279,25.9761979 L2.58586279,25.9761979 L4.0009921,25.9761979 L4.0009921,13.4724399 C5.09617048,13.8261306 6.3016316,13.730622 7.33001164,13.2007933 Z M23.0236391,15.9171543 L17.2082545,15.9171543 C16.7742486,15.9171543 16.4223917,16.2690112 16.4223917,16.703017 L16.4223917,16.703017 L16.4223917,21.4705846 C16.4223917,21.9045904 16.7742486,22.2564474 17.2082545,22.2564474 L17.2082545,22.2564474 L23.0236391,22.2564474 C23.4576449,22.2564474 23.8095019,21.9046428 23.8095019,21.4705846 L23.8095019,21.4705846 L23.8095019,16.703017 C23.8095019,16.2690112 23.4576449,15.9171543 23.0236391,15.9171543 L23.0236391,15.9171543 Z M22.2377763,17.4889322 L22.2377763,20.6847742 L17.9941173,20.6847742 L17.9941173,17.4889322 L22.2377763,17.4889322 Z M27.8641871,7.11381455 L27.8641871,9.34021622 C27.8641871,10.8689289 26.616237,12.1169314 25.0874719,12.1169314 C24.3279617,12.1169314 23.630168,11.8064108 23.122815,11.2961763 C22.0353904,12.3900449 20.2809256,12.3900973 19.193501,11.2962287 C18.1013089,12.3945505 16.337047,12.3895734 15.2510894,11.2842312 C14.1604166,12.3943933 12.3888723,12.3953888 11.294637,11.2800923 C10.1984108,12.3973796 8.41874595,12.3955459 7.32697297,11.2712383 C6.24447318,12.3859584 4.47486736,12.4003659 3.37633597,11.3018869 C2.87343617,10.7990395 2.56129148,10.1046511 2.56129148,9.34021622 L2.56129148,9.34021622 L2.56129148,7.11381455 L27.8641871,7.11381455 Z M5.46358753,2.40178129 L25.1857572,2.40895884 C25.4796175,2.40895884 25.7356516,2.57095135 25.8695102,2.81042994 L25.8695102,2.81042994 L27.5284665,5.54203659 L2.91718254,5.54203659 L4.76170728,2.75169979 C4.9219185,2.50970644 5.19330312,2.38543534 5.46358753,2.40178129 L5.46358753,2.40178129 Z" id="Combined-Shape"></path>
                            </g>
                        </g>
                    </g>
                </g>
            </g>
        </g>
    </g>
</svg>