<?xml version="1.0" encoding="UTF-8"?>
<svg width="28px" height="18px" viewBox="0 0 28 18" version="1.1" xmlns="http://www.w3.org/2000/svg" xmlns:xlink="http://www.w3.org/1999/xlink">
    <title>進出明細</title>
    <g id="XXXGuideline" stroke="none" stroke-width="1" fill="none" fill-rule="evenodd">
        <g id="Guideline_圖標" transform="translate(-331.000000, -2706.000000)" fill="#7F7F7F">
            <g id="04" transform="translate(70.000000, 2155.000000)">
                <g id="流程圖" transform="translate(40.000000, 75.000000)">
                    <g id="icon" transform="translate(20.000000, 20.000000)">
                        <g id="通路管理-copy-38" transform="translate(180.000000, 450.000000)">
                            <g id="拆組合單" transform="translate(20.000000, 0.000000)">
                                <path d="M12.086,6 L12.0860492,12.8259031 C12.0275953,12.8477097 11.9719113,12.8772062 11.9205441,12.913897 L9.36373347,14.7401904 C9.04272448,14.9694825 8.96837328,15.4155897 9.19766542,15.7365987 C9.24347946,15.8007384 9.29959381,15.8568527 9.36373347,15.9026668 L11.9205441,17.7289601 C11.9730729,17.7664806 12.0289514,17.7958706 12.0866814,17.8173795 L12.086,24 L2.58265664,24 C2.18659766,24 1.85899783,23.7010851 1.80714827,23.3135861 L1.8,23.2058663 L1.8,6.79413373 C1.8,6.39226684 2.09459492,6.05986299 2.47649363,6.00725309 L2.58265664,6 L12.086,6 Z M28.0019548,6 C28.4086252,6 28.7445106,6.30311019 28.793779,6.69455619 L28.8,6.79413373 L28.8,23.2058663 C28.8,23.6105434 28.4953969,23.9447826 28.1020228,23.9938095 L28.0019548,24 L14.1694738,24 C13.7628034,24 13.4269179,23.6968898 13.3776496,23.3054438 L13.3714286,23.2058663 L13.3704932,17.387 L11.2923049,15.9026668 C11.2495451,15.8721241 11.2103522,15.8370035 11.1754001,15.797979 L11.1262368,15.7365987 C10.9177894,15.4447724 10.960287,15.049559 11.2109153,14.8078433 L11.2923049,14.7401904 L13.3704932,13.255 L13.3714286,6.79413373 C13.3714286,6.38945658 13.6760317,6.05521738 14.0694058,6.0061905 L14.1694738,6 L28.0019548,6 Z M8.80640475,19.5 L5.15408521,19.5 C4.72202087,19.5 4.37142857,19.8557335 4.37142857,20.2941337 C4.37142857,20.6960006 4.66602349,21.0284045 5.0479222,21.0810144 L5.15408521,21.0882675 L8.80640475,21.0882675 C9.23851597,21.0882675 9.58906139,20.732534 9.58906139,20.2941337 C9.58906139,19.8557335 9.23846909,19.5 8.80640475,19.5 Z M24.8098217,19.2352452 L21.0856904,19.2352452 C20.6451308,19.2352452 20.2876452,19.5909786 20.2876452,20.0293789 C20.2876452,20.434056 20.5922483,20.7682952 20.9856224,20.8173221 L21.0856904,20.8235126 L24.8098217,20.8235126 C25.2504291,20.8235126 25.6078669,20.4677791 25.6078669,20.0293789 C25.6078669,19.5909786 25.2503813,19.2352452 24.8098217,19.2352452 Z M7.31586715,16.2857143 L5.15408521,16.2857143 C4.72202087,16.2857143 4.37142857,16.6414478 4.37142857,17.079848 C4.37142857,17.4817149 4.66602349,17.8141188 5.0479222,17.8667287 L5.15408521,17.8739818 L7.31586715,17.8739818 C7.74797837,17.8739818 8.09852379,17.5182483 8.09852379,17.079848 C8.09852379,16.6414478 7.74793149,16.2857143 7.31586715,16.2857143 Z M24.8098217,16.0588053 L17.361559,16.0588053 C16.9209995,16.0588053 16.5635138,16.4145388 16.5635138,16.8529391 C16.5635138,17.2576162 16.868117,17.5918554 17.261491,17.6408823 L17.361559,17.6470728 L24.8098217,17.6470728 C25.2504291,17.6470728 25.6078669,17.2913393 25.6078669,16.8529391 C25.6078669,16.4145388 25.2503813,16.0588053 24.8098217,16.0588053 Z M7.31586715,13.0714286 L5.15408521,13.0714286 C4.72202087,13.0714286 4.37142857,13.4271621 4.37142857,13.8655623 C4.37142857,14.2674292 4.66602349,14.5998331 5.0479222,14.652443 L5.15408521,14.659696 L7.31586715,14.659696 C7.74797837,14.659696 8.09852379,14.3039626 8.09852379,13.8655623 C8.09852379,13.4271621 7.74793149,13.0714286 7.31586715,13.0714286 Z M19.6221454,12.8823655 L17.3616068,12.8823655 C16.9210473,12.8823655 16.5635616,13.238099 16.5635616,13.6764993 C16.5635616,14.0811764 16.868124,14.4153751 17.2615294,14.4644331 L17.3616068,14.470633 L19.6221454,14.470633 C20.062705,14.470633 20.4201907,14.1148995 20.4201907,13.6764993 C20.4201907,13.238099 20.062705,12.8823655 19.6221454,12.8823655 Z M24.8098217,12.882318 L22.8142307,12.882318 C22.3736711,12.882318 22.0161855,13.2380514 22.0161855,13.6764517 C22.0161855,14.0811289 22.3207886,14.4153681 22.7141627,14.4643949 L22.8142307,14.4705854 L24.8098217,14.4705854 C25.2504291,14.4705854 25.6078669,14.1148995 25.6078669,13.6764517 C25.6078669,13.2380514 25.2503813,12.882318 24.8098217,12.882318 Z M9.88729572,9.85714286 L5.15408521,9.85714286 C4.72202087,9.85714286 4.37142857,10.2128763 4.37142857,10.6512766 C4.37142857,11.0531435 4.66602349,11.3855473 5.0479222,11.4381572 L5.15408521,11.4454103 L9.88729572,11.4454103 C10.3194069,11.4454103 10.6699524,11.0896768 10.6699524,10.6512766 C10.6699524,10.2128763 10.3193601,9.85714286 9.88729572,9.85714286 Z M24.8098217,9.70587816 L17.361559,9.70587816 C16.9209995,9.70587816 16.5635138,10.0616116 16.5635138,10.5000119 C16.5635138,10.904689 16.868117,11.2389282 17.261491,11.2879551 L17.361559,11.2941456 L24.8098217,11.2941456 C25.2504291,11.2941456 25.6078669,10.9384121 25.6078669,10.5000119 C25.6078669,10.0616116 25.2503813,9.70587816 24.8098217,9.70587816 Z" id="Combined-Shape"></path>
                            </g>
                        </g>
                    </g>
                </g>
            </g>
        </g>
    </g>
</svg>