<?xml version="1.0" encoding="UTF-8"?>
<svg width="30px" height="24px" viewBox="0 0 30 24" version="1.1" xmlns="http://www.w3.org/2000/svg" xmlns:xlink="http://www.w3.org/1999/xlink">
    <title>遮蔽</title>
    <g id="XXXGuideline" stroke="none" stroke-width="1" fill="none" fill-rule="evenodd">
        <g id="Guideline_圖標" transform="translate(-680.000000, -1018.000000)" fill="#7F7F7F">
            <g id="02" transform="translate(70.000000, 915.000000)">
                <g id="登入-Icon" transform="translate(40.000000, 80.000000)">
                    <g id="icon" transform="translate(10.000000, 20.000000)">
                        <g id="SKU管理-Copy-5" transform="translate(540.000000, 0.000000)">
                            <g id="遮蔽" transform="translate(20.000000, 0.000000)">
                                <path d="M29.718298,24.8981562 L1.68790878,3.37588159 C1.5326376,3.25378136 1.3343414,3.19726369 1.13664309,3.21876182 C0.938944788,3.24025995 0.758038807,3.33801288 0.633722417,3.49051605 L0.164986794,4.06552987 C0.0403759065,4.21808874 -0.017344896,4.41305896 0.00454934752,4.60745794 C0.026443591,4.80185691 0.126155172,4.97972281 0.281701964,5.10184381 L28.3120912,26.6241184 C28.4673624,26.7462186 28.6656586,26.8027363 28.8633569,26.7812382 C29.0610552,26.75974 29.2419612,26.6619871 29.3662776,26.5094839 L29.8350132,25.9344701 C29.9596241,25.7819113 30.0173449,25.586941 29.9954507,25.3925421 C29.9735564,25.1981431 29.8738448,25.0202772 29.718298,24.8981562 Z M13.9120647,9.95746489 L20.2301519,14.8089426 C20.1260926,12.0494287 17.834913,9.84375118 15,9.84375118 C14.6343171,9.84442376 14.2697016,9.88253427 13.9120647,9.95746489 Z M16.0879353,20.0429955 L9.7698481,15.1915178 C9.87437614,17.9505713 12.1655558,20.1562488 15,20.1562488 C15.3656531,20.1554818 15.7302425,20.1175283 16.0879353,20.0429955 L16.0879353,20.0429955 Z M15,8.37053724 C19.6240768,8.37053724 23.8633216,10.9026237 26.1526263,15 C25.5914485,16.008402 24.8980585,16.9401732 24.0901896,17.7714837 L25.8591978,19.1296028 C26.8440974,18.0947596 27.6785402,16.9310983 28.3388092,15.6716935 C28.5562683,15.2492034 28.5562683,14.7503362 28.3388092,14.3278461 C25.7945123,9.45657214 20.7621668,6.16071633 15,6.16071633 C13.2797403,6.16071633 11.638697,6.48298189 10.0956194,7.0266899 L12.2710213,8.69740659 C13.1588065,8.49944346 14.0681536,8.37053724 15,8.37053724 Z M15,21.6294628 C10.3759232,21.6294628 6.13714717,19.0973763 3.84737374,15 C4.40928497,13.9916097 5.10346886,13.0599853 5.91215407,12.2289766 L4.1431459,10.8708575 C3.15840036,11.9055509 2.32411287,13.0690606 1.66400326,14.3283065 C1.44654412,14.7507966 1.44654412,15.2496638 1.66400326,15.6721539 C4.20595646,20.5434279 9.23830194,23.8392837 15,23.8392837 C16.7202597,23.8392837 18.361303,23.5147162 19.9043806,22.9733101 L17.7289787,21.3030538 C16.8411935,21.5005565 15.9323151,21.6294628 15,21.6294628 Z" id="Shape"></path>
                            </g>
                        </g>
                    </g>
                </g>
            </g>
        </g>
    </g>
</svg>