<?xml version="1.0" encoding="UTF-8"?>
<svg width="24px" height="24px" viewBox="0 0 24 24" version="1.1" xmlns="http://www.w3.org/2000/svg" xmlns:xlink="http://www.w3.org/1999/xlink">
    <title>選單展開</title>
    <g id="XXXGuideline" stroke="none" stroke-width="1" fill="none" fill-rule="evenodd">
        <g id="Guideline_圖標" transform="translate(-593.000000, -1428.000000)" fill="#7F7F7F">
            <g id="02" transform="translate(70.000000, 915.000000)">
                <g id="網站通用-Icon" transform="translate(40.000000, 400.000000)">
                    <g id="icon" transform="translate(10.000000, 20.000000)">
                        <g id="通路管理-copy-24" transform="translate(450.000000, 90.000000)">
                            <g id="選單展開" transform="translate(20.000000, 0.000000)">
                                <path d="M12.2419355,13.5 L26.7580645,13.5 C26.891129,13.5 27,13.35 27,13.1666667 L27,10.8333333 C27,10.65 26.891129,10.5 26.7580645,10.5 L12.2419355,10.5 C12.108871,10.5 12,10.65 12,10.8333333 L12,13.1666667 C12,13.35 12.108871,13.5 12.2419355,13.5 Z M12,19.1666667 C12,19.35 12.108871,19.5 12.2419355,19.5 L26.7580645,19.5 C26.891129,19.5 27,19.35 27,19.1666667 L27,16.8333333 C27,16.65 26.891129,16.5 26.7580645,16.5 L12.2419355,16.5 C12.108871,16.5 12,16.65 12,16.8333333 L12,19.1666667 Z M26.76,3 L3.24,3 C3.108,3 3,3.15 3,3.33333333 L3,5.66666667 C3,5.85 3.108,6 3.24,6 L26.76,6 C26.892,6 27,5.85 27,5.66666667 L27,3.33333333 C27,3.15 26.892,3 26.76,3 Z M26.76,24 L3.24,24 C3.108,24 3,24.15 3,24.3333333 L3,26.6666667 C3,26.85 3.108,27 3.24,27 L26.76,27 C26.892,27 27,26.85 27,26.6666667 L27,24.3333333 C27,24.15 26.892,24 26.76,24 Z M8.62774666,19.4346124 L4.58724688,15.2389297 C4.47091771,15.1196374 4.47091771,14.8878694 4.58724688,14.7651687 L8.62774666,10.5660777 C8.77768203,10.4092934 9,10.5490359 9,10.801254 L9,19.1960277 C9,19.4482458 8.78026713,19.5913966 8.62774666,19.4346124 L8.62774666,19.4346124 Z" id="Shape"></path>
                            </g>
                        </g>
                    </g>
                </g>
            </g>
        </g>
    </g>
</svg>