<?xml version="1.0" encoding="UTF-8"?>
<svg width="26px" height="26px" viewBox="0 0 26 26" version="1.1" xmlns="http://www.w3.org/2000/svg" xmlns:xlink="http://www.w3.org/1999/xlink">
    <title>還貨單</title>
    <g id="XXXGuideline" stroke="none" stroke-width="1" fill="none" fill-rule="evenodd">
        <g id="Guideline_圖標" transform="translate(-242.000000, -2522.000000)" fill="#7F7F7F">
            <g id="04" transform="translate(70.000000, 2155.000000)">
                <g id="流程圖" transform="translate(40.000000, 75.000000)">
                    <g id="icon" transform="translate(20.000000, 20.000000)">
                        <g id="通路管理-copy-35" transform="translate(90.000000, 270.000000)">
                            <g id="還貨單" transform="translate(20.000000, 0.000000)">
                                <path d="M22.0631367,16.526618 C25.1163234,16.526618 27.6002461,19.0105406 27.6002461,22.0637273 C27.6002461,25.1169141 25.1163234,27.6008367 22.0631367,27.6008367 C19.00995,27.6008367 16.5260273,25.1169141 16.5260273,22.0637273 C16.5260273,19.0105406 19.00995,16.526618 22.0631367,16.526618 Z M24.7518527,20.0192051 C24.463538,19.7308904 23.9960881,19.7308884 23.707771,20.0192007 L23.707771,20.0192007 L21.3067617,22.4201695 L20.1131824,21.2265902 C19.8248684,20.9382762 19.3574191,20.9382762 19.0691051,21.2265902 C18.7807911,21.5149042 18.7807911,21.9823536 19.0691051,22.2706676 L19.0691051,22.2706676 L20.7410763,23.9426388 C21.0534979,24.2550533 21.5600271,24.2550549 21.8724507,23.9426423 L21.8724507,23.9426423 L24.7518495,21.0632792 L24.7518495,21.0632792 L24.8233351,20.9804732 C25.0377822,20.6914539 25.0139547,20.2813071 24.7518527,20.0192051 Z M9.57816094,6.30462187 L9.57816094,10.9178953 L12.6911977,9.54006562 L15.8042344,10.9178953 L15.8042344,6.30462187 L22.9818047,6.30462187 L22.9818047,15.11025 C22.6810781,15.0707273 22.3744945,15.0500555 22.0631367,15.0500555 C18.1957734,15.0500555 15.0494648,18.1963641 15.0494648,22.0637273 C15.0494648,22.2710039 15.0586086,22.4762023 15.0763857,22.6789581 L15.1094625,22.9812141 L2.40059062,22.9812141 L2.40059062,6.30462187 L9.57816094,6.30462187 Z M7.93838906,19.0765922 L4.77864375,19.0765922 L4.77864375,20.5531547 L7.93838906,20.5531547 L7.93838906,19.0765922 Z M9.52155937,15.9102516 L4.77864375,15.9102516 L4.77864375,17.3868141 L9.52155937,17.3868141 L9.52155937,15.9102516 Z M14.3276719,2.4 L14.3276719,8.64969844 L12.6911977,7.92539531 L11.0547234,8.64969844 L11.0547234,2.4 L14.3276719,2.4 Z M9.57816094,2.4 L9.57816094,4.82805937 L2.40059062,4.82805937 L2.40059062,2.4 L9.57816094,2.4 Z M22.9818047,2.4 L22.9818047,4.82805937 L15.8042344,4.82805937 L15.8042344,2.4 L22.9818047,2.4 Z" id="Combined-Shape"></path>
                            </g>
                        </g>
                    </g>
                </g>
            </g>
        </g>
    </g>
</svg>