<?xml version="1.0" encoding="UTF-8"?>
<svg width="30px" height="26px" viewBox="0 0 30 26" version="1.1" xmlns="http://www.w3.org/2000/svg" xmlns:xlink="http://www.w3.org/1999/xlink">
    <title>配送方式</title>
    <g id="XXXGuideline" stroke="none" stroke-width="1" fill="none" fill-rule="evenodd">
        <g id="Guideline_圖標" transform="translate(-770.000000, -1867.000000)" fill="#7F7F7F" fill-rule="nonzero">
            <g id="03" transform="translate(70.000000, 1675.000000)">
                <g id="動作-Icon" transform="translate(40.000000, 80.000000)">
                    <g id="icon" transform="translate(10.000000, 20.000000)">
                        <g id="通路管理-copy-15" transform="translate(630.000000, 90.000000)">
                            <g id="Group" transform="translate(20.000000, 0.000000)">
                                <g id="Group" transform="translate(0.000000, 2.250000)">
                                    <path d="M17.1785714,0.714285714 C18.3620387,0.714285714 19.3214286,1.67367554 19.3214286,2.85714286 L19.3214286,2.85714286 L19.321,7.49928571 L25.0357143,7.5 C25.4251472,7.5 25.7797054,7.71075212 25.9679652,8.0432783 L26.0305107,8.17350999 L29.2447965,16.2092243 C29.2785451,16.2935959 29.3013543,16.381744 29.3128105,16.471522 L29.3214286,16.6071429 L29.3214286,21.0714286 C29.3214286,21.6138511 28.9183516,22.0621299 28.3953865,22.1330763 L28.25,22.1428571 L26.0423529,22.1429263 C25.7064279,23.9715478 24.1043112,25.3571429 22.1785714,25.3571429 C20.2528317,25.3571429 18.650715,23.9715478 18.3147899,22.1429263 L11.7566386,22.1429263 C11.4207136,23.9715478 9.8185969,25.3571429 7.89285714,25.3571429 C5.96711739,25.3571429 4.3650007,23.9715478 4.02907564,22.1429263 L1.82142857,22.1428571 C1.27900605,22.1428571 0.830727199,21.7397802 0.75978088,21.2168151 L0.75,21.0714286 L0.75,15.7142857 C0.75,15.6119692 0.764341805,15.5130024 0.791124776,15.419286 C0.764177133,15.2844173 0.75,15.1438643 0.75,15 L0.75,15 L0.75,2.85714286 C0.75,1.67367554 1.70938982,0.714285714 2.89285714,0.714285714 L2.89285714,0.714285714 Z M7.89285714,19.6428571 C6.90663438,19.6428571 6.10714286,20.4423487 6.10714286,21.4285714 C6.10714286,22.4147942 6.90663438,23.2142857 7.89285714,23.2142857 C8.87907991,23.2142857 9.67857143,22.4147942 9.67857143,21.4285714 C9.67857143,20.4423487 8.87907991,19.6428571 7.89285714,19.6428571 Z M22.1785714,19.6428571 C21.1923487,19.6428571 20.3928571,20.4423487 20.3928571,21.4285714 C20.3928571,22.4147942 21.1923487,23.2142857 22.1785714,23.2142857 C23.1647942,23.2142857 23.9642857,22.4147942 23.9642857,21.4285714 C23.9642857,20.4423487 23.1647942,19.6428571 22.1785714,19.6428571 Z M17.5360841,17.1131671 C17.4198217,17.1326932 17.3003835,17.1428571 17.1785714,17.1428571 L17.1785714,17.1428571 L2.89285714,17.1428571 L2.89285714,17.1428571 L2.89285714,20 L4.23245307,19.9990968 C4.80416396,18.5362317 6.22749811,17.5 7.89285714,17.5 C9.55821618,17.5 10.9815503,18.5362317 11.5532612,19.9990968 L17.5357143,20 Z M21.107,9.64228571 L19.6771429,9.64285714 L19.678,15.7062857 L19.6786106,18.3979406 C20.3093555,17.8770467 21.105465,17.54926 21.9764077,17.5051118 L22.1785714,17.5 C23.8435495,17.5 25.2666135,18.5357578 25.8385831,19.9980931 L27.1785714,19.9985714 L27.1785714,16.8157143 L26.595,15.3562857 L22.1785714,15.3571429 C21.6361489,15.3571429 21.1878701,14.9540659 21.1169237,14.4311008 L21.1071429,14.2857143 L21.107,9.64228571 Z M17.1785714,2.85714286 L2.89285714,2.85714286 L2.892,14.6422857 L17.178,14.6422857 L17.1785714,2.85714286 Z M24.31,9.64285714 L23.249,9.64228571 L23.25,13.2142857 L25.738,13.2142857 L24.31,9.64285714 Z" id="Combined-Shape"></path>
                                </g>
                            </g>
                        </g>
                    </g>
                </g>
            </g>
        </g>
    </g>
</svg>