<?xml version="1.0" encoding="UTF-8"?>
<svg width="24px" height="28px" viewBox="0 0 24 28" version="1.1" xmlns="http://www.w3.org/2000/svg" xmlns:xlink="http://www.w3.org/1999/xlink">
    <title>重新整理</title>
    <g id="XXXGuideline" stroke="none" stroke-width="1" fill="none" fill-rule="evenodd">
        <g id="Guideline_圖標" transform="translate(-503.000000, -1016.000000)" fill="#7F7F7F">
            <g id="02" transform="translate(70.000000, 915.000000)">
                <g id="登入-Icon" transform="translate(40.000000, 80.000000)">
                    <g id="icon" transform="translate(10.000000, 20.000000)">
                        <g id="訂單管理-copy" transform="translate(360.000000, 0.000000)">
                            <g id="重新整理" transform="translate(20.000000, 0.000000)">
                                <path d="M24.4350972,12.977638 C24.4350972,10.4296777 23.4543819,8.03585332 21.670414,6.23655298 C19.8895596,4.43410701 17.5202759,3.44323357 14.9984365,3.44323357 C12.4765971,3.44323357 10.1073134,4.43410701 8.32645891,6.23655298 C6.54249104,8.03899895 5.56177572,10.4328234 5.56177572,12.977638 C5.56177572,15.5224526 6.54249104,17.9194227 8.32645891,19.718723 C10.1104268,21.521169 12.4797105,22.5120424 14.9984365,22.5120424 C15.0077766,22.5120424 12.965398,19.7973638 12.965398,19.7973638 C12.5699985,19.2751892 12.6665134,18.5296749 13.1833348,18.1333255 C13.3981581,17.9666071 13.6472287,17.8879664 13.8962993,17.8879664 C14.2481114,17.8879664 14.5999236,18.0483935 14.8303138,18.3535196 L18.5258982,23.2261004 C18.9212978,23.748275 18.8247829,24.4937893 18.3079615,24.8901387 L13.4106117,28.6837684 C12.8937903,29.0832634 12.1559187,28.9826033 11.7636326,28.4635743 C11.3682331,27.9413997 11.4647479,27.1958854 11.9815693,26.7995361 L14.4629348,24.8775562 C13.0619129,24.8146436 11.701365,24.5063718 10.4124248,23.9527409 C9.00828956,23.3519256 7.74736986,22.4931686 6.66702632,21.401635 C5.58356939,20.3069558 4.73361612,19.0329757 4.14207354,17.6174422 C3.52562391,16.148433 3.21428571,14.5882005 3.21428571,12.9807836 C3.21428571,11.3733667 3.52562391,9.81313425 4.14207354,8.34412505 C4.7367295,6.92544594 5.58668278,5.6514658 6.66702632,4.5599322 C7.75048325,3.46525298 9.01140295,2.60649599 10.4124248,2.0088263 C11.8663742,1.38599157 13.4106117,1.07142857 15.0015499,1.07142857 C16.592488,1.07142857 18.1367255,1.38599157 19.5906749,2.0088263 C20.9916968,2.60335036 22.2526165,3.46210735 23.33296,4.55364094 C24.4164169,5.64832017 25.2663702,6.92230031 25.8579128,8.33783379 C26.4743624,9.80684299 26.7857006,11.3670754 26.7857006,12.9744924 C26.788814,13.631929 26.2595391,14.1666861 25.6119556,14.1666861 C24.9612588,14.1666861 24.4350972,13.6350747 24.4350972,12.977638 Z" id="Shape" transform="translate(15.000000, 15.000000) scale(1, -1) translate(-15.000000, -15.000000) "></path>
                            </g>
                        </g>
                    </g>
                </g>
            </g>
        </g>
    </g>
</svg>