<?xml version="1.0" encoding="UTF-8"?>
<svg width="27px" height="29px" viewBox="0 0 27 29" version="1.1" xmlns="http://www.w3.org/2000/svg" xmlns:xlink="http://www.w3.org/1999/xlink">
    <title>重新送審</title>
    <g id="XXXGuideline" stroke="none" stroke-width="1" fill="none" fill-rule="evenodd">
        <g id="Guideline_圖標" transform="translate(-322.000000, -1865.000000)" fill="#7F7F7F">
            <g id="03" transform="translate(70.000000, 1675.000000)">
                <g id="動作-Icon" transform="translate(40.000000, 80.000000)">
                    <g id="icon" transform="translate(10.000000, 20.000000)">
                        <g id="通路管理-copy-10" transform="translate(180.000000, 90.000000)">
                            <g id="重新送審" transform="translate(20.000000, 0.000000)">
                                <path d="M21.7602732,15 C22.7945444,15 23.7529522,15.2132605 24.6363395,15.6389385 C25.5197268,16.0646166 26.2724605,16.6437073 26.8945405,17.3753678 C27.1255024,17.2050966 27.3185327,17.0567415 27.4744741,16.9319883 C27.6304156,16.8063922 27.7281951,16.7288429 27.7678127,16.6984976 C27.8285034,16.6487649 27.8934088,16.6108332 27.9633717,16.5855454 C28.0333346,16.5602576 28.0990829,16.5602576 28.1589307,16.5855454 C28.2187785,16.6108332 28.2718829,16.6630946 28.317401,16.7431727 C28.362919,16.8232507 28.3949502,16.9437893 28.4151805,17.1039454 C28.4252956,17.1941385 28.4354107,17.3467083 28.4455259,17.5624976 C28.455641,17.7782868 28.4657561,18.0286361 28.4758712,18.3143883 C28.4859863,18.6001405 28.4910439,18.8960078 28.4910439,19.2011473 C28.4910439,19.5071298 28.4859863,19.7954107 28.4758712,20.0659902 C28.4657561,20.4065327 28.385678,20.6526673 28.2347941,20.8027083 C28.1538732,20.8836293 28.0333346,20.9291473 27.8731785,20.9392624 C27.7121795,20.9493776 27.5419083,20.9342049 27.361522,20.8937444 C27.0900995,20.8338966 26.7917034,20.7689912 26.4654907,20.6981854 C26.139278,20.6282224 25.828238,20.5557307 25.5323707,20.4798673 C25.2365034,20.4048468 24.9751961,20.334041 24.7492917,20.2691356 C24.5233873,20.2050732 24.3800898,20.1570263 24.319399,20.1275239 C24.1491278,20.0474459 24.0707356,19.9395512 24.0859083,19.80384 C24.101081,19.6681288 24.1584,19.5610771 24.2587083,19.4801561 C24.2890537,19.4599259 24.3868332,19.3823766 24.5520468,19.2475083 C24.7172605,19.1117971 24.9212488,18.9491122 25.1614829,18.7586107 C24.7400195,18.2772995 24.2376351,17.8988254 23.6560156,17.6231883 C23.075239,17.3483941 22.4430439,17.2101541 21.7602732,17.2101541 C21.128078,17.2101541 20.5355005,17.3281639 19.9833834,17.5633405 C19.4312663,17.79936 18.9491122,18.122201 18.5377639,18.5335493 C18.1264156,18.9440546 17.8027317,19.4253659 17.5667122,19.97664 C17.3306927,20.5279141 17.2126829,21.1196488 17.2126829,21.751001 C17.2126829,22.372238 17.3306927,22.9589151 17.5667122,23.5101893 C17.8027317,24.0614634 18.1264156,24.5427746 18.5377639,24.95328 C18.9491122,25.3646283 19.4312663,25.6874693 19.9833834,25.9226459 C20.5355005,26.1578224 21.1272351,26.2758322 21.7602732,26.2758322 C22.2820449,26.2758322 22.7768429,26.1932254 23.2429815,26.0280117 C23.7099629,25.862798 24.1364839,25.6293073 24.5225444,25.3292254 C24.9086049,25.0283005 25.2398751,24.6751141 25.5163551,24.2688234 C25.7919922,23.8625327 25.9959805,23.4191532 26.1257912,22.937842 C26.1957541,22.7077229 26.3264078,22.5172215 26.5169093,22.3663376 C26.7074107,22.2162966 26.9333151,22.1404332 27.1946224,22.1404332 C27.5056624,22.1404332 27.7694985,22.2508566 27.9852878,22.4717034 C28.2010771,22.6917073 28.3089717,22.9530146 28.3089717,23.2530966 C28.3089717,23.3930224 28.2836839,23.5287337 28.2339512,23.6593873 C28.0232195,24.3607024 27.7121795,25.0072273 27.3008312,25.598962 C26.8894829,26.1906966 26.3997424,26.6989815 25.8324527,27.1246595 C25.2651629,27.5503376 24.6354966,27.8841366 23.9426107,28.1243707 C23.2505678,28.3662907 22.523122,28.4868293 21.7602732,28.4868293 C20.8271532,28.4868293 19.9488234,28.3115005 19.1252839,27.9608429 C18.3025873,27.6101854 17.5869424,27.1288741 16.9800351,26.5177522 C16.3731278,25.9066302 15.8909737,25.1918283 15.5344156,24.3750322 C15.1778576,23.5582361 15,22.683278 15,21.751001 C15,20.8187239 15.1778576,19.94208 15.5344156,19.1193834 C15.8909737,18.2975298 16.3722849,17.5835707 16.9800351,16.9766634 C17.5869424,16.370599 18.3025873,15.8892878 19.1252839,15.5335727 C19.9479805,15.1778576 20.8263102,15 21.7602732,15 Z M24.6354167,0.807291667 C25.2115885,0.807291667 25.6770833,1.27278646 25.6770833,1.84895833 L25.6770833,1.84895833 L25.6770833,12.8489583 C25.6770833,12.9921875 25.5598958,13.109375 25.4166667,13.109375 L25.4166667,13.109375 L23.59375,13.109375 C23.4505208,13.109375 23.3333333,12.9921875 23.3333333,12.8489583 L23.3333333,12.8489583 L23.3333333,3.15104167 L5.10416667,3.15104167 L5.10416667,26.0677083 L14.15625,26.0677083 C14.2994792,26.0677083 14.4166667,26.1848958 14.4166667,26.328125 L14.4166667,26.328125 L14.4166667,28.1510417 C14.4166667,28.2942708 14.2994792,28.4114583 14.15625,28.4114583 L14.15625,28.4114583 L3.80208333,28.4114583 C3.22591146,28.4114583 2.76041667,27.9459635 2.76041667,27.3697917 L2.76041667,27.3697917 L2.76041667,1.84895833 C2.76041667,1.27278646 3.22591146,0.807291667 3.80208333,0.807291667 L3.80208333,0.807291667 Z M13.9583333,11.3541667 C14.1015625,11.3541667 14.21875,11.4713542 14.21875,11.6145833 L14.21875,11.6145833 L14.21875,13.1770833 C14.21875,13.3203125 14.1015625,13.4375 13.9583333,13.4375 L13.9583333,13.4375 L7.96875,13.4375 C7.82552083,13.4375 7.70833333,13.3203125 7.70833333,13.1770833 L7.70833333,13.1770833 L7.70833333,11.6145833 C7.70833333,11.4713542 7.82552083,11.3541667 7.96875,11.3541667 L7.96875,11.3541667 Z M20.46875,6.66666667 C20.6119792,6.66666667 20.7291667,6.78385417 20.7291667,6.92708333 L20.7291667,6.92708333 L20.7291667,8.48958333 C20.7291667,8.6328125 20.6119792,8.75 20.46875,8.75 L20.46875,8.75 L7.96875,8.75 C7.82552083,8.75 7.70833333,8.6328125 7.70833333,8.48958333 L7.70833333,8.48958333 L7.70833333,6.92708333 C7.70833333,6.78385417 7.82552083,6.66666667 7.96875,6.66666667 L7.96875,6.66666667 Z" id="Combined-Shape"></path>
                            </g>
                        </g>
                    </g>
                </g>
            </g>
        </g>
    </g>
</svg>