<?xml version="1.0" encoding="UTF-8"?>
<svg width="30px" height="30px" viewBox="0 0 30 30" version="1.1" xmlns="http://www.w3.org/2000/svg" xmlns:xlink="http://www.w3.org/1999/xlink">
    <title>重整</title>
    <defs>
        <path d="M28.9833984,15.0029297 C28.4033203,14.9589844 27.8964844,15.3955078 27.8525391,15.9755859 C27.609375,19.2099609 26.1650391,22.2128906 23.7861328,24.4306641 C21.3925781,26.6630859 18.2724609,27.890625 15,27.890625 C12.4511719,27.890625 9.98730469,27.1494141 7.875,25.7431641 C6.01757812,24.5097656 4.52050781,22.8310547 3.515625,20.859375 L6.4453125,20.859375 C7.02832031,20.859375 7.5,20.3876953 7.5,19.8046875 C7.5,19.2216797 7.02832031,18.75 6.4453125,18.75 L1.0546875,18.75 C0.471679688,18.75 0,19.2216797 0,19.8046875 L0,25.1953125 C0,25.7783203 0.471679688,26.25 1.0546875,26.25 C1.63769531,26.25 2.109375,25.7783203 2.109375,25.1953125 L2.109375,22.6757812 C3.25488281,24.6005859 4.82226562,26.2470703 6.70605469,27.5009766 C9.16699219,29.1357422 12.0322266,30 15,30 C18.8085938,30 22.4414062,28.5703125 25.2246094,25.9746094 C27.9960937,23.3935547 29.6748047,19.8984375 29.9560547,16.1337891 C30,15.5537109 29.5664062,15.046875 28.9833984,15.0029297 Z M28.9453125,3.75 C28.3623047,3.75 27.890625,4.22167969 27.890625,4.8046875 L27.890625,7.32421875 C26.7451172,5.39941406 25.1777344,3.75292969 23.2910156,2.49902344 C20.8330078,0.864257812 17.9648438,0 15,0 C11.1914063,0 7.55859375,1.4296875 4.77539063,4.02539062 C2.00390625,6.60644531 0.325195312,10.1015625 0.041015625,13.8662109 C-0.0029296875,14.4462891 0.43359375,14.953125 1.01367188,14.9970703 C1.04003906,15 1.06640625,15 1.09277344,15 C1.640625,15 2.10058594,14.578125 2.14453125,14.0244141 C2.38769531,10.7900391 3.83203125,7.78710937 6.2109375,5.56933594 C8.60742188,3.33691406 11.7275391,2.109375 15,2.109375 C17.5488281,2.109375 20.0126953,2.85058594 22.125,4.25683594 C23.9824219,5.49023438 25.4794922,7.16894531 26.484375,9.140625 L23.5546875,9.140625 C22.9716797,9.140625 22.5,9.61230469 22.5,10.1953125 C22.5,10.7783203 22.9716797,11.25 23.5546875,11.25 L28.9453125,11.25 C29.5283203,11.25 30,10.7783203 30,10.1953125 L30,4.8046875 C30,4.22167969 29.5283203,3.75 28.9453125,3.75 Z" id="path-1"></path>
    </defs>
    <g id="XXXGuideline" stroke="none" stroke-width="1" fill="none" fill-rule="evenodd">
        <g id="Guideline_圖標" transform="translate(-410.000000, -1335.000000)">
            <g id="02" transform="translate(70.000000, 915.000000)">
                <g id="網站通用-Icon" transform="translate(40.000000, 400.000000)">
                    <g id="icon" transform="translate(10.000000, 20.000000)">
                        <g id="通路管理-copy-2" transform="translate(270.000000, 0.000000)">
                            <g id="重整" transform="translate(20.000000, 0.000000)">
                                <mask id="mask-2" fill="white">
                                    <use xlink:href="#path-1"></use>
                                </mask>
                                <use id="Mask" fill="#7F7F7F" xlink:href="#path-1"></use>
                            </g>
                        </g>
                    </g>
                </g>
            </g>
        </g>
    </g>
</svg>