<?xml version="1.0" encoding="UTF-8"?>
<svg width="24px" height="24px" viewBox="0 0 24 24" version="1.1" xmlns="http://www.w3.org/2000/svg" xmlns:xlink="http://www.w3.org/1999/xlink">
    <title>釘選</title>
    <g id="XXXGuideline" stroke="none" stroke-width="1" fill="none" fill-rule="evenodd">
        <g id="Guideline_圖標" transform="translate(-593.000000, -1518.000000)" fill="#7F7F7F">
            <g id="02" transform="translate(70.000000, 915.000000)">
                <g id="網站通用-Icon" transform="translate(40.000000, 400.000000)">
                    <g id="icon" transform="translate(10.000000, 20.000000)">
                        <g id="通路管理-copy-22" transform="translate(450.000000, 180.000000)">
                            <g id="釘選" transform="translate(20.000000, 0.000000)">
                                <path d="M3.32708689,26.6729131 C2.89097104,26.2367973 2.89097104,25.5826235 3.32708689,25.1465077 L9.16013628,19.3134583 L4.41737648,14.5706985 C4.14480407,14.298126 4.03577513,13.8620102 4.1448041,13.4804089 C4.25383306,13.0988075 4.58091995,12.8262351 4.9625213,12.7172061 L10.1413969,11.7359455 L15.1567291,6.72061327 L16.7376491,3.61328789 C16.9011925,3.286201 17.1737649,3.06814309 17.5553663,3.01362862 C17.8824532,2.95911415 18.2640545,3.06814309 18.4821124,3.3407155 L26.6592845,11.5178876 C26.9318569,11.79046 27.0408859,12.1175469 26.9863714,12.4446337 C26.9318569,12.7717206 26.713799,13.0988075 26.3867121,13.2623509 L23.2793867,14.8432709 L18.2640545,19.8586031 L17.2827939,25.0374787 C17.2282794,25.4190801 16.9011925,25.7461669 16.5195911,25.8551959 C16.4105622,25.9097104 16.3015332,25.9097104 16.1925043,25.9097104 C15.9199318,25.9097104 15.6473595,25.8006814 15.4293015,25.5826235 L10.6865417,20.8398637 L4.85349233,26.6729131 C4.63543442,26.890971 4.36286201,27 4.0902896,27 C3.81771719,27 3.5451448,26.890971 3.32708689,26.6729131 Z" id="Shape"></path>
                            </g>
                        </g>
                    </g>
                </g>
            </g>
        </g>
    </g>
</svg>