<?xml version="1.0" encoding="UTF-8"?>
<svg width="24px" height="28px" viewBox="0 0 24 28" version="1.1" xmlns="http://www.w3.org/2000/svg" xmlns:xlink="http://www.w3.org/1999/xlink">
    <title>銷售明細</title>
    <g id="XXXGuideline" stroke="none" stroke-width="1" fill="none" fill-rule="evenodd">
        <g id="Guideline_圖標" transform="translate(-153.000000, -2881.000000)" fill="#7F7F7F">
            <g id="04" transform="translate(70.000000, 2155.000000)">
                <g id="流程圖" transform="translate(40.000000, 75.000000)">
                    <g id="icon" transform="translate(20.000000, 20.000000)">
                        <g id="01" transform="translate(0.000000, 630.000000)">
                            <g id="銷售明細" transform="translate(20.000000, 0.000000)">
                                <path d="M24.6,1.8 C25.5941125,1.8 26.4,2.60588745 26.4,3.6 L26.4,3.6 L26.4,26.4 C26.4,27.3941125 25.5941125,28.2 24.6,28.2 L24.6,28.2 L5.4,28.2 C4.40588745,28.2 3.6,27.3941125 3.6,26.4 L3.6,26.4 L3.6,3.6 C3.6,2.60588745 4.40588745,1.8 5.4,1.8 L5.4,1.8 Z M22.8,23.4 L7.2,23.4 L7.2,24.6 L22.8,24.6 L22.8,23.4 Z M22.8,20.4 L7.2,20.4 L7.2,21.6 L22.8,21.6 L22.8,20.4 Z M13.1849253,8.27661315 L9,8.27661315 L9,18 L21,18 L21,8.27661315 L16.8150747,8.27661315 L16.8150747,10.9664098 L15,10.163058 L13.1849253,10.9664098 L13.1849253,8.27661315 Z M12.2288465,15.7233869 L12.2288465,16.5843055 L10.3865381,16.5843055 L10.3865381,15.7233869 L12.2288465,15.7233869 Z M13.1519234,13.877233 L13.1519234,14.7381516 L10.3865381,14.7381516 L10.3865381,13.877233 L13.1519234,13.877233 Z M15.9541561,6 L14.0458439,6 L14.0458439,9.64392407 L15,9.2216148 L15.9541561,9.64392407 L15.9541561,6 Z M13.1849253,6 L9,6 L9,7.41569455 L13.1849253,7.41569455 L13.1849253,6 Z M21,6 L16.8150747,6 L16.8150747,7.41569455 L21,7.41569455 L21,6 Z" id="Combined-Shape"></path>
                            </g>
                        </g>
                    </g>
                </g>
            </g>
        </g>
    </g>
</svg>