<?xml version="1.0" encoding="UTF-8"?>
<svg width="24px" height="28px" viewBox="0 0 24 28" version="1.1" xmlns="http://www.w3.org/2000/svg" xmlns:xlink="http://www.w3.org/1999/xlink">
    <title>銷售統計</title>
    <g id="XXXGuideline" stroke="none" stroke-width="1" fill="none" fill-rule="evenodd">
        <g id="Guideline_圖標" transform="translate(-243.000000, -2881.000000)" fill="#7F7F7F">
            <g id="04" transform="translate(70.000000, 2155.000000)">
                <g id="流程圖" transform="translate(40.000000, 75.000000)">
                    <g id="icon" transform="translate(20.000000, 20.000000)">
                        <g id="02" transform="translate(90.000000, 630.000000)">
                            <g id="銷售統計" transform="translate(20.000000, 0.000000)">
                                <path d="M24.6,1.8 C25.5941125,1.8 26.4,2.60588745 26.4,3.6 L26.4,3.6 L26.4,26.4 C26.4,27.3941125 25.5941125,28.2 24.6,28.2 L24.6,28.2 L5.4,28.2 C4.40588745,28.2 3.6,27.3941125 3.6,26.4 L3.6,26.4 L3.6,3.6 C3.6,2.60588745 4.40588745,1.8 5.4,1.8 L5.4,1.8 Z M22.8,23.4 L7.2,23.4 L7.2,24.6 L22.8,24.6 L22.8,23.4 Z M22.8,20.4 L7.2,20.4 L7.2,21.6 L22.8,21.6 L22.8,20.4 Z M20.7749742,9.79998281 L19.1249742,9.79998281 L19.0695742,9.80557342 C18.9442972,9.8312317 18.8499656,9.94216641 18.8499656,10.0749914 L18.8499656,10.0749914 L18.8499656,18.0499828 L17.749957,18.0499828 L17.749957,13.3749914 L17.7443664,13.3195914 C17.7187081,13.1943144 17.6077734,13.0999828 17.4749484,13.0999828 L17.4749484,13.0999828 L15.8249484,13.0999828 L15.7695485,13.1055734 C15.6442714,13.1312317 15.5499398,13.2421664 15.5499398,13.3749914 L15.5499398,13.3749914 L15.5499398,18.0499828 L14.4499313,18.0499828 L14.4499313,12.2749828 L14.4443406,12.2195828 C14.4186824,12.0943058 14.3077477,11.9999742 14.1749227,11.9999742 L14.1749227,11.9999742 L12.5249227,11.9999742 L12.4695227,12.0055648 C12.3442456,12.0312231 12.2499141,12.1421578 12.2499141,12.2749828 L12.2499141,12.2749828 L12.2499141,18.0499828 L11.1499055,18.0499828 L11.1499055,15.0249914 L11.1443149,14.9695914 C11.1186566,14.8443144 11.0077219,14.7499828 10.8748969,14.7499828 L10.8748969,14.7499828 L9.225,14.7499828 L9.16960002,14.7555734 C9.04432299,14.7812317 8.94999141,14.8921664 8.94999141,15.0249914 L8.94999141,15.0249914 L8.94999141,18.0499828 L8.67500859,18.0499828 L8.61960862,18.0555808 C8.49433158,18.0812514 8.4,18.1921664 8.4,18.3249914 C8.4,18.4767914 8.52320859,18.6 8.67500859,18.6 L8.67500859,18.6 L21.3249914,18.6 L21.3803914,18.5944094 C21.5056684,18.5687511 21.6,18.4578164 21.6,18.3249914 C21.6,18.1731914 21.4767914,18.0500086 21.3249914,18.0500086 L21.3249914,18.0500086 L21.0499828,18.0500086 L21.0499828,10.0749914 L21.0443922,10.0195914 C21.0187339,9.89431439 20.9077992,9.79998281 20.7749742,9.79998281 L20.7749742,9.79998281 Z M19.9499914,5.4 C19.3433414,5.4 18.8499914,5.89335 18.8499914,6.50000859 C18.8499914,6.7035 18.9093914,6.8916 19.0056328,7.05551719 L19.0056328,7.05551719 L17.2054828,8.85566719 L17.1043135,8.8025112 C16.9657357,8.738016 16.8127931,8.7 16.65,8.7 C16.30515,8.7 16.0004414,8.86280859 15.7986,9.11195859 L15.7986,9.11195859 L14.44725,8.7264 L14.4500086,8.7 L14.4449647,8.59419617 C14.3915753,8.03700732 13.9209728,7.59999141 13.35,7.59999141 C12.7433414,7.59999141 12.2499914,8.09334141 12.2499914,8.7 C12.2499914,8.86005 12.28575,9.01074141 12.3473414,9.14769141 L12.3473414,9.14769141 L10.6285828,10.5188414 L10.5242265,10.4607315 C10.3807095,10.3904745 10.22028,10.35 10.05,10.35 C9.44334141,10.35 8.94999141,10.84335 8.94999141,11.4500086 C8.94999141,12.0566672 9.44334141,12.5500172 10.05,12.5500172 C10.6566586,12.5500172 11.1500086,12.0566672 11.1500086,11.4500086 C11.1500086,11.2569586 11.0955586,11.07765 11.0075672,10.9198172 L11.0075672,10.9198172 L12.6922172,9.57617578 L12.7877349,9.6408829 C12.9524216,9.74082702 13.1437758,9.80003438 13.3500258,9.80003438 C13.7531672,9.80003438 14.1029672,9.57947578 14.2943672,9.25499297 L14.2943672,9.25499297 L15.5687086,9.61853438 L15.5554474,9.7082499 L15.5500172,9.80003438 C15.5500172,10.406693 16.0433672,10.900043 16.6500258,10.900043 C17.2566844,10.900043 17.7500344,10.406693 17.7500344,9.80003438 C17.7500344,9.59654297 17.6906344,9.40844297 17.594393,9.24452578 L17.594393,9.24452578 L19.3950844,7.44383438 L19.4959895,7.49725457 C19.63429,7.56202697 19.7872327,7.60004297 19.9500258,7.60004297 C20.5566844,7.60004297 21.0500344,7.10669297 21.0500344,6.50003438 C21.0500344,5.89335 20.5566586,5.4 19.9499914,5.4 Z" id="Combined-Shape"></path>
                            </g>
                        </g>
                    </g>
                </g>
            </g>
        </g>
    </g>
</svg>