<?xml version="1.0" encoding="UTF-8"?>
<svg width="30px" height="30px" viewBox="0 0 30 30" version="1.1" xmlns="http://www.w3.org/2000/svg" xmlns:xlink="http://www.w3.org/1999/xlink">
    <title>錯誤</title>
    <g id="XXXGuideline" stroke="none" stroke-width="1" fill="none" fill-rule="evenodd">
        <g id="Guideline_圖標" transform="translate(-230.000000, -1515.000000)" fill="#7F7F7F">
            <g id="02" transform="translate(70.000000, 915.000000)">
                <g id="網站通用-Icon" transform="translate(40.000000, 400.000000)">
                    <g id="icon" transform="translate(10.000000, 20.000000)">
                        <g id="SKU管理-Copy-3" transform="translate(90.000000, 180.000000)">
                            <g id="錯誤" transform="translate(20.000000, 0.000000)">
                                <path d="M15,0 C23.2851562,0 30,6.71484375 30,15 C30,23.2851562 23.2851562,30 15,30 C6.71484375,30 0,23.2851562 0,15 C0,6.71484375 6.71484375,0 15,0 Z M21.4963675,7.37382949 C21.2233793,7.10084131 20.780778,7.10084131 20.5077898,7.37382949 L20.5077898,7.37382949 L15,12.881 L9.49221019,7.37382949 L9.40556456,7.30012268 C9.13239788,7.10357119 8.74932189,7.12814012 8.50363253,7.37382949 L8.50363253,7.37382949 L7.37382949,8.50363253 L7.30012268,8.59027815 C7.10357119,8.86344484 7.12814012,9.24652082 7.37382949,9.49221019 L7.37382949,9.49221019 L12.881,15 L7.37382949,20.5077898 C7.10084131,20.780778 7.10084131,21.2233793 7.37382949,21.4963675 L7.37382949,21.4963675 L8.50363253,22.6261705 C8.77662071,22.8991587 9.219222,22.8991587 9.49221019,22.6261705 L9.49221019,22.6261705 L15,17.118 L20.5077898,22.6261705 L20.5944354,22.6998773 C20.8676021,22.8964288 21.2506781,22.8718599 21.4963675,22.6261705 L21.4963675,22.6261705 L22.6261705,21.4963675 L22.6998773,21.4097219 C22.8964288,21.1365552 22.8718599,20.7534792 22.6261705,20.5077898 L22.6261705,20.5077898 L17.118,15 L22.6261705,9.49221019 C22.8991587,9.219222 22.8991587,8.77662071 22.6261705,8.50363253 L22.6261705,8.50363253 Z" id="Combined-Shape"></path>
                            </g>
                        </g>
                    </g>
                </g>
            </g>
        </g>
    </g>
</svg>