<?xml version="1.0" encoding="UTF-8"?>
<svg width="26px" height="28px" viewBox="0 0 26 28" version="1.1" xmlns="http://www.w3.org/2000/svg" xmlns:xlink="http://www.w3.org/1999/xlink">
    <title>開通</title>
    <g id="XXXGuideline" stroke="none" stroke-width="1" fill="none" fill-rule="evenodd">
        <g id="Guideline_圖標" transform="translate(-502.000000, -1866.000000)" fill="#7F7F7F">
            <g id="03" transform="translate(70.000000, 1675.000000)">
                <g id="動作-Icon" transform="translate(40.000000, 80.000000)">
                    <g id="icon" transform="translate(10.000000, 20.000000)">
                        <g id="通路管理-copy-12" transform="translate(360.000000, 90.000000)">
                            <g id="開通" transform="translate(20.000000, 0.000000)">
                                <path d="M26.04,1.50769426 C26.5764181,1.50769426 27.035724,1.86477564 27.1803123,2.37633571 L27.2140097,2.53423548 L27.225,2.69269426 L27.225,27.3422626 C27.225,27.8786807 26.8679186,28.3379866 26.3563586,28.482575 L26.1984588,28.5162724 L26.04,28.5272626 L3.96,28.5272626 C3.42358191,28.5272626 2.96427601,28.1701813 2.81968765,27.6586212 L2.78599028,27.5007214 L2.775,27.3422626 L2.775,2.69269426 C2.775,2.15627617 3.13208138,1.69697027 3.64364145,1.55238191 L3.80154122,1.51868454 L3.96,1.50769426 L26.04,1.50769426 Z M24.774,3.95719426 L5.2245,3.95719426 L5.2245,26.0762626 L24.774,26.0762626 L24.774,3.95719426 Z M10.545,18.51 C11.2905844,18.51 11.895,19.1144156 11.895,19.86 C11.895,20.6055844 11.2905844,21.21 10.545,21.21 C9.79941559,21.21 9.195,20.6055844 9.195,19.86 C9.195,19.1144156 9.79941559,18.51 10.545,18.51 Z M20.535,18.78 C20.6835,18.78 20.805,18.9015 20.805,19.05 L20.805,19.05 L20.805,20.67 C20.805,20.8185 20.6835,20.94 20.535,20.94 L20.535,20.94 L14.325,20.94 C14.1765,20.94 14.055,20.8185 14.055,20.67 L14.055,20.67 L14.055,19.05 C14.055,18.9015 14.1765,18.78 14.325,18.78 L14.325,18.78 Z M10.545,13.65 C11.2905844,13.65 11.895,14.2544156 11.895,15 C11.895,15.7455844 11.2905844,16.35 10.545,16.35 C9.79941559,16.35 9.195,15.7455844 9.195,15 C9.195,14.2544156 9.79941559,13.65 10.545,13.65 Z M20.535,13.92 C20.6835,13.92 20.805,14.0415 20.805,14.19 L20.805,14.19 L20.805,15.81 C20.805,15.9585 20.6835,16.08 20.535,16.08 L20.535,16.08 L14.325,16.08 C14.1765,16.08 14.055,15.9585 14.055,15.81 L14.055,15.81 L14.055,14.19 C14.055,14.0415 14.1765,13.92 14.325,13.92 L14.325,13.92 Z M10.545,8.79 C11.2905844,8.79 11.895,9.39441559 11.895,10.14 C11.895,10.8855844 11.2905844,11.49 10.545,11.49 C9.79941559,11.49 9.195,10.8855844 9.195,10.14 C9.195,9.39441559 9.79941559,8.79 10.545,8.79 Z M20.535,9.06 C20.6835,9.06 20.805,9.1815 20.805,9.33 L20.805,9.33 L20.805,10.95 C20.805,11.0985 20.6835,11.22 20.535,11.22 L20.535,11.22 L14.325,11.22 C14.1765,11.22 14.055,11.0985 14.055,10.95 L14.055,10.95 L14.055,9.33 C14.055,9.1815 14.1765,9.06 14.325,9.06 L14.325,9.06 Z" id="Combined-Shape"></path>
                            </g>
                        </g>
                    </g>
                </g>
            </g>
        </g>
    </g>
</svg>