<?xml version="1.0" encoding="UTF-8"?>
<svg width="20px" height="20px" viewBox="0 0 20 20" version="1.1" xmlns="http://www.w3.org/2000/svg" xmlns:xlink="http://www.w3.org/1999/xlink">
    <title>關閉</title>
    <defs>
        <path d="M16.6318359,14.9970703 L24.0966797,7.53808594 C24.5478516,7.08691406 24.5478516,6.35742188 24.0966797,5.90917969 C23.6455078,5.45800781 22.9160156,5.45800781 22.4677734,5.90917969 L15,13.3652344 L7.53222656,5.90625 C7.08105469,5.45507813 6.3515625,5.45507813 5.90332031,5.90625 C5.45214844,6.35742188 5.45214844,7.08691406 5.90332031,7.53515625 L13.3681641,14.9941406 L5.90332031,22.4560547 C5.45214844,22.9072266 5.45214844,23.6367188 5.90332031,24.0849609 C6.12890625,24.3105469 6.42480469,24.421875 6.71777344,24.421875 C7.01367188,24.421875 7.30664063,24.3105469 7.53222656,24.0849609 L15,16.6259766 L22.4677734,24.0878906 C22.6933594,24.3134766 22.9863281,24.4248047 23.2822266,24.4248047 C23.578125,24.4248047 23.8710938,24.3134766 24.0966797,24.0878906 C24.5478516,23.6367188 24.5478516,22.9072266 24.0966797,22.4589844 L16.6318359,14.9970703 Z" id="path-1"></path>
    </defs>
    <g id="XXXGuideline" stroke="none" stroke-width="1" fill="none" fill-rule="evenodd">
        <g id="Guideline_圖標" transform="translate(-325.000000, -1340.000000)">
            <g id="02" transform="translate(70.000000, 915.000000)">
                <g id="網站通用-Icon" transform="translate(40.000000, 400.000000)">
                    <g id="icon" transform="translate(10.000000, 20.000000)">
                        <g id="通路管理" transform="translate(180.000000, 0.000000)">
                            <g id="關閉" transform="translate(20.000000, 0.000000)">
                                <mask id="mask-2" fill="white">
                                    <use xlink:href="#path-1"></use>
                                </mask>
                                <use id="Mask" fill="#7F7F7F" xlink:href="#path-1"></use>
                            </g>
                        </g>
                    </g>
                </g>
            </g>
        </g>
    </g>
</svg>