<?xml version="1.0" encoding="UTF-8"?>
<svg width="28px" height="28px" viewBox="0 0 28 28" version="1.1" xmlns="http://www.w3.org/2000/svg" xmlns:xlink="http://www.w3.org/1999/xlink">
    <title>附件</title>
    <defs>
        <path d="M25.9189453,7.85742188 C24.5390625,6.49511719 22.7050781,5.73925781 20.7480469,5.73632812 L20.7275391,5.73632812 C19.7871094,5.73632812 18.8701172,5.91210938 17.9970703,6.2578125 C17.0917969,6.61816406 16.2773438,7.1484375 15.5800781,7.83691406 L8.75683594,14.5810547 C7.96875,15.3603516 7.53808594,16.4003906 7.54101563,17.5107422 C7.54394531,18.6181641 7.98046875,19.6582031 8.77148438,20.4404297 C9.5625,21.2226563 10.6113281,21.6533203 11.7304688,21.65625 L11.7392578,21.65625 C12.8554688,21.65625 13.9013672,21.2285156 14.6865234,20.4550781 L20.6748047,14.5371094 C20.8740234,14.3408203 20.9824219,14.0800781 20.9824219,13.8046875 C20.9824219,13.5263672 20.8740234,13.265625 20.6748047,13.0722656 C20.4785156,12.8759766 20.2148438,12.7705078 19.9365234,12.7705078 C19.6582031,12.7705078 19.3945313,12.8789063 19.1982422,13.0722656 L13.2099609,18.9902344 C12.8203125,19.3769531 12.2958984,19.5878906 11.7363281,19.5878906 L11.7333984,19.5878906 C11.1679688,19.5849609 10.6376953,19.3681641 10.2451172,18.9785156 C9.84960938,18.5859375 9.62988281,18.0644531 9.62988281,17.5078125 C9.62695313,16.9541016 9.84082031,16.4355469 10.2333984,16.0488281 L17.0566406,9.30175781 C18.0292969,8.33789063 19.3359375,7.80761719 20.7304688,7.80761719 L20.7451172,7.80761719 C22.1455078,7.81054688 23.4609375,8.34960938 24.4482422,9.32226563 C25.4326172,10.2978516 25.9775391,11.5957031 25.9804688,12.9785156 C25.9833984,14.3613281 25.4472656,15.65625 24.4716797,16.6201172 L17.2324219,23.7832031 C15.7851563,25.2070312 13.8515625,25.9921875 11.7890625,25.9921875 L11.7685547,25.9921875 C9.69726563,25.9863281 7.75195313,25.1894531 6.29296875,23.7480469 C4.83398438,22.3066406 4.02832031,20.3847656 4.02539063,18.3369141 C4.01953125,16.2890625 4.81640625,14.3730469 6.26367188,12.9433594 L15.609375,3.703125 C15.8085938,3.50683594 15.9169922,3.24609375 15.9169922,2.97070312 C15.9169922,2.69238281 15.8085938,2.43164062 15.609375,2.23828125 C15.4101563,2.04199219 15.1464844,1.93359375 14.8681641,1.93359375 C14.5898438,1.93359375 14.3261719,2.04199219 14.1298828,2.23535156 L4.78417969,11.4785156 C3.85253906,12.3984375 3.13183594,13.4794922 2.63964844,14.6865234 C2.16796875,15.8525391 1.93066406,17.0830078 1.93356695,18.3427734 C1.93652344,19.6054688 2.1796875,20.8359375 2.66015625,21.9990234 C3.15527344,23.2060547 3.87890625,24.2871094 4.81640625,25.2128906 C5.74804688,26.1357422 6.84375,26.8535156 8.06542969,27.3457031 C9.23730469,27.8173828 10.4824219,28.0576172 11.7626953,28.0634766 L11.7890625,28.0634766 C13.0605469,28.0634766 14.2939453,27.8291016 15.4599609,27.3632812 C16.6787109,26.8798828 17.7714844,26.1679688 18.703125,25.2451172 L25.9423828,18.0849609 C26.6367188,17.3964844 27.1757813,16.59375 27.5390625,15.6943359 C27.890625,14.8242188 28.0693359,13.9101563 28.0664417,12.9697266 C28.0576172,11.0361328 27.2958984,9.21972656 25.9189453,7.85742188 Z" id="path-1"></path>
    </defs>
    <g id="XXXGuideline" stroke="none" stroke-width="1" fill="none" fill-rule="evenodd">
        <g id="Guideline_圖標" transform="translate(-321.000000, -1426.000000)">
            <g id="02" transform="translate(70.000000, 915.000000)">
                <g id="網站通用-Icon" transform="translate(40.000000, 400.000000)">
                    <g id="icon" transform="translate(10.000000, 20.000000)">
                        <g id="通路管理-copy-20" transform="translate(180.000000, 90.000000)">
                            <g id="附件" transform="translate(20.000000, 0.000000)">
                                <mask id="mask-2" fill="white">
                                    <use xlink:href="#path-1"></use>
                                </mask>
                                <use id="Mask" fill="#7F7F7F" xlink:href="#path-1"></use>
                            </g>
                        </g>
                    </g>
                </g>
            </g>
        </g>
    </g>
</svg>