<?xml version="1.0" encoding="UTF-8"?>
<svg width="26px" height="26px" viewBox="0 0 26 26" version="1.1" xmlns="http://www.w3.org/2000/svg" xmlns:xlink="http://www.w3.org/1999/xlink">
    <title>餘額匯入</title>
    <g id="XXXGuideline" stroke="none" stroke-width="1" fill="none" fill-rule="evenodd">
        <g id="Guideline_圖標" transform="translate(-152.000000, -2612.000000)" fill="#7F7F7F">
            <g id="04" transform="translate(70.000000, 2155.000000)">
                <g id="流程圖" transform="translate(40.000000, 75.000000)">
                    <g id="icon" transform="translate(20.000000, 20.000000)">
                        <g id="通路管理-copy-32" transform="translate(0.000000, 360.000000)">
                            <g id="餘額匯入" transform="translate(20.000000, 0.000000)">
                                <path d="M8.35546875,24.5976562 L8.35546875,26.8617187 C8.35546875,27.26925 8.02471875,27.6 7.6171875,27.6 L7.6171875,27.6 L4.6640625,27.6 C4.25653125,27.6 3.92578125,27.26925 3.92578125,26.8617187 L3.92578125,26.8617187 L3.92578125,24.5976562 L8.35546875,24.5976562 Z M26.0742188,24.5976562 L26.0742188,26.8617187 C26.0742188,27.26925 25.7434688,27.6 25.3359375,27.6 L25.3359375,27.6 L22.3828125,27.6 C21.9752813,27.6 21.6445313,27.26925 21.6445313,26.8617187 L21.6445313,26.8617187 L21.6445313,24.5976562 L26.0742188,24.5976562 Z M26.8617188,20.1679687 C27.26925,20.1679687 27.6,20.4987187 27.6,20.90625 L27.6,20.90625 L27.6,23.1210937 L2.4,23.1210937 L2.4,20.90625 C2.4,20.4987187 2.73075,20.1679687 3.13828125,20.1679687 L3.13828125,20.1679687 Z M17.9974219,11.2893984 L17.9974219,14.015625 C17.9974219,14.4091289 18.3175898,14.7292969 18.7110938,14.7292969 L18.7110938,14.7292969 L21.6617578,14.7292969 C22.0552617,14.7292969 22.3754297,14.4091289 22.3754297,14.015625 L22.3754297,14.015625 L22.3754297,11.2893984 L23.8662656,11.2893984 C24.2869383,11.2893984 24.6291563,11.6316164 24.6291563,12.0522891 L24.6291563,12.0522891 L24.6291563,18.7160156 L15.7436461,18.7160156 L15.7436461,12.0522891 C15.7436461,11.6316164 16.0858641,11.2893984 16.5065367,11.2893984 L16.5065367,11.2893984 L17.9974219,11.2893984 Z M7.636875,11.3140078 L7.636875,14.015625 C7.636875,14.4233531 7.96742813,14.7539062 8.37515625,14.7539062 L8.37515625,14.7539062 L11.3258203,14.7539062 C11.7335484,14.7539062 12.0641016,14.4233531 12.0641016,14.015625 L12.0641016,14.015625 L12.0641016,11.3140078 L13.5303281,11.3140078 C13.9383516,11.3140078 14.2686094,11.6447578 14.2686094,12.0522891 L14.2686094,12.0522891 L14.2686094,18.6914062 L5.43236719,18.6914062 L5.43236719,12.0522891 C5.43236719,11.6447578 5.76311719,11.3140078 6.17064844,11.3140078 L6.17064844,11.3140078 L7.636875,11.3140078 Z M20.9480367,11.2893984 L20.9480367,13.3019531 L19.4247656,13.3019531 L19.4247656,11.2893984 L20.9480367,11.2893984 Z M10.5874898,11.3140078 L10.5874898,13.2773437 L9.1134375,13.2773437 L9.1134375,11.3140078 L10.5874898,11.3140078 Z M16.4765625,2.4 C16.8842906,2.4 17.2148438,2.73055312 17.2148438,3.13828125 L17.2148438,3.13828125 L17.2148438,5.353125 L17.953125,5.353125 C18.6066023,5.353125 18.9376477,6.14328281 18.4795195,6.60913828 L18.4795195,6.60913828 L15.5263945,9.61148203 C15.237382,9.90526875 14.7631102,9.9056625 14.4736547,9.61148203 L14.4736547,9.61148203 L11.5205297,6.60913828 C11.0623031,6.14323359 11.3934961,5.353125 12.046875,5.353125 L12.046875,5.353125 L12.7851563,5.353125 L12.7851563,3.13828125 C12.7851563,2.73055312 13.1157094,2.4 13.5234375,2.4 L13.5234375,2.4 Z" id="Combined-Shape"></path>
                            </g>
                        </g>
                    </g>
                </g>
            </g>
        </g>
    </g>
</svg>