<?xml version="1.0" encoding="UTF-8"?>
<svg width="24px" height="28px" viewBox="0 0 24 28" version="1.1" xmlns="http://www.w3.org/2000/svg" xmlns:xlink="http://www.w3.org/1999/xlink">
    <title>驗證碼</title>
    <g id="XXXGuideline" stroke="none" stroke-width="1" fill="none" fill-rule="evenodd">
        <g id="Guideline_圖標" transform="translate(-413.000000, -1016.000000)" fill="#7F7F7F">
            <g id="02" transform="translate(70.000000, 915.000000)">
                <g id="登入-Icon" transform="translate(40.000000, 80.000000)">
                    <g id="icon" transform="translate(10.000000, 20.000000)">
                        <g id="採購管理" transform="translate(270.000000, 0.000000)">
                            <g id="驗證碼" transform="translate(20.000000, 0.000000)">
                                <path d="M15,1.875 L3.75,5.625 L3.75,16.875 C3.75,23.0888672 8.78613281,28.125 15,28.125 C21.2138672,28.125 26.25,23.0888672 26.25,16.875 L26.25,5.625 L15,1.875 Z M24.140625,16.875 C24.140625,21.9228516 20.0478516,26.015625 15,26.015625 C9.95214844,26.015625 5.859375,21.9228516 5.859375,16.875 L5.859375,7.20703125 L15,3.984375 L24.140625,7.20703125 L24.140625,16.875 Z M11.0859375,13.9189453 C10.6728516,13.5058594 10.0048828,13.5058594 9.59472656,13.9189453 C9.18164062,14.3320312 9.18164062,15 9.59472656,15.4101562 L13.3857422,19.2011719 L13.4472656,19.2626953 C13.8369141,19.6523438 14.4667969,19.6523438 14.8564453,19.2626953 L21.4042969,12.7148438 C21.7939453,12.3251953 21.7939453,11.6953125 21.4042969,11.3056641 L21.3222656,11.2236328 C20.9326172,10.8339844 20.3027344,10.8339844 19.9130859,11.2236328 L14.1503906,16.9833984 L11.0859375,13.9189453 Z" id="Shape"></path>
                            </g>
                        </g>
                    </g>
                </g>
            </g>
        </g>
    </g>
</svg>