<?xml version="1.0" encoding="UTF-8"?>
<svg width="710px" height="249px" viewBox="0 0 710 249" version="1.1" xmlns="http://www.w3.org/2000/svg" xmlns:xlink="http://www.w3.org/1999/xlink">
    <title>batch/rule_button02</title>
    <defs>
        <filter x="-5.8%" y="-9.3%" width="111.7%" height="118.5%" filterUnits="objectBoundingBox" id="filter-1">
            <feOffset dx="0" dy="3" in="SourceAlpha" result="shadowOffsetOuter1"></feOffset>
            <feGaussianBlur stdDeviation="3" in="shadowOffsetOuter1" result="shadowBlurOuter1"></feGaussianBlur>
            <feColorMatrix values="0 0 0 0 0   0 0 0 0 0   0 0 0 0 0  0 0 0 0.2 0" type="matrix" in="shadowBlurOuter1" result="shadowMatrixOuter1"></feColorMatrix>
            <feMerge>
                <feMergeNode in="shadowMatrixOuter1"></feMergeNode>
                <feMergeNode in="SourceGraphic"></feMergeNode>
            </feMerge>
        </filter>
        <filter x="-5.8%" y="-9.3%" width="111.7%" height="118.5%" filterUnits="objectBoundingBox" id="filter-2">
            <feOffset dx="0" dy="3" in="SourceAlpha" result="shadowOffsetOuter1"></feOffset>
            <feGaussianBlur stdDeviation="3" in="shadowOffsetOuter1" result="shadowBlurOuter1"></feGaussianBlur>
            <feColorMatrix values="0 0 0 0 0   0 0 0 0 0   0 0 0 0 0  0 0 0 0.2 0" type="matrix" in="shadowBlurOuter1" result="shadowMatrixOuter1"></feColorMatrix>
            <feMerge>
                <feMergeNode in="shadowMatrixOuter1"></feMergeNode>
                <feMergeNode in="SourceGraphic"></feMergeNode>
            </feMerge>
        </filter>
    </defs>
    <g id="batch/rule_button02" stroke="none" stroke-width="1" fill="none" fill-rule="evenodd">
        <g id="Group-4" transform="translate(30.000000, 30.000000)">
            <g id="Group-26">
                <g id="Group-6">
                    <g id="Group-3" filter="url(#filter-1)">
                        <g id="Group-2">
                            <rect id="Rectangle" fill="#F8F8FA" x="0" y="-7.10542736e-14" width="300" height="188.847584" rx="5.94795539"></rect>
                            <path d="M12,-6.67910172e-13 L294.052045,-6.67910172e-13 C297.33701,-6.69401788e-13 300,2.66299034 300,5.94795539 L300,30.1115242 L300,30.1115242 L0,30.1115242 L0,12 C-8.11624501e-16,5.372583 5.372583,-6.66692735e-13 12,-6.67910172e-13 Z" id="Rectangle" fill="#043458"></path>
                            <path d="M5.94795539,-7.10542736e-14 L22.6765799,-7.10542736e-14 L22.6765799,-7.10542736e-14 L22.6765799,188.847584 L5.94795539,188.847584 C2.66299034,188.847584 6.47944141e-13,186.184593 6.30606678e-13,182.899628 L6.30606678e-13,5.94795539 C6.29316207e-13,2.66299034 2.66299034,-7.31153705e-14 5.94795539,-7.10542736e-14 Z" id="Rectangle" fill="#FFFFFF"></path>
                        </g>
                        <g id="Group" transform="translate(32.000000, 18.000000)">
                            <rect id="Rectangle" fill="#FFFFFF" x="0" y="0" width="259" height="157" rx="5.94795539"></rect>
                            <g id="table" transform="translate(12.000000, 62.074349)">
                                <path d="M2,0 L233,0 C234.104569,-2.02906125e-16 235,0.8954305 235,2 L235,15 L235,15 L0,15 L0,2 C-1.3527075e-16,0.8954305 0.8954305,2.02906125e-16 2,0 Z" id="Rectangle" fill="#F2F2F2"></path>
                                <rect id="Rectangle-Copy-9" fill="#F2F2F2" x="0" y="28" width="235" height="1"></rect>
                                <rect id="Rectangle-Copy-10" fill="#F2F2F2" x="0" y="43" width="235" height="1"></rect>
                                <rect id="Rectangle-Copy-11" fill="#F2F2F2" x="0" y="58" width="235" height="1"></rect>
                                <rect id="Rectangle-Copy-14" fill="#F2F2F2" x="0" y="72.9256506" width="235" height="1"></rect>
                                <path d="M0.5,0.5 L234.5,0.5 L234.5,86 C234.5,86.4142136 234.332107,86.7892136 234.06066,87.0606602 C233.789214,87.3321068 233.414214,87.5 233,87.5 L233,87.5 L2,87.5 C1.58578644,87.5 1.21078644,87.3321068 0.939339828,87.0606602 C0.667893219,86.7892136 0.5,86.4142136 0.5,86 L0.5,86 L0.5,0.5 Z" id="Rectangle-Copy" stroke="#F2F2F2"></path>
                                <polygon id="Rectangle-Copy-4" fill="#F2F2F2" transform="translate(78.500000, 44.000000) rotate(90.000000) translate(-78.500000, -44.000000) " points="34.5 43.5 122.5 43.5 122.5 44.5 34.5 44.5"></polygon>
                                <polygon id="Rectangle-Copy-13" fill="#F2F2F2" transform="translate(40.000000, 44.000000) rotate(90.000000) translate(-40.000000, -44.000000) " points="-4 43.5 84 43.5 84 44.5 -4 44.5"></polygon>
                                <polygon id="Rectangle-Copy-5" fill="#F2F2F2" transform="translate(117.500000, 44.000000) rotate(90.000000) translate(-117.500000, -44.000000) " points="73.5 43.5 161.5 43.5 161.5 44.5 73.5 44.5"></polygon>
                                <polygon id="Rectangle-Copy-6" fill="#F2F2F2" transform="translate(156.500000, 44.000000) rotate(90.000000) translate(-156.500000, -44.000000) " points="112.5 43.5 200.5 43.5 200.5 44.5 112.5 44.5"></polygon>
                                <polygon id="Rectangle-Copy-8" fill="#F2F2F2" transform="translate(196.500000, 44.000000) rotate(90.000000) translate(-196.500000, -44.000000) " points="152.5 43.5 240.5 43.5 240.5 44.5 152.5 44.5"></polygon>
                            </g>
                        </g>
                        <path d="M284.802045,18.375 C286.340974,18.375 287.734213,18.9987743 288.742719,20.0072808 C289.751226,21.0157874 290.375,22.4090263 290.375,23.9479554 L290.375,23.9479554 L290.375,37.6993494 L32.375,37.6993494 L32.375,23.9479554 C32.375,22.4090263 32.9987743,21.0157874 34.0072808,20.0072808 C35.0157874,18.9987743 36.4090263,18.375 37.9479554,18.375 L37.9479554,18.375 Z" id="Rectangle" stroke="#F2F2F2" stroke-width="0.75" fill="#FFFFFF"></path>
                    </g>
                    <g id="Button/Secondary/Basic/Medium-Copy-4" transform="translate(44.000000, 46.000000)">
                        <path d="M64.8114249,0.397727273 C65.5820124,0.397727273 66.279726,0.708883138 66.7848844,1.211474 C67.2897173,1.71374103 67.6022727,2.40730122 67.6022727,3.17236862 L67.6022727,3.17236862 L67.6022727,22.2821768 C67.6022727,23.0489624 67.2911917,23.7431008 66.7865188,24.2452087 C66.2821814,24.7469826 65.5846947,25.0568182 64.8114249,25.0568182 L64.8114249,25.0568182 L3.18857509,25.0568182 C2.41773377,25.0568182 1.71981195,24.7454762 1.21465068,24.241864 C0.70997094,23.7387318 0.397727273,23.043665 0.397727273,22.2757478 L0.397727273,22.2757478 L0.397727273,3.17879761 C0.397727273,2.41014311 0.708874074,1.71427632 1.2137665,1.2109321 C1.71803103,0.708213852 2.4153985,0.397727273 3.18857509,0.397727273 L3.18857509,0.397727273 Z" id="Rectangle-77-Copy-5" stroke="#CCCCCC" stroke-width="0.795454545" fill="#FFFFFF"></path>
                        <path d="M64.8114249,0.397727273 C65.5820124,0.397727273 66.279726,0.708883138 66.7848844,1.211474 C67.2897173,1.71374103 67.6022727,2.40730122 67.6022727,3.17236862 L67.6022727,3.17236862 L67.6022727,22.2821768 C67.6022727,23.0489624 67.2911917,23.7431008 66.7865188,24.2452087 C66.2821814,24.7469826 65.5846947,25.0568182 64.8114249,25.0568182 L64.8114249,25.0568182 L3.18857509,25.0568182 C2.41773377,25.0568182 1.71981195,24.7454762 1.21465068,24.241864 C0.70997094,23.7387318 0.397727273,23.043665 0.397727273,22.2757478 L0.397727273,22.2757478 L0.397727273,3.17879761 C0.397727273,2.41014311 0.708874074,1.71427632 1.2137665,1.2109321 C1.71803103,0.708213852 2.4153985,0.397727273 3.18857509,0.397727273 L3.18857509,0.397727273 Z" id="Rectangle-77-Copy-6" stroke="#CCCCCC" stroke-width="0.795454545" fill="#FFFFFF"></path>
                        <text id="Text" font-family="PingFangTC-Semibold, PingFang TC" font-size="11.1363636" font-weight="500" line-spacing="17.5" fill="#545454">
                            <tspan x="12.7272727" y="16.9106061">批次動作</tspan>
                        </text>
                    </g>
                </g>
                <g id="Switch/On" transform="translate(60.000000, 83.000000)" fill="#2A58AE">
                    <path d="M8.75371233,0 C9.442018,0 10,0.566295385 10,1.24628767 L10,8.75371233 C10,9.442018 9.43370461,10 8.75371233,10 L1.24628767,10 C0.557981998,10 0,9.43370461 0,8.75371233 L0,1.24628767 C0,0.557981998 0.566295385,0 1.24628767,0 L8.75371233,0 Z M7.99660024,2.5 L7.24504649,2.5 C7.07999311,2.5 6.92615695,2.57862253 6.83000934,2.70913594 L6.83000934,2.70913594 L4.31094219,6.13707839 L3.16999066,4.58349713 C3.07384305,4.45141127 2.91840443,4.37436119 2.75495351,4.37436119 L2.75495351,4.37436119 L2.00339976,4.37436119 C1.89923986,4.37436119 1.83834638,4.49072254 1.89923986,4.57406243 L1.89923986,4.57406243 L3.8975075,7.29125717 C4.10101993,7.56958094 4.52246691,7.56958094 4.72597934,7.29125717 L4.72597934,7.29125717 L8.10076014,2.69970123 C8.16165362,2.61636135 8.10076014,2.5 7.99660024,2.5 L7.99660024,2.5 Z" id="Combined-Shape"></path>
                </g>
                <g id="Switch/On" transform="translate(60.000000, 97.000000)" fill="#2A58AE">
                    <path d="M8.75371233,0 C9.442018,0 10,0.566295385 10,1.24628767 L10,8.75371233 C10,9.442018 9.43370461,10 8.75371233,10 L1.24628767,10 C0.557981998,10 0,9.43370461 0,8.75371233 L0,1.24628767 C0,0.557981998 0.566295385,0 1.24628767,0 L8.75371233,0 Z M7.99660024,2.5 L7.24504649,2.5 C7.07999311,2.5 6.92615695,2.57862253 6.83000934,2.70913594 L6.83000934,2.70913594 L4.31094219,6.13707839 L3.16999066,4.58349713 C3.07384305,4.45141127 2.91840443,4.37436119 2.75495351,4.37436119 L2.75495351,4.37436119 L2.00339976,4.37436119 C1.89923986,4.37436119 1.83834638,4.49072254 1.89923986,4.57406243 L1.89923986,4.57406243 L3.8975075,7.29125717 C4.10101993,7.56958094 4.52246691,7.56958094 4.72597934,7.29125717 L4.72597934,7.29125717 L8.10076014,2.69970123 C8.16165362,2.61636135 8.10076014,2.5 7.99660024,2.5 L7.99660024,2.5 Z" id="Combined-Shape"></path>
                </g>
                <g id="Switch/On" transform="translate(60.000000, 111.000000)" fill="#2A58AE">
                    <path d="M8.75371233,0 C9.442018,0 10,0.566295385 10,1.24628767 L10,8.75371233 C10,9.442018 9.43370461,10 8.75371233,10 L1.24628767,10 C0.557981998,10 0,9.43370461 0,8.75371233 L0,1.24628767 C0,0.557981998 0.566295385,0 1.24628767,0 L8.75371233,0 Z M7.99660024,2.5 L7.24504649,2.5 C7.07999311,2.5 6.92615695,2.57862253 6.83000934,2.70913594 L6.83000934,2.70913594 L4.31094219,6.13707839 L3.16999066,4.58349713 C3.07384305,4.45141127 2.91840443,4.37436119 2.75495351,4.37436119 L2.75495351,4.37436119 L2.00339976,4.37436119 C1.89923986,4.37436119 1.83834638,4.49072254 1.89923986,4.57406243 L1.89923986,4.57406243 L3.8975075,7.29125717 C4.10101993,7.56958094 4.52246691,7.56958094 4.72597934,7.29125717 L4.72597934,7.29125717 L8.10076014,2.69970123 C8.16165362,2.61636135 8.10076014,2.5 7.99660024,2.5 L7.99660024,2.5 Z" id="Combined-Shape"></path>
                </g>
                <g id="Switch/On" transform="translate(60.000000, 126.000000)" fill="#2A58AE">
                    <path d="M8.75371233,0 C9.442018,0 10,0.566295385 10,1.24628767 L10,8.75371233 C10,9.442018 9.43370461,10 8.75371233,10 L1.24628767,10 C0.557981998,10 0,9.43370461 0,8.75371233 L0,1.24628767 C0,0.557981998 0.566295385,0 1.24628767,0 L8.75371233,0 Z M7.99660024,2.5 L7.24504649,2.5 C7.07999311,2.5 6.92615695,2.57862253 6.83000934,2.70913594 L6.83000934,2.70913594 L4.31094219,6.13707839 L3.16999066,4.58349713 C3.07384305,4.45141127 2.91840443,4.37436119 2.75495351,4.37436119 L2.75495351,4.37436119 L2.00339976,4.37436119 C1.89923986,4.37436119 1.83834638,4.49072254 1.89923986,4.57406243 L1.89923986,4.57406243 L3.8975075,7.29125717 C4.10101993,7.56958094 4.52246691,7.56958094 4.72597934,7.29125717 L4.72597934,7.29125717 L8.10076014,2.69970123 C8.16165362,2.61636135 8.10076014,2.5 7.99660024,2.5 L7.99660024,2.5 Z" id="Combined-Shape"></path>
                </g>
                <g id="Switch/On" transform="translate(60.000000, 141.000000)" fill="#2A58AE">
                    <path d="M8.75371233,0 C9.442018,0 10,0.566295385 10,1.24628767 L10,8.75371233 C10,9.442018 9.43370461,10 8.75371233,10 L1.24628767,10 C0.557981998,10 0,9.43370461 0,8.75371233 L0,1.24628767 C0,0.557981998 0.566295385,0 1.24628767,0 L8.75371233,0 Z M7.99660024,2.5 L7.24504649,2.5 C7.07999311,2.5 6.92615695,2.57862253 6.83000934,2.70913594 L6.83000934,2.70913594 L4.31094219,6.13707839 L3.16999066,4.58349713 C3.07384305,4.45141127 2.91840443,4.37436119 2.75495351,4.37436119 L2.75495351,4.37436119 L2.00339976,4.37436119 C1.89923986,4.37436119 1.83834638,4.49072254 1.89923986,4.57406243 L1.89923986,4.57406243 L3.8975075,7.29125717 C4.10101993,7.56958094 4.52246691,7.56958094 4.72597934,7.29125717 L4.72597934,7.29125717 L8.10076014,2.69970123 C8.16165362,2.61636135 8.10076014,2.5 7.99660024,2.5 L7.99660024,2.5 Z" id="Combined-Shape"></path>
                </g>
                <g id="Switch/On" transform="translate(60.000000, 156.000000)" fill="#2A58AE">
                    <path d="M8.75371233,0 C9.442018,0 10,0.566295385 10,1.24628767 L10,8.75371233 C10,9.442018 9.43370461,10 8.75371233,10 L1.24628767,10 C0.557981998,10 0,9.43370461 0,8.75371233 L0,1.24628767 C0,0.557981998 0.566295385,0 1.24628767,0 L8.75371233,0 Z M7.99660024,2.5 L7.24504649,2.5 C7.07999311,2.5 6.92615695,2.57862253 6.83000934,2.70913594 L6.83000934,2.70913594 L4.31094219,6.13707839 L3.16999066,4.58349713 C3.07384305,4.45141127 2.91840443,4.37436119 2.75495351,4.37436119 L2.75495351,4.37436119 L2.00339976,4.37436119 C1.89923986,4.37436119 1.83834638,4.49072254 1.89923986,4.57406243 L1.89923986,4.57406243 L3.8975075,7.29125717 C4.10101993,7.56958094 4.52246691,7.56958094 4.72597934,7.29125717 L4.72597934,7.29125717 L8.10076014,2.69970123 C8.16165362,2.61636135 8.10076014,2.5 7.99660024,2.5 L7.99660024,2.5 Z" id="Combined-Shape"></path>
                </g>
            </g>
            <g id="Group-5" transform="translate(350.000000, 0.000000)">
                <g id="Group-25">
                    <g id="Group-3" filter="url(#filter-2)">
                        <g id="Group-2">
                            <rect id="Rectangle" fill="#F8F8FA" x="0" y="-7.10542736e-14" width="300" height="188.847584" rx="5.94795539"></rect>
                            <path d="M12,-6.67910172e-13 L294.052045,-6.67910172e-13 C297.33701,-6.69401788e-13 300,2.66299034 300,5.94795539 L300,30.1115242 L300,30.1115242 L0,30.1115242 L0,12 C-8.11624501e-16,5.372583 5.372583,-6.66692735e-13 12,-6.67910172e-13 Z" id="Rectangle" fill="#043458"></path>
                            <path d="M5.94795539,-7.10542736e-14 L22.6765799,-7.10542736e-14 L22.6765799,-7.10542736e-14 L22.6765799,188.847584 L5.94795539,188.847584 C2.66299034,188.847584 6.47944141e-13,186.184593 6.30606678e-13,182.899628 L6.30606678e-13,5.94795539 C6.29316207e-13,2.66299034 2.66299034,-7.31153705e-14 5.94795539,-7.10542736e-14 Z" id="Rectangle" fill="#FFFFFF"></path>
                        </g>
                        <g id="Group" transform="translate(32.000000, 18.000000)">
                            <rect id="Rectangle" fill="#FFFFFF" x="0" y="0" width="259" height="157" rx="5.94795539"></rect>
                            <g id="table" transform="translate(12.000000, 62.074349)">
                                <path d="M2,0 L233,0 C234.104569,-2.02906125e-16 235,0.8954305 235,2 L235,15 L235,15 L0,15 L0,2 C-1.3527075e-16,0.8954305 0.8954305,2.02906125e-16 2,0 Z" id="Rectangle" fill="#F2F2F2"></path>
                                <rect id="Rectangle-Copy-9" fill="#F2F2F2" x="0" y="28" width="235" height="1"></rect>
                                <rect id="Rectangle-Copy-10" fill="#F2F2F2" x="0" y="43" width="235" height="1"></rect>
                                <rect id="Rectangle-Copy-11" fill="#F2F2F2" x="0" y="58" width="235" height="1"></rect>
                                <rect id="Rectangle-Copy-14" fill="#F2F2F2" x="0" y="72.9256506" width="235" height="1"></rect>
                                <path d="M0.5,0.5 L234.5,0.5 L234.5,86 C234.5,86.4142136 234.332107,86.7892136 234.06066,87.0606602 C233.789214,87.3321068 233.414214,87.5 233,87.5 L233,87.5 L2,87.5 C1.58578644,87.5 1.21078644,87.3321068 0.939339828,87.0606602 C0.667893219,86.7892136 0.5,86.4142136 0.5,86 L0.5,86 L0.5,0.5 Z" id="Rectangle-Copy" stroke="#F2F2F2"></path>
                                <polygon id="Rectangle-Copy-4" fill="#F2F2F2" transform="translate(78.500000, 44.000000) rotate(90.000000) translate(-78.500000, -44.000000) " points="34.5 43.5 122.5 43.5 122.5 44.5 34.5 44.5"></polygon>
                                <polygon id="Rectangle-Copy-13" fill="#F2F2F2" transform="translate(40.000000, 44.000000) rotate(90.000000) translate(-40.000000, -44.000000) " points="-4 43.5 84 43.5 84 44.5 -4 44.5"></polygon>
                                <polygon id="Rectangle-Copy-5" fill="#F2F2F2" transform="translate(117.500000, 44.000000) rotate(90.000000) translate(-117.500000, -44.000000) " points="73.5 43.5 161.5 43.5 161.5 44.5 73.5 44.5"></polygon>
                                <polygon id="Rectangle-Copy-6" fill="#F2F2F2" transform="translate(156.500000, 44.000000) rotate(90.000000) translate(-156.500000, -44.000000) " points="112.5 43.5 200.5 43.5 200.5 44.5 112.5 44.5"></polygon>
                                <polygon id="Rectangle-Copy-8" fill="#F2F2F2" transform="translate(196.500000, 44.000000) rotate(90.000000) translate(-196.500000, -44.000000) " points="152.5 43.5 240.5 43.5 240.5 44.5 152.5 44.5"></polygon>
                            </g>
                        </g>
                        <path d="M284.802045,18.375 C286.340974,18.375 287.734213,18.9987743 288.742719,20.0072808 C289.751226,21.0157874 290.375,22.4090263 290.375,23.9479554 L290.375,23.9479554 L290.375,37.6993494 L32.375,37.6993494 L32.375,23.9479554 C32.375,22.4090263 32.9987743,21.0157874 34.0072808,20.0072808 C35.0157874,18.9987743 36.4090263,18.375 37.9479554,18.375 L37.9479554,18.375 Z" id="Rectangle" stroke="#F2F2F2" stroke-width="0.75" fill="#FFFFFF"></path>
                    </g>
                    <g id="Switch/On" transform="translate(60.000000, 97.000000)" fill="#2A58AE">
                        <path d="M8.75371233,0 C9.442018,0 10,0.566295385 10,1.24628767 L10,8.75371233 C10,9.442018 9.43370461,10 8.75371233,10 L1.24628767,10 C0.557981998,10 0,9.43370461 0,8.75371233 L0,1.24628767 C0,0.557981998 0.566295385,0 1.24628767,0 L8.75371233,0 Z M7.99660024,2.5 L7.24504649,2.5 C7.07999311,2.5 6.92615695,2.57862253 6.83000934,2.70913594 L6.83000934,2.70913594 L4.31094219,6.13707839 L3.16999066,4.58349713 C3.07384305,4.45141127 2.91840443,4.37436119 2.75495351,4.37436119 L2.75495351,4.37436119 L2.00339976,4.37436119 C1.89923986,4.37436119 1.83834638,4.49072254 1.89923986,4.57406243 L1.89923986,4.57406243 L3.8975075,7.29125717 C4.10101993,7.56958094 4.52246691,7.56958094 4.72597934,7.29125717 L4.72597934,7.29125717 L8.10076014,2.69970123 C8.16165362,2.61636135 8.10076014,2.5 7.99660024,2.5 L7.99660024,2.5 Z" id="Combined-Shape"></path>
                    </g>
                    <g id="Switch/On" transform="translate(60.000000, 142.000000)" fill="#2A58AE">
                        <path d="M8.75371233,0 C9.442018,0 10,0.566295385 10,1.24628767 L10,8.75371233 C10,9.442018 9.43370461,10 8.75371233,10 L1.24628767,10 C0.557981998,10 0,9.43370461 0,8.75371233 L0,1.24628767 C0,0.557981998 0.566295385,0 1.24628767,0 L8.75371233,0 Z M7.99660024,2.5 L7.24504649,2.5 C7.07999311,2.5 6.92615695,2.57862253 6.83000934,2.70913594 L6.83000934,2.70913594 L4.31094219,6.13707839 L3.16999066,4.58349713 C3.07384305,4.45141127 2.91840443,4.37436119 2.75495351,4.37436119 L2.75495351,4.37436119 L2.00339976,4.37436119 C1.89923986,4.37436119 1.83834638,4.49072254 1.89923986,4.57406243 L1.89923986,4.57406243 L3.8975075,7.29125717 C4.10101993,7.56958094 4.52246691,7.56958094 4.72597934,7.29125717 L4.72597934,7.29125717 L8.10076014,2.69970123 C8.16165362,2.61636135 8.10076014,2.5 7.99660024,2.5 L7.99660024,2.5 Z" id="Combined-Shape"></path>
                    </g>
                    <g id="Switch/On" transform="translate(60.000000, 83.000000)">
                        <rect id="Rectangle-271" stroke="#CCCCCC" stroke-width="0.625" fill="#FFFFFF" x="0.3125" y="0.3125" width="9.375" height="9.375" rx="1.25"></rect>
                        <path d="M1.875,2.6539298 C1.875,2.22373875 2.22893462,1.875 2.6539298,1.875 L7.3460702,1.875 C7.77626125,1.875 8.125,2.22893462 8.125,2.6539298 L8.125,7.3460702 C8.125,7.77626125 7.77106538,8.125 7.3460702,8.125 L2.6539298,8.125 C2.22373875,8.125 1.875,7.77106538 1.875,7.3460702 L1.875,2.6539298 Z" id="Rectangle-271-Copy-2" fill="#2A58AE"></path>
                    </g>
                    <rect id="Rectangle-271-Copy-7" stroke="#CCCCCC" fill="#FFFFFF" x="60.5" y="111.5" width="9" height="9" rx="2"></rect>
                    <rect id="Rectangle-271-Copy-8" stroke="#CCCCCC" fill="#FFFFFF" x="60.5" y="126.5" width="9" height="9" rx="2"></rect>
                    <rect id="Rectangle-271-Copy-9" stroke="#CCCCCC" fill="#FFFFFF" x="60.5" y="156.5" width="9" height="9" rx="2"></rect>
                </g>
                <g id="Button/Secondary/Basic/Medium-Copy-5" transform="translate(45.000000, 46.000000)">
                    <path d="M67.811346,0.397727273 C68.5819565,0.397727273 69.2796912,0.708883952 69.7848647,1.21147747 C70.2897093,1.71374361 70.6022727,2.40730233 70.6022727,3.17236862 L70.6022727,3.17236862 L70.6022727,22.2821768 C70.6022727,23.0491922 70.2915043,23.7435486 69.7867692,24.245706 C69.2826672,24.7472334 68.5853062,25.0568182 67.811346,25.0568182 L67.811346,25.0568182 L3.18865395,25.0568182 C2.41778972,25.0568182 1.71984673,24.7454754 1.2146703,24.2418605 C0.709978963,23.7387292 0.397727273,23.0436639 0.397727273,22.2757478 L0.397727273,22.2757478 L0.397727273,3.17879761 C0.397727273,2.40991278 0.708561483,1.71382754 1.2135161,1.21043377 C1.71754531,0.707962544 2.41478721,0.397727273 3.18865395,0.397727273 L3.18865395,0.397727273 Z" id="Rectangle-77-Copy-5" stroke="#CCCCCC" stroke-width="0.795454545" fill="#FFFFFF"></path>
                    <text id="Text" font-family="PingFangTC-Semibold, PingFang TC" font-size="11.1363636" font-weight="500" line-spacing="17.5" fill="#545454">
                        <tspan x="13" y="16">批次動作</tspan>
                    </text>
                </g>
            </g>
        </g>
    </g>
</svg>