<?xml version="1.0" encoding="UTF-8"?>
<svg width="370px" height="104px" viewBox="0 0 370 104" version="1.1" xmlns="http://www.w3.org/2000/svg" xmlns:xlink="http://www.w3.org/1999/xlink">
    <title>batch/type01</title>
    <g id="batch/type01" stroke="none" stroke-width="1" fill="none" fill-rule="evenodd">
        <g id="Button/Secondary/Basic/Medium-Copy-8" transform="translate(105.000000, 30.000000)">
            <path d="M151.55175,0.681818182 C152.868367,0.681818182 154.060297,1.21576245 154.922841,2.08022224 C155.785184,2.94448071 156.318182,4.13896948 156.318182,5.46035141 L156.318182,5.46035141 L156.318182,38.1760122 C156.318182,39.4943555 155.782691,40.6879017 154.92003,41.5524789 C154.056123,42.4183047 152.86385,42.9545455 151.55175,42.9545455 L151.55175,42.9545455 L42.4482503,42.9545455 C41.1320013,42.9545455 39.9403656,42.4210003 39.0778125,41.5582703 C38.2152751,40.6955561 37.6818182,39.5036807 37.6818182,38.1869963 L37.6818182,38.1869963 L37.6818182,5.44936733 C37.6818182,4.13421111 38.2171965,2.94361277 39.0794852,2.08114727 C39.9435167,1.21693868 41.1359944,0.681818182 42.4482503,0.681818182 L42.4482503,0.681818182 Z" id="Rectangle-77-Copy-4" stroke="#CCCCCC" stroke-width="1.36363636" fill="#FFFFFF"></path>
            <path d="M155.550988,0.681818182 C156.867826,0.681818182 158.059961,1.21577026 158.922652,2.08025599 C159.785107,2.94450583 160.318182,4.13898045 160.318182,5.46035141 L160.318182,5.46035141 L160.318182,38.1760122 C160.318182,39.4965276 159.785564,40.6921273 158.922313,41.5571743 C158.060606,42.4206747 156.869525,42.9545455 155.550988,42.9545455 L155.550988,42.9545455 L5.44901231,42.9545455 C4.13254198,42.9545455 2.94070161,42.4209925 2.07800197,41.5582366 C1.21535253,40.695531 0.681818182,39.5036698 0.681818182,38.1869963 L0.681818182,38.1869963 L0.681818182,5.44936733 C0.681818182,4.13204444 1.21432303,2.9393961 2.07720162,2.07646129 C2.93903286,1.2145739 4.13031752,0.681818182 5.44901231,0.681818182 L5.44901231,0.681818182 Z" id="Rectangle-77-Copy-5" stroke="#CCCCCC" stroke-width="1.36363636" fill="#FFFFFF"></path>
            <text id="Text" font-family="PingFangTC-Semibold, PingFang TC" font-size="19.0909091" font-weight="500" line-spacing="30" fill="#545454">
                <tspan x="22.7272727" y="27">批次快速出貨</tspan>
            </text>
        </g>
    </g>
</svg>