<?xml version="1.0" encoding="UTF-8"?>
<svg width="370px" height="104px" viewBox="0 0 370 104" version="1.1" xmlns="http://www.w3.org/2000/svg" xmlns:xlink="http://www.w3.org/1999/xlink">
    <title>batch/type03</title>
    <defs>
        <path d="M13.8632813,4.64482606 C13.8632813,4.79341097 13.8137529,4.94354363 13.7146963,5.06891215 L8.43838443,11.6283166 C8.3099204,11.7877358 8.11645047,11.8806014 7.91059847,11.8806014 C7.70629422,11.8806014 7.51127653,11.7877358 7.38436026,11.6283166 L2.13590802,5.09677182 C1.90219634,4.80579304 1.94862913,4.3801592 2.2396079,4.14644752 C2.53058667,3.91273585 2.95622052,3.95916863 3.18993219,4.25014741 L7.91214623,10.1254422 L12.6606722,4.22073998 C12.8943838,3.9297612 13.3200177,3.88332842 13.6109965,4.11704009 C13.7766067,4.25169517 13.8632813,4.44671285 13.8632813,4.64482606 Z" id="path-1"></path>
    </defs>
    <g id="batch/type03" stroke="none" stroke-width="1" fill="none" fill-rule="evenodd">
        <g id="Group-2" transform="translate(30.000000, 30.000000)">
            <g id="Button/Secondary/Basic/Medium-Copy-8" transform="translate(149.000000, 0.000000)">
                <path d="M151.55175,0.681818182 C152.868367,0.681818182 154.060297,1.21576245 154.922841,2.08022224 C155.785184,2.94448071 156.318182,4.13896948 156.318182,5.46035141 L156.318182,5.46035141 L156.318182,38.1760122 C156.318182,39.4943555 155.782691,40.6879017 154.92003,41.5524789 C154.056123,42.4183047 152.86385,42.9545455 151.55175,42.9545455 L151.55175,42.9545455 L42.4482503,42.9545455 C41.1320013,42.9545455 39.9403656,42.4210003 39.0778125,41.5582703 C38.2152751,40.6955561 37.6818182,39.5036807 37.6818182,38.1869963 L37.6818182,38.1869963 L37.6818182,5.44936733 C37.6818182,4.13421111 38.2171965,2.94361277 39.0794852,2.08114727 C39.9435167,1.21693868 41.1359944,0.681818182 42.4482503,0.681818182 L42.4482503,0.681818182 Z" id="Rectangle-77-Copy-4" stroke="#CCCCCC" stroke-width="1.36363636" fill="#FFFFFF"></path>
                <path d="M155.550988,0.681818182 C156.867826,0.681818182 158.059961,1.21577026 158.922652,2.08025599 C159.785107,2.94450583 160.318182,4.13898045 160.318182,5.46035141 L160.318182,5.46035141 L160.318182,38.1760122 C160.318182,39.4965276 159.785564,40.6921273 158.922313,41.5571743 C158.060606,42.4206747 156.869525,42.9545455 155.550988,42.9545455 L155.550988,42.9545455 L5.44901231,42.9545455 C4.13254198,42.9545455 2.94070161,42.4209925 2.07800197,41.5582366 C1.21535253,40.695531 0.681818182,39.5036698 0.681818182,38.1869963 L0.681818182,38.1869963 L0.681818182,5.44936733 C0.681818182,4.13204444 1.21432303,2.9393961 2.07720162,2.07646129 C2.93903286,1.2145739 4.13031752,0.681818182 5.44901231,0.681818182 L5.44901231,0.681818182 Z" id="Rectangle-77-Copy-5" stroke="#CCCCCC" stroke-width="1.36363636" fill="#FFFFFF"></path>
                <text id="Text" font-family="PingFangTC-Semibold, PingFang TC" font-size="19.0909091" font-weight="500" line-spacing="30" fill="#545454">
                    <tspan x="22.7272727" y="27">批次快速出貨</tspan>
                </text>
            </g>
            <g id="Button/Secondary/Icon-right/Medium-Copy">
                <path d="M123.463229,0.566037736 C124.558875,0.566037736 125.550833,1.01043492 126.269326,1.72666852 C126.988529,2.44360986 127.433962,3.43313148 127.433962,4.52250283 L127.433962,4.52250283 L127.433962,39.4774972 C127.433962,40.569249 126.988863,41.5575381 126.270917,42.273226 C125.551553,42.9903278 124.558222,43.4339623 123.463229,43.4339623 L123.463229,43.4339623 L4.53677136,43.4339623 C3.44036439,43.4339623 2.44773232,42.9898273 1.72914747,42.2720395 C1.01059204,41.5542812 0.566037736,40.5628515 0.566037736,39.4682611 L0.566037736,39.4682611 L0.566037736,4.53173893 C0.566037736,3.43730644 1.01123095,2.44653751 1.72949128,1.72907391 C2.44875082,1.01061222 3.44191014,0.566037736 4.53677136,0.566037736 L4.53677136,0.566037736 Z" id="Rectangle-77-Copy-4" stroke="#CCCCCC" stroke-width="1.13207547" fill="#FFFFFF"></path>
                <g id="Group" transform="translate(16.000000, 9.000000)">
                    <text id="Text" font-family="PingFangTC-Semibold, PingFang TC" font-size="18" font-weight="500" line-spacing="26" fill="#4C4C4C">
                        <tspan x="0" y="19.7735849">批次動作</tspan>
                    </text>
                    <g transform="translate(77.924528, 5.660377)" id="Icon/number/Plus-14px">
                        <mask id="mask-2" fill="white">
                            <use xlink:href="#path-1"></use>
                        </mask>
                        <use id="Mask" fill="#7F7F7F" xlink:href="#path-1"></use>
                    </g>
                </g>
            </g>
        </g>
    </g>
</svg>