<?xml version="1.0" encoding="UTF-8"?>
<svg width="580px" height="307px" viewBox="0 0 580 307" version="1.1" xmlns="http://www.w3.org/2000/svg" xmlns:xlink="http://www.w3.org/1999/xlink">
    <title>select04</title>
    <defs>
        <rect id="path-1" x="0" y="0" width="250" height="218" rx="4"></rect>
        <filter x="-2.8%" y="-2.3%" width="105.6%" height="106.4%" filterUnits="objectBoundingBox" id="filter-2">
            <feOffset dx="0" dy="2" in="SourceAlpha" result="shadowOffsetOuter1"></feOffset>
            <feGaussianBlur stdDeviation="2" in="shadowOffsetOuter1" result="shadowBlurOuter1"></feGaussianBlur>
            <feColorMatrix values="0 0 0 0 0   0 0 0 0 0   0 0 0 0 0  0 0 0 0.1 0" type="matrix" in="shadowBlurOuter1"></feColorMatrix>
        </filter>
        <path d="M12.2458984,9.89707031 C12.2458984,9.76582031 12.2021484,9.63320312 12.1146484,9.52246094 L7.45390625,3.72832031 C7.34042969,3.5875 7.16953125,3.50546875 6.98769531,3.50546875 C6.80722656,3.50546875 6.63496094,3.5875 6.52285156,3.72832031 L1.88671875,9.49785156 C1.68027344,9.75488281 1.72128906,10.1308594 1.97832031,10.3373047 C2.23535156,10.54375 2.61132813,10.5027344 2.81777344,10.2457031 L6.9890625,5.05585937 L11.1835938,10.2716797 C11.3900391,10.5287109 11.7660156,10.5697266 12.0230469,10.3632812 C12.1693359,10.2443359 12.2458984,10.0720703 12.2458984,9.89707031 Z" id="path-3"></path>
        <rect id="path-5" x="0" y="0" width="250" height="68" rx="4"></rect>
        <filter x="-2.8%" y="-7.4%" width="105.6%" height="120.6%" filterUnits="objectBoundingBox" id="filter-6">
            <feOffset dx="0" dy="2" in="SourceAlpha" result="shadowOffsetOuter1"></feOffset>
            <feGaussianBlur stdDeviation="2" in="shadowOffsetOuter1" result="shadowBlurOuter1"></feGaussianBlur>
            <feColorMatrix values="0 0 0 0 0   0 0 0 0 0   0 0 0 0 0  0 0 0 0.1 0" type="matrix" in="shadowBlurOuter1"></feColorMatrix>
        </filter>
        <path d="M12.2458984,9.89707031 C12.2458984,9.76582031 12.2021484,9.63320312 12.1146484,9.52246094 L7.45390625,3.72832031 C7.34042969,3.5875 7.16953125,3.50546875 6.98769531,3.50546875 C6.80722656,3.50546875 6.63496094,3.5875 6.52285156,3.72832031 L1.88671875,9.49785156 C1.68027344,9.75488281 1.72128906,10.1308594 1.97832031,10.3373047 C2.23535156,10.54375 2.61132813,10.5027344 2.81777344,10.2457031 L6.9890625,5.05585937 L11.1835938,10.2716797 C11.3900391,10.5287109 11.7660156,10.5697266 12.0230469,10.3632812 C12.1693359,10.2443359 12.2458984,10.0720703 12.2458984,9.89707031 Z" id="path-7"></path>
    </defs>
    <g id="XXXGuideline" stroke="none" stroke-width="1" fill="none" fill-rule="evenodd">
        <g id="Guideline_數據輸入-Copy" transform="translate(-102.000000, -1574.000000)">
            <g id="select04" transform="translate(102.000000, 1574.000000)">
                <rect id="bg" x="0" y="0" width="580" height="307"></rect>
                <g id="Select/Medium/Dropdown-Copy-6" transform="translate(20.000000, 20.000000)">
                    <g id="Select/OptionBox" transform="translate(0.000000, 32.000000)">
                        <g id="Rectangle">
                            <use fill="black" fill-opacity="1" filter="url(#filter-2)" xlink:href="#path-1"></use>
                            <use fill="#FFFFFF" fill-rule="evenodd" xlink:href="#path-1"></use>
                        </g>
                        <g id="Select/Resource/Scroll" transform="translate(233.000000, 0.000000)">
                            <rect id="Rectangle" fill="#F2F2F2" x="0" y="0" width="17" height="218"></rect>
                            <rect id="Rectangle" fill="#B4B4B4" x="2" y="17" width="13" height="60"></rect>
                            <polygon id="Triangle" fill="#B4B4B4" points="8.5 6 12 11 5 11"></polygon>
                            <polygon id="Triangle-Copy" fill-opacity="0.85" fill="#000000" transform="translate(8.500000, 209.000000) scale(1, -1) translate(-8.500000, -209.000000) " points="8.5 207 12 211 5 211"></polygon>
                        </g>
                    </g>
                    <g id="Select/Medium/Placeholder">
                        <path d="M245.997267,0.5 C246.964922,0.5 247.840978,0.891634465 248.474924,1.5258214 C249.108389,2.15952782 249.5,3.03534985 249.5,4.0042577 L249.5,4.0042577 L249.5,27.9957423 C249.5,28.9626965 249.106925,29.8380867 248.473166,30.472087 C247.838514,31.1069807 246.962382,31.5 245.997267,31.5 L245.997267,31.5 L4.00273284,31.5 C3.03507815,31.5 2.15902169,31.1083655 1.52507626,30.4741786 C0.891611162,29.8404722 0.5,28.9646502 0.5,27.9957423 L0.5,27.9957423 L0.5,4.0042577 C0.5,3.03730347 0.893074767,2.16191333 1.52683369,1.52791297 C2.16148555,0.893019341 3.03761753,0.5 4.00273284,0.5 L4.00273284,0.5 L245.997267,0.5 Z" id="Rectangle-26-Copy-23" stroke="#004477" fill="#FFFFFF"></path>
                        <g id="Icon/arrow/Down-14px" transform="translate(226.000000, 9.000000)">
                            <mask id="mask-4" fill="white">
                                <use xlink:href="#path-3"></use>
                            </mask>
                            <use id="Mask" fill="#7F7F7F" xlink:href="#path-3"></use>
                        </g>
                        <text id="Text" font-family="PingFangTC-Regular, PingFang TC" font-size="14" font-weight="normal" line-spacing="22" fill="#545454">
                            <tspan x="10" y="20">選項</tspan>
                        </text>
                    </g>
                    <text id="Text" font-family="PingFangTC-Regular, PingFang TC" font-size="14" font-weight="normal" line-spacing="22" fill="#545454">
                        <tspan x="40" y="20">|</tspan>
                    </text>
                    <g id="Select/Resource/hover" transform="translate(0.000000, 62.000000)">
                        <rect id="Rectangle" fill="#F1F8FE" x="0" y="0" width="232" height="32"></rect>
                        <text id="商品分類B" font-family="PingFangTC-Regular, PingFang TC" font-size="14" font-weight="normal" line-spacing="22" fill="#545454">
                            <tspan x="10" y="20">選項一</tspan>
                        </text>
                    </g>
                    <g id="Select/Resource/default-Copy" transform="translate(0.000000, 38.000000)">
                        <rect id="Rectangle" fill="#FFFFFF" x="0" y="0" width="232" height="24"></rect>
                        <rect id="Rectangle-Copy" fill="#FFFFFF" x="0" y="120" width="232" height="24"></rect>
                        <text id="商品分類B" font-family="PingFangTC-Regular, PingFang TC" font-size="12" font-weight="normal" line-spacing="20" fill="#B4B4B4">
                            <tspan x="6" y="15">分組1</tspan>
                        </text>
                        <text id="商品分類B-Copy" font-family="PingFangTC-Regular, PingFang TC" font-size="12" font-weight="normal" line-spacing="20" fill="#B4B4B4">
                            <tspan x="6" y="135">分組2</tspan>
                        </text>
                    </g>
                    <g id="Select/Resource/selected" transform="translate(0.000000, 94.000000)">
                        <rect id="Rectangle" fill="#FFFFFF" x="0" y="0" width="232" height="32"></rect>
                        <text id="商品分類B" font-family="PingFangTC-Regular, PingFang TC" font-size="14" font-weight="normal" line-spacing="22" fill="#545454">
                            <tspan x="10" y="20">選項二</tspan>
                        </text>
                    </g>
                    <g id="Select/Resource/default-Copy-3" transform="translate(0.000000, 182.000000)">
                        <rect id="Rectangle" fill="#FFFFFF" x="0" y="0" width="232" height="32"></rect>
                        <text id="商品分類B" font-family="PingFangTC-Regular, PingFang TC" font-size="14" font-weight="normal" line-spacing="22" fill="#545454">
                            <tspan x="10" y="20">選項ㄧ</tspan>
                        </text>
                    </g>
                    <g id="Select/Resource/default-Copy-4" transform="translate(0.000000, 213.000000)">
                        <rect id="Rectangle" fill="#FFFFFF" x="0" y="0" width="232" height="32"></rect>
                        <text id="商品分類B" font-family="PingFangTC-Regular, PingFang TC" font-size="14" font-weight="normal" line-spacing="22" fill="#545454">
                            <tspan x="10" y="20">選項二</tspan>
                        </text>
                    </g>
                    <g id="Select/Resource/default-Copy-2" transform="translate(0.000000, 126.000000)">
                        <rect id="Rectangle" fill="#FFFFFF" x="0" y="0" width="232" height="32"></rect>
                        <text id="商品分類B" font-family="PingFangTC-Regular, PingFang TC" font-size="14" font-weight="normal" line-spacing="22" fill="#545454">
                            <tspan x="10" y="20">選項三</tspan>
                        </text>
                    </g>
                </g>
                <g id="Select/Medium/Dropdown-Copy-4" transform="translate(305.000000, 52.000000)">
                    <g id="Rectangle">
                        <use fill="black" fill-opacity="1" filter="url(#filter-6)" xlink:href="#path-5"></use>
                        <use fill="#FFFFFF" fill-rule="evenodd" xlink:href="#path-5"></use>
                    </g>
                    <g id="Select/Resource/hover" transform="translate(0.000000, 30.000000)">
                        <rect id="Rectangle" fill="#F1F8FE" x="0" y="0" width="250" height="32"></rect>
                        <text id="商品分類B" font-family="PingFangTC-Regular, PingFang TC" font-size="14" font-weight="normal" line-spacing="22" fill="#545454">
                            <tspan x="10" y="20">選項一</tspan>
                        </text>
                    </g>
                    <g id="Select/Resource/default-Copy" transform="translate(0.000000, 6.000000)">
                        <rect id="Rectangle" fill="#FFFFFF" x="0" y="0" width="226" height="24"></rect>
                        <text id="商品分類B" font-family="PingFangTC-Regular, PingFang TC" font-size="12" font-weight="normal" line-spacing="20" fill="#B4B4B4">
                            <tspan x="6" y="15">分組1</tspan>
                        </text>
                    </g>
                </g>
                <g id="Select/Medium/Placeholder" transform="translate(305.000000, 20.000000)">
                    <path d="M245.997267,0.5 C246.964922,0.5 247.840978,0.891634465 248.474924,1.5258214 C249.108389,2.15952782 249.5,3.03534985 249.5,4.0042577 L249.5,4.0042577 L249.5,27.9957423 C249.5,28.9626965 249.106925,29.8380867 248.473166,30.472087 C247.838514,31.1069807 246.962382,31.5 245.997267,31.5 L245.997267,31.5 L4.00273284,31.5 C3.03507815,31.5 2.15902169,31.1083655 1.52507626,30.4741786 C0.891611162,29.8404722 0.5,28.9646502 0.5,27.9957423 L0.5,27.9957423 L0.5,4.0042577 C0.5,3.03730347 0.893074767,2.16191333 1.52683369,1.52791297 C2.16148555,0.893019341 3.03761753,0.5 4.00273284,0.5 L4.00273284,0.5 L245.997267,0.5 Z" id="Rectangle-26-Copy-23" stroke="#004477" fill="#FFFFFF"></path>
                    <g id="Icon/arrow/Down-14px" transform="translate(226.000000, 9.000000)">
                        <mask id="mask-8" fill="white">
                            <use xlink:href="#path-7"></use>
                        </mask>
                        <use id="Mask" fill="#7F7F7F" xlink:href="#path-7"></use>
                    </g>
                    <text id="Text" font-family="PingFangTC-Regular, PingFang TC" font-size="14" font-weight="normal" line-spacing="22" fill="#545454">
                        <tspan x="10" y="20">選項一</tspan>
                    </text>
                </g>
                <text id="Text" font-family="PingFangTC-Regular, PingFang TC" font-size="14" font-weight="normal" line-spacing="22" fill="#545454">
                    <tspan x="363" y="40">|</tspan>
                </text>
            </g>
        </g>
    </g>
</svg>