<?xml version="1.0" encoding="UTF-8"?>
<svg width="900px" height="389px" viewBox="0 0 900 389" version="1.1" xmlns="http://www.w3.org/2000/svg" xmlns:xlink="http://www.w3.org/1999/xlink">
    <title>select01</title>
    <defs>
        <path d="M12.2458984,4.10292969 C12.2458984,4.23417969 12.2021484,4.36679687 12.1146484,4.47753906 L7.45390625,10.2716797 C7.34042969,10.4125 7.16953125,10.4945312 6.98769531,10.4945312 C6.80722656,10.4945312 6.63496094,10.4125 6.52285156,10.2716797 L1.88671875,4.50214844 C1.68027344,4.24511719 1.72128906,3.86914062 1.97832031,3.66269531 C2.23535156,3.45625 2.61132813,3.49726562 2.81777344,3.75429687 L6.9890625,8.94414062 L11.1835938,3.72832031 C11.3900391,3.47128906 11.7660156,3.43027344 12.0230469,3.63671875 C12.1693359,3.75566406 12.2458984,3.92792969 12.2458984,4.10292969 Z" id="path-1"></path>
        <path d="M12.2458984,4.10292969 C12.2458984,4.23417969 12.2021484,4.36679687 12.1146484,4.47753906 L7.45390625,10.2716797 C7.34042969,10.4125 7.16953125,10.4945312 6.98769531,10.4945312 C6.80722656,10.4945312 6.63496094,10.4125 6.52285156,10.2716797 L1.88671875,4.50214844 C1.68027344,4.24511719 1.72128906,3.86914062 1.97832031,3.66269531 C2.23535156,3.45625 2.61132813,3.49726562 2.81777344,3.75429687 L6.9890625,8.94414062 L11.1835938,3.72832031 C11.3900391,3.47128906 11.7660156,3.43027344 12.0230469,3.63671875 C12.1693359,3.75566406 12.2458984,3.92792969 12.2458984,4.10292969 Z" id="path-3"></path>
        <path d="M12.2458984,4.10292969 C12.2458984,4.23417969 12.2021484,4.36679687 12.1146484,4.47753906 L7.45390625,10.2716797 C7.34042969,10.4125 7.16953125,10.4945312 6.98769531,10.4945312 C6.80722656,10.4945312 6.63496094,10.4125 6.52285156,10.2716797 L1.88671875,4.50214844 C1.68027344,4.24511719 1.72128906,3.86914062 1.97832031,3.66269531 C2.23535156,3.45625 2.61132813,3.49726562 2.81777344,3.75429687 L6.9890625,8.94414062 L11.1835938,3.72832031 C11.3900391,3.47128906 11.7660156,3.43027344 12.0230469,3.63671875 C12.1693359,3.75566406 12.2458984,3.92792969 12.2458984,4.10292969 Z" id="path-5"></path>
        <path d="M12.2458984,4.10292969 C12.2458984,4.23417969 12.2021484,4.36679687 12.1146484,4.47753906 L7.45390625,10.2716797 C7.34042969,10.4125 7.16953125,10.4945312 6.98769531,10.4945312 C6.80722656,10.4945312 6.63496094,10.4125 6.52285156,10.2716797 L1.88671875,4.50214844 C1.68027344,4.24511719 1.72128906,3.86914062 1.97832031,3.66269531 C2.23535156,3.45625 2.61132813,3.49726562 2.81777344,3.75429687 L6.9890625,8.94414062 L11.1835938,3.72832031 C11.3900391,3.47128906 11.7660156,3.43027344 12.0230469,3.63671875 C12.1693359,3.75566406 12.2458984,3.92792969 12.2458984,4.10292969 Z" id="path-7"></path>
        <path d="M7.76152344,6.99863281 L11.2451172,3.51777344 C11.4556641,3.30722656 11.4556641,2.96679688 11.2451172,2.75761719 C11.0345703,2.54707031 10.6941406,2.54707031 10.4849609,2.75761719 L7,6.23710938 L3.51503906,2.75625 C3.30449219,2.54570313 2.9640625,2.54570313 2.75488281,2.75625 C2.54433594,2.96679688 2.54433594,3.30722656 2.75488281,3.51640625 L6.23847656,6.99726563 L2.75488281,10.4794922 C2.54433594,10.6900391 2.54433594,11.0304688 2.75488281,11.2396484 C2.86015625,11.3449219 2.99824219,11.396875 3.13496094,11.396875 C3.27304688,11.396875 3.40976563,11.3449219 3.51503906,11.2396484 L7,7.75878906 L10.4849609,11.2410156 C10.5902344,11.3462891 10.7269531,11.3982422 10.8650391,11.3982422 C11.003125,11.3982422 11.1398438,11.3462891 11.2451172,11.2410156 C11.4556641,11.0304688 11.4556641,10.6900391 11.2451172,10.4808594 L7.76152344,6.99863281 Z" id="path-9"></path>
        <path d="M7.76152344,6.99863281 L11.2451172,3.51777344 C11.4556641,3.30722656 11.4556641,2.96679688 11.2451172,2.75761719 C11.0345703,2.54707031 10.6941406,2.54707031 10.4849609,2.75761719 L7,6.23710938 L3.51503906,2.75625 C3.30449219,2.54570313 2.9640625,2.54570313 2.75488281,2.75625 C2.54433594,2.96679688 2.54433594,3.30722656 2.75488281,3.51640625 L6.23847656,6.99726563 L2.75488281,10.4794922 C2.54433594,10.6900391 2.54433594,11.0304688 2.75488281,11.2396484 C2.86015625,11.3449219 2.99824219,11.396875 3.13496094,11.396875 C3.27304688,11.396875 3.40976563,11.3449219 3.51503906,11.2396484 L7,7.75878906 L10.4849609,11.2410156 C10.5902344,11.3462891 10.7269531,11.3982422 10.8650391,11.3982422 C11.003125,11.3982422 11.1398438,11.3462891 11.2451172,11.2410156 C11.4556641,11.0304688 11.4556641,10.6900391 11.2451172,10.4808594 L7.76152344,6.99863281 Z" id="path-11"></path>
        <path d="M12.2458984,4.10292969 C12.2458984,4.23417969 12.2021484,4.36679687 12.1146484,4.47753906 L7.45390625,10.2716797 C7.34042969,10.4125 7.16953125,10.4945312 6.98769531,10.4945312 C6.80722656,10.4945312 6.63496094,10.4125 6.52285156,10.2716797 L1.88671875,4.50214844 C1.68027344,4.24511719 1.72128906,3.86914062 1.97832031,3.66269531 C2.23535156,3.45625 2.61132813,3.49726562 2.81777344,3.75429687 L6.9890625,8.94414062 L11.1835938,3.72832031 C11.3900391,3.47128906 11.7660156,3.43027344 12.0230469,3.63671875 C12.1693359,3.75566406 12.2458984,3.92792969 12.2458984,4.10292969 Z" id="path-13"></path>
        <path d="M12.2458984,4.10292969 C12.2458984,4.23417969 12.2021484,4.36679687 12.1146484,4.47753906 L7.45390625,10.2716797 C7.34042969,10.4125 7.16953125,10.4945312 6.98769531,10.4945312 C6.80722656,10.4945312 6.63496094,10.4125 6.52285156,10.2716797 L1.88671875,4.50214844 C1.68027344,4.24511719 1.72128906,3.86914062 1.97832031,3.66269531 C2.23535156,3.45625 2.61132813,3.49726562 2.81777344,3.75429687 L6.9890625,8.94414062 L11.1835938,3.72832031 C11.3900391,3.47128906 11.7660156,3.43027344 12.0230469,3.63671875 C12.1693359,3.75566406 12.2458984,3.92792969 12.2458984,4.10292969 Z" id="path-15"></path>
        <path d="M12.2458984,9.89707031 C12.2458984,9.76582031 12.2021484,9.63320312 12.1146484,9.52246094 L7.45390625,3.72832031 C7.34042969,3.5875 7.16953125,3.50546875 6.98769531,3.50546875 C6.80722656,3.50546875 6.63496094,3.5875 6.52285156,3.72832031 L1.88671875,9.49785156 C1.68027344,9.75488281 1.72128906,10.1308594 1.97832031,10.3373047 C2.23535156,10.54375 2.61132813,10.5027344 2.81777344,10.2457031 L6.9890625,5.05585937 L11.1835938,10.2716797 C11.3900391,10.5287109 11.7660156,10.5697266 12.0230469,10.3632812 C12.1693359,10.2443359 12.2458984,10.0720703 12.2458984,9.89707031 Z" id="path-17"></path>
        <rect id="path-19" x="0" y="0" width="180" height="161" rx="4"></rect>
        <filter x="-3.9%" y="-3.1%" width="107.8%" height="108.7%" filterUnits="objectBoundingBox" id="filter-20">
            <feOffset dx="0" dy="2" in="SourceAlpha" result="shadowOffsetOuter1"></feOffset>
            <feGaussianBlur stdDeviation="2" in="shadowOffsetOuter1" result="shadowBlurOuter1"></feGaussianBlur>
            <feColorMatrix values="0 0 0 0 0   0 0 0 0 0   0 0 0 0 0  0 0 0 0.1 0" type="matrix" in="shadowBlurOuter1"></feColorMatrix>
        </filter>
        <path d="M12.2458984,9.89707031 C12.2458984,9.76582031 12.2021484,9.63320312 12.1146484,9.52246094 L7.45390625,3.72832031 C7.34042969,3.5875 7.16953125,3.50546875 6.98769531,3.50546875 C6.80722656,3.50546875 6.63496094,3.5875 6.52285156,3.72832031 L1.88671875,9.49785156 C1.68027344,9.75488281 1.72128906,10.1308594 1.97832031,10.3373047 C2.23535156,10.54375 2.61132813,10.5027344 2.81777344,10.2457031 L6.9890625,5.05585937 L11.1835938,10.2716797 C11.3900391,10.5287109 11.7660156,10.5697266 12.0230469,10.3632812 C12.1693359,10.2443359 12.2458984,10.0720703 12.2458984,9.89707031 Z" id="path-21"></path>
        <path d="M7.76152344,6.99863281 L11.2451172,3.51777344 C11.4556641,3.30722656 11.4556641,2.96679688 11.2451172,2.75761719 C11.0345703,2.54707031 10.6941406,2.54707031 10.4849609,2.75761719 L7,6.23710938 L3.51503906,2.75625 C3.30449219,2.54570313 2.9640625,2.54570313 2.75488281,2.75625 C2.54433594,2.96679688 2.54433594,3.30722656 2.75488281,3.51640625 L6.23847656,6.99726563 L2.75488281,10.4794922 C2.54433594,10.6900391 2.54433594,11.0304688 2.75488281,11.2396484 C2.86015625,11.3449219 2.99824219,11.396875 3.13496094,11.396875 C3.27304688,11.396875 3.40976563,11.3449219 3.51503906,11.2396484 L7,7.75878906 L10.4849609,11.2410156 C10.5902344,11.3462891 10.7269531,11.3982422 10.8650391,11.3982422 C11.003125,11.3982422 11.1398438,11.3462891 11.2451172,11.2410156 C11.4556641,11.0304688 11.4556641,10.6900391 11.2451172,10.4808594 L7.76152344,6.99863281 Z" id="path-23"></path>
        <path d="M7.76152344,6.99863281 L11.2451172,3.51777344 C11.4556641,3.30722656 11.4556641,2.96679688 11.2451172,2.75761719 C11.0345703,2.54707031 10.6941406,2.54707031 10.4849609,2.75761719 L7,6.23710938 L3.51503906,2.75625 C3.30449219,2.54570313 2.9640625,2.54570313 2.75488281,2.75625 C2.54433594,2.96679688 2.54433594,3.30722656 2.75488281,3.51640625 L6.23847656,6.99726563 L2.75488281,10.4794922 C2.54433594,10.6900391 2.54433594,11.0304688 2.75488281,11.2396484 C2.86015625,11.3449219 2.99824219,11.396875 3.13496094,11.396875 C3.27304688,11.396875 3.40976563,11.3449219 3.51503906,11.2396484 L7,7.75878906 L10.4849609,11.2410156 C10.5902344,11.3462891 10.7269531,11.3982422 10.8650391,11.3982422 C11.003125,11.3982422 11.1398438,11.3462891 11.2451172,11.2410156 C11.4556641,11.0304688 11.4556641,10.6900391 11.2451172,10.4808594 L7.76152344,6.99863281 Z" id="path-25"></path>
        <rect id="path-27" x="0" y="0" width="180" height="161" rx="4"></rect>
        <filter x="-3.9%" y="-3.1%" width="107.8%" height="108.7%" filterUnits="objectBoundingBox" id="filter-28">
            <feOffset dx="0" dy="2" in="SourceAlpha" result="shadowOffsetOuter1"></feOffset>
            <feGaussianBlur stdDeviation="2" in="shadowOffsetOuter1" result="shadowBlurOuter1"></feGaussianBlur>
            <feColorMatrix values="0 0 0 0 0   0 0 0 0 0   0 0 0 0 0  0 0 0 0.1 0" type="matrix" in="shadowBlurOuter1"></feColorMatrix>
        </filter>
        <path d="M6.15552123,16 C6.11798922,16 6.08254233,15.9980317 6.04501032,15.9921266 C5.78645649,15.9586648 5.56126444,15.8149758 5.43198752,15.6023949 L2.11040479,10.1166255 C1.88104252,9.73870377 2.02074499,9.2584283 2.42108641,9.04191066 C2.82142784,8.82539303 3.33019506,8.95727195 3.55955733,9.33519364 L6.33692594,13.9253674 L16.5748237,4.23128256 C16.9001011,3.92422119 17.4276344,3.92225285 17.7549969,4.22931422 C18.0802743,4.53637559 18.0823594,5.03436614 17.757082,5.34339585 L6.78522493,15.7323055 L6.74560781,15.769704 C6.58713933,15.919298 6.37445795,16 6.15552123,16 Z" id="path-29"></path>
        <path d="M6.15552123,16 C6.11798922,16 6.08254233,15.9980317 6.04501032,15.9921266 C5.78645649,15.9586648 5.56126444,15.8149758 5.43198752,15.6023949 L2.11040479,10.1166255 C1.88104252,9.73870377 2.02074499,9.2584283 2.42108641,9.04191066 C2.82142784,8.82539303 3.33019506,8.95727195 3.55955733,9.33519364 L6.33692594,13.9253674 L16.5748237,4.23128256 C16.9001011,3.92422119 17.4276344,3.92225285 17.7549969,4.22931422 C18.0802743,4.53637559 18.0823594,5.03436614 17.757082,5.34339585 L6.78522493,15.7323055 L6.74560781,15.769704 C6.58713933,15.919298 6.37445795,16 6.15552123,16 Z" id="path-31"></path>
        <path d="M6.15552123,16 C6.11798922,16 6.08254233,15.9980317 6.04501032,15.9921266 C5.78645649,15.9586648 5.56126444,15.8149758 5.43198752,15.6023949 L2.11040479,10.1166255 C1.88104252,9.73870377 2.02074499,9.2584283 2.42108641,9.04191066 C2.82142784,8.82539303 3.33019506,8.95727195 3.55955733,9.33519364 L6.33692594,13.9253674 L16.5748237,4.23128256 C16.9001011,3.92422119 17.4276344,3.92225285 17.7549969,4.22931422 C18.0802743,4.53637559 18.0823594,5.03436614 17.757082,5.34339585 L6.78522493,15.7323055 L6.74560781,15.769704 C6.58713933,15.919298 6.37445795,16 6.15552123,16 Z" id="path-33"></path>
        <rect id="path-35" x="0" y="0" width="180" height="120" rx="4"></rect>
        <filter x="-3.9%" y="-4.2%" width="107.8%" height="111.7%" filterUnits="objectBoundingBox" id="filter-36">
            <feOffset dx="0" dy="2" in="SourceAlpha" result="shadowOffsetOuter1"></feOffset>
            <feGaussianBlur stdDeviation="2" in="shadowOffsetOuter1" result="shadowBlurOuter1"></feGaussianBlur>
            <feColorMatrix values="0 0 0 0 0   0 0 0 0 0   0 0 0 0 0  0 0 0 0.1 0" type="matrix" in="shadowBlurOuter1"></feColorMatrix>
        </filter>
        <path d="M12.2458984,9.89707031 C12.2458984,9.76582031 12.2021484,9.63320312 12.1146484,9.52246094 L7.45390625,3.72832031 C7.34042969,3.5875 7.16953125,3.50546875 6.98769531,3.50546875 C6.80722656,3.50546875 6.63496094,3.5875 6.52285156,3.72832031 L1.88671875,9.49785156 C1.68027344,9.75488281 1.72128906,10.1308594 1.97832031,10.3373047 C2.23535156,10.54375 2.61132813,10.5027344 2.81777344,10.2457031 L6.9890625,5.05585937 L11.1835938,10.2716797 C11.3900391,10.5287109 11.7660156,10.5697266 12.0230469,10.3632812 C12.1693359,10.2443359 12.2458984,10.0720703 12.2458984,9.89707031 Z" id="path-37"></path>
        <path d="M12.2458984,4.10292969 C12.2458984,4.23417969 12.2021484,4.36679687 12.1146484,4.47753906 L7.45390625,10.2716797 C7.34042969,10.4125 7.16953125,10.4945312 6.98769531,10.4945312 C6.80722656,10.4945312 6.63496094,10.4125 6.52285156,10.2716797 L1.88671875,4.50214844 C1.68027344,4.24511719 1.72128906,3.86914062 1.97832031,3.66269531 C2.23535156,3.45625 2.61132813,3.49726562 2.81777344,3.75429687 L6.9890625,8.94414062 L11.1835938,3.72832031 C11.3900391,3.47128906 11.7660156,3.43027344 12.0230469,3.63671875 C12.1693359,3.75566406 12.2458984,3.92792969 12.2458984,4.10292969 Z" id="path-39"></path>
    </defs>
    <g id="XXXGuideline" stroke="none" stroke-width="1" fill="none" fill-rule="evenodd">
        <g id="Guideline_數據輸入-Copy" transform="translate(-110.000000, -425.000000)">
            <g id="select01" transform="translate(110.000000, 425.000000)">
                <rect id="bg" x="0" y="0" width="900" height="389"></rect>
                <g id="Select/Medium/Placeholder" transform="translate(260.000000, 25.000000)">
                    <path d="M176.009394,0.5 C176.973525,0.5 177.846323,0.891510214 178.477937,1.52528451 C179.10962,2.15912821 179.5,3.03517539 179.5,4.0042577 L179.5,4.0042577 L179.5,27.9957423 C179.5,28.9641957 179.109953,29.8410666 178.477688,30.4754947 C177.846792,31.1085481 176.974765,31.5 176.009394,31.5 L176.009394,31.5 L3.99060623,31.5 C3.02647481,31.5 2.15367672,31.1084898 1.5220631,30.4747155 C0.890380331,29.8408718 0.5,28.9648246 0.5,27.9957423 L0.5,27.9957423 L0.5,4.0042577 C0.5,3.03580432 0.890047312,2.1589334 1.52231245,1.52450535 C2.15320766,0.891451911 3.0252352,0.5 3.99060623,0.5 L3.99060623,0.5 Z" id="Rectangle-26-Copy-23" stroke="#CCCCCC" fill="#FFFFFF"></path>
                    <g id="Group" transform="translate(156.000000, 9.000000)">
                        <mask id="mask-2" fill="white">
                            <use xlink:href="#path-1"></use>
                        </mask>
                        <use id="Mask" fill="#7F7F7F" xlink:href="#path-1"></use>
                    </g>
                    <text id="Text" font-family="PingFangTC-Regular, PingFang TC" font-size="14" font-weight="normal" line-spacing="22" fill="#B4B4B4">
                        <tspan x="10" y="20">請選擇</tspan>
                    </text>
                </g>
                <g id="Select/Medium/Placeholder" transform="translate(480.000000, 25.000000)">
                    <path d="M176.009394,0.5 C176.973525,0.5 177.846323,0.891510214 178.477937,1.52528451 C179.10962,2.15912821 179.5,3.03517539 179.5,4.0042577 L179.5,4.0042577 L179.5,27.9957423 C179.5,28.9641957 179.109953,29.8410666 178.477688,30.4754947 C177.846792,31.1085481 176.974765,31.5 176.009394,31.5 L176.009394,31.5 L3.99060623,31.5 C3.02647481,31.5 2.15367672,31.1084898 1.5220631,30.4747155 C0.890380331,29.8408718 0.5,28.9648246 0.5,27.9957423 L0.5,27.9957423 L0.5,4.0042577 C0.5,3.03580432 0.890047312,2.1589334 1.52231245,1.52450535 C2.15320766,0.891451911 3.0252352,0.5 3.99060623,0.5 L3.99060623,0.5 Z" id="Rectangle-26-Copy-23" stroke="#CCCCCC" fill="#FFFFFF"></path>
                    <g id="Group" transform="translate(156.000000, 9.000000)">
                        <mask id="mask-4" fill="white">
                            <use xlink:href="#path-3"></use>
                        </mask>
                        <use id="Mask" fill="#7F7F7F" xlink:href="#path-3"></use>
                    </g>
                    <text id="Text" font-family="PingFangTC-Regular, PingFang TC" font-size="14" font-weight="normal" line-spacing="22" fill="#B4B4B4">
                        <tspan x="10" y="20">請選擇</tspan>
                    </text>
                </g>
                <g id="Select/Medium/Selected-Copy-2" transform="translate(260.000000, 332.000000)">
                    <path d="M176.009394,0.5 C176.973525,0.5 177.846323,0.891510214 178.477937,1.52528451 C179.10962,2.15912821 179.5,3.03517539 179.5,4.0042577 L179.5,4.0042577 L179.5,27.9957423 C179.5,28.9641957 179.109953,29.8410666 178.477688,30.4754947 C177.846792,31.1085481 176.974765,31.5 176.009394,31.5 L176.009394,31.5 L3.99060623,31.5 C3.02647481,31.5 2.15367672,31.1084898 1.5220631,30.4747155 C0.890380331,29.8408718 0.5,28.9648246 0.5,27.9957423 L0.5,27.9957423 L0.5,4.0042577 C0.5,3.03580432 0.890047312,2.1589334 1.52231245,1.52450535 C2.15320766,0.891451911 3.0252352,0.5 3.99060623,0.5 L3.99060623,0.5 Z" id="Rectangle-26-Copy-23" stroke="#CCCCCC" fill="#F2F2F2"></path>
                    <g id="Icon/arrow/Down-14px" transform="translate(156.000000, 8.999851)">
                        <mask id="mask-6" fill="white">
                            <use xlink:href="#path-5"></use>
                        </mask>
                        <path stroke="#CCCCCC" d="M2.36278371,4.03174247 C2.38747381,4.03443667 2.41116393,4.04650737 2.4280512,4.06753253 L2.4280512,4.06753253 L6.98895268,9.74212513 L11.5734205,4.04142586 C11.6186654,4.02745696 11.6419151,4.03282547 11.6625024,4.03890423 L11.6625024,4.03890423 L7.06458059,9.95795125 C7.04586658,9.98117466 7.01763069,9.99453125 6.98769531,9.99453125 C6.95941264,9.99453125 6.93179323,9.98257683 6.91260925,9.95848814 L6.91260925,9.95848814 L2.27654553,4.18904289 C2.25975437,4.16813734 2.25307027,4.14238835 2.25576591,4.11768504 C2.25846011,4.09299494 2.27053081,4.06930482 2.29142586,4.05252209 C2.31233141,4.03573093 2.3380804,4.02904684 2.36278371,4.03174247 Z"></path>
                    </g>
                    <text id="Text" font-family="PingFangTC-Semibold, PingFang TC" font-size="14" font-weight="500" line-spacing="22" fill="#B4B4B4">
                        <tspan x="10" y="20">選項二</tspan>
                    </text>
                </g>
                <g id="Group-4" transform="translate(480.000000, 332.000000)">
                    <g id="Select/Medium/Selected-Copy-2">
                        <path d="M176.009394,0.5 C176.973525,0.5 177.846323,0.891510214 178.477937,1.52528451 C179.10962,2.15912821 179.5,3.03517539 179.5,4.0042577 L179.5,4.0042577 L179.5,27.9957423 C179.5,28.9641957 179.109953,29.8410666 178.477688,30.4754947 C177.846792,31.1085481 176.974765,31.5 176.009394,31.5 L176.009394,31.5 L3.99060623,31.5 C3.02647481,31.5 2.15367672,31.1084898 1.5220631,30.4747155 C0.890380331,29.8408718 0.5,28.9648246 0.5,27.9957423 L0.5,27.9957423 L0.5,4.0042577 C0.5,3.03580432 0.890047312,2.1589334 1.52231245,1.52450535 C2.15320766,0.891451911 3.0252352,0.5 3.99060623,0.5 L3.99060623,0.5 Z" id="Rectangle-26-Copy-23" stroke="#CCCCCC" fill="#F2F2F2"></path>
                        <g id="Icon/arrow/Down-14px" transform="translate(156.000000, 8.999851)">
                            <mask id="mask-8" fill="white">
                                <use xlink:href="#path-7"></use>
                            </mask>
                            <path stroke="#CCCCCC" d="M2.36278371,4.03174247 C2.38747381,4.03443667 2.41116393,4.04650737 2.4280512,4.06753253 L2.4280512,4.06753253 L6.98895268,9.74212513 L11.5734205,4.04142586 C11.6186654,4.02745696 11.6419151,4.03282547 11.6625024,4.03890423 L11.6625024,4.03890423 L7.06458059,9.95795125 C7.04586658,9.98117466 7.01763069,9.99453125 6.98769531,9.99453125 C6.95941264,9.99453125 6.93179323,9.98257683 6.91260925,9.95848814 L6.91260925,9.95848814 L2.27654553,4.18904289 C2.25975437,4.16813734 2.25307027,4.14238835 2.25576591,4.11768504 C2.25846011,4.09299494 2.27053081,4.06930482 2.29142586,4.05252209 C2.31233141,4.03573093 2.3380804,4.02904684 2.36278371,4.03174247 Z"></path>
                        </g>
                        <text id="Text" font-family="PingFangTC-Semibold, PingFang TC" font-size="14" font-weight="500" line-spacing="22" fill="#B4B4B4">
                            <tspan x="10" y="20">選項一</tspan>
                        </text>
                    </g>
                    <g id="Tag/Default/Closable/medium" transform="translate(5.000000, 4.000000)">
                        <path d="M65.9978179,0.5 C66.9653332,0.5 67.8413321,0.890436295 68.4752924,1.52247534 C69.1083912,2.15365541 69.5,3.02578999 69.5,3.99005301 L69.5,3.99005301 L69.5,20.009947 C69.5,20.9725228 69.1067704,21.8438593 68.4736342,22.4750768 C67.8386412,23.1081453 66.9622206,23.5 65.9978179,23.5 L65.9978179,23.5 L4.00218213,23.5 C3.03584726,23.5 2.16099532,23.107495 1.52734125,22.4748472 C0.892863475,21.841377 0.5,20.9669882 0.5,20.0041738 L0.5,20.0041738 L0.5,3.99582624 C0.5,3.03157557 0.893288574,2.15868937 1.52662173,1.52636201 C2.16154906,0.892443015 3.03786193,0.5 4.00218213,0.5 L4.00218213,0.5 Z" id="Bg" stroke="#CCCCCC" fill="#F2F2F2"></path>
                        <text id="Text" font-family="PingFangTC-Regular, PingFang TC" font-size="14" font-weight="normal" line-spacing="22" fill="#B4B4B4">
                            <tspan x="8" y="16">選項二</tspan>
                        </text>
                        <g id="Icon/forAll/close/stroke-14px" transform="translate(49.184211, 5.000000)">
                            <mask id="mask-10" fill="white">
                                <use xlink:href="#path-9"></use>
                            </mask>
                            <use id="Mask" fill="#B4B4B4" xlink:href="#path-9"></use>
                        </g>
                    </g>
                    <g id="Tag/Default/Closable/medium-Copy" transform="translate(80.000000, 4.000000)">
                        <path d="M65.9978179,0.5 C66.9653332,0.5 67.8413321,0.890436295 68.4752924,1.52247534 C69.1083912,2.15365541 69.5,3.02578999 69.5,3.99005301 L69.5,3.99005301 L69.5,20.009947 C69.5,20.9725228 69.1067704,21.8438593 68.4736342,22.4750768 C67.8386412,23.1081453 66.9622206,23.5 65.9978179,23.5 L65.9978179,23.5 L4.00218213,23.5 C3.03584726,23.5 2.16099532,23.107495 1.52734125,22.4748472 C0.892863475,21.841377 0.5,20.9669882 0.5,20.0041738 L0.5,20.0041738 L0.5,3.99582624 C0.5,3.03157557 0.893288574,2.15868937 1.52662173,1.52636201 C2.16154906,0.892443015 3.03786193,0.5 4.00218213,0.5 L4.00218213,0.5 Z" id="Bg" stroke="#CCCCCC" fill="#F2F2F2"></path>
                        <text id="Text" font-family="PingFangTC-Regular, PingFang TC" font-size="14" font-weight="normal" line-spacing="22" fill="#B4B4B4">
                            <tspan x="8" y="16">選項四</tspan>
                        </text>
                        <g id="Icon/forAll/close/stroke-14px" transform="translate(49.184211, 5.000000)">
                            <mask id="mask-12" fill="white">
                                <use xlink:href="#path-11"></use>
                            </mask>
                            <use id="Mask" fill="#B4B4B4" xlink:href="#path-11"></use>
                        </g>
                    </g>
                </g>
                <g id="Select/Small/Placeholder" transform="translate(260.000000, 77.000000)">
                    <path d="M176.009394,0.5 C176.973525,0.5 177.846323,0.891510214 178.477937,1.52528451 C179.10962,2.15912821 179.5,3.03517539 179.5,4.0042577 L179.5,4.0042577 L179.5,27.9957423 C179.5,28.9641957 179.109953,29.8410666 178.477688,30.4754947 C177.846792,31.1085481 176.974765,31.5 176.009394,31.5 L176.009394,31.5 L3.99060623,31.5 C3.02647481,31.5 2.15367672,31.1084898 1.5220631,30.4747155 C0.890380331,29.8408718 0.5,28.9648246 0.5,27.9957423 L0.5,27.9957423 L0.5,4.0042577 C0.5,3.03580432 0.890047312,2.1589334 1.52231245,1.52450535 C2.15320766,0.891451911 3.0252352,0.5 3.99060623,0.5 L3.99060623,0.5 Z" id="Rectangle-26-Copy-23" stroke="#004477" fill="#FFFFFF"></path>
                    <g id="Group" transform="translate(156.000000, 9.000000)">
                        <mask id="mask-14" fill="white">
                            <use xlink:href="#path-13"></use>
                        </mask>
                        <use id="Mask" fill="#7F7F7F" xlink:href="#path-13"></use>
                    </g>
                    <text id="Text" font-family="PingFangTC-Regular, PingFang TC" font-size="14" font-weight="normal" line-spacing="22" fill="#B4B4B4">
                        <tspan x="10" y="20">請選擇</tspan>
                    </text>
                </g>
                <g id="Select/Small/Placeholder" transform="translate(480.000000, 77.000000)">
                    <path d="M176.009394,0.5 C176.973525,0.5 177.846323,0.891510214 178.477937,1.52528451 C179.10962,2.15912821 179.5,3.03517539 179.5,4.0042577 L179.5,4.0042577 L179.5,27.9957423 C179.5,28.9641957 179.109953,29.8410666 178.477688,30.4754947 C177.846792,31.1085481 176.974765,31.5 176.009394,31.5 L176.009394,31.5 L3.99060623,31.5 C3.02647481,31.5 2.15367672,31.1084898 1.5220631,30.4747155 C0.890380331,29.8408718 0.5,28.9648246 0.5,27.9957423 L0.5,27.9957423 L0.5,4.0042577 C0.5,3.03580432 0.890047312,2.1589334 1.52231245,1.52450535 C2.15320766,0.891451911 3.0252352,0.5 3.99060623,0.5 L3.99060623,0.5 Z" id="Rectangle-26-Copy-23" stroke="#004477" fill="#FFFFFF"></path>
                    <g id="Group" transform="translate(156.000000, 9.000000)">
                        <mask id="mask-16" fill="white">
                            <use xlink:href="#path-15"></use>
                        </mask>
                        <use id="Mask" fill="#7F7F7F" xlink:href="#path-15"></use>
                    </g>
                    <text id="Text" font-family="PingFangTC-Regular, PingFang TC" font-size="14" font-weight="normal" line-spacing="22" fill="#B4B4B4">
                        <tspan x="10" y="20">請選擇</tspan>
                    </text>
                </g>
                <g id="Select/Medium/Dropdown" transform="translate(260.000000, 129.000000)">
                    <g id="Select/Medium/Placeholder">
                        <path d="M176.009394,0.5 C176.973525,0.5 177.846323,0.891510214 178.477937,1.52528451 C179.10962,2.15912821 179.5,3.03517539 179.5,4.0042577 L179.5,4.0042577 L179.5,27.9957423 C179.5,28.9641957 179.109953,29.8410666 178.477688,30.4754947 C177.846792,31.1085481 176.974765,31.5 176.009394,31.5 L176.009394,31.5 L3.99060623,31.5 C3.02647481,31.5 2.15367672,31.1084898 1.5220631,30.4747155 C0.890380331,29.8408718 0.5,28.9648246 0.5,27.9957423 L0.5,27.9957423 L0.5,4.0042577 C0.5,3.03580432 0.890047312,2.1589334 1.52231245,1.52450535 C2.15320766,0.891451911 3.0252352,0.5 3.99060623,0.5 L3.99060623,0.5 Z" id="Rectangle-26-Copy-23" stroke="#004477" fill="#FFFFFF"></path>
                        <g id="Icon/arrow/Down-14px" transform="translate(156.000000, 9.000000)">
                            <mask id="mask-18" fill="white">
                                <use xlink:href="#path-17"></use>
                            </mask>
                            <use id="Mask" fill="#7F7F7F" xlink:href="#path-17"></use>
                        </g>
                        <text id="Text" font-family="PingFangTC-Semibold, PingFang TC" font-size="14" font-weight="500" line-spacing="22" fill="#545454">
                            <tspan x="10" y="20">選項二</tspan>
                        </text>
                    </g>
                    <g id="Select/OptionBox" transform="translate(0.000000, 32.000000)">
                        <g id="Rectangle">
                            <use fill="black" fill-opacity="1" filter="url(#filter-20)" xlink:href="#path-19"></use>
                            <use fill="#FFFFFF" fill-rule="evenodd" xlink:href="#path-19"></use>
                        </g>
                        <g id="Select/Resource/Scroll" transform="translate(163.000000, 0.000000)">
                            <rect id="Rectangle" fill="#F2F2F2" x="0" y="0" width="17" height="161"></rect>
                            <rect id="Rectangle" fill="#B4B4B4" x="2" y="17" width="13" height="60"></rect>
                            <polygon id="Triangle" fill="#B4B4B4" points="8.5 6 12 11 5 11"></polygon>
                            <polygon id="Triangle-Copy" fill-opacity="0.85" fill="#000000" transform="translate(8.500000, 152.000000) scale(1, -1) translate(-8.500000, -152.000000) " points="8.5 150 12 154 5 154"></polygon>
                        </g>
                    </g>
                    <g id="Select/Resource/hover" transform="translate(0.000000, 33.000000)">
                        <rect id="Rectangle" fill="#F1F8FE" x="0" y="0" width="163" height="32"></rect>
                        <text id="商品分類B" font-family="PingFangTC-Regular, PingFang TC" font-size="14" font-weight="normal" line-spacing="22" fill="#545454">
                            <tspan x="10" y="20">選項一（Hover）</tspan>
                        </text>
                    </g>
                    <g id="Select/Resource/selected" transform="translate(0.000000, 65.000000)">
                        <rect id="Rectangle" fill="#F2F2F2" x="0" y="0" width="163" height="32"></rect>
                        <text id="商品分類B" font-family="PingFangTC-Semibold, PingFang TC" font-size="14" font-weight="500" line-spacing="22" fill="#545454">
                            <tspan x="10" y="20">選項二（Selected）</tspan>
                        </text>
                    </g>
                    <g id="Select/Resource/default" transform="translate(0.000000, 97.000000)">
                        <rect id="Rectangle" fill="#FFFFFF" x="0" y="0" width="163" height="32"></rect>
                        <text id="商品分類B" font-family="PingFangTC-Regular, PingFang TC" font-size="14" font-weight="normal" line-spacing="22" fill="#B4B4B4">
                            <tspan x="10" y="20">選項三（Disabled）</tspan>
                        </text>
                    </g>
                    <g id="Select/Resource/default" transform="translate(0.000000, 129.000000)">
                        <rect id="Rectangle" fill="#FFFFFF" x="0" y="0" width="163" height="32"></rect>
                        <text id="商品分類B" font-family="PingFangTC-Regular, PingFang TC" font-size="14" font-weight="normal" line-spacing="22" fill="#545454">
                            <tspan x="10" y="20">選項四</tspan>
                        </text>
                    </g>
                    <g id="Select/Resource/default" transform="translate(0.000000, 161.000000)">
                        <rect id="Rectangle" fill="#FFFFFF" x="0" y="0" width="163" height="32"></rect>
                        <text id="商品分類B" font-family="PingFangTC-Regular, PingFang TC" font-size="14" font-weight="normal" line-spacing="22" fill="#545454">
                            <tspan x="10" y="20">選項五</tspan>
                        </text>
                    </g>
                </g>
                <g id="Select/Medium/Dropdown" transform="translate(480.000000, 129.000000)">
                    <g id="Select/Medium/Placeholder">
                        <path d="M176.009394,0.5 C176.973525,0.5 177.846323,0.891510214 178.477937,1.52528451 C179.10962,2.15912821 179.5,3.03517539 179.5,4.0042577 L179.5,4.0042577 L179.5,27.9957423 C179.5,28.9641957 179.109953,29.8410666 178.477688,30.4754947 C177.846792,31.1085481 176.974765,31.5 176.009394,31.5 L176.009394,31.5 L3.99060623,31.5 C3.02647481,31.5 2.15367672,31.1084898 1.5220631,30.4747155 C0.890380331,29.8408718 0.5,28.9648246 0.5,27.9957423 L0.5,27.9957423 L0.5,4.0042577 C0.5,3.03580432 0.890047312,2.1589334 1.52231245,1.52450535 C2.15320766,0.891451911 3.0252352,0.5 3.99060623,0.5 L3.99060623,0.5 Z" id="Rectangle-26-Copy-23" stroke="#004477" fill="#FFFFFF"></path>
                        <g id="Icon/arrow/Down-14px" transform="translate(156.000000, 9.000000)">
                            <mask id="mask-22" fill="white">
                                <use xlink:href="#path-21"></use>
                            </mask>
                            <use id="Mask" fill="#7F7F7F" xlink:href="#path-21"></use>
                        </g>
                        <text id="Text" font-family="PingFangTC-Semibold, PingFang TC" font-size="14" font-weight="500" line-spacing="22"></text>
                    </g>
                    <g id="Tag/Default/Closable/medium" transform="translate(5.000000, 4.000000)">
                        <path d="M68.0005854,0.5 C68.9672966,0.5 69.8425521,0.890407755 70.4759802,1.52235322 C71.1086725,2.15356453 71.5,3.02575055 71.5,3.99005301 L71.5,3.99005301 L71.5,20.009947 C71.5,20.9727549 71.1073125,21.8443256 70.4745401,22.4756169 C69.8402887,23.1083836 68.9647376,23.5 68.0005854,23.5 L68.0005854,23.5 L3.99941455,23.5 C3.03388284,23.5 2.15977374,23.1075234 1.52665172,22.4749694 C0.892581339,21.8414679 0.5,20.9670275 0.5,20.0041738 L0.5,20.0041738 L0.5,3.99582624 C0.5,3.03134311 0.892746581,2.15822245 1.52571569,1.52582124 C2.15990149,0.892204439 3.03534498,0.5 3.99941455,0.5 L3.99941455,0.5 Z" id="Bg" stroke="#CCCCCC" fill="#F2F2F2"></path>
                        <text id="Text" font-family="PingFangTC-Regular, PingFang TC" font-size="14" font-weight="normal" line-spacing="22" fill="#545454">
                            <tspan x="8" y="16">選項二</tspan>
                        </text>
                        <g id="Icon/forAll/close/stroke-14px" transform="translate(50.789474, 5.000000)">
                            <mask id="mask-24" fill="white">
                                <use xlink:href="#path-23"></use>
                            </mask>
                            <use id="Mask" fill="#7F7F7F" xlink:href="#path-23"></use>
                        </g>
                    </g>
                    <g id="Tag/Default/Closable/medium-Copy" transform="translate(81.000000, 4.000000)">
                        <path d="M68.0005854,0.5 C68.9672966,0.5 69.8425521,0.890407755 70.4759802,1.52235322 C71.1086725,2.15356453 71.5,3.02575055 71.5,3.99005301 L71.5,3.99005301 L71.5,20.009947 C71.5,20.9727549 71.1073125,21.8443256 70.4745401,22.4756169 C69.8402887,23.1083836 68.9647376,23.5 68.0005854,23.5 L68.0005854,23.5 L3.99941455,23.5 C3.03388284,23.5 2.15977374,23.1075234 1.52665172,22.4749694 C0.892581339,21.8414679 0.5,20.9670275 0.5,20.0041738 L0.5,20.0041738 L0.5,3.99582624 C0.5,3.03134311 0.892746581,2.15822245 1.52571569,1.52582124 C2.15990149,0.892204439 3.03534498,0.5 3.99941455,0.5 L3.99941455,0.5 Z" id="Bg" stroke="#CCCCCC" fill="#F2F2F2"></path>
                        <text id="Text" font-family="PingFangTC-Regular, PingFang TC" font-size="14" font-weight="normal" line-spacing="22" fill="#545454">
                            <tspan x="8" y="16">選項四</tspan>
                        </text>
                        <g id="Icon/forAll/close/stroke-14px" transform="translate(50.789474, 5.000000)">
                            <mask id="mask-26" fill="white">
                                <use xlink:href="#path-25"></use>
                            </mask>
                            <use id="Mask" fill="#7F7F7F" xlink:href="#path-25"></use>
                        </g>
                    </g>
                    <g id="Select/OptionBox" transform="translate(0.000000, 32.000000)">
                        <g id="Rectangle">
                            <use fill="black" fill-opacity="1" filter="url(#filter-28)" xlink:href="#path-27"></use>
                            <use fill="#FFFFFF" fill-rule="evenodd" xlink:href="#path-27"></use>
                        </g>
                        <g id="Select/Resource/Scroll" transform="translate(163.000000, 0.000000)">
                            <rect id="Rectangle" fill="#F2F2F2" x="0" y="0" width="17" height="161"></rect>
                            <rect id="Rectangle" fill="#B4B4B4" x="2" y="17" width="13" height="60"></rect>
                            <polygon id="Triangle" fill="#B4B4B4" points="8.5 6 12 11 5 11"></polygon>
                            <polygon id="Triangle-Copy" fill-opacity="0.85" fill="#000000" transform="translate(8.500000, 152.000000) scale(1, -1) translate(-8.500000, -152.000000) " points="8.5 150 12 154 5 154"></polygon>
                        </g>
                    </g>
                    <g id="Select/Resource/hover" transform="translate(0.000000, 33.000000)">
                        <rect id="Rectangle" fill="#F1F8FE" x="0" y="0" width="163" height="32"></rect>
                        <text id="商品分類B" font-family="PingFangTC-Regular, PingFang TC" font-size="14" font-weight="normal" line-spacing="22" fill="#545454">
                            <tspan x="10" y="20">選項一（Hover）</tspan>
                        </text>
                        <g id="Icon/forAll/check/stroke-10px" transform="translate(139.000000, 6.000000)">
                            <mask id="mask-30" fill="white">
                                <use xlink:href="#path-29"></use>
                            </mask>
                            <use id="Mask" fill-opacity="0.2" fill="#004477" xlink:href="#path-29"></use>
                        </g>
                    </g>
                    <g id="Select/Resource/selected" transform="translate(0.000000, 65.000000)">
                        <rect id="Rectangle" fill="#F2F2F2" x="0" y="0" width="163" height="32"></rect>
                        <text id="商品分類B" font-family="PingFangTC-Semibold, PingFang TC" font-size="14" font-weight="500" line-spacing="22" fill="#545454">
                            <tspan x="10" y="20">選項二（Selected）</tspan>
                        </text>
                        <g id="Icon/forAll/check/stroke-10px" transform="translate(139.000000, 6.000000)">
                            <mask id="mask-32" fill="white">
                                <use xlink:href="#path-31"></use>
                            </mask>
                            <use id="Mask" fill="#B4B4B4" xlink:href="#path-31"></use>
                        </g>
                    </g>
                    <g id="Select/Resource/selected-Copy" transform="translate(0.000000, 128.000000)">
                        <rect id="Rectangle" fill="#F2F2F2" x="0" y="0" width="163" height="32"></rect>
                        <text id="商品分類B" font-family="PingFangTC-Semibold, PingFang TC" font-size="14" font-weight="500" line-spacing="22" fill="#545454">
                            <tspan x="10" y="20">選項四（Selected）</tspan>
                        </text>
                        <g id="Icon/forAll/check/stroke-10px" transform="translate(139.000000, 6.000000)">
                            <mask id="mask-34" fill="white">
                                <use xlink:href="#path-33"></use>
                            </mask>
                            <use id="Mask" fill="#B4B4B4" xlink:href="#path-33"></use>
                        </g>
                    </g>
                    <g id="Select/Resource/default" transform="translate(0.000000, 97.000000)">
                        <rect id="Rectangle" fill="#FFFFFF" x="0" y="0" width="163" height="32"></rect>
                        <text id="商品分類B" font-family="PingFangTC-Regular, PingFang TC" font-size="14" font-weight="normal" line-spacing="22" fill="#B4B4B4">
                            <tspan x="10" y="20">選項三（Disabled）</tspan>
                        </text>
                    </g>
                    <g id="Select/Resource/default" transform="translate(0.000000, 161.000000)">
                        <rect id="Rectangle" fill="#FFFFFF" x="0" y="0" width="163" height="32"></rect>
                        <text id="商品分類B" font-family="PingFangTC-Regular, PingFang TC" font-size="14" font-weight="normal" line-spacing="22" fill="#545454">
                            <tspan x="10" y="20">選項五</tspan>
                        </text>
                    </g>
                </g>
                <g id="Select/Medium/Dropdown-Copy-3" transform="translate(700.000000, 25.000000)">
                    <g id="Rectangle" transform="translate(0.000000, 32.000000)">
                        <use fill="black" fill-opacity="1" filter="url(#filter-36)" xlink:href="#path-35"></use>
                        <use fill="#FFFFFF" fill-rule="evenodd" xlink:href="#path-35"></use>
                    </g>
                    <g id="Group" transform="translate(62.000000, 61.000000)">
                        <g id="Group-38" transform="translate(1.000000, 0.000000)">
                            <ellipse id="Oval" fill-opacity="0.4" fill="#F2F2F2" cx="27" cy="30.5" rx="27" ry="5.5"></ellipse>
                            <g id="Group-36" transform="translate(7.000000, 0.000000)" stroke="#D9D9D9">
                                <path d="M29.8932261,0.5 L39.5,11.099898 L39.5,27.5 L0.5,27.5 L0.5,11.2900709 L10.0153739,0.5 L29.8932261,0.5 Z" id="Path" fill="#FFFFFF"></path>
                                <path d="M9.20422091,11.5 C9.56763183,11.5 9.904899,11.6302701 10.1672666,11.8499813 C10.4296342,12.0696925 10.6171023,12.3788449 10.680915,12.7366094 L10.680915,12.7366094 L11.1159168,15.175438 C11.2222713,15.7717122 11.534718,16.2869661 11.9719974,16.6531515 C12.4092768,17.0193369 12.9713887,17.2364537 13.5770736,17.2364537 L13.5770736,17.2364537 L26.5805421,17.2364537 C27.186227,17.2364537 27.7483389,17.0193369 28.1856183,16.6531515 C28.6228977,16.2869661 28.9353444,15.7717122 29.0416989,15.175438 L29.0416989,15.175438 L29.4767007,12.7366094 C29.5405134,12.3788449 29.7279815,12.0696925 29.9903491,11.8499813 C30.2527167,11.6302701 30.5899839,11.5 30.9533948,11.5 L30.9533948,11.5 L39.5,11.5 L39.5,28 C39.5,28.6903559 39.220178,29.3153559 38.767767,29.767767 C38.3153559,30.220178 37.6903559,30.5 37,30.5 L37,30.5 L3,30.5 C2.30964406,30.5 1.68464406,30.220178 1.23223305,29.767767 C0.779822031,29.3153559 0.5,28.6903559 0.5,28 L0.5,28 L0.5,11.5 Z" id="Path-2" fill="#FAFAFA"></path>
                            </g>
                        </g>
                    </g>
                    <text id="無此資料" font-family="PingFangTC-Regular, PingFang TC" font-size="12" font-weight="normal" line-spacing="20" fill="#B4B4B4">
                        <tspan x="66" y="115">無此資料</tspan>
                    </text>
                    <g id="Select/Medium/Placeholder">
                        <path d="M176.009394,0.5 C176.973525,0.5 177.846323,0.891510214 178.477937,1.52528451 C179.10962,2.15912821 179.5,3.03517539 179.5,4.0042577 L179.5,4.0042577 L179.5,27.9957423 C179.5,28.9641957 179.109953,29.8410666 178.477688,30.4754947 C177.846792,31.1085481 176.974765,31.5 176.009394,31.5 L176.009394,31.5 L3.99060623,31.5 C3.02647481,31.5 2.15367672,31.1084898 1.5220631,30.4747155 C0.890380331,29.8408718 0.5,28.9648246 0.5,27.9957423 L0.5,27.9957423 L0.5,4.0042577 C0.5,3.03580432 0.890047312,2.1589334 1.52231245,1.52450535 C2.15320766,0.891451911 3.0252352,0.5 3.99060623,0.5 L3.99060623,0.5 Z" id="Rectangle-26-Copy-23" stroke="#004477" fill="#FFFFFF"></path>
                        <g id="Icon/arrow/Down-14px" transform="translate(156.000000, 9.000000)">
                            <mask id="mask-38" fill="white">
                                <use xlink:href="#path-37"></use>
                            </mask>
                            <use id="Mask" fill="#7F7F7F" xlink:href="#path-37"></use>
                        </g>
                        <text id="Text" font-family="PingFangTC-Regular, PingFang TC" font-size="14" font-weight="normal" line-spacing="22" fill="#545454">
                            <tspan x="10" y="20">選項一百</tspan>
                        </text>
                    </g>
                    <text id="Text" font-family="PingFangTC-Regular, PingFang TC" font-size="14" font-weight="normal" line-spacing="22" fill="#545454">
                        <tspan x="69" y="20">|</tspan>
                    </text>
                </g>
                <g id="Group-6" transform="translate(20.000000, 25.000000)">
                    <g id="Select/Medium/Placeholder">
                        <path d="M146.007203,0.5 C146.971971,0.5 147.845358,0.891532641 148.477393,1.52538169 C149.109397,2.15920054 149.5,3.03520701 149.5,4.0042577 L149.5,4.0042577 L149.5,27.9957423 C149.5,28.9634178 149.108717,29.839541 148.476292,30.473781 C147.844175,31.1077126 146.971085,31.5 146.007203,31.5 L146.007203,31.5 L3.99279704,31.5 C3.02802913,31.5 2.1546423,31.1084674 1.52260741,30.4746183 C0.890602619,29.8407995 0.5,28.964793 0.5,27.9957423 L0.5,27.9957423 L0.5,4.0042577 C0.5,3.03658222 0.891282902,2.16045905 1.52370764,1.52621904 C2.15582486,0.892287432 3.02891482,0.5 3.99279704,0.5 L3.99279704,0.5 Z" id="Rectangle-26-Copy-23" stroke="#CCCCCC" fill="#FFFFFF"></path>
                        <g id="Group" transform="translate(126.000000, 9.000000)">
                            <mask id="mask-40" fill="white">
                                <use xlink:href="#path-39"></use>
                            </mask>
                            <use id="Mask" fill="#7F7F7F" xlink:href="#path-39"></use>
                        </g>
                        <text id="Text" font-family="PingFangTC-Regular, PingFang TC" font-size="14" font-weight="normal" line-spacing="22" fill="#B4B4B4">
                            <tspan x="10" y="20">請選擇</tspan>
                        </text>
                    </g>
                    <text id="font-size:-14px-Radi" font-family="PingFangTC-Regular, PingFang TC" font-size="16" font-weight="normal" line-spacing="24" fill="#4C4C4C">
                        <tspan x="0" y="116">font-size: 14px</tspan>
                        <tspan x="0" y="140">Radius: 4px</tspan>
                    </text>
                    <g id="size-width:-Button/Primary/Basic/Medium" transform="translate(0.000000, 32.000000)">
                        <g id="Group" transform="translate(0.000000, 16.500000)" fill="#FF5500" fill-rule="nonzero">
                            <g id="line">
                                <path id="Line" d="M10,9 L9,9 L9,5 L1,5 L1,9 L0,9 L0,0 L1,0 L1,4 L9,4 L9,0 L10,0 L10,9 Z"></path>
                            </g>
                        </g>
                        <g id="Number" transform="translate(-16.500000, 26.000000)">
                            <path d="M21.5,0 L24.5,3 L41,3 C42.1045695,3 43,3.8954305 43,5 L43,23 C43,24.1045695 42.1045695,25 41,25 L2,25 C0.8954305,25 1.3527075e-16,24.1045695 0,23 L0,5 C-1.3527075e-16,3.8954305 0.8954305,3 2,3 L18.5,3 L21.5,0 Z" id="Bg" fill="#FF5500"></path>
                            <text id="数据" font-family="Menlo-Regular, Menlo" font-size="12" font-weight="normal" fill="#FFFFFF">
                                <tspan x="7.05078125" y="18">10px</tspan>
                            </text>
                        </g>
                    </g>
                    <g id="size-height:-Button/Primary/Basic/Medium" transform="translate(149.000000, 0.000000)">
                        <g id="Group" transform="translate(16.500000, 0.000000)" fill="#FF5500" fill-rule="nonzero">
                            <g id="Line">
                                <path d="M5,0.999 L5,31 L9,31 L9,32 L0,32 L0,31 L4,31 L4,1 L0,1 L0,2.49800181e-16 L9,-2.49800181e-16 L9,1 L5,0.999 Z"></path>
                            </g>
                        </g>
                        <g id="Number" transform="translate(22.500000, 5.000000)">
                            <path d="M44,0 C45.1045695,-2.02906125e-16 46,0.8954305 46,2 L46,20 C46,21.1045695 45.1045695,22 44,22 L5,22 C3.8954305,22 3,21.1045695 3,20 L3,14 L0,11 L3,8 L3,2 C3,0.8954305 3.8954305,2.02906125e-16 5,0 L44,0 Z" id="Bg" fill="#FF5500"></path>
                            <text id="数据" font-family="Menlo-Regular, Menlo" font-size="12" font-weight="normal" fill="#FFFFFF">
                                <tspan x="10" y="15">32px</tspan>
                            </text>
                        </g>
                    </g>
                </g>
            </g>
        </g>
    </g>
</svg>