<?xml version="1.0" encoding="UTF-8"?>
<svg width="250px" height="250px" viewBox="0 0 250 250" version="1.1" xmlns="http://www.w3.org/2000/svg" xmlns:xlink="http://www.w3.org/1999/xlink">
    <title>logo_solid</title>
    <g id="Symbols" stroke="none" stroke-width="1" fill="none" fill-rule="evenodd">
        <g id="logo_solid">
            <rect id="Rectangle" fill="#004477" x="0" y="0" width="250" height="250"></rect>
            <path d="M84.3084598,147.662845 C90.2199127,145.41974 95.4495947,148.655148 97.5614217,150.28953 L97.5614217,150.28953 L92.3067969,158.786646 C91.8079401,159.445402 91.1427978,160.204222 90.3861983,160.546108 C88.9062565,161.221542 87.1852006,161.138155 85.7884016,160.329303 L85.7884016,160.329303 L72.0365828,152.290813 C74.4719739,151.346805 77.9339044,150.063097 81.4941897,148.725168 L82.6206772,148.301194 C83.1844731,148.088639 83.7482852,147.875482 84.3084598,147.662845 Z M53.1049678,115.717356 C58.342964,112.873865 60.9203908,113.590992 62.175847,114.841794 L62.175847,114.841794 C62.2795732,114.930426 63.9057211,116.375859 63.3897319,119.569827 C62.857618,122.863606 60.155477,126.349175 58.9083351,133.570473 L58.9083351,133.570473 L58.8375211,134.139677 C58.6594199,135.641143 58.5674496,137.011569 58.5674496,138.256812 C58.5674496,139.03231 58.6755352,139.616017 58.9000208,140.007935 C59.1245063,140.399853 59.5069632,140.766755 60.06402,141.100303 C60.8455623,141.583946 61.6520474,141.992542 62.4751611,142.326089 C63.2982748,142.659636 63.8470173,142.82641 64.1130742,142.82641 C64.4123883,142.82641 64.7200166,141.867461 65.0359593,139.957903 C65.3435876,138.048345 65.7343588,136.263867 66.1999584,134.612808 C67.1644149,131.06053 68.6443567,127.716719 70.6480981,124.573036 C72.6518395,121.437691 75.2375805,118.394073 78.3970069,115.450518 C76.2768655,120.412034 74.5807524,125.131727 73.3086676,129.626277 C72.0365828,134.112487 71.4046976,137.239493 71.4046976,138.998955 C71.4046976,139.315825 71.5709832,139.649372 71.9118686,139.991258 C72.2527541,140.333144 72.8347537,140.750078 73.6578674,141.233722 C74.4976096,141.717365 75.2375805,142.100944 75.8694658,142.392798 C76.5013511,142.684652 76.9336936,142.82641 77.1664935,142.82641 C77.3992933,142.82641 77.7152359,141.975864 78.1060071,140.274773 C78.5549782,138.406909 78.9790064,136.789204 79.3697776,135.404983 C80.542091,131.352384 82.1218042,127.816783 84.0839742,124.79818 C86.0461443,121.779577 88.6817709,118.827684 91.9908543,115.925823 C90.0785699,120.462066 88.5903139,124.581374 87.5177718,128.283749 C86.4452297,131.986124 85.9131158,134.796259 85.9131158,136.705817 C85.9131158,138.415247 86.4286011,139.866178 87.4429433,141.050271 C88.4572854,142.234363 89.6711702,142.82641 91.0845978,142.82641 C91.9492829,142.82641 92.7723966,142.667975 93.5456246,142.351105 L93.5456246,142.351105 C98.7503637,140.733401 104.013303,136.155464 108.062357,131.877721 L108.062357,131.877721 L108.095614,131.844366 L108.095614,131.844366 L108.195386,131.759937 L108.195386,131.759937 L108.295157,131.669254 C114.273124,125.757128 118.222407,117.910429 118.222407,117.918768 L118.222407,117.918768 L118.222407,120.136857 C116.833922,122.671816 115.595095,124.873228 114.49761,126.774448 C111.396761,132.056244 107.519026,136.306905 105.365305,138.477143 L105.088578,138.754087 C104.246019,139.591455 103.730617,140.049629 103.730617,140.049629 L103.730617,140.049629 L102.017876,142.601265 L99.0829349,147.6962 L98.6755352,148.413327 C97.0376221,146.995751 91.151112,142.559572 83.9426315,145.29466 C78.4801497,147.362653 73.0592392,149.464 69.8665558,150.706464 L69.8665558,150.706464 L46.0295157,136.939301 C44.2752027,135.921981 43.2109748,134.145842 43.0280607,132.252961 C43.0031179,131.994462 42.9948036,131.735963 43.0031179,131.469125 C43.0197464,130.985482 43.0862607,130.510177 43.2192891,130.034872 C43.5186032,129.409471 43.8262316,128.767393 44.1504885,128.100298 C44.225317,127.941863 44.3084598,127.783428 44.3832883,127.624993 L44.3832883,127.624993 L47.1852006,122.755203 L47.1852006,122.755203 L49.4134276,118.877716 C49.9871129,118.53583 50.4859697,117.134932 53.1049678,115.717356 Z M131.92434,131.452448 C132.68094,131.702608 132.880482,131.94443 132.813968,132.661557 C132.647682,134.546099 132.248597,136.37227 131.475369,138.106716 C131.392226,138.298506 131.300769,138.490295 131.184369,138.665408 C130.926626,139.040648 130.652255,139.582663 130.145084,139.374196 C129.762627,139.215761 129.38017,138.782149 129.230513,138.390231 C129.059477,137.954237 129.40155,137.683656 129.759331,137.410448 L129.937227,137.272848 L129.937227,137.272848 C130.061941,137.439621 130.153398,137.556363 130.303055,137.756491 C130.461027,137.114413 130.594055,136.555721 130.743712,135.913643 C130.386198,136.272206 130.07857,136.547383 129.795884,136.855914 C129.521513,137.156106 129.238828,137.147768 129.030971,136.839236 C128.839742,136.547383 128.557057,136.163803 128.615257,135.880288 C128.897942,134.479389 129.272085,133.095168 129.621285,131.702608 C129.637913,131.635899 129.712742,131.594206 129.762627,131.544174 C130.452713,131.81935 130.652255,132.119543 130.535855,132.761621 C130.386198,133.612167 130.219913,134.446035 130.02037,135.463354 C131.055036,134.594278 131.405673,133.498205 131.686454,132.394845 L131.863376,131.6867 C131.883308,131.608387 131.903554,131.530276 131.92434,131.452448 Z M181.452505,123.205492 C181.361048,123.822554 181.277905,124.406262 181.178133,124.98997 C180.737477,127.483236 180.280191,129.976501 179.839534,132.478106 C179.548535,134.112487 178.750364,134.804598 177.104136,134.821275 C176.513822,134.804598 175.923509,134.804598 175.274995,134.804598 C175.516109,135.671821 175.740594,135.863611 176.472251,135.871949 C177.561422,135.888627 178.658907,135.880288 179.856163,135.880288 C179.756392,136.539044 179.65662,137.139429 179.573477,137.706459 C179.515277,137.748153 179.48202,137.781507 179.448763,137.781507 C177.237165,137.781507 175.033881,137.814862 172.822282,137.773169 C171.949283,137.756491 171.284141,137.347896 171.067969,136.405625 C170.993141,136.072078 170.826855,135.755208 170.760341,135.42166 C170.668884,134.946356 170.444398,134.696195 169.937227,134.796259 C169.879027,134.804598 169.820827,134.796259 169.762627,134.796259 C169.61297,134.796259 169.459655,134.787921 169.305076,134.77678 L168.839942,134.74049 C168.375805,134.706869 167.921846,134.697863 167.542715,134.862969 C166.927458,135.121468 166.528372,135.888627 166.029516,136.422302 C165.106631,137.406267 163.992517,137.95662 162.612347,137.931604 C161.132405,137.906588 159.652463,137.923265 158.172521,137.923265 L157.507379,137.923265 L157.507379,137.923265 C157.449179,137.25617 157.399293,136.655785 157.332779,135.980352 C158.513407,135.980352 159.602577,135.988691 160.691748,135.980352 C161.456662,135.972013 161.972147,135.588434 162.362918,134.829614 L158.347121,134.829614 L158.347121,134.829614 C159.037206,130.902095 159.710663,127.057963 160.392434,123.205492 L181.452505,123.205492 L181.452505,123.205492 Z M184.952816,126.957899 C191.612555,126.966237 198.280607,126.966237 204.940345,126.966237 C205.015174,126.966237 205.090002,126.982915 205.231345,127.007931 C205.048431,128.083621 204.873831,129.142633 204.690917,130.193307 C204.499688,131.268997 204.30846,132.353026 204.100603,133.420377 C203.851174,134.737889 203.061318,135.413322 201.714404,135.480031 C201.207233,135.505047 200.691748,135.480031 200.176263,135.480031 C200.217834,136.255529 200.475577,136.505689 201.257119,136.530705 C202.063604,136.555721 202.870089,136.539044 203.676575,136.539044 L204.358345,136.539044 L204.358345,136.539044 C204.30846,136.939301 204.291831,137.289525 204.200374,137.614734 C204.167117,137.739814 203.942631,137.898249 203.801289,137.898249 C201.689462,137.914926 199.577635,137.931604 197.465808,137.881572 C196.675951,137.864894 196.077323,137.456299 195.811266,136.605753 C195.48484,135.570307 195.42873,135.487219 194.522797,135.480599 L194.239867,135.480031 L194.239867,135.480031 C193.583039,135.480031 192.926211,135.538402 192.286011,135.463354 C191.562669,135.388306 191.097069,135.688498 190.673041,136.222174 C190.066099,136.989333 189.309499,137.581379 188.328414,137.798185 C188.0291,137.864894 187.721472,137.898249 187.422158,137.898249 C185.942216,137.906588 184.462274,137.906588 182.990646,137.906588 C182.184161,137.906588 182.184161,137.906588 182.051133,137.114413 C182.02619,136.947639 182.017876,136.772527 182.001247,136.530705 L185.060902,136.530705 L185.060902,136.530705 C185.759302,136.530705 186.316358,136.280545 186.715444,135.505047 C185.443359,135.521725 184.271046,135.521725 183.040532,135.521725 C183.256703,134.229229 183.456246,133.036798 183.664103,131.844366 C183.921846,130.368419 184.196217,128.900811 184.445645,127.416526 C184.495531,127.107995 184.595302,126.957899 184.952816,126.957899 Z M121.747662,128.350458 C122.362918,128.508893 122.653918,128.775731 122.57909,129.251036 C122.487633,129.776373 122.354604,130.293371 122.304718,130.852063 C122.587404,130.443468 122.870089,130.026533 123.152775,129.617938 C123.327375,129.367778 123.510289,129.117617 123.709832,128.884134 C124.258574,128.233717 124.383288,128.233717 125.106631,128.65899 C125.480773,128.884134 125.597173,129.167649 125.497402,129.576245 C125.439202,129.801389 125.389316,130.026533 125.33943,130.243339 C125.289545,130.443468 125.239659,130.643596 125.297859,130.902095 C125.464145,130.685289 125.63043,130.468484 125.796716,130.251678 C126.162544,129.784712 126.520058,129.309407 126.910829,128.859118 C127.160258,128.567264 127.393058,128.200362 127.908543,128.492216 C128.4074,128.775731 128.731657,129.092601 128.606942,129.718002 C128.266057,131.369061 127.9418,133.028459 127.5926,134.671179 C127.434629,135.429999 127.434629,135.463354 128.199543,135.446677 C128.241114,136.013707 128.0582,136.514028 127.675743,136.897607 C127.010601,137.564702 125.896487,137.214477 125.838287,136.238851 C125.771773,135.263226 125.946373,134.262584 126.137601,133.295297 C126.320515,132.32801 126.661401,131.394077 126.993972,130.285033 C124.932031,132.252961 124.258574,134.679518 123.792974,137.1978 C122.620661,136.897607 122.313033,136.338915 122.628975,135.079775 C123.028061,133.487086 123.460403,131.902737 123.867803,130.351742 C123.335689,130.660273 122.204947,132.252961 121.797547,133.495425 C121.398462,134.704534 121.124091,135.955336 120.791519,137.181122 C119.86032,136.964317 119.552692,136.572399 119.619206,135.730192 C119.818749,133.362006 120.375805,131.077207 121.140719,128.842441 C121.240491,128.550587 121.298691,128.233717 121.747662,128.350458 Z M144.196217,131.427432 C145.085845,131.802673 145.185616,131.94443 145.035959,132.803314 C144.886302,133.662199 144.703388,134.521083 144.528788,135.42166 L145.127416,135.42166 L145.127416,135.42166 C144.986074,135.896965 144.936188,136.380609 144.695074,136.730834 C144.528788,136.980994 144.079817,137.1978 143.797132,137.164445 C143.52276,137.13109 143.115361,136.789204 143.065475,136.514028 C142.965704,135.988691 142.974018,135.396644 143.098732,134.871307 C143.339846,133.812295 143.689046,132.778298 144.004989,131.735963 C144.029931,131.619222 144.129703,131.527496 144.196217,131.427432 Z M154.996466,128.383813 C155.603409,128.500555 155.952609,129.042569 155.802952,129.634615 C155.428809,131.077207 155.013095,132.519799 154.61401,133.954053 C154.564124,134.120826 154.489295,134.2876 154.505924,134.454373 C154.530867,134.754566 154.514238,135.163161 154.697152,135.313258 C154.863438,135.446677 155.262523,135.29658 155.678237,135.263226 C155.445438,135.80524 155.295781,136.313899 155.029724,136.75585 C154.680524,137.32288 153.699439,137.1978 153.416753,136.589076 C153.366868,136.489012 153.33361,136.388948 153.267096,136.238851 C153.175639,136.347254 153.117439,136.413964 153.059239,136.480673 C152.676782,136.930962 152.219497,137.264509 151.60424,137.031026 C150.964041,136.797543 150.764498,136.222174 150.697984,135.605111 C150.606527,134.696195 150.872584,133.853988 151.329869,133.078491 C151.570983,132.669896 151.878612,132.294655 152.144668,131.894398 C152.443983,131.435771 152.776554,131.385739 153.167325,131.785995 C153.258782,131.886059 153.366868,131.961108 153.549782,132.102865 C153.832467,131.110562 154.09021,130.193307 154.347953,129.284391 C154.364581,129.22602 154.356267,129.159311 154.389524,129.117617 C154.442735,129.050908 154.471115,128.959886 154.494685,128.864319 L154.528938,128.720029 C154.582415,128.505891 154.662232,128.318771 154.996466,128.383813 Z M139.556849,131.602544 C139.955934,131.844366 140.014134,132.169575 139.847849,132.586509 C139.748077,132.82833 139.698192,133.095168 139.706506,133.4037 C139.989191,133.061814 140.255248,132.711589 140.546248,132.378042 C140.762419,132.13622 140.961962,131.836027 141.236333,131.69427 C141.485762,131.560851 141.893162,131.494141 142.117647,131.610883 C142.342133,131.727625 142.574932,132.119543 142.54999,132.369703 C142.49179,133.070152 142.300561,133.762263 142.159218,134.454373 C142.101018,134.72955 142.034504,135.004726 141.96799,135.329935 L142.508418,135.329935 L142.508418,135.329935 C142.408647,136.013707 142.117647,136.572399 141.61879,136.972655 C141.477448,137.089397 141.070048,136.989333 140.845562,136.88093 C140.429848,136.672463 140.23862,136.280545 140.346705,135.813579 C140.504677,135.163161 140.704219,134.521083 140.887134,133.879004 C140.945334,133.662199 141.028476,133.453732 141.094991,133.236926 L140.928705,133.136862 L140.928705,133.136862 C140.512991,133.762263 140.055706,134.362648 139.698192,135.021404 C139.348992,135.671821 139.107878,136.388948 138.825192,137.072719 C137.918936,136.847575 137.669507,136.472334 137.893993,135.605111 C138.118478,134.762905 138.376221,133.929036 138.667221,132.945072 C137.445022,134.16252 136.871337,135.546741 136.555394,137.047703 C135.682395,136.989333 135.283309,136.539044 135.449595,135.746869 C135.715652,134.471051 136.02328,133.203571 136.322594,131.936092 C136.397423,131.62756 136.530451,131.385739 136.921222,131.535835 C137.270422,131.669254 137.644565,131.769318 137.536479,132.277977 C137.469965,132.544815 137.40345,132.819992 137.311993,133.228587 C137.777593,132.678234 138.151736,132.219607 138.534192,131.769318 C138.825192,131.427432 139.166078,131.369061 139.556849,131.602544 Z M149.966327,131.585867 C150.45687,131.836027 150.45687,132.227945 150.357098,132.661557 C150.149241,133.545457 149.93307,134.437696 149.708584,135.388306 L150.448555,135.388306 L150.448555,135.388306 C150.066099,135.980352 149.766784,136.505689 149.392642,136.972655 C149.309499,137.072719 148.927042,136.997671 148.727499,136.914284 C148.345043,136.764188 147.962586,136.522366 148.037414,136.038723 C148.1455,135.379967 148.3201,134.737889 148.486385,134.087471 C148.5529,133.837311 148.660985,133.595489 148.694242,133.328651 C147.513615,134.304277 146.948244,135.630128 146.574101,137.064381 C145.584702,136.705817 145.351902,136.380609 145.551445,135.471693 C145.792559,134.329293 146.083559,133.195232 146.391187,132.077849 C146.457701,131.836027 146.466015,131.410755 146.948244,131.519157 C147.4471,131.62756 147.812929,132.044494 147.763043,132.469767 C147.7381,132.653218 147.696529,132.836669 147.630015,133.178555 C148.0873,132.661557 148.4365,132.2613 148.794014,131.877721 C149.118271,131.527496 149.46747,131.335706 149.966327,131.585867 Z M153.341925,132.553154 C152.59364,133.437054 152.078154,134.337632 152.269383,135.555079 C153.167325,134.913001 153.616296,133.662199 153.341925,132.553154 Z M84.6909166,89.0919452 C85.1897734,88.8918168 85.7385159,89.0252357 86.0960299,89.4254925 C86.453544,89.8340879 86.5117439,90.4011182 86.2540012,90.8680844 L86.2540012,90.8680844 L82.4044897,97.8392223 L99.3489919,107.620496 L103.489503,100.13236 C103.75556,99.6570549 104.271046,99.4068944 104.811474,99.5069586 C105.351902,99.6070228 105.750987,100.023957 105.825816,100.565971 L105.825816,100.565971 L106.382873,104.485152 C106.424444,104.751989 106.374558,105.027166 106.249844,105.260649 L106.249844,105.260649 L103.647475,110.113762 L111.238412,114.49157 C113.607982,115.859113 114.705467,118.619217 114.106838,121.162515 C113.125753,122.27156 110.864269,124.781503 106.175016,129.809728 C99.1827063,137.306203 96.2810227,134.654502 95.341509,133.812295 C94.8093951,133.328651 94.9507379,132.102865 95.1669092,131.135578 C95.2999376,130.676951 95.4246518,130.235 95.549366,129.809728 L95.549366,129.809728 L95.684197,129.332859 C95.9932706,128.238407 96.2633548,127.271641 96.4888797,126.432562 C97.3119933,123.397282 97.9688215,120.587146 98.459364,118.010493 C98.9499065,115.433841 99.1993349,113.707733 99.1993349,112.823833 C99.1993349,112.181755 99.1245063,111.698111 98.9748493,111.364564 C98.816878,111.031017 98.5341925,110.722485 98.1018499,110.430632 C97.3452505,109.938649 96.5803367,109.538393 95.8071087,109.221523 C95.0338807,108.904653 94.4768239,108.746218 94.1359385,108.746218 C93.5123675,108.746218 92.3483683,109.588425 90.6522552,111.281177 C88.9478279,112.973929 86.5283725,115.700678 83.3855747,119.461424 L83.3855747,119.461424 L83.7098316,118.552507 C84.848888,115.158664 85.4225733,113.115687 85.4225733,112.431915 C85.4225733,111.931594 85.3311162,111.539676 85.1648306,111.256161 C84.998545,110.972646 84.641031,110.664115 84.1089171,110.330567 C83.3606319,109.880279 82.562461,109.488361 81.7227188,109.171491 C80.8829765,108.854621 80.3176055,108.696186 80.03492,108.696186 C79.2700062,108.696186 78.0311785,109.613441 76.3267512,111.439612 C74.6223238,113.274122 69.8914986,117.426785 67.3223862,122.146479 C67.3223862,122.146479 69.8831844,113.674379 65.5015589,110.780856 C65.2271877,110.597405 64.969445,110.380599 64.6867595,110.213826 C63.5643317,109.563409 62.2257327,109.329926 60.837248,109.346603 L60.837248,109.346603 L60.8134258,109.346089 C60.4740285,109.331064 56.7923509,109.096442 52.4148826,113.599331 L52.415,113.598 L55.7239659,107.887334 L63.6973602,94.0367834 C65.3685305,91.1432609 69.0933278,90.1342804 71.9866972,91.8103554 L71.9866972,91.8103554 L78.0727499,95.3292791 L80.3009769,91.1682769 C80.4423197,90.9097778 80.6668052,90.7096494 80.9411765,90.6012466 L80.9411765,90.6012466 Z M200.32592,132.911717 L187.904386,132.911717 L187.904386,132.911717 C187.205986,132.911717 187.189358,132.936733 187.230929,133.745585 C187.413843,133.753924 187.596757,133.770602 187.787986,133.770602 L199.303263,133.770602 L199.303263,133.770602 C199.436292,133.770602 199.577635,133.77894 199.702349,133.753924 C200.134691,133.687215 200.400748,133.46207 200.32592,132.911717 Z M176.13968,131.435771 L163.61006,131.435771 L163.61006,131.435771 C162.653918,131.435771 162.57909,131.519157 162.620661,132.544815 C162.745375,132.561493 162.870089,132.594847 163.003118,132.594847 C167.068801,132.594847 171.134483,132.603186 175.200166,132.594847 C175.96508,132.594847 176.156308,132.344687 176.13968,131.435771 Z M188.286843,130.843724 C187.671586,130.835386 187.5053,131.077207 187.555186,131.719286 L200.001663,131.719286 L200.001663,131.719286 C200.716691,131.719286 200.766577,131.652576 200.641862,130.885418 C200.458948,130.877079 200.276034,130.860402 200.084806,130.860402 C196.152151,130.860402 192.219497,130.86874 188.286843,130.843724 Z M144.919559,129.050908 C145.376845,129.03423 145.526502,129.376116 145.54313,129.776373 C145.559759,130.268355 145.227188,130.643596 144.803159,130.601902 C144.345874,130.568548 144.196217,130.276694 144.212846,129.851421 C144.237788,129.392794 144.437331,129.067585 144.919559,129.050908 Z M201.099148,128.78407 L188.012471,128.78407 L188.012471,128.78407 C187.962586,129.075924 187.921014,129.334423 187.871129,129.659631 C188.153814,129.676309 188.3783,129.692986 188.602785,129.692986 L200.226148,129.692986 C200.999376,129.692986 200.999376,129.684648 201.099148,128.78407 Z M176.680108,128.450523 L164.108917,128.450523 C163.177718,128.450523 163.177718,128.450523 163.144461,129.501197 L175.84868,129.501197 L175.84868,129.501197 C176.655165,129.501197 176.705051,129.451164 176.680108,128.450523 Z M177.245479,125.36521 L164.624402,125.36521 C163.684889,125.36521 163.626689,125.440259 163.718146,126.465916 C163.78466,126.482594 163.859489,126.50761 163.934317,126.50761 C168.191228,126.50761 172.456454,126.50761 176.713365,126.515948 C177.037622,126.515948 177.162336,126.374191 177.187279,126.082337 C177.203908,125.87387 177.220536,125.665403 177.245479,125.36521 Z M189.068385,121.429353 L206.545001,121.429353 L206.545001,121.429353 C206.278944,122.621784 206.129287,123.7892 205.763459,124.873228 C205.414259,125.907225 204.491374,126.232433 203.452089,126.232433 L184.387445,126.232433 L184.387445,126.232433 C184.661817,124.6731 184.919559,123.180476 185.202245,121.69619 C185.227188,121.579449 185.501559,121.437691 185.667845,121.437691 C186.798587,121.412675 187.929329,121.429353 189.068385,121.429353 Z M190.564955,123.172137 L189.299111,123.172885 C188.427781,123.181113 188.423335,123.279845 188.369985,124.464633 C188.868842,124.464633 189.326128,124.414601 189.775099,124.472971 C190.390355,124.556358 190.556641,124.247827 190.564955,123.730829 L190.564955,123.172137 L190.564955,123.172137 Z M200.61692,123.188814 C200.517148,123.188814 200.367491,123.313895 200.342548,123.413959 C200.259406,123.730829 200.226148,124.047699 200.15132,124.456294 L201.456662,124.456294 L201.456662,124.456294 C202.337975,124.447955 202.570775,124.172779 202.479318,123.180476 C201.864062,123.180476 201.240491,123.172137 200.61692,123.188814 Z M196.559551,123.172137 L195.264915,123.172808 C194.380459,123.180186 194.372203,123.268727 194.273124,124.331214 C194.273124,124.347891 194.289753,124.364569 194.32301,124.447955 C194.896695,124.447955 195.503637,124.456294 196.102266,124.439617 C196.193723,124.439617 196.335065,124.297859 196.360008,124.206134 C196.451465,123.897602 196.493037,123.580733 196.559551,123.172137 Z M183.057161,115.675662 C182.965704,116.200999 182.899189,116.692981 182.807732,117.176625 C182.616504,118.193944 182.483475,119.227941 182.217418,120.228583 C181.893162,121.44603 181.144876,121.996383 179.914363,121.996383 C173.53731,122.01306 167.168572,122.004722 160.791519,122.004722 C160.658491,122.004722 160.533777,121.971367 160.334234,121.938012 C160.700062,119.836664 161.065891,117.768671 161.431719,115.675662 L183.057161,115.675662 L183.057161,115.675662 Z M195.802952,115.300422 C196.833922,115.333776 197.864893,115.30876 198.929121,115.30876 C198.895864,115.558921 198.870921,115.742372 198.837664,116.00921 L208,116.00921 L208,116.00921 C207.875286,116.726336 207.7672,117.360076 207.6508,118.052187 L206.944086,118.052187 L206.944086,118.052187 C204.291831,118.052187 201.64789,118.060525 198.995635,118.043848 C198.430264,118.035509 198.313864,118.28567 198.405321,118.844361 L206.935772,118.844361 L206.935772,118.844361 C206.836001,119.469762 206.744544,120.003438 206.653087,120.553791 L185.459988,120.553791 L185.459988,120.553791 C185.559759,119.986761 185.651216,119.469762 185.750987,118.886055 C185.975473,118.869377 186.199958,118.8527 186.424444,118.8527 C188.877157,118.8527 191.338183,118.836023 193.790896,118.861039 C194.339638,118.869377 194.597381,118.719281 194.43941,118.068864 L185.252131,118.068864 L185.252131,118.068864 C185.36853,117.410108 185.435045,116.8264 185.584702,116.267709 C185.617959,116.142628 185.933901,116.025887 186.116816,116.025887 C188.802328,116.00921 191.48784,116.017548 194.181667,116.017548 L194.905009,116.017548 L194.905009,116.017548 C194.896695,115.342115 195.287466,115.283744 195.802952,115.300422 Z M170.835169,117.860397 C170.735398,117.860397 170.577427,118.027171 170.552484,118.143912 C170.436084,118.677588 170.352941,119.211263 170.25317,119.80331 C171.034712,119.80331 171.741426,119.811648 172.439825,119.794971 C172.556225,119.794971 172.739139,119.661552 172.764082,119.561488 C172.880482,119.019474 172.946996,118.477459 173.055082,117.84372 C172.265226,117.84372 171.550197,117.835381 170.835169,117.860397 Z M176.937851,117.860397 C176.829765,117.860397 176.66348,118.018832 176.638537,118.135573 C176.530451,118.644233 176.447308,119.16957 176.339223,119.794971 C177.029308,119.794971 177.627936,119.819987 178.209936,119.778294 C178.401164,119.761616 178.68385,119.586504 178.742049,119.428069 C178.900021,118.944426 178.966535,118.435766 179.091249,117.84372 C178.301393,117.84372 177.619622,117.835381 176.937851,117.860397 Z M164.932031,117.852058 C164.832259,117.852058 164.65766,117.9688 164.641031,118.060525 C164.524631,118.610878 164.441488,119.16957 164.333403,119.761616 L166.520058,119.761616 L166.520058,119.761616 C166.653087,119.211263 166.786115,118.66091 166.910829,118.110557 C166.935772,118.060525 166.910829,118.002155 166.902515,117.84372 C166.229058,117.84372 165.580545,117.835381 164.932031,117.852058 Z M87.5676575,91.0765514 C87.9168572,90.4761664 88.6817709,90.2676993 89.2803991,90.6179239 L89.2803991,90.6179239 L101.627105,97.7641741 C101.918104,97.9309478 102.125961,98.1977856 102.209104,98.5229942 C102.292247,98.8482027 102.250676,99.18175 102.08439,99.4736039 L102.08439,99.4736039 L100.305134,102.567255 C100.072334,102.967511 99.648306,103.192656 99.2159634,103.192656 C98.9997921,103.192656 98.7919351,103.142624 98.5923924,103.025882 L98.5923924,103.025882 L86.245687,95.8796321 C85.6470588,95.5377461 85.4392018,94.7622487 85.7884016,94.1702023 L85.7884016,94.1702023 Z" id="logo" fill="#FFFFFF"></path>
        </g>
    </g>
</svg>