<?xml version="1.0" encoding="UTF-8"?>
<svg width="250px" height="250px" viewBox="0 0 250 250" version="1.1" xmlns="http://www.w3.org/2000/svg" xmlns:xlink="http://www.w3.org/1999/xlink">
    <title>logo_small</title>
    <g id="Symbols" stroke="none" stroke-width="1" fill="none" fill-rule="evenodd">
        <g id="logo_small">
            <rect id="Rectangle" fill="#F2F2F2" x="0" y="0" width="250" height="250"></rect>
            <path d="M131.831888,85.6834022 L149.218643,95.6442552 C149.566378,95.6442552 149.914113,96 149.914113,96 C150.609583,96 150.957318,95.6442552 151.305053,94.9327657 L153.739199,90.6638287 C154.086934,90.308084 154.086934,89.5965945 153.739199,89.2408497 C153.739199,88.885105 153.391464,88.5293602 153.043729,88.1736155 L136.004709,78.2127625 C135.309239,77.8570177 134.266034,77.8570177 133.570564,78.924252 L131.136418,83.193189 C130.788683,83.9046785 131.136418,84.9719127 131.831888,85.6834022 Z" id="Path" fill="#004477" fill-rule="nonzero"></path>
            <path d="M95.7421042,103.987043 C97.8770322,103.987043 99.6561389,104.342029 101.079424,105.052001 C101.435246,105.406987 101.791067,105.761973 102.146888,105.761973 C108.195851,109.66682 104.637638,121.736345 104.637638,121.736345 C108.195851,114.99161 114.956456,109.311834 117.447206,106.471945 C119.937955,103.987043 121.717062,102.567099 122.784526,102.567099 C123.140347,102.567099 123.85199,102.922085 125.275275,103.277071 C126.342739,103.632057 127.766025,104.342029 128.477667,105.052001 C129.18931,105.406987 129.900953,106.116959 129.900953,106.471945 C130.256774,106.826931 130.256774,107.536903 130.256774,108.246875 C130.256774,109.311834 129.545131,112.151722 127.766025,116.76654 L127.410203,118.186484 C132.035881,112.861694 135.238273,108.956848 137.729022,106.471945 C140.219772,103.987043 141.643057,102.922085 142.710521,102.922085 C143.066342,102.922085 144.133806,103.277071 145.20127,103.632057 C146.268734,103.987043 147.336198,104.697015 148.403662,105.406987 C149.115305,105.761973 149.471126,106.116959 149.471126,106.826931 C149.826948,107.181917 149.826948,107.891889 149.826948,108.956848 C149.826948,110.376792 149.471126,112.506708 148.759484,116.411554 C148.047841,119.961415 146.980377,123.866261 145.912913,128.126093 C145.557092,129.546038 145.20127,130.965982 144.489628,132.740912 L144.489628,132.740912 L144.489628,132.740912 C144.489628,133.450884 144.133806,133.80587 143.777985,134.515842 C143.422164,135.935786 143.422164,137.710716 144.133806,138.420689 C145.557092,139.485647 149.471126,143.390493 159.434124,132.740912 C166.194729,125.641191 169.397121,122.091331 170.820407,120.671387 C171.532049,117.121526 170.108764,113.21668 166.906372,111.086764 L156.231732,105.052001 L159.789945,98.3072664 C160.145767,97.9522804 160.145767,97.5972944 160.145767,97.2423083 L159.789945,91.5625318 C159.789945,90.8525597 159.078303,90.1425876 158.36666,90.1425876 C157.655017,90.1425876 156.943374,90.4975736 156.587553,90.8525597 L150.53859,101.502141 L126.342739,87.6576854 L131.680059,77.7180763 C132.035881,77.0081043 132.035881,76.2981322 131.324238,75.5881601 C130.968417,74.8781881 129.900953,74.8781881 129.18931,75.2331741 L123.85199,77.3630903 C123.496169,77.3630903 123.140347,77.7180763 122.784526,78.0730624 L120.293777,84.462811 L111.754064,79.4930065 C107.84003,77.0081043 102.50271,78.4280484 100.01196,82.6878808 L88.6256774,101.857127 L84,110.021806 C90.4047841,103.632057 95.7421042,103.987043 95.7421042,103.987043 Z" id="Path" fill="#004477" fill-rule="nonzero"></path>
            <path d="M128.649123,155.209717 C120.929825,157.975374 113.561404,161.086737 109,162.815272 L130.403509,174.91502 C132.859649,176.297848 135.666667,176.297848 138.122807,175.260727 C139.526316,174.569312 140.578947,173.877898 141.280702,172.49507 L146.894737,162.815272 L149,159.358202 C146.894737,157.629666 138.824561,151.406939 128.649123,155.209717 Z" id="Path" fill="#F5A700" fill-rule="nonzero"></path>
            <path d="M163.425249,135.056856 C163.425249,135.056856 163.425249,135.056856 163.425249,135.056856 L163.425249,135.056856 L163.425249,135.056856 C163.425249,135.411371 163.425249,135.411371 163.425249,135.056856 L163.425249,135.056856 C157.38206,141.438127 149.916944,147.819398 142.451827,149.946488 L142.451827,149.946488 C141.385382,150.301003 140.318937,150.655518 138.89701,150.655518 C136.76412,150.655518 135.342193,149.946488 133.564784,148.173913 C132.142857,146.401338 131.431894,144.628763 131.431894,142.147157 C131.431894,139.311037 132.142857,135.411371 133.564784,130.448161 C134.986711,125.130435 137.119601,119.458194 139.963455,113.076923 C135.342193,117.331104 131.431894,121.230769 128.58804,125.48495 C125.744186,129.73913 123.611296,134.702341 121.833887,140.374582 C121.122924,142.501672 120.767442,144.628763 120.056478,147.110368 C119.345515,149.591973 118.990033,150.655518 118.634551,150.655518 C118.27907,150.655518 117.568106,150.301003 116.857143,149.946488 C115.790698,149.591973 115.079734,148.882943 113.657807,148.173913 C112.591362,147.464883 111.524917,146.755853 111.169435,146.401338 C110.813953,146.046823 110.458472,145.337793 110.458472,144.983278 C110.458472,142.501672 111.524917,138.247492 113.302326,131.866221 C115.079734,125.48495 117.568106,118.749164 120.41196,112.013378 C115.790698,116.267559 112.23588,120.521739 109.392027,124.77592 C106.548173,129.0301 104.415282,133.993311 102.993355,138.956522 C102.282392,141.438127 101.92691,143.919732 101.215947,146.401338 C100.860465,149.237458 100.504983,150.301003 99.7940199,150.301003 C99.4385382,150.301003 98.7275748,149.946488 97.3056478,149.591973 C96.2392027,149.237458 95.1727575,148.528428 93.7508306,147.819398 C93.0398671,147.464883 92.3289037,146.755853 91.9734219,146.401338 C91.6179402,145.692308 91.6179402,144.983278 91.6179402,143.919732 C91.6179402,141.792642 91.6179402,139.665552 91.9734219,137.183946 L91.9734219,137.183946 C93.7508306,126.90301 97.6611296,121.939799 98.372093,117.331104 C99.0830565,112.722408 96.5946844,110.595318 96.5946844,110.595318 L96.5946844,110.595318 C94.8172757,108.822742 91.2624585,107.759197 83.7973422,111.658863 C80.2425249,113.785953 79.5315615,115.558528 78.4651163,116.267559 L77.0431894,122.648829 L77.0431894,122.648829 L73.1328904,129.384615 C73.1328904,129.73913 72.7774086,129.73913 72.7774086,130.093645 C72.4219269,131.157191 71.7109635,131.866221 71.3554817,132.929766 C71,133.638796 71,134.347826 71,135.056856 C71,135.411371 71,135.765886 71,136.120401 C71.3554817,138.956522 72.7774086,141.438127 75.2657807,142.856187 L109.036545,162 C113.657807,160.227425 121.122924,157.391304 128.943522,154.200669 C139.252492,150.301003 147.428571,156.682274 149.916944,158.454849 L150.627907,157.391304 L150.627907,157.391304 L150.627907,157.391304 L154.893688,150.301003 L157.38206,146.755853 C157.38206,146.755853 166.269103,138.956522 172.667774,127.966555 C174.089701,125.130435 175.86711,122.294314 178,118.749164 L178,115.558528 C177.644518,115.558528 171.956811,126.548495 163.425249,135.056856 Z" id="Path" fill="#004477" fill-rule="nonzero"></path>
        </g>
    </g>
</svg>