<?xml version="1.0" encoding="UTF-8"?>
<svg width="250px" height="250px" viewBox="0 0 250 250" version="1.1" xmlns="http://www.w3.org/2000/svg" xmlns:xlink="http://www.w3.org/1999/xlink">
    <title>logo_basic</title>
    <g id="Symbols" stroke="none" stroke-width="1" fill="none" fill-rule="evenodd">
        <g id="logo_basic">
            <rect id="Rectangle" fill="#F2F2F2" x="0" y="0" width="250" height="250"></rect>
            <path d="M171.590361,135.236145 C171.850602,136.103614 172.024096,136.277108 172.804819,136.277108 C173.93253,136.277108 174.973494,136.277108 176.187952,136.277108 C176.101205,136.971084 176.014458,137.578313 175.927711,138.098795 C175.840964,138.098795 175.840964,138.185542 175.840964,138.185542 C173.585542,138.185542 171.416867,138.185542 169.161446,138.185542 C168.293976,138.185542 167.6,137.751807 167.426506,136.79759 C167.339759,136.450602 167.166265,136.103614 167.079518,135.843373 C166.992771,135.409639 166.73253,135.149398 166.298795,135.236145 C166.212048,135.236145 166.212048,135.236145 166.125301,135.236145 C165.344578,135.236145 164.563855,135.062651 163.86988,135.322892 C163.262651,135.583133 162.828916,136.363855 162.308434,136.884337 C161.354217,137.838554 160.226506,138.445783 158.838554,138.359036 C157.363855,138.359036 155.889157,138.359036 154.414458,138.359036 C154.240964,138.359036 153.980723,138.359036 153.720482,138.359036 C153.633735,137.66506 153.633735,137.057831 153.546988,136.450602 C154.761446,136.450602 155.80241,136.450602 156.93012,136.450602 C157.710843,136.450602 158.231325,136.016867 158.578313,135.322892 C157.190361,135.322892 155.975904,135.322892 154.587952,135.322892 C155.281928,131.419277 155.975904,127.515663 156.66988,123.698795 C163.696386,123.698795 170.722892,123.698795 177.836145,123.698795 C177.749398,124.306024 177.662651,124.913253 177.575904,125.520482 C177.142169,128.036145 176.708434,130.551807 176.187952,133.06747 C175.927711,134.715663 175.060241,135.409639 173.412048,135.409639 C172.891566,135.236145 172.284337,135.236145 171.590361,135.236145 Z M159.966265,126.908434 C160.053012,126.908434 160.139759,126.908434 160.226506,126.908434 C164.477108,126.908434 168.814458,126.908434 173.06506,126.908434 C173.412048,126.908434 173.498795,126.73494 173.585542,126.474699 C173.585542,126.301205 173.585542,126.040964 173.672289,125.780723 C173.412048,125.780723 173.151807,125.780723 172.891566,125.780723 C168.901205,125.780723 164.910843,125.780723 161.007229,125.780723 C159.966265,125.780723 159.879518,125.86747 159.966265,126.908434 Z M158.925301,132.980723 C159.012048,132.980723 159.185542,133.06747 159.272289,133.06747 C163.349398,133.06747 167.426506,133.06747 171.503614,133.06747 C172.284337,133.06747 172.457831,132.807229 172.457831,131.939759 C172.19759,131.939759 172.024096,131.939759 171.763855,131.939759 C167.773494,131.939759 163.783133,131.939759 159.879518,131.939759 C158.925301,131.853012 158.838554,131.939759 158.925301,132.980723 Z M159.445783,129.944578 C159.706024,129.944578 159.879518,129.944578 160.139759,129.944578 C164.13012,129.944578 168.207229,129.944578 172.19759,129.944578 C172.978313,129.944578 173.06506,129.857831 173.06506,128.903614 C172.804819,128.903614 172.544578,128.903614 172.371084,128.903614 C168.380723,128.903614 164.390361,128.903614 160.486747,128.903614 C159.445783,128.903614 159.445783,128.903614 159.445783,129.944578 Z" id="Shape" fill="#004477" fill-rule="nonzero"></path>
            <path d="M179.39759,135.93012 C179.657831,134.628916 179.831325,133.414458 180.004819,132.2 C180.26506,130.725301 180.525301,129.250602 180.785542,127.775904 C180.872289,127.428916 180.959036,127.342169 181.306024,127.342169 C187.985542,127.342169 194.66506,127.342169 201.431325,127.342169 C201.518072,127.342169 201.604819,127.342169 201.691566,127.342169 C201.518072,128.383133 201.344578,129.510843 201.171084,130.551807 C200.99759,131.679518 200.824096,132.720482 200.563855,133.761446 C200.303614,135.062651 199.522892,135.756627 198.13494,135.843373 C197.614458,135.843373 197.093976,135.843373 196.573494,135.843373 C196.660241,136.624096 196.920482,136.884337 197.701205,136.884337 C198.481928,136.884337 199.349398,136.884337 200.13012,136.884337 C200.303614,136.884337 200.563855,136.884337 200.824096,136.884337 C200.737349,137.318072 200.737349,137.66506 200.650602,137.925301 C200.650602,138.098795 200.390361,138.185542 200.216867,138.185542 C198.13494,138.185542 195.966265,138.185542 193.884337,138.185542 C193.103614,138.185542 192.496386,137.751807 192.236145,136.884337 C191.889157,135.756627 191.889157,135.756627 190.674699,135.756627 C189.980723,135.756627 189.373494,135.843373 188.679518,135.756627 C187.985542,135.66988 187.46506,136.016867 187.031325,136.537349 C186.424096,137.318072 185.643373,137.925301 184.689157,138.098795 C184.428916,138.185542 184.081928,138.185542 183.73494,138.185542 C182.260241,138.185542 180.785542,138.185542 179.310843,138.185542 C178.53012,138.185542 178.53012,138.185542 178.356627,137.404819 C178.356627,137.231325 178.356627,137.057831 178.26988,136.79759 C179.310843,136.79759 180.351807,136.79759 181.392771,136.79759 C182.086747,136.79759 182.607229,136.537349 183.040964,135.756627 C181.826506,135.93012 180.698795,135.93012 179.39759,135.93012 Z M197.614458,129.163855 C193.190361,129.163855 188.853012,129.163855 184.428916,129.163855 C184.342169,129.424096 184.342169,129.684337 184.255422,130.031325 C184.515663,130.031325 184.775904,130.031325 185.036145,130.031325 C188.939759,130.031325 192.843373,130.031325 196.746988,130.031325 C197.527711,130.118072 197.527711,130.118072 197.614458,129.163855 Z M183.995181,132.113253 C184.255422,132.113253 184.428916,132.113253 184.60241,132.113253 C188.592771,132.113253 192.583133,132.113253 196.486747,132.113253 C197.180723,132.113253 197.26747,132.026506 197.093976,131.245783 C196.920482,131.245783 196.746988,131.245783 196.573494,131.245783 C192.583133,131.245783 188.679518,131.245783 184.689157,131.245783 C184.081928,131.245783 183.908434,131.506024 183.995181,132.113253 Z M183.648193,134.195181 C183.821687,134.195181 183.995181,134.195181 184.168675,134.195181 C187.985542,134.195181 191.889157,134.195181 195.706024,134.195181 C195.879518,134.195181 195.966265,134.195181 196.139759,134.195181 C196.573494,134.108434 196.833735,133.93494 196.746988,133.327711 C196.573494,133.327711 196.4,133.327711 196.139759,133.327711 C192.149398,133.327711 188.159036,133.327711 184.255422,133.327711 C183.648193,133.327711 183.561446,133.414458 183.648193,134.195181 Z" id="Shape" fill="#004477" fill-rule="nonzero"></path>
            <path d="M157.710843,116.06506 C164.99759,116.06506 172.19759,116.06506 179.484337,116.06506 C179.39759,116.585542 179.310843,117.106024 179.224096,117.539759 C179.050602,118.580723 178.877108,119.621687 178.616867,120.575904 C178.26988,121.790361 177.575904,122.310843 176.274699,122.310843 C169.855422,122.310843 163.436145,122.310843 157.016867,122.310843 C156.93012,122.310843 156.756627,122.310843 156.583133,122.224096 C156.93012,120.228916 157.363855,118.146988 157.710843,116.06506 Z M169.421687,118.233735 C168.640964,118.233735 167.946988,118.233735 167.166265,118.233735 C167.079518,118.233735 166.906024,118.407229 166.906024,118.493976 C166.819277,119.014458 166.73253,119.53494 166.559036,120.142169 C167.339759,120.142169 168.033735,120.142169 168.727711,120.142169 C168.814458,120.142169 169.074699,119.968675 169.074699,119.881928 C169.248193,119.448193 169.248193,118.840964 169.421687,118.233735 Z M172.718072,120.228916 C173.412048,120.228916 174.019277,120.228916 174.626506,120.228916 C174.8,120.228916 175.146988,120.055422 175.146988,119.881928 C175.320482,119.448193 175.407229,118.840964 175.493976,118.320482 C174.713253,118.320482 174.019277,118.320482 173.325301,118.320482 C173.238554,118.320482 173.06506,118.493976 173.06506,118.580723 C172.891566,119.014458 172.804819,119.53494 172.718072,120.228916 Z M163.175904,118.233735 C162.481928,118.233735 161.874699,118.233735 161.180723,118.233735 C161.093976,118.233735 160.920482,118.320482 160.920482,118.407229 C160.833735,118.927711 160.746988,119.53494 160.573494,120.142169 C161.354217,120.142169 162.048193,120.142169 162.742169,120.142169 C162.828916,119.621687 163.00241,119.014458 163.175904,118.493976 C163.262651,118.493976 163.262651,118.407229 163.175904,118.233735 Z" id="Shape" fill="#004477" fill-rule="nonzero"></path>
            <path d="M180.785542,126.648193 C181.045783,125.086747 181.306024,123.612048 181.566265,122.137349 C181.566265,122.050602 181.913253,121.877108 182,121.877108 C183.127711,121.877108 184.255422,121.877108 185.383133,121.877108 C190.93494,121.877108 196.573494,121.877108 202.125301,121.877108 C202.385542,121.877108 202.559036,121.877108 202.992771,121.877108 C202.73253,123.091566 202.559036,124.219277 202.212048,125.346988 C201.86506,126.387952 200.910843,126.73494 199.86988,126.73494 C197.354217,126.73494 194.925301,126.73494 192.409639,126.73494 C188.766265,126.73494 185.036145,126.73494 181.392771,126.73494 C181.219277,126.648193 181.045783,126.648193 180.785542,126.648193 Z M196.660241,124.826506 C197.180723,124.826506 197.614458,124.826506 197.961446,124.826506 C198.828916,124.826506 199.089157,124.566265 199.00241,123.525301 C198.395181,123.525301 197.787952,123.525301 197.093976,123.525301 C197.007229,123.525301 196.833735,123.698795 196.833735,123.785542 C196.746988,124.13253 196.660241,124.479518 196.660241,124.826506 Z M193.016867,123.612048 C192.583133,123.612048 192.322892,123.612048 191.975904,123.612048 C190.848193,123.612048 190.848193,123.612048 190.674699,124.739759 C190.674699,124.739759 190.674699,124.739759 190.761446,124.826506 C191.368675,124.826506 191.975904,124.826506 192.583133,124.826506 C192.66988,124.826506 192.843373,124.653012 192.843373,124.566265 C192.93012,124.306024 192.93012,123.959036 193.016867,123.612048 Z M184.775904,124.826506 C185.296386,124.826506 185.73012,124.826506 186.163855,124.826506 C186.771084,124.913253 186.944578,124.566265 186.944578,124.045783 C186.944578,123.872289 186.944578,123.698795 186.944578,123.525301 C186.59759,123.525301 186.250602,123.525301 185.903614,123.525301 C184.862651,123.612048 184.862651,123.612048 184.775904,124.826506 Z" id="Shape" fill="#004477" fill-rule="nonzero"></path>
            <path d="M194.838554,119.274699 C197.701205,119.274699 200.477108,119.274699 203.426506,119.274699 C203.339759,119.881928 203.253012,120.40241 203.166265,121.009639 C196.053012,121.009639 189.026506,121.009639 181.826506,121.009639 C181.913253,120.40241 182,119.881928 182.086747,119.361446 C182.346988,119.361446 182.520482,119.361446 182.780723,119.361446 C185.296386,119.361446 187.725301,119.361446 190.154217,119.361446 C190.674699,119.361446 190.93494,119.187952 190.848193,118.580723 C187.812048,118.580723 184.775904,118.580723 181.653012,118.580723 C181.739759,117.886747 181.826506,117.366265 182,116.759036 C182,116.672289 182.346988,116.498795 182.520482,116.498795 C185.209639,116.498795 187.898795,116.498795 190.587952,116.498795 C190.848193,116.498795 191.021687,116.498795 191.281928,116.498795 C191.281928,115.804819 191.628916,115.718072 192.149398,115.804819 C193.190361,115.804819 194.231325,115.804819 195.272289,115.804819 C195.272289,116.06506 195.185542,116.238554 195.185542,116.498795 C198.221687,116.498795 201.257831,116.498795 204.380723,116.498795 C204.293976,117.192771 204.120482,117.886747 204.033735,118.580723 C203.773494,118.580723 203.513253,118.580723 203.339759,118.580723 C200.650602,118.580723 198.048193,118.580723 195.359036,118.580723 C194.925301,118.407229 194.751807,118.66747 194.838554,119.274699 Z" id="Path" fill="#004477" fill-rule="nonzero"></path>
            <path d="M123.098795,130.725301 C121.016867,132.720482 120.322892,135.149398 119.889157,137.66506 C118.674699,137.404819 118.414458,136.79759 118.761446,135.496386 C119.195181,133.93494 119.628916,132.286747 119.975904,130.725301 C119.455422,131.072289 118.327711,132.633735 117.893976,133.848193 C117.460241,135.062651 117.2,136.277108 116.853012,137.578313 C115.898795,137.318072 115.638554,136.971084 115.725301,136.103614 C115.898795,133.761446 116.506024,131.419277 117.286747,129.163855 C117.373494,128.903614 117.460241,128.556627 117.893976,128.643373 C118.501205,128.816867 118.848193,129.077108 118.761446,129.510843 C118.674699,130.031325 118.501205,130.551807 118.501205,131.072289 C118.761446,130.638554 119.108434,130.204819 119.368675,129.857831 C119.542169,129.59759 119.715663,129.337349 119.889157,129.163855 C120.409639,128.46988 120.583133,128.46988 121.277108,128.903614 C121.624096,129.163855 121.79759,129.424096 121.624096,129.857831 C121.537349,130.118072 121.537349,130.291566 121.450602,130.551807 C121.363855,130.725301 121.363855,130.985542 121.363855,131.245783 C121.537349,130.985542 121.710843,130.812048 121.884337,130.551807 C122.231325,130.118072 122.578313,129.59759 123.012048,129.163855 C123.272289,128.903614 123.53253,128.46988 124.053012,128.816867 C124.573494,129.077108 124.920482,129.424096 124.746988,130.031325 C124.4,131.679518 124.053012,133.327711 123.706024,134.975904 C123.53253,135.756627 123.53253,135.756627 124.313253,135.756627 C124.4,136.363855 124.139759,136.79759 123.792771,137.231325 C123.098795,137.925301 121.971084,137.578313 121.971084,136.537349 C121.971084,135.496386 122.057831,134.542169 122.231325,133.587952 C122.404819,132.720482 122.751807,131.853012 123.098795,130.725301 Z" id="Path" fill="#004477" fill-rule="nonzero"></path>
            <path d="M133.421687,133.674699 C133.855422,133.154217 134.289157,132.633735 134.636145,132.2 C134.896386,131.853012 135.243373,131.766265 135.677108,132.026506 C136.110843,132.286747 136.110843,132.633735 135.937349,132.980723 C135.850602,133.240964 135.763855,133.501205 135.763855,133.761446 C136.024096,133.414458 136.284337,133.06747 136.631325,132.720482 C136.891566,132.460241 137.06506,132.2 137.325301,132.026506 C137.585542,131.853012 138.019277,131.853012 138.192771,131.939759 C138.453012,132.026506 138.626506,132.460241 138.626506,132.720482 C138.539759,133.414458 138.366265,134.108434 138.192771,134.80241 C138.106024,135.062651 138.106024,135.322892 138.019277,135.66988 C138.192771,135.66988 138.366265,135.66988 138.539759,135.66988 C138.453012,136.363855 138.106024,136.884337 137.672289,137.318072 C137.498795,137.404819 137.151807,137.318072 136.891566,137.231325 C136.457831,137.057831 136.284337,136.624096 136.371084,136.190361 C136.544578,135.496386 136.718072,134.889157 136.891566,134.281928 C136.978313,134.021687 137.06506,133.848193 137.06506,133.674699 C136.978313,133.674699 136.978313,133.587952 136.891566,133.587952 C136.457831,134.195181 136.024096,134.80241 135.677108,135.496386 C135.33012,136.190361 135.06988,136.884337 134.809639,137.578313 C133.855422,137.318072 133.681928,136.971084 133.855422,136.103614 C134.115663,135.236145 134.375904,134.455422 134.636145,133.414458 C133.421687,134.628916 132.814458,136.016867 132.554217,137.491566 C131.686747,137.404819 131.253012,136.971084 131.426506,136.190361 C131.686747,134.889157 132.033735,133.674699 132.293976,132.373494 C132.380723,132.026506 132.46747,131.853012 132.901205,131.939759 C133.248193,132.113253 133.595181,132.2 133.508434,132.720482 C133.595181,132.980723 133.508434,133.240964 133.421687,133.674699 Z" id="Path" fill="#004477" fill-rule="nonzero"></path>
            <path d="M149.816867,132.546988 C150.077108,131.592771 150.337349,130.638554 150.59759,129.684337 C150.59759,129.59759 150.59759,129.510843 150.684337,129.510843 C150.857831,129.250602 150.771084,128.643373 151.291566,128.816867 C151.898795,128.903614 152.245783,129.510843 152.072289,130.031325 C151.725301,131.506024 151.291566,132.893976 150.857831,134.368675 C150.771084,134.542169 150.771084,134.715663 150.771084,134.889157 C150.771084,135.149398 150.771084,135.583133 150.944578,135.756627 C151.118072,135.93012 151.46506,135.756627 151.898795,135.66988 C151.638554,136.190361 151.551807,136.710843 151.204819,137.144578 C150.857831,137.751807 149.903614,137.578313 149.556627,136.971084 C149.46988,136.884337 149.46988,136.79759 149.383133,136.624096 C149.296386,136.710843 149.209639,136.79759 149.122892,136.884337 C148.775904,137.318072 148.255422,137.66506 147.648193,137.404819 C147.040964,137.144578 146.780723,136.624096 146.693976,135.93012 C146.607229,135.062651 146.86747,134.195181 147.301205,133.414458 C147.561446,132.980723 147.821687,132.633735 148.081928,132.2 C148.342169,131.766265 148.689157,131.679518 149.122892,132.113253 C149.46988,132.286747 149.556627,132.373494 149.816867,132.546988 Z M148.515663,136.016867 C149.383133,135.409639 149.903614,134.108434 149.556627,132.980723 C148.862651,133.848193 148.342169,134.80241 148.515663,136.016867 Z" id="Shape" fill="#004477" fill-rule="nonzero"></path>
            <path d="M126.048193,137.751807 C126.221687,137.925301 126.308434,138.012048 126.395181,138.272289 C126.568675,137.578313 126.655422,137.057831 126.828916,136.450602 C126.481928,136.79759 126.13494,137.057831 125.874699,137.404819 C125.614458,137.66506 125.354217,137.66506 125.093976,137.404819 C124.920482,137.144578 124.573494,136.710843 124.660241,136.450602 C124.920482,135.062651 125.354217,133.674699 125.701205,132.286747 C125.701205,132.2 125.787952,132.2 125.874699,132.113253 C126.568675,132.373494 126.742169,132.720482 126.655422,133.327711 C126.481928,134.195181 126.308434,135.062651 126.13494,136.016867 C127.436145,134.889157 127.696386,133.414458 128.043373,132.026506 C128.824096,132.286747 128.99759,132.546988 128.910843,133.240964 C128.737349,135.149398 128.303614,136.971084 127.522892,138.706024 C127.436145,138.879518 127.349398,139.139759 127.262651,139.226506 C127.00241,139.573494 126.742169,140.180723 126.221687,139.920482 C125.874699,139.746988 125.440964,139.313253 125.26747,138.966265 C125.093976,138.359036 125.614458,138.012048 126.048193,137.751807 Z" id="Path" fill="#004477" fill-rule="nonzero"></path>
            <path d="M145.913253,135.843373 C146.173494,135.843373 146.346988,135.843373 146.693976,135.843373 C146.346988,136.450602 146,136.971084 145.653012,137.404819 C145.566265,137.491566 145.219277,137.404819 144.959036,137.318072 C144.612048,137.144578 144.178313,136.884337 144.26506,136.450602 C144.351807,135.756627 144.525301,135.149398 144.698795,134.455422 C144.785542,134.195181 144.872289,133.93494 144.872289,133.674699 C143.657831,134.628916 143.137349,136.016867 142.703614,137.404819 C141.749398,137.057831 141.489157,136.710843 141.662651,135.843373 C141.922892,134.715663 142.183133,133.587952 142.53012,132.460241 C142.616867,132.2 142.616867,131.766265 143.137349,131.853012 C143.657831,131.939759 144.004819,132.373494 143.918072,132.807229 C143.918072,132.980723 143.831325,133.154217 143.744578,133.501205 C144.178313,132.980723 144.525301,132.546988 144.872289,132.2 C145.219277,131.853012 145.566265,131.679518 146.086747,131.939759 C146.607229,132.2 146.607229,132.546988 146.433735,132.980723 C146.346988,133.93494 146.173494,134.889157 145.913253,135.843373 Z" id="Path" fill="#004477" fill-rule="nonzero"></path>
            <path d="M140.361446,131.853012 C141.228916,132.2 141.40241,132.373494 141.228916,133.240964 C141.055422,134.108434 140.881928,134.975904 140.708434,135.843373 C140.881928,135.843373 141.055422,135.843373 141.315663,135.843373 C141.142169,136.277108 141.142169,136.79759 140.881928,137.144578 C140.708434,137.404819 140.274699,137.578313 140.014458,137.578313 C139.754217,137.578313 139.320482,137.231325 139.320482,136.884337 C139.233735,136.363855 139.233735,135.756627 139.320482,135.236145 C139.580723,134.195181 139.927711,133.154217 140.274699,132.113253 C140.187952,132.026506 140.274699,131.939759 140.361446,131.853012 Z" id="Path" fill="#004477" fill-rule="nonzero"></path>
            <path d="M140.361446,130.291566 C140.361446,129.857831 140.621687,129.510843 141.055422,129.510843 C141.489157,129.510843 141.662651,129.857831 141.662651,130.204819 C141.662651,130.725301 141.315663,131.072289 140.881928,131.072289 C140.53494,130.985542 140.361446,130.725301 140.361446,130.291566 Z" id="Path" fill="#004477" fill-rule="nonzero"></path>
            <g id="Group" transform="translate(38.000000, 89.000000)" fill-rule="nonzero">
                <path d="M44.0674699,7.2 L56.4722892,14.4 C56.6457831,14.486747 56.9060241,14.573494 57.0795181,14.573494 C57.513253,14.573494 57.946988,14.313253 58.2072289,13.9662651 L60.0289157,10.8433735 C60.2024096,10.5831325 60.2024096,10.2361446 60.1156627,9.88915663 C60.0289157,9.54216867 59.8554217,9.28192771 59.5084337,9.10843373 L47.1903614,1.90843373 C46.5831325,1.56144578 45.8024096,1.73493976 45.4554217,2.34216867 L43.6337349,5.46506024 C43.286747,6.07228916 43.546988,6.85301205 44.0674699,7.2 Z" id="Path" fill="#004477"></path>
                <path d="M18.5638554,20.7325301 C19.9518072,20.7325301 21.339759,20.9927711 22.4674699,21.6 C22.7277108,21.773494 22.9879518,21.946988 23.3349398,22.2072289 C27.7590361,25.0698795 25.1566265,33.5710843 25.1566265,33.5710843 C27.7590361,28.8 32.5301205,24.6361446 34.1783133,22.8144578 C35.826506,20.9927711 37.1277108,20.0385542 37.9084337,20.0385542 C38.1686747,20.0385542 38.7759036,20.2120482 39.6433735,20.4722892 C40.5108434,20.8192771 41.2915663,21.1662651 42.0722892,21.6 C42.5927711,21.946988 42.939759,22.2072289 43.113253,22.5542169 C43.286747,22.8144578 43.373494,23.2481928 43.373494,23.7686747 C43.373494,24.4626506 42.7662651,26.4578313 41.6385542,29.9277108 L41.2915663,30.7951807 C44.4144578,26.9783133 46.9301205,24.2891566 48.5783133,22.5542169 C50.313253,20.8192771 51.4409639,20.0385542 52.0481928,20.0385542 C52.3951807,20.0385542 52.9156627,20.2120482 53.6963855,20.4722892 C54.4771084,20.8192771 55.2578313,21.1662651 56.0385542,21.686747 C56.4722892,21.946988 56.7325301,22.2939759 56.9060241,22.6409639 C57.0795181,22.9879518 57.1662651,23.5084337 57.1662651,24.1156627 C57.1662651,24.9831325 56.9060241,26.7180723 56.4722892,29.3204819 C56.0385542,31.9228916 55.3445783,34.6987952 54.4771084,37.7349398 C54.2168675,38.6891566 53.8698795,39.8168675 53.5228916,41.1180723 L53.5228916,41.1180723 L53.5228916,41.1180723 C53.4361446,41.5518072 53.2626506,41.9855422 53.1759036,42.4192771 C52.9156627,43.373494 52.8289157,44.5879518 53.3493976,45.1084337 C54.3036145,45.9759036 57.253012,48.5783133 64.1927711,41.1180723 C68.8771084,36.086747 71.2192771,33.5710843 72.173494,32.4433735 C72.7807229,29.9277108 71.653012,27.1518072 69.3108434,25.7638554 L61.6771084,21.339759 L64.2795181,16.4819277 C64.453012,16.2216867 64.453012,15.9614458 64.453012,15.7012048 L63.8457831,11.7975904 C63.7590361,11.2771084 63.3253012,10.8433735 62.8048193,10.7566265 C62.2843373,10.6698795 61.7638554,10.9301205 61.5036145,11.3638554 L57.339759,18.9108434 L40.2506024,9.19518072 L44.1542169,2.1686747 C44.4144578,1.73493976 44.3277108,1.12771084 43.9807229,0.693975904 C43.6337349,0.260240964 43.113253,0.173493976 42.5927711,0.346987952 L38.8626506,1.82168675 C38.6024096,1.90843373 38.3421687,2.1686747 38.2554217,2.42891566 L36,6.59277108 L29.8409639,3.03614458 C26.9783133,1.38795181 23.1614458,2.34216867 21.513253,5.29156627 L13.5325301,19.1710843 L10.2361446,24.8963855 C14.660241,20.2987952 18.4771084,20.7325301 18.5638554,20.7325301 Z" id="Path" fill="#004477"></path>
                <path d="M41.8120482,56.7325301 C36.346988,58.8144578 30.8819277,60.8963855 27.6722892,62.1975904 L43.113253,71.1325301 C44.8481928,72.173494 46.9301205,72.173494 48.6650602,71.3927711 C49.6192771,70.9590361 50.4,70.3518072 51.0072289,69.4843373 L55.0843373,62.3710843 L56.5590361,59.8554217 C54.9975904,58.4674699 49.0120482,54.0433735 41.8120482,56.7325301 Z" id="Path" fill="#F5A700"></path>
                <path d="M66.2746988,43.113253 C66.1879518,43.2 66.1012048,43.2 66.1012048,43.286747 L66.1012048,43.286747 L66.1012048,43.286747 C66.1012048,43.286747 66.1012048,43.286747 66.1012048,43.286747 L66.1012048,43.286747 C62.0240964,47.6240964 56.7325301,52.1349398 51.5277108,53.7831325 L51.5277108,53.7831325 C50.746988,54.1301205 49.9662651,54.2168675 49.0987952,54.2168675 C47.7108434,54.2168675 46.4963855,53.6096386 45.4554217,52.4819277 C44.4144578,51.3542169 43.8939759,49.8795181 43.8939759,48.1445783 C43.8939759,46.2361446 44.4144578,43.373494 45.5421687,39.7301205 C46.6698795,36.086747 48.1445783,31.9228916 50.053012,27.3253012 C46.7566265,30.1879518 44.0674699,33.2240964 42.0722892,36.260241 C40.0771084,39.2963855 38.5156627,42.853012 37.3012048,46.9301205 C36.8674699,48.3180723 36.5204819,49.9662651 36,51.7879518 C35.5662651,53.5228916 35.3060241,54.3903614 35.0457831,54.3903614 C34.7855422,54.3903614 34.3518072,54.2168675 33.7445783,53.9566265 C33.1373494,53.6963855 32.3566265,53.2626506 31.4891566,52.8289157 C30.6216867,52.3084337 30.1012048,51.9614458 29.7542169,51.6144578 C29.4072289,51.2674699 29.2337349,50.9204819 29.2337349,50.660241 C29.2337349,48.9253012 29.8409639,45.7156627 31.1421687,41.2915663 C32.4433735,36.7807229 34.0915663,32.0096386 36.260241,27.0650602 C33.0506024,30.0144578 30.4481928,33.0506024 28.453012,36.260241 C26.4578313,39.4698795 24.9831325,42.7662651 23.9421687,46.3228916 C23.5084337,47.9710843 23.0746988,49.7927711 22.7277108,51.7012048 C22.3807229,53.6096386 22.1204819,54.5638554 21.773494,54.5638554 C21.513253,54.5638554 20.9927711,54.3903614 20.1253012,54.0433735 C19.2578313,53.6963855 18.4771084,53.2626506 17.6963855,52.8289157 C17.1759036,52.4819277 16.7421687,52.1349398 16.4819277,51.7012048 C16.2216867,51.2674699 16.1349398,50.746988 16.1349398,49.9662651 C16.1349398,48.5783133 16.2216867,47.0168675 16.4819277,45.2819277 L16.4819277,45.2819277 C17.7831325,37.9951807 20.4722892,34.5253012 20.9927711,31.2289157 C21.513253,27.9325301 19.9518072,26.2843373 19.9518072,26.2843373 L19.9518072,26.2843373 C18.6506024,25.0698795 16.1349398,24.2891566 10.8433735,27.1518072 C8.24096386,28.539759 7.72048193,30.0144578 7.11325301,30.3614458 L4.85783133,34.2650602 L4.85783133,34.2650602 L1.99518072,39.0361446 C1.90843373,39.2096386 1.82168675,39.3831325 1.73493976,39.4698795 C1.38795181,40.1638554 1.12771084,40.7710843 0.780722892,41.3783133 C0.693975904,41.8120482 0.607228916,42.3325301 0.520481928,42.853012 C0.520481928,43.113253 0.520481928,43.373494 0.520481928,43.6337349 C0.693975904,45.5421687 1.73493976,47.2771084 3.55662651,48.3180723 L27.4987952,62.1108434 C30.7084337,60.8963855 36.173494,58.7277108 41.6385542,56.6457831 C48.8385542,53.8698795 54.8240964,58.3807229 56.4722892,59.7686747 L56.9060241,59.0746988 L56.9060241,59.0746988 L56.9060241,59.0746988 L59.8554217,53.9566265 L61.5903614,51.3542169 C61.5903614,51.3542169 67.8361446,45.8024096 72.4337349,38.0819277 C73.5614458,36.173494 74.7759036,34.0048193 76.1638554,31.4024096 L76.1638554,29.146988 C76.2506024,29.3204819 72.260241,37.1277108 66.2746988,43.113253 Z" id="Path" fill="#004477"></path>
            </g>
            <g id="Group" transform="translate(107.397590, 142.783133)" fill="#F5A700" fill-rule="nonzero">
                <path d="M51.2674699,3.12289157 C51.3542169,3.03614458 51.5277108,2.94939759 51.6144578,2.8626506 C52.0481928,2.25542169 52.5686747,1.64819277 53.0024096,1.04096386 C53.1759036,0.780722892 53.2626506,0.693975904 53.6096386,0.780722892 C53.7831325,0.780722892 53.9566265,0.86746988 54.0433735,0.86746988 C54.2168675,0.954216867 54.3036145,1.04096386 54.2168675,1.21445783 C54.1301205,1.4746988 54.1301205,1.4746988 54.3903614,1.4746988 C54.9975904,1.4746988 55.6915663,1.4746988 56.2987952,1.4746988 C56.6457831,1.4746988 56.6457831,1.56144578 56.6457831,1.90843373 C56.5590361,2.77590361 56.0385542,3.38313253 55.5180723,3.90361446 C55.4313253,3.99036145 55.2578313,4.16385542 55.1710843,4.25060241 C54.9975904,4.42409639 54.9975904,4.59759036 55.2578313,4.77108434 C55.6048193,4.94457831 55.9518072,5.11807229 56.3855422,5.29156627 C56.6457831,5.37831325 56.6457831,5.46506024 56.5590361,5.63855422 C56.4722892,5.81204819 56.3855422,6.07228916 56.2120482,6.24578313 C55.7783133,6.59277108 55.7783133,7.2 55.6915663,7.63373494 C55.5180723,8.41445783 55.4313253,9.28192771 55.2578313,10.0626506 C55.1710843,10.3228916 55.1710843,10.4096386 54.8240964,10.4096386 C54.6506024,10.4096386 54.4771084,10.4096386 54.3036145,10.4096386 C54.1301205,10.4096386 53.9566265,10.4096386 53.9566265,10.1493976 C53.9566265,10.0626506 53.8698795,9.97590361 53.7831325,9.97590361 C53.1759036,9.97590361 52.5686747,9.97590361 51.8746988,9.97590361 C51.7879518,9.97590361 51.7012048,10.0626506 51.6144578,10.1493976 C51.6144578,10.1493976 51.5277108,10.2361446 51.5277108,10.2361446 C51.1807229,10.2361446 50.8337349,10.2361446 50.573494,10.2361446 C50.573494,10.2361446 50.486747,10.0626506 50.486747,9.97590361 C50.660241,9.10843373 50.8337349,8.24096386 50.9204819,7.37349398 C50.9204819,7.2 51.0072289,7.02650602 51.0072289,6.85301205 C51.0072289,6.67951807 51.0939759,6.5060241 50.9204819,6.41927711 C50.8337349,6.33253012 50.746988,6.15903614 50.746988,5.98554217 C50.746988,5.98554217 50.660241,5.98554217 50.660241,5.98554217 C50.660241,6.07228916 50.573494,6.24578313 50.573494,6.33253012 C50.486747,6.67951807 50.4,6.76626506 50.053012,6.76626506 C49.9662651,6.76626506 49.8795181,6.76626506 49.7927711,6.76626506 C49.5325301,6.76626506 49.4457831,6.85301205 49.4457831,7.11325301 C49.3590361,7.46024096 49.3590361,7.80722892 49.2722892,8.24096386 C49.2722892,8.41445783 49.3590361,8.50120482 49.5325301,8.50120482 C49.7060241,8.50120482 49.8795181,8.41445783 49.9662651,8.41445783 C50.226506,8.32771084 50.313253,8.41445783 50.313253,8.6746988 C50.313253,9.28192771 50.313253,9.3686747 49.7060241,9.45542169 C48.6650602,9.71566265 47.6240964,9.88915663 46.5831325,10.1493976 C46.1493976,10.2361446 46.0626506,10.1493976 45.9759036,9.71566265 C45.9759036,9.62891566 45.9759036,9.45542169 45.8891566,9.3686747 C45.8891566,9.19518072 45.8891566,9.02168675 46.1493976,8.93493976 C46.2361446,8.93493976 46.4096386,8.76144578 46.4096386,8.58795181 C46.5831325,7.80722892 46.6698795,7.02650602 46.8433735,6.15903614 C46.9301205,5.37831325 46.9301205,5.37831325 47.7108434,5.37831325 C48.0578313,5.37831325 48.1445783,5.46506024 48.0578313,5.81204819 C47.8843373,6.67951807 47.7108434,7.54698795 47.6240964,8.41445783 C47.6240964,8.50120482 47.7108434,8.58795181 47.7108434,8.6746988 C47.7975904,8.58795181 47.9710843,8.58795181 47.9710843,8.50120482 C48.0578313,8.15421687 48.0578313,7.80722892 48.1445783,7.46024096 C48.3180723,6.59277108 48.4915663,5.81204819 48.5783133,4.94457831 C48.6650602,4.59759036 48.5783133,4.59759036 48.2313253,4.59759036 C47.9710843,4.59759036 47.7108434,4.59759036 47.4506024,4.59759036 C47.1903614,4.59759036 47.1036145,4.51084337 47.1903614,4.25060241 C47.3638554,3.20963855 47.5373494,2.25542169 47.7108434,1.21445783 C47.7975904,0.86746988 47.8843373,0.780722892 48.2313253,0.780722892 C49.1855422,0.780722892 50.226506,0.780722892 51.1807229,0.780722892 C51.5277108,0.780722892 51.5277108,0.86746988 51.5277108,1.21445783 C51.4409639,1.73493976 51.3542169,2.1686747 51.2674699,2.68915663 C51.1807229,2.94939759 51.1807229,3.03614458 51.2674699,3.12289157 C51.1807229,3.12289157 51.2674699,3.12289157 51.2674699,3.12289157 Z M52.9156627,9.02168675 C53.1759036,9.02168675 53.5228916,9.02168675 53.7831325,9.02168675 C53.9566265,9.02168675 54.1301205,8.93493976 54.1301205,8.76144578 C54.2168675,8.50120482 54.2168675,8.15421687 54.3036145,7.80722892 C54.3036145,7.63373494 54.2168675,7.54698795 54.0433735,7.54698795 C53.4361446,7.54698795 52.8289157,7.54698795 52.3084337,7.54698795 C52.1349398,7.54698795 51.9614458,7.63373494 51.9614458,7.80722892 C51.8746988,8.06746988 51.8746988,8.41445783 51.7879518,8.76144578 C51.7879518,8.93493976 51.8746988,9.02168675 52.0481928,9.02168675 C52.3951807,8.93493976 52.6554217,9.02168675 52.9156627,9.02168675 Z M50.313253,4.77108434 C50.313253,4.68433735 50.313253,4.68433735 50.313253,4.77108434 C50.139759,4.77108434 49.8795181,4.77108434 49.7927711,4.85783133 C49.7060241,5.0313253 49.7060241,5.37831325 49.6192771,5.55180723 C49.6192771,5.55180723 49.7060241,5.63855422 49.7060241,5.63855422 C49.9662651,5.63855422 50.226506,5.63855422 50.486747,5.63855422 C50.660241,5.63855422 50.8337349,5.46506024 50.9204819,5.37831325 C51.3542169,5.20481928 51.7012048,5.0313253 52.1349398,4.85783133 C52.8289157,4.59759036 52.5686747,4.3373494 52.3951807,3.99036145 C52.3951807,3.99036145 52.3951807,3.99036145 52.3951807,3.99036145 C52.3084337,3.81686747 52.1349398,3.81686747 52.0481928,3.90361446 C51.7012048,4.16385542 51.6144578,4.07710843 51.3542169,3.73012048 C51.3542169,3.73012048 51.2674699,3.64337349 51.2674699,3.64337349 C51.1807229,3.55662651 51.0939759,3.55662651 51.0072289,3.73012048 C50.9204819,3.99036145 50.9204819,4.16385542 50.8337349,4.42409639 C50.8337349,4.59759036 50.660241,4.68433735 50.486747,4.68433735 C50.486747,4.77108434 50.4,4.77108434 50.313253,4.77108434 Z M49.4457831,2.08192771 C49.2722892,2.08192771 49.0987952,2.08192771 48.9253012,2.08192771 C48.8385542,2.08192771 48.6650602,2.1686747 48.6650602,2.25542169 C48.5783133,2.60240964 48.4915663,2.94939759 48.4915663,3.29638554 C48.4915663,3.46987952 48.5783133,3.55662651 48.7518072,3.55662651 C49.0987952,3.55662651 49.3590361,3.55662651 49.7060241,3.55662651 C49.8795181,3.55662651 49.9662651,3.46987952 49.9662651,3.29638554 C50.053012,2.94939759 50.053012,2.60240964 50.139759,2.25542169 C50.139759,2.08192771 50.053012,1.99518072 49.8795181,1.99518072 C49.7060241,2.08192771 49.6192771,2.08192771 49.4457831,2.08192771 Z M55.1710843,6.33253012 C55.1710843,6.33253012 55.1710843,6.33253012 55.1710843,6.33253012 C55.1710843,6.24578313 55.0843373,6.24578313 54.9975904,6.15903614 C54.6506024,5.98554217 54.3036145,5.81204819 53.9566265,5.55180723 C53.6963855,5.37831325 53.5228916,5.37831325 53.2626506,5.46506024 C52.8289157,5.63855422 52.4819277,5.81204819 52.0481928,6.07228916 C51.9614458,6.15903614 51.8746988,6.15903614 51.7012048,6.24578313 C51.7012048,6.24578313 51.7012048,6.33253012 51.7012048,6.33253012 C52.9156627,6.33253012 54.0433735,6.33253012 55.1710843,6.33253012 Z M53.9566265,3.73012048 C54.0433735,3.73012048 54.0433735,3.73012048 54.0433735,3.73012048 C54.4771084,3.46987952 54.7373494,3.20963855 54.9975904,2.77590361 C55.0843373,2.68915663 54.9975904,2.60240964 54.9108434,2.60240964 C54.3903614,2.60240964 53.8698795,2.60240964 53.4361446,2.60240964 C53.2626506,2.60240964 53.2626506,2.68915663 53.3493976,2.8626506 C53.5228916,3.12289157 53.6963855,3.38313253 53.8698795,3.64337349 C53.7831325,3.64337349 53.8698795,3.64337349 53.9566265,3.73012048 Z" id="Shape"></path>
                <path d="M14.9204819,6.41927711 C15.0072289,6.41927711 15.0939759,6.41927711 15.1807229,6.41927711 C16.2216867,6.41927711 17.2626506,6.41927711 18.3036145,6.41927711 C18.6506024,6.41927711 18.7373494,6.5060241 18.6506024,6.85301205 C18.5638554,7.46024096 18.4771084,8.06746988 18.3036145,8.6746988 C18.2168675,8.93493976 18.1301205,9.02168675 17.8698795,9.02168675 C17.0024096,9.02168675 16.1349398,9.02168675 15.2674699,9.02168675 C14.9204819,9.02168675 14.9204819,9.02168675 14.746988,9.3686747 C14.660241,9.54216867 14.573494,9.62891566 14.4,9.62891566 C14.226506,9.62891566 14.053012,9.62891566 13.7927711,9.62891566 C13.5325301,9.62891566 13.5325301,9.54216867 13.5325301,9.28192771 C13.6192771,8.6746988 13.7927711,7.98072289 13.8795181,7.37349398 C13.8795181,7.2 13.9662651,7.02650602 13.9662651,6.85301205 C13.9662651,6.76626506 13.8795181,6.67951807 13.8795181,6.67951807 C13.6192771,6.67951807 13.5325301,6.59277108 13.4457831,6.33253012 C13.4457831,6.24578313 13.3590361,6.15903614 13.2722892,6.07228916 C13.1855422,6.24578313 13.1855422,6.24578313 13.1855422,6.33253012 C12.9253012,7.54698795 12.7518072,8.76144578 12.5783133,9.97590361 C12.4915663,10.4096386 12.4048193,10.4096386 12.0578313,10.4096386 C11.9710843,10.4096386 11.7975904,10.4096386 11.7108434,10.4096386 C11.4506024,10.4096386 11.3638554,10.3228916 11.4506024,10.0626506 C11.6240964,9.10843373 11.7975904,8.24096386 11.9710843,7.28674699 C12.1445783,6.15903614 12.4048193,4.94457831 12.5783133,3.73012048 C12.6650602,3.38313253 12.7518072,3.29638554 13.0987952,3.29638554 C13.5325301,3.29638554 13.8795181,3.29638554 14.313253,3.29638554 C14.573494,3.29638554 14.660241,3.20963855 14.660241,2.94939759 C14.660241,2.60240964 14.573494,2.42891566 14.313253,2.42891566 C13.7927711,2.42891566 13.2722892,2.42891566 12.8385542,2.42891566 C12.5783133,2.42891566 12.4915663,2.34216867 12.4915663,2.08192771 C12.5783133,1.38795181 12.5783133,1.38795181 13.3590361,1.38795181 C14.4,1.38795181 15.3542169,1.38795181 16.3951807,1.38795181 C16.7421687,1.38795181 16.8289157,1.30120482 16.8289157,1.04096386 C16.9156627,0.693975904 17.0024096,0.607228916 17.2626506,0.607228916 C17.4361446,0.607228916 17.6096386,0.607228916 17.7831325,0.607228916 C17.9566265,0.607228916 18.0433735,0.693975904 18.0433735,0.86746988 C18.0433735,1.30120482 18.0433735,1.30120482 18.4771084,1.30120482 C19.5180723,1.30120482 20.5590361,1.30120482 21.6,1.30120482 C21.946988,1.30120482 22.0337349,1.38795181 21.946988,1.73493976 C21.860241,2.42891566 21.860241,2.42891566 21.1662651,2.42891566 C20.7325301,2.42891566 20.2987952,2.42891566 19.8650602,2.42891566 C19.5180723,2.42891566 19.1710843,2.8626506 19.1710843,3.12289157 C19.1710843,3.20963855 19.3445783,3.29638554 19.4313253,3.29638554 C19.9518072,3.29638554 20.3855422,3.29638554 20.9060241,3.29638554 C21.253012,3.29638554 21.339759,3.38313253 21.253012,3.73012048 C20.9927711,5.37831325 20.6457831,7.11325301 20.3855422,8.76144578 C20.2120482,9.71566265 19.6915663,10.2361446 18.7373494,10.2361446 C18.4771084,10.2361446 18.2168675,10.2361446 18.0433735,10.2361446 C17.7831325,10.2361446 17.6963855,10.0626506 17.6096386,9.80240964 C17.6096386,9.62891566 17.6096386,9.3686747 17.6096386,9.19518072 C17.6096386,8.93493976 17.6963855,8.93493976 17.8698795,8.93493976 C18.1301205,8.93493976 18.3903614,9.02168675 18.5638554,9.02168675 C18.9108434,9.02168675 19.1710843,8.84819277 19.1710843,8.50120482 C19.4313253,7.2 19.6048193,5.89879518 19.8650602,4.59759036 C19.9518072,4.3373494 19.8650602,4.3373494 19.6048193,4.3373494 C19.1710843,4.3373494 18.7373494,4.3373494 18.3903614,4.3373494 C18.2168675,4.3373494 18.0433735,4.51084337 18.0433735,4.68433735 C18.0433735,4.85783133 18.1301205,4.94457831 18.3036145,4.94457831 C18.4771084,5.0313253 18.5638554,4.85783133 18.5638554,4.77108434 C18.6506024,4.51084337 18.7373494,4.51084337 18.9108434,4.59759036 C19.0843373,4.68433735 19.1710843,4.68433735 19.2578313,4.77108434 C19.4313253,4.85783133 19.5180723,5.0313253 19.4313253,5.20481928 C19.2578313,5.7253012 19.0843373,5.89879518 18.5638554,5.89879518 C18.1301205,5.89879518 17.7831325,5.89879518 17.3493976,5.81204819 C16.8289157,5.7253012 16.6554217,5.46506024 16.7421687,4.94457831 C16.7421687,4.77108434 16.8289157,4.68433735 16.8289157,4.51084337 C16.9156627,4.25060241 16.8289157,4.25060241 16.5686747,4.16385542 C16.5686747,4.16385542 16.4819277,4.16385542 16.4819277,4.16385542 C15.8746988,4.16385542 15.8746988,4.16385542 15.7012048,4.68433735 C15.5277108,5.11807229 15.1807229,5.46506024 14.8337349,5.7253012 C15.0072289,6.24578313 14.9204819,6.33253012 14.9204819,6.41927711 C14.9204819,6.33253012 14.9204819,6.41927711 14.9204819,6.41927711 Z M17.1759036,2.60240964 L17.1759036,2.60240964 C16.9156627,2.60240964 16.7421687,2.60240964 16.4819277,2.60240964 C16.0481928,2.60240964 15.9614458,2.68915663 15.9614458,3.12289157 C15.9614458,3.38313253 16.0481928,3.46987952 16.3084337,3.46987952 C16.6554217,3.46987952 17.0024096,3.46987952 17.4361446,3.46987952 C17.9566265,3.46987952 18.1301205,3.29638554 18.2168675,2.8626506 C18.3036145,2.68915663 18.2168675,2.60240964 18.0433735,2.60240964 C17.6963855,2.60240964 17.4361446,2.60240964 17.1759036,2.60240964 Z M16.2216867,7.98072289 L16.2216867,7.98072289 C16.4819277,7.98072289 16.8289157,7.98072289 17.0891566,7.98072289 C17.2626506,7.98072289 17.4361446,7.80722892 17.3493976,7.63373494 C17.3493976,7.46024096 17.1759036,7.46024096 17.0024096,7.46024096 C16.4819277,7.46024096 15.9614458,7.46024096 15.4409639,7.46024096 C15.3542169,7.46024096 15.3542169,7.46024096 15.2674699,7.46024096 C15.0939759,7.54698795 15.0072289,7.63373494 15.0072289,7.80722892 C15.0072289,7.98072289 15.1807229,7.98072289 15.2674699,7.98072289 C15.6144578,7.98072289 15.8746988,7.98072289 16.2216867,7.98072289 Z M13.6192771,5.63855422 C14.053012,5.63855422 14.746988,5.20481928 14.8337349,4.85783133 C14.9204819,4.68433735 14.8337349,4.59759036 14.660241,4.59759036 C14.4,4.59759036 14.053012,4.59759036 13.7927711,4.59759036 C13.7060241,4.59759036 13.5325301,4.68433735 13.5325301,4.77108434 C13.4457831,4.94457831 13.4457831,5.20481928 13.4457831,5.37831325 C13.5325301,5.46506024 13.6192771,5.55180723 13.6192771,5.63855422 Z" id="Shape"></path>
                <path d="M29.3204819,5.37831325 C29.4939759,5.37831325 29.5807229,5.37831325 29.6674699,5.37831325 C30.4481928,5.37831325 31.3156627,5.37831325 32.0963855,5.37831325 C32.3566265,5.37831325 32.4433735,5.46506024 32.4433735,5.7253012 C32.4433735,6.41927711 32.0096386,6.85301205 31.4891566,7.28674699 C30.5349398,8.06746988 29.4939759,8.58795181 28.3662651,9.10843373 C27.0650602,9.71566265 25.6771084,10.0626506 24.2891566,10.4096386 C24.2024096,10.4096386 24.1156627,10.4096386 24.0289157,10.4963855 C23.8554217,10.4963855 23.6819277,10.4096386 23.5951807,10.2361446 C23.5084337,10.0626506 23.5084337,9.88915663 23.4216867,9.71566265 C23.3349398,9.45542169 23.4216867,9.3686747 23.6819277,9.28192771 C24.3759036,9.10843373 25.1566265,8.93493976 25.9373494,8.76144578 C26.1975904,8.6746988 26.3710843,8.6746988 26.6313253,8.58795181 C26.8915663,8.50120482 26.8915663,8.41445783 26.8048193,8.24096386 C26.7180723,8.15421687 26.7180723,8.06746988 26.6313253,7.98072289 C26.4578313,7.72048193 26.5445783,7.63373494 26.8048193,7.46024096 C26.9783133,7.37349398 27.1518072,7.28674699 27.3253012,7.2 C27.5855422,7.02650602 27.7590361,7.11325301 28.0192771,7.37349398 C28.1060241,7.46024096 28.1927711,7.63373494 28.2795181,7.72048193 C28.3662651,7.8939759 28.539759,7.98072289 28.713253,7.8939759 C29.3204819,7.54698795 29.9277108,7.2 30.5349398,6.85301205 C30.6216867,6.76626506 30.7084337,6.67951807 30.7951807,6.59277108 C30.6216867,6.59277108 30.6216867,6.59277108 30.5349398,6.59277108 C29.7542169,6.59277108 28.973494,6.59277108 28.2795181,6.59277108 C28.1060241,6.59277108 27.9325301,6.67951807 27.7590361,6.76626506 C26.9783133,7.11325301 26.2843373,7.54698795 25.5036145,7.98072289 C25.0698795,8.24096386 24.9831325,8.15421687 24.7228916,7.72048193 C24.7228916,7.63373494 24.6361446,7.54698795 24.6361446,7.54698795 C24.5493976,7.28674699 24.5493976,7.11325301 24.8963855,7.02650602 C25.8506024,6.59277108 26.8048193,6.15903614 27.6722892,5.55180723 C27.7590361,5.46506024 27.8457831,5.46506024 27.9325301,5.37831325 C27.9325301,5.37831325 27.9325301,5.37831325 27.9325301,5.29156627 C27.8457831,5.29156627 27.7590361,5.29156627 27.6722892,5.37831325 C26.6313253,5.81204819 25.5903614,6.07228916 24.4626506,6.24578313 C24.1156627,6.33253012 24.0289157,6.24578313 23.9421687,5.89879518 C23.7686747,5.29156627 23.7686747,5.29156627 24.4626506,5.11807229 C25.0698795,4.94457831 25.7638554,4.77108434 26.3710843,4.59759036 C26.7180723,4.51084337 26.8048193,4.3373494 26.5445783,4.07710843 C26.3710843,3.81686747 26.3710843,3.64337349 26.7180723,3.46987952 C26.8915663,3.38313253 27.0650602,3.29638554 27.2385542,3.20963855 C27.4987952,3.12289157 27.5855422,3.12289157 27.7590361,3.38313253 C27.8457831,3.46987952 27.9325301,3.64337349 27.9325301,3.73012048 C28.0192771,3.90361446 28.1927711,3.99036145 28.3662651,3.90361446 C28.973494,3.64337349 29.4939759,3.29638554 30.1012048,2.94939759 C30.1012048,2.94939759 30.1012048,2.8626506 30.1879518,2.8626506 C30.1012048,2.8626506 30.0144578,2.8626506 29.9277108,2.8626506 C29.2337349,2.8626506 28.453012,2.8626506 27.7590361,2.8626506 C27.5855422,2.8626506 27.4120482,2.94939759 27.2385542,3.03614458 C26.8915663,3.20963855 26.4578313,3.46987952 26.1108434,3.64337349 C25.7638554,3.81686747 25.1566265,3.46987952 25.1566265,3.12289157 C25.1566265,3.03614458 25.2433735,2.8626506 25.3301205,2.8626506 C25.8506024,2.51566265 26.3710843,2.25542169 26.8915663,1.90843373 C27.1518072,1.73493976 27.4120482,1.4746988 27.6722892,1.21445783 C27.9325301,1.04096386 28.1927711,0.86746988 28.453012,1.04096386 C28.539759,1.12771084 28.713253,1.12771084 28.8,1.12771084 C28.973494,1.21445783 29.060241,1.30120482 28.886747,1.4746988 C28.886747,1.4746988 28.8,1.56144578 28.8,1.56144578 C28.8,1.64819277 28.713253,1.64819277 28.713253,1.73493976 C28.8,1.73493976 28.8,1.82168675 28.886747,1.82168675 C28.973494,1.82168675 29.146988,1.82168675 29.2337349,1.82168675 C30.1012048,1.82168675 30.9686747,1.82168675 31.8361446,1.82168675 C32.1831325,1.82168675 32.1831325,1.90843373 32.1831325,2.25542169 C32.1831325,2.77590361 31.9228916,3.12289157 31.4891566,3.38313253 C30.8819277,3.73012048 30.3614458,4.07710843 29.7542169,4.42409639 C29.4939759,4.59759036 29.4939759,4.68433735 29.7542169,4.77108434 C30.0144578,4.94457831 30.1012048,5.0313253 29.8409639,5.29156627 C29.4072289,5.20481928 29.4072289,5.29156627 29.3204819,5.37831325 Z" id="Path"></path>
                <path d="M72.8674699,1.99518072 C72.7807229,2.1686747 72.6072289,2.25542169 72.5204819,2.34216867 C72.260241,2.60240964 72,2.68915663 71.826506,2.34216867 C71.739759,2.1686747 71.5662651,1.99518072 71.3927711,1.82168675 C71.2192771,1.64819277 71.2192771,1.4746988 71.3927711,1.30120482 C72.086747,0.607228916 72.173494,0.693975904 72.6939759,1.21445783 C72.6939759,1.21445783 72.6939759,1.21445783 72.7807229,1.21445783 C73.0409639,1.4746988 73.1277108,1.4746988 73.2144578,1.12771084 C73.3012048,0.954216867 73.3879518,0.86746988 73.5614458,0.86746988 C75.6433735,0.86746988 77.7253012,0.86746988 79.8072289,0.86746988 C80.0674699,0.86746988 80.0674699,0.954216867 80.0674699,1.12771084 C79.9807229,1.56144578 79.9807229,1.90843373 79.8939759,2.34216867 C79.8072289,2.60240964 79.7204819,2.68915663 79.460241,2.68915663 C79.373494,2.68915663 79.286747,2.68915663 79.2,2.68915663 C79.026506,2.68915663 78.939759,2.77590361 78.853012,2.94939759 C78.7662651,3.29638554 78.6795181,3.29638554 78.3325301,3.29638554 C77.9855422,3.29638554 77.5518072,3.29638554 77.2048193,3.29638554 C77.1180723,3.29638554 77.0313253,3.29638554 76.9445783,3.29638554 C76.8578313,3.38313253 76.7710843,3.38313253 76.6843373,3.46987952 C76.7710843,3.55662651 76.8578313,3.55662651 76.9445783,3.55662651 C77.4650602,3.55662651 77.9855422,3.55662651 78.5060241,3.55662651 C78.853012,3.55662651 78.939759,3.64337349 78.853012,3.99036145 C78.6795181,4.85783133 78.5060241,5.7253012 78.4192771,6.5060241 C78.3325301,6.76626506 78.2457831,6.85301205 77.9855422,6.85301205 C77.4650602,6.85301205 77.0313253,6.85301205 76.5108434,6.85301205 C76.4240964,6.85301205 76.3373494,6.85301205 76.2506024,6.85301205 C76.0771084,6.85301205 75.9903614,7.02650602 76.0771084,7.11325301 C76.0771084,7.2 76.2506024,7.28674699 76.3373494,7.28674699 C76.9445783,7.28674699 77.6385542,7.28674699 78.2457831,7.28674699 C78.5927711,7.28674699 78.6795181,7.37349398 78.5927711,7.72048193 C78.5060241,8.24096386 78.5060241,8.24096386 77.9855422,8.24096386 C77.3783133,8.24096386 76.7710843,8.24096386 76.2506024,8.24096386 C75.9903614,8.24096386 75.8168675,8.32771084 75.8168675,8.58795181 C75.8168675,8.76144578 75.6433735,8.84819277 75.4698795,8.84819277 C75.2963855,8.84819277 75.1228916,8.84819277 74.9493976,8.84819277 C74.7759036,8.84819277 74.6891566,8.76144578 74.6891566,8.58795181 C74.6891566,8.32771084 74.6891566,8.32771084 74.4289157,8.32771084 C73.8216867,8.32771084 73.2144578,8.32771084 72.6072289,8.32771084 C72.260241,8.32771084 72.173494,8.24096386 72.260241,7.8939759 C72.346988,7.37349398 72.346988,7.37349398 72.8674699,7.37349398 C73.4746988,7.37349398 73.9951807,7.37349398 74.6024096,7.37349398 C74.6891566,7.37349398 74.7759036,7.37349398 74.7759036,7.37349398 C74.8626506,7.28674699 74.9493976,7.2 75.0361446,7.11325301 C74.9493976,7.02650602 74.8626506,6.93975904 74.7759036,6.93975904 C74.2554217,6.93975904 73.7349398,6.93975904 73.2144578,6.93975904 C72.7807229,6.93975904 72.7807229,6.85301205 72.8674699,6.5060241 C73.0409639,5.7253012 73.1277108,4.85783133 73.3012048,4.07710843 C73.3879518,3.73012048 73.4746988,3.64337349 73.8216867,3.64337349 C74.2554217,3.64337349 74.6891566,3.64337349 75.2096386,3.64337349 C75.2963855,3.64337349 75.2963855,3.64337349 75.3831325,3.64337349 C75.5566265,3.64337349 75.7301205,3.64337349 75.7301205,3.46987952 C75.7301205,3.29638554 75.5566265,3.29638554 75.3831325,3.29638554 C75.1228916,3.29638554 74.7759036,3.29638554 74.5156627,3.29638554 C74.3421687,3.29638554 74.2554217,3.29638554 74.0819277,3.29638554 C73.7349398,3.29638554 73.7349398,3.29638554 73.7349398,2.94939759 C73.7349398,2.77590361 73.6481928,2.68915663 73.4746988,2.68915663 C72.9542169,2.60240964 72.9542169,2.60240964 73.0409639,2.1686747 C72.9542169,2.1686747 72.9542169,2.08192771 72.8674699,1.99518072 C72.8674699,1.99518072 72.8674699,1.99518072 72.8674699,1.99518072 Z M77.8120482,2.34216867 C77.8120482,2.34216867 77.8120482,2.34216867 77.8120482,2.34216867 C78.0722892,2.34216867 78.2457831,2.34216867 78.5060241,2.34216867 C78.6795181,2.34216867 78.7662651,2.25542169 78.7662651,2.08192771 C78.7662651,1.90843373 78.5927711,1.90843373 78.5060241,1.90843373 C78.2457831,1.90843373 77.9855422,1.90843373 77.6385542,1.90843373 C77.4650602,1.90843373 77.2915663,1.90843373 77.1180723,1.90843373 C76.9445783,1.90843373 76.8578313,1.99518072 76.8578313,2.1686747 C76.8578313,2.34216867 77.0313253,2.34216867 77.1180723,2.34216867 C77.3783133,2.34216867 77.6385542,2.34216867 77.8120482,2.34216867 Z M74.8626506,2.34216867 L74.8626506,2.34216867 C75.0361446,2.34216867 75.2963855,2.34216867 75.4698795,2.34216867 C75.6433735,2.34216867 75.7301205,2.25542169 75.7301205,2.08192771 C75.7301205,1.90843373 75.5566265,1.90843373 75.4698795,1.90843373 C75.1228916,1.90843373 74.8626506,1.90843373 74.6024096,1.90843373 C74.5156627,1.90843373 74.3421687,1.90843373 74.2554217,1.90843373 C74.1686747,1.99518072 74.0819277,2.08192771 74.0819277,2.1686747 C74.1686747,2.25542169 74.2554217,2.34216867 74.3421687,2.34216867 C74.4289157,2.34216867 74.6891566,2.34216867 74.8626506,2.34216867 Z M74.5156627,5.7253012 L74.5156627,5.7253012 C74.3421687,5.7253012 74.2554217,5.7253012 74.0819277,5.7253012 C73.9951807,5.7253012 73.9951807,5.81204819 73.9084337,5.89879518 C73.9084337,5.89879518 73.9951807,6.07228916 73.9951807,6.07228916 C74.3421687,6.07228916 74.6024096,6.07228916 74.9493976,6.07228916 C75.0361446,6.07228916 75.0361446,5.98554217 75.0361446,5.89879518 C75.0361446,5.81204819 74.9493976,5.81204819 74.8626506,5.81204819 C74.7759036,5.7253012 74.6891566,5.7253012 74.5156627,5.7253012 Z M76.7710843,6.07228916 C76.7710843,6.07228916 76.7710843,6.07228916 76.7710843,6.07228916 C76.9445783,6.07228916 77.0313253,6.07228916 77.2048193,6.07228916 C77.2915663,6.07228916 77.2915663,5.98554217 77.2915663,5.89879518 C77.2915663,5.89879518 77.2048193,5.7253012 77.2048193,5.7253012 C76.9445783,5.7253012 76.6843373,5.7253012 76.3373494,5.7253012 C76.2506024,5.7253012 76.2506024,5.81204819 76.1638554,5.89879518 C76.2506024,5.98554217 76.2506024,6.07228916 76.3373494,6.07228916 C76.5108434,6.07228916 76.6843373,6.07228916 76.7710843,6.07228916 Z M74.6891566,4.85783133 L74.6891566,4.85783133 C74.8626506,4.85783133 75.0361446,4.85783133 75.1228916,4.85783133 C75.2096386,4.85783133 75.2096386,4.77108434 75.2096386,4.68433735 C75.2096386,4.59759036 75.1228916,4.51084337 75.1228916,4.51084337 C74.8626506,4.51084337 74.5156627,4.51084337 74.2554217,4.51084337 C74.1686747,4.51084337 74.1686747,4.59759036 74.0819277,4.68433735 C74.1686747,4.77108434 74.1686747,4.77108434 74.2554217,4.77108434 C74.4289157,4.85783133 74.6024096,4.85783133 74.6891566,4.85783133 Z M77.0313253,4.85783133 C77.0313253,4.85783133 77.0313253,4.85783133 77.0313253,4.85783133 C77.2048193,4.85783133 77.3783133,4.85783133 77.4650602,4.85783133 C77.5518072,4.85783133 77.5518072,4.77108434 77.5518072,4.68433735 C77.5518072,4.59759036 77.4650602,4.51084337 77.4650602,4.51084337 C77.2048193,4.51084337 76.8578313,4.51084337 76.5975904,4.51084337 C76.5108434,4.51084337 76.5108434,4.59759036 76.5108434,4.68433735 C76.5108434,4.68433735 76.5975904,4.77108434 76.6843373,4.77108434 C76.7710843,4.85783133 76.8578313,4.85783133 77.0313253,4.85783133 Z" id="Shape"></path>
                <path d="M40.5108434,1.90843373 C40.3373494,1.90843373 40.2506024,1.90843373 40.2506024,1.90843373 C39.9036145,1.90843373 39.6433735,1.90843373 39.2963855,1.90843373 C39.1228916,1.90843373 39.0361446,1.82168675 39.0361446,1.64819277 C39.0361446,1.4746988 39.0361446,1.30120482 39.1228916,1.21445783 C39.2096386,0.954216867 39.2963855,0.954216867 39.5566265,0.954216867 C40.3373494,0.954216867 41.1180723,0.954216867 41.8987952,0.954216867 C42.939759,0.954216867 43.8939759,0.954216867 44.9349398,0.954216867 C45.2819277,0.954216867 45.2819277,1.04096386 45.2819277,1.38795181 C45.1951807,1.73493976 45.0216867,1.99518072 44.6746988,2.1686747 C44.3277108,2.42891566 43.9807229,2.60240964 43.546988,2.8626506 C43.460241,2.94939759 43.373494,2.94939759 43.286747,3.12289157 C43.373494,3.12289157 43.460241,3.12289157 43.546988,3.12289157 C43.8939759,3.12289157 44.3277108,3.12289157 44.6746988,3.12289157 C44.9349398,3.12289157 45.0216867,3.20963855 44.9349398,3.46987952 C44.6746988,4.85783133 44.4144578,6.33253012 44.1542169,7.72048193 C44.0674699,8.50120482 43.460241,8.93493976 42.5927711,8.93493976 C42.4192771,8.93493976 42.2457831,8.93493976 42.0722892,8.93493976 C41.9855422,8.93493976 41.8120482,8.84819277 41.8120482,8.76144578 C41.8120482,8.50120482 41.7253012,8.24096386 41.8120482,7.98072289 C41.8120482,7.8939759 41.9855422,7.8939759 42.0722892,7.8939759 C42.2457831,7.8939759 42.5060241,7.8939759 42.6795181,7.8939759 C42.853012,7.8939759 43.026506,7.63373494 43.026506,7.46024096 C43.026506,7.37349398 42.939759,7.28674699 42.853012,7.28674699 C42.5060241,7.28674699 42.1590361,7.28674699 41.8120482,7.28674699 C41.6385542,7.28674699 41.5518072,7.46024096 41.5518072,7.63373494 C41.4650602,7.8939759 41.4650602,8.24096386 41.3783133,8.50120482 C41.2915663,8.76144578 41.2048193,8.84819277 40.9445783,8.84819277 C40.8578313,8.84819277 40.7710843,8.84819277 40.5975904,8.84819277 C40.2506024,8.84819277 40.2506024,8.76144578 40.2506024,8.50120482 C40.3373494,8.24096386 40.3373494,7.8939759 40.4240964,7.63373494 C40.4240964,7.37349398 40.4240964,7.37349398 40.1638554,7.28674699 C39.9036145,7.28674699 39.6433735,7.28674699 39.3831325,7.28674699 C39.1228916,7.28674699 39.0361446,7.37349398 39.0361446,7.63373494 C38.9493976,7.98072289 38.9493976,8.32771084 38.8626506,8.6746988 C38.8626506,8.84819277 38.6891566,8.93493976 38.5156627,8.93493976 C38.3421687,8.93493976 38.1686747,8.93493976 37.9951807,8.93493976 C37.7349398,8.93493976 37.6481928,8.84819277 37.7349398,8.58795181 C37.8216867,8.06746988 37.9084337,7.54698795 37.9951807,7.02650602 C38.1686747,5.81204819 38.4289157,4.68433735 38.6024096,3.46987952 C38.6891566,3.12289157 38.7759036,3.12289157 39.0361446,3.12289157 C39.4698795,3.12289157 39.8168675,3.12289157 40.2506024,3.12289157 C40.3373494,3.12289157 40.4240964,3.03614458 40.5108434,3.03614458 C40.5108434,2.94939759 40.4240964,2.8626506 40.4240964,2.77590361 C40.4240964,2.77590361 40.4240964,2.68915663 40.3373494,2.68915663 C40.0771084,2.51566265 39.9903614,2.25542169 40.3373494,2.08192771 C40.4240964,1.99518072 40.5108434,1.99518072 40.5108434,1.90843373 Z M42.5927711,6.15903614 L42.5927711,6.15903614 C42.7662651,6.15903614 42.939759,6.15903614 43.113253,6.15903614 C43.286747,6.15903614 43.373494,5.98554217 43.373494,5.89879518 C43.373494,5.81204819 43.286747,5.63855422 43.286747,5.63855422 C42.939759,5.63855422 42.5060241,5.63855422 42.1590361,5.63855422 C41.9855422,5.63855422 41.8987952,5.81204819 41.8987952,5.98554217 C41.8987952,6.15903614 42.0722892,6.15903614 42.1590361,6.15903614 C42.3325301,6.15903614 42.4192771,6.15903614 42.5927711,6.15903614 Z M42.853012,4.59759036 C42.853012,4.59759036 42.853012,4.59759036 42.853012,4.59759036 C43.026506,4.59759036 43.2,4.59759036 43.373494,4.59759036 C43.546988,4.59759036 43.6337349,4.42409639 43.6337349,4.25060241 C43.6337349,4.07710843 43.546988,3.99036145 43.373494,3.99036145 C43.113253,3.99036145 42.853012,3.99036145 42.5927711,3.99036145 C42.5060241,3.99036145 42.4192771,3.99036145 42.3325301,3.99036145 C42.1590361,4.07710843 42.0722892,4.16385542 42.1590361,4.3373494 C42.1590361,4.42409639 42.3325301,4.51084337 42.4192771,4.51084337 C42.5060241,4.59759036 42.6795181,4.59759036 42.853012,4.59759036 Z M39.9903614,6.15903614 L39.9903614,6.15903614 C40.1638554,6.15903614 40.3373494,6.15903614 40.5108434,6.15903614 C40.6843373,6.15903614 40.7710843,5.98554217 40.7710843,5.89879518 C40.7710843,5.81204819 40.6843373,5.63855422 40.5975904,5.63855422 C40.2506024,5.63855422 39.9036145,5.63855422 39.5566265,5.63855422 C39.3831325,5.63855422 39.2963855,5.81204819 39.2963855,5.98554217 C39.2963855,6.15903614 39.4698795,6.15903614 39.5566265,6.15903614 C39.7301205,6.15903614 39.9036145,6.15903614 39.9903614,6.15903614 Z M40.2506024,4.59759036 C40.2506024,4.59759036 40.2506024,4.59759036 40.2506024,4.59759036 C40.4240964,4.59759036 40.5975904,4.59759036 40.7710843,4.59759036 C40.9445783,4.59759036 41.0313253,4.42409639 41.0313253,4.25060241 C41.0313253,4.07710843 40.8578313,3.99036145 40.7710843,3.99036145 C40.5975904,3.99036145 40.5108434,3.99036145 40.3373494,3.99036145 C40.1638554,3.99036145 39.9903614,3.99036145 39.9036145,3.99036145 C39.7301205,3.99036145 39.6433735,4.16385542 39.6433735,4.3373494 C39.6433735,4.51084337 39.8168675,4.51084337 39.9036145,4.51084337 C39.9903614,4.59759036 40.1638554,4.59759036 40.2506024,4.59759036 Z M43.026506,1.99518072 C43.026506,1.99518072 43.026506,1.90843373 43.026506,1.90843373 C42.5060241,1.90843373 42.0722892,1.90843373 41.5518072,1.90843373 C41.5518072,1.90843373 41.4650602,1.99518072 41.4650602,2.08192771 C41.4650602,2.34216867 41.8987952,2.60240964 42.1590361,2.51566265 C42.3325301,2.42891566 42.5927711,2.34216867 42.7662651,2.25542169 C42.7662651,2.1686747 42.853012,2.08192771 43.026506,1.99518072 Z" id="Shape"></path>
                <path d="M86.8337349,2.94939759 C86.9204819,2.77590361 87.0939759,2.68915663 87.1807229,2.60240964 C87.5277108,2.08192771 87.7879518,1.56144578 88.1349398,1.04096386 C88.3084337,0.693975904 88.3951807,0.607228916 88.7421687,0.780722892 C88.7421687,0.780722892 88.8289157,0.780722892 88.8289157,0.780722892 C89.2626506,0.86746988 89.2626506,0.86746988 89.1759036,1.38795181 C89.0891566,1.56144578 89.2626506,1.64819277 89.4361446,1.64819277 C90.0433735,1.64819277 90.7373494,1.64819277 91.3445783,1.64819277 C91.8650602,1.64819277 91.8650602,1.64819277 91.7783133,2.1686747 C91.7783133,2.25542169 91.7783133,2.34216867 91.6915663,2.42891566 C91.6048193,2.51566265 91.5180723,2.60240964 91.4313253,2.60240964 C91.1710843,2.60240964 91.0843373,2.77590361 90.9975904,2.94939759 C90.7373494,3.38313253 90.5638554,3.73012048 90.3036145,4.16385542 C90.1301205,4.42409639 90.1301205,4.51084337 90.3903614,4.77108434 C90.5638554,4.94457831 90.8240964,5.0313253 90.9975904,5.20481928 C91.2578313,5.37831325 91.2578313,5.46506024 91.0843373,5.63855422 C90.9108434,5.81204819 90.7373494,5.98554217 90.5638554,6.15903614 C90.3903614,6.33253012 90.2168675,6.33253012 90.0433735,6.15903614 C89.8698795,5.98554217 89.6096386,5.81204819 89.4361446,5.63855422 C89.1759036,5.46506024 89.0891566,5.46506024 88.8289157,5.55180723 C88.3951807,5.81204819 87.9614458,5.98554217 87.5277108,6.24578313 C87.0072289,6.5060241 86.660241,6.24578313 86.573494,5.7253012 C86.573494,5.55180723 86.660241,5.46506024 86.746988,5.46506024 C87.1807229,5.29156627 87.6144578,5.11807229 88.0481928,4.85783133 C88.3951807,4.68433735 88.3951807,4.51084337 88.2216867,4.16385542 C88.1349398,3.99036145 88.1349398,3.90361446 88.0481928,3.73012048 C87.9614458,3.55662651 87.8746988,3.55662651 87.7879518,3.64337349 C87.3542169,3.90361446 87.3542169,3.90361446 87.0072289,3.55662651 C86.8337349,3.38313253 86.8337349,3.46987952 86.746988,3.64337349 C86.660241,3.90361446 86.660241,4.16385542 86.573494,4.42409639 C86.486747,4.77108434 86.4,4.77108434 86.139759,4.77108434 C85.9662651,4.77108434 85.7060241,4.77108434 85.5325301,4.77108434 C85.5325301,4.77108434 85.5325301,4.85783133 85.5325301,4.85783133 C85.6192771,4.94457831 85.7060241,5.0313253 85.7927711,5.0313253 C86.313253,5.29156627 86.4,5.46506024 85.9662651,5.89879518 C85.7060241,6.24578313 85.6192771,6.24578313 85.2722892,5.98554217 C85.1855422,5.89879518 85.1855422,5.89879518 85.0987952,5.81204819 C84.8385542,5.63855422 84.7518072,5.7253012 84.7518072,5.98554217 C84.6650602,6.15903614 84.5783133,6.24578313 84.4048193,6.24578313 C84.2313253,6.24578313 84.0578313,6.24578313 83.8843373,6.24578313 C83.7108434,6.24578313 83.6240964,6.15903614 83.6240964,5.98554217 C83.6240964,5.89879518 83.6240964,5.81204819 83.7108434,5.7253012 C83.7108434,5.63855422 83.7108434,5.55180723 83.7108434,5.46506024 C83.6240964,5.46506024 83.5373494,5.46506024 83.4506024,5.55180723 C83.1036145,5.7253012 82.7566265,5.89879518 82.3228916,6.07228916 C82.1493976,6.15903614 81.9759036,6.24578313 81.8024096,6.07228916 C81.7156627,5.89879518 81.6289157,5.63855422 81.5421687,5.46506024 C81.5421687,5.37831325 81.6289157,5.29156627 81.7156627,5.29156627 C81.9759036,5.20481928 82.1493976,5.11807229 82.4096386,5.0313253 C82.4963855,4.94457831 82.5831325,4.94457831 82.6698795,4.85783133 C82.6698795,4.85783133 82.6698795,4.77108434 82.6698795,4.77108434 C82.5831325,4.77108434 82.4096386,4.77108434 82.3228916,4.77108434 C82.0626506,4.77108434 82.0626506,4.68433735 82.0626506,4.51084337 C82.1493976,3.90361446 82.2361446,3.29638554 82.4096386,2.68915663 C82.4963855,2.42891566 82.5831325,2.34216867 82.8433735,2.34216867 C83.1903614,2.34216867 83.5373494,2.34216867 83.9710843,2.34216867 C84.0578313,2.34216867 84.0578313,2.34216867 84.1445783,2.34216867 C84.2313253,2.34216867 84.2313253,2.25542169 84.3180723,2.1686747 C84.2313253,2.08192771 84.1445783,1.99518072 84.1445783,1.99518072 C83.7108434,1.99518072 83.2771084,1.99518072 82.8433735,1.99518072 C82.7566265,1.99518072 82.6698795,1.99518072 82.5831325,1.99518072 C82.4963855,1.99518072 82.4096386,1.90843373 82.4096386,1.82168675 C82.4096386,1.56144578 82.4963855,1.38795181 82.4963855,1.12771084 C82.4963855,1.04096386 82.6698795,0.954216867 82.8433735,0.954216867 C83.2771084,0.954216867 83.7108434,0.954216867 84.1445783,0.954216867 C84.3180723,0.954216867 84.4915663,0.954216867 84.5783133,0.693975904 C84.5783133,0.693975904 84.6650602,0.607228916 84.6650602,0.607228916 C85.0120482,0.607228916 85.2722892,0.607228916 85.6192771,0.607228916 C85.6192771,0.607228916 85.7060241,0.693975904 85.7060241,0.693975904 C85.7060241,0.954216867 85.8795181,0.954216867 86.053012,0.954216867 C86.486747,0.954216867 86.9204819,0.954216867 87.3542169,0.954216867 C87.6144578,0.954216867 87.7012048,1.04096386 87.6144578,1.30120482 C87.6144578,1.30120482 87.6144578,1.30120482 87.6144578,1.30120482 C87.5277108,1.90843373 87.5277108,1.90843373 86.9204819,1.90843373 C86.573494,1.90843373 86.226506,1.90843373 85.8795181,1.90843373 C85.7927711,1.90843373 85.7060241,1.90843373 85.7060241,1.90843373 C85.6192771,1.90843373 85.6192771,1.99518072 85.5325301,2.08192771 C85.6192771,2.1686747 85.6192771,2.1686747 85.7060241,2.1686747 C85.9662651,2.1686747 86.139759,2.1686747 86.4,2.1686747 C86.573494,2.1686747 86.746988,2.1686747 86.9204819,2.1686747 C87.1807229,2.1686747 87.2674699,2.25542169 87.2674699,2.51566265 C86.8337349,2.77590361 86.8337349,2.8626506 86.8337349,2.94939759 Z M88.8289157,2.68915663 C88.9156627,2.94939759 89.0891566,3.12289157 89.1759036,3.29638554 C89.2626506,3.46987952 89.4361446,3.46987952 89.5228916,3.29638554 C89.6963855,3.12289157 89.7831325,2.94939759 89.8698795,2.68915663 C89.9566265,2.51566265 89.8698795,2.42891566 89.6963855,2.42891566 C89.4361446,2.42891566 89.2626506,2.42891566 89.0024096,2.42891566 C89.0024096,2.60240964 88.9156627,2.68915663 88.8289157,2.68915663 Z M83.4506024,3.38313253 C83.1036145,3.38313253 83.0168675,3.46987952 83.0168675,3.64337349 C83.0168675,3.90361446 83.1903614,3.90361446 83.3638554,3.90361446 C83.6240964,3.90361446 83.7975904,3.81686747 83.7975904,3.55662651 C83.7975904,3.29638554 83.6240964,3.38313253 83.4506024,3.38313253 Z M85.3590361,3.38313253 C85.0987952,3.38313253 84.9253012,3.46987952 84.9253012,3.64337349 C84.9253012,3.81686747 85.0987952,3.90361446 85.2722892,3.90361446 C85.5325301,3.90361446 85.7060241,3.73012048 85.7060241,3.55662651 C85.6192771,3.38313253 85.4457831,3.38313253 85.3590361,3.38313253 Z" id="Shape"></path>
                <path d="M5.0313253,5.55180723 C6.24578313,5.55180723 7.46024096,5.55180723 8.58795181,5.55180723 C8.93493976,5.55180723 9.02168675,5.63855422 8.93493976,5.98554217 C8.76144578,6.85301205 8.6746988,7.72048193 8.50120482,8.58795181 C8.41445783,8.93493976 8.32771084,9.02168675 7.98072289,9.02168675 C7.11325301,9.02168675 6.24578313,9.02168675 5.37831325,9.02168675 C5.20481928,9.02168675 5.0313253,9.02168675 5.0313253,9.19518072 C5.0313253,9.28192771 5.20481928,9.3686747 5.29156627,9.45542169 C5.37831325,9.45542169 5.46506024,9.45542169 5.55180723,9.45542169 C6.33253012,9.45542169 7.02650602,9.45542169 7.80722892,9.3686747 C8.15421687,9.3686747 8.41445783,9.28192771 8.58795181,8.93493976 C8.6746988,8.6746988 8.84819277,8.6746988 9.10843373,8.76144578 C9.71566265,9.02168675 9.71566265,9.19518072 9.3686747,9.71566265 C9.02168675,10.2361446 8.58795181,10.3228916 8.06746988,10.3228916 C7.02650602,10.4096386 5.98554217,10.4096386 4.85783133,10.4096386 C4.59759036,10.4096386 4.42409639,10.3228916 4.16385542,10.3228916 C3.90361446,10.2361446 3.73012048,10.0626506 3.73012048,9.80240964 C3.73012048,9.62891566 3.73012048,9.45542169 3.73012048,9.19518072 C3.73012048,9.02168675 3.64337349,8.93493976 3.46987952,8.93493976 C2.8626506,8.93493976 2.34216867,8.93493976 1.73493976,8.93493976 C1.64819277,8.93493976 1.4746988,9.02168675 1.4746988,9.19518072 C1.38795181,9.3686747 1.30120482,9.45542169 1.12771084,9.45542169 C0.954216867,9.45542169 0.780722892,9.45542169 0.607228916,9.45542169 C0.346987952,9.45542169 0.260240964,9.3686747 0.346987952,9.10843373 C0.43373494,8.50120482 0.607228916,7.80722892 0.693975904,7.2 C0.780722892,6.76626506 0.86746988,6.33253012 0.954216867,5.81204819 C1.04096386,5.55180723 1.12771084,5.46506024 1.38795181,5.46506024 C2.60240964,5.55180723 3.81686747,5.55180723 5.0313253,5.55180723 Z M3.03614458,6.85301205 C3.03614458,6.85301205 3.03614458,6.85301205 3.03614458,6.85301205 C3.29638554,6.85301205 3.64337349,6.85301205 3.90361446,6.85301205 C3.99036145,6.85301205 4.07710843,6.76626506 4.16385542,6.67951807 C4.07710843,6.59277108 3.99036145,6.5060241 3.99036145,6.5060241 C3.38313253,6.5060241 2.77590361,6.5060241 2.1686747,6.5060241 C2.08192771,6.5060241 1.99518072,6.59277108 1.90843373,6.67951807 C1.99518072,6.76626506 2.08192771,6.85301205 2.1686747,6.85301205 C2.42891566,6.85301205 2.77590361,6.85301205 3.03614458,6.85301205 Z M6.5060241,6.85301205 C6.5060241,6.85301205 6.5060241,6.85301205 6.5060241,6.85301205 C6.85301205,6.85301205 7.11325301,6.85301205 7.46024096,6.85301205 C7.54698795,6.85301205 7.63373494,6.76626506 7.72048193,6.67951807 C7.63373494,6.59277108 7.54698795,6.5060241 7.54698795,6.5060241 C6.93975904,6.5060241 6.33253012,6.5060241 5.7253012,6.5060241 C5.63855422,6.5060241 5.55180723,6.59277108 5.46506024,6.67951807 C5.55180723,6.76626506 5.63855422,6.85301205 5.7253012,6.85301205 C5.89879518,6.85301205 6.24578313,6.85301205 6.5060241,6.85301205 Z M2.8626506,8.06746988 C2.8626506,8.06746988 2.8626506,8.06746988 2.8626506,8.06746988 C3.20963855,8.06746988 3.46987952,8.06746988 3.81686747,8.06746988 C3.90361446,8.06746988 3.99036145,7.98072289 4.07710843,7.8939759 C3.99036145,7.80722892 3.90361446,7.72048193 3.81686747,7.72048193 C3.20963855,7.72048193 2.60240964,7.72048193 1.99518072,7.72048193 C1.90843373,7.72048193 1.82168675,7.80722892 1.73493976,7.8939759 C1.82168675,7.98072289 1.90843373,8.06746988 1.99518072,8.06746988 C2.25542169,8.06746988 2.51566265,8.06746988 2.8626506,8.06746988 Z M6.33253012,8.06746988 C6.33253012,8.06746988 6.33253012,8.06746988 6.33253012,8.06746988 C6.67951807,8.06746988 6.93975904,8.06746988 7.28674699,8.06746988 C7.37349398,8.06746988 7.46024096,7.98072289 7.46024096,7.8939759 C7.37349398,7.80722892 7.28674699,7.72048193 7.28674699,7.72048193 C6.67951807,7.72048193 6.07228916,7.72048193 5.46506024,7.72048193 C5.37831325,7.72048193 5.29156627,7.80722892 5.20481928,7.8939759 C5.29156627,7.98072289 5.37831325,7.98072289 5.46506024,8.06746988 C5.7253012,8.06746988 5.98554217,8.06746988 6.33253012,8.06746988 Z" id="Shape"></path>
                <path d="M62.9783133,5.37831325 C63.8457831,5.37831325 64.8,5.37831325 65.6674699,5.37831325 C66.0144578,5.37831325 66.1012048,5.46506024 66.0144578,5.81204819 C65.9277108,6.24578313 65.8409639,6.76626506 65.7542169,7.2 C65.6674699,7.46024096 65.5807229,7.54698795 65.3204819,7.54698795 C64.713253,7.54698795 64.1060241,7.54698795 63.4120482,7.54698795 C63.3253012,7.54698795 63.1518072,7.63373494 63.0650602,7.63373494 C62.9783133,7.63373494 62.9783133,7.80722892 62.9783133,7.80722892 C62.9783133,7.80722892 63.0650602,7.8939759 63.1518072,7.8939759 C63.3253012,7.8939759 63.4987952,7.8939759 63.6722892,7.8939759 C64.453012,7.8939759 65.146988,7.8939759 65.9277108,7.8939759 C66.2746988,7.8939759 66.2746988,7.98072289 66.2746988,8.24096386 C66.1879518,8.84819277 66.1012048,9.45542169 65.9277108,10.1493976 C65.9277108,10.3228916 65.7542169,10.4963855 65.5807229,10.4963855 C65.4072289,10.4963855 65.2337349,10.4963855 65.060241,10.4963855 C64.973494,10.4963855 64.8,10.4963855 64.8,10.3228916 C64.8,10.2361446 64.626506,10.2361446 64.539759,10.2361446 C63.6722892,10.2361446 62.8048193,10.2361446 62.0240964,10.2361446 C61.4168675,10.2361446 60.8096386,10.2361446 60.1156627,10.2361446 C59.9421687,10.2361446 59.7686747,10.2361446 59.7686747,10.4096386 C59.7686747,10.4096386 59.7686747,10.4096386 59.7686747,10.4096386 C59.4216867,10.4096386 59.0746988,10.4096386 58.8144578,10.4096386 C58.8144578,10.4096386 58.7277108,10.2361446 58.7277108,10.1493976 C58.8144578,9.54216867 58.9879518,8.84819277 59.0746988,8.24096386 C59.1614458,7.98072289 59.2481928,7.8939759 59.5084337,7.8939759 C60.2024096,7.8939759 60.8963855,7.8939759 61.5903614,7.8939759 C61.6771084,7.8939759 61.8506024,7.8939759 61.9373494,7.80722892 C62.0240964,7.80722892 62.0240964,7.63373494 62.0240964,7.63373494 C61.9373494,7.63373494 61.9373494,7.54698795 61.8506024,7.54698795 C61.3301205,7.54698795 60.8096386,7.54698795 60.2891566,7.54698795 C59.6819277,7.54698795 59.6819277,7.54698795 59.7686747,6.93975904 C59.8554217,6.5060241 59.9421687,6.07228916 60.0289157,5.7253012 C60.1156627,5.46506024 60.2024096,5.37831325 60.4626506,5.37831325 C61.0698795,5.37831325 62.0240964,5.46506024 62.9783133,5.37831325 Z M62.2843373,9.3686747 C62.9783133,9.3686747 63.7590361,9.3686747 64.453012,9.3686747 C64.713253,9.3686747 64.886747,9.28192771 64.886747,9.10843373 C64.886747,8.84819277 64.626506,8.84819277 64.539759,8.84819277 C63.1518072,8.84819277 61.6771084,8.84819277 60.2891566,8.84819277 C60.2024096,8.84819277 60.2024096,8.84819277 60.1156627,8.84819277 C59.9421687,8.84819277 59.8554217,9.02168675 59.8554217,9.19518072 C59.8554217,9.3686747 60.0289157,9.3686747 60.2024096,9.3686747 C60.8096386,9.3686747 61.5036145,9.3686747 62.2843373,9.3686747 Z M62.8048193,6.24578313 C62.2843373,6.24578313 61.6771084,6.24578313 61.1566265,6.24578313 C61.0698795,6.24578313 60.9831325,6.24578313 60.8963855,6.33253012 C60.8096386,6.41927711 60.8096386,6.5060241 60.8096386,6.59277108 C60.8963855,6.67951807 60.9831325,6.76626506 61.0698795,6.76626506 C61.9373494,6.76626506 62.8048193,6.76626506 63.5855422,6.76626506 C63.8457831,6.76626506 64.1060241,6.76626506 64.2795181,6.76626506 C64.453012,6.76626506 64.626506,6.67951807 64.626506,6.5060241 C64.626506,6.33253012 64.453012,6.33253012 64.2795181,6.33253012 C63.8457831,6.24578313 63.3253012,6.24578313 62.8048193,6.24578313 Z" id="Shape"></path>
                <path d="M85.3590361,10.3228916 C83.8843373,10.3228916 82.4963855,10.3228916 81.0216867,10.3228916 C80.6746988,10.3228916 80.5879518,10.2361446 80.6746988,9.88915663 C80.6746988,9.80240964 80.6746988,9.71566265 80.7614458,9.62891566 C80.8481928,9.45542169 80.9349398,9.28192771 81.1951807,9.28192771 C81.4554217,9.28192771 81.7156627,9.28192771 81.9759036,9.28192771 C82.3228916,9.28192771 82.4096386,9.19518072 82.4096386,8.93493976 C82.4963855,8.6746988 82.4963855,8.41445783 82.4963855,8.15421687 C82.5831325,7.98072289 82.6698795,7.80722892 82.8433735,7.80722892 C83.0168675,7.80722892 83.1903614,7.80722892 83.3638554,7.80722892 C83.6240964,7.80722892 83.6240964,7.8939759 83.6240964,8.15421687 C83.5373494,8.41445783 83.5373494,8.76144578 83.4506024,9.02168675 C83.4506024,9.19518072 83.5373494,9.28192771 83.7108434,9.28192771 C84.0578313,9.28192771 84.4048193,9.28192771 84.7518072,9.28192771 C84.9253012,9.28192771 85.0120482,9.19518072 85.0987952,9.02168675 C85.1855422,8.58795181 85.2722892,8.15421687 85.3590361,7.72048193 C85.3590361,7.46024096 85.2722892,7.46024096 85.0987952,7.46024096 C84.4915663,7.46024096 83.9710843,7.46024096 83.3638554,7.46024096 C82.8433735,7.46024096 82.4096386,7.46024096 81.9759036,7.46024096 C81.7156627,7.46024096 81.6289157,7.37349398 81.7156627,7.11325301 C81.8024096,6.41927711 81.8024096,6.41927711 82.4963855,6.41927711 C85.0120482,6.41927711 87.4409639,6.41927711 89.9566265,6.41927711 C90.3903614,6.41927711 90.4771084,6.5060241 90.3903614,6.93975904 C90.3903614,7.02650602 90.3903614,7.11325301 90.3036145,7.2 C90.2168675,7.46024096 90.1301205,7.46024096 89.8698795,7.46024096 C88.9156627,7.46024096 87.9614458,7.46024096 87.0072289,7.46024096 C86.9204819,7.46024096 86.746988,7.46024096 86.746988,7.54698795 C86.660241,7.63373494 86.573494,7.72048193 86.573494,7.80722892 C86.573494,7.8939759 86.746988,7.98072289 86.8337349,7.98072289 C87.1807229,7.98072289 87.5277108,7.98072289 87.9614458,7.98072289 C88.4819277,7.98072289 88.9156627,7.98072289 89.4361446,7.98072289 C89.7831325,7.98072289 89.7831325,8.06746988 89.7831325,8.32771084 C89.7831325,8.41445783 89.7831325,8.50120482 89.7831325,8.50120482 C89.6963855,8.76144578 89.6096386,8.84819277 89.3493976,8.84819277 C88.5686747,8.84819277 87.7012048,8.84819277 86.9204819,8.84819277 C86.8337349,8.84819277 86.746988,8.84819277 86.746988,8.84819277 C86.573494,8.84819277 86.486747,8.93493976 86.486747,9.10843373 C86.486747,9.28192771 86.660241,9.28192771 86.746988,9.28192771 C87.8746988,9.28192771 89.0024096,9.28192771 90.1301205,9.28192771 C90.4771084,9.28192771 90.5638554,9.3686747 90.4771084,9.71566265 C90.4771084,9.80240964 90.4771084,9.80240964 90.4771084,9.88915663 C90.3903614,10.2361446 90.3903614,10.3228916 89.9566265,10.3228916 C88.3084337,10.3228916 86.8337349,10.3228916 85.3590361,10.3228916 Z" id="Path"></path>
                <path d="M97.6771084,5.98554217 C98.8048193,5.98554217 99.9325301,5.98554217 101.060241,5.98554217 C101.407229,5.98554217 101.493976,6.07228916 101.407229,6.41927711 C101.146988,7.63373494 100.973494,8.93493976 100.713253,10.1493976 C100.626506,10.4096386 100.539759,10.4963855 100.279518,10.4963855 C100.106024,10.4963855 99.9325301,10.4963855 99.6722892,10.4963855 C99.4987952,10.4963855 99.4120482,10.4096386 99.4120482,10.2361446 C99.4120482,10.0626506 99.3253012,9.97590361 99.1518072,9.97590361 C97.5903614,9.97590361 96.1156627,9.97590361 94.5542169,9.97590361 C94.3807229,9.97590361 94.2939759,10.0626506 94.2072289,10.2361446 C94.1204819,10.4096386 94.0337349,10.4963855 93.860241,10.4963855 C93.6,10.4963855 93.426506,10.4963855 93.1662651,10.4963855 C92.9927711,10.4963855 92.9060241,10.4096386 92.9060241,10.2361446 C93.1662651,8.93493976 93.339759,7.63373494 93.6,6.33253012 C93.686747,6.07228916 93.773494,5.98554217 94.0337349,5.98554217 C95.3349398,5.98554217 96.5493976,5.98554217 97.6771084,5.98554217 Z M97.4168675,7.11325301 C96.7228916,7.11325301 95.9421687,7.11325301 95.2481928,7.11325301 C94.9012048,7.11325301 94.8144578,7.2 94.8144578,7.46024096 C94.7277108,7.80722892 94.7277108,8.15421687 94.6409639,8.50120482 C94.6409639,8.76144578 94.6409639,8.84819277 94.9012048,8.84819277 C96.3759036,8.84819277 97.9373494,8.84819277 99.4120482,8.84819277 C99.6722892,8.84819277 99.7590361,8.76144578 99.7590361,8.50120482 C99.8457831,8.15421687 99.8457831,7.80722892 99.9325301,7.46024096 C100.019277,7.2 99.9325301,7.11325301 99.5855422,7.11325301 C98.8915663,7.11325301 98.1975904,7.11325301 97.4168675,7.11325301 Z" id="Shape"></path>
                <path d="M62.5445783,4.07710843 C62.6313253,4.07710843 62.7180723,4.07710843 62.8048193,4.16385542 C63.1518072,4.16385542 63.4120482,4.16385542 63.6722892,4.16385542 C63.9325301,4.16385542 63.9325301,4.07710843 63.8457831,3.81686747 C63.8457831,3.81686747 63.8457831,3.81686747 63.8457831,3.73012048 C63.6722892,3.46987952 63.7590361,3.38313253 63.9325301,3.29638554 C64.1060241,3.20963855 64.3662651,3.03614458 64.539759,2.94939759 C64.973494,2.68915663 65.2337349,2.25542169 65.4072289,1.73493976 C65.4939759,1.4746988 65.4939759,1.30120482 65.5807229,1.04096386 C65.5807229,0.954216867 65.6674699,0.780722892 65.8409639,0.780722892 C66.1012048,0.780722892 66.3614458,0.780722892 66.6216867,0.780722892 C66.7951807,0.780722892 66.7951807,0.954216867 66.7084337,1.12771084 C66.6216867,1.4746988 66.5349398,1.73493976 66.4481928,2.08192771 C66.3614458,2.42891566 66.3614458,2.42891566 66.6216867,2.60240964 C66.8819277,2.77590361 67.1421687,2.94939759 67.3156627,3.12289157 C67.5759036,3.29638554 67.5759036,3.38313253 67.4024096,3.64337349 C67.3156627,3.73012048 67.2289157,3.81686747 67.1421687,3.90361446 C67.0554217,3.99036145 67.0554217,4.07710843 67.0554217,4.07710843 C67.0554217,4.07710843 67.0554217,4.16385542 67.0554217,4.16385542 C67.2289157,4.16385542 67.4024096,4.16385542 67.5759036,4.16385542 C67.8361446,4.16385542 67.9228916,4.25060241 67.9228916,4.51084337 C67.8361446,4.85783133 67.8361446,5.29156627 67.7493976,5.63855422 C67.7493976,5.7253012 67.6626506,5.89879518 67.5759036,5.89879518 C67.3156627,5.89879518 66.9686747,5.89879518 66.7084337,5.89879518 C66.6216867,5.89879518 66.6216867,5.63855422 66.6216867,5.55180723 C66.7084337,5.11807229 66.6216867,5.11807229 66.2746988,5.11807229 C64.2795181,5.11807229 62.2843373,5.11807229 60.2024096,5.11807229 C59.8554217,5.11807229 59.7686747,5.11807229 59.6819277,5.55180723 C59.5951807,5.89879518 59.5084337,5.98554217 59.1614458,5.98554217 C59.0746988,5.98554217 58.9879518,5.98554217 58.9879518,5.98554217 C58.6409639,5.98554217 58.5542169,5.89879518 58.6409639,5.55180723 C58.7277108,5.20481928 58.7277108,4.85783133 58.8144578,4.51084337 C58.9012048,4.25060241 58.9879518,4.16385542 59.2481928,4.16385542 C59.2481928,4.16385542 59.2481928,4.16385542 59.3349398,4.16385542 C59.8554217,4.16385542 59.8554217,4.16385542 59.6819277,3.64337349 C59.5951807,3.46987952 59.6819277,3.38313253 59.8554217,3.29638554 C60.0289157,3.20963855 60.2891566,3.03614458 60.4626506,2.94939759 C60.8963855,2.68915663 61.1566265,2.25542169 61.3301205,1.82168675 C61.4168675,1.56144578 61.4168675,1.38795181 61.5036145,1.12771084 C61.5903614,0.954216867 61.6771084,0.86746988 61.8506024,0.86746988 C62.0240964,0.86746988 62.1975904,0.86746988 62.3710843,0.86746988 C62.5445783,0.86746988 62.7180723,0.954216867 62.6313253,1.12771084 C62.5445783,1.4746988 62.4578313,1.82168675 62.3710843,2.08192771 C62.2843373,2.51566265 62.2843373,2.51566265 62.6313253,2.68915663 C62.8915663,2.77590361 63.0650602,2.94939759 63.2385542,3.12289157 C63.4987952,3.29638554 63.4987952,3.46987952 63.2385542,3.64337349 C62.7180723,3.73012048 62.6313253,3.90361446 62.5445783,4.07710843 C62.4578313,3.99036145 62.4578313,4.07710843 62.5445783,4.07710843 Z M62.1108434,3.99036145 C62.0240964,3.90361446 61.8506024,3.73012048 61.7638554,3.64337349 C61.2433735,3.29638554 61.2433735,3.29638554 60.7228916,3.64337349 C60.6361446,3.73012048 60.5493976,3.81686747 60.4626506,3.90361446 C60.3759036,3.90361446 60.3759036,3.99036145 60.3759036,4.07710843 C60.5493976,4.16385542 61.8506024,4.16385542 62.1108434,3.99036145 Z M66.4481928,4.07710843 C66.3614458,3.81686747 66.1012048,3.64337349 65.9277108,3.46987952 C65.7542169,3.29638554 65.5807229,3.29638554 65.4072289,3.46987952 C65.2337349,3.64337349 65.060241,3.73012048 64.886747,3.81686747 C64.8,3.90361446 64.8,3.90361446 64.713253,3.99036145 C65.3204819,4.07710843 65.8409639,4.07710843 66.4481928,4.07710843 Z" id="Shape"></path>
                <path d="M6.33253012,1.99518072 C6.5060241,1.99518072 6.59277108,2.08192771 6.76626506,2.08192771 C7.8939759,2.08192771 9.02168675,2.08192771 10.1493976,2.08192771 C10.4963855,2.08192771 10.5831325,2.1686747 10.4963855,2.51566265 C10.4096386,2.94939759 10.3228916,3.38313253 10.2361446,3.81686747 C10.1493976,4.07710843 10.0626506,4.16385542 9.80240964,4.16385542 C9.62891566,4.16385542 9.54216867,4.16385542 9.3686747,4.16385542 C9.10843373,4.16385542 9.10843373,4.07710843 9.10843373,3.81686747 C9.10843373,3.64337349 9.19518072,3.55662651 9.19518072,3.38313253 C9.19518072,3.20963855 9.10843373,3.12289157 8.93493976,3.12289157 C8.06746988,3.12289157 7.2,3.12289157 6.41927711,3.12289157 C6.15903614,3.12289157 6.15903614,3.29638554 6.07228916,3.46987952 C5.98554217,3.90361446 5.89879518,4.3373494 5.81204819,4.85783133 C5.7253012,5.20481928 5.63855422,5.29156627 5.29156627,5.29156627 C5.20481928,5.29156627 5.0313253,5.29156627 4.94457831,5.29156627 C4.68433735,5.29156627 4.59759036,5.20481928 4.59759036,4.94457831 C4.68433735,4.51084337 4.77108434,3.99036145 4.85783133,3.55662651 C4.94457831,3.29638554 4.85783133,3.20963855 4.59759036,3.20963855 C3.81686747,3.20963855 3.03614458,3.20963855 2.25542169,3.20963855 C1.99518072,3.20963855 1.90843373,3.29638554 1.90843373,3.55662651 C1.90843373,3.55662651 1.90843373,3.55662651 1.90843373,3.55662651 C1.73493976,4.25060241 1.56144578,4.3373494 0.86746988,4.25060241 C0.780722892,4.25060241 0.693975904,4.07710843 0.693975904,4.07710843 C0.780722892,3.55662651 0.86746988,2.94939759 0.954216867,2.42891566 C0.954216867,2.25542169 1.21445783,2.25542169 1.30120482,2.25542169 C2.42891566,2.25542169 3.55662651,2.25542169 4.68433735,2.25542169 C4.77108434,2.25542169 4.94457831,2.25542169 5.0313253,2.25542169 C5.11807229,2.25542169 5.11807229,2.1686747 5.11807229,2.1686747 C5.0313253,2.1686747 5.0313253,2.08192771 5.0313253,2.08192771 C4.94457831,2.08192771 4.85783133,2.08192771 4.68433735,2.08192771 C3.81686747,2.08192771 2.94939759,2.08192771 2.1686747,2.08192771 C1.90843373,2.08192771 1.82168675,1.99518072 1.82168675,1.73493976 C1.90843373,1.12771084 1.90843373,1.12771084 2.51566265,1.12771084 C4.85783133,1.12771084 7.2,1.12771084 9.54216867,1.12771084 C9.88915663,1.12771084 9.97590361,1.21445783 9.88915663,1.56144578 C9.88915663,1.64819277 9.88915663,1.73493976 9.88915663,1.82168675 C9.88915663,1.73493976 9.80240964,1.73493976 9.54216867,1.73493976 C8.6746988,1.73493976 7.80722892,1.73493976 6.93975904,1.73493976 C6.85301205,1.73493976 6.67951807,1.73493976 6.59277108,1.73493976 C6.5060241,1.82168675 6.41927711,1.82168675 6.33253012,1.99518072 C6.33253012,1.90843373 6.33253012,1.90843373 6.33253012,1.99518072 Z" id="Path"></path>
                <path d="M98.7180723,0.693975904 C98.8915663,0.86746988 99.0650602,0.954216867 99.1518072,1.04096386 C99.2385542,1.21445783 99.4987952,1.30120482 99.4120482,1.56144578 C99.4120482,1.64819277 99.4987952,1.73493976 99.5855422,1.82168675 C100.192771,2.25542169 100.8,2.60240964 101.407229,2.94939759 C101.840964,3.20963855 102.361446,3.38313253 102.795181,3.55662651 C103.055422,3.64337349 103.055422,3.73012048 102.881928,3.99036145 C102.708434,4.16385542 102.53494,4.42409639 102.448193,4.59759036 C102.274699,4.85783133 102.101205,4.85783133 101.840964,4.68433735 C101.754217,4.59759036 101.580723,4.59759036 101.493976,4.51084337 C101.320482,4.42409639 101.233735,4.42409639 101.146988,4.59759036 C100.973494,4.94457831 100.973494,4.94457831 100.626506,4.94457831 C98.8048193,4.94457831 96.9831325,4.94457831 95.1614458,4.94457831 C94.8144578,4.94457831 94.8144578,4.94457831 94.8144578,4.59759036 C94.8144578,4.42409639 94.7277108,4.42409639 94.5542169,4.42409639 C94.3807229,4.51084337 94.2072289,4.59759036 93.946988,4.68433735 C93.6,4.85783133 93.513253,4.77108434 93.339759,4.42409639 C93.253012,4.25060241 93.253012,4.16385542 93.1662651,3.99036145 C93.0795181,3.73012048 93.1662651,3.64337349 93.426506,3.46987952 C94.1204819,3.12289157 94.8144578,2.8626506 95.4216867,2.51566265 C96.3759036,1.99518072 97.2433735,1.30120482 98.1975904,0.780722892 C98.2843373,0.86746988 98.4578313,0.780722892 98.7180723,0.693975904 Z M100.106024,3.81686747 C100.019277,3.73012048 99.9325301,3.64337349 99.8457831,3.64337349 C99.4120482,3.29638554 98.9783133,3.03614458 98.6313253,2.68915663 C98.2843373,2.42891566 98.1108434,2.42891566 97.7638554,2.68915663 C97.2433735,3.03614458 96.7228916,3.38313253 96.1156627,3.73012048 C96.0289157,3.81686747 95.9421687,3.81686747 95.8554217,3.90361446 C96.2891566,3.99036145 99.8457831,3.99036145 100.106024,3.81686747 Z" id="Shape"></path>
                <path d="M44.2409639,9.19518072 C44.2409639,9.28192771 44.2409639,9.3686747 44.1542169,9.3686747 C43.9807229,9.62891566 43.8072289,9.97590361 43.6337349,10.2361446 C43.546988,10.3228916 43.373494,10.4096386 43.286747,10.4096386 C41.8120482,10.4096386 40.4240964,10.4096386 38.9493976,10.3228916 C38.3421687,10.3228916 37.6481928,10.2361446 37.1277108,9.88915663 C36.9542169,9.80240964 36.7807229,9.62891566 36.6939759,9.54216867 C36.4337349,9.28192771 36.346988,9.28192771 36.086747,9.54216867 C35.826506,9.71566265 35.5662651,9.97590361 35.3060241,10.1493976 C35.0457831,10.3228916 34.9590361,10.3228916 34.7855422,9.97590361 C34.6987952,9.80240964 34.6120482,9.71566265 34.5253012,9.54216867 C34.4385542,9.28192771 34.4385542,9.19518072 34.6987952,9.10843373 C34.9590361,9.02168675 35.2192771,8.93493976 35.3927711,8.84819277 C35.653012,8.76144578 35.739759,8.58795181 35.826506,8.32771084 C35.913253,7.72048193 36.086747,7.11325301 36.173494,6.41927711 C36.260241,6.15903614 36.173494,6.07228916 35.913253,6.07228916 C35.739759,6.07228916 35.5662651,6.07228916 35.3927711,6.07228916 C35.2192771,6.07228916 35.1325301,5.98554217 35.1325301,5.81204819 C35.1325301,5.63855422 35.2192771,5.46506024 35.2192771,5.29156627 C35.3060241,5.0313253 35.3927711,4.94457831 35.653012,4.94457831 C36.173494,4.94457831 36.6939759,4.94457831 37.2144578,4.94457831 C37.5614458,4.94457831 37.6481928,5.0313253 37.5614458,5.37831325 C37.3879518,6.24578313 37.3012048,7.11325301 37.1277108,7.98072289 C37.0409639,8.32771084 37.1277108,8.6746988 37.4746988,8.76144578 C37.8216867,8.93493976 38.2554217,9.10843373 38.6024096,9.10843373 C40.4240964,9.28192771 42.1590361,9.28192771 43.9807229,9.10843373 C44.0674699,9.19518072 44.1542169,9.19518072 44.2409639,9.19518072 Z" id="Path"></path>
                <path d="M75.7301205,10.3228916 C74.7759036,10.2361446 73.9084337,10.2361446 72.9542169,10.1493976 C72.260241,10.0626506 71.739759,9.88915663 71.2192771,9.45542169 C71.0457831,9.28192771 70.7855422,9.28192771 70.6120482,9.45542169 C70.3518072,9.62891566 70.1783133,9.88915663 69.9180723,10.1493976 C69.6578313,10.3228916 69.5710843,10.3228916 69.3975904,10.0626506 C69.3108434,9.88915663 69.2240964,9.80240964 69.1373494,9.62891566 C69.0506024,9.3686747 69.0506024,9.28192771 69.3108434,9.10843373 C69.5710843,9.02168675 69.7445783,8.84819277 69.9180723,8.76144578 C70.0915663,8.6746988 70.2650602,8.50120482 70.2650602,8.24096386 C70.3518072,7.72048193 70.4385542,7.2 70.5253012,6.67951807 C70.6120482,6.41927711 70.5253012,6.33253012 70.1783133,6.33253012 C70.0048193,6.33253012 69.8313253,6.33253012 69.6578313,6.33253012 C69.3975904,6.33253012 69.3108434,6.24578313 69.3975904,5.98554217 C69.3975904,5.81204819 69.4843373,5.63855422 69.4843373,5.46506024 C69.5710843,5.29156627 69.6578313,5.20481928 69.8313253,5.20481928 C70.3518072,5.20481928 70.9590361,5.20481928 71.5662651,5.20481928 C71.826506,5.20481928 71.913253,5.29156627 71.826506,5.55180723 C71.653012,6.33253012 71.5662651,7.2 71.3927711,7.98072289 C71.3060241,8.32771084 71.3927711,8.50120482 71.739759,8.6746988 C72.086747,8.84819277 72.5204819,8.93493976 72.8674699,9.02168675 C74.3421687,9.19518072 75.8168675,9.19518072 77.2915663,9.10843373 C77.6385542,9.10843373 78.0722892,9.02168675 78.4192771,9.02168675 C78.5060241,9.02168675 78.5927711,9.02168675 78.6795181,9.02168675 C78.6795181,9.10843373 78.6795181,9.19518072 78.5927711,9.19518072 C78.4192771,9.45542169 78.3325301,9.71566265 78.1590361,9.97590361 C78.0722892,10.1493976 77.8987952,10.2361446 77.6385542,10.2361446 C77.0313253,10.3228916 76.4240964,10.3228916 75.7301205,10.3228916 C75.7301205,10.3228916 75.7301205,10.3228916 75.7301205,10.3228916 Z" id="Path"></path>
                <path d="M7.46024096,4.16385542 C7.11325301,4.16385542 6.85301205,4.16385542 6.5060241,4.16385542 C6.24578313,4.16385542 6.15903614,4.07710843 6.15903614,3.81686747 C6.24578313,3.38313253 6.33253012,3.29638554 6.76626506,3.29638554 C7.37349398,3.29638554 7.98072289,3.29638554 8.58795181,3.29638554 C8.84819277,3.29638554 8.93493976,3.38313253 8.84819277,3.64337349 C8.76144578,4.07710843 8.76144578,4.16385542 8.24096386,4.16385542 C8.06746988,4.16385542 7.80722892,4.16385542 7.46024096,4.16385542 Z" id="Path"></path>
                <path d="M7.28674699,5.29156627 C6.93975904,5.29156627 6.59277108,5.29156627 6.24578313,5.29156627 C5.98554217,5.29156627 5.98554217,5.20481928 5.98554217,5.0313253 C5.98554217,4.94457831 5.98554217,4.85783133 6.07228916,4.77108434 C6.07228916,4.59759036 6.24578313,4.51084337 6.41927711,4.51084337 C7.11325301,4.51084337 7.80722892,4.51084337 8.50120482,4.51084337 C8.6746988,4.51084337 8.76144578,4.59759036 8.76144578,4.77108434 C8.76144578,4.85783133 8.76144578,4.94457831 8.6746988,5.0313253 C8.6746988,5.29156627 8.50120482,5.37831325 8.32771084,5.37831325 C7.98072289,5.29156627 7.63373494,5.29156627 7.28674699,5.29156627 Z" id="Path"></path>
                <path d="M3.20963855,4.16385542 C2.8626506,4.16385542 2.51566265,4.16385542 2.25542169,4.16385542 C1.99518072,4.16385542 1.90843373,4.07710843 1.99518072,3.81686747 C1.99518072,3.73012048 1.99518072,3.64337349 2.08192771,3.55662651 C2.1686747,3.38313253 2.25542169,3.29638554 2.42891566,3.29638554 C3.12289157,3.29638554 3.81686747,3.29638554 4.42409639,3.29638554 C4.59759036,3.29638554 4.68433735,3.38313253 4.68433735,3.55662651 C4.59759036,3.99036145 4.51084337,4.16385542 4.07710843,4.16385542 C3.73012048,4.16385542 3.46987952,4.16385542 3.20963855,4.16385542 L3.20963855,4.16385542 Z" id="Path"></path>
                <path d="M2.94939759,5.29156627 C2.60240964,5.29156627 2.34216867,5.29156627 1.99518072,5.29156627 C1.73493976,5.29156627 1.64819277,5.20481928 1.73493976,4.94457831 C1.82168675,4.51084337 1.82168675,4.42409639 2.34216867,4.42409639 C2.94939759,4.42409639 3.46987952,4.42409639 3.99036145,4.42409639 C4.25060241,4.42409639 4.3373494,4.51084337 4.3373494,4.77108434 C4.25060241,5.20481928 4.25060241,5.29156627 3.73012048,5.29156627 C3.55662651,5.29156627 3.29638554,5.29156627 2.94939759,5.29156627 Z" id="Path"></path>
                <path d="M36.7807229,2.8626506 C36.7807229,2.8626506 36.7807229,2.8626506 36.7807229,2.8626506 C37.2144578,3.12289157 37.5614458,3.38313253 37.7349398,3.73012048 C37.8216867,3.81686747 37.7349398,3.99036145 37.6481928,4.07710843 C37.5614458,4.25060241 37.3879518,4.3373494 37.2144578,4.51084337 C37.0409639,4.68433735 36.9542169,4.59759036 36.7807229,4.51084337 C36.5204819,4.25060241 36.260241,3.99036145 36.086747,3.73012048 C36,3.64337349 36,3.55662651 36,3.46987952 C36,3.29638554 36.5204819,2.8626506 36.7807229,2.8626506 Z" id="Path"></path>
                <path d="M38.1686747,1.73493976 C38.0819277,1.82168675 38.0819277,1.90843373 37.9951807,1.99518072 C37.8216867,2.1686747 37.7349398,2.25542169 37.5614458,2.42891566 C37.3879518,2.60240964 37.3012048,2.60240964 37.1277108,2.42891566 C36.8674699,2.1686747 36.6072289,1.90843373 36.346988,1.73493976 C36.260241,1.64819277 36.173494,1.4746988 36.346988,1.38795181 C36.4337349,1.21445783 36.6072289,1.12771084 36.6939759,1.04096386 C37.0409639,0.780722892 37.2144578,0.780722892 37.4746988,1.04096386 C37.6481928,1.21445783 37.8216867,1.30120482 37.9084337,1.4746988 C38.0819277,1.4746988 38.1686747,1.56144578 38.1686747,1.73493976 Z" id="Path"></path>
                <path d="M71.1325301,2.68915663 C71.2192771,2.68915663 71.3060241,2.77590361 71.3927711,2.77590361 C71.5662651,2.94939759 71.739759,3.03614458 71.913253,3.20963855 C72.086747,3.38313253 72.086747,3.55662651 71.913253,3.73012048 C71.739759,3.90361446 71.653012,4.07710843 71.4795181,4.16385542 C71.3060241,4.3373494 71.1325301,4.3373494 70.9590361,4.16385542 C70.7855422,3.99036145 70.5253012,3.73012048 70.3518072,3.55662651 C70.2650602,3.46987952 70.2650602,3.38313253 70.2650602,3.29638554 C70.2650602,3.03614458 70.7855422,2.68915663 71.1325301,2.68915663 Z" id="Path"></path>
                <path d="M60.5493976,1.64819277 C60.3759036,1.99518072 60.2024096,2.25542169 60.0289157,2.60240964 C59.9421687,2.77590361 59.5951807,2.68915663 59.3349398,2.42891566 C59.1614458,2.25542169 59.2481928,2.08192771 59.3349398,1.90843373 C59.4216867,1.73493976 59.5951807,1.56144578 59.6819277,1.30120482 C59.8554217,1.04096386 60.0289157,1.12771084 60.2024096,1.21445783 C60.2891566,1.38795181 60.4626506,1.38795181 60.5493976,1.64819277 C60.4626506,1.64819277 60.5493976,1.64819277 60.5493976,1.64819277 Z" id="Path"></path>
                <path d="M64.1060241,2.68915663 C63.9325301,2.60240964 63.7590361,2.51566265 63.5855422,2.34216867 C63.4987952,2.25542169 63.4987952,2.1686747 63.5855422,2.08192771 C63.6722892,1.82168675 63.8457831,1.64819277 63.9325301,1.4746988 C64.0192771,1.38795181 64.1927711,1.30120482 64.2795181,1.30120482 C64.886747,1.38795181 64.973494,1.56144578 64.713253,2.08192771 C64.626506,2.1686747 64.626506,2.34216867 64.539759,2.42891566 C64.3662651,2.51566265 64.2795181,2.60240964 64.1060241,2.68915663 Z" id="Path"></path>
                <path d="M67.4891566,1.12771084 C67.5759036,1.12771084 67.5759036,1.12771084 67.5759036,1.12771084 C68.0096386,1.21445783 68.0963855,1.38795181 67.8361446,1.73493976 C67.7493976,1.90843373 67.6626506,2.08192771 67.4891566,2.25542169 C67.3156627,2.51566265 67.0554217,2.42891566 66.7951807,2.25542169 C66.6216867,2.1686747 66.6216867,1.99518072 66.7951807,1.73493976 C66.8819277,1.56144578 66.9686747,1.4746988 67.0554217,1.30120482 C67.2289157,1.30120482 67.3156627,1.21445783 67.4891566,1.12771084 C67.4024096,1.12771084 67.4891566,1.12771084 67.4891566,1.12771084 Z" id="Path"></path>
                <path d="M62.9783133,1.12771084 C63.0650602,1.12771084 63.2385542,1.21445783 63.3253012,1.21445783 C63.4987952,1.30120482 63.5855422,1.38795181 63.4987952,1.4746988 C63.4120482,1.73493976 63.2385542,1.99518072 63.0650602,2.25542169 C62.8915663,2.42891566 62.6313253,2.42891566 62.3710843,2.1686747 C62.1975904,2.08192771 62.1975904,1.90843373 62.3710843,1.64819277 C62.4578313,1.56144578 62.5445783,1.38795181 62.6313253,1.21445783 C62.7180723,1.30120482 62.8048193,1.12771084 62.9783133,1.12771084 Z" id="Path"></path>
            </g>
        </g>
    </g>
</svg>