<?xml version="1.0" encoding="UTF-8"?>
<svg width="183px" height="133px" viewBox="0 0 183 133" version="1.1" xmlns="http://www.w3.org/2000/svg" xmlns:xlink="http://www.w3.org/1999/xlink">
    <title>Cascader</title>
    <g id="Page-1" stroke="none" stroke-width="1" fill="none" fill-rule="evenodd">
        <g id="Cascader" transform="translate(1.000000, 1.000000)">
            <g id="编组-60">
                <g id="Rectangle-26-Copy-35">
                    <g id="path-1-link" transform="translate(1.000000, 1.000000)" fill="#FFFFFF" fill-rule="nonzero">
                        <path d="M0,1.13306225 C0,0.507289251 0.504204687,0 1.14131435,0 L138.103969,0 C138.734299,0 139.245283,0.503355692 139.245283,1.13306225 L139.245283,16.9801453 C139.245283,17.6059183 138.741078,18.1132075 138.103969,18.1132075 L1.14131435,18.1132075 C0.51098384,18.1132075 0,17.6098519 0,16.9801453 L0,1.13306225 Z" id="path-1"></path>
                    </g>
                    <path d="M139.103969,0.433962264 L2.14131435,0.433962264 C1.66641966,0.433962264 1.24163062,0.623712225 0.934598706,0.928524192 C0.62452681,1.23635416 0.433962264,1.66224871 0.433962264,2.13306225 L0.433962264,17.9801453 C0.433962264,18.452082 0.625351333,18.876621 0.934518888,19.1835532 C1.24310777,19.4899109 1.66963999,19.6792453 2.14131435,19.6792453 L139.103969,19.6792453 C139.578863,19.6792453 140.003652,19.4894953 140.310684,19.1846834 C140.620756,18.8768534 140.811321,18.4509588 140.811321,17.9801453 L140.811321,2.13306225 C140.811321,1.66112552 140.619932,1.23658654 140.310764,0.929654369 C140.002175,0.623296692 139.575643,0.433962264 139.103969,0.433962264 Z" id="Path" stroke="#BAE7FF" stroke-width="1.13207547"></path>
                    <path d="M139.103969,1.28301887 L2.14131435,1.28301887 C1.90220731,1.28301887 1.6876206,1.37736124 1.53279012,1.53107224 C1.377826,1.68491592 1.28301887,1.89788415 1.28301887,2.13306225 L1.28301887,17.9801453 C1.28301887,18.215717 1.37834338,18.4277543 1.5327103,18.5810051 C1.68833605,18.7355056 1.90366307,18.8301887 2.14131435,18.8301887 L139.103969,18.8301887 C139.343076,18.8301887 139.557662,18.7358463 139.712493,18.5821353 C139.867457,18.4282916 139.962264,18.2153234 139.962264,17.9801453 L139.962264,2.13306225 C139.962264,1.89749055 139.86694,1.68545321 139.712573,1.53220241 C139.556947,1.3777019 139.34162,1.28301887 139.103969,1.28301887 Z" id="Path" stroke="#40A9FF" stroke-width="0.566037736"></path>
                </g>
                <text id="||||||||||||||||||||||||||||||||||||" fill-opacity="0.25" fill="#000000" fill-rule="nonzero" font-family="PingFangSC-Regular, PingFang SC" font-size="7.9245283" font-weight="normal">
                    <tspan x="7.79245283" y="11.8301887">||||||||||||||||||||||||||||||||||||</tspan>
                </text>
                <g id="1.通用/2.Icon图标/Line/Down" transform="translate(129.396226, 9.584906) scale(-1, 1) rotate(-180.000000) translate(-129.396226, -9.584906) translate(124.396226, 4.584906)" fill="#000000" fill-rule="nonzero">
                    <g id="up" opacity="0">
                        <rect id="矩形" x="0" y="0" width="9.05660377" height="9.05660377"></rect>
                    </g>
                    <path d="M7.78313088,2.26415094 L7.11980541,2.26415094 C7.07469928,2.26415094 7.03224645,2.28626179 7.00571343,2.32252358 L4.49303655,5.78596698 L1.98035966,2.32252358 C1.95382664,2.28626179 1.91137381,2.26415094 1.86626768,2.26415094 L1.20294221,2.26415094 C1.145454,2.26415094 1.11184551,2.32959906 1.145454,2.37647406 L4.26396815,6.67570755 C4.3771757,6.83136792 4.60889739,6.83136792 4.72122051,6.67570755 L7.83973466,2.37647406 C7.87422758,2.32959906 7.84061909,2.26415094 7.78313088,2.26415094 Z" id="路径" fill-opacity="0.25"></path>
                </g>
            </g>
            <g id="简易时间选择样式-:-" transform="translate(4.000000, 39.000000)" fill="#999999" fill-rule="nonzero" font-size="6.79245283" font-weight="normal">
                <g id="简易时间选择样式" font-family="PingFangSC-Regular, PingFang SC">
                    <text>
                        <tspan x="0.96226415" y="7.490566">简易时间选择样式</tspan>
                    </text>
                </g>
                <g id=":" transform="translate(55.000000, 1.000000)" font-family="Helvetica">
                    <text>
                        <tspan x="0.3018868" y="6.490566">:</tspan>
                    </text>
                </g>
            </g>
            <g id="Rectangle-3-Copy-23" transform="translate(1.000000, 21.000000)" fill-rule="nonzero">
                <g id="path-2-link" fill="#000000">
                    <rect id="path-2" x="0" y="0.3773585" width="180" height="108.679245" rx="1.13207547"></rect>
                </g>
                <g id="path-2-link" fill="#FFFFFF" stroke="#D7D7D7">
                    <rect id="path-2" x="-0.5" y="-0.1226415" width="181" height="109.679245" rx="1.13207547"></rect>
                </g>
            </g>
            <path d="M2,21.3773585 L61,21.3773585 L61,21.3773585 L61,39.490566 L1,39.490566 L1,22.3773585 C1,21.8250738 1.44771525,21.3773585 2,21.3773585 Z" id="Rectangle-3-Copy-19" fill-opacity="0.04" fill="#000000" fill-rule="nonzero"></path>
            <g id="1.通用/2.Icon图标/Line/Down" transform="translate(52.547170, 30.471698) scale(-1, 1) rotate(90.000000) translate(-52.547170, -30.471698) translate(48.547170, 26.471698)" fill="#000000" fill-rule="nonzero">
                <g id="up" opacity="0">
                    <rect id="矩形" x="0" y="0" width="7.9245283" height="7.9245283"></rect>
                </g>
                <path d="M6.81023952,1.98113208 L6.22982974,1.98113208 C6.19036187,1.98113208 6.15321564,2.00047907 6.12999925,2.03220814 L3.93140698,5.06272111 L1.7328147,2.03220814 C1.70959831,2.00047907 1.67245208,1.98113208 1.63298422,1.98113208 L1.05257443,1.98113208 C1.00227225,1.98113208 0.972864819,2.03839917 1.00227225,2.0794148 L3.73097213,5.8412441 C3.83002873,5.97744693 4.03278522,5.97744693 4.13106794,5.8412441 L6.85976783,2.0794148 C6.88994914,2.03839917 6.86054171,1.98113208 6.81023952,1.98113208 Z" id="路径" fill-opacity="0.25"></path>
            </g>
            <g id="1.通用/2.Icon图标/Line/Down" transform="translate(51.981132, 48.584906) scale(-1, 1) rotate(90.000000) translate(-51.981132, -48.584906) translate(47.981132, 44.584906)" fill="#000000" fill-rule="nonzero">
                <g id="up" opacity="0">
                    <rect id="矩形" x="0" y="0" width="7.9245283" height="7.9245283"></rect>
                </g>
                <path d="M6.81023952,1.98113208 L6.22982974,1.98113208 C6.19036187,1.98113208 6.15321564,2.00047907 6.12999925,2.03220814 L3.93140698,5.06272111 L1.7328147,2.03220814 C1.70959831,2.00047907 1.67245208,1.98113208 1.63298422,1.98113208 L1.05257443,1.98113208 C1.00227225,1.98113208 0.972864819,2.03839917 1.00227225,2.0794148 L3.73097213,5.8412441 C3.83002873,5.97744693 4.03278522,5.97744693 4.13106794,5.8412441 L6.85976783,2.0794148 C6.88994914,2.03839917 6.86054171,1.98113208 6.81023952,1.98113208 Z" id="路径" fill-opacity="0.25"></path>
            </g>
            <rect id="Rectangle-3-Copy-30" fill-opacity="0.04" fill="#000000" fill-rule="nonzero" x="61" y="21.3773585" width="60" height="18.1132075"></rect>
            <path d="M121,21.3773585 L180,21.3773585 C180.552285,21.3773585 181,21.8250738 181,22.3773585 L181,39.490566 L181,39.490566 L121,39.490566 L121,21.3773585 Z" id="Rectangle-3-Copy-30备份" fill="#E6F7FF" fill-rule="nonzero"></path>
            <polygon id="Rectangle-3-Copy-21" fill-opacity="0.09" fill="#000000" fill-rule="nonzero" points="60.4339623 21.3773585 61 21.3773585 61 130.056604 60.4339623 130.056604"></polygon>
            <polygon id="Rectangle-3-Copy-21备份" fill-opacity="0.09" fill="#000000" fill-rule="nonzero" points="120.433962 21.3773585 121 21.3773585 121 130.056604 120.433962 130.056604"></polygon>
            <g id="1.通用/2.Icon图标/Line/Down" transform="translate(112.547170, 30.471698) scale(-1, 1) rotate(90.000000) translate(-112.547170, -30.471698) translate(108.547170, 26.471698)" fill="#000000" fill-rule="nonzero">
                <g id="up" opacity="0">
                    <rect id="矩形" x="0" y="0" width="7.9245283" height="7.9245283"></rect>
                </g>
                <path d="M6.81023952,1.98113208 L6.22982974,1.98113208 C6.19036187,1.98113208 6.15321564,2.00047907 6.12999925,2.03220814 L3.93140698,5.06272111 L1.7328147,2.03220814 C1.70959831,2.00047907 1.67245208,1.98113208 1.63298422,1.98113208 L1.05257443,1.98113208 C1.00227225,1.98113208 0.972864819,2.03839917 1.00227225,2.0794148 L3.73097213,5.8412441 C3.83002873,5.97744693 4.03278522,5.97744693 4.13106794,5.8412441 L6.85976783,2.0794148 C6.88994914,2.03839917 6.86054171,1.98113208 6.81023952,1.98113208 Z" id="路径" fill-opacity="0.25"></path>
            </g>
            <g id="||||||||||||||||||" transform="translate(5.000000, 42.000000)" fill="#000000" fill-opacity="0.65" fill-rule="nonzero" font-family="PingFangSC-Regular, PingFang SC" font-size="7.9245283" font-weight="normal">
                <g id="Group">
                    <text id="||||||||||||||||||">
                        <tspan x="0.52830189" y="8.3207547">||||||||||||||||||</tspan>
                    </text>
                </g>
            </g>
            <g id="||||||||||||||||||" transform="translate(5.000000, 24.000000)" fill="#000000" fill-opacity="0.85" fill-rule="nonzero" font-family="PingFangSC-Regular, PingFang SC" font-size="7.9245283" font-weight="normal">
                <g id="Group">
                    <text id="||||||||||||||||||">
                        <tspan x="0.52830189" y="8.2075472">||||||||||||||||||</tspan>
                    </text>
                </g>
            </g>
            <g id="||||||||||||||||||" transform="translate(65.000000, 24.000000)" fill="#000000" fill-opacity="0.85" fill-rule="nonzero" font-family="PingFangSC-Regular, PingFang SC" font-size="7.9245283" font-weight="normal">
                <g id="Group">
                    <text id="||||||||||||||||||">
                        <tspan x="0.5283019" y="8.2075472">||||||||||||||||||</tspan>
                    </text>
                </g>
            </g>
            <g id="||||||||||||||||||" transform="translate(125.000000, 24.000000)" fill="#000000" fill-opacity="0.85" fill-rule="nonzero" font-family="PingFangSC-Regular, PingFang SC" font-size="7.9245283" font-weight="normal">
                <g id="Group">
                    <text id="||||||||||||||||||">
                        <tspan x="0.528302" y="8.2075472">||||||||||||||||||</tspan>
                    </text>
                </g>
            </g>
        </g>
    </g>
</svg>