<?xml version="1.0" encoding="UTF-8"?>
<svg width="155px" height="104px" viewBox="0 0 155 104" version="1.1" xmlns="http://www.w3.org/2000/svg" xmlns:xlink="http://www.w3.org/1999/xlink">
    <title>Dashboard</title>
    <g id="Page-1" stroke="none" stroke-width="1" fill="none" fill-rule="evenodd">
        <g id="Dashboard">
            <g id="Group-3">
                <g id="Group-7-Copy">
                    <rect id="Rectangle" stroke="#E1E1E1" fill="#FFFFFF" x="0.5" y="0.5" width="154" height="31" rx="2"></rect>
                    <g id="Group" transform="translate(56.049249, 20.800000)"></g>
                </g>
                <g id="Group-2" transform="translate(5.961538, 5.000000)">
                    <rect id="Rectangle" fill-opacity="0.535757212" fill="#F2F2F2" transform="translate(21.761050, 11.000000) scale(-1, 1) translate(-21.761050, -11.000000) " x="0" y="0" width="43.5220993" height="22" rx="2"></rect>
                    <ellipse id="Oval" fill="#74D2A3" cx="5.98428865" cy="6.05" rx="3.26415745" ry="3.3"></ellipse>
                    <rect id="Rectangle" fill="#E5E5E5" x="11.9685773" y="4.675" width="17.4088397" height="2.75" rx="1.375"></rect>
                    <rect id="Rectangle-Copy-11" fill="#E5E5E5" x="11.9685773" y="10.175" width="10.8805248" height="2.75" rx="1.375"></rect>
                    <rect id="Rectangle-Copy-12" fill="#E5E5E5" x="11.9685773" y="15.675" width="10.8805248" height="2.75" rx="1.375"></rect>
                </g>
                <g id="Group-2-Copy" transform="translate(54.647436, 5.000000)">
                    <rect id="Rectangle" fill-opacity="0.535757212" fill="#F2F2F2" transform="translate(21.761050, 11.000000) scale(-1, 1) translate(-21.761050, -11.000000) " x="0" y="0" width="43.5220993" height="22" rx="2"></rect>
                    <ellipse id="Oval" fill="#F5A700" opacity="0.603980655" cx="5.98428865" cy="6.05" rx="3.26415745" ry="3.3"></ellipse>
                    <rect id="Rectangle" fill="#E5E5E5" x="11.9685773" y="4.675" width="17.4088397" height="2.75" rx="1.375"></rect>
                    <rect id="Rectangle-Copy-11" fill="#E5E5E5" x="11.9685773" y="10.175" width="10.8805248" height="2.75" rx="1.375"></rect>
                    <rect id="Rectangle-Copy-12" fill="#E5E5E5" x="11.9685773" y="15.675" width="10.8805248" height="2.75" rx="1.375"></rect>
                </g>
                <g id="Group-2-Copy-2" transform="translate(104.326923, 5.000000)">
                    <rect id="Rectangle" fill-opacity="0.535757212" fill="#F2F2F2" transform="translate(21.761050, 11.000000) scale(-1, 1) translate(-21.761050, -11.000000) " x="0" y="0" width="43.5220993" height="22" rx="2"></rect>
                    <ellipse id="Oval" fill="#2A58AE" opacity="0.300897507" cx="5.98428865" cy="6.05" rx="3.26415745" ry="3.3"></ellipse>
                    <rect id="Rectangle" fill="#E5E5E5" x="11.9685773" y="4.675" width="17.4088397" height="2.75" rx="1.375"></rect>
                    <rect id="Rectangle-Copy-11" fill="#E5E5E5" x="11.9685773" y="10.175" width="10.8805248" height="2.75" rx="1.375"></rect>
                    <rect id="Rectangle-Copy-12" fill="#E5E5E5" x="11.9685773" y="15.675" width="10.8805248" height="2.75" rx="1.375"></rect>
                </g>
            </g>
            <g id="Group-5" transform="translate(0.000000, 38.000000)">
                <rect id="Rectangle" stroke="#E1E1E1" fill="#FFFFFF" x="0.5" y="0.5" width="76" height="65" rx="2"></rect>
                <g id="Group-4" transform="translate(7.000000, 6.000000)">
                    <rect id="Rectangle" fill="#E5E5E5" x="0" y="0" width="16.4556962" height="16" rx="2"></rect>
                    <rect id="Rectangle-Copy-3" fill="#D0D2D5" x="22.8790921" y="1.8516129" width="18.2487997" height="2.64516129" rx="1.32258065"></rect>
                    <rect id="Rectangle-Copy-5" fill="#F5A700" opacity="0.3" x="22.8790921" y="12.4322581" width="28.8712353" height="2.86926523" rx="1.43463262"></rect>
                    <rect id="Rectangle-Copy-4" fill="#D0D2D5" x="22.8790921" y="7.14193548" width="10.8948058" height="2.64516129" rx="1.32258065"></rect>
                    <path d="M9.82900955,7.14193548 L13.6185072,12.1677419 L2.72370144,12.1677419 L4.85529387,8.8172043 L7.08047404,10.6534792 L9.82900955,7.14193548 Z M5.03884766,3.70322581 C5.77424705,3.70322581 6.26451331,4.17935484 6.26451331,4.89354839 C6.26451331,5.60774194 5.77424705,6.08387097 5.03884766,6.08387097 C4.30344828,6.08387097 3.81318202,5.60774194 3.81318202,4.89354839 C3.81318202,4.17935484 4.30344828,3.70322581 5.03884766,3.70322581 Z" id="Combined-Shape" fill="#FFFFFF" fill-rule="nonzero"></path>
                </g>
                <g id="Group-4-Copy" transform="translate(7.000000, 27.000000)">
                    <rect id="Rectangle" fill="#E5E5E5" x="0" y="0" width="16.4556962" height="16" rx="2"></rect>
                    <rect id="Rectangle-Copy-3" fill="#D0D2D5" x="22.8790921" y="1.8516129" width="18.2487997" height="2.64516129" rx="1.32258065"></rect>
                    <rect id="Rectangle-Copy-5" fill="#F5A700" opacity="0.3" x="22.8790921" y="12.4322581" width="28.8712353" height="2.86926523" rx="1.43463262"></rect>
                    <rect id="Rectangle-Copy-4" fill="#D0D2D5" x="22.8790921" y="7.14193548" width="10.8948058" height="2.64516129" rx="1.32258065"></rect>
                    <path d="M9.82900955,7.14193548 L13.6185072,12.1677419 L2.72370144,12.1677419 L4.85529387,8.8172043 L7.08047404,10.6534792 L9.82900955,7.14193548 Z M5.03884766,3.70322581 C5.77424705,3.70322581 6.26451331,4.17935484 6.26451331,4.89354839 C6.26451331,5.60774194 5.77424705,6.08387097 5.03884766,6.08387097 C4.30344828,6.08387097 3.81318202,5.60774194 3.81318202,4.89354839 C3.81318202,4.17935484 4.30344828,3.70322581 5.03884766,3.70322581 Z" id="Combined-Shape" fill="#FFFFFF" fill-rule="nonzero"></path>
                </g>
                <g id="Group-4-Copy-2" transform="translate(7.000000, 46.000000)">
                    <rect id="Rectangle" fill="#E5E5E5" x="0" y="0" width="16.4556962" height="16" rx="2"></rect>
                    <rect id="Rectangle-Copy-3" fill="#D0D2D5" x="22.8790921" y="1.8516129" width="18.2487997" height="2.64516129" rx="1.32258065"></rect>
                    <rect id="Rectangle-Copy-5" fill="#F5A700" opacity="0.3" x="22.8790921" y="12.4322581" width="28.8712353" height="2.86926523" rx="1.43463262"></rect>
                    <rect id="Rectangle-Copy-4" fill="#D0D2D5" x="22.8790921" y="7.14193548" width="10.8948058" height="2.64516129" rx="1.32258065"></rect>
                    <path d="M9.82900955,7.14193548 L13.6185072,12.1677419 L2.72370144,12.1677419 L4.85529387,8.8172043 L7.08047404,10.6534792 L9.82900955,7.14193548 Z M5.03884766,3.70322581 C5.77424705,3.70322581 6.26451331,4.17935484 6.26451331,4.89354839 C6.26451331,5.60774194 5.77424705,6.08387097 5.03884766,6.08387097 C4.30344828,6.08387097 3.81318202,5.60774194 3.81318202,4.89354839 C3.81318202,4.17935484 4.30344828,3.70322581 5.03884766,3.70322581 Z" id="Combined-Shape" fill="#FFFFFF" fill-rule="nonzero"></path>
                </g>
            </g>
            <g id="Group-5-Copy" transform="translate(84.000000, 38.000000)">
                <rect id="Rectangle" stroke="#E1E1E1" fill="#FFFFFF" x="0.5" y="0.5" width="70" height="65" rx="2"></rect>
                <path d="M19,36 C25.627417,36 31,41.372583 31,48 C31,54.627417 25.627417,60 19,60 C12.372583,60 7,54.627417 7,48 C7,41.372583 12.372583,36 19,36 Z M19,43 C16.2385763,43 14,45.2385763 14,48 C14,50.7614237 16.2385763,53 19,53 C21.7614237,53 24,50.7614237 24,48 C24,45.2385763 21.7614237,43 19,43 Z" id="Combined-Shape-Copy" fill="#F8F8F8"></path>
                <path d="M19,6 C25.627417,6 31,11.372583 31,18 C31,24.627417 25.627417,30 19,30 C12.372583,30 7,24.627417 7,18 C7,11.372583 12.372583,6 19,6 Z M19,13 C16.2385763,13 14,15.2385763 14,18 C14,20.7614237 16.2385763,23 19,23 C21.7614237,23 24,20.7614237 24,18 C24,15.2385763 21.7614237,13 19,13 Z" id="Combined-Shape-Copy-3" fill="#F8F8F8"></path>
                <path d="M43,28 C43.5522847,28 44,28.4477153 44,29 C44,29.5522847 43.5522847,30 43,30 C42.4477153,30 42,29.5522847 42,29 C42,28.4477153 42.4477153,28 43,28 Z M61,28 C61.5522847,28 62,28.4477153 62,29 C62,29.5522847 61.5522847,30 61,30 L48,30 C47.4477153,30 47,29.5522847 47,29 C47,28.4477153 47.4477153,28 48,28 L61,28 Z M43,21 C43.5522847,21 44,21.4477153 44,22 C44,22.5522847 43.5522847,23 43,23 C42.4477153,23 42,22.5522847 42,22 C42,21.4477153 42.4477153,21 43,21 Z M61,21 C61.5522847,21 62,21.4477153 62,22 C62,22.5522847 61.5522847,23 61,23 L48,23 C47.4477153,23 47,22.5522847 47,22 C47,21.4477153 47.4477153,21 48,21 L61,21 Z M43,14 C43.5522847,14 44,14.4477153 44,15 C44,15.5522847 43.5522847,16 43,16 C42.4477153,16 42,15.5522847 42,15 C42,14.4477153 42.4477153,14 43,14 Z M61,14 C61.5522847,14 62,14.4477153 62,15 C62,15.5522847 61.5522847,16 61,16 L48,16 C47.4477153,16 47,15.5522847 47,15 C47,14.4477153 47.4477153,14 48,14 L61,14 Z M43,7 C43.5522847,7 44,7.44771525 44,8 C44,8.55228475 43.5522847,9 43,9 C42.4477153,9 42,8.55228475 42,8 C42,7.44771525 42.4477153,7 43,7 Z M61,7 C61.5522847,7 62,7.44771525 62,8 C62,8.55228475 61.5522847,9 61,9 L48,9 C47.4477153,9 47,8.55228475 47,8 C47,7.44771525 47.4477153,7 48,7 L61,7 Z" id="Combined-Shape" fill="#E5E5E5"></path>
                <path d="M43,58 C43.5522847,58 44,58.4477153 44,59 C44,59.5522847 43.5522847,60 43,60 C42.4477153,60 42,59.5522847 42,59 C42,58.4477153 42.4477153,58 43,58 Z M61,58 C61.5522847,58 62,58.4477153 62,59 C62,59.5522847 61.5522847,60 61,60 L48,60 C47.4477153,60 47,59.5522847 47,59 C47,58.4477153 47.4477153,58 48,58 L61,58 Z M43,51 C43.5522847,51 44,51.4477153 44,52 C44,52.5522847 43.5522847,53 43,53 C42.4477153,53 42,52.5522847 42,52 C42,51.4477153 42.4477153,51 43,51 Z M61,51 C61.5522847,51 62,51.4477153 62,52 C62,52.5522847 61.5522847,53 61,53 L48,53 C47.4477153,53 47,52.5522847 47,52 C47,51.4477153 47.4477153,51 48,51 L61,51 Z M43,44 C43.5522847,44 44,44.4477153 44,45 C44,45.5522847 43.5522847,46 43,46 C42.4477153,46 42,45.5522847 42,45 C42,44.4477153 42.4477153,44 43,44 Z M61,44 C61.5522847,44 62,44.4477153 62,45 C62,45.5522847 61.5522847,46 61,46 L48,46 C47.4477153,46 47,45.5522847 47,45 C47,44.4477153 47.4477153,44 48,44 L61,44 Z M43,37 C43.5522847,37 44,37.4477153 44,38 C44,38.5522847 43.5522847,39 43,39 C42.4477153,39 42,38.5522847 42,38 C42,37.4477153 42.4477153,37 43,37 Z M61,37 C61.5522847,37 62,37.4477153 62,38 C62,38.5522847 61.5522847,39 61,39 L48,39 C47.4477153,39 47,38.5522847 47,38 C47,37.4477153 47.4477153,37 48,37 L61,37 Z" id="Combined-Shape-Copy-2" fill="#E5E5E5"></path>
                <path d="M18.4395163,36 L18.5389904,36.0008348 L18.5389904,42.8869565 C15.7920902,42.8869565 13.5652876,45.2228622 13.5652876,48.1043478 C13.5652876,50.9858335 15.7920902,53.3217391 18.5389904,53.3217391 C19.5963731,53.3217391 20.5766897,52.9756133 21.3825923,52.3854792 L25,57.8317771 C23.1426158,59.198112 20.8803377,60 18.4395163,60 C12.1216459,60 7,54.627417 7,48 C7,41.372583 12.1216459,36 18.4395163,36 Z" id="Path-Copy" fill="#BAC7E1"></path>
                <path d="M18.4395163,6 L18.5389904,6.00083478 L18.5389904,12.8869565 C15.7920902,12.8869565 13.5652876,15.2228622 13.5652876,18.1043478 C13.5652876,20.9858335 15.7920902,23.3217391 18.5389904,23.3217391 C19.5963731,23.3217391 20.5766897,22.9756133 21.3825923,22.3854792 L25,27.8317771 C23.1426158,29.198112 20.8803377,30 18.4395163,30 C12.1216459,30 7,24.627417 7,18 C7,11.372583 12.1216459,6 18.4395163,6 Z" id="Path-Copy-2" fill="#BAC7E1"></path>
            </g>
        </g>
    </g>
</svg>