<svg width="161" height="117" xmlns="http://www.w3.org/2000/svg"><g transform="translate(.074)" fill="none" fill-rule="evenodd"><rect fill="#EEE" width="160.926" height="117" rx="2"/><path fill="#FFF" d="M82.853 1h77v115h-77z"/><path stroke="#EEE" stroke-linecap="square" d="M83.416 19.5h76.025"/><rect fill-opacity=".06" fill="#000" x="87.926" y="27" width="32" height="8" rx="1"/><rect fill-opacity=".06" fill="#000" x="123.926" y="69" width="32" height="8" rx="1"/><rect fill-opacity=".06" fill="#000" x="87.926" y="55" width="68" height="8" rx="1"/><rect fill-opacity=".06" fill="#000" x="87.926" y="69" width="32" height="8" rx="1"/><rect fill-opacity=".06" fill="#000" x="87.926" y="83" width="32" height="8" rx="1"/><rect fill-opacity=".06" fill="#000" x="87.926" y="41" width="68" height="8" rx="1"/><text font-family="PingFangSC-Regular, PingFang SC" font-size="6" letter-spacing="-4.286" fill="#000" fill-opacity=".45">
                <tspan x="96" y="12">｜｜｜｜｜｜｜｜｜｜｜</tspan>
            </text><path d="m91.116 9.925 1.668-1.667a.187.187 0 0 0-.265-.266L90.85 9.66l-1.667-1.668a.188.188 0 0 0-.265.266l1.667 1.667-1.667 1.667a.187.187 0 0 0 .265.266l1.667-1.668 1.668 1.668a.187.187 0 0 0 .265 0 .188.188 0 0 0 0-.266l-1.668-1.667Z" fill="#8C8C8C" fill-rule="nonzero"/><rect fill="#1791FF" x="139.926" y="6" width="16" height="8" rx="2"/></g></svg>