<?xml version="1.0" encoding="UTF-8"?>
<svg width="120px" height="90px" viewBox="0 0 120 90" version="1.1" xmlns="http://www.w3.org/2000/svg" xmlns:xlink="http://www.w3.org/1999/xlink">
    <title>image</title>
    <g id="Page-1" stroke="none" stroke-width="1" fill="none" fill-rule="evenodd">
        <g id="image" transform="translate(1.000000, 1.000000)">
            <g id="编组" fill-rule="nonzero">
                <rect id="d" fill-opacity="0.6" fill="#67BBFE" x="0" y="0" width="53" height="38"></rect>
                <polygon id="路径" fill="#308FFF" points="0 38 25.3843527 16.9643985 33.1139246 26.2505608 53 5.97142857 53 37.9804502"></polygon>
                <ellipse id="椭圆形" fill="#308FFF" cx="11.4382653" cy="11.4814286" rx="4.1372449" ry="4.15285714"></ellipse>
            </g>
            <g id="编组备份-7" transform="translate(0.000000, 50.000000)">
                <rect id="d" stroke-opacity="0.15" stroke="#000000" x="0" y="0" width="53" height="38"></rect>
                <polygon id="路径" fill-opacity="0.15" fill="#000000" fill-rule="nonzero" points="0 38 25.3843527 16.9643985 33.1139246 26.2505608 53 5.97142857 53 37.9804502"></polygon>
                <ellipse id="椭圆形" fill-opacity="0.15" fill="#000000" fill-rule="nonzero" cx="11.4382653" cy="11.4814286" rx="4.1372449" ry="4.15285714"></ellipse>
            </g>
            <g id="编组备份-5" transform="translate(65.000000, 0.000000)">
                <rect id="d" stroke-opacity="0.15" stroke="#000000" x="0" y="0" width="53" height="38"></rect>
                <polygon id="路径" fill-opacity="0.15" fill="#000000" fill-rule="nonzero" points="0 38 25.3843527 16.9643985 33.1139246 26.2505608 53 5.97142857 53 37.9804502"></polygon>
                <ellipse id="椭圆形" fill-opacity="0.15" fill="#000000" fill-rule="nonzero" cx="11.4382653" cy="11.4814286" rx="4.1372449" ry="4.15285714"></ellipse>
            </g>
            <g id="编组备份-8" transform="translate(65.000000, 50.000000)">
                <rect id="d" stroke-opacity="0.15" stroke="#000000" x="0" y="0" width="53" height="38"></rect>
                <polygon id="路径" fill-opacity="0.15" fill="#000000" fill-rule="nonzero" points="0 38 25.3843527 16.9643985 33.1139246 26.2505608 53 5.97142857 53 37.9804502"></polygon>
                <ellipse id="椭圆形" fill-opacity="0.15" fill="#000000" fill-rule="nonzero" cx="11.4382653" cy="11.4814286" rx="4.1372449" ry="4.15285714"></ellipse>
            </g>
        </g>
    </g>
</svg>