<?xml version="1.0" encoding="UTF-8"?>
<svg width="50px" height="47px" viewBox="0 0 50 47" version="1.1" xmlns="http://www.w3.org/2000/svg" xmlns:xlink="http://www.w3.org/1999/xlink">
    <title>Logo</title>
    <g id="Page-1" stroke="none" stroke-width="1" fill="none" fill-rule="evenodd">
        <g id="logo" transform="translate(-47.000000, -21.000000)" fill-rule="nonzero">
            <g id="Group" transform="translate(48.000000, 19.000000)">
                <g id="logo" transform="translate(-0.500000, 2.000000)">
                    <path d="M28.2258065,5.16129032 L36.2903226,9.67741935 C36.4516129,9.67741935 36.6129032,9.83870968 36.6129032,9.83870968 C36.9354839,9.83870968 37.0967742,9.67741935 37.2580645,9.35483871 L38.3870968,7.41935484 C38.5483871,7.25806452 38.5483871,6.93548387 38.3870968,6.77419355 C38.3870968,6.61290323 38.2258065,6.4516129 38.0645161,6.29032258 L30.1612903,1.77419355 C29.8387097,1.61290323 29.3548387,1.61290323 29.0322581,2.09677419 L27.9032258,4.03225806 C27.7419355,4.35483871 27.9032258,4.83870968 28.2258065,5.16129032 Z" id="Path" fill="#004477"></path>
                    <path d="M11.9354839,13.7096774 C12.9032258,13.7096774 13.7096774,13.8709677 14.3548387,14.1935484 C14.516129,14.3548387 14.6774194,14.516129 14.8387097,14.516129 C17.5806452,16.2903226 15.9677419,21.7741935 15.9677419,21.7741935 C17.5806452,18.7096774 20.6451613,16.1290323 21.7741935,14.8387097 C22.9032258,13.7096774 23.7096774,13.0645161 24.1935484,13.0645161 C24.3548387,13.0645161 24.6774194,13.2258065 25.3225806,13.3870968 C25.8064516,13.5483871 26.4516129,13.8709677 26.7741935,14.1935484 C27.0967742,14.3548387 27.4193548,14.6774194 27.4193548,14.8387097 C27.5806452,15 27.5806452,15.3225806 27.5806452,15.6451613 C27.5806452,16.1290323 27.2580645,17.4193548 26.4516129,19.516129 L26.2903226,20.1612903 C28.3870968,17.7419355 29.8387097,15.9677419 30.9677419,14.8387097 C32.0967742,13.7096774 32.7419355,13.2258065 33.2258065,13.2258065 C33.3870968,13.2258065 33.8709677,13.3870968 34.3548387,13.5483871 C34.8387097,13.7096774 35.3225806,14.0322581 35.8064516,14.3548387 C36.1290323,14.516129 36.2903226,14.6774194 36.2903226,15 C36.4516129,15.1612903 36.4516129,15.483871 36.4516129,15.9677419 C36.4516129,16.6129032 36.2903226,17.5806452 35.9677419,19.3548387 C35.6451613,20.9677419 35.1612903,22.7419355 34.6774194,24.6774194 C34.516129,25.3225806 34.3548387,25.9677419 34.0322581,26.7741935 L34.0322581,26.7741935 L34.0322581,26.7741935 C34.0322581,27.0967742 33.8709677,27.2580645 33.7096774,27.5806452 C33.5483871,28.2258065 33.5483871,29.0322581 33.8709677,29.3548387 C34.516129,29.8387097 36.2903226,31.6129032 40.8064516,26.7741935 C43.8709677,23.5483871 45.3225806,21.9354839 45.9677419,21.2903226 C46.2903226,19.6774194 45.6451613,17.9032258 44.1935484,16.9354839 L39.3548387,14.1935484 L40.9677419,11.1290323 C41.1290323,10.9677419 41.1290323,10.8064516 41.1290323,10.6451613 L40.9677419,8.06451613 C40.9677419,7.74193548 40.6451613,7.41935484 40.3225806,7.41935484 C40,7.41935484 39.6774194,7.58064516 39.516129,7.74193548 L36.7741935,12.5806452 L25.8064516,6.29032258 L28.2258065,1.77419355 C28.3870968,1.4516129 28.3870968,1.12903226 28.0645161,0.806451613 C27.9032258,0.483870968 27.4193548,0.483870968 27.0967742,0.64516129 L24.6774194,1.61290323 C24.516129,1.61290323 24.3548387,1.77419355 24.1935484,1.93548387 L23.0645161,4.83870968 L19.1935484,2.58064516 C17.4193548,1.4516129 15,2.09677419 13.8709677,4.03225806 L8.70967742,12.7419355 L6.61290323,16.4516129 C9.51612903,13.5483871 11.9354839,13.7096774 11.9354839,13.7096774 Z" id="Path" fill="#004477"></path>
                    <path d="M26.7741935,36.7741935 C23.2258065,38.0645161 19.8387097,39.516129 17.7419355,40.3225806 L27.5806452,45.9677419 C28.7096774,46.6129032 30,46.6129032 31.1290323,46.1290323 C31.7741935,45.8064516 32.2580645,45.483871 32.5806452,44.8387097 L35.1612903,40.3225806 L36.1290323,38.7096774 C35.1612903,37.9032258 31.4516129,35 26.7741935,36.7741935 Z" id="Path" fill="#F5A700"></path>
                    <path d="M42.4193548,28.0645161 C42.4193548,28.0645161 42.4193548,28.0645161 42.4193548,28.0645161 L42.4193548,28.0645161 L42.4193548,28.0645161 C42.4193548,28.2258065 42.4193548,28.2258065 42.4193548,28.0645161 L42.4193548,28.0645161 C39.6774194,30.9677419 36.2903226,33.8709677 32.9032258,34.8387097 L32.9032258,34.8387097 C32.4193548,35 31.9354839,35.1612903 31.2903226,35.1612903 C30.3225806,35.1612903 29.6774194,34.8387097 28.8709677,34.0322581 C28.2258065,33.2258065 27.9032258,32.4193548 27.9032258,31.2903226 C27.9032258,30 28.2258065,28.2258065 28.8709677,25.9677419 C29.516129,23.5483871 30.483871,20.9677419 31.7741935,18.0645161 C29.6774194,20 27.9032258,21.7741935 26.6129032,23.7096774 C25.3225806,25.6451613 24.3548387,27.9032258 23.5483871,30.483871 C23.2258065,31.4516129 23.0645161,32.4193548 22.7419355,33.5483871 C22.4193548,34.6774194 22.2580645,35.1612903 22.0967742,35.1612903 C21.9354839,35.1612903 21.6129032,35 21.2903226,34.8387097 C20.8064516,34.6774194 20.483871,34.3548387 19.8387097,34.0322581 C19.3548387,33.7096774 18.8709677,33.3870968 18.7096774,33.2258065 C18.5483871,33.0645161 18.3870968,32.7419355 18.3870968,32.5806452 C18.3870968,31.4516129 18.8709677,29.516129 19.6774194,26.6129032 C20.483871,23.7096774 21.6129032,20.6451613 22.9032258,17.5806452 C20.8064516,19.516129 19.1935484,21.4516129 17.9032258,23.3870968 C16.6129032,25.3225806 15.6451613,27.5806452 15,29.8387097 C14.6774194,30.9677419 14.516129,32.0967742 14.1935484,33.2258065 C14.0322581,34.516129 13.8709677,35 13.5483871,35 C13.3870968,35 13.0645161,34.8387097 12.4193548,34.6774194 C11.9354839,34.516129 11.4516129,34.1935484 10.8064516,33.8709677 C10.483871,33.7096774 10.1612903,33.3870968 10,33.2258065 C9.83870968,32.9032258 9.83870968,32.5806452 9.83870968,32.0967742 C9.83870968,31.1290323 9.83870968,30.1612903 10,29.0322581 L10,29.0322581 C10.8064516,24.3548387 12.5806452,22.0967742 12.9032258,20 C13.2258065,17.9032258 12.0967742,16.9354839 12.0967742,16.9354839 L12.0967742,16.9354839 C11.2903226,16.1290323 9.67741935,15.6451613 6.29032258,17.4193548 C4.67741935,18.3870968 4.35483871,19.1935484 3.87096774,19.516129 L3.22580645,22.4193548 L3.22580645,22.4193548 L1.4516129,25.483871 C1.4516129,25.6451613 1.29032258,25.6451613 1.29032258,25.8064516 C1.12903226,26.2903226 0.806451613,26.6129032 0.64516129,27.0967742 C0.483870968,27.4193548 0.483870968,27.7419355 0.483870968,28.0645161 C0.483870968,28.2258065 0.483870968,28.3870968 0.483870968,28.5483871 C0.64516129,29.8387097 1.29032258,30.9677419 2.41935484,31.6129032 L17.7419355,40.3225806 C19.8387097,39.516129 23.2258065,38.2258065 26.7741935,36.7741935 C31.4516129,35 35.1612903,37.9032258 36.2903226,38.7096774 L36.6129032,38.2258065 L36.6129032,38.2258065 L36.6129032,38.2258065 L38.5483871,35 L39.6774194,33.3870968 C39.6774194,33.3870968 43.7096774,29.8387097 46.6129032,24.8387097 C47.2580645,23.5483871 48.0645161,22.2580645 49.0322581,20.6451613 L49.0322581,19.1935484 C48.8709677,19.1935484 46.2903226,24.1935484 42.4193548,28.0645161 Z" id="Path" fill="#004477"></path>
                </g>
            </g>
        </g>
    </g>
</svg>