<?xml version="1.0" encoding="UTF-8"?>
<svg width="156px" height="105px" viewBox="0 0 156 105" version="1.1" xmlns="http://www.w3.org/2000/svg" xmlns:xlink="http://www.w3.org/1999/xlink">
    <title>Page</title>
    <g id="Page-1" stroke="none" stroke-width="1" fill="none" fill-rule="evenodd">
        <g id="Page">
            <rect id="矩形" stroke="#E1E1E1" fill="#FFFFFF" fill-rule="nonzero" x="0.5" y="0.5" width="155" height="104" rx="2"></rect>
            <path d="M1,88 L156,88 L156,102 C156,103.104569 155.104569,104 154,104 L3,104 C1.8954305,104 1,103.104569 1,102 L1,88 L1,88 Z" id="Rectangle" fill-opacity="0.535757212" fill="#F2F2F2" transform="translate(78.500000, 96.000000) scale(-1, 1) translate(-78.500000, -96.000000) "></path>
            <rect id="矩形备份-9" fill-opacity="0.06" fill="#000000" fill-rule="nonzero" x="58" y="92" width="18" height="8" rx="2"></rect>
            <rect id="矩形备份-11" fill="#1791FF" fill-rule="nonzero" x="81" y="92" width="18" height="8" rx="2"></rect>
            <g id="编组-5" transform="translate(16.000000, 25.000000)" fill="#000000" fill-opacity="0.06" fill-rule="nonzero">
                <rect id="矩形" x="0" y="0" width="32" height="8" rx="2"></rect>
                <rect id="矩形备份-8" x="0" y="28" width="104" height="8" rx="2"></rect>
                <rect id="矩形备份-5" x="36" y="0" width="32" height="8" rx="2"></rect>
                <rect id="矩形备份-10" x="72" y="42" width="32" height="8" rx="2"></rect>
                <rect id="矩形备份-7" x="0" y="42" width="68" height="8" rx="2"></rect>
                <rect id="矩形备份-4" x="0" y="14" width="68" height="8" rx="2"></rect>
            </g>
            <g id="｜｜｜｜｜｜｜｜｜｜｜｜" transform="translate(17.000000, 10.000000)" fill="#000000" fill-opacity="0.3" fill-rule="nonzero" font-family="PingFangSC-Regular, PingFang SC" font-size="7" font-weight="normal">
                <text id="||||||||||||||||||||">
                    <tspan x="0" y="7">|||||||||||||||||||||||||||||||||||</tspan>
                </text>
            </g>
        </g>
    </g>
</svg>