<?xml version="1.0" encoding="UTF-8"?>
<svg width="420px" height="100px" viewBox="0 0 420 100" version="1.1" xmlns="http://www.w3.org/2000/svg" xmlns:xlink="http://www.w3.org/1999/xlink">
    <title>全選</title>
    <g id="XXXGuideline" stroke="none" stroke-width="1" fill="none" fill-rule="evenodd">
        <g id="Group-5" transform="translate(-20.000000, -438.000000)">
            <g id="全選" transform="translate(20.000000, 438.000000)">
                <g id="Radio/Default/Normal" transform="translate(20.000000, 20.000000)">
                    <text id="Text" font-family="PingFangTC-Regular, PingFang TC" font-size="14" font-weight="normal" line-spacing="22" fill="#545454">
                        <tspan x="24" y="14">全選</tspan>
                    </text>
                    <g id="Combined-Shape" transform="translate(0.000000, 2.000000)" fill="#004477">
                        <path d="M14.0059397,0 C15.1072288,0 16,0.894513756 16,1.99406028 L16,14.0059397 C16,15.1072288 15.1054862,16 14.0059397,16 L1.99406028,16 C0.892771196,16 0,15.1054862 0,14.0059397 L0,1.99406028 C0,0.892771196 0.894513756,0 1.99406028,0 L14.0059397,0 Z M12.7945604,4 L11.5920744,4 C11.327989,4 11.0818511,4.12579605 10.928015,4.3346175 L10.928015,4.3346175 L6.8975075,9.81932542 L5.07198505,7.33359541 C4.91814889,7.12225804 4.66944709,6.99897791 4.40792562,6.99897791 L4.40792562,6.99897791 L3.20543961,6.99897791 C3.03878377,6.99897791 2.9413542,7.18515607 3.03878377,7.31849988 L3.03878377,7.31849988 L6.23601201,11.6660115 C6.56163188,12.1113295 7.23594706,12.1113295 7.56156694,11.6660115 L7.56156694,11.6660115 L12.9612162,4.31952197 C13.0586458,4.18617816 12.9612162,4 12.7945604,4 L12.7945604,4 Z"></path>
                    </g>
                </g>
                <g id="Radio/Default/Normal-Copy-7" transform="translate(20.000000, 62.000000)">
                    <text id="Text" font-family="PingFangTC-Regular, PingFang TC" font-size="14" font-weight="normal" line-spacing="22" fill="#545454">
                        <tspan x="24" y="14">全選</tspan>
                    </text>
                    <g id="Group" transform="translate(0.000000, 2.000000)">
                        <rect id="Rectangle-271" stroke="#CCCCCC" fill="#FFFFFF" x="0.5" y="0.5" width="15" height="15" rx="2"></rect>
                        <path d="M3,4.24628767 C3,3.557982 3.56629539,3 4.24628767,3 L11.7537123,3 C12.442018,3 13,3.56629539 13,4.24628767 L13,11.7537123 C13,12.442018 12.4337046,13 11.7537123,13 L4.24628767,13 C3.557982,13 3,12.4337046 3,11.7537123 L3,4.24628767 Z" id="Rectangle-271-Copy-2" fill="#004477"></path>
                    </g>
                </g>
                <g id="Radio/Selected/Normal" transform="translate(102.000000, 20.000000)">
                    <text id="Text" font-family="PingFangTC-Regular, PingFang TC" font-size="14" font-weight="normal" line-spacing="22" fill="#545454">
                        <tspan x="24" y="14">選項一</tspan>
                    </text>
                    <g id="Combined-Shape" transform="translate(0.000000, 2.000000)" fill="#004477">
                        <path d="M14.0059397,0 C15.1072288,0 16,0.894513756 16,1.99406028 L16,14.0059397 C16,15.1072288 15.1054862,16 14.0059397,16 L1.99406028,16 C0.892771196,16 0,15.1054862 0,14.0059397 L0,1.99406028 C0,0.892771196 0.894513756,0 1.99406028,0 L14.0059397,0 Z M12.7945604,4 L11.5920744,4 C11.327989,4 11.0818511,4.12579605 10.928015,4.3346175 L10.928015,4.3346175 L6.8975075,9.81932542 L5.07198505,7.33359541 C4.91814889,7.12225804 4.66944709,6.99897791 4.40792562,6.99897791 L4.40792562,6.99897791 L3.20543961,6.99897791 C3.03878377,6.99897791 2.9413542,7.18515607 3.03878377,7.31849988 L3.03878377,7.31849988 L6.23601201,11.6660115 C6.56163188,12.1113295 7.23594706,12.1113295 7.56156694,11.6660115 L7.56156694,11.6660115 L12.9612162,4.31952197 C13.0586458,4.18617816 12.9612162,4 12.7945604,4 L12.7945604,4 Z"></path>
                    </g>
                </g>
                <rect id="Rectangle" x="0" y="0" width="420" height="100"></rect>
                <g id="Radio/Selected/Normal" transform="translate(102.000000, 62.000000)">
                    <text id="Text" font-family="PingFangTC-Regular, PingFang TC" font-size="14" font-weight="normal" line-spacing="22" fill="#545454">
                        <tspan x="24" y="14">選項一</tspan>
                    </text>
                    <g id="Combined-Shape" transform="translate(0.000000, 2.000000)" fill="#004477">
                        <path d="M14.0059397,0 C15.1072288,0 16,0.894513756 16,1.99406028 L16,14.0059397 C16,15.1072288 15.1054862,16 14.0059397,16 L1.99406028,16 C0.892771196,16 0,15.1054862 0,14.0059397 L0,1.99406028 C0,0.892771196 0.894513756,0 1.99406028,0 L14.0059397,0 Z M12.7945604,4 L11.5920744,4 C11.327989,4 11.0818511,4.12579605 10.928015,4.3346175 L10.928015,4.3346175 L6.8975075,9.81932542 L5.07198505,7.33359541 C4.91814889,7.12225804 4.66944709,6.99897791 4.40792562,6.99897791 L4.40792562,6.99897791 L3.20543961,6.99897791 C3.03878377,6.99897791 2.9413542,7.18515607 3.03878377,7.31849988 L3.03878377,7.31849988 L6.23601201,11.6660115 C6.56163188,12.1113295 7.23594706,12.1113295 7.56156694,11.6660115 L7.56156694,11.6660115 L12.9612162,4.31952197 C13.0586458,4.18617816 12.9612162,4 12.7945604,4 L12.7945604,4 Z"></path>
                    </g>
                </g>
                <g id="Radio/Selected/Normal-Copy-2" transform="translate(198.000000, 20.000000)">
                    <text id="Text" font-family="PingFangTC-Regular, PingFang TC" font-size="14" font-weight="normal" line-spacing="22" fill="#545454">
                        <tspan x="24" y="14">選項二</tspan>
                    </text>
                    <g id="Combined-Shape" transform="translate(0.000000, 2.000000)" fill="#004477">
                        <path d="M14.0059397,0 C15.1072288,0 16,0.894513756 16,1.99406028 L16,14.0059397 C16,15.1072288 15.1054862,16 14.0059397,16 L1.99406028,16 C0.892771196,16 0,15.1054862 0,14.0059397 L0,1.99406028 C0,0.892771196 0.894513756,0 1.99406028,0 L14.0059397,0 Z M12.7945604,4 L11.5920744,4 C11.327989,4 11.0818511,4.12579605 10.928015,4.3346175 L10.928015,4.3346175 L6.8975075,9.81932542 L5.07198505,7.33359541 C4.91814889,7.12225804 4.66944709,6.99897791 4.40792562,6.99897791 L4.40792562,6.99897791 L3.20543961,6.99897791 C3.03878377,6.99897791 2.9413542,7.18515607 3.03878377,7.31849988 L3.03878377,7.31849988 L6.23601201,11.6660115 C6.56163188,12.1113295 7.23594706,12.1113295 7.56156694,11.6660115 L7.56156694,11.6660115 L12.9612162,4.31952197 C13.0586458,4.18617816 12.9612162,4 12.7945604,4 L12.7945604,4 Z"></path>
                    </g>
                </g>
                <g id="Radio/Selected/Normal-Copy-4" transform="translate(198.000000, 62.000000)">
                    <g id="Rectangle-271" transform="translate(0.000000, 2.000000)" fill="#FFFFFF" stroke="#CCCCCC">
                        <rect x="0.5" y="0.5" width="15" height="15" rx="2"></rect>
                    </g>
                    <text id="Text" font-family="PingFangTC-Regular, PingFang TC" font-size="14" font-weight="normal" line-spacing="22" fill="#545454">
                        <tspan x="24" y="14">選項二</tspan>
                    </text>
                </g>
            </g>
        </g>
    </g>
</svg>