<?xml version="1.0" encoding="UTF-8"?>
<svg width="517px" height="292px" viewBox="0 0 517 292" version="1.1" xmlns="http://www.w3.org/2000/svg" xmlns:xlink="http://www.w3.org/1999/xlink">
    <title>一般列表</title>
    <defs>
        <path d="M8,0 L332,0 C336.418278,0 340,3.581722 340,8 L340,36 L340,36 L0,36 L0,8 C0,3.581722 3.581722,0 8,0 Z" id="path-1"></path>
        <filter x="-0.1%" y="-1.4%" width="100.3%" height="102.8%" filterUnits="objectBoundingBox" id="filter-2">
            <feOffset dx="0" dy="-1" in="SourceAlpha" result="shadowOffsetInner1"></feOffset>
            <feComposite in="shadowOffsetInner1" in2="SourceAlpha" operator="arithmetic" k2="-1" k3="1" result="shadowInnerInner1"></feComposite>
            <feColorMatrix values="0 0 0 0 0.898039216   0 0 0 0 0.898039216   0 0 0 0 0.898039216  0 0 0 1 0" type="matrix" in="shadowInnerInner1"></feColorMatrix>
        </filter>
    </defs>
    <g id="一般列表" stroke="none" stroke-width="1" fill="none" fill-rule="evenodd">
        <g>
            <g id="button05-copy">
                <g id="Rectangle" fill-rule="nonzero">
                    <g id="path-1-link" transform="translate(1.000000, 1.000000)" fill="#F5F6F8">
                        <rect id="path-1" x="0" y="0" width="400" height="290" rx="8"></rect>
                    </g>
                    <rect stroke="#E5E5E5" fill-opacity="0.3" fill="#FFFFFF" x="0.5" y="0.5" width="401" height="291" rx="8"></rect>
                </g>
                <path d="M31,1 L393,1 C397.418278,1 401,4.581722 401,9 L401,31 L401,31 L31,31 L31,1 Z" id="Rectangle" fill="#043458" fill-rule="nonzero"></path>
                <path d="M334,1 L382,1 C384.209139,1 386,2.790861 386,5 L386,12 L386,12 L330,12 L330,5 C330,2.790861 331.790861,1 334,1 Z" id="Rectangle-Copy-2" fill="#F5A700" fill-rule="nonzero" transform="translate(358.000000, 6.500000) scale(-1, 1) rotate(-180.000000) translate(-358.000000, -6.500000) "></path>
                <text id="|||||||||||||||||||||" fill="#7F7F7F" fill-rule="nonzero" font-family="PingFangTC-Regular, PingFang TC" font-size="14" font-weight="normal">
                    <tspan x="46.335" y="21">|||||||||||||||||||||</tspan>
                </text>
                <path d="M9,1 L31,1 L31,1 L31,291 L9,291 C4.581722,291 1,287.418278 1,283 L1,9 C1,4.581722 4.581722,1 9,1 Z" id="Rectangle" fill="#FFFFFF" fill-rule="nonzero"></path>
                <g id="table" transform="translate(46.000000, 97.000000)">
                    <rect id="bg" fill="#FFFFFF" fill-rule="nonzero" x="0" y="0" width="340" height="180" rx="4"></rect>
                    <g id="list" transform="translate(15.000000, 85.000000)" fill-rule="nonzero">
                        <rect id="Rectangle-Copy-7" fill="#ECEDF1" x="31" y="0" width="175" height="16"></rect>
                        <g id="Combined-Shape" fill="#004477">
                            <path d="M14.0059397,0 C15.1072288,0 16,0.894513756 16,1.99406028 L16,14.0059397 C16,15.1072288 15.1054862,16 14.0059397,16 L1.99406028,16 C0.892771196,16 0,15.1054862 0,14.0059397 L0,1.99406028 C0,0.892771196 0.894513756,0 1.99406028,0 L14.0059397,0 Z M12.7945604,4 L11.5920744,4 C11.327989,4 11.0818511,4.12579605 10.928015,4.3346175 L10.928015,4.3346175 L6.8975075,9.81932542 L5.07198505,7.33359541 C4.91814889,7.12225804 4.66944709,6.99897791 4.40792562,6.99897791 L4.40792562,6.99897791 L3.20543961,6.99897791 C3.03878377,6.99897791 2.9413542,7.18515607 3.03878377,7.31849988 L3.03878377,7.31849988 L6.23601201,11.6660115 C6.56163188,12.1113295 7.23594706,12.1113295 7.56156694,11.6660115 L7.56156694,11.6660115 L12.9612162,4.31952197 C13.0586458,4.18617816 12.9612162,4 12.7945604,4 L12.7945604,4 Z" id="Shape"></path>
                        </g>
                        <rect id="Rectangle-Copy-7" fill="#ECEDF1" x="31" y="31" width="175" height="16"></rect>
                        <g id="Rectangle-271" transform="translate(0.000000, 31.000000)" fill="#FFFFFF" stroke="#CCCCCC">
                            <rect id="Rectangle" x="0.5" y="0.5" width="15" height="15" rx="2"></rect>
                        </g>
                        <rect id="Rectangle-Copy-7" fill="#ECEDF1" x="31" y="62" width="175" height="16"></rect>
                        <rect id="Rectangle-Copy-7" fill="#ECEDF1" x="221" y="0" width="89" height="16"></rect>
                        <rect id="Rectangle-Copy-7" fill="#ECEDF1" x="221" y="31" width="89" height="16"></rect>
                        <rect id="Rectangle-Copy-7" fill="#ECEDF1" x="221" y="62" width="89" height="16"></rect>
                        <g id="Rectangle-271" transform="translate(0.000000, 62.000000)" fill="#FFFFFF" stroke="#CCCCCC">
                            <rect id="Rectangle" x="0.5" y="0.5" width="15" height="15" rx="2"></rect>
                        </g>
                    </g>
                    <g id="title">
                        <g id="path-2">
                            <use fill="#FFFFFF" fill-rule="evenodd" xlink:href="#path-1"></use>
                            <use fill="black" fill-opacity="1" filter="url(#filter-2)" xlink:href="#path-1"></use>
                        </g>
                        <text id="|||||||||||||||||||||" fill="#7F7F7F" fill-rule="nonzero" font-family="PingFangTC-Regular, PingFang TC" font-size="14" font-weight="normal">
                            <tspan x="15.335" y="25">|||||||||||||||||||||</tspan>
                        </text>
                        <rect id="Rectangle-40-Copy-13" fill="#004477" fill-rule="nonzero" x="285" y="10" width="40" height="16" rx="2"></rect>
                    </g>
                    <g id="Group" transform="translate(15.000000, 53.000000)" fill-rule="nonzero">
                        <g id="info">
                            <text id="|||||||||||||||||||||-copy" fill="#7F7F7F" font-family="PingFangTC-Regular, PingFang TC" font-size="14" font-weight="normal">
                                <tspan x="26" y="15">|||||||||||||||||||||</tspan>
                            </text>
                            <g id="Icon/system/alert/Info/20px" transform="translate(0.859750, 2.000000)">
                                <path d="M7.57012505,15.14025 C3.38881379,15.14025 -5.32907052e-15,11.7514363 -5.32907052e-15,7.57012505 C-5.32907052e-15,3.38881379 3.38881379,-5.32907052e-15 7.57012505,-5.32907052e-15 C11.7514363,-5.32907052e-15 15.14025,3.38881379 15.14025,7.57012505 C15.14025,11.7514363 11.7514363,15.14025 7.57012505,15.14025 L7.57012505,15.14025 Z" id="Path" fill="#7F7F7F"></path>
                                <path d="M8.11084826,5.40723217 C8.40948144,5.40723217 8.65157148,5.6493222 8.65157148,5.94795539 L8.65086854,10.8130747 L9.73301791,10.8144643 C10.0316511,10.8144643 10.2737411,11.0565544 10.2737411,11.3551876 L10.2737411,11.8959108 C10.2737411,12.194544 10.0316511,12.436634 9.73301791,12.436634 L5.94795539,12.436634 C5.6493222,12.436634 5.40723217,12.194544 5.40723217,11.8959108 L5.40723217,11.3551876 C5.40723217,11.0565544 5.6493222,10.8144643 5.94795539,10.8144643 L7.02905036,10.8130747 L7.02905036,7.02834742 L6.16424468,7.02940182 C5.86561149,7.02940182 5.62352145,6.7873118 5.62352145,6.4886786 L5.62352145,5.94795539 C5.62352145,5.6493222 5.86561149,5.40723217 6.16424468,5.40723217 L8.11084826,5.40723217 Z M7.57012505,2.16289287 C8.16739142,2.16289287 8.65157148,2.64707293 8.65157148,3.2443393 C8.65157148,3.84160567 8.16739142,4.32578575 7.57012505,4.32578575 C6.97285866,4.32578575 6.4886786,3.84160567 6.4886786,3.2443393 C6.4886786,2.64707293 6.97285866,2.16289287 7.57012505,2.16289287 Z" id="Combined-Shape" fill="#FFFFFF"></path>
                            </g>
                        </g>
                        <g id="info-copy">
                            <text id="|||||||||||||||||||||-copy" fill="#7F7F7F" font-family="PingFangTC-Regular, PingFang TC" font-size="14" font-weight="normal">
                                <tspan x="26" y="15">|||||||||||||||||||||</tspan>
                            </text>
                            <g id="Icon/system/alert/Info/20px" transform="translate(0.859750, 2.000000)">
                                <path d="M7.57012505,15.14025 C3.38881379,15.14025 -5.32907052e-15,11.7514363 -5.32907052e-15,7.57012505 C-5.32907052e-15,3.38881379 3.38881379,-5.32907052e-15 7.57012505,-5.32907052e-15 C11.7514363,-5.32907052e-15 15.14025,3.38881379 15.14025,7.57012505 C15.14025,11.7514363 11.7514363,15.14025 7.57012505,15.14025 L7.57012505,15.14025 Z" id="Path" fill="#7F7F7F"></path>
                                <path d="M8.11084826,5.40723217 C8.40948144,5.40723217 8.65157148,5.6493222 8.65157148,5.94795539 L8.65086854,10.8130747 L9.73301791,10.8144643 C10.0316511,10.8144643 10.2737411,11.0565544 10.2737411,11.3551876 L10.2737411,11.8959108 C10.2737411,12.194544 10.0316511,12.436634 9.73301791,12.436634 L5.94795539,12.436634 C5.6493222,12.436634 5.40723217,12.194544 5.40723217,11.8959108 L5.40723217,11.3551876 C5.40723217,11.0565544 5.6493222,10.8144643 5.94795539,10.8144643 L7.02905036,10.8130747 L7.02905036,7.02834742 L6.16424468,7.02940182 C5.86561149,7.02940182 5.62352145,6.7873118 5.62352145,6.4886786 L5.62352145,5.94795539 C5.62352145,5.6493222 5.86561149,5.40723217 6.16424468,5.40723217 L8.11084826,5.40723217 Z M7.57012505,2.16289287 C8.16739142,2.16289287 8.65157148,2.64707293 8.65157148,3.2443393 C8.65157148,3.84160567 8.16739142,4.32578575 7.57012505,4.32578575 C6.97285866,4.32578575 6.4886786,3.84160567 6.4886786,3.2443393 C6.4886786,2.64707293 6.97285866,2.16289287 7.57012505,2.16289287 Z" id="Combined-Shape" fill="#FFFFFF"></path>
                            </g>
                        </g>
                        <g id="pagination" transform="translate(237.000000, 2.000000)">
                            <g id="Select/Medium/Selected" transform="translate(57.000000, 0.000000)">
                                <path d="M13.7825193,0.246153846 C14.2591212,0.246153846 14.6906123,0.438966207 15.0028528,0.751206759 C15.3148229,1.06317683 15.5076923,1.49433683 15.5076923,1.97132687 L15.5076923,1.97132687 L15.5076923,13.7825193 C15.5076923,14.2591212 15.31488,14.6906123 15.0026394,15.0028528 C14.6906693,15.3148229 14.2595093,15.5076923 13.7825193,15.5076923 L13.7825193,15.5076923 L1.97132687,15.5076923 C1.4947249,15.5076923 1.06323389,15.31488 0.750993334,15.0026394 C0.439023264,14.6906693 0.246153846,14.2595093 0.246153846,13.7825193 L0.246153846,13.7825193 L0.246153846,1.97132687 C0.246153846,1.4947249 0.438966207,1.06323389 0.751206759,0.750993334 C1.06317683,0.439023264 1.49433683,0.246153846 1.97132687,0.246153846 L1.97132687,0.246153846 L13.7825193,0.246153846 Z" id="Rectangle-26-Copy-23" stroke="#CCCCCC" stroke-width="0.5" fill="#FFFFFF"></path>
                                <g id="Mask" transform="translate(5.415385, 4.923077)" fill="#7F7F7F">
                                    <path d="M0.540435658,5.53389721 C0.605051042,5.53389721 0.6703395,5.51235874 0.724858732,5.46928182 L3.57735872,3.17476258 C3.64668564,3.1188972 3.68707028,3.03476258 3.68707028,2.94524335 C3.68707028,2.85639719 3.64668564,2.7715895 3.57735872,2.71639719 L0.736974119,0.433993349 C0.610435658,0.332358735 0.4253395,0.35255104 0.323704886,0.479089502 C0.222070272,0.605627963 0.242262577,0.790724116 0.368801039,0.892358735 L2.92380104,2.94591643 L0.356012578,5.01091643 C0.229474117,5.11255104 0.209281812,5.29764721 0.310916426,5.42418565 C0.369474117,5.4962049 0.454281812,5.53389721 0.540435658,5.53389721 Z" id="path-11"></path>
                                </g>
                            </g>
                            <g id="Select/Medium/Selected">
                                <path d="M13.7825193,0.246153846 C14.2591212,0.246153846 14.6906123,0.438966207 15.0028528,0.751206759 C15.3148229,1.06317683 15.5076923,1.49433683 15.5076923,1.97132687 L15.5076923,1.97132687 L15.5076923,13.7825193 C15.5076923,14.2591212 15.31488,14.6906123 15.0026394,15.0028528 C14.6906693,15.3148229 14.2595093,15.5076923 13.7825193,15.5076923 L13.7825193,15.5076923 L1.97132687,15.5076923 C1.4947249,15.5076923 1.06323389,15.31488 0.750993334,15.0026394 C0.439023264,14.6906693 0.246153846,14.2595093 0.246153846,13.7825193 L0.246153846,13.7825193 L0.246153846,1.97132687 C0.246153846,1.4947249 0.438966207,1.06323389 0.751206759,0.750993334 C1.06317683,0.439023264 1.49433683,0.246153846 1.97132687,0.246153846 L1.97132687,0.246153846 L13.7825193,0.246153846 Z" id="Rectangle-26-Copy-23" stroke="#CCCCCC" stroke-width="0.5" fill="#FFFFFF"></path>
                                <g id="Mask" transform="translate(5.415385, 4.923077)" fill="#7F7F7F">
                                    <path d="M3.39278846,5.53389721 C3.32817308,5.53389721 3.26288461,5.51235874 3.20836539,5.46928182 L0.355865383,3.17476258 C0.286538462,3.1188972 0.246153846,3.03476258 0.246153846,2.94524335 C0.246153846,2.85639719 0.286538462,2.7715895 0.355865383,2.71639719 L3.19625,0.433993349 C3.32278846,0.332358735 3.5078846,0.35255104 3.60951921,0.479089502 C3.71115382,0.605627963 3.69096153,0.790724116 3.56442309,0.892358735 L1.00942308,2.94524335 L3.57721152,5.01091643 C3.70375001,5.11255104 3.7239423,5.29764721 3.62230769,5.42418565 C3.56375001,5.4962049 3.47894233,5.53389721 3.39278846,5.53389721 Z" id="path-13"></path>
                                </g>
                            </g>
                            <g id="Input/Medium/Placeholder-" transform="translate(20.000000, 0.000000)" fill="#FFFFFF" stroke="#CCCCCC" stroke-width="0.5">
                                <path d="M31.5077707,0.246153846 C31.9837408,0.246153846 32.4146477,0.438943905 32.7264701,0.751110686 C33.0381206,1.06310532 33.2307692,1.49430566 33.2307692,1.97132687 L33.2307692,1.97132687 L33.2307692,13.7825193 C33.2307692,14.2593292 33.0384194,14.6910282 32.7264602,15.0033319 C32.4150981,15.3150378 31.984634,15.5076923 31.5077707,15.5076923 L31.5077707,15.5076923 L1.96915239,15.5076923 C1.49318223,15.5076923 1.06227541,15.3149023 0.750452967,15.0027355 C0.438802477,14.6907408 0.246153846,14.2595405 0.246153846,13.7825193 L0.246153846,13.7825193 L0.246153846,1.97132687 C0.246153846,1.49451695 0.438503637,1.06281792 0.750462878,0.750514196 C1.06182492,0.438808325 1.49228902,0.246153846 1.96915239,0.246153846 L1.96915239,0.246153846 L31.5077707,0.246153846 Z" id="Rectangle"></path>
                            </g>
                        </g>
                    </g>
                </g>
                <g id="Group-8" transform="translate(46.000000, 46.000000)" fill-rule="nonzero">
                    <rect id="Rectangle-Copy-6" fill="#FFFFFF" x="0" y="0" width="340" height="36" rx="4"></rect>
                    <rect id="Rectangle-Copy-6" fill="#F1F8FE" x="10" y="10" width="210" height="16"></rect>
                    <g id="Button/Primary/Basic/Small" transform="translate(285.000000, 10.000000)" fill="#004477">
                        <rect id="Rectangle-40-Copy-13" x="0" y="0" width="40" height="16" rx="2"></rect>
                    </g>
                    <g id="Button/Primary/Basic/Small-Copy" transform="translate(235.000000, 10.000000)" fill="#FFFFFF" stroke="#CCCCCC">
                        <path d="M38.0027084,0.5 C38.4160889,0.5 38.7903336,0.66757253 39.0613105,0.938110935 C39.3322215,1.20858367 39.5,1.58205484 39.5,1.99406028 L39.5,1.99406028 L39.5,14.0059397 C39.5,14.418692 39.3329047,14.7923905 39.0620872,15.0627699 C38.7913248,15.3330942 38.4169982,15.5 38.0027084,15.5 L38.0027084,15.5 L1.99729162,15.5 C1.58305215,15.5 1.2078669,15.3336012 0.936692146,15.0623165 C0.666463893,14.7919787 0.5,14.4177602 0.5,14.0018986 L0.5,14.0018986 L0.5,1.99810135 C0.5,1.58411665 0.66717841,1.20925692 0.938270807,0.938054614 C1.20894168,0.667274009 1.5831181,0.5 1.99729162,0.5 L1.99729162,0.5 L38.0027084,0.5 Z" id="Bg"></path>
                    </g>
                </g>
            </g>
            <g id="Group-7-Copy" transform="translate(411.000000, 51.000000)" fill-rule="nonzero">
                <path d="M72,0 C73.1045695,0 74,0.8954305 74,2 L74,20 C74,21.1045695 73.1045695,22 72,22 L5,22 C3.8954305,22 3,21.1045695 3,20 L3,14 L0,11 L3,8 L3,2 C3,0.8954305 3.8954305,0 5,0 L72,0 Z" id="Bg" fill="#50E3C2"></path>
                <g id="数据" transform="translate(7.000000, 3.000000)" fill="#FFFFFF" font-family="PingFangTC-Regular, PingFang TC" font-size="12" font-weight="normal">
                    <text id="篩選與搜尋">
                        <tspan x="0" y="13">篩選與搜尋</tspan>
                    </text>
                </g>
            </g>
            <g id="Group-7-Copy-2" transform="translate(411.000000, 94.000000)" fill-rule="nonzero">
                <path d="M104,0 C105.104569,0 106,0.8954305 106,2 L106,38 C106,39.1045695 105.104569,40 104,40 L5,40 C3.8954305,40 3,39.1045695 3,38 L3,22 L0,19 L3,16 L3,2 C3,0.8954305 3.8954305,0 5,0 L104,0 Z" id="Bg" fill="#50E3C2"></path>
                <g id="数据" transform="translate(7.000000, 3.000000)" fill="#FFFFFF" font-family="PingFangTC-Regular, PingFang TC" font-size="12" font-weight="normal">
                    <text id="標題、批次操作、">
                        <tspan x="0" y="13">標題、批次操作、</tspan>
                    </text>
                    <text id="數據導入">
                        <tspan x="0" y="30">數據導入</tspan>
                    </text>
                </g>
            </g>
            <g id="Group-7-Copy-3" transform="translate(411.000000, 187.000000)" fill-rule="nonzero">
                <path d="M60,0 C61.1045695,0 62,0.8954305 62,2 L62,20 C62,21.1045695 61.1045695,22 60,22 L5,22 C3.8954305,22 3,21.1045695 3,20 L3,14 L0,11 L3,8 L3,2 C3,0.8954305 3.8954305,0 5,0 L60,0 Z" id="Bg" fill="#50E3C2"></path>
                <g id="数据" transform="translate(10.000000, 3.000000)" fill="#FFFFFF" font-family="PingFangTC-Regular, PingFang TC" font-size="12" font-weight="normal">
                    <text id="數據列表">
                        <tspan x="0" y="13">數據列表</tspan>
                    </text>
                </g>
            </g>
        </g>
    </g>
</svg>