<?xml version="1.0" encoding="UTF-8"?>
<svg width="300px" height="230px" viewBox="0 0 300 230" version="1.1" xmlns="http://www.w3.org/2000/svg" xmlns:xlink="http://www.w3.org/1999/xlink">
    <title>搜尋框</title>
    <g id="搜尋框" stroke="none" stroke-width="1" fill="none" fill-rule="evenodd">
        <rect fill="#F2F2F2" x="0" y="0" width="300" height="230"></rect>
        <g id="Group-7" transform="translate(17.000000, 18.000000)">
            <g id="Group-5">
                <g id="Group-2" transform="translate(0.000000, 25.000000)">
                    <rect id="Rectangle-Copy-6-Copy" stroke="#E5E5E5" fill="#FFFFFF" fill-rule="nonzero" x="0" y="0" width="265" height="40" rx="5.78313255"></rect>
                    <rect id="Rectangle-40-Copy-13" fill="#004477" fill-rule="nonzero" x="193" y="12" width="40" height="16" rx="2"></rect>
                    <path d="M184.502708,13 C184.916089,13 185.290334,13.1675725 185.56131,13.4381109 C185.832222,13.7085837 186,14.0820548 186,14.4940603 L186,14.4940603 L186,26.5059397 C186,26.918692 185.832905,27.2923905 185.562087,27.5627699 C185.291325,27.8330942 184.916998,28 184.502708,28 L184.502708,28 L148.497292,28 C148.083052,28 147.707867,27.8336012 147.436692,27.5623165 C147.166464,27.2919787 147,26.9177602 147,26.5018986 L147,26.5018986 L147,14.4981014 C147,14.0841167 147.167178,13.7092569 147.438271,13.4380546 C147.708942,13.167274 148.083118,13 148.497292,13 L148.497292,13 L184.502708,13 Z" id="Bg" stroke="#CCCCCC" fill="#FFFFFF" fill-rule="nonzero"></path>
                    <g id="Group" transform="translate(239.000000, 17.000000)" stroke="#000000" stroke-linecap="round" stroke-linejoin="round" stroke-width="2">
                        <polyline id="Path" points="14 0 7 7 0 0"></polyline>
                    </g>
                    <rect id="Rectangle-Copy-7-Copy-2" fill="#ECEDF1" fill-rule="nonzero" x="13" y="13" width="128" height="15"></rect>
                </g>
                <text id="一般搜尋框" font-family="PingFangTC-Regular, PingFang TC" font-size="12" font-weight="normal" fill="#4C4C4C">
                    <tspan x="0" y="13">一般搜尋框</tspan>
                </text>
            </g>
            <g id="Group-6" transform="translate(0.000000, 85.000000)">
                <text id="進階搜尋框" font-family="PingFangTC-Regular, PingFang TC" font-size="12" font-weight="normal" fill="#4C4C4C">
                    <tspan x="0" y="13">進階搜尋框</tspan>
                </text>
                <g id="Group-4" transform="translate(0.000000, 25.000000)">
                    <rect id="Rectangle-Copy-6-Copy" stroke="#E5E5E5" fill="#FFFFFF" fill-rule="nonzero" x="0" y="0" width="265" height="84" rx="5.78313255"></rect>
                    <rect id="Rectangle-40-Copy-13" fill="#004477" fill-rule="nonzero" x="193" y="12" width="40" height="16" rx="2"></rect>
                    <path d="M184.502708,13 C184.916089,13 185.290334,13.1675725 185.56131,13.4381109 C185.832222,13.7085837 186,14.0820548 186,14.4940603 L186,14.4940603 L186,26.5059397 C186,26.918692 185.832905,27.2923905 185.562087,27.5627699 C185.291325,27.8330942 184.916998,28 184.502708,28 L184.502708,28 L148.497292,28 C148.083052,28 147.707867,27.8336012 147.436692,27.5623165 C147.166464,27.2919787 147,26.9177602 147,26.5018986 L147,26.5018986 L147,14.4981014 C147,14.0841167 147.167178,13.7092569 147.438271,13.4380546 C147.708942,13.167274 148.083118,13 148.497292,13 L148.497292,13 L184.502708,13 Z" id="Bg" stroke="#CCCCCC" fill="#FFFFFF" fill-rule="nonzero"></path>
                    <g id="Group" transform="translate(240.000000, 17.000000)" stroke="#000000" stroke-linecap="round" stroke-linejoin="round" stroke-width="2">
                        <polyline id="Path" points="0 7 7 0 14 7"></polyline>
                    </g>
                    <g id="Group-3" transform="translate(13.000000, 37.000000)" fill="#ECEDF1" fill-rule="nonzero">
                        <rect id="Rectangle-Copy-7-Copy" x="0" y="0" width="241" height="15"></rect>
                    </g>
                    <g id="Group-3-Copy" transform="translate(13.000000, 58.000000)" fill="#ECEDF1" fill-rule="nonzero">
                        <rect id="Rectangle-Copy-7-Copy" x="0" y="0" width="241" height="15"></rect>
                    </g>
                    <rect id="Rectangle-Copy-7-Copy-4" fill="#ECEDF1" fill-rule="nonzero" x="13" y="13" width="128" height="15"></rect>
                </g>
            </g>
        </g>
    </g>
</svg>