<?xml version="1.0" encoding="UTF-8"?>
<svg width="336px" height="103px" viewBox="0 0 336 103" version="1.1" xmlns="http://www.w3.org/2000/svg" xmlns:xlink="http://www.w3.org/1999/xlink">
    <title>聯集</title>
    <g id="聯集" stroke="none" stroke-width="1" fill="none" fill-rule="evenodd">
        <rect fill="#F2F2F2" x="0" y="0" width="336" height="103"></rect>
        <g id="Group-7" transform="translate(12.000000, 12.000000)">
            <g id="Group-6">
                <rect id="Rectangle-Copy-6-Copy" stroke="#E5E5E5" fill="#FFFFFF" fill-rule="nonzero" x="0" y="0" width="312" height="40" rx="5.78313255"></rect>
                <g id="Group-5" transform="translate(12.000000, 12.000000)">
                    <g id="Group-4" fill-rule="nonzero">
                        <g id="Group-2">
                            <path d="M13.1305685,1 C14.163027,1 15,1.83860665 15,2.86943151 L15,14.1305685 C15,15.163027 14.1613933,16 13.1305685,16 L1.86943151,16 C0.836972996,16 0,15.1613933 0,14.1305685 L0,2.86943151 C0,1.836973 0.838606646,1 1.86943151,1 L13.1305685,1 Z M11.9949004,4.75 L10.8675698,4.75 C10.6199897,4.75 10.3892354,4.8679338 10.2450141,5.06370391 L10.2450141,5.06370391 L6.46641328,10.2056176 L4.75498598,7.8752457 C4.61076458,7.67711691 4.37760665,7.56154179 4.13243027,7.56154179 L4.13243027,7.56154179 L3.00509963,7.56154179 C2.84885978,7.56154179 2.75751956,7.73608382 2.84885978,7.86109364 L2.84885978,7.86109364 L5.84626126,11.9368858 C6.15152989,12.3543714 6.78370037,12.3543714 7.08896901,11.9368858 L7.08896901,11.9368858 L12.1511402,5.04955185 C12.2424804,4.92454203 12.1511402,4.75 11.9949004,4.75 L11.9949004,4.75 Z" id="Shape" fill="#004477"></path>
                            <text id="||||||||||" fill="#7F7F7F" font-family="PingFangTC-Regular, PingFang TC" font-size="14" font-weight="normal">
                                <tspan x="18.35" y="15">||||||||||</tspan>
                            </text>
                        </g>
                        <g id="Group-2-Copy" transform="translate(58.000000, 0.000000)">
                            <path d="M13.1305685,1 C14.163027,1 15,1.83860665 15,2.86943151 L15,14.1305685 C15,15.163027 14.1613933,16 13.1305685,16 L1.86943151,16 C0.836972996,16 0,15.1613933 0,14.1305685 L0,2.86943151 C0,1.836973 0.838606646,1 1.86943151,1 L13.1305685,1 Z M11.9949004,4.75 L10.8675698,4.75 C10.6199897,4.75 10.3892354,4.8679338 10.2450141,5.06370391 L10.2450141,5.06370391 L6.46641328,10.2056176 L4.75498598,7.8752457 C4.61076458,7.67711691 4.37760665,7.56154179 4.13243027,7.56154179 L4.13243027,7.56154179 L3.00509963,7.56154179 C2.84885978,7.56154179 2.75751956,7.73608382 2.84885978,7.86109364 L2.84885978,7.86109364 L5.84626126,11.9368858 C6.15152989,12.3543714 6.78370037,12.3543714 7.08896901,11.9368858 L7.08896901,11.9368858 L12.1511402,5.04955185 C12.2424804,4.92454203 12.1511402,4.75 11.9949004,4.75 L11.9949004,4.75 Z" id="Shape" fill="#004477"></path>
                            <text id="||||||||||" fill="#7F7F7F" font-family="PingFangTC-Regular, PingFang TC" font-size="14" font-weight="normal">
                                <tspan x="18.35" y="15">||||||||||</tspan>
                            </text>
                        </g>
                        <g id="Group-3-Copy" transform="translate(116.000000, 0.000000)">
                            <text id="||||||||||-copy" fill="#7F7F7F" font-family="PingFangTC-Regular, PingFang TC" font-size="14" font-weight="normal">
                                <tspan x="19.35" y="15">||||||||||</tspan>
                            </text>
                            <rect id="Rectangle-Copy-4" stroke="#CCCCCC" fill="#FFFFFF" x="0" y="0.969022265" width="15" height="15" rx="2"></rect>
                        </g>
                    </g>
                    <g id="Group-3" transform="translate(183.000000, 0.000000)">
                        <rect id="Rectangle-40-Copy-13" fill="#004477" fill-rule="nonzero" x="46" y="0" width="40" height="16" rx="2"></rect>
                        <path d="M37.5027084,1 C37.9160889,1 38.2903336,1.16757253 38.5613105,1.43811094 C38.8322215,1.70858367 39,2.08205484 39,2.49406028 L39,2.49406028 L39,14.5059397 C39,14.918692 38.8329047,15.2923905 38.5620872,15.5627699 C38.2913248,15.8330942 37.9169982,16 37.5027084,16 L37.5027084,16 L1.49729162,16 C1.08305215,16 0.7078669,15.8336012 0.436692146,15.5623165 C0.166463893,15.2919787 0,14.9177602 0,14.5018986 L0,14.5018986 L0,2.49810135 C0,2.08411665 0.16717841,1.70925692 0.438270807,1.43805461 C0.70894168,1.16727401 1.0831181,1 1.49729162,1 L1.49729162,1 L37.5027084,1 Z" id="Bg" stroke="#CCCCCC" fill="#FFFFFF" fill-rule="nonzero"></path>
                        <polyline id="Path" stroke="#000000" stroke-width="2" stroke-linecap="round" stroke-linejoin="round" points="106 5 99 12 92 5"></polyline>
                    </g>
                </g>
            </g>
            <g id="Group" transform="translate(0.000000, 48.000000)">
                <path d="M2,3.81484582 L81.9243862,3.81484582 L81.9243862,3.81484582 C84.4701024,1.27161527 86.4713421,0 87.9281055,0 C89.3848689,0 91.3427559,1.27161527 93.8017666,3.81484582 L186,3.81484582 C187.104569,3.81484582 188,4.71027632 188,5.81484582 L188,27.8148458 C188,28.9194153 187.104569,29.8148458 186,29.8148458 L2,29.8148458 C0.8954305,29.8148458 1.3527075e-16,28.9194153 0,27.8148458 L0,5.81484582 C-1.3527075e-16,4.71027632 0.8954305,3.81484582 2,3.81484582 Z" id="Rectangle" fill="#50E3C2"></path>
                <text id="同條件內，複選時為聯集OR查詢-Copy" fill="#FFFFFF" fill-rule="nonzero" font-family="PingFangTC-Regular, PingFang TC" font-size="12" font-weight="normal">
                    <tspan x="6.60810811" y="21.6807671">同條件內，複選時為聯集OR查詢</tspan>
                </text>
            </g>
        </g>
    </g>
</svg>